<?xml version="1.0" encoding="utf-8"?>
<!-- Generator: Adobe Illustrator 25.0.1, SVG Export Plug-In . SVG Version: 6.00 Build 0)  -->
<svg version="1.0" id="Layer_1" xmlns="http://www.w3.org/2000/svg" xmlns:xlink="http://www.w3.org/1999/xlink" x="0px" y="0px"
	 viewBox="0 0 298 212" style="enable-background:new 0 0 298 212;" xml:space="preserve">
<style type="text/css">
	.st0{fill:#ffffff;}
	.st1{fill-rule:evenodd;clip-rule:evenodd;fill:#FFFFFF;}
	.st2{fill:none;stroke:#FFFFFF;stroke-width:0.2626;stroke-linecap:round;stroke-linejoin:round;}
	.st3{fill-rule:evenodd;clip-rule:evenodd;fill:#FFFFFF;}
</style>
<g>
	<g>
		
			<image style="overflow:visible;enable-background:new    ;" width="817" height="817" xlink:href="3B82A27F.png"  transform="matrix(0.2388 0 0 0.2388 51.4 8.4)">
		</image>
	</g>
	<g>
		
			<image style="overflow:visible;enable-background:new    ;" width="633" height="633" xlink:href="3B82A27D.png"  transform="matrix(0.2389 0 0 0.2389 73.48 30.48)">
		</image>
	</g>
	<rect x="73.6" y="30.5" class="st0" width="150.9" height="150.9"/>
	<path class="st1" d="M182.1,128.4c-0.3,2.6-1.2,4.7-2.8,6.1s-3.7,2.1-6.4,2.1c-1.9,0-3.5-0.5-4.9-1.4s-2.5-2.2-3.3-4
		c-0.8-1.7-1.2-3.7-1.2-5.9V122c0-2.2,0.4-4.2,1.2-5.9c0.8-1.7,1.9-3.1,3.4-4s3.2-1.4,5.1-1.4c2.7,0,4.8,0.7,6.4,2.2
		c1.6,1.4,2.5,3.5,2.7,6H180c-0.5-4.3-2.8-6.4-6.9-6.4c-2.3,0-4.1,0.9-5.4,2.6c-1.4,1.7-2,4.1-2,7.1v3.1c0,2.9,0.7,5.2,2,6.9
		s3.1,2.6,5.3,2.6c2.2,0,3.9-0.5,5-1.6c1.1-1.1,1.8-2.7,2.1-4.8H182.1L182.1,128.4z M159.3,125c0,2.3-0.4,4.3-1.2,6.1
		c-0.8,1.7-1.9,3.1-3.4,4c-1.5,0.9-3.2,1.4-5.1,1.4c-2.9,0-5.3-1-7.1-3.1c-1.8-2.1-2.7-4.9-2.7-8.5v-2.6c0-2.3,0.4-4.3,1.2-6.1
		c0.8-1.8,2-3.1,3.4-4.1c1.5-0.9,3.2-1.4,5.1-1.4c1.9,0,3.6,0.5,5.1,1.4s2.6,2.2,3.4,3.9c0.8,1.7,1.2,3.7,1.3,5.9L159.3,125
		L159.3,125z M157.2,122.3c0-3-0.7-5.4-2.1-7.1c-1.4-1.7-3.2-2.6-5.6-2.6c-2.3,0-4.2,0.9-5.6,2.6c-1.4,1.7-2.1,4.1-2.1,7.2v2.6
		c0,3,0.7,5.3,2.1,7.1c1.4,1.7,3.3,2.6,5.6,2.6c2.4,0,4.3-0.9,5.6-2.6c1.3-1.7,2-4.1,2-7.2L157.2,122.3L157.2,122.3z M134.4,130
		c0-1.4-0.5-2.5-1.5-3.3s-2.8-1.6-5.4-2.3c-2.6-0.7-4.5-1.5-5.7-2.4c-1.7-1.2-2.6-2.8-2.6-4.8c0-1.9,0.8-3.5,2.4-4.7
		s3.6-1.8,6.1-1.8c1.7,0,3.2,0.3,4.5,1c1.3,0.6,2.3,1.5,3.1,2.7c0.7,1.1,1.1,2.4,1.1,3.8h-2.1c0-1.7-0.6-3.1-1.8-4.1
		c-1.2-1-2.7-1.6-4.7-1.6c-1.9,0-3.4,0.4-4.6,1.3c-1.1,0.9-1.7,2-1.7,3.4c0,1.3,0.5,2.3,1.5,3.1c1,0.8,2.7,1.5,4.9,2.1
		c2.3,0.6,4,1.3,5.1,1.9c1.2,0.7,2,1.5,2.6,2.4s0.9,2,0.9,3.3c0,2-0.8,3.6-2.4,4.8s-3.7,1.8-6.2,1.8c-1.8,0-3.4-0.3-4.9-0.9
		c-1.5-0.6-2.6-1.5-3.4-2.7c-0.8-1.1-1.1-2.4-1.1-3.9h2.1c0,1.8,0.7,3.2,2,4.2s3.1,1.5,5.3,1.5c2,0,3.5-0.4,4.7-1.3
		S134.4,131.5,134.4,130 M192.4,88.4H181l-2.6,7.1h-2.2l9.5-25.1h2l9.5,25.1H195L192.4,88.4L192.4,88.4z M181.7,86.6h10.1l-5-13.7
		L181.7,86.6L181.7,86.6z M162,85.2v10.2h-2.1v-25h8.5c2.6,0,4.7,0.7,6.2,2s2.3,3.2,2.3,5.5c0,2.4-0.7,4.2-2.2,5.5s-3.6,1.9-6.3,1.9
		H162V85.2z M162,83.4h6.4c2.1,0,3.6-0.5,4.7-1.5c1.1-1,1.6-2.3,1.6-4.1c0-1.7-0.5-3.1-1.6-4.2c-1.1-1-2.6-1.6-4.6-1.6H162V83.4z
		 M155.1,87.6c-0.3,2.6-1.2,4.7-2.8,6.1c-1.6,1.4-3.7,2.1-6.4,2.1c-1.9,0-3.5-0.5-4.9-1.4c-1.4-0.9-2.5-2.2-3.3-4
		c-0.8-1.7-1.2-3.7-1.2-5.9v-3.3c0-2.2,0.4-4.2,1.2-5.9c0.8-1.7,1.9-3.1,3.4-4s3.2-1.4,5.1-1.4c2.7,0,4.8,0.7,6.4,2.2
		c1.6,1.4,2.5,3.5,2.7,6h-2.1c-0.5-4.3-2.8-6.4-6.9-6.4c-2.3,0-4.1,0.9-5.4,2.6c-1.4,1.7-2,4.1-2,7.1v3.1c0,2.9,0.7,5.2,2,6.9
		c1.3,1.7,3.1,2.6,5.3,2.6c2.2,0,3.9-0.5,5-1.6c1.1-1.1,1.8-2.7,2.1-4.8L155.1,87.6L155.1,87.6z M128.7,95.5h2.1V70.4h-2.1V95.5z
		 M120.1,88.4h-11.4l-2.6,7.1h-2.2l9.5-25.1h2l9.5,25.1h-2.2L120.1,88.4z M109.4,86.6h10.1l-5-13.7L109.4,86.6z M219,84.7
		c-0.2,0-0.3,0.1-0.3,0.3c0,0.2-0.1,0.4,0,0.7c0,0.3,0,0.6,0,0.8c-0.1,0.5-0.3,0.8-0.7,0.9c-0.3,0.1-0.7,0-1-0.2s-0.5-0.6-0.7-1
		c-0.1-0.5-0.1-0.9,0-1.3s0.4-0.6,0.8-0.7l0.3,0.9c-0.2,0-0.3,0.2-0.4,0.3c-0.1,0.2-0.1,0.3,0,0.6c0.1,0.2,0.2,0.3,0.3,0.4
		s0.3,0.1,0.4,0.1c0.1,0,0.2-0.1,0.3-0.3c0-0.1,0-0.4,0-0.8s0-0.7,0-0.9c0-0.2,0.1-0.4,0.3-0.6c0.1-0.2,0.3-0.3,0.5-0.3
		c0.4-0.1,0.7,0,1,0.2s0.5,0.6,0.7,1.1c0.1,0.3,0.1,0.6,0.1,0.9s-0.1,0.5-0.3,0.7s-0.4,0.3-0.6,0.4l-0.3-0.9
		c0.2-0.1,0.3-0.2,0.4-0.4c0.1-0.2,0.1-0.4,0-0.6s-0.2-0.4-0.3-0.5C219.3,84.6,219.1,84.6,219,84.7 M217.6,91.1L218,91
		c-0.4-0.2-0.7-0.6-0.8-1.1c-0.2-0.8,0.2-1.4,1.2-1.6l2.7-0.6l0.2,0.9l-2.6,0.6c-0.3,0.1-0.4,0.2-0.5,0.3c-0.1,0.1-0.1,0.3-0.1,0.6
		c0.1,0.4,0.3,0.6,0.7,0.7l2.9-0.7l0.2,0.9l-4.1,0.9L217.6,91.1z M220.6,96.2c-0.4,0.1-0.8,0-1.1-0.1s-0.6-0.3-0.9-0.5
		c-0.2-0.3-0.4-0.6-0.4-1c-0.1-0.6,0-1,0.3-1.4s0.7-0.7,1.3-0.8h0.2c0.4-0.1,0.8-0.1,1.1,0.1c0.3,0.1,0.6,0.3,0.9,0.5
		c0.2,0.3,0.4,0.6,0.4,1c0.1,0.6,0,1.1-0.3,1.5C221.7,95.8,221.3,96.1,220.6,96.2L220.6,96.2L220.6,96.2z M220.5,95.3
		c0.4-0.1,0.7-0.2,0.9-0.4c0.2-0.2,0.3-0.5,0.2-0.8c0-0.3-0.2-0.5-0.5-0.7c-0.3-0.1-0.6-0.2-1.1-0.1c-0.4,0.1-0.7,0.2-0.9,0.4
		c-0.2,0.2-0.3,0.5-0.2,0.8c0,0.3,0.2,0.5,0.5,0.7C219.7,95.3,220,95.3,220.5,95.3z M217.7,98.5c-0.1,0-0.3,0-0.4-0.1
		c-0.1-0.1-0.2-0.2-0.2-0.4c0-0.2,0-0.3,0.1-0.4s0.2-0.2,0.3-0.2s0.3,0,0.4,0.1c0.1,0.1,0.2,0.2,0.2,0.4c0,0.2,0,0.3-0.1,0.4
		S217.8,98.4,217.7,98.5L217.7,98.5z M222.8,96.9l0.1,0.9l-4.1,0.5l-0.1-0.9L222.8,96.9L222.8,96.9z M217.9,99.8l1-0.1l-0.1-0.7
		l0.7-0.1l0.1,0.7l2.3-0.2c0.2,0,0.3-0.1,0.3-0.1c0.1-0.1,0.1-0.2,0.1-0.3c0-0.1,0-0.2-0.1-0.3l0.7-0.1c0.1,0.2,0.1,0.4,0.1,0.6
		c0.1,0.7-0.3,1.1-1.1,1.2l-2.3,0.2l0.1,0.7l-0.7,0.1l-0.1-0.7l-1,0.1V99.8L217.9,99.8z M223.3,102.5c-0.1,0.1-0.3,0.1-0.4,0.1
		c0.3,0.3,0.5,0.6,0.5,1.1c0,0.4-0.1,0.8-0.3,1c-0.2,0.3-0.5,0.4-0.9,0.4s-0.8-0.1-1-0.5c-0.2-0.3-0.4-0.8-0.4-1.4v-0.6h-0.3
		c-0.2,0-0.4,0.1-0.5,0.2s-0.2,0.3-0.2,0.6c0,0.2,0.1,0.4,0.2,0.5c0.1,0.1,0.2,0.2,0.4,0.2v0.9c-0.2,0-0.5-0.1-0.6-0.2
		c-0.2-0.2-0.4-0.4-0.5-0.6c-0.1-0.3-0.2-0.6-0.2-0.9c0-0.5,0.1-0.9,0.3-1.2c0.2-0.3,0.6-0.5,1-0.5l1.9-0.1c0.4,0,0.7-0.1,0.9-0.2
		h0.1V102.5L223.3,102.5z M222.6,103.6c0-0.2-0.1-0.4-0.2-0.5c-0.1-0.2-0.2-0.3-0.4-0.4h-0.8v0.5c0,0.3,0.1,0.6,0.2,0.8
		c0.1,0.2,0.3,0.2,0.5,0.2s0.3-0.1,0.4-0.2C222.6,103.9,222.6,103.8,222.6,103.6L222.6,103.6z M222.6,108.1v-2.2h0.7l-0.1,3.4h-0.6
		l-2.8-2.2v2.1H219l0.1-3.3h0.6L222.6,108.1z M217.9,111c-0.1,0-0.3-0.1-0.3-0.2c-0.1-0.1-0.1-0.2-0.1-0.4c0-0.2,0.1-0.3,0.2-0.4
		c0.1-0.1,0.2-0.1,0.4-0.1c0.1,0,0.3,0.1,0.3,0.2c0.1,0.1,0.1,0.2,0.1,0.4c0,0.2-0.1,0.3-0.2,0.4C218.2,110.9,218.1,111,217.9,111
		L217.9,111z M223.2,110.3l-0.1,0.9L219,111l0.1-0.9L223.2,110.3L223.2,110.3z M218.7,114.5h0.5c-0.3-0.3-0.5-0.8-0.4-1.3
		c0.1-0.9,0.6-1.2,1.6-1.2l2.7,0.3l-0.1,0.9l-2.7-0.3c-0.3,0-0.5,0-0.6,0.1s-0.2,0.3-0.2,0.5c0,0.4,0.1,0.7,0.4,0.9l2.9,0.3
		l-0.1,0.9l-4.1-0.4L218.7,114.5L218.7,114.5z M222.5,117.8c-0.1,0-0.2,0-0.4,0c0.3,0.3,0.3,0.7,0.3,1.2c-0.1,0.4-0.2,0.7-0.5,0.9
		c-0.3,0.2-0.6,0.3-0.9,0.2c-0.4-0.1-0.7-0.3-0.9-0.7c-0.2-0.4-0.2-0.8-0.1-1.5l0.1-0.6h-0.3c-0.2,0-0.4,0-0.5,0.1s-0.2,0.3-0.3,0.5
		c0,0.2,0,0.4,0.1,0.5c0.1,0.2,0.2,0.2,0.4,0.3l-0.2,0.9c-0.2,0-0.4-0.2-0.6-0.3c-0.2-0.2-0.3-0.4-0.4-0.7c-0.1-0.3-0.1-0.6,0-0.9
		c0.1-0.5,0.3-0.8,0.6-1.1c0.3-0.2,0.7-0.3,1.1-0.3l1.9,0.3c0.4,0.1,0.7,0.1,0.9,0h0.1L222.5,117.8L222.5,117.8z M221.6,118.7
		c0-0.2,0-0.4,0-0.5c-0.1-0.2-0.2-0.3-0.3-0.4l-0.8-0.1l-0.1,0.5c-0.1,0.3,0,0.6,0,0.8c0.1,0.2,0.2,0.3,0.5,0.3c0.2,0,0.3,0,0.5-0.1
		C221.5,119,221.6,118.9,221.6,118.7L221.6,118.7z M218.9,124.5c-0.6-0.1-1.1-0.4-1.4-0.8c-0.3-0.4-0.4-0.8-0.3-1.3
		c0.1-0.5,0.4-0.8,0.7-1l-0.4-0.1l0.2-0.8l3.9,0.9c0.5,0.1,0.9,0.4,1.1,0.8c0.2,0.4,0.3,0.9,0.1,1.4c-0.1,0.3-0.2,0.6-0.4,0.8
		c-0.2,0.3-0.4,0.4-0.6,0.5l-0.4-0.6c0.4-0.2,0.6-0.5,0.7-0.9c0.1-0.3,0-0.6-0.1-0.8c-0.1-0.2-0.3-0.4-0.7-0.4l-0.3-0.1
		c0.2,0.3,0.3,0.7,0.2,1.2s-0.4,0.8-0.8,1C220.1,124.6,219.6,124.6,218.9,124.5 M219.2,123.6c0.4,0.1,0.7,0.1,1,0s0.5-0.3,0.5-0.6
		c0.1-0.4,0-0.7-0.3-0.9l-1.8-0.4c-0.3,0.1-0.6,0.3-0.7,0.7c-0.1,0.3,0,0.6,0.2,0.8C218.4,123.3,218.8,123.5,219.2,123.6
		 M217.6,124.6c-0.1,0.1-0.1,0.2-0.1,0.4c-0.1,0.4,0,0.7,0.2,1l2.7,0.8l-0.3,0.9l-4-1.2l0.2-0.9l0.5,0.1c-0.3-0.3-0.4-0.7-0.3-1.1
		c0-0.1,0.1-0.2,0.1-0.3L217.6,124.6L217.6,124.6z M217.4,127.8c0.5,0.2,0.9,0.4,1.3,0.7c0.3,0.3,0.5,0.7,0.6,1.1
		c0.1,0.4,0.1,0.8-0.1,1.3c-0.1,0.4-0.4,0.8-0.7,1c-0.3,0.3-0.7,0.4-1.2,0.5c-0.5,0-0.9,0-1.4-0.2l-0.3-0.1
		c-0.5-0.2-0.9-0.4-1.3-0.8c-0.3-0.3-0.5-0.7-0.6-1.1c-0.1-0.4-0.1-0.8,0.1-1.3c0.2-0.4,0.4-0.8,0.7-1c0.3-0.3,0.7-0.4,1.2-0.5
		c0.5,0,0.9,0,1.5,0.2L217.4,127.8L217.4,127.8z M216.8,128.6c-0.6-0.2-1.1-0.3-1.5-0.1c-0.4,0.1-0.7,0.4-0.8,0.8s-0.1,0.8,0.1,1.1
		c0.2,0.3,0.6,0.6,1.2,0.8l0.3,0.1c0.6,0.2,1.1,0.2,1.5,0.1c0.4-0.1,0.7-0.4,0.8-0.8c0.1-0.4,0.1-0.8-0.1-1.1
		c-0.2-0.3-0.6-0.6-1.2-0.8L216.8,128.6L216.8,128.6z M216.6,137.3c-0.2,0.5-0.6,0.9-1.1,1.1c-0.5,0.2-1,0.1-1.6-0.1h-0.1
		c-0.4-0.2-0.7-0.4-0.9-0.7s-0.4-0.6-0.4-0.9c0-0.3,0-0.7,0.2-1c0.2-0.5,0.6-0.8,1-1c0.5-0.1,1-0.1,1.6,0.2l0.3,0.2l-1.2,2.5
		c0.3,0.1,0.6,0.1,0.9,0c0.3-0.1,0.5-0.3,0.6-0.6c0.2-0.4,0.2-0.8,0-1.2l0.6-0.3c0.2,0.3,0.2,0.5,0.2,0.8
		C216.8,136.7,216.7,137,216.6,137.3 M213.3,135.9c-0.1,0.2-0.1,0.4,0,0.7c0.1,0.2,0.3,0.4,0.6,0.6l0.8-1.6h-0.1
		c-0.3-0.1-0.5-0.1-0.7-0.1C213.6,135.5,213.4,135.7,213.3,135.9 M213.9,140.9c0.1-0.2,0.1-0.4,0.1-0.6c0-0.2-0.2-0.4-0.3-0.5
		l0.4-0.8c0.2,0.1,0.4,0.3,0.5,0.6c0.1,0.2,0.2,0.5,0.2,0.8s-0.1,0.6-0.2,0.8c-0.3,0.5-0.7,0.8-1.2,0.9c-0.5,0.1-1,0-1.6-0.3h-0.1
		c-0.6-0.3-0.9-0.7-1.1-1.2c-0.2-0.5-0.1-1,0.2-1.5c0.2-0.4,0.6-0.7,1-0.9c0.4-0.1,0.8-0.1,1.2,0.1l-0.4,0.8
		c-0.2-0.1-0.4-0.1-0.6-0.1c-0.2,0.1-0.4,0.2-0.5,0.4c-0.1,0.3-0.2,0.5,0,0.8c0.1,0.2,0.4,0.5,0.8,0.7l0.1,0.1
		c0.4,0.2,0.7,0.3,1,0.3C213.6,141.4,213.8,141.2,213.9,140.9 M208.1,141.9c-0.1-0.1-0.2-0.2-0.2-0.3s0-0.3,0.1-0.4
		c0.1-0.1,0.2-0.2,0.3-0.3c0.1,0,0.3,0,0.4,0.1c0.1,0.1,0.2,0.2,0.2,0.3s0,0.3-0.1,0.4c-0.1,0.1-0.2,0.2-0.3,0.3
		C208.4,142,208.2,142,208.1,141.9L208.1,141.9z M213.1,143.8l-0.5,0.8l-3.6-2.1l0.5-0.8L213.1,143.8z M210.2,146.2l-2-2.4l0.5-0.8
		l2.7,3.5l-0.4,0.7l-4.3-1.1l0.5-0.8L210.2,146.2z M207.3,146.8c-0.1,0.1-0.2,0.2-0.2,0.3c-0.3,0.3-0.3,0.7-0.1,1l2.3,1.7l-0.5,0.8
		l-3.4-2.4l0.5-0.7l0.4,0.3c-0.2-0.4-0.1-0.8,0.1-1.1c0.1-0.1,0.1-0.2,0.2-0.2L207.3,146.8L207.3,146.8z M207.2,152.6
		c-0.4,0.5-0.8,0.7-1.3,0.8s-1-0.1-1.5-0.5l-0.1-0.1c-0.3-0.2-0.5-0.5-0.7-0.9c-0.2-0.3-0.2-0.7-0.2-1s0.2-0.6,0.4-0.9
		c0.4-0.4,0.8-0.7,1.2-0.7c0.5,0,1,0.2,1.5,0.6l0.3,0.2l-1.7,2.1c0.3,0.2,0.6,0.3,0.9,0.2c0.3,0,0.5-0.2,0.7-0.4
		c0.3-0.3,0.4-0.7,0.3-1.1l0.7-0.1c0.1,0.3,0.1,0.6,0,0.9C207.5,152,207.4,152.3,207.2,152.6 M204.3,150.4c-0.2,0.2-0.2,0.4-0.2,0.7
		c0,0.2,0.2,0.5,0.4,0.7l1.1-1.4h-0.1c-0.3-0.2-0.5-0.3-0.7-0.2C204.7,150.1,204.5,150.2,204.3,150.4 M203.6,154.4
		c-0.2-0.2-0.4-0.2-0.6-0.2c-0.2,0-0.5,0.2-0.9,0.4s-0.8,0.4-1.1,0.5c-0.6,0.2-1.1,0.1-1.4-0.3c-0.3-0.3-0.5-0.7-0.4-1.2
		c0-0.5,0.2-0.9,0.6-1.4c0.3-0.3,0.6-0.5,0.9-0.6c0.3-0.1,0.6-0.2,0.9-0.1c0.3,0.1,0.6,0.2,0.8,0.4l-0.7,0.7
		c-0.2-0.2-0.4-0.3-0.7-0.3c-0.2,0-0.5,0.2-0.7,0.4s-0.3,0.5-0.3,0.7s0.1,0.4,0.2,0.6c0.2,0.1,0.3,0.2,0.6,0.1
		c0.2,0,0.5-0.2,0.9-0.4s0.7-0.4,1-0.5s0.6-0.1,0.8,0s0.5,0.2,0.7,0.4c0.3,0.3,0.5,0.7,0.5,1.1c0,0.5-0.3,0.9-0.7,1.4
		c-0.3,0.3-0.6,0.5-0.9,0.7c-0.3,0.1-0.7,0.2-1,0.2s-0.6-0.2-0.9-0.4l0.7-0.7c0.2,0.2,0.5,0.3,0.8,0.3s0.5-0.2,0.8-0.5
		c0.2-0.2,0.3-0.5,0.4-0.7C203.8,154.8,203.8,154.6,203.6,154.4 M199.5,162.1l-0.3,0.3l-4.4-4.9l0.3-0.3L199.5,162.1z M193.4,164.4
		c-0.1-0.2-0.3-0.3-0.5-0.3s-0.5,0.1-0.9,0.2c-0.3,0.2-0.6,0.3-0.9,0.3c-0.2,0-0.4,0-0.6,0c-0.2-0.1-0.3-0.2-0.4-0.3
		c-0.2-0.3-0.2-0.6-0.2-0.9c0.1-0.3,0.3-0.6,0.7-0.9c0.4-0.3,0.7-0.4,1.1-0.4c0.4,0,0.7,0.2,0.9,0.5l-0.4,0.3
		c-0.1-0.2-0.4-0.3-0.6-0.3c-0.3,0-0.5,0.1-0.8,0.3c-0.2,0.2-0.4,0.4-0.5,0.6c-0.1,0.2,0,0.4,0.1,0.6c0.1,0.2,0.3,0.3,0.5,0.3
		s0.5-0.1,0.9-0.2c0.4-0.2,0.7-0.3,0.9-0.3s0.4,0,0.6,0c0.2,0.1,0.3,0.2,0.4,0.4c0.2,0.3,0.3,0.6,0.2,0.9c-0.1,0.3-0.3,0.6-0.7,0.9
		c-0.4,0.3-0.8,0.4-1.2,0.4s-0.7-0.2-0.9-0.4l0.4-0.3c0.2,0.2,0.4,0.3,0.6,0.3c0.3,0,0.5-0.1,0.8-0.3s0.4-0.4,0.5-0.6
		C193.6,164.7,193.5,164.5,193.4,164.4 M186.4,165.5l0.4,0.6c0-0.3,0-0.6,0.2-0.8c0.1-0.2,0.3-0.4,0.5-0.6c0.4-0.2,0.7-0.3,1-0.2
		s0.6,0.3,0.9,0.8l1.5,2.3l-0.4,0.2l-1.5-2.3c-0.2-0.3-0.4-0.5-0.7-0.6c-0.2-0.1-0.5,0-0.8,0.2c-0.2,0.2-0.4,0.4-0.5,0.6
		c-0.1,0.3-0.1,0.6,0,0.9l1.6,2.4l-0.4,0.2l-2.3-3.5L186.4,165.5L186.4,165.5z M183,169.8c-0.2-0.3-0.3-0.7-0.3-1.1
		c0-0.4,0-0.7,0.2-1s0.4-0.5,0.7-0.7c0.5-0.3,1-0.3,1.5-0.2c0.5,0.2,0.9,0.5,1.2,1.1v0.1c0.2,0.3,0.3,0.7,0.3,1.1c0,0.3,0,0.7-0.2,1
		s-0.4,0.5-0.7,0.7c-0.5,0.3-1,0.3-1.5,0.2C183.7,170.8,183.3,170.4,183,169.8L183,169.8L183,169.8z M183.4,169.7
		c0.2,0.4,0.6,0.7,0.9,0.9c0.4,0.2,0.8,0.1,1.1-0.1c0.4-0.2,0.6-0.5,0.6-0.9c0.1-0.4,0-0.8-0.3-1.3v-0.1c-0.2-0.3-0.4-0.5-0.6-0.7
		c-0.2-0.2-0.5-0.3-0.7-0.3c-0.3,0-0.5,0-0.7,0.2c-0.4,0.2-0.6,0.5-0.6,0.9C183.1,168.7,183.1,169.1,183.4,169.7L183.4,169.7
		L183.4,169.7z M180.1,167.6c0-0.1,0-0.2,0-0.2c0-0.1,0.1-0.1,0.2-0.2c0.1,0,0.2-0.1,0.2,0c0.1,0,0.1,0.1,0.2,0.2c0,0.1,0,0.2,0,0.2
		c0,0.1-0.1,0.1-0.2,0.2c-0.1,0-0.2,0.1-0.2,0C180.2,167.8,180.1,167.7,180.1,167.6L180.1,167.6z M183,172.2l-0.4,0.2l-1.9-3.7
		l0.4-0.2L183,172.2z M178.6,168.5l0.5,1l0.8-0.4l0.2,0.3l-0.8,0.4l1.2,2.5c0.1,0.2,0.2,0.3,0.3,0.4c0.1,0.1,0.3,0.1,0.4,0
		c0.1,0,0.2-0.1,0.3-0.2l0.2,0.3c-0.1,0.1-0.3,0.2-0.4,0.3c-0.3,0.1-0.5,0.1-0.7,0s-0.4-0.3-0.5-0.6l-1.2-2.5l-0.7,0.3L178,170
		l0.7-0.3l-0.5-1L178.6,168.5L178.6,168.5z M178.6,174.3c-0.1-0.1-0.2-0.3-0.3-0.5c-0.1,0.3-0.2,0.5-0.4,0.7s-0.4,0.4-0.7,0.5
		c-0.4,0.2-0.7,0.2-1,0.1c-0.3-0.1-0.5-0.3-0.7-0.6c-0.2-0.4-0.1-0.7,0.1-1.1c0.2-0.3,0.6-0.6,1.2-0.9l0.8-0.3l-0.2-0.4
		c-0.1-0.3-0.3-0.5-0.5-0.5c-0.2-0.1-0.5-0.1-0.8,0.1c-0.3,0.1-0.5,0.3-0.6,0.5c-0.1,0.2-0.2,0.5-0.1,0.7l-0.4,0.2
		c-0.1-0.3-0.1-0.6,0.1-1c0.2-0.3,0.5-0.6,0.9-0.8c0.4-0.2,0.8-0.2,1.1-0.1c0.3,0.1,0.6,0.4,0.8,0.7l0.8,1.8
		c0.2,0.4,0.3,0.6,0.5,0.8l0,0L178.6,174.3L178.6,174.3z M177.1,174.5c0.3-0.1,0.5-0.3,0.7-0.5s0.3-0.5,0.3-0.8l-0.3-0.8l-0.8,0.3
		c-0.4,0.2-0.7,0.4-0.9,0.6c-0.2,0.2-0.2,0.5-0.1,0.8c0.1,0.2,0.2,0.4,0.5,0.4C176.6,174.6,176.8,174.6,177.1,174.5z M172.5,176.2
		l2.6-0.9l0.1,0.4l-3.1,1.1l-0.1-0.3l1.3-4.1l-2.3,0.8l-0.1-0.4l2.9-1l0.1,0.3L172.5,176.2z M168.9,172.1c0-0.1,0-0.2,0-0.2
		c0-0.1,0.1-0.1,0.2-0.2c0.1,0,0.2,0,0.2,0c0.1,0,0.1,0.1,0.1,0.2c0,0.1,0,0.2,0,0.2c0,0.1-0.1,0.1-0.2,0.2c-0.1,0-0.2,0-0.2,0
		C169,172.2,169,172.1,168.9,172.1L168.9,172.1z M171,177l-0.4,0.1l-1.2-4l0.4-0.1L171,177z M165.6,174.2l0.2,0.7
		c0.1-0.3,0.2-0.5,0.4-0.7s0.4-0.3,0.7-0.4c0.4-0.1,0.8-0.1,1.1,0.1c0.3,0.2,0.5,0.5,0.6,1l0.7,2.6l-0.4,0.1l-0.7-2.6
		c-0.1-0.4-0.2-0.6-0.4-0.7c-0.2-0.1-0.5-0.2-0.8-0.1c-0.3,0.1-0.5,0.2-0.7,0.4s-0.3,0.5-0.3,0.8l0.7,2.8l-0.4,0.1l-1-4L165.6,174.2
		L165.6,174.2z M164.4,178.7c-0.1-0.1-0.1-0.3-0.2-0.6c-0.1,0.2-0.3,0.4-0.5,0.6c-0.2,0.2-0.5,0.3-0.7,0.3c-0.4,0.1-0.7,0-1-0.1
		c-0.3-0.2-0.5-0.4-0.5-0.8c-0.1-0.4,0-0.7,0.3-1c0.3-0.3,0.7-0.5,1.3-0.6l0.8-0.2l-0.1-0.5c-0.1-0.3-0.2-0.5-0.4-0.6
		c-0.2-0.1-0.5-0.2-0.8-0.1c-0.3,0.1-0.6,0.2-0.7,0.4c-0.2,0.2-0.2,0.4-0.2,0.6l-0.5,0.1c-0.1-0.3,0-0.6,0.3-0.9
		c0.3-0.3,0.6-0.5,1-0.6c0.5-0.1,0.8,0,1.1,0.1c0.3,0.2,0.5,0.5,0.6,0.9l0.4,1.9c0.1,0.4,0.2,0.7,0.3,0.9l0,0L164.4,178.7
		L164.4,178.7z M162.9,178.7c0.3-0.1,0.6-0.2,0.8-0.4c0.2-0.2,0.3-0.4,0.4-0.7l-0.2-0.9l-0.8,0.2c-0.4,0.1-0.8,0.2-1,0.5
		c-0.2,0.2-0.3,0.5-0.3,0.7s0.2,0.4,0.4,0.5C162.4,178.7,162.7,178.7,162.9,178.7L162.9,178.7z M156.8,177.8c-0.1-0.6,0-1.2,0.2-1.6
		c0.2-0.4,0.6-0.7,1.1-0.7c0.6-0.1,1,0.1,1.4,0.5l-0.1-0.6l0.4-0.1l0.5,4c0.1,0.5,0,1-0.3,1.3s-0.6,0.6-1.1,0.6
		c-0.3,0-0.6,0-0.8-0.1c-0.3-0.1-0.5-0.2-0.7-0.4l0.2-0.3c0.4,0.4,0.8,0.5,1.2,0.4c0.4,0,0.7-0.2,0.8-0.5c0.2-0.3,0.3-0.6,0.2-1
		l-0.1-0.5c-0.2,0.4-0.6,0.7-1.2,0.8c-0.5,0.1-0.9-0.1-1.2-0.4C157.1,179,156.9,178.5,156.8,177.8L156.8,177.8L156.8,177.8z
		 M157.3,177.8c0.1,0.5,0.2,0.9,0.5,1.2c0.2,0.3,0.6,0.4,1,0.3c0.6-0.1,0.9-0.4,1.1-0.9l-0.2-1.9c-0.1-0.2-0.3-0.4-0.5-0.5
		c-0.2-0.1-0.5-0.2-0.8-0.1c-0.4,0-0.7,0.2-0.8,0.6C157.3,176.8,157.2,177.2,157.3,177.8L157.3,177.8z M156.1,176.2
		c-0.1,0-0.2,0-0.3,0c-0.3,0-0.5,0.1-0.7,0.3c-0.2,0.2-0.3,0.4-0.4,0.7l0.2,2.8h-0.5l-0.3-4.1h0.4l0.1,0.7c0.2-0.5,0.6-0.8,1.1-0.8
		c0.1,0,0.2,0,0.3,0L156.1,176.2L156.1,176.2z M153.1,177.7c0,0.5-0.1,1-0.2,1.4c-0.2,0.4-0.4,0.7-0.7,0.9c-0.3,0.2-0.7,0.3-1.1,0.3
		c-0.7,0-1.2-0.2-1.6-0.7c-0.4-0.5-0.6-1.1-0.6-1.9v-0.6c0-0.5,0.1-1,0.2-1.4c0.2-0.4,0.4-0.7,0.7-0.9s0.7-0.3,1.1-0.3
		c0.4,0,0.8,0.1,1.1,0.3c0.3,0.2,0.6,0.5,0.8,0.9s0.3,0.8,0.3,1.3V177.7L153.1,177.7z M152.7,177.1c0-0.7-0.2-1.2-0.5-1.6
		c-0.3-0.4-0.7-0.6-1.3-0.5c-0.5,0-0.9,0.2-1.2,0.6c-0.3,0.4-0.4,0.9-0.4,1.6v0.6c0,0.7,0.2,1.2,0.5,1.6c0.3,0.4,0.7,0.6,1.3,0.6
		c0.5,0,0.9-0.2,1.2-0.6c0.3-0.4,0.4-0.9,0.4-1.6V177.1z M144.3,180.2c-0.8,0-1.3-0.4-1.6-1.1c-0.1-0.3-0.2-0.7-0.2-1.1v-0.2
		c0-0.4,0.1-0.8,0.3-1.1c0.2-0.3,0.4-0.5,0.7-0.7c0.3-0.2,0.6-0.2,0.9-0.2c0.5,0,0.9,0.2,1.2,0.6c0.3,0.4,0.4,0.8,0.3,1.4v0.3
		l-3-0.2v0.1c0,0.5,0.1,0.9,0.3,1.2c0.2,0.3,0.6,0.5,1,0.5c0.2,0,0.4,0,0.7-0.1c0.2-0.1,0.4-0.2,0.5-0.4l0.3,0.2
		C145.4,180,144.9,180.2,144.3,180.2 M144.4,176.3c-0.3,0-0.6,0.1-0.9,0.3s-0.4,0.6-0.5,1l2.5,0.2v-0.1c0-0.4-0.1-0.7-0.3-1
		C145.1,176.4,144.8,176.3,144.4,176.3 M140,179.4c0.3,0,0.6,0,0.8-0.2s0.4-0.4,0.4-0.7l0.4,0.1c0,0.2-0.2,0.5-0.3,0.7
		c-0.2,0.2-0.4,0.3-0.6,0.4c-0.3,0.1-0.5,0.1-0.8,0.1c-0.5-0.1-0.9-0.3-1.2-0.7c-0.3-0.4-0.4-0.9-0.3-1.6v-0.1
		c0-0.4,0.2-0.7,0.3-1.1c0.2-0.3,0.4-0.5,0.7-0.6c0.3-0.1,0.6-0.2,1-0.1c0.5,0.1,0.8,0.2,1.1,0.5c0.3,0.3,0.4,0.7,0.3,1.1l-0.4-0.1
		c0-0.3-0.1-0.6-0.2-0.8c-0.2-0.2-0.4-0.4-0.8-0.4c-0.4-0.1-0.8,0.1-1,0.3c-0.3,0.3-0.4,0.7-0.5,1.2v0.1c-0.1,0.5,0,1,0.2,1.3
		C139.3,179.2,139.6,179.3,140,179.4 M137,179.3l-0.5-0.1l0.7-4.1l0.5,0.1L137,179.3z M137.4,173.9c0-0.2,0.2-0.3,0.4-0.3
		c0.1,0,0.2,0.1,0.2,0.1c0,0.1,0.1,0.1,0,0.2c0,0.1-0.1,0.2-0.1,0.2c-0.1,0.1-0.2,0.1-0.2,0c-0.1,0-0.2-0.1-0.2-0.1
		C137.4,174.1,137.4,174,137.4,173.9L137.4,173.9z M134.1,178.1l2-3.2l0.5,0.1l-2.4,3.8l-0.4-0.1l-0.7-4.4l0.5,0.1L134.1,178.1z
		 M132.7,174.6c-0.1,0-0.2-0.1-0.3-0.1c-0.3-0.1-0.5-0.1-0.8,0c-0.2,0.1-0.4,0.3-0.6,0.6l-0.7,2.8l-0.4-0.1l1-4l0.4,0.1l-0.2,0.6
		c0.4-0.4,0.8-0.6,1.3-0.4c0.1,0,0.2,0.1,0.3,0.1L132.7,174.6z M127.3,177.1c-0.7-0.2-1.1-0.7-1.3-1.4c-0.1-0.4,0-0.7,0.1-1.1v-0.2
		c0.1-0.4,0.3-0.7,0.5-1s0.5-0.4,0.8-0.5s0.6-0.1,0.9,0c0.5,0.2,0.8,0.4,1,0.9c0.2,0.4,0.2,0.9,0,1.5l-0.1,0.2l-2.8-0.9v0.1
		c-0.1,0.5-0.1,0.9,0,1.2c0.2,0.4,0.4,0.6,0.8,0.8c0.2,0.1,0.5,0.1,0.7,0.1c0.2,0,0.4-0.1,0.6-0.3l0.2,0.3
		C128.5,177.2,128,177.3,127.3,177.1 M128.4,173.3c-0.3-0.1-0.6-0.1-0.9,0.1c-0.3,0.2-0.5,0.5-0.7,0.8l2.4,0.7l0,0
		c0.1-0.4,0.1-0.7,0-1C129,173.6,128.8,173.4,128.4,173.3 M124.8,174.7c0.1-0.3,0.1-0.6,0-0.8s-0.5-0.5-0.9-0.9
		c-0.5-0.4-0.8-0.7-1-1c-0.3-0.4-0.3-0.8-0.2-1.2c0.2-0.4,0.4-0.7,0.9-0.8c0.4-0.1,0.9-0.1,1.4,0.1c0.3,0.1,0.6,0.3,0.9,0.6
		c0.2,0.2,0.4,0.5,0.4,0.8c0.1,0.3,0,0.6-0.1,0.9l-0.4-0.2c0.1-0.4,0.1-0.7,0-1c-0.2-0.3-0.4-0.5-0.9-0.7c-0.4-0.2-0.8-0.2-1.1-0.1
		c-0.3,0.1-0.5,0.3-0.6,0.6s-0.1,0.5,0.1,0.8c0.1,0.2,0.4,0.5,0.9,0.8c0.4,0.3,0.7,0.6,0.9,0.8c0.2,0.2,0.3,0.5,0.4,0.7
		c0,0.3,0,0.5-0.1,0.7c-0.2,0.4-0.4,0.7-0.9,0.8c-0.4,0.1-0.9,0.1-1.4-0.1c-0.4-0.1-0.7-0.3-0.9-0.6c-0.3-0.2-0.4-0.5-0.5-0.8
		s0-0.6,0.1-0.9l0.4,0.2c-0.1,0.4-0.1,0.7,0.1,1s0.5,0.6,1,0.7c0.4,0.2,0.8,0.2,1.1,0.1C124.5,175.2,124.7,175,124.8,174.7
		 M120.2,170.3c-0.1-0.1-0.2-0.1-0.3-0.2c-0.2-0.1-0.5-0.2-0.8-0.1c-0.2,0.1-0.5,0.2-0.7,0.4l-1.2,2.6l-0.4-0.2l1.8-3.8l0.4,0.2
		l-0.3,0.6c0.4-0.3,0.9-0.4,1.4-0.2c0.1,0.1,0.2,0.1,0.3,0.2L120.2,170.3L120.2,170.3z M113.6,168.7c0.2-0.4,0.4-0.6,0.7-0.8
		c0.3-0.2,0.6-0.3,0.9-0.3s0.7,0.1,1,0.2c0.5,0.3,0.8,0.6,0.9,1.2c0.1,0.5,0,1-0.3,1.6v0.1c-0.2,0.3-0.4,0.6-0.7,0.8
		c-0.3,0.2-0.6,0.3-0.9,0.3s-0.7-0.1-1-0.2c-0.5-0.3-0.8-0.6-0.9-1.2C113.1,169.9,113.2,169.3,113.6,168.7L113.6,168.7L113.6,168.7z
		 M113.9,169c-0.2,0.4-0.3,0.9-0.2,1.3c0.1,0.4,0.3,0.7,0.7,0.9c0.4,0.2,0.7,0.2,1.1,0.1c0.4-0.2,0.7-0.5,0.9-0.9v-0.1
		c0.2-0.3,0.2-0.6,0.3-0.9c0-0.3,0-0.5-0.1-0.8c-0.1-0.2-0.3-0.4-0.5-0.5c-0.4-0.2-0.7-0.2-1.1-0.1
		C114.5,168.2,114.2,168.5,113.9,169L113.9,169z M110.7,169.4l2-3.2l-0.6-0.4l0.2-0.3l0.6,0.4l0.3-0.4c0.2-0.4,0.5-0.6,0.8-0.7
		c0.3-0.1,0.6,0,1,0.2c0.1,0.1,0.3,0.2,0.4,0.3l-0.2,0.3c-0.1-0.1-0.2-0.2-0.3-0.3c-0.2-0.1-0.4-0.2-0.6-0.1
		c-0.2,0.1-0.4,0.2-0.5,0.5l-0.3,0.4l0.8,0.5l-0.2,0.3l-0.8-0.5l-2,3.2L110.7,169.4z M108.7,166.1c-0.4,0.4-0.8,0.7-1.3,0.7
		s-1-0.1-1.4-0.5c-0.3-0.2-0.6-0.5-0.7-0.9c-0.1-0.4-0.2-0.8-0.1-1.1c0.1-0.4,0.3-0.8,0.5-1.2l0.4-0.6c0.3-0.4,0.6-0.7,1-0.9
		c0.3-0.2,0.7-0.3,1.1-0.3c0.4,0,0.8,0.2,1.1,0.4c0.5,0.4,0.8,0.8,0.9,1.2c0.1,0.5,0,0.9-0.3,1.4l-0.4-0.3c0.5-0.8,0.3-1.5-0.4-2.1
		c-0.4-0.3-0.9-0.4-1.3-0.3c-0.5,0.1-0.9,0.5-1.3,1l-0.4,0.6c-0.4,0.5-0.6,1-0.5,1.5c0,0.5,0.2,0.9,0.6,1.2c0.4,0.3,0.8,0.4,1.1,0.4
		s0.7-0.2,1-0.6L108.7,166.1L108.7,166.1z M104.9,162.4c-0.3,0.4-0.7,0.7-1.1,0.9c-0.4,0.2-0.8,0.2-1.2,0.2
		c-0.4-0.1-0.8-0.2-1.1-0.5c-0.5-0.4-0.8-0.9-0.8-1.6c0-0.6,0.2-1.2,0.8-1.8l0.4-0.4c0.3-0.4,0.7-0.7,1.1-0.9
		c0.4-0.2,0.8-0.3,1.2-0.2s0.7,0.2,1.1,0.5c0.3,0.3,0.6,0.6,0.7,1c0.1,0.4,0.1,0.8,0,1.2c-0.1,0.4-0.3,0.8-0.6,1.2L104.9,162.4z
		 M104.9,161.6c0.4-0.5,0.7-1,0.7-1.5s-0.2-0.9-0.6-1.2c-0.4-0.3-0.8-0.5-1.3-0.4s-0.9,0.4-1.4,0.9l-0.4,0.4c-0.4,0.5-0.6,1-0.7,1.5
		c0,0.5,0.2,0.9,0.6,1.3c0.4,0.3,0.9,0.5,1.3,0.4c0.5-0.1,0.9-0.4,1.4-0.9L104.9,161.6L104.9,161.6z M99.8,159.5
		c0.2-0.2,0.3-0.5,0.3-0.8s-0.2-0.7-0.5-1.2s-0.5-0.9-0.5-1.3c-0.1-0.5,0-0.8,0.3-1.2c0.3-0.3,0.7-0.4,1.1-0.4
		c0.4,0.1,0.9,0.3,1.3,0.7c0.3,0.3,0.5,0.5,0.6,0.8s0.1,0.6,0.1,0.9c-0.1,0.3-0.2,0.6-0.4,0.8l-0.3-0.3c0.3-0.3,0.4-0.6,0.4-0.9
		s-0.2-0.7-0.5-1c-0.3-0.3-0.6-0.5-0.9-0.5c-0.3-0.1-0.6,0-0.8,0.3c-0.2,0.2-0.3,0.5-0.2,0.7c0,0.3,0.2,0.7,0.5,1.1
		c0.3,0.4,0.4,0.8,0.5,1.1c0.1,0.3,0.1,0.5,0.1,0.8c-0.1,0.3-0.2,0.5-0.4,0.7c-0.3,0.3-0.7,0.5-1.1,0.4c-0.4-0.1-0.9-0.3-1.3-0.7
		c-0.3-0.3-0.5-0.6-0.6-0.9c-0.1-0.3-0.2-0.6-0.1-0.9c0.1-0.3,0.2-0.6,0.4-0.8l0.3,0.3c-0.3,0.3-0.4,0.6-0.3,1s0.3,0.7,0.6,1.1
		c0.3,0.3,0.6,0.5,1,0.5C99.3,159.8,99.6,159.7,99.8,159.5"/>
	<line class="st2" x1="103.1" y1="103.6" x2="198.8" y2="103.6"/>
	<path class="st1" d="M178.5,148.3c0-0.5,0.1-0.9,0.3-1.3c0.2-0.4,0.4-0.7,0.8-0.9c0.3-0.2,0.7-0.3,1.1-0.3c0.7,0,1.2,0.2,1.6,0.7
		s0.6,1.1,0.6,1.8v0.1c0,0.5-0.1,0.9-0.3,1.3c-0.2,0.4-0.4,0.7-0.8,0.9c-0.4,0.2-0.7,0.3-1.2,0.3c-0.7,0-1.2-0.2-1.6-0.7
		C178.7,149.7,178.5,149.1,178.5,148.3L178.5,148.3L178.5,148.3z M179.4,148.4c0,0.5,0.1,1,0.4,1.3c0.2,0.3,0.6,0.5,1,0.5
		s0.8-0.2,1-0.5s0.4-0.8,0.4-1.4c0-0.5-0.1-1-0.4-1.3c-0.2-0.3-0.6-0.5-1-0.5s-0.7,0.2-1,0.5C179.5,147.3,179.4,147.8,179.4,148.4
		L179.4,148.4z M177.1,149.5c0-0.2-0.1-0.4-0.3-0.5s-0.5-0.2-0.9-0.3c-0.4-0.1-0.8-0.2-1-0.3c-0.2-0.1-0.4-0.3-0.5-0.4
		c-0.1-0.2-0.2-0.4-0.2-0.6c0-0.4,0.2-0.7,0.5-1c0.3-0.3,0.8-0.4,1.3-0.4s1,0.1,1.3,0.4c0.3,0.3,0.5,0.6,0.5,1.1H177
		c0-0.2-0.1-0.4-0.3-0.6c-0.2-0.2-0.4-0.2-0.7-0.2c-0.3,0-0.5,0.1-0.7,0.2c-0.2,0.1-0.3,0.3-0.3,0.5s0.1,0.4,0.2,0.5
		c0.2,0.1,0.4,0.2,0.9,0.3c0.4,0.1,0.7,0.2,1,0.3c0.3,0.1,0.4,0.3,0.6,0.5c0.1,0.2,0.2,0.4,0.2,0.7c0,0.4-0.2,0.8-0.5,1
		c-0.3,0.3-0.8,0.4-1.3,0.4c-0.4,0-0.7-0.1-1-0.2c-0.3-0.1-0.5-0.3-0.7-0.6c-0.2-0.2-0.3-0.5-0.3-0.8h0.8c0,0.3,0.1,0.5,0.3,0.7
		c0.2,0.2,0.5,0.2,0.8,0.2s0.6-0.1,0.8-0.2C177,149.9,177.1,149.7,177.1,149.5 M172.7,148.6h0.9v0.7h-0.9v1.5h-0.8v-1.5h-3v-0.5
		l2.9-4.5h0.9V148.6L172.7,148.6z M169.9,148.6h2v-3.2l-0.1,0.2L169.9,148.6z M166.7,150.2c0.3,0,0.6-0.1,0.8-0.3
		c0.2-0.2,0.3-0.4,0.4-0.7h0.8c0,0.3-0.1,0.6-0.3,0.8c-0.2,0.2-0.4,0.5-0.7,0.6c-0.3,0.1-0.6,0.2-0.9,0.2c-0.7,0-1.2-0.2-1.6-0.7
		c-0.4-0.4-0.6-1-0.6-1.8v-0.1c0-0.5,0.1-0.9,0.3-1.3c0.2-0.4,0.4-0.7,0.7-0.9c0.3-0.2,0.7-0.3,1.1-0.3c0.5,0,1,0.2,1.4,0.5
		s0.6,0.7,0.6,1.3h-0.8c0-0.3-0.1-0.6-0.4-0.8c-0.2-0.2-0.5-0.3-0.8-0.3c-0.4,0-0.7,0.2-1,0.5c-0.2,0.3-0.3,0.7-0.3,1.3v0.2
		c0,0.6,0.1,1,0.3,1.3C166,150,166.3,150.2,166.7,150.2 M159.6,148.3c0-0.5,0.1-0.9,0.3-1.3c0.2-0.4,0.4-0.7,0.8-0.9
		c0.3-0.2,0.7-0.3,1.1-0.3c0.7,0,1.2,0.2,1.6,0.7c0.4,0.5,0.6,1.1,0.6,1.8v0.1c0,0.5-0.1,0.9-0.3,1.3c-0.2,0.4-0.4,0.7-0.8,0.9
		s-0.7,0.3-1.2,0.3c-0.7,0-1.2-0.2-1.6-0.7C159.8,149.7,159.6,149.1,159.6,148.3L159.6,148.3L159.6,148.3z M160.4,148.4
		c0,0.5,0.1,1,0.4,1.3c0.2,0.3,0.6,0.5,1,0.5s0.8-0.2,1-0.5s0.4-0.8,0.4-1.4c0-0.5-0.1-1-0.4-1.3c-0.2-0.3-0.6-0.5-1-0.5
		s-0.7,0.2-1,0.5S160.4,147.8,160.4,148.4L160.4,148.4z M158.1,149.5c0-0.2-0.1-0.4-0.3-0.5c-0.2-0.1-0.5-0.2-0.9-0.3
		s-0.8-0.2-1-0.3s-0.4-0.3-0.5-0.4c-0.1-0.2-0.2-0.4-0.2-0.6c0-0.4,0.2-0.7,0.5-1s0.8-0.4,1.3-0.4s1,0.1,1.3,0.4
		c0.3,0.3,0.5,0.6,0.5,1.1H158c0-0.2-0.1-0.4-0.3-0.6c-0.2-0.2-0.4-0.2-0.7-0.2c-0.3,0-0.5,0.1-0.7,0.2c-0.2,0.1-0.3,0.3-0.3,0.5
		s0.1,0.4,0.2,0.5c0.2,0.1,0.4,0.2,0.9,0.3c0.4,0.1,0.7,0.2,1,0.3c0.3,0.1,0.4,0.3,0.6,0.5c0.1,0.2,0.2,0.4,0.2,0.7
		c0,0.4-0.2,0.8-0.5,1c-0.3,0.3-0.8,0.4-1.3,0.4c-0.4,0-0.7-0.1-1-0.2c-0.3-0.1-0.5-0.3-0.7-0.6c-0.2-0.2-0.3-0.5-0.3-0.8h0.8
		c0,0.3,0.1,0.5,0.3,0.7s0.5,0.2,0.8,0.2s0.6-0.1,0.8-0.2C158,149.9,158.1,149.7,158.1,149.5 M151.9,151.3h-0.7l2.7-7.1h0.7
		L151.9,151.3z M146.6,148.3c0-0.8,0.2-1.4,0.5-1.8c0.3-0.4,0.8-0.7,1.4-0.7s1.1,0.2,1.4,0.6v-0.5h0.8v4.7c0,0.6-0.2,1.1-0.6,1.5
		s-0.9,0.5-1.5,0.5c-0.3,0-0.7-0.1-1-0.2c-0.3-0.1-0.6-0.4-0.8-0.6l0.4-0.5c0.4,0.4,0.8,0.7,1.3,0.7c0.4,0,0.7-0.1,0.9-0.3
		s0.3-0.5,0.3-1v-0.4c-0.3,0.4-0.8,0.6-1.4,0.6c-0.6,0-1-0.2-1.4-0.7C146.8,149.7,146.6,149.1,146.6,148.3 M147.5,148.4
		c0,0.5,0.1,1,0.3,1.3s0.5,0.5,0.9,0.5c0.5,0,0.9-0.2,1.1-0.7v-2.2c-0.3-0.5-0.6-0.7-1.1-0.7c-0.4,0-0.7,0.2-0.9,0.5
		C147.6,147.3,147.5,147.8,147.5,148.4 M146.3,146.7c-0.1,0-0.3,0-0.4,0c-0.5,0-0.9,0.2-1.1,0.7v3.4H144V146h0.8v0.6
		c0.3-0.4,0.7-0.6,1.2-0.6c0.2,0,0.3,0,0.4,0.1L146.3,146.7L146.3,146.7z M138.7,148.3c0-0.5,0.1-0.9,0.3-1.3
		c0.2-0.4,0.4-0.7,0.8-0.9c0.3-0.2,0.7-0.3,1.1-0.3c0.7,0,1.2,0.2,1.6,0.7s0.6,1.1,0.6,1.8v0.1c0,0.5-0.1,0.9-0.3,1.3
		c-0.2,0.4-0.4,0.7-0.8,0.9c-0.4,0.2-0.7,0.3-1.2,0.3c-0.7,0-1.2-0.2-1.6-0.7C138.9,149.7,138.7,149.1,138.7,148.3L138.7,148.3z
		 M139.6,148.4c0,0.5,0.1,1,0.4,1.3c0.2,0.3,0.6,0.5,1,0.5s0.8-0.2,1-0.5s0.4-0.8,0.4-1.4c0-0.5-0.1-1-0.4-1.3
		c-0.2-0.3-0.6-0.5-1-0.5s-0.7,0.2-1,0.5S139.6,147.8,139.6,148.4L139.6,148.4z M136.8,150.3c0-0.1,0-0.3,0.1-0.4
		c0.1-0.1,0.2-0.1,0.4-0.1s0.3,0,0.4,0.1c0.1,0.1,0.1,0.2,0.1,0.4c0,0.1,0,0.2-0.1,0.3c-0.1,0.1-0.2,0.1-0.4,0.1s-0.3,0-0.4-0.1
		C136.8,150.6,136.8,150.4,136.8,150.3 M135,150.8c0-0.1-0.1-0.3-0.1-0.5c-0.4,0.4-0.8,0.6-1.4,0.6c-0.5,0-0.9-0.1-1.2-0.4
		c-0.3-0.3-0.5-0.6-0.5-1c0-0.5,0.2-0.9,0.6-1.2c0.4-0.3,0.9-0.4,1.6-0.4h0.8v-0.4c0-0.3-0.1-0.5-0.3-0.7c-0.2-0.2-0.4-0.3-0.8-0.3
		c-0.3,0-0.5,0.1-0.7,0.2c-0.2,0.1-0.3,0.3-0.3,0.5H132c0-0.2,0.1-0.5,0.3-0.7s0.4-0.4,0.7-0.5c0.3-0.1,0.6-0.2,1-0.2
		c0.6,0,1,0.1,1.3,0.4c0.3,0.3,0.5,0.7,0.5,1.2v2.2c0,0.4,0.1,0.8,0.2,1.1v0.1L135,150.8L135,150.8z M133.6,150.1
		c0.3,0,0.5-0.1,0.7-0.2c0.2-0.1,0.4-0.3,0.5-0.5v-1h-0.6c-1,0-1.5,0.3-1.5,0.9c0,0.3,0.1,0.5,0.3,0.6
		C133.1,150,133.4,150.1,133.6,150.1z M131.2,148.4c0,0.7-0.2,1.3-0.5,1.8s-0.8,0.7-1.4,0.7c-0.6,0-1-0.2-1.4-0.6v2.3h-0.8v-6.7h0.8
		v0.5c0.3-0.4,0.8-0.6,1.4-0.6c0.6,0,1,0.2,1.4,0.7C131,146.9,131.2,147.5,131.2,148.4L131.2,148.4z M130.4,148.3
		c0-0.5-0.1-1-0.3-1.3c-0.2-0.3-0.6-0.5-1-0.5c-0.5,0-0.9,0.2-1.1,0.7v2.3c0.2,0.4,0.6,0.7,1.1,0.7c0.4,0,0.7-0.2,0.9-0.5
		C130.3,149.4,130.4,148.9,130.4,148.3L130.4,148.3z M124.5,150.2c0.3,0,0.6-0.1,0.8-0.3c0.2-0.2,0.3-0.4,0.4-0.7h0.8
		c0,0.3-0.1,0.6-0.3,0.8c-0.2,0.2-0.4,0.5-0.7,0.6c-0.3,0.1-0.6,0.2-0.9,0.2c-0.7,0-1.2-0.2-1.6-0.7c-0.4-0.4-0.6-1-0.6-1.8v-0.1
		c0-0.5,0.1-0.9,0.3-1.3c0.2-0.4,0.4-0.7,0.7-0.9c0.3-0.2,0.7-0.3,1.1-0.3c0.5,0,1,0.2,1.4,0.5s0.6,0.7,0.6,1.3h-0.8
		c0-0.3-0.1-0.6-0.4-0.8c-0.2-0.2-0.5-0.3-0.8-0.3c-0.4,0-0.7,0.2-1,0.5c-0.2,0.3-0.3,0.7-0.3,1.3v0.2c0,0.6,0.1,1,0.3,1.3
		C123.7,150,124.1,150.2,124.5,150.2 M120.6,144.6c0-0.1,0-0.2,0.1-0.3s0.2-0.1,0.4-0.1c0.2,0,0.3,0,0.4,0.1s0.1,0.2,0.1,0.3
		s0,0.2-0.1,0.3s-0.2,0.1-0.4,0.1c-0.2,0-0.3,0-0.4-0.1C120.6,144.9,120.6,144.8,120.6,144.6L120.6,144.6z M120.6,150.8h0.8V146
		h-0.8V150.8z M118.8,150.8c0-0.1-0.1-0.3-0.1-0.5c-0.4,0.4-0.8,0.6-1.4,0.6c-0.5,0-0.9-0.1-1.2-0.4c-0.3-0.3-0.5-0.6-0.5-1
		c0-0.5,0.2-0.9,0.6-1.2s0.9-0.4,1.6-0.4h0.8v-0.4c0-0.3-0.1-0.5-0.3-0.7c-0.2-0.2-0.4-0.3-0.8-0.3c-0.3,0-0.5,0.1-0.7,0.2
		c-0.2,0.1-0.3,0.3-0.3,0.5h-0.8c0-0.2,0.1-0.5,0.3-0.7c0.2-0.2,0.4-0.4,0.7-0.5c0.3-0.1,0.6-0.2,1-0.2c0.6,0,1,0.1,1.3,0.4
		c0.3,0.3,0.5,0.7,0.5,1.2v2.2c0,0.4,0.1,0.8,0.2,1.1v0.1L118.8,150.8L118.8,150.8z M117.4,150.1c0.3,0,0.5-0.1,0.7-0.2
		c0.2-0.1,0.4-0.3,0.5-0.5v-1H118c-1,0-1.5,0.3-1.5,0.9c0,0.3,0.1,0.5,0.3,0.6C116.9,150,117.1,150.1,117.4,150.1z"/>
	<path class="st3" d="M217.7,169.8v0.6h-1.1v2.8h-0.7v-2.8h-1.1v-0.6H217.7z M221.3,173.2l-0.1-2c0-0.3,0-0.6,0-0.9l0,0
		c-0.1,0.3-0.2,0.7-0.3,1l-0.6,1.9h-0.7l-0.6-1.9c-0.1-0.3-0.2-0.7-0.2-1l0,0c0,0.3,0,0.6,0,0.9l-0.1,2h-0.6l0.2-3.4h1l0.6,1.6
		c0.1,0.3,0.1,0.5,0.2,0.9l0,0c0.1-0.3,0.2-0.6,0.2-0.8l0.6-1.7h1l0.3,3.4H221.3z"/>
</g>
</svg>
