<?xml version="1.0" encoding="utf-8"?>
<!-- Generator: Adobe Illustrator 26.0.3, SVG Export Plug-In . SVG Version: 6.00 Build 0)  -->
<svg version="1.0" id="katman_1" xmlns="http://www.w3.org/2000/svg" xmlns:xlink="http://www.w3.org/1999/xlink" x="0px" y="0px" fill="#FFFFFF"
	 viewBox="0 0 600 450" style="enable-background:new 0 0 600 450;" xml:space="preserve">
<path d="M112.1,259.3h50.7c-1.9-3.3-3.5-6.3-5.3-9.1c-0.3-0.5-1.5-0.6-2.2-0.6c-15.5,0-30.9,0-46.4,0c-1.7,0-2.8-0.4-3.6-2
	c-1.2-2.5-2.8-4.9-4.4-7.7h50.7c-1.9-3.3-3.6-6.3-5.5-9.2c-0.3-0.5-1.5-0.5-2.3-0.5c-15.5,0-30.9,0-46.4,0c-3.3,0-5.4-3.8-3.9-6.8
	c1.2-2.4,2.7-3.1,5.4-3.1c15,0.2,30.1,0.1,45.1,0.1c1.5,0,2.4-0.4,3.1-1.8c1.3-2.6,2.9-5.1,4.5-7.9h-50.7c1.9-3.4,3.6-6.4,5.5-9.3
	c0.3-0.5,1.5-0.5,2.3-0.5c15.5,0,30.9,0,46.4,0c1.7,0,2.7-0.5,3.4-2c1.3-2.5,2.8-4.9,4.4-7.7h-50.3c2.7-7.1,6-9.9,12.1-9.8
	c12.5,0.2,25.1,0.1,37.6,0c4.3,0,7.3,1.8,9.4,5.4c7.1,12.3,14.2,24.5,21.3,36.8c0.7,1.2,0.7,2,0,3.2c-7.1,12.2-14.2,24.4-21.2,36.6
	c-2.2,3.8-5.3,5.7-9.7,5.7c-12.5-0.1-24.9-0.1-37.4,0c-4.9,0.1-8.3-1.8-10.5-6.1C113.7,261.9,113,260.8,112.1,259.3z"/>
<path d="M270.9,240.8c0,3.1,0.1,6.6-0.1,10c0,0.7-0.9,1.6-1.6,2.1c-13.7,8.8-39.5,6.2-45.7-17.9c-2.9-11.3-1.5-22.1,6.1-31.4
	c6.6-8.1,15.6-10.8,25.8-10.1c5.1,0.3,9.9,1.8,14.1,4.7c0.6,0.4,1.2,1.2,1.3,1.9c0.1,3.5,0.1,6.9,0.1,10.7c-1.1-0.9-2-1.6-2.9-2.3
	c-5.4-3.9-11.4-5.8-18.1-4.9c-8.1,1.1-13.3,5.7-15.7,13.4c-1.9,6.4-1.8,12.8,0.8,19c4,9.6,14.4,14,25,10.4
	C263.8,245.1,267.3,242.7,270.9,240.8z"/>
<path d="M321.1,237h-31.2c0.6,6.5,4.5,10.5,10.8,11.3c6.1,0.7,11.8-0.3,17.1-3.4c0.2-0.1,0.5-0.2,0.9-0.5c0,2.9,0.1,5.6,0,8.3
	c-0.1,0.3-0.2,0.5-0.3,0.8s-0.4,0.4-0.6,0.6c-7.7,4.9-21.8,4.5-29.1-0.9c-4.7-3.4-7.3-8.1-8.2-13.8c-1.1-6.8-0.4-13.3,3.2-19.3
	c4.5-7.3,12.8-10.8,21.7-9.2c7.5,1.4,13.3,7.3,15,15.5c0.4,1.9,0.6,3.8,0.7,5.8C321.2,233.7,321.1,235.3,321.1,237z M311.6,229.2
	c-0.3-6.3-4.2-10.1-10.3-10.1c-6.1,0-10.8,4.4-11,10.1H311.6z"/>
<path d="M369.7,256.5h-9.7v-2.3c0-8.3,0.1-16.5-0.1-24.8c0-2.1-0.4-4.1-1.4-6c-2.2-4.1-8.4-5-12.9-1.9c-2.7,1.8-4.3,4-4.2,7.6
	c0.2,8.3,0.1,16.7,0.1,25v2.4h-9.8v-44.9h9.2v6.1c2.5-3.3,5.1-5.4,8.4-6.4c8.8-2.7,20.1,1.1,20.5,14.9c0.3,9.9,0.1,19.8,0.1,29.8
	C369.8,256.1,369.7,256.3,369.7,256.5z"/>
<path d="M461,256.5h-8.9v-5.9c-2.9,3.3-6.1,5.7-10.3,6.5c-9.6,1.9-17.9-4.1-18.4-13.8c-0.4-8-0.2-16-0.2-23.9c0-2.6,0-5.1,0-7.8h10
	v2.1c0,8.3,0,16.5,0,24.8c0,5,2.1,8.3,5.8,9.3c2.2,0.6,4.5,0.4,6.6-0.4c2.1-0.8,3.8-2.4,5-4.3c0.5-1,0.8-2,0.8-3.1
	c0.1-8.7,0-17.4,0-26v-2.4h9.8V256.5z"/>
<path d="M412.2,223.9c-5.7-4.2-11.8-5.6-18.3-4.3c-1.4,0.3-2.6,1-3.5,2c-2.1,2.3-0.6,5.7,2.8,6.7c2.9,0.8,5.8,1.4,8.7,2.1
	c1.8,0.4,3.5,1,5.2,1.7c4.8,2.1,7.3,5.8,7.4,10.9c0.1,5.2-2.1,9.3-6.8,11.8c-6,3.2-12.5,3.3-19,2c-2.7-0.5-5.3-1.7-7.9-2.7
	c-0.5-0.2-1.2-0.9-1.2-1.4c-0.1-3-0.1-5.9-0.1-9.2c3.9,2.8,7.9,4.6,12.3,5c3,0.2,6,0.1,9-0.3c2.6-0.3,3.9-1.9,4-4.1
	c0.1-2.2-1.1-4-3.7-4.7c-3.4-0.9-6.8-1.6-10.2-2.4c-9-2-13.3-9.7-10-17.8c1.8-4.5,5.6-6.8,10.1-7.9c6.4-1.6,13.2-1.1,19.3,1.5
	c1.4,0.6,2,1.4,2,2.9C412.1,218.3,412.2,220.9,412.2,223.9z"/>
<path d="M504.5,223.9c-4.4-3.5-10-5.2-15.6-4.7c-1.4,0.1-2.8,0.4-4.1,0.8c-1.9,0.6-3,2-3,4s1.1,3.5,3,4c3.2,0.9,6.5,1.7,9.7,2.4
	c4.2,1,8.2,2.6,10.5,6.5c3.9,6.6,1,15.4-6.4,18.4c-8.7,3.5-17.4,2.7-25.7-1.3c-0.3-0.2-0.6-0.4-0.8-0.7c-0.2-0.3-0.3-0.6-0.4-1
	c-0.1-2.8-0.1-5.7-0.1-8.8c0.8,0.5,1.3,0.8,1.9,1.2c5.9,3.7,12.3,4.8,19.1,3.6c2.9-0.5,4.1-1.9,4.3-4.1c0.1-2.5-1-4.1-3.9-4.9
	c-3.4-0.9-6.8-1.5-10.2-2.4c-9.4-2.3-13.6-11.2-9.1-19.1c1.6-2.7,4.1-4.8,7.1-5.8c7.4-2.5,14.7-2.1,21.9,0.8
	c1.2,0.5,1.8,1.2,1.7,2.6C504.4,218.2,504.5,220.8,504.5,223.9z"/>
</svg>
