<svg version="1.1" id="Layer_1" xmlns:x="ns_extend;" xmlns:i="ns_ai;" xmlns:graph="ns_graphs;" xmlns="http://www.w3.org/2000/svg" xmlns:xlink="http://www.w3.org/1999/xlink" x="0px" y="0px" viewBox="0 0 400.4 82" style="enable-background:new 0 0 400.4 82;" xml:space="preserve">
 <style type="text/css">
  .st0{fill:#000000;}
 </style>
 <metadata>
  <sfw xmlns="ns_sfw;">
   <slices>
   </slices>
   <sliceSourceBounds bottomLeftOrigin="true" height="82" width="400.4" x="-0.2" y="-241">
   </sliceSourceBounds>
  </sfw>
 </metadata>
 <g>
  <g id="Wheel">
   <path class="st0" d="M40.9,59.6c0-0.3-0.3-0.3-0.6-0.3c-0.3,0-0.3,0-0.6,0.3C32.6,65,25.8,70.7,19.3,76.9c-0.3,0-0.3,0.3-0.3,0.6
			s0,0.3,0.3,0.6l3.1,3.7c0,0.3,0.3,0.3,0.6,0.3s0.3,0,0.6-0.3c7.1-5.4,13.9-11.1,20.4-17.3c0.3,0,0.3-0.3,0.3-0.6s0-0.3-0.3-0.6
			C44,63.3,40.9,59.6,40.9,59.6z M30.4,59.9V55c0-0.3,0-0.3-0.3-0.6c0-0.3-0.3-0.3-0.6-0.3c-8.8-0.6-17.9-0.6-26.7,0
			c-0.3,0-0.3,0-0.6,0.3C2,54.8,2,55,2,55v4.8c0,0.3,0,0.3,0.3,0.6s0.3,0.3,0.6,0.3c8.8,0.6,17.9,0.6,26.7,0c0.3,0,0.3,0,0.6-0.3
			C30.1,60.4,30.4,60.2,30.4,59.9z M21.8,48.8l3.1-3.7c0-0.3,0.3-0.3,0.3-0.6c0-0.3,0-0.3-0.3-0.6c-6.5-6.2-13.3-11.9-20.4-17.3H4
			c-0.3,0-0.3,0-0.6,0.3l-3.1,3.7c0,0.3-0.3,0.3-0.3,0.6s0,0.3,0.3,0.6C6.8,38,13.6,43.7,20.7,49.1c0.3,0,0.3,0.3,0.6,0.3
			C21.3,49.4,21.8,48.8,21.8,48.8z M21.8,34c0,0.3,0.3,0.3,0.3,0.6c0.3,0,0.3,0.3,0.6,0l4.8-0.9c0.3,0,0.3-0.3,0.6-0.3
			c0-0.3,0.3-0.3,0.3-0.6c-1.1-8.8-2.8-17.6-4.8-26.1c0-0.3-0.3-0.3-0.3-0.6c-0.3,0-0.3-0.3-0.6,0l-4.8,0.6c-0.3,0-0.3,0.3-0.6,0.3
			c0,0.3-0.3,0.3-0.3,0.6C18.2,16.7,19.9,25.5,21.8,34z M32.3,24.7l4.3,2.6h0.6c0.3,0,0.3-0.3,0.6-0.3c4.8-7.4,9.4-15.3,13.3-23.3
			V3.1c0-0.3-0.3-0.3-0.3-0.6L46.5,0H46c-0.3,0-0.3,0.3-0.6,0.3C40.6,7.7,36,15.6,32.1,23.6v0.6C32.1,24.4,32.1,24.4,32.3,24.7z
			 M74.6,17.9l-1.7-4.5c0-0.3-0.3-0.3-0.3-0.6h-0.6c-8.5,2.6-17,5.7-25.3,9.1c-0.3,0-0.3,0.3-0.3,0.3v0.6l1.7,4.5
			c0,0.3,0.3,0.3,0.3,0.6h0.6c8.5-2.6,17-5.7,25.3-9.1c0.3,0,0.3-0.3,0.3-0.3S74.6,17.9,74.6,17.9z M84,39.4
			c-8.2-3.7-16.7-6.5-25.3-9.1h-0.6c-0.3,0-0.3,0.3-0.3,0.6l-1.4,4.3v0.6c0,0.3,0.3,0.3,0.3,0.3c8.2,3.7,16.5,6.5,25.3,9.1h0.6
			c0.3,0,0.3-0.3,0.3-0.6l1.7-4.5v-0.6C84.6,39.7,84.3,39.4,84,39.4z">
   </path>
  </g>
  <g id="ction">
   <path class="st0" d="M238.1,9.9c-0.6,0-1.4,0-2,0.3c-0.6,0.3-1.1,0.6-1.7,1.1c-0.6,0.6-0.9,1.1-1.1,1.7c-0.3,0.6-0.3,1.4-0.3,2
			s0,1.4,0.3,2c0.3,0.6,0.6,1.1,1.1,1.7c0.6,0.6,1.1,0.9,1.7,1.1c0.6,0.3,1.4,0.3,2,0.3c0.6,0,1.4,0,2-0.3c0.6-0.3,1.1-0.6,1.7-1.1
			c0.6-0.6,0.9-1.1,1.1-1.7c0.3-0.6,0.3-1.4,0.3-2s0-1.4-0.3-2c0-0.6-0.6-1.1-1.1-1.7c-0.6-0.6-1.1-0.9-1.7-1.1
			C239.5,9.9,238.9,9.9,238.1,9.9z M324,27.8c-2.6-2-5.7-3.1-9.6-3.1c-3.1,0-6,0.6-8.2,2c-2.3,1.1-3.7,2.8-4.5,4.8l-0.9-0.3l0.9-2.6
			c0.3-0.9,0.3-1.4,0.3-2.3v-0.9h-8.8v38.9h8.8V40.3c0-2.6,0.9-4.5,2.6-6.2c1.7-1.4,4.3-2.3,6.5-2.3h0.3c2.6,0,4.5,0.6,6,1.7
			c1.4,1.1,2.3,3.1,2.3,5.7v25h8.8V38C327.7,33.2,326.6,29.8,324,27.8z M277.8,27.2c-3.1-1.7-6.5-2.6-10.2-2.6s-7.1,0.9-10.2,2.6
			c-2.8,1.7-5.4,4-6.8,7.1c-1.7,3.1-2.3,6.5-2.3,10.8s0.9,7.7,2.6,10.8c1.4,3.1,4,5.4,6.8,7.1c3.1,1.7,6.5,2.6,9.9,2.6
			c3.4,0,7.1-0.9,10.2-2.6c2.8-1.7,5.4-4.3,6.8-7.1c1.7-3.1,2.6-6.8,2.6-10.8s-0.9-7.7-2.6-10.8S280.6,28.7,277.8,27.2z M275.5,54.8
			c-1.7,2.6-4.3,4-7.4,4h-0.6c-3.1,0-5.7-1.4-7.4-4c-1.7-2.6-2.6-6-2.6-9.6c0-3.7,0.9-7.1,2.6-9.6c1.7-2.6,4.3-3.7,7.4-3.7h0.6
			c3.1,0,5.7,1.1,7.4,3.7s2.6,5.7,2.6,9.6C278.1,48.8,277.2,52.2,275.5,54.8z M242.3,25.5h-8.8v38.9h8.8V25.5z M224.2,57.3
			c-1.4,0-2.6-0.6-3.1-1.4c-0.9-0.9-1.1-2-1.1-3.7V32.3h7.1v-6.8h-7.1V14.8h-8.8v11.1h-5.7v6.5h5.7v19.6c0,4.3,0.9,7.4,2.6,9.6
			s4.5,3.4,8.5,3.4c1.4,0,2.6,0,3.7-0.3c1.1-0.3,1.7-0.3,1.7-0.3V57c-0.3,0-0.9,0-1.1,0.3H224.2z M191.2,56.2
			c-1.7,1.7-3.7,2.6-6.2,2.6h-0.6c-3.1,0-5.7-1.4-7.4-4c-1.7-2.6-2.6-6-2.6-9.6c0-4,0.9-7.1,2.6-9.6c1.7-2.6,4.3-3.7,7.4-3.7h0.6
			c2.3,0,4.5,0.9,6,2.3c1.7,1.4,2.8,3.4,3.1,5.7h9.1c-0.9-4.8-3.1-8.5-6.2-11.1c-3.4-2.6-7.4-3.7-12.2-3.7c-3.7,0-7.1,0.9-10.2,2.6
			c-2.8,1.7-5.4,4-6.8,7.1c-1.7,3.1-2.3,6.5-2.3,10.8c0,4,0.9,7.7,2.3,10.8s4,5.4,6.8,7.1c2.8,1.7,6.2,2.6,10.2,2.6
			c3.1,0,6.2-0.6,9.1-2c2.6-1.1,4.8-3.1,6.5-5.4c1.7-2.3,2.8-5.1,3.1-7.9h-9.1C193.8,52.2,192.9,54.5,191.2,56.2z">
   </path>
  </g>
  <path id="A" class="st0" d="M133.9,12.8l-19.3,51.6h9.1l5.1-13.3h21.3l5.4,13.3h9.4l-20.4-51.6H133.9z M131.1,44.3l5.7-16.2
		l0.9-2.6c0.3-1.4,0.6-2.8,0.6-4.3v-0.6h2V21c0,1.4,0.3,2.8,0.9,4.3l0.9,2.6l6.2,16.2C148.1,44,131.1,44.3,131.1,44.3z">
  </path>
  <g id="IQ">
   <path id="I" class="st0" d="M344.7,13.1h-8.8v51.6h8.8V13.1z">
   </path>
   <path id="Q" class="st0" d="M398.9,49.1c1.1-3.4,1.4-7.1,1.4-10.5c0-5.4-0.9-9.9-2.8-13.9c-1.7-4-4.8-7.1-8.5-9.4
			c-3.7-2.3-7.9-3.4-13.1-3.4s-9.4,1.1-13.1,3.4s-6.5,5.4-8.5,9.4s-2.8,8.8-2.8,13.9c0,5.4,0.9,9.9,2.8,13.9c1.7,4,4.8,7.1,8.5,9.4
			c3.7,2.3,7.9,3.4,13.1,3.4c4.8,0,9.1-1.1,12.5-3.1c1.1,1.4,2.6,2.8,3.7,4.3c0,0.3,0.3,0.3,0.6,0.3c0.3,0,0.3,0,0.6-0.3l3.7-3.1
			c0.3,0,0.3-0.3,0.3-0.6v-0.6c-1.1-1.4-2.3-3.1-3.4-4.5l0.6-0.6C396.7,55,398.1,52.2,398.9,49.1z M388.7,50.8
			c-2.6-3.1-5.1-6.2-7.9-9.4c0-0.3-0.3-0.3-0.6-0.3c-0.3,0-0.3,0-0.6,0.3l-3.7,3.1c-0.3,0-0.3,0.3-0.3,0.6v0.6
			c2.6,3.7,5.1,7.1,7.9,10.8c-2.3,1.1-4.8,2-7.1,2H376c-4.5,0-8.2-1.7-11.1-5.4c-2.6-3.4-4-8.2-4-14.2s1.4-10.8,4-14.2
			c2.6-3.4,6.2-5.4,11.1-5.4h0.6c4.8,0,8.2,1.7,11.1,5.1c2.6,3.4,4,8.2,4,14.2C391.6,43.7,390.4,47.7,388.7,50.8L388.7,50.8z">
   </path>
  </g>
 </g>
</svg>