<svg xmlns="http://www.w3.org/2000/svg" width="24" height="24" fill="none"><path fill="#F4E28D" fill-rule="evenodd" d="M15.15 10.5a3.151 3.151 0 0 1-2.25 3.02v2.08h1.206a.9.9 0 1 1 0 1.8H12.9v1.35a.9.9 0 0 1-1.8 0v-5.23a3.151 3.151 0 1 1 4.05-3.02Zm-4.5 0a1.35 1.35 0 1 1 2.7 0 1.35 1.35 0 0 1-2.7 0Z" clip-rule="evenodd"/><path fill="#F4E28D" fill-rule="evenodd" d="M12.307.654a.894.894 0 0 0-.614 0 .895.895 0 0 0-.584.713c-.16.891-1.672 3.513-7.39 3.72-.873.032-1.62.74-1.62 1.663v4.1a12.9 12.9 0 0 0 8.822 12.239l.786.262a.894.894 0 0 0 .586 0l.786-.262A12.9 12.9 0 0 0 21.9 10.85v-4.1c0-.923-.746-1.631-1.619-1.663-5.717-.207-7.229-2.829-7.39-3.72a.9.9 0 0 0-.583-.713ZM3.9 6.88c4.369-.183 6.882-1.72 8.1-3.311 1.217 1.59 3.731 3.128 8.1 3.311v3.97a11.1 11.1 0 0 1-7.59 10.53l-.51.17-.51-.17A11.1 11.1 0 0 1 3.9 10.85V6.88Z" clip-rule="evenodd"/></svg>