<?xml version="1.0" encoding="utf-8"?>
<!-- Generator: Adobe Illustrator 28.4.1, SVG Export Plug-In . SVG Version: 6.00 Build 0)  -->
<svg version="1.0" id="katman_1" xmlns="http://www.w3.org/2000/svg" xmlns:xlink="http://www.w3.org/1999/xlink" x="0px" y="0px"  width="1000px" height="750px"
	 viewBox="0 0 841.89 595.28" style="enable-background:new 0 0 841.89 595.28;" xml:space="preserve">
<style type="text/css">
	.st0{fill:#FFFFFF;}
	.st1{fill:#FFFFFF;}
	.st2{fill:#181C1F;}
</style>
<path class="st0" d="M73.97,217.15V363.2c0,7.59,3.98,14.54,10.47,18.33l125.63,72.92c6.49,3.79,14.45,3.79,20.94,0l125.63-72.92
	c6.49-3.79,10.47-10.75,10.47-18.33V217.15c0-7.59-3.98-14.54-10.47-18.33L231,125.9c-6.49-3.79-14.45-3.79-20.94,0L84.44,199.03
	C77.95,202.82,73.97,209.78,73.97,217.15z"/>
<path class="st0" d="M272.88,490.91l-0.21-31.61l0.21-29.08l-73.28,18.12"/>
<path class="st1" d="M269.53,427.69l13.82-3.58l-5.23,2.95c-3.14,1.9-5.23,5.27-5.23,9.06v5.9L269.53,427.69z"/>
<path class="st2" d="M169.85,223.69c8.38-8.22,21.78-8.22,30.15,0c9,8.64,9,22.97,0,31.61c-8.38,8.22-21.78,8.22-30.15,0
	C160.85,246.66,160.85,232.33,169.85,223.69z"/>
<path class="st2" d="M264.08,278.69c8.38-8.22,21.78-8.22,30.15,0c9,8.64,9,22.97,0,31.61c-8.38,8.22-21.78,8.22-30.15,0
	C255.07,301.66,255.07,287.33,264.08,278.69z"/>
<path class="st2" d="M169.85,336.86c8.38-8.22,21.78-8.22,30.15,0c9,8.64,9,22.97,0,31.61c-8.38,8.22-21.78,8.22-30.15,0
	C160.85,359.83,160.85,345.5,169.85,336.86z"/>
<path class="st2" d="M195.4,251.29l62.81,36.46l10.47-5.9l-62.81-36.67L195.4,251.29z"/>
<path class="st2" d="M262.4,314.52l-56.53,32.88l-10.47-6.11l56.53-32.67L262.4,314.52z"/>
<path class="st0" d="M427.76,257.81h33.34c8.13,0,15.36,1.6,21.68,4.79c6.32,3.12,11.22,7.59,14.71,13.4
	c3.49,5.74,5.23,12.38,5.23,19.94c0,7.55-1.74,14.24-5.23,20.05c-3.49,5.74-8.39,10.2-14.71,13.4c-6.32,3.12-13.55,4.68-21.68,4.68
	h-33.34V257.81z M460.45,322.09c5.59,0,10.5-1.05,14.71-3.16c4.29-2.18,7.55-5.23,9.81-9.15c2.32-3.99,3.49-8.61,3.49-13.84
	c0-5.23-1.16-9.81-3.49-13.73c-2.25-3.99-5.52-7.05-9.81-9.15c-4.21-2.18-9.12-3.27-14.71-3.27h-18.52v52.29H460.45z M571.15,305.31
	c0,0.94-0.07,2.29-0.22,4.03h-45.65c0.8,4.29,2.87,7.7,6.21,10.24c3.41,2.47,7.63,3.7,12.64,3.7c6.39,0,11.66-2.11,15.8-6.32
	l7.3,8.39c-2.61,3.12-5.92,5.48-9.91,7.08c-3.99,1.6-8.5,2.4-13.51,2.4c-6.39,0-12.02-1.27-16.89-3.81
	c-4.87-2.54-8.64-6.06-11.33-10.57c-2.61-4.58-3.92-9.73-3.92-15.47c0-5.67,1.27-10.75,3.81-15.25c2.61-4.58,6.21-8.13,10.79-10.68
	c4.58-2.54,9.73-3.81,15.47-3.81c5.67,0,10.71,1.27,15.14,3.81c4.5,2.47,7.99,5.99,10.46,10.57
	C569.88,294.13,571.15,299.35,571.15,305.31z M541.74,286.14c-4.36,0-8.06,1.31-11.11,3.92c-2.98,2.54-4.79,5.96-5.45,10.24h33.01
	c-0.58-4.21-2.36-7.63-5.34-10.24C549.87,287.44,546.17,286.14,541.74,286.14z M638.93,305.31c0,0.94-0.07,2.29-0.22,4.03h-45.65
	c0.8,4.29,2.87,7.7,6.21,10.24c3.41,2.47,7.63,3.7,12.64,3.7c6.39,0,11.66-2.11,15.8-6.32l7.3,8.39c-2.61,3.12-5.92,5.48-9.91,7.08
	c-3.99,1.6-8.5,2.4-13.51,2.4c-6.39,0-12.02-1.27-16.89-3.81c-4.87-2.54-8.64-6.06-11.33-10.57c-2.61-4.58-3.92-9.73-3.92-15.47
	c0-5.67,1.27-10.75,3.81-15.25c2.61-4.58,6.21-8.13,10.79-10.68c4.58-2.54,9.73-3.81,15.47-3.81c5.67,0,10.71,1.27,15.14,3.81
	c4.5,2.47,7.99,5.99,10.46,10.57C637.66,294.13,638.93,299.35,638.93,305.31z M609.51,286.14c-4.36,0-8.06,1.31-11.11,3.92
	c-2.98,2.54-4.79,5.96-5.45,10.24h33.01c-0.58-4.21-2.36-7.63-5.34-10.24C617.65,287.44,613.94,286.14,609.51,286.14z
	 M684.26,275.24c5.67,0,10.71,1.23,15.14,3.7c4.5,2.47,8.03,5.96,10.57,10.46c2.54,4.5,3.81,9.7,3.81,15.58s-1.27,11.11-3.81,15.69
	c-2.54,4.5-6.06,7.99-10.57,10.46c-4.43,2.47-9.48,3.7-15.14,3.7c-7.84,0-14.05-2.61-18.63-7.84v28.22h-13.62V275.9h12.96v7.63
	c2.25-2.76,5.01-4.83,8.28-6.21C676.59,275.93,680.26,275.24,684.26,275.24z M682.73,323.18c5.01,0,9.12-1.67,12.31-5.01
	c3.27-3.34,4.9-7.74,4.9-13.18s-1.63-9.84-4.9-13.18c-3.2-3.34-7.3-5.01-12.31-5.01c-3.27,0-6.21,0.76-8.82,2.29
	c-2.61,1.45-4.68,3.56-6.21,6.32c-1.53,2.76-2.29,5.96-2.29,9.59s0.76,6.83,2.29,9.59c1.53,2.76,3.6,4.9,6.21,6.43
	C676.52,322.45,679.46,323.18,682.73,323.18z M728,257.81h14.16v64.28h39.87v11.98H728V257.81z"/>
</svg>
