<svg version="1.1" id="Layer_1" xmlns:x="ns_extend;" xmlns:i="ns_ai;" xmlns:graph="ns_graphs;" xmlns="http://www.w3.org/2000/svg" xmlns:xlink="http://www.w3.org/1999/xlink" x="0px" y="0px" viewBox="0 0 262 87.5" style="enable-background:new 0 0 262 87.5;" xml:space="preserve">
 <style type="text/css">
  .st0{fill:#black;}
	.st1{fill:#FFFFFF;}
 </style>
 <metadata>
  <sfw xmlns="ns_sfw;">
   <slices>
   </slices>
   <sliceSourceBounds bottomLeftOrigin="true" height="87.5" width="262" x="-169.4" y="-320.7">
   </sliceSourceBounds>
  </sfw>
 </metadata>
 <g>
  <g>
   <path class="st0" d="M0,22.4v34.7c0,1.8,0.9,3.5,2.5,4.4l29.9,17.3c1.5,0.9,3.4,0.9,5,0l29.9-17.3c1.5-0.9,2.5-2.6,2.5-4.4V22.4
			c0-1.8-0.9-3.5-2.5-4.4L37.3,0.7c-1.5-0.9-3.4-0.9-5,0L2.5,18.1C0.9,19,0,20.6,0,22.4z">
   </path>
   <path class="st0" d="M47.3,87.5l0-7.5l0-6.9l-17.4,4.3">
   </path>
   <path class="st0" d="M46.5,72.4l3.3-0.9l-1.2,0.7c-0.7,0.5-1.2,1.3-1.2,2.2v1.4L46.5,72.4z">
   </path>
   <path class="st1" d="M22.8,23.9c2-2,5.2-2,7.2,0c2.1,2.1,2.1,5.5,0,7.5c-2,2-5.2,2-7.2,0C20.7,29.4,20.7,26,22.8,23.9z">
   </path>
   <path class="st1" d="M45.2,37c2-2,5.2-2,7.2,0c2.1,2.1,2.1,5.5,0,7.5c-2,2-5.2,2-7.2,0C43.1,42.5,43.1,39.1,45.2,37z">
   </path>
   <path class="st1" d="M22.8,50.8c2-2,5.2-2,7.2,0c2.1,2.1,2.1,5.5,0,7.5c-2,2-5.2,2-7.2,0C20.7,56.3,20.7,52.9,22.8,50.8z">
   </path>
   <path class="st1" d="M28.9,30.5l14.9,8.7l2.5-1.4L31.4,29L28.9,30.5z">
   </path>
   <path class="st1" d="M44.8,45.5l-13.4,7.8l-2.5-1.5l13.4-7.8L44.8,45.5z">
   </path>
  </g>
  <g>
   <path class="st0" d="M99.4,25.1h15.3c3.7,0,7.1,0.7,10,2.2c2.9,1.4,5.2,3.5,6.8,6.2c1.6,2.6,2.4,5.7,2.4,9.2s-0.8,6.5-2.4,9.2
			c-1.6,2.6-3.9,4.7-6.8,6.2c-2.9,1.4-6.2,2.2-10,2.2H99.4V25.1z M114.4,54.6c2.6,0,4.8-0.5,6.8-1.5c2-1,3.5-2.4,4.5-4.2
			c1.1-1.8,1.6-4,1.6-6.4c0-2.4-0.5-4.5-1.6-6.3c-1-1.8-2.5-3.2-4.5-4.2c-1.9-1-4.2-1.5-6.8-1.5h-8.5v24H114.4z M165.2,46.9
			c0,0.4,0,1.1-0.1,1.9h-21c0.4,2,1.3,3.5,2.9,4.7c1.6,1.1,3.5,1.7,5.8,1.7c2.9,0,5.4-1,7.3-2.9l3.4,3.9c-1.2,1.4-2.7,2.5-4.6,3.3
			c-1.8,0.7-3.9,1.1-6.2,1.1c-2.9,0-5.5-0.6-7.8-1.8c-2.2-1.2-4-2.8-5.2-4.9c-1.2-2.1-1.8-4.5-1.8-7.1c0-2.6,0.6-4.9,1.8-7
			c1.2-2.1,2.9-3.7,5-4.9c2.1-1.2,4.5-1.8,7.1-1.8c2.6,0,4.9,0.6,7,1.8c2.1,1.1,3.7,2.8,4.8,4.9C164.6,41.8,165.2,44.2,165.2,46.9z
			 M151.7,38.1c-2,0-3.7,0.6-5.1,1.8c-1.4,1.2-2.2,2.7-2.5,4.7h15.2c-0.3-1.9-1.1-3.5-2.5-4.7C155.4,38.7,153.7,38.1,151.7,38.1z
			 M196.3,46.9c0,0.4,0,1.1-0.1,1.9h-21c0.4,2,1.3,3.5,2.9,4.7c1.6,1.1,3.5,1.7,5.8,1.7c2.9,0,5.4-1,7.3-2.9l3.4,3.9
			c-1.2,1.4-2.7,2.5-4.6,3.3c-1.8,0.7-3.9,1.1-6.2,1.1c-2.9,0-5.5-0.6-7.8-1.8c-2.2-1.2-4-2.8-5.2-4.9c-1.2-2.1-1.8-4.5-1.8-7.1
			c0-2.6,0.6-4.9,1.8-7c1.2-2.1,2.9-3.7,5-4.9c2.1-1.2,4.5-1.8,7.1-1.8c2.6,0,4.9,0.6,7,1.8c2.1,1.1,3.7,2.8,4.8,4.9
			C195.7,41.8,196.3,44.2,196.3,46.9z M182.8,38.1c-2,0-3.7,0.6-5.1,1.8c-1.4,1.2-2.2,2.7-2.5,4.7h15.2c-0.3-1.9-1.1-3.5-2.5-4.7
			C186.5,38.7,184.8,38.1,182.8,38.1z M217.1,33.1c2.6,0,4.9,0.6,7,1.7c2.1,1.1,3.7,2.7,4.9,4.8c1.2,2.1,1.8,4.5,1.8,7.2
			s-0.6,5.1-1.8,7.2c-1.2,2.1-2.8,3.7-4.9,4.8c-2,1.1-4.4,1.7-7,1.7c-3.6,0-6.5-1.2-8.6-3.6v13h-6.3V33.4h6v3.5
			c1-1.3,2.3-2.2,3.8-2.9C213.6,33.4,215.3,33.1,217.1,33.1z M216.4,55.1c2.3,0,4.2-0.8,5.7-2.3c1.5-1.5,2.3-3.6,2.3-6.1
			s-0.8-4.5-2.3-6.1c-1.5-1.5-3.4-2.3-5.7-2.3c-1.5,0-2.9,0.4-4.1,1.1c-1.2,0.7-2.2,1.6-2.9,2.9c-0.7,1.3-1.1,2.7-1.1,4.4
			s0.4,3.1,1.1,4.4c0.7,1.3,1.7,2.3,2.9,3C213.6,54.8,214.9,55.1,216.4,55.1z M237.2,25.1h6.5v29.5H262v5.5h-24.8V25.1z">
   </path>
  </g>
 </g>
</svg>