<svg width="142" height="52" viewBox="0 0 142 52" fill="none" xmlns="http://www.w3.org/2000/svg">
<path d="M55.8628 15H63.1368C64.9028 15 66.4908 15.345 67.8708 16.035C69.2508 16.712 70.3138 17.678 71.0728 18.948C71.8318 20.19 72.2178 21.638 72.2178 23.281C72.2178 24.924 71.8318 26.373 71.0728 27.629C70.3138 28.871 69.2508 29.837 67.8708 30.541C66.4908 31.217 64.9168 31.562 63.1368 31.562H55.8628V15ZM62.9988 28.954C64.2128 28.954 65.2898 28.719 66.2008 28.264C67.1388 27.794 67.8428 27.132 68.3398 26.276C68.8508 25.406 69.0988 24.413 69.0988 23.267C69.0988 22.122 68.8508 21.142 68.3398 20.287C67.8495 19.4191 67.1022 18.7246 66.2008 18.299C65.2758 17.829 64.2128 17.595 62.9988 17.595H58.9548V28.94H62.9988V28.954ZM87.1378 25.31C87.1378 25.517 87.1238 25.807 87.0968 26.18H77.1318C77.3108 27.104 77.7528 27.85 78.4838 28.402C79.2298 28.94 80.1398 29.202 81.2448 29.202C82.6388 29.202 83.7838 28.747 84.6948 27.836L86.2818 29.658C85.7158 30.334 84.9848 30.845 84.1148 31.19C83.2458 31.535 82.2658 31.714 81.1758 31.714C79.7818 31.714 78.5528 31.438 77.4908 30.886C76.4278 30.334 75.5998 29.575 75.0198 28.595C74.4538 27.601 74.1638 26.483 74.1638 25.241C74.1638 23.999 74.4398 22.909 74.9918 21.929C75.5427 20.9523 76.3556 20.1491 77.3388 19.61C78.3318 19.058 79.4638 18.782 80.7198 18.782C81.9758 18.782 83.0528 19.058 84.0188 19.61C84.9863 20.1334 85.7783 20.9303 86.2958 21.901C86.8618 22.895 87.1378 24.026 87.1378 25.31ZM80.7198 21.156C79.7678 21.156 78.9668 21.446 78.2908 22.011C77.6418 22.564 77.2418 23.309 77.1038 24.234H84.3088C84.1838 23.323 83.7978 22.577 83.1488 22.012C82.5008 21.446 81.6858 21.156 80.7198 21.156ZM101.92 25.31C101.92 25.517 101.906 25.807 101.878 26.18H91.9268C92.1068 27.104 92.5478 27.85 93.2798 28.402C94.0248 28.94 94.9498 29.202 96.0398 29.202C97.4338 29.202 98.5798 28.747 99.4908 27.836L101.078 29.658C100.512 30.334 99.7808 30.845 98.9108 31.19C98.0418 31.535 97.0618 31.714 95.9708 31.714C94.5768 31.714 93.3488 31.438 92.2858 30.886C91.2228 30.334 90.3948 29.575 89.8158 28.595C89.2498 27.601 88.9598 26.483 88.9598 25.241C88.9598 23.999 89.2358 22.909 89.7878 21.929C90.3386 20.9526 91.1511 20.1495 92.1338 19.61C93.1278 19.058 94.2598 18.782 95.5018 18.782C96.7438 18.782 97.8338 19.058 98.8008 19.61C99.7683 20.1334 100.56 20.9303 101.078 21.901C101.644 22.895 101.92 24.026 101.92 25.31ZM95.5018 21.156C94.5498 21.156 93.7488 21.446 93.0728 22.011C92.4238 22.564 92.0238 23.309 91.8858 24.234H99.0898C98.9658 23.323 98.5798 22.577 97.9308 22.012C97.2688 21.446 96.4678 21.156 95.5018 21.156ZM111.802 18.796C113.03 18.796 114.134 19.058 115.1 19.596C116.069 20.1208 116.868 20.9106 117.405 21.873C117.957 22.853 118.234 23.971 118.234 25.255C118.234 26.539 117.957 27.67 117.405 28.664C116.868 29.6264 116.069 30.4161 115.1 30.941C114.134 31.479 113.03 31.741 111.802 31.741C110.09 31.741 108.738 31.176 107.744 30.044V36.172H104.777V18.934H107.606V20.59C108.09 19.9996 108.711 19.5354 109.414 19.237C110.17 18.9244 110.984 18.7742 111.802 18.796ZM111.471 29.188C112.561 29.188 113.458 28.83 114.148 28.098C114.866 27.38 115.225 26.414 115.225 25.241C115.225 24.068 114.866 23.101 114.148 22.384C113.444 21.666 112.561 21.294 111.471 21.294C110.753 21.294 110.118 21.459 109.552 21.791C108.982 22.1103 108.513 22.5837 108.2 23.157C107.868 23.75 107.703 24.454 107.703 25.241C107.703 26.028 107.868 26.718 108.2 27.325C108.512 27.9063 108.98 28.389 109.552 28.719C110.137 29.0467 110.8 29.2092 111.471 29.189V29.188ZM121.339 15H124.43V28.954H133.126V31.548H121.339V15Z" fill="#DEE5E5"/>
<path fill-rule="evenodd" clip-rule="evenodd" d="M43.915 13.0596L28.845 4.34163C28.4635 4.11793 28.0293 4 27.587 4C27.1448 4 26.7105 4.11793 26.329 4.34163L11.259 13.0886C10.8784 13.3089 10.5619 13.6248 10.341 14.0051C10.1202 14.3854 10.0026 14.8169 10 15.2566V32.7206C9.99847 33.1641 10.114 33.6001 10.3349 33.9846C10.5557 34.3691 10.8742 34.6886 11.258 34.9106L26.328 43.6356C26.365 43.6576 26.408 43.6796 26.445 43.7006L33.868 48.0006L33.846 44.2206L33.861 42.1246L33.868 42.1606V41.4516C33.868 41.0326 34.085 40.6566 34.41 40.4256L34.894 40.1506L35.126 40.0206H35.111L43.915 34.9246C44.2982 34.7018 44.6161 34.3822 44.8368 33.9978C45.0576 33.6135 45.1735 33.1779 45.173 32.7346V15.2496C45.1735 14.8064 45.0576 14.3708 44.8368 13.9864C44.6161 13.6021 44.2982 13.2825 43.915 13.0596ZM25.853 30.8196C25.967 31.2693 25.9595 31.7411 25.8312 32.1869C25.7029 32.6326 25.4585 33.0363 25.123 33.3566C24.6403 33.8292 23.9916 34.0939 23.316 34.0939C22.6404 34.0939 21.9918 33.8292 21.509 33.3566C21.2522 33.1134 21.0476 32.8203 20.9078 32.4954C20.768 32.1704 20.6959 31.8204 20.6959 31.4666C20.6959 31.1129 20.768 30.7628 20.9078 30.4379C21.0476 30.1129 21.2522 29.8199 21.509 29.5766C21.7595 29.3314 22.0572 29.1398 22.3841 29.0133C22.711 28.8869 23.0602 28.8283 23.4104 28.8411C23.7607 28.8539 24.1047 28.9379 24.4215 29.0879C24.7382 29.2379 25.0212 29.4508 25.253 29.7136L31.353 26.2006L32.611 26.9086L25.853 30.8196ZM36.435 26.3956C35.9523 26.8682 35.3036 27.1329 34.628 27.1329C33.9524 27.1329 33.3038 26.8682 32.821 26.3956C32.4627 26.0547 32.2086 25.6189 32.0882 25.1392C31.9678 24.6594 31.9861 24.1554 32.141 23.6856L32.12 23.6996L25.239 19.7166C25.202 19.7526 25.173 19.7886 25.137 19.8176C24.6543 20.2902 24.0056 20.5549 23.33 20.5549C22.6544 20.5549 22.0058 20.2902 21.523 19.8176C21.2662 19.5744 21.0616 19.2813 20.9218 18.9564C20.782 18.6314 20.7099 18.2814 20.7099 17.9276C20.7099 17.5739 20.782 17.2238 20.9218 16.8989C21.0616 16.5739 21.2662 16.2809 21.523 16.0376C22.0058 15.565 22.6544 15.3003 23.33 15.3003C24.0056 15.3003 24.6543 15.565 25.137 16.0376C25.86 16.7316 26.099 17.7216 25.853 18.6176L32.785 22.6516L32.821 22.6146C33.3038 22.142 33.9524 21.8773 34.628 21.8773C35.3036 21.8773 35.9523 22.142 36.435 22.6146C36.6903 22.8588 36.8935 23.1521 37.0324 23.4769C37.1712 23.8018 37.2428 24.1514 37.2428 24.5046C37.2428 24.8579 37.1712 25.2075 37.0324 25.5323C36.8935 25.8572 36.6903 26.1515 36.435 26.3956Z" fill="#DEE5E5"/>
</svg>
