<svg width="157" height="52" viewBox="0 0 157 52" fill="none" xmlns="http://www.w3.org/2000/svg">
<g clip-path="url(#clip0_36_11)">
<mask id="mask0_36_11" style="mask-type:luminance" maskUnits="userSpaceOnUse" x="10" y="8" width="218" height="40">
<path d="M10 8H228V48H10V8Z" fill="white"/>
</mask>
<g mask="url(#mask0_36_11)">
<path d="M14.9422 34.5722H18.1382C19.3964 34.5776 20.642 34.3219 21.7962 33.8212C23.5145 33.0847 24.976 31.8557 25.9962 30.2892C27.0256 28.7107 27.5732 26.8667 27.5722 24.9822C27.5732 23.0977 27.0256 21.2537 25.9962 19.6752C24.9759 18.1087 23.5144 16.8797 21.7962 16.1432C20.6434 15.6359 19.3977 15.3737 18.1382 15.3732H10.3662V34.5532H13.0332V18.1202H18.1382C19.0264 18.119 19.9056 18.2972 20.7232 18.6442C21.5504 18.9828 22.3 19.4863 22.9262 20.1242C23.5566 20.7664 24.0514 21.5289 24.3812 22.3662C25.0669 24.0594 25.0669 25.953 24.3812 27.6462C24.0478 28.4796 23.5515 29.238 22.9212 29.8772C22.2955 30.5123 21.5479 31.0144 20.7232 31.3532C19.9057 31.7004 19.0264 31.8787 18.1382 31.8772H15.9332L14.9422 34.5712V34.5722ZM29.8852 34.5722H32.5522V21.0872H29.8852V34.5722ZM29.8852 18.1062H32.5522V15.3722H29.8852V18.1062ZM36.9482 39.4222C38.4826 40.2019 40.1771 40.6147 41.8982 40.6282C45.0082 40.6282 48.6712 38.8382 48.6712 33.7082V21.0862H46.0042V22.5692L45.4542 22.1442C44.8838 21.7091 44.2541 21.3579 43.5842 21.1012C42.8074 20.8127 41.9837 20.6717 41.1552 20.6852C40.2552 20.6802 39.3652 20.8692 38.5422 21.2392C37.7437 21.6008 37.0313 22.1282 36.4522 22.7862C35.8674 23.4538 35.4129 24.2251 35.1122 25.0602C34.7856 25.9584 34.6211 26.9074 34.6262 27.8632C34.6205 28.8209 34.8108 29.7697 35.1852 30.6512C35.5482 31.5012 36.0632 32.2742 36.7052 32.9302C37.3443 33.5803 38.1033 34.1006 38.9402 34.4622C39.7982 34.8322 40.7202 35.0202 41.6502 35.0162H41.7102C42.478 35.0206 43.2411 34.8969 43.9682 34.6502L43.0452 32.0852C42.5934 32.2241 42.1239 32.2972 41.6512 32.3022C41.0793 32.304 40.5128 32.1911 39.9852 31.9702C39.4551 31.7477 38.9744 31.422 38.5712 31.0122C38.1577 30.6019 37.8318 30.1121 37.6132 29.5722C37.3931 29.0297 37.2843 28.4485 37.2932 27.8632C37.2896 27.2835 37.3982 26.7086 37.6132 26.1702C37.8271 25.634 38.1437 25.1449 38.5452 24.7302C38.9452 24.3162 39.4222 23.9872 39.9472 23.7622C40.4718 23.5365 41.0362 23.4182 41.6072 23.4142H41.6662C42.2403 23.4055 42.8099 23.5158 43.3392 23.7382C43.871 23.962 44.3512 24.2925 44.7502 24.7092C45.5683 25.5494 46.0252 26.6764 46.0232 27.8492V33.5292C46.0232 37.4332 43.1532 37.9772 41.5782 37.9772C40.2864 37.8848 39.0254 37.5389 37.8672 36.9592L36.9482 39.4212V39.4222ZM51.5222 34.5722H54.1892V21.0872H51.5222V34.5722ZM51.5222 18.1062H54.1892V15.3722H51.5222V18.1062ZM57.0412 17.4482V30.2322C57.0382 30.8102 57.1512 31.3822 57.3762 31.9122C57.5932 32.4292 57.9012 32.9002 58.2852 33.3022C58.6672 33.6992 59.1232 34.0172 59.6252 34.2362C60.1459 34.4642 60.7087 34.5804 61.2772 34.5772H63.8672L62.8952 31.8632H61.2822C61.0732 31.8629 60.8667 31.8188 60.6758 31.7337C60.485 31.6486 60.3141 31.5244 60.1742 31.3692C60.0191 31.2203 59.8961 31.0414 59.8127 30.8433C59.7293 30.6452 59.6873 30.4321 59.6892 30.2172V23.7762H63.4592L62.4872 21.0622H59.6892V17.4482H57.0412ZM71.1972 20.6712C70.2694 20.6624 69.3504 20.8513 68.5012 21.2252C67.6931 21.5835 66.9659 22.1015 66.3632 22.7482C65.7541 23.4102 65.2763 24.1818 64.9552 25.0222C64.6206 25.9165 64.4558 26.8654 64.4692 27.8202C64.4578 28.765 64.6226 29.7037 64.9552 30.5882C65.2772 31.4302 65.7552 32.2022 66.3632 32.8622C66.9658 33.5086 67.6931 34.0264 68.5012 34.3842C69.3504 34.758 70.2694 34.9468 71.1972 34.9382C72.0721 34.9497 72.94 34.7816 73.7472 34.4442L72.8682 31.9722C72.4162 32.1102 71.9462 32.1822 71.4742 32.1852C70.9 32.1869 70.3309 32.0775 69.7982 31.8632C69.2583 31.6421 68.7739 31.3048 68.3792 30.8752C67.8679 30.3556 67.4916 29.7187 67.2832 29.0202C67.073 28.3192 67.0359 27.5776 67.1752 26.8592C67.3152 26.1402 67.6272 25.4682 68.0832 24.9012C68.537 24.3364 69.1239 23.8932 69.7912 23.6112C70.4555 23.3306 71.1796 23.2215 71.8971 23.2938C72.6145 23.3662 73.3023 23.6177 73.8972 24.0252C74.4972 24.4349 74.9869 24.9862 75.3232 25.6302C75.6622 26.2772 75.8382 26.9982 75.8372 27.7302V34.5572H78.5032V21.0372H75.8372V22.5202L75.2832 22.0752C74.7463 21.6619 74.1521 21.3291 73.5192 21.0872C72.7854 20.8033 72.004 20.6625 71.2172 20.6722H71.1972V20.6712ZM81.5162 34.5722H84.2062V15.3722H81.5352L81.5162 34.5722ZM102.585 34.5722H105.766L101.88 28.4722L102.23 28.3042C102.794 28.0347 103.316 27.6851 103.78 27.2662C104.242 26.8506 104.644 26.3731 104.975 25.8472C105.671 24.742 106.036 23.4603 106.025 22.1542C106.031 21.2504 105.85 20.3553 105.495 19.5242C104.815 17.9108 103.545 16.6183 101.943 15.9112C101.13 15.5507 100.249 15.367 99.3592 15.3722H92.4172V34.5522H95.0842V18.1212H99.3882C99.9171 18.1154 100.441 18.2192 100.928 18.4262C101.417 18.6342 101.858 18.9402 102.225 19.3262C102.782 19.8962 103.16 20.6175 103.31 21.4002C103.462 22.1846 103.382 22.9964 103.08 23.7362C102.877 24.2186 102.59 24.6607 102.23 25.0412C101.864 25.4281 101.422 25.7351 100.931 25.9432C100.444 26.1506 99.9181 26.2545 99.3882 26.2482H97.8092L96.8382 28.9862H99.0282L102.585 34.5722ZM108.415 34.5722H111.081V21.0872H108.414L108.415 34.5722ZM108.415 18.1062H111.081V15.3722H108.414L108.415 18.1062ZM118.13 34.5722H121.812L126.597 21.0872H123.756L119.927 31.7302L116.099 21.0872H113.257L118.13 34.5722ZM130.163 29.1792H141.235C141.321 28.7312 141.363 28.2762 141.361 27.8192C141.367 26.8632 141.182 25.9157 140.817 25.0322C140.115 23.3234 138.772 21.957 137.076 21.2252C136.209 20.8592 135.277 20.6707 134.336 20.6707C133.395 20.6707 132.463 20.8592 131.596 21.2252C129.9 21.957 128.558 23.3234 127.856 25.0322C127.49 25.9157 127.305 26.8638 127.312 27.8202C127.312 32.7982 131.261 34.9132 134.958 34.8502C136.44 34.8131 137.899 34.4656 139.238 33.8302L138.407 31.5022C137.226 31.9857 135.962 32.2327 134.686 32.2292C131.854 32.2292 130.494 30.6272 130.119 29.1792H130.163ZM138.514 26.4652H130.119L130.328 25.9712C130.665 25.2003 131.22 24.5444 131.924 24.0836C132.628 23.6227 133.451 23.3769 134.292 23.3762C134.867 23.3673 135.437 23.4777 135.966 23.7002C136.496 23.9222 136.977 24.2532 137.377 24.6702C137.748 25.0442 138.046 25.4852 138.257 25.9702L138.514 26.4652ZM146.287 22.9052V21.0372H143.62V34.5672H146.287V27.7902C146.287 26.6162 146.742 25.4902 147.555 24.6562C148.278 23.8978 149.259 23.4391 150.304 23.3712V20.6512C149.504 20.6802 148.722 20.8982 148.019 21.2892C147.314 21.6817 146.711 22.2338 146.258 22.9012L146.287 22.9062V22.9052ZM152.281 22.0312C152.281 21.5932 152.407 21.1642 152.646 20.8002C152.883 20.4366 153.222 20.1518 153.621 19.9822C154.018 19.8128 154.457 19.7676 154.881 19.8524C155.304 19.9371 155.692 20.148 155.993 20.4572C156.298 20.7695 156.506 21.1639 156.59 21.5922C156.675 22.0205 156.633 22.4642 156.47 22.8692C156.308 23.2727 156.03 23.6193 155.671 23.8652C155.254 24.1508 154.75 24.2804 154.247 24.2314C153.745 24.1824 153.275 23.9579 152.921 23.5972C152.511 23.1789 152.282 22.6168 152.281 22.0312ZM156.348 22.0312C156.349 21.6506 156.239 21.278 156.031 20.9592C155.825 20.643 155.53 20.3952 155.183 20.2472C154.837 20.0998 154.455 20.0602 154.087 20.1337C153.718 20.2073 153.38 20.3904 153.117 20.6592C152.851 20.9308 152.67 21.2742 152.596 21.6472C152.522 22.0202 152.559 22.4066 152.701 22.7592C152.843 23.1122 153.085 23.4142 153.396 23.6262C153.759 23.8747 154.198 23.9875 154.635 23.9449C155.073 23.9023 155.481 23.707 155.789 23.3932C156.148 23.0311 156.349 22.5413 156.348 22.0312ZM153.53 20.6672H154.574C154.686 20.6535 154.799 20.6645 154.907 20.6994C155.014 20.7343 155.112 20.7923 155.194 20.8692C155.277 20.947 155.343 21.0414 155.387 21.1464C155.431 21.2514 155.452 21.3644 155.449 21.4782C155.459 21.6466 155.413 21.8136 155.318 21.9532C155.223 22.0917 155.085 22.1939 154.924 22.2432L155.702 23.3612H155.133L154.409 22.2932H154.079V23.3662H153.53V20.6672ZM154.502 21.8972C154.557 21.897 154.61 21.8861 154.661 21.8649C154.711 21.8438 154.756 21.813 154.794 21.7742C154.872 21.6947 154.915 21.5881 154.915 21.4772C154.915 21.3662 154.872 21.2597 154.794 21.1802C154.756 21.1414 154.711 21.1105 154.661 21.0894C154.61 21.0683 154.557 21.0573 154.502 21.0572H154.069V21.8972H154.502Z" fill="#DEE5E5"/>
</g>
</g>
<defs>
<clipPath id="clip0_36_11">
<rect width="157" height="52" fill="white"/>
</clipPath>
</defs>
</svg>
