<svg xmlns="http://www.w3.org/2000/svg" xmlns:xlink="http://www.w3.org/1999/xlink" viewBox="0,0,256,256" width="680.49988" height="335.07031" fill-rule="nonzero"><g fill="#ffffff" fill-rule="nonzero" stroke="none" stroke-width="1" stroke-linecap="butt" stroke-linejoin="miter" stroke-miterlimit="10" stroke-dasharray="" stroke-dashoffset="0" font-family="none" font-weight="none" font-size="none" text-anchor="none" style="mix-blend-mode: normal"><g transform="scale(5.12,5.12)"><path d="M12.59375,13.6875l0.03125,9.96875c-0.10937,-1.85156 -0.96484,-5.5625 -6.15625,-5.5625c-6.25391,0 -6.5,4.86328 -6.46875,6.125c0,0 -0.30469,5.6875 6.3125,5.6875c5.68359,0 5.96875,-3.5625 5.96875,-3.5625h-2.625c0,0 -0.51562,1.99219 -3.34375,1.9375c-3.63672,-0.06641 -3.78125,-3.59375 -3.78125,-3.59375h10.09375l0.03125,2.28125c0,0 -0.03125,1.53906 -0.125,2.5625h2.4375l0.125,-1.5c0,0 1.13281,1.875 4.46875,1.875c2.86719,0 5.22266,-1.50391 5.875,-4.34375c-0.51172,3.33984 2.44922,4.35938 4.78125,4.34375c2.33203,-0.01172 3.66797,-0.6875 4.65625,-1.9375l0.125,1.53125h2.3125c0,0 -0.07031,-0.875 -0.0625,-2.59375c0.00781,-1.71875 0.05859,-3.26172 0,-4.34375c-0.02734,-0.55078 -0.03125,-1.4375 -0.46875,-2.28125c-0.5625,-1.08594 -1.85547,-2.09375 -4.90625,-2.21875c0,0 -5.21094,-0.46484 -5.75,3.40625h2.65625c0,0 0.20703,-1.76953 2.90625,-1.71875c2.55469,0.04688 3.04688,1.30469 3.03125,2.84375c0,0 -2.20703,-0.00391 -2.9375,0c-1.29297,0.00781 -5.73437,0.16016 -6.3125,2.8125c0.08594,-0.42187 0.11719,-0.86719 0.125,-1.34375c0.07031,-3.8125 -2.82422,-5.95312 -5.96875,-5.96875c-3.14453,-0.01953 -4.5,1.875 -4.5,1.875v-6.28125zM36.78125,20.28125l4.90625,9.21875l-2.25,4.21875h2.8125l7.75,-15.1875h-2.65625l-4.28125,8.5l-4.28125,-8.5h-2.90625zM6.40625,19.75c3.58203,0 3.59375,3.1875 3.59375,3.1875h-7.375c0,0 0.18359,-3.1875 3.78125,-3.1875zM19.03125,19.8125c4.04297,-0.10547 3.90625,4.28125 3.90625,4.28125c0,0 0.0625,4.07422 -3.90625,4.125c-3.96875,0.05078 -3.90625,-4.21875 -3.90625,-4.21875c0,0 -0.13672,-4.08203 3.90625,-4.1875zM31.25,24.28125c0.375,-0.01953 0.625,0 0.625,0h2.84375c0,0 0.46875,4.08984 -4.0625,4.03125c0,0 -2.50781,-0.01172 -2.65625,-2.03125c-0.11719,-1.61719 2.12109,-1.9375 3.25,-2z"></path></g></g></svg>