<svg xmlns="http://www.w3.org/2000/svg" width="17" height="17" fill="none"><g clip-path="url(#a)"><path fill="#F4E28D" fill-rule="evenodd" d="M5.308 4.076a2.225 2.225 0 1 1 4.45 0v.375h.071c.437 0 .795 0 1.087.02.303.021.579.065.843.175a2.55 2.55 0 0 1 1.38 1.38c.11.264.154.54.175.843.01.15.015.32.017.507h.377a2.225 2.225 0 0 1 0 4.45h-.375v.53c0 .525 0 .955-.028 1.305-.03.362-.093.69-.25.998a2.55 2.55 0 0 1-1.114 1.114c-.307.157-.636.22-.998.25-.35.028-.78.028-1.305.028h-.48a.6.6 0 0 1-.6-.6v-1.137a.862.862 0 1 0-1.725 0v1.137a.6.6 0 0 1-.6.6h-.805c-.524 0-.955 0-1.304-.028-.362-.03-.691-.093-.998-.25A2.55 2.55 0 0 1 2.01 14.66c-.156-.307-.22-.636-.249-.998-.029-.35-.029-.78-.029-1.305v-.155c0-.87.706-1.575 1.575-1.575a1.025 1.025 0 1 0 0-2.05c-.851 0-1.607-.695-1.56-1.605.017-.344.058-.653.18-.945a2.55 2.55 0 0 1 1.38-1.38c.264-.11.54-.154.843-.175.292-.02.65-.02 1.087-.02h.07v-.375zm2.225-1.025c-.566 0-1.025.46-1.025 1.025v.975a.6.6 0 0 1-.6.6h-.65c-.462 0-.779 0-1.026.018-.241.016-.371.046-.465.085-.331.137-.594.4-.73.73-.044.106-.076.254-.091.548-.009.165.137.344.362.344a2.225 2.225 0 0 1 0 4.45.375.375 0 0 0-.375.375v.13c0 .556 0 .937.025 1.232.024.288.067.441.123.551.129.254.335.46.59.59.11.056.262.1.55.123.296.024.676.024 1.232.024h.18v-.537a2.062 2.062 0 1 1 4.125 0v.537c.479 0 .819-.002 1.087-.024.288-.024.441-.067.551-.123.254-.13.46-.336.59-.59.056-.11.1-.263.123-.55.024-.296.024-.677.024-1.233v-1.105a.6.6 0 0 1 .6-.6h.975a1.025 1.025 0 1 0 0-2.05h-.975a.6.6 0 0 1-.6-.6c0-.462 0-.779-.017-1.026-.016-.241-.046-.371-.085-.465a1.35 1.35 0 0 0-.731-.73c-.094-.04-.224-.07-.466-.086a16.758 16.758 0 0 0-1.026-.018h-.65a.6.6 0 0 1-.6-.6v-.975c0-.566-.459-1.025-1.025-1.025z" clip-rule="evenodd"/></g><defs><clipPath id="a"><path fill="#fff" d="M.333.951h16v16h-16z"/></clipPath></defs></svg>