<svg xmlns="http://www.w3.org/2000/svg" width="60" height="60" fill="none"><path fill="#F2F7F7" d="M1.707 21.157c1.626-5.488 4.675-10.111 9.147-13.87 4.47-3.756 9.54-5.958 15.21-6.606 5.05-.578 9.87.068 14.459 1.939 4.364 1.778 8.088 4.473 11.17 8.084 3.083 3.614 5.157 7.714 6.223 12.3 1.12 4.826.993 9.687-.384 14.582-.013.045-.042.061-.087.048l-6.806-2.04c-.042-.013-.058-.041-.047-.084l.066-.26c.186-.719.309-1.24.37-1.562.688-3.623.51-7.16-.533-10.611a21.713 21.713 0 0 0-5.045-8.71c-2.37-2.518-5.165-4.365-8.384-5.54-3.38-1.236-6.897-1.601-10.552-1.098-3.223.443-6.178 1.538-8.867 3.285a21.544 21.544 0 0 0-6.402 6.42 21.854 21.854 0 0 0-3.272 8.478 21.985 21.985 0 0 0 .521 9.462c.013.045-.004.074-.05.088l-6.86 1.98c-.024.008-.039 0-.045-.023C.05 31.972.107 26.55 1.707 21.157z"/><path fill="#656973" d="M28.453 2.907a.232.232 0 1 0 0-.465.232.232 0 0 0 0 .465zm7.17.661a.227.227 0 1 0 0-.454.227.227 0 0 0 0 .454zm-1.362.239.405.06c.054.009.076.039.066.092l-.024.132c-.01.052-.041.072-.092.06l-.346-.076c-.076-.018-.122.012-.136.09l-.16.91c-.046.279.1.398.441.358.052-.006.072.016.058.067l-.052.19c-.01.04-.036.06-.077.062-.418.008-.654-.143-.71-.452-.032-.18.008-.497.122-.95.034-.133.058-.23.071-.291.008-.035-.006-.055-.041-.06l-.28-.044c-.073-.01-.098-.051-.074-.121l.034-.098c.014-.04.042-.057.084-.053l.275.03c.042.005.066-.014.072-.055l.059-.394c.006-.04.028-.056.067-.05l.193.031c.054.008.077.04.067.096l-.073.396c-.007.04.01.063.051.07zm-4.494 1.174.924.015c.037 0 .061.018.073.053.025.073.02.132-.016.176-.027.034-.075.05-.143.05a53.357 53.357 0 0 1-1.272-.038.131.131 0 0 1-.124-.084.133.133 0 0 1 .02-.149l1.04-1.261c.04-.047.029-.07-.032-.073l-.885-.037c-.041-.001-.061-.022-.06-.063l.004-.127c0-.047.024-.07.071-.07l1.26.016a.155.155 0 0 1 .15.097.156.156 0 0 1-.023.178L29.73 4.9c-.044.053-.032.08.037.081zM28.584 3.4l-.208.008a.06.06 0 0 0-.057.06l.067 1.748a.06.06 0 0 0 .061.056l.21-.008a.06.06 0 0 0 .056-.061l-.067-1.747a.06.06 0 0 0-.062-.056zm-2.314.36c.133-.196.332-.294.598-.293.258.002.447.092.565.27.107.162.187.549.242 1.16.014.164.026.28.034.35.007.053-.016.08-.07.08l-.196.003c-.045 0-.07-.022-.075-.067-.04-.454-.08-.816-.118-1.088-.034-.233-.15-.367-.351-.402-.195-.033-.356.037-.485.21-.131.178-.142.616-.033 1.314l.01.063c.006.041-.01.07-.046.087-.109.05-.188.055-.239.013-.032-.027-.052-.087-.06-.182a20.921 20.921 0 0 0-.185-1.594c-.008-.048.013-.074.061-.078l.178-.01c.031-.002.051.012.06.043l.03.109c.018.062.045.066.08.013zm9.255.299-.132-.03a.096.096 0 0 0-.115.071l-.383 1.66a.096.096 0 0 0 .072.116l.131.03a.096.096 0 0 0 .116-.072l.383-1.66a.096.096 0 0 0-.072-.115z"/><path fill="#656973" fill-rule="evenodd" d="M31.605 5.376c.24.102.504.064.79-.112.04-.024.064-.013.074.031.03.118.105.175.226.17.043-.002.066-.024.071-.067l.033-.25c.096-.7.097-1.144 0-1.329-.113-.22-.322-.34-.627-.364a1.152 1.152 0 0 0-.737.176c-.04.027-.046.06-.015.097l.116.143c.027.033.058.038.093.016a.814.814 0 0 1 .626-.095c.26.054.358.195.293.423-.012.039-.037.055-.076.048-.46-.083-.802-.046-1.03.11a.492.492 0 0 0-.221.539.602.602 0 0 0 .384.464zm.865-.772c-.01-.084-.057-.122-.142-.113l-.677.075c-.085.01-.122.057-.113.142l.002.019c.035.31.204.45.509.416l.017-.002c.304-.034.44-.206.406-.518l-.002-.019zm-9.983-.208.031.135c.009.034-.003.043-.035.028-.331-.158-.626-.157-.885.002-.23.14-.378.362-.445.663-.066.304-.023.569.13.795.172.259.448.39.83.395.331.004.593-.144.785-.444.018-.028.034-.027.05.002.203.37.156.663-.14.877-.288.207-.604.22-.948.041-.043-.022-.074-.012-.093.032l-.098.223c-.016.038-.005.065.033.08.413.165.813.141 1.203-.07.418-.226.568-.572.451-1.035a42.875 42.875 0 0 0-.549-1.795c-.014-.047-.046-.065-.095-.054l-.174.041c-.045.011-.062.039-.051.084zm-.19 1.675a.659.659 0 0 1-.801-.475.659.659 0 0 1 .447-.818.659.659 0 0 1 .801.476.659.659 0 0 1-.447.817zm15.406.073a.967.967 0 0 0 .293-.709.967.967 0 0 0-.293-.71.966.966 0 0 0-.71-.293.967.967 0 0 0-.71.294.966.966 0 0 0-.293.709c0 .277.098.514.294.71a.967.967 0 0 0 .71.293.966.966 0 0 0 .709-.294zm-.866-.05c-.35-.084-.56-.447-.473-.812.089-.364.443-.591.792-.507.35.085.56.449.473.813-.089.364-.443.591-.792.507zm-12.621-.267c.347.041.622-.067.825-.324.025-.033.047-.03.065.006l.046.092c.017.035.044.047.08.037l.175-.044c.035-.01.049-.031.04-.067-.08-.339-.156-.678-.227-1.017-.09-.429-.314-.656-.672-.683-.334-.025-.636.115-.906.42-.026.029-.023.055.009.078l.147.109c.036.026.068.023.099-.009a.892.892 0 0 1 .536-.28c.238-.032.381.068.431.3.007.031-.005.052-.034.062a6.107 6.107 0 0 1-.225.064c-.538.144-.825.368-.863.672-.041.347.117.542.474.584zm.709-.988c-.041-.083-.103-.104-.186-.064l-.623.303c-.084.04-.105.102-.065.185l.008.016c.135.278.344.349.626.212l.027-.013c.282-.137.355-.344.22-.622l-.007-.017z" clip-rule="evenodd"/><path fill="#656973" d="M19.958 5.393a.735.735 0 0 1 .474-.428c.04-.012.069.001.083.04l.075.202c.016.042.001.068-.043.078-.5.112-.526.628-.08 1.55l.05.103c.02.041.008.07-.033.087l-.187.077c-.042.018-.072.005-.09-.038l-.66-1.623c-.014-.037-.006-.067.026-.09.116-.082.218-.066.303.05.033.045.06.043.082-.008zm19.159-.001c-.008.022 0 .03.023.024.272-.066.494-.06.665.015.314.14.45.384.41.733-.024.202-.133.509-.329.921a6.24 6.24 0 0 0-.146.323c-.02.05-.054.064-.103.04l-.182-.086c-.04-.02-.051-.05-.032-.09.15-.329.29-.66.418-.993.113-.296.051-.497-.186-.6-.235-.104-.456-.047-.663.17-.118.123-.265.467-.44 1.033-.017.056-.053.073-.108.05l-.198-.081c-.036-.015-.047-.04-.032-.075l.67-1.61c.02-.048.054-.064.104-.047l.141.048c.042.015.055.043.04.085l-.051.14z"/><path fill="#656973" fill-rule="evenodd" d="M18.793 7.794c.292-.293.438-.646.438-1.059 0-.413-.146-.766-.438-1.058a1.444 1.444 0 0 0-1.059-.438c-.413 0-.766.146-1.059.438a1.444 1.444 0 0 0-.438 1.058c0 .413.146.766.438 1.06a1.45 1.45 0 0 0 1.06.437c.412 0 .765-.146 1.058-.438zm-.514-.036c-.54.287-1.222.06-1.523-.506-.301-.567-.108-1.259.432-1.546.54-.287 1.222-.06 1.523.506.302.567.108 1.26-.432 1.546z" clip-rule="evenodd"/><path fill="#656973" d="M42.312 7.29c-.246.447-.237.855.024 1.224.264.373.646.502 1.145.387.044-.01.072.006.083.05l.05.187c.014.054-.006.087-.06.102a1.316 1.316 0 0 1-1.106-.175c-.48-.313-.713-.713-.7-1.199.01-.431.196-.813.556-1.144.363-.334.754-.477 1.173-.427.481.057.866.372 1.154.947.073.145.028.22-.135.223l-.15.003c-.034.001-.057-.015-.068-.048-.165-.49-.476-.744-.933-.761-.448-.018-.792.193-1.033.63z"/><path fill="#656973" fill-rule="evenodd" d="M14.094 9.907c-.056-.038-.057-.078-.003-.118l1.076-.82c.029-.023.033-.05.011-.08-.283-.414-.633-.558-1.048-.43-.28.086-.476.247-.585.482a.954.954 0 0 0-.042.686c.07.245.203.437.398.575.215.152.46.2.734.146.446-.09.725-.39.836-.9.01-.043-.007-.067-.05-.072l-.206-.025c-.04-.004-.062.013-.068.052-.047.285-.173.48-.38.585-.21.107-.435.08-.673-.081zm-.247-.316c.007.008.014.009.023.002l.873-.666c.009-.006.01-.014.004-.022l-.004-.006c-.192-.252-.435-.267-.728-.043l-.021.016c-.293.223-.343.46-.15.714l.003.005zm31.935.801a.965.965 0 0 0 .294-.71.965.965 0 0 0-.294-.709.965.965 0 0 0-.71-.294.965.965 0 0 0-.709.294.964.964 0 0 0-.294.71c0 .277.098.514.294.71a.964.964 0 0 0 .71.294.965.965 0 0 0 .709-.295zm-.044-.71a.665.665 0 1 1-1.33 0 .665.665 0 0 1 1.33 0z" clip-rule="evenodd"/><path fill="#656973" d="M13.744 10.735c.066.011.092.05.077.115-.081.362-.275.617-.582.762-.315.15-.625.12-.93-.086-.427-.292-.57-.656-.429-1.092.14-.428.46-.678.96-.75.044-.006.066.013.065.057l-.003.218c0 .04-.021.062-.061.065-.35.022-.565.18-.646.476-.082.294.022.54.31.735.22.15.433.173.637.07.199-.1.32-.282.366-.545.008-.041.032-.059.073-.051l.163.026zm33.414-.293c.394.031.648.227.761.587.078.248-.165.65-.73 1.209a11.58 11.58 0 0 0-.15.149c-.073.074-.14.107-.2.099-.07-.01-.126-.06-.166-.151a.064.064 0 0 1 .014-.081l.133-.124c.659-.6.875-1.018.65-1.252-.203-.21-.441-.23-.714-.059-.157.099-.374.31-.653.636l-.12.139c-.028.032-.059.035-.092.007l-.154-.128c-.038-.033-.04-.067-.006-.104l1.218-1.283c.02-.021.044-.025.07-.012.138.07.171.169.1.296-.025.044-.012.068.039.072zm-36.786.557a.23.23 0 1 0 0-.46.23.23 0 0 0 0 .46zm1.928 1.412-1.242-1.203a.08.08 0 0 0-.113.002l-.122.126a.08.08 0 0 0 .002.113l1.241 1.203a.08.08 0 0 0 .114-.002l.122-.125a.08.08 0 0 0-.002-.114zm36.238-.249c.077-.065.077-.129-.002-.192l-.148-.119c-.041-.033-.044-.068-.006-.105l.104-.105c.043-.041.083-.04.123.004l.169.192c.027.031.057.034.088.007l.304-.255c.033-.026.064-.025.093.005l.146.144c.032.033.03.064-.003.093l-.312.276c-.03.028-.032.057-.004.088l.277.3c.027.03.026.06-.002.089l-.112.112c-.028.028-.055.028-.083 0l-.3-.31c-.03-.032-.06-.034-.092-.004l-.767.699c-.088.08-.1.171-.038.273a.43.43 0 0 0 .19.163c.093.043.11.106.05.19-.058.085-.135.106-.228.063-.624-.284-.483-.786.425-1.506l.128-.102zm-37.69 1.143-.657-1.19a.096.096 0 0 1 .008-.111l.133-.178c.035-.045.065-.042.092.008l.853 1.616a.228.228 0 0 1-.03.275.228.228 0 0 1-.268.075l-1.74-.584c-.058-.02-.065-.051-.022-.095l.172-.178a.084.084 0 0 1 .093-.022l1.312.448c.073.025.09.004.053-.064zm38.978.09a.76.76 0 0 1 .59.345c.03.043.022.078-.022.105l-.19.113c-.03.019-.054.012-.072-.02-.153-.279-.376-.359-.668-.24-.169.069-.419.246-.75.534l-.161.139c-.032.027-.063.025-.092-.007l-.134-.148c-.035-.037-.031-.073.01-.105l1.377-1.09c.039-.03.072-.025.1.015l.087.131c.022.033.018.063-.012.089l-.084.074c-.045.038-.038.06.02.065zm-41.086.703a.705.705 0 0 1 .177-.63c.03-.035.065-.038.101-.008l.153.123c.043.034.044.07.003.107-.374.349-.112.803.786 1.36l.061.039c.035.021.041.05.018.084l-.116.18c-.024.037-.054.042-.089.016l-1.44-1.045c-.05-.035-.05-.072-.005-.11l.148-.126c.02-.018.04-.018.062-.002l.074.055c.058.042.08.028.067-.043z"/><path fill="#656973" fill-rule="evenodd" d="M51.154 16.2a.967.967 0 0 0 .293-.71.966.966 0 0 0-.293-.71.966.966 0 0 0-.71-.293.966.966 0 0 0-.709.294.966.966 0 0 0-.294.71c0 .277.098.513.294.709a.966.966 0 0 0 .71.293.967.967 0 0 0 .709-.293zm-.147-1.09c.201.296.112.707-.199.918-.31.212-.726.143-.927-.153-.202-.296-.112-.707.199-.919.31-.211.726-.142.927.154zm-42.23 1.458c-.169.167-.39.213-.662.138-.044-.013-.054-.039-.03-.078l.717-1.15c.026-.043.019-.08-.024-.108-.409-.272-.77-.288-1.087-.049-.253.192-.388.423-.406.695-.016.243.06.47.227.68.166.207.37.336.614.386a.907.907 0 0 0 .755-.185c.33-.25.458-.617.385-1.103-.01-.06-.042-.078-.098-.056l-.176.07c-.04.017-.056.046-.048.088.056.282 0 .506-.167.672zm-.968-.06c.01.006.016.005.022-.004l.59-.943c.006-.01.004-.017-.005-.022l-.004-.004c-.276-.171-.513-.098-.712.219l-.011.018c-.199.317-.16.562.116.734l.004.003z" clip-rule="evenodd"/><path fill="#656973" d="m53.062 15.894-2.5 1.42a.08.08 0 0 0-.03.11l.085.149a.08.08 0 0 0 .109.03l2.5-1.42a.08.08 0 0 0 .03-.11l-.084-.149a.08.08 0 0 0-.11-.03zM7.724 18.065c-.105-.236-.241-.33-.411-.283-.103.03-.275.147-.514.353-.277.24-.49.385-.639.438-.252.09-.482.025-.69-.196-.241-.257-.303-.56-.185-.906.109-.322.32-.567.633-.737.054-.03.092-.015.111.043l.083.241c.003.01 0 .016-.008.021-.454.267-.61.577-.466.93.055.136.146.219.271.248.136.032.269-.014.4-.14a27.3 27.3 0 0 1 .504-.47c.273-.25.562-.288.865-.115.298.17.439.435.423.795-.02.499-.29.855-.81 1.07-.041.016-.068.003-.08-.04l-.065-.225c-.015-.05.002-.084.05-.102a.925.925 0 0 0 .454-.367c.127-.195.152-.38.074-.558z"/><path fill="#F2F7F7" d="M26.95 24.113c.65.493 1.395.685 2.233.576a3.225 3.225 0 0 0 2.05-1.076c.03-.034.064-.038.101-.011l.633.46c.035.025.04.055.012.088a3.765 3.765 0 0 1-1.709 1.199 4.308 4.308 0 0 1-2.047.209 4.017 4.017 0 0 1-1.893-.753 3.48 3.48 0 0 1-1.241-1.68c-.3-.852-.286-1.68.039-2.485a3.539 3.539 0 0 1 1.286-1.61 4.01 4.01 0 0 1 1.878-.692 4.263 4.263 0 0 1 2.007.248c.676.257 1.232.66 1.669 1.21.036.045.031.086-.016.121l-.622.464c-.029.022-.055.02-.079-.006-.583-.63-1.24-1.007-1.969-1.13-.741-.124-1.46.033-2.157.47-.805.506-1.221 1.227-1.25 2.163-.027.926.33 1.67 1.075 2.235zm-3.253-5.666H22.8a.027.027 0 0 0-.027.028v6.937c0 .015.012.027.027.027h.896a.027.027 0 0 0 .027-.027v-6.937a.027.027 0 0 0-.027-.028z"/><path fill="#656973" fill-rule="evenodd" d="m52.87 19.257.11.27a.091.091 0 0 1-.01.095l-.803 1.096a.1.1 0 0 0-.013.1l.11.274c.02.051.046.054.078.01l.79-1.091c.042-.057.082-.057.121 0 .277.397.629.463 1.054.196.394-.248.38-.824-.045-1.73a9.913 9.913 0 0 1-.07-.153c-.02-.044-.051-.057-.095-.038l-2.492 1.035c-.039.017-.05.046-.035.086l.079.201c.016.041.044.053.084.036l1.047-.424c.042-.018.072-.005.09.037zm1.154-.48c-.018-.046-.05-.059-.095-.04l-.71.293c-.045.018-.058.05-.04.095l.173.418c.154.374.355.51.604.407l.099-.041c.249-.102.296-.34.141-.715l-.172-.418z" clip-rule="evenodd"/><path fill="#F2F7F7" fill-rule="evenodd" d="m33.263 18.51.005 6.874c0 .035.018.052.053.052l.81.01c.064 0 .096-.032.096-.095v-2.975c0-.05.025-.075.076-.074h.019c1.016.023 1.748-.022 2.197-.137.77-.197 1.238-.623 1.402-1.28.166-.659.056-1.217-.328-1.676-.374-.446-.906-.686-1.596-.718a35.482 35.482 0 0 0-2.678-.038c-.037 0-.056.02-.056.056zm1.015.837c-.043 0-.064.021-.064.064l.01 1.938c0 .043.022.064.065.064l1.451-.008c.349-.001.647-.099.893-.291.246-.192.368-.424.366-.694v-.11c-.001-.27-.126-.5-.375-.69a1.421 1.421 0 0 0-.895-.282l-1.451.009zm-17.151 3.875h2.899c.016 0 .028.008.035.023l1.105 2.172c.007.015.02.022.035.022h.953c.043 0 .054-.02.035-.058l-3.564-7.227c-.024-.049-.048-.05-.072-.002l-3.614 7.229c-.02.039-.008.058.035.058h.992a.038.038 0 0 0 .036-.022l1.089-2.172a.038.038 0 0 1 .036-.023zm1.43-2.876-.972 1.925c-.018.034-.007.052.032.052l1.93.007c.038 0 .049-.018.03-.053l-.957-1.93c-.02-.044-.042-.044-.064 0zm20.482 2.876h2.911c.015 0 .025.007.032.02l1.108 2.177c.006.013.017.02.032.02h.964c.038 0 .05-.018.032-.052l-3.57-7.23c-.02-.044-.042-.044-.064 0l-3.63 7.23c-.018.034-.007.052.032.052h1a.033.033 0 0 0 .03-.02l1.091-2.177a.033.033 0 0 1 .032-.02zm1.432-2.88-.967 1.934c-.018.034-.007.051.032.051l1.942-.003c.038 0 .049-.017.031-.053l-.974-1.928c-.021-.043-.042-.043-.064 0z" clip-rule="evenodd"/><path fill="#656973" fill-rule="evenodd" d="m6.18 23.052-.487-.409a.08.08 0 0 1-.026-.09l.395-1.227a.073.073 0 0 1 .066-.055l.64-.063a.08.08 0 0 0 .074-.061l.077-.264c.012-.04-.003-.058-.044-.054l-2.863.268c-.202.018-.274.125-.214.32.015.052.06.11.133.172.709.604 1.412 1.216 2.109 1.837.037.033.064.026.08-.022l.088-.248a.087.087 0 0 0-.028-.104zM4.327 21.47l1.007.866c.025.022.043.017.054-.014l.318-.973c.01-.032-.001-.047-.035-.044l-1.325.105c-.053.005-.06.025-.019.06zm48.608.754c-.028-.285.085-.467.339-.546.034-.01.057.002.067.036l.395 1.297c.01.036.034.05.07.043.29-.06.506-.197.648-.408.146-.22.177-.47.093-.75a.906.906 0 0 0-.455-.57 1 1 0 0 0-.67-.088.999.999 0 0 0-.59.338.925.925 0 0 0-.214.706c.029.341.203.615.523.821.075.049.134.034.178-.045.058-.106.047-.183-.03-.232-.21-.132-.328-.332-.354-.602zm.671-.652c-.002.001-.002.002-.002.005l.325 1.068c.001.002.003.003.005.002l.004-.001c.31-.095.413-.315.307-.663l-.01-.032c-.106-.347-.314-.474-.623-.38l-.006.001zM5.781 24.915l-1.132-.242c-.039-.007-.055-.03-.049-.07.009-.051.023-.13.044-.235.126-.624.037-1.03-.266-1.22-.25-.157-.496-.177-.738-.061-.237.113-.39.316-.462.609-.074.306-.138.617-.19.933-.008.039.008.062.047.07l2.646.554c.038.008.062-.007.073-.043l.068-.224c.012-.039-.001-.062-.04-.07zm-2.396-.607c-.014.068.013.11.08.123l.689.147c.068.014.11-.013.123-.081l.1-.467c.073-.347-.032-.552-.316-.612l-.04-.007c-.284-.06-.463.083-.537.43l-.099.467zm48.931.012 1.012-.202c.045-.009.057.008.037.048-.22.46-.176.853.13 1.18.306.327.686.386 1.142.177.332-.153.516-.402.55-.746.034-.338-.084-.635-.353-.89-.029-.027-.024-.046.013-.056.128-.037.165-.13.111-.278-.02-.056-.06-.078-.118-.066l-2.587.507c-.04.008-.056.032-.049.071l.038.204c.008.041.033.058.074.05zm2.547.169c.068.351-.175.693-.541.764-.367.07-.72-.157-.787-.508-.068-.352.175-.694.542-.765.366-.07.719.157.787.509z" clip-rule="evenodd"/><path fill="#656973" d="M5.279 25.79c.27.301.382.661.335 1.08a1.446 1.446 0 0 1-.542 1.002 1.354 1.354 0 0 1-1.093.307 1.59 1.59 0 0 1-.948-.51c-.27-.288-.408-.608-.413-.962-.006-.395.165-.747.512-1.054.038-.034.07-.03.096.015l.134.233c.015.026.01.049-.014.067-.332.257-.446.591-.34 1.003.093.37.312.616.654.738.306.11.625.1.956-.03.337-.133.555-.34.653-.624.112-.326.026-.674-.258-1.047-.028-.035-.024-.066.011-.093l.172-.132c.03-.024.059-.022.085.007z"/><path fill="#656973" fill-rule="evenodd" d="M55.268 27.85a.969.969 0 0 0 .295-.712.97.97 0 0 0-.295-.711.97.97 0 0 0-.711-.295.97.97 0 0 0-.712.295.97.97 0 0 0-.294.711.97.97 0 0 0 .294.711.97.97 0 0 0 .712.295.969.969 0 0 0 .711-.294zm-.033-.779c.035.358-.24.677-.616.714-.375.037-.708-.223-.743-.58-.035-.358.24-.677.616-.714.376-.037.708.223.743.58z" clip-rule="evenodd"/><path fill="#656973" d="M55.413 29.138a.811.811 0 0 1 .24.586c0 .06-.03.09-.09.09h-.187c-.05 0-.073-.025-.066-.075.035-.31-.097-.511-.398-.602-.173-.051-.463-.069-.872-.053a5.997 5.997 0 0 1-.274.007c-.05 0-.073-.027-.068-.077l.017-.18c.004-.044.028-.066.071-.066l1.69-.015c.144 0 .185.064.124.194a.22.22 0 0 1-.166.125c-.048.009-.055.031-.021.066zM5.38 28.901l-2.757-.043a.033.033 0 0 0-.033.032l-.004.283c0 .018.014.033.032.034l2.756.043a.033.033 0 0 0 .034-.032l.004-.283a.033.033 0 0 0-.032-.034zm49.829 1.912a3.71 3.71 0 0 1-.165-.016c-.88-.099-1.245.04-1.095.414.028.07.005.103-.07.102l-.142-.003c-.046-.002-.075-.024-.087-.069-.114-.42 0-.678.343-.771.194-.054.537-.051 1.027.008.09.011.156.02.196.023.037.005.058-.012.063-.05l.038-.29c.006-.041.03-.062.071-.062h.115c.068 0 .098.034.092.102l-.024.244c-.004.038.013.058.05.06l.43.036c.046.005.066.03.058.076l-.035.188c-.007.043-.032.063-.075.06l-.373-.02c-.044-.003-.067.017-.07.06l-.02.414c-.002.038-.022.057-.06.057h-.14c-.055 0-.081-.027-.08-.082l.012-.417c0-.04-.02-.062-.06-.064z"/><path fill="#656973" fill-rule="evenodd" d="m5.486 32.059-.613-.219a.079.079 0 0 1-.056-.075l-.086-1.278a.075.075 0 0 1 .047-.078l.557-.265a.077.077 0 0 0 .049-.076v-.302c0-.057-.026-.072-.076-.046l-2.59 1.315a.213.213 0 0 0-.125.22c.006.1.057.167.152.201l2.734.987c.042.016.063 0 .063-.044v-.262a.076.076 0 0 0-.056-.078zm-2.304-.799 1.249.429c.034.011.05 0 .047-.036L4.42 30.65c-.002-.036-.02-.046-.052-.03l-1.19.574c-.051.025-.05.047.005.066z" clip-rule="evenodd"/><path fill="#656973" d="M54.066 31.88c-.273.196-.345.423-.214.68.049.097.113.154.19.17.084.018.152-.023.204-.122a3.82 3.82 0 0 0 .219-.498c.082-.23.212-.351.39-.361.158-.01.305.064.439.22.137.16.199.341.185.54-.016.233-.14.43-.37.596-.039.028-.07.021-.093-.02l-.102-.174c-.02-.037-.014-.067.02-.092.235-.165.286-.377.154-.635a.161.161 0 0 0-.16-.094.16.16 0 0 0-.154.106 4.8 4.8 0 0 0-.061.16c-.14.38-.271.598-.392.655-.425.204-.686.084-.783-.36-.094-.438.013-.79.322-1.06.032-.027.062-.024.088.01l.134.18c.028.039.023.071-.016.099z"/><path fill="#F2F7F7" d="M42.566 39.004h3.252c.043 0 .065.021.065.065l.01 1.2c0 .036-.017.054-.053.054h-5.518c-.035 0-.053-.018-.053-.053v-.846c0-.044.017-.08.049-.11a56.442 56.442 0 0 0 2.592-2.498c.482-.494.826-.982 1.034-1.466.29-.674.25-1.234-.115-1.681-.327-.4-.806-.55-1.437-.454a2.957 2.957 0 0 0-1.44.635c-.042.034-.073.026-.094-.024l-.419-1.01c-.016-.039-.007-.07.028-.095a4.338 4.338 0 0 1 2.516-.809c1.047-.014 1.81.338 2.289 1.057.662.994.589 2.118-.22 3.37-.492.762-1.327 1.635-2.504 2.617-.037.032-.03.047.018.047zm-28.247-3.023c-.452-.36-.684-.864-.698-1.514-.013-.622.169-1.141.546-1.559.545-.604 1.303-.911 2.272-.923.936-.012 1.716.245 2.34.772.034.029.035.059.005.091l-.95 1.008c-.023.025-.047.025-.07.001-.562-.55-1.201-.713-1.918-.486-.508.16-.753.459-.732.894.02.431.281.735.785.913l.447.153c.866.292 1.453.558 1.762.8.508.397.758.962.75 1.696-.007.672-.226 1.226-.656 1.662-.386.39-.894.646-1.525.764a3.84 3.84 0 0 1-1.799-.089c-.62-.178-1.112-.477-1.477-.896-.024-.027-.023-.053.003-.078l.995-.967c.025-.024.048-.022.07.005.568.73 1.287.957 2.159.684.327-.102.552-.312.676-.63a.87.87 0 0 0-.122-.9c-.112-.145-.316-.28-.613-.407a11.884 11.884 0 0 0-.716-.264c-.722-.246-1.233-.49-1.534-.73zm19.384 4.287c-1.31.16-2.4-.137-3.269-.889-.78-.674-1.241-1.565-1.385-2.672-.142-1.1.07-2.084.639-2.95.627-.958 1.56-1.532 2.798-1.723 1.472-.228 2.627.168 3.463 1.187.02.023.017.043-.007.06l-1.017.746c-.037.026-.07.023-.102-.01-.657-.709-1.472-.911-2.447-.608-.67.21-1.172.62-1.504 1.233-.306.563-.418 1.185-.337 1.866.083.686.342 1.26.778 1.719.482.506 1.095.77 1.84.791.61.018 1.212-.29 1.806-.924.025-.026.052-.029.08-.008l1.089.78c.032.024.036.051.011.084-.591.753-1.404 1.193-2.436 1.318z"/><path fill="#F2F7F7" fill-rule="evenodd" d="M26.583 39.5c.93-.674 1.462-1.628 1.598-2.861.15-1.37-.18-2.49-.989-3.36-.723-.777-1.664-1.21-2.823-1.3-1.152-.09-2.155.186-3.009.827-.946.711-1.46 1.72-1.54 3.024-.081 1.33.278 2.41 1.08 3.238.718.742 1.636 1.153 2.755 1.233 1.11.08 2.085-.187 2.928-.8zm-2.58-.467c-1.506 0-2.727-1.295-2.727-2.892 0-1.596 1.22-2.89 2.727-2.89s2.728 1.294 2.728 2.89c0 1.597-1.221 2.892-2.728 2.892z" clip-rule="evenodd"/><path fill="#F2F7F7" d="M14.559 54.485a29.652 29.652 0 0 1-7.95-7.058c-2.266-2.886-3.902-6.045-4.91-9.475-.01-.033.002-.055.037-.065l6.84-1.977c.044-.013.073.002.087.045a22.286 22.286 0 0 0 3.833 7.134 21.787 21.787 0 0 0 5.9 5.14 21.58 21.58 0 0 0 7.332 2.73 21.93 21.93 0 0 0 8.13-.09c3.894-.77 7.327-2.488 10.297-5.156 2.944-2.646 5.031-5.858 6.261-9.637.012-.038.037-.05.074-.04l6.833 2.05c.033.01.044.03.034.063-1.833 5.772-5.08 10.511-9.74 14.217a28.586 28.586 0 0 1-7.684 4.366 29.197 29.197 0 0 1-8.511 1.85 29.009 29.009 0 0 1-8.678-.73 28.162 28.162 0 0 1-8.185-3.367z"/><path fill="#656973" d="m9.942 43.598-.548.387c-.022.015-.025.033-.01.054l.713 1.042c.014.022.01.04-.011.055l-.34.226c-.022.014-.04.01-.055-.01l-.72-1.04c-.014-.022-.032-.026-.054-.011l-.938.657c-.021.015-.039.012-.054-.01l-.275-.398c-.015-.021-.012-.039.01-.054l2.368-1.638c.022-.015.04-.011.055.01l1.08 1.573c.015.021.012.04-.009.054l-.332.233c-.021.015-.04.012-.054-.01l-.772-1.11c-.015-.021-.032-.025-.054-.01zM49.67 45a.517.517 0 0 1-.448-.117.512.512 0 0 1-.195-.423c.01-.523.27-.87.778-1.044.046-.016.071 0 .077.048l.04.367c.004.03-.01.047-.038.053a.487.487 0 0 0-.414.446.133.133 0 0 0 .076.148c.06.03.114.023.164-.022.023-.02.06-.055.11-.103.42-.4.756-.525 1.008-.373.333.2.398.5.195.899-.183.358-.438.6-.765.726-.038.015-.06.002-.068-.037l-.066-.328c-.014-.065.012-.105.076-.122a.724.724 0 0 0 .35-.209c.12-.124.153-.245.1-.362-.031-.066-.087-.104-.167-.113a.117.117 0 0 0-.099.03l-.112.105c-.276.263-.477.406-.601.431zm-2.312 1.649a.833.833 0 0 1 .434-.795c.069-.04.106-.1.112-.18a.218.218 0 0 0-.082-.195l-.24-.202c-.032-.026-.036-.055-.01-.087l.245-.316c.026-.034.057-.037.09-.01l.324.252c.055.044.105.038.148-.018l.25-.324c.023-.03.049-.034.079-.01l.255.211c.029.025.032.052.008.082l-.265.335c-.032.041-.027.077.014.11l.75.575a.1.1 0 0 0 .121.007.643.643 0 0 0 .28-.324c.016-.04.04-.046.074-.02l.237.19c.027.023.035.05.022.082-.19.464-.438.668-.746.613-.182-.032-.456-.2-.823-.501a6.8 6.8 0 0 0-.266-.212c-.027-.02-.05-.017-.071.008l-.516.63c-.17.208-.157.403.04.584l.779.717c.032.029.033.06.004.092l-.26.292c-.034.037-.07.04-.106.006l-1.379-1.247c-.035-.032-.037-.065-.006-.1l.264-.298c.03-.035.063-.035.096-.002l.082.081c.044.044.065.036.063-.026z"/><path fill="#656973" fill-rule="evenodd" d="M10.453 47.775c.3.037.563-.039.786-.227a.985.985 0 0 0 .357-.736 1.135 1.135 0 0 0-.28-.813 1.134 1.134 0 0 0-.755-.415.984.984 0 0 0-.786.227.985.985 0 0 0-.357.735c-.015.303.079.574.28.814.203.24.454.379.755.415zm.638-1.096a.585.585 0 1 1-1.17 0 .585.585 0 0 1 1.17 0z" clip-rule="evenodd"/><path fill="#656973" d="M12.5 47.653c-.04.04-.031.056.025.048a.673.673 0 0 1 .682.298c.022.032.02.061-.008.089l-.275.276c-.033.033-.062.03-.085-.011-.185-.316-.421-.399-.71-.248-.164.086-.388.29-.673.61a4.41 4.41 0 0 1-.171.189c-.026.026-.052.026-.078 0l-.302-.302c-.031-.031-.031-.062 0-.093l1.332-1.331c.03-.03.06-.03.09 0l.27.276c.035.034.035.068 0 .1l-.096.099z"/><path fill="#656973" fill-rule="evenodd" d="M47.52 48.737a.982.982 0 0 0-.25-.779.985.985 0 0 0-.747-.334 1.134 1.134 0 0 0-.805.306 1.14 1.14 0 0 0-.39.767.983.983 0 0 0 .25.778.984.984 0 0 0 .747.334c.303.006.571-.096.805-.306a1.14 1.14 0 0 0 .39-.766zm-.51-.022a.586.586 0 1 1-1.17 0 .586.586 0 0 1 1.17 0z" clip-rule="evenodd"/><path fill="#656973" d="M13.703 48.759c.22-.046.429.012.624.173.197.163.293.36.287.588 0 .035.016.05.05.044.351-.058.63.043.835.303.212.268.213.556.004.865a18.24 18.24 0 0 1-.797 1.038c-.018.022-.039.024-.061.007l-.346-.265c-.027-.021-.03-.046-.009-.073l.668-.856c.181-.232.177-.428-.012-.586-.19-.158-.377-.145-.562.04-.134.134-.374.434-.72.9-.024.032-.053.037-.086.012l-.33-.251c-.033-.025-.037-.055-.011-.088l.771-1.013a.15.15 0 0 0 .032-.109c-.019-.223-.13-.353-.33-.391-.198-.038-.36.03-.49.201-.205.275-.413.548-.623.82-.025.031-.052.035-.083.01l-.316-.253c-.04-.032-.044-.068-.013-.108l1.136-1.457c.032-.04.068-.045.109-.014l.287.221c.03.023.035.05.016.082l-.064.112c-.024.042-.012.058.034.048z"/><path fill="#656973" fill-rule="evenodd" d="M44.135 49.321c-.284.118-.482.33-.592.636-.021.057-.06.073-.114.047l-.066-.032a.08.08 0 0 0-.087.008l-.279.198c-.038.028-.043.06-.015.098l1.676 2.267c.028.038.06.043.099.014l.308-.227c.04-.029.047-.065.017-.106l-.593-.817c-.04-.056-.026-.082.042-.078.556.03.889-.227.998-.772.11-.54-.068-.935-.534-1.185a.959.959 0 0 0-.86-.05zm.887 1.047a.588.588 0 1 1-1.176 0 .588.588 0 0 1 1.176 0zM16 51.74a.117.117 0 0 1 .14-.01l1.152.677c.035.02.064.015.087-.017.378-.526.353-.992-.074-1.397-.424-.402-.88-.434-1.367-.096a.962.962 0 0 0-.436.727c-.029.296.06.567.264.813.286.343.69.476 1.215.397.057-.009.074-.039.05-.09l-.136-.305c-.019-.041-.05-.058-.096-.05-.45.073-.732-.1-.845-.517a.115.115 0 0 1 .045-.133zm.253-.435c-.005.01-.004.017.006.022l.827.492c.01.006.016.004.021-.005l.004-.007c.142-.237.076-.436-.198-.599l-.034-.02c-.274-.163-.48-.127-.622.11l-.004.007zm25.737.977a.112.112 0 0 1 .058-.122l1.155-.695c.033-.02.041-.047.026-.082a1.098 1.098 0 0 0-.568-.592.898.898 0 0 0-.805.04c-.308.16-.506.383-.593.67-.08.261-.057.517.067.77a.993.993 0 0 0 .569.518c.284.102.588.075.912-.082.307-.147.508-.404.604-.77.009-.034-.005-.054-.041-.057l-.36-.04c-.039-.004-.064.013-.076.051-.134.425-.419.588-.855.49a.11.11 0 0 1-.092-.1zm-.267-.425c.006.01.015.013.027.006l.834-.485c.011-.007.013-.016.006-.027l-.004-.008c-.139-.239-.35-.276-.633-.111l-.018.011c-.284.165-.356.367-.217.606l.005.008z" clip-rule="evenodd"/><path fill="#656973" d="m20.665 51.41-.398-.166a.05.05 0 0 0-.066.028l-1.179 2.818a.05.05 0 0 0 .027.066l.398.166a.05.05 0 0 0 .066-.027l1.179-2.818a.05.05 0 0 0-.027-.066z"/><path fill="#656973" fill-rule="evenodd" d="m39.98 54.049-.462-1.011c-.02-.044-.008-.076.035-.097l.23-.11a.092.092 0 0 1 .1.01l1.069.77c.028.02.058.023.09.008l.488-.228c.046-.02.048-.045.006-.072l-1.137-.753c-.035-.023-.037-.05-.007-.078.361-.334.428-.692.199-1.076-.23-.383-.575-.492-1.036-.327a11.41 11.41 0 0 0-1.242.547c-.03.015-.038.037-.024.067l1.178 2.57c.017.037.043.047.08.031l.401-.17c.038-.016.049-.043.032-.081zm-.942-2.237c-.047.021-.06.055-.038.101l.26.562c.02.046.054.058.1.037l.416-.192c.318-.147.43-.324.335-.53l-.038-.082c-.095-.206-.302-.235-.62-.088l-.416.192z" clip-rule="evenodd"/><path fill="#656973" d="M18.75 52.022a.7.7 0 0 1 .71.089c.035.025.043.057.023.096l-.165.324c-.024.048-.057.055-.099.022-.285-.224-.54-.22-.763.015-.127.134-.272.396-.434.787l-.085.199c-.02.041-.05.053-.092.034l-.373-.172c-.036-.017-.046-.044-.028-.08l.825-1.695c.018-.036.045-.046.082-.03l.371.173c.037.017.048.044.032.082l-.049.112c-.021.05-.006.065.045.044zm2.421 2.182.859-1.023c.023-.03.053-.037.09-.025l.396.14c.043.015.05.04.02.075-.528.619-1.06 1.233-1.598 1.844-.434.494-.876.556-1.327.188-.025-.02-.03-.045-.013-.073l.153-.275c.019-.033.045-.04.078-.02.222.124.416.134.582.029.165-.105.239-.279.222-.523a97.112 97.112 0 0 0-.149-1.865c-.005-.056.02-.074.072-.055l.422.148c.033.012.05.035.053.07l.076 1.344c.004.062.025.069.064.021zm12.794-.804-1.308.227c-.05.01-.079-.011-.087-.062l-.057-.323c-.01-.051.012-.081.063-.09l1.916-.339c.028-.005.046.007.055.035.064.223.082.385.054.485-.239.841-.48 1.682-.725 2.521a.09.09 0 0 1-.074.067l-.492.093c-.045.008-.06-.01-.047-.053l.756-2.503c.014-.048-.004-.068-.054-.059zm-9.451.172c-.055.158.103.347.473.568.439.261.667.51.686.743.047.61-.223.944-.81 1-.558.054-1.009-.128-1.352-.546-.025-.03-.021-.055.01-.075l.377-.248c.037-.024.068-.019.094.017.132.183.288.3.469.352a.558.558 0 0 0 .54-.12c.164-.136.168-.278.01-.424a2.625 2.625 0 0 0-.416-.281c-.33-.192-.53-.355-.6-.491a.785.785 0 0 1-.032-.69.777.777 0 0 1 .498-.47c.556-.182 1.058-.053 1.507.385.024.023.022.045-.005.066l-.38.28c-.031.023-.058.019-.081-.011a.81.81 0 0 0-.514-.296c-.246-.045-.404.035-.474.24z"/><path fill="#656973" fill-rule="evenodd" d="M36.657 55.346c.509-.147.76-.493.755-1.037a2.883 2.883 0 0 0-.213-1.071c-.166-.405-.395-.668-.688-.789-.275-.114-.565-.101-.87.037-.315.145-.497.366-.545.663-.09.567.03 1.132.364 1.695.287.483.686.65 1.197.502zm-.133-.462c-.308.087-.684-.294-.84-.85-.157-.555-.034-1.075.275-1.162.308-.087.684.294.84.85.156.555.033 1.075-.275 1.162z" clip-rule="evenodd"/><path fill="#656973" d="M30.596 55.406c-.033-.17-.238-.31-.617-.417-.51-.144-.785-.374-.823-.69-.063-.512.151-.84.642-.985a1.53 1.53 0 0 1 1.267.157c.054.032.058.07.015.115l-.308.317c-.027.028-.056.03-.086.005-.307-.248-.59-.26-.85-.036-.1.087-.144.18-.133.28.013.11.095.191.248.244l.199.065c.66.209 1.005.477 1.036.805.052.551-.193.894-.735 1.028-.509.124-.957.03-1.345-.284-.029-.023-.03-.048-.004-.074l.34-.338c.026-.026.052-.026.078.001.165.178.395.255.69.234.308-.023.437-.165.386-.427z"/><path fill="#656973" fill-rule="evenodd" d="m26.436 56.059.27-.54a.077.077 0 0 1 .08-.045l1.203.097c.03.003.049.018.059.046l.203.607a.073.073 0 0 0 .07.054l.496.029c.056.002.074-.023.055-.075l-.993-2.793a.32.32 0 0 0-.297-.228.32.32 0 0 0-.329.177L25.81 56.01c-.02.037-.01.057.033.06l.509.037a.081.081 0 0 0 .084-.048zm1.037-2.07-.474.989c-.014.028-.005.044.027.047l.79.06c.033.003.044-.01.035-.041l-.317-1.05c-.017-.054-.037-.055-.061-.005z" clip-rule="evenodd"/></svg>