<svg version="1.1" id="Layer_1" xmlns:x="ns_extend;" xmlns:i="ns_ai;" xmlns:graph="ns_graphs;" xmlns="http://www.w3.org/2000/svg" xmlns:xlink="http://www.w3.org/1999/xlink" x="0px" y="0px" viewBox="0 0 531.8 123" style="enable-background:new 0 0 531.8 123;" xml:space="preserve">
 <style type="text/css">
  .st0{fill-rule:evenodd;clip-rule:evenodd;fill:#000000;}
	.st1{fill-rule:evenodd;clip-rule:evenodd;fill:#000000;}
 </style>
 <metadata>
  <sfw xmlns="ns_sfw;">
   <slices>
   </slices>
   <sliceSourceBounds bottomLeftOrigin="true" height="123" width="531.8" x="-438.8" y="102.7">
   </sliceSourceBounds>
  </sfw>
 </metadata>
 <path class="st0" d="M109.7,77.5l-19.4-16l19.4-16l6,7.3l-10.5,8.7l10.5,8.7L109.7,77.5z M102.4,95.5L78.8,76.6H59.3v38.5h-9.5v-48
	h32.4l26.1,20.9L102.4,95.5z M88.4,108.2l-10.6-8.7v13.3l-9.5,2.4V85.7l7.8,0l20.2,16.6L88.4,108.2z M40.5,100.2l-9.5,8.3V15.4
	l9.5,8.3V100.2z M22,88.8l-9.5-8.1V44.6l9.5-8.7V88.8z M49.8,7.9h9.5v38.5h19.6l23.5-18.8l5.9,7.4L82.2,55.9H49.8V7.9z M68.3,9.2
	l9.5,2.4v13.3l10.6-8.7l7.9,5.8L76.1,38.6l-7.8,0V9.2z M61.3,0C27.5,0,0,27.5,0,61.5c0,34,27.5,61.5,61.3,61.5
	c33.9,0,61.3-27.5,61.3-61.5C122.7,27.5,95.2,0,61.3,0L61.3,0z M61.3,0">
 </path>
 <path class="st1" d="M229.8,65.1h26.6l5.3-8.9h-32V43.8h31.8l5.3-9h-47.6v53.4H268v-9h-38.2V65.1 M290.4,65.1h26.6l5.3-8.9h-32V43.8
	h31.9l5.3-9H280v53.4h48.7v-9h-38.2V65.1 M415.8,65.1h26.6l5.3-8.9h-32V43.8h31.8l5.3-9h-47.6v53.4H454v-9h-38.2V65.1 M207.9,34.8
	h-13.8l-26.6,26.7l26.6,26.7h13.8c-8.9-8.9-17.8-17.8-26.6-26.7L207.9,34.8 M153.2,88.2h10.4V34.8h-10.4V88.2z M504.9,66.5
	c7.8-0.4,14.9-5.9,14.9-15.7c0-13.1-9.1-15.9-21.7-15.9h-32v53.4h10.4V43.5h20.1c8.5,0,12.8,1.2,12.8,7.5c0,6.3-4.3,7.6-12.8,7.6
	h-10.8l-5.1,8.7h12.3l15.5,21h12.8L504.9,66.5 M370.4,34.8h-29.7v53.4h10.4V43.8h21.5c5.9,0,11.1,0.5,11.1,7.3
	c0,6.9-5.2,7.4-11.1,7.4h-12.3l-5.3,9h15.3c9,0,23.8,0,23.8-16.3C394.2,34.8,379.4,34.8,370.4,34.8">
 </path>
 <path class="st0" d="M527.9,25.4l2,2.7h-1.1l-1.9-2.6h-1.1v2.6h-1.1v-6h2.6c0.8,0,1.4,0.1,1.8,0.4c0.4,0.3,0.6,0.7,0.6,1.3
	c0,0.5-0.2,0.9-0.5,1.2C528.8,25.2,528.4,25.4,527.9,25.4L527.9,25.4z M527.5,24.7c0.2,0,0.4-0.1,0.6-0.1c0.2-0.1,0.3-0.2,0.4-0.3
	c0.1-0.2,0.2-0.4,0.2-0.5c0-0.2,0-0.3-0.1-0.5c-0.1-0.1-0.2-0.2-0.3-0.3c-0.1-0.1-0.3-0.1-0.5-0.1c-0.2,0-0.3,0-0.5,0h-1.4v1.9h1.1
	C527.1,24.7,527.3,24.7,527.5,24.7L527.5,24.7z M527.5,24.7">
 </path>
 <path class="st0" d="M531.8,25c0,0.8-0.1,1.4-0.4,2.1c-0.3,0.6-0.6,1.2-1.1,1.6c-0.5,0.5-1,0.8-1.6,1.1c-0.6,0.2-1.3,0.4-2,0.4
	c-1.4,0-2.7-0.5-3.7-1.5c-1-1-1.5-2.3-1.5-3.7c0-1.4,0.5-2.7,1.5-3.6c1-1,2.3-1.5,3.7-1.5C529.5,19.9,531.8,22.2,531.8,25L531.8,25z
	 M530.9,25c0-0.6-0.1-1.2-0.3-1.7c-0.4-1-1.2-1.9-2.2-2.3c-0.5-0.2-1.1-0.3-1.7-0.3c-1.1,0-2.2,0.5-3,1.3c-0.4,0.4-0.7,0.8-0.9,1.4
	c-0.2,0.5-0.3,1.1-0.3,1.7c0,0.6,0.1,1.2,0.3,1.8c0.4,1.1,1.2,1.9,2.2,2.3c0.5,0.2,1.1,0.3,1.7,0.3c0.6,0,1.2-0.1,1.7-0.3
	c1-0.4,1.8-1.3,2.2-2.3C530.8,26.3,530.9,25.7,530.9,25L530.9,25z M530.9,25">
 </path>
</svg>