<svg version="1.1" id="Layer_1" xmlns:x="ns_extend;" xmlns:i="ns_ai;" xmlns:graph="ns_graphs;" xmlns="http://www.w3.org/2000/svg" xmlns:xlink="http://www.w3.org/1999/xlink" x="0px" y="0px" viewBox="0 0 314.4 100" style="enable-background:new 0 0 314.4 100;" xml:space="preserve" width="500" height="121">
 <style type="text/css">
  .st0{fill:#000000;}
 </style>
 <metadata>
  <sfw xmlns="ns_sfw;">
   <slices>
   </slices>
   <sliceSourceBounds bottomLeftOrigin="true" height="100" width="314.4" x="42.6" y="-250.2">
   </sliceSourceBounds>
  </sfw>
 </metadata>
 <g>
  <g>
   <path class="st0" d="M300,75h-8.8V0h8.8V75z M122.1,23.8c-8.6,0-13.9,5.5-14.8,12.5h-0.4V25h-8.8v50h8.8V43.9
			c0-8.4,4.5-12.3,12-12.3c8.6,0,12.5,4.3,12.5,12.7V75h8.8V43.2C140.2,31.2,133.4,23.8,122.1,23.8 M68.3,73.7H68L52.7,25h-9.1
			l16.2,50h8.1l-8.2,25h8.8l24.2-75h-9.1L68.3,73.7z M261.4,73.7h-0.3L245.8,25h-9.1l16.2,50h8.1l-8.2,25h8.8l24.2-75h-9.1
			L261.4,73.7z M18.3,50L40,25H29.3L9.1,49.1H8.8V0H0v75h8.8V50.5h8.4L34.1,75h10.2L26.8,50H18.3z M215.9,36.3h-0.4V25h-8.8v50h8.8
			V43.8c0-8.4,4.8-11.5,13-11.5c2.1,0,4,0.2,5.5,0.6v-8.5c-0.7-0.3-2.3-0.5-4.2-0.5C222,23.8,216.8,29,215.9,36.3 M186.5,0h8.8v75
			h-8.8V63.7h-0.4c-0.8,7-6.2,12.5-16.3,12.5c-12.4,0-21.2-9.8-21.2-26.2c0-16.3,8.8-26.2,21.2-26.2c10.1,0,15.5,5.5,16.3,12.5h0.4
			V0z M186.5,43.4c0-8.4-6.4-11.8-14.2-11.8c-8.3,0-14.5,5.2-14.5,18.4s6.2,18.4,14.5,18.4c7.9,0,14.2-3.4,14.2-11.8V43.4z
			 M303.9,69.7v0.6h1.6V75h0.8v-4.7h1.6v-0.6H303.9z M312.7,69.7l-1.3,5.2h0l-1.2-5.2h-1.4l-0.2,5.3h0.7l0.2-5.2h0l1.3,5.2h1.3
			l1.4-5.2h0l0.2,5.2h0.8l-0.2-5.3H312.7z">
   </path>
  </g>
 </g>
</svg>