<svg width="128" height="52" viewBox="0 0 128 52" fill="none" xmlns="http://www.w3.org/2000/svg">
<mask id="mask0_36_5" style="mask-type:luminance" maskUnits="userSpaceOnUse" x="10" y="12" width="109" height="27">
<path d="M10 12H118.03V39H10V12Z" fill="white"/>
</mask>
<g mask="url(#mask0_36_5)">
<path fill-rule="evenodd" clip-rule="evenodd" d="M13.4872 16.422C13.419 16.4977 13.3826 16.5968 13.3856 16.6987C13.3885 16.8006 13.4307 16.8974 13.5032 16.969L32.0312 35.497C32.1812 35.647 32.4212 35.656 32.5782 35.513C33.9727 34.2478 35.0866 32.7044 35.8483 30.9824C36.6099 29.2604 37.0023 27.3979 37.0002 25.515C37.0002 18.05 30.9502 12 23.4852 12C21.6023 11.9979 19.7398 12.3904 18.0178 13.152C16.2958 13.9136 14.7525 15.0275 13.4872 16.422ZM11.1702 19.938C11.1372 20.0118 11.1275 20.094 11.1423 20.1735C11.1571 20.253 11.1958 20.3261 11.2532 20.383L28.6162 37.746C28.6731 37.8035 28.7462 37.8423 28.8257 37.8571C28.9053 37.872 28.9874 37.8622 29.0612 37.829C29.4622 37.647 29.8532 37.446 30.2312 37.227C30.2834 37.1963 30.3278 37.1541 30.3609 37.1035C30.3941 37.0529 30.4152 36.9953 30.4225 36.9353C30.4299 36.8752 30.4233 36.8143 30.4033 36.7572C30.3833 36.7001 30.3504 36.6484 30.3072 36.606L12.3942 18.69C12.3519 18.6468 12.3002 18.6139 12.2431 18.5939C12.186 18.5739 12.125 18.5673 12.065 18.5747C12.0049 18.582 11.9474 18.6031 11.8968 18.6363C11.8462 18.6695 11.8039 18.7139 11.7732 18.766C11.5542 19.146 11.3532 19.536 11.1712 19.937L11.1702 19.938ZM10.1182 24.91C10.0777 24.87 10.0463 24.8219 10.0259 24.7688C10.0056 24.7157 9.99681 24.6588 10.0002 24.602C10.0362 24.064 10.1032 23.536 10.2002 23.017C10.2137 22.9472 10.2461 22.8824 10.294 22.8297C10.3418 22.777 10.4032 22.7386 10.4714 22.7184C10.5396 22.6983 10.6121 22.6973 10.6808 22.7156C10.7496 22.7338 10.812 22.7707 10.8612 22.822L26.1762 38.138C26.2276 38.1872 26.2644 38.2495 26.2827 38.3182C26.3011 38.3869 26.3002 38.4593 26.2801 38.5275C26.2601 38.5957 26.2218 38.6571 26.1692 38.705C26.1167 38.7528 26.052 38.7854 25.9822 38.799C25.4632 38.896 24.9352 38.963 24.3972 38.999C24.3405 39.0026 24.2837 38.9941 24.2306 38.9739C24.1774 38.9537 24.1292 38.9224 24.0892 38.882L10.1182 24.91ZM11.0582 28.681C10.7782 28.402 10.3282 28.642 10.4302 29.024C11.0474 31.311 12.2538 33.3961 13.9289 35.071C15.604 36.7459 17.6892 37.9521 19.9762 38.569C20.3572 38.672 20.5982 38.221 20.3192 37.942L11.0582 28.681ZM64.4482 19.437C65.4172 19.437 66.2022 18.649 66.2022 17.677C66.2022 16.705 65.4172 15.917 64.4482 15.917C63.4792 15.917 62.6942 16.705 62.6942 17.677C62.6942 18.649 63.4792 19.437 64.4482 19.437ZM49.4252 34.79V15.918H52.5422V32.028H60.9462V34.79H49.4252ZM71.6092 27.089V34.789H68.5932V21.415H71.5722V23.708L71.6092 23.683C71.9122 22.965 72.4002 22.365 73.0732 21.884C73.7462 21.394 74.6042 21.15 75.6482 21.15C76.5732 21.15 77.4142 21.356 78.1712 21.77C78.9292 22.175 79.5342 22.77 79.9882 23.556C80.4432 24.341 80.6702 25.304 80.6702 26.444V34.79H77.6542V26.862C77.6542 25.848 77.3842 25.08 76.8462 24.557C76.3162 24.025 75.6062 23.759 74.7142 23.759C74.1422 23.759 73.6202 23.877 73.1492 24.113C72.6782 24.35 72.3042 24.713 72.0262 25.203C71.7482 25.693 71.6092 26.32 71.6092 27.089ZM98.9182 34.562C99.6082 34.857 100.398 35.005 101.29 35.005C102.022 35.005 102.649 34.912 103.17 34.726C103.692 34.532 104.121 34.275 104.458 33.954C104.802 33.633 105.076 33.282 105.278 32.902H105.328V34.789H108.218V25.581C108.225 24.9653 108.096 24.3557 107.839 23.796C107.584 23.251 107.209 22.7705 106.742 22.39C106.27 21.993 105.698 21.689 105.025 21.478C104.353 21.258 103.595 21.148 102.755 21.148C101.602 21.148 100.605 21.347 99.7632 21.744C98.9302 22.132 98.2782 22.656 97.8072 23.314C97.3383 23.9662 97.0706 24.7414 97.0372 25.544H99.9532C99.9862 25.155 100.121 24.809 100.356 24.504C100.609 24.188 100.94 23.9439 101.316 23.796C101.719 23.618 102.186 23.53 102.716 23.53C103.246 23.53 103.696 23.618 104.066 23.796C104.445 23.973 104.736 24.214 104.937 24.518C105.139 24.821 105.24 25.176 105.24 25.581V25.683C105.24 25.987 105.135 26.211 104.925 26.354C104.723 26.498 104.378 26.604 103.89 26.671C103.41 26.738 102.754 26.819 101.921 26.911C101.24 26.987 100.584 27.101 99.9532 27.253C99.3586 27.3905 98.7882 27.6171 98.2612 27.925C97.7811 28.2132 97.382 28.6185 97.1012 29.103C96.8152 29.593 96.6712 30.221 96.6712 30.99C96.6712 31.876 96.8742 32.62 97.2772 33.219C97.6852 33.8134 98.2551 34.2792 98.9182 34.562ZM103.8 32.32C103.313 32.581 102.71 32.712 101.996 32.712C101.272 32.712 100.696 32.56 100.267 32.256C99.8372 31.944 99.6232 31.517 99.6232 30.977C99.6232 30.555 99.7412 30.213 99.9772 29.951C100.221 29.689 100.54 29.483 100.936 29.331C101.351 29.1742 101.783 29.0677 102.223 29.014C102.559 28.964 102.888 28.913 103.207 28.862C103.527 28.802 103.826 28.748 104.103 28.697C104.341 28.6481 104.577 28.5891 104.81 28.52C105.012 28.46 105.16 28.398 105.251 28.33V29.825C105.256 30.3295 105.131 30.8266 104.886 31.268C104.65 31.699 104.287 32.049 103.8 32.32ZM110.848 34.79V21.415H113.751V23.618H113.789C114.033 22.858 114.415 22.28 114.937 21.883C115.467 21.478 116.161 21.275 117.019 21.275C117.23 21.275 117.419 21.284 117.587 21.3C117.764 21.309 117.911 21.317 118.029 21.326V24.049C117.544 23.9832 117.055 23.9495 116.565 23.948C116.068 23.948 115.614 24.062 115.202 24.29C114.79 24.518 114.462 24.868 114.218 25.34C113.982 25.805 113.864 26.392 113.864 27.101V34.79H110.848ZM62.9332 34.79V21.415H65.9492V34.79H62.9332ZM85.6852 34.194C86.6532 34.794 87.8012 35.094 89.1302 35.094C90.1572 35.094 91.0902 34.908 91.9322 34.536C92.7467 34.1821 93.4713 33.6497 94.0522 32.978C94.6125 32.3182 94.9909 31.5238 95.1502 30.673H92.3102C92.1864 31.0656 91.9751 31.425 91.6922 31.724C91.3987 32.0305 91.0412 32.2685 90.6452 32.421C90.2242 32.59 89.7362 32.674 89.1812 32.674C88.4322 32.674 87.7892 32.506 87.2512 32.168C86.7187 31.8276 86.2974 31.3389 86.0392 30.762C85.7872 30.21 85.6492 29.585 85.6262 28.887H95.3262V28.077C95.3262 27.047 95.1752 26.109 94.8722 25.265C94.5932 24.4525 94.1558 23.7033 93.5852 23.061C93.0314 22.4371 92.3459 21.9439 91.5782 21.617C90.8042 21.279 89.9422 21.11 88.9922 21.11C87.7552 21.11 86.6622 21.41 85.7112 22.01C84.7602 22.61 84.0152 23.437 83.4772 24.492C82.9392 25.548 82.6692 26.755 82.6692 28.115C82.6692 29.465 82.9302 30.669 83.4522 31.725C83.9476 32.7432 84.722 33.5988 85.6852 34.194ZM92.0332 25.341C91.7771 24.7908 91.3646 24.3283 90.8472 24.011C90.3332 23.698 89.7272 23.542 89.0292 23.542C88.3392 23.542 87.7382 23.698 87.2252 24.011C86.7119 24.3331 86.3007 24.7943 86.0392 25.341C85.8265 25.7868 85.6951 26.267 85.6512 26.759H92.4202C92.3766 26.2671 92.2455 25.7869 92.0332 25.341Z" fill="#DEE5E5"/>
</g>
</svg>
