<svg version="1.1" id="Layer_1" xmlns:x="ns_extend;" xmlns:i="ns_ai;" xmlns:graph="ns_graphs;" xmlns="http://www.w3.org/2000/svg" xmlns:xlink="http://www.w3.org/1999/xlink" x="0px" y="0px" viewBox="0 0 901.6 113.8" style="enable-background:new 0 0 901.6 113.8;" xml:space="preserve">
 <style type="text/css">
  .st0{fill:#FFFFFF;}
 </style>
 <metadata>
  <sfw xmlns="ns_sfw;">
   <slices>
   </slices>
   <sliceSourceBounds bottomLeftOrigin="true" height="113.8" width="901.6" x="0" y="0">
   </sliceSourceBounds>
  </sfw>
 </metadata>
 <g id="Layer_2_1_">
  <g id="Layer_1-2">
   <path class="st0" d="M901,69.7c-3.2-20.9-28.2-22.2-44.8-23c0,0-68.4-1.8-75.6-2.2c-6.3-0.3-13.7-1.5-14.5-8.6
			c-0.8-7.4,5.9-10.9,12-12.1c12.2-2.6,24.3-2.8,36.3-2.8c26.5,0,50.8,2.9,76.6,7.6L893.9,8V7.8C874.5,4.3,847.6,0,819,0
			c-12.5-0.1-25.1,0.7-37.5,2.3c-13.5,1.8-28.4,4.9-35.7,14.4c-6.2,8.1-6.8,21.8-3.1,31.1c6.4,16,29.2,16.7,43.4,17.3
			c0,0,68.8,2,76.1,2.3c6.3,0.3,13.7,1.6,14.5,8.8c0.7,6.5-3.7,11.2-12.7,13.1c-11.7,2.4-24.1,2.8-36.2,2.8
			c-29.3,0-55.1-3.1-84.8-7.7l-2.4,20.8c27.3,5.5,55,8.3,82.8,8.5h0.4c12.6,0,25.3,0,37.9-1.8c11-1.6,22.6-4,31.3-11.6
			S902.6,80.2,901,69.7z">
   </path>
   <path class="st0" d="M97.5,85.8l-68.4-85H0v112.4h25.7V35.2l57,70.8c8,10,21.6,10,29.7,0l56.9-70.8v77.9H195V0.8h-29.1L97.5,85.8z
			">
   </path>
   <polygon class="st0" points="410,0.8 260.5,0.8 260.5,113.1 411.2,113.1 415,90.4 286.2,90.4 286.2,68.3 404.9,68.3 404.9,45.6 
			286.2,45.6 286.2,23.5 410,23.5 		">
   </polygon>
   <path class="st0" d="M658,113.1L704.8,0.8h-26.5l-35.9,86L600.1,11C594.3,0.8,581.2-2.7,571,3.2c-3.3,1.9-6,4.6-7.8,7.8
			l-42.3,75.7L485,0.8h-26.5l46.9,112.3h27.3l49-88.6l49,88.6H658z">
   </path>
  </g>
 </g>
</svg>