<svg xmlns="http://www.w3.org/2000/svg" width="17" height="17" fill="none"><path fill="#3F89A1" fill-rule="evenodd" d="M5.225 3.375a2.225 2.225 0 0 1 4.45 0v.375h.071c.437 0 .795 0 1.087.02.303.02.579.064.843.174a2.55 2.55 0 0 1 1.38 1.38c.11.265.154.54.174.843.01.151.016.32.018.508h.377a2.225 2.225 0 0 1 0 4.45h-.375v.53c0 .525 0 .955-.028 1.305-.03.362-.093.69-.25.998a2.55 2.55 0 0 1-1.114 1.114c-.307.157-.636.22-.998.25-.35.028-.78.028-1.305.028h-.48a.6.6 0 0 1-.6-.6v-1.138a.863.863 0 0 0-1.725 0v1.138a.6.6 0 0 1-.6.6h-.805c-.524 0-.954 0-1.304-.029-.363-.03-.691-.092-.998-.249a2.55 2.55 0 0 1-1.115-1.114c-.156-.308-.22-.636-.249-.998-.029-.35-.029-.78-.029-1.305V11.5c0-.87.706-1.575 1.575-1.575a1.025 1.025 0 0 0 0-2.05c-.851 0-1.607-.695-1.56-1.606.017-.344.058-.652.18-.945a2.55 2.55 0 0 1 1.38-1.38c.264-.11.54-.154.843-.174.292-.02.65-.02 1.087-.02h.07v-.375zM7.45 2.35c-.566 0-1.025.459-1.025 1.025v.975a.6.6 0 0 1-.6.6h-.65c-.462 0-.779 0-1.026.017-.241.017-.371.047-.465.086-.331.137-.594.4-.73.73-.044.105-.076.253-.091.548-.009.165.137.344.362.344a2.225 2.225 0 0 1 0 4.45.375.375 0 0 0-.375.375v.13c0 .556 0 .937.025 1.232.023.288.067.44.123.55.129.255.335.461.59.59.11.057.262.1.55.123.296.024.676.025 1.232.025h.18v-.538a2.062 2.062 0 1 1 4.125 0v.538c.479 0 .819-.003 1.087-.025.288-.023.441-.066.551-.122.254-.13.46-.336.59-.59.056-.11.1-.263.123-.551.024-.295.024-.676.024-1.232v-1.105a.6.6 0 0 1 .6-.6h.975a1.025 1.025 0 1 0 0-2.05h-.975a.6.6 0 0 1-.6-.6c0-.463 0-.78-.017-1.026-.016-.242-.046-.372-.085-.466a1.35 1.35 0 0 0-.731-.73c-.094-.04-.224-.07-.466-.086a16.758 16.758 0 0 0-1.026-.017h-.65a.6.6 0 0 1-.6-.6v-.975c0-.566-.459-1.025-1.025-1.025z" clip-rule="evenodd"/></svg>