<svg xmlns="http://www.w3.org/2000/svg" width="17" height="17" fill="none"><g fill="#181C1F" fill-rule="evenodd" clip-path="url(#a)" clip-rule="evenodd"><path d="M6.15 7.25a2.6 2.6 0 1 1 5.2 0 2.6 2.6 0 0 1-5.2 0zm2.6-1.4a1.4 1.4 0 1 0 0 2.8 1.4 1.4 0 0 0 0-2.8z"/><path d="M8.75.65a.596.596 0 0 1 .564.394.597.597 0 0 1 .03.118c.107.593 1.115 2.341 4.927 2.48.582.02 1.08.493 1.08 1.108v2.734a8.6 8.6 0 0 1-5.881 8.159l-.524.174a.599.599 0 0 1-.391 0l-.524-.174a8.6 8.6 0 0 1-5.88-8.16V4.75c0-.615.497-1.087 1.08-1.109 3.81-.138 4.819-1.886 4.926-2.48a.597.597 0 0 1 .389-.475A.596.596 0 0 1 8.75.65zm0 1.98c-.811 1.06-2.487 2.085-5.4 2.208v2.646c0 1.945.76 3.756 2.04 5.102.571-1.125 1.558-1.936 2.753-1.936h1.215c1.195 0 2.181.81 2.753 1.936a7.396 7.396 0 0 0 2.04-5.102V4.838c-2.913-.123-4.589-1.148-5.4-2.208zm2.422 10.788c-.42-1.047-1.149-1.568-1.814-1.568H8.143c-.665 0-1.395.52-1.814 1.568a7.39 7.39 0 0 0 2.081 1.086l.34.114.34-.114a7.39 7.39 0 0 0 2.082-1.086z"/></g><defs><clipPath id="a"><path fill="#fff" d="M.75.25h16v16h-16z"/></clipPath></defs></svg>