<svg xmlns="http://www.w3.org/2000/svg" width="17" height="17" fill="none"><g clip-path="url(#a)"><path fill="#181C1F" d="M15.677 4.734a7.965 7.965 0 0 0-2.912-2.911A7.825 7.825 0 0 0 8.75.75a7.83 7.83 0 0 0-4.016 1.073 7.964 7.964 0 0 0-2.911 2.911A7.825 7.825 0 0 0 .75 8.75c0 1.743.509 3.31 1.526 4.703 1.017 1.392 2.332 2.356 3.943 2.89.187.035.326.01.416-.073a.407.407 0 0 0 .136-.312l-.006-.563a92.897 92.897 0 0 1-.005-.926l-.24.041c-.152.028-.345.04-.578.037a4.401 4.401 0 0 1-.724-.073 1.617 1.617 0 0 1-.697-.313 1.322 1.322 0 0 1-.459-.64l-.104-.24a2.605 2.605 0 0 0-.328-.531c-.15-.195-.3-.326-.453-.396l-.073-.052a.764.764 0 0 1-.135-.125.57.57 0 0 1-.094-.146c-.02-.049-.004-.089.052-.12.056-.031.156-.046.302-.046l.208.03c.14.028.311.112.516.25.205.14.373.32.505.542.16.285.352.502.578.651.226.15.453.224.682.224.23 0 .427-.017.594-.052a2.07 2.07 0 0 0 .469-.156c.062-.466.233-.823.51-1.073a7.133 7.133 0 0 1-1.067-.188 4.25 4.25 0 0 1-.98-.406 2.803 2.803 0 0 1-.838-.698c-.222-.278-.405-.642-.547-1.094-.142-.451-.213-.972-.213-1.562 0-.84.274-1.556.823-2.146-.257-.632-.233-1.34.072-2.125.202-.062.5-.015.896.14.396.157.686.29.87.402.184.11.332.205.443.281a7.396 7.396 0 0 1 2-.27c.687 0 1.354.09 2 .27l.396-.25c.27-.167.59-.32.958-.458.368-.14.65-.177.844-.115.312.785.34 1.493.083 2.125.549.59.823 1.306.823 2.146a5.26 5.26 0 0 1-.213 1.567c-.143.455-.327.82-.552 1.094a2.911 2.911 0 0 1-.844.693 4.258 4.258 0 0 1-.98.406 7.128 7.128 0 0 1-1.067.188c.361.312.541.805.541 1.479v2.198c0 .124.044.229.13.312.088.083.225.108.412.073 1.611-.535 2.926-1.498 3.943-2.89 1.017-1.393 1.526-2.96 1.526-4.704a7.83 7.83 0 0 0-1.073-4.015z"/></g><defs><clipPath id="a"><path fill="#fff" d="M.75.75h16v16h-16z"/></clipPath></defs></svg>