<svg xmlns="http://www.w3.org/2000/svg" width="17" height="17" fill="none"><g fill="#181C1F" clip-path="url(#a)"><path d="M14.18.65a.6.6 0 0 1 .6.6V2.4h1.15a.6.6 0 0 1 0 1.2h-1.15v1.15a.6.6 0 1 1-1.2 0V3.6h-1.15a.6.6 0 1 1 0-1.2h1.15V1.25a.6.6 0 0 1 .6-.6z"/><path fill-rule="evenodd" d="M8.75 1.15a.6.6 0 0 1 .566.401l.705 2.006c.36 1.024.51 1.435.74 1.778a3.4 3.4 0 0 0 .784.827c.33.248.733.42 1.736.833l1.698.7a.6.6 0 0 1 0 1.11l-1.697.7c-1.004.414-1.406.585-1.737.833a3.4 3.4 0 0 0-.784.827c-.23.343-.38.755-.74 1.779l-.705 2.005a.6.6 0 0 1-1.132 0l-.705-2.005c-.36-1.025-.509-1.436-.739-1.78a3.4 3.4 0 0 0-.784-.826c-.33-.248-.733-.42-1.737-.833l-1.697-.7a.6.6 0 0 1 0-1.11l1.697-.7c1.004-.414 1.406-.585 1.737-.833a3.4 3.4 0 0 0 .784-.827c.23-.343.38-.754.74-1.778l.704-2.006a.6.6 0 0 1 .566-.401zm0 2.41-.167.475c-.322.918-.52 1.483-.846 1.968a4.6 4.6 0 0 1-1.06 1.119c-.468.35-1.022.579-1.92.95l-.433.178.432.178c.9.371 1.453.6 1.92.95.414.31.773.689 1.06 1.119.326.485.525 1.05.847 1.968l.167.476.168-.476c.322-.918.52-1.483.846-1.968a4.62 4.62 0 0 1 1.06-1.119c.468-.35 1.021-.579 1.92-.95l.433-.178-.432-.178c-.9-.371-1.453-.6-1.92-.95a4.6 4.6 0 0 1-1.061-1.119c-.325-.485-.524-1.05-.846-1.968L8.75 3.56z" clip-rule="evenodd"/><path d="M3.5 11.15a.6.6 0 0 1 .6.6v1.15h1.15a.6.6 0 0 1 0 1.2H4.1v1.15a.6.6 0 1 1-1.2 0V14.1H1.75a.6.6 0 1 1 0-1.2H2.9v-1.15a.6.6 0 0 1 .6-.6z"/></g><defs><clipPath id="a"><path fill="#fff" d="M.75.25h16v16h-16z"/></clipPath></defs></svg>