<svg xmlns="http://www.w3.org/2000/svg" width="17" height="16" fill="none"><path fill="#3F89A1" d="M9.1 2a.6.6 0 0 0-1.2 0v7.551L5.925 7.576a.6.6 0 1 0-.849.848l3 3a.573.573 0 0 0 .195.13.599.599 0 0 0 .655-.13l2.999-3a.6.6 0 0 0-.849-.848L9.1 9.55V2z"/><path fill="#3F89A1" d="M12.874 8.946a.6.6 0 0 1 .807-.263 2.6 2.6 0 0 1 1.136 1.137c.16.312.224.647.254 1.018.03.358.03.798.03 1.337v.247c0 .261 0 .492-.016.684a1.626 1.626 0 0 1-.159.62 1.6 1.6 0 0 1-.7.7 1.625 1.625 0 0 1-.62.158c-.191.016-.422.016-.683.016H4.078c-.26 0-.492 0-.683-.016a1.624 1.624 0 0 1-.621-.158 1.6 1.6 0 0 1-.7-.7 1.626 1.626 0 0 1-.158-.62c-.016-.192-.016-.423-.016-.684v-.247c0-.539 0-.98.03-1.337.03-.371.095-.706.254-1.018A2.6 2.6 0 0 1 3.32 8.683a.6.6 0 1 1 .545 1.07 1.4 1.4 0 0 0-.612.611c-.059.116-.103.275-.127.571-.025.304-.026.695-.026 1.265v.2c0 .29 0 .471.012.608.01.13.028.165.032.174a.4.4 0 0 0 .175.174.493.493 0 0 0 .173.032c.137.012.318.012.608.012h8.8c.29 0 .472 0 .608-.012a.494.494 0 0 0 .174-.032.4.4 0 0 0 .175-.174.493.493 0 0 0 .032-.174 8.48 8.48 0 0 0 .011-.608v-.2c0-.57 0-.961-.025-1.265-.024-.296-.069-.455-.127-.57a1.4 1.4 0 0 0-.612-.612.6.6 0 0 1-.262-.807z"/></svg>