<svg xmlns="http://www.w3.org/2000/svg" width="15" height="17" fill="none"><path stroke="#3F89A1" stroke-width=".768" d="M14.199 8.478a6.907 6.907 0 1 1-13.815 0 6.907 6.907 0 0 1 13.815 0z"/><path stroke="#3F89A1" stroke-width=".768" d="M11.254 8.408a3.893 3.893 0 1 1-7.785 0 3.893 3.893 0 0 1 7.785 0zm.033 1.192c.467.234 1.725.561 3.015 0M.42 9.6c.468.234 1.726.561 3.016 0m7.851-1.542c.467.234 1.725.56 3.015 0m-13.882 0c.468.234 1.726.56 3.016 0m4.542-3.421c.233-.467.56-1.724 0-3.014m0 13.881c.233-.467.56-1.724 0-3.014M6.435 4.637c.233-.467.56-1.724 0-3.014m.001 13.881c.234-.467.365-1.95-.196-3.24"/><path stroke="#3F89A1" stroke-width=".768" d="M6.38 1.398c-.631-.912-2.516-1.537-3.786.21-1.683 2.314 5.118 4.417.841 6.45m7.783 1.472c-1.052-.701-2.959.87-.772 3.225 2.735 2.944-2.594 5.048-2.383 2.804"/></svg>