<svg xmlns="http://www.w3.org/2000/svg" width="17" height="17" fill="none"><path stroke="#3F89A1" stroke-linejoin="round" d="M3.75 2.4a.65.65 0 0 1 .65-.65h6.157a.65.65 0 0 1 .468.2l1.267 1.317 1.277 1.328a.65.65 0 0 1 .181.45V14.1a.65.65 0 0 1-.65.65H4.4a.65.65 0 0 1-.65-.65V2.4z"/><path stroke="#3F89A1" stroke-linecap="round" stroke-linejoin="round" d="M10.563 2.075V4.5a.5.5 0 0 0 .5.5h2.262"/><path fill="#3F89A1" fill-rule="evenodd" d="M8.521 6.25a.622.622 0 0 0-.617.545l-.028.226a.271.271 0 0 1-.168.214.27.27 0 0 1-.27-.033l-.18-.14a.622.622 0 0 0-.82.051l-.325.324a.622.622 0 0 0-.05.821l.139.18c.06.077.07.18.032.27a.272.272 0 0 1-.214.169l-.226.028a.622.622 0 0 0-.544.617v.458c0 .314.234.578.545.617l.226.028a.27.27 0 0 1 .214.168.269.269 0 0 1-.033.269l-.14.18c-.192.247-.17.6.051.82l.324.325a.622.622 0 0 0 .821.051l.18-.14a.27.27 0 0 1 .27-.032.27.27 0 0 1 .168.213l.028.226a.622.622 0 0 0 .617.545h.458a.622.622 0 0 0 .617-.545l.028-.226a.271.271 0 0 1 .168-.213.27.27 0 0 1 .27.032l.18.14c.247.192.6.17.82-.051l.325-.324a.622.622 0 0 0 .05-.821l-.139-.18a.27.27 0 0 1-.032-.27.272.272 0 0 1 .214-.17l.226-.027a.622.622 0 0 0 .544-.617V9.52a.622.622 0 0 0-.545-.617l-.227-.028a.27.27 0 0 1-.213-.168.269.269 0 0 1 .033-.268l.14-.18a.622.622 0 0 0-.051-.822l-.324-.324a.622.622 0 0 0-.821-.05l-.18.14a.27.27 0 0 1-.27.032.271.271 0 0 1-.168-.214l-.028-.226a.622.622 0 0 0-.617-.545H8.52zm.229 5.25a1.75 1.75 0 1 0 0-3.5 1.75 1.75 0 0 0 0 3.5z" clip-rule="evenodd"/></svg>