<svg fill="none" height="46" viewBox="0 0 166 46" width="166" xmlns="http://www.w3.org/2000/svg"><path clip-rule="evenodd" d="M62.6121 13.1429C64.9291 13.1429 66.9265 14.0167 68.5642 15.811C70.1667 17.5679 70.9999 19.6886 70.9999 22.1748C70.9999 24.664 70.1744 26.7932 68.5642 28.5515C66.9244 30.3412 64.9263 31.2143 62.6121 31.2143C60.3028 31.2143 58.3083 30.3382 56.6734 28.5515C55.0625 26.7932 54.2377 24.664 54.2377 22.1748C54.2377 19.6886 55.0681 17.5679 56.6734 15.811C58.3069 14.0198 60.3014 13.1429 62.6121 13.1429V13.1429ZM83.726 19.9761C84.0218 20.2046 84.307 20.5166 84.5009 20.7283C85.5681 21.8988 86.1055 23.3177 86.1055 24.9706C86.1055 26.6441 85.5245 28.0653 84.4468 29.248C83.5138 30.2671 82.3637 30.8336 81.0647 31.0239L81.0394 31.0278H75.3241V13.3745H80.5891C81.664 13.3745 82.6117 13.7698 83.3747 14.6039C84.1054 15.4035 84.5037 16.3706 84.5037 17.5052C84.5037 18.4409 84.2396 19.2704 83.726 19.9761V19.9761ZM94.839 22.1434C93.7985 21.7711 92.8206 21.2046 92.0428 20.3522C91.3009 19.5426 90.9244 18.5541 90.9244 17.4081C90.9244 16.2529 91.3361 15.269 92.0773 14.4494C92.8585 13.5878 93.8266 13.1742 94.9353 13.1742C96.0551 13.1742 97.0225 13.6138 97.8199 14.4747C98.297 14.9899 98.6019 15.6596 98.8 16.3531L98.9054 16.7139L96.497 17.7414L96.3649 17.3546C96.2701 17.0732 96.0614 16.4838 95.8675 16.2674C95.609 15.9784 95.3076 15.8026 94.9353 15.8026C94.5699 15.8026 94.2741 15.9754 94.0191 16.2544C93.7276 16.5725 93.606 16.9616 93.606 17.4081C93.606 17.8714 93.7395 18.262 94.0325 18.5938C94.4273 19.0074 94.9324 19.3277 95.4263 19.5823C96.6382 20.0143 97.7293 20.6985 98.6349 21.6855C99.6332 22.7726 100.166 24.0807 100.166 25.6242C100.166 27.1624 99.6438 28.4758 98.6504 29.5599C97.6288 30.673 96.3769 31.2143 94.9353 31.2143C93.4739 31.2143 92.2248 30.6463 91.1934 29.5133C90.3539 28.5913 89.8916 27.443 89.7202 26.1624L89.6752 25.8345L92.2726 24.81L92.321 25.3284C92.399 26.1594 92.6063 27.1464 93.1676 27.7572C93.6615 28.2939 94.2355 28.576 94.9353 28.576C95.6497 28.576 96.2399 28.2794 96.7429 27.7289C97.2762 27.1479 97.5178 26.4453 97.5178 25.6242C97.5178 24.8161 97.2923 24.109 96.7626 23.5371C96.2069 22.9362 95.5584 22.4752 94.839 22.1434V22.1434ZM104.52 31.0278H107.205V13.3745H104.52V31.0278ZM115.795 13.3745C118.124 13.3745 120.375 14.0228 122.05 15.8714C123.636 17.6198 124.449 19.7329 124.449 22.1977C124.449 24.69 123.618 26.8276 122.01 28.5928C120.348 30.4154 118.091 31.0278 115.795 31.0278H112.169V13.3745H115.795ZM128.88 31.0278H131.563V13.3745H128.88V31.0278ZM142.174 18.5212C140.613 23.2107 140.002 25.0218 137.973 31.0278H135.156L141.082 13.3745H143.284L149.127 31.0278H146.322C144.471 25.4415 143.693 23.1136 142.174 18.5212V18.5212ZM163.32 25.966V13.3745H166V31.0278H163.297L155.312 18.7758V31.0278H152.629V13.3745H155.109L163.32 25.966ZM62.6121 15.8026C61.0433 15.8026 59.7232 16.441 58.6181 17.6565C57.4764 18.9057 56.9285 20.4095 56.9285 22.1748C56.9285 23.9416 57.4722 25.4568 58.6167 26.706C59.7246 27.9178 61.0433 28.5515 62.6121 28.5515C64.1858 28.5515 65.5102 27.9208 66.6195 26.706C67.7654 25.4568 68.3077 23.9416 68.3077 22.1748C68.3077 20.4095 67.7597 18.9057 66.6195 17.6565C65.5102 16.4379 64.1872 15.8026 62.6121 15.8026V15.8026ZM78.0051 16.0144V18.8989H80.7184C80.9825 18.866 81.2558 18.7773 81.4476 18.564L81.4525 18.5594C81.7195 18.275 81.8115 17.9042 81.8115 17.5052C81.8115 17.0862 81.6984 16.73 81.4272 16.4349C81.1912 16.1757 80.9165 16.0144 80.5771 16.0144H78.0051ZM78.0051 21.5509V28.3772H80.4373C81.2572 28.3772 81.9373 28.0324 82.5127 27.4025C83.1267 26.7289 83.4042 25.9178 83.4042 24.9706C83.4042 24.0188 83.1267 23.2053 82.5127 22.528C81.9373 21.8988 81.2572 21.5509 80.4373 21.5509H78.0051ZM114.849 16.0618V28.3528H115.784C117.349 28.3528 118.878 27.9552 120.023 26.7442C121.172 25.4843 121.725 23.9721 121.725 22.1977C121.725 20.4225 121.164 18.9126 120.031 17.6596C118.878 16.4509 117.343 16.0618 115.784 16.0618H114.849Z" fill="white" fill-rule="evenodd"></path><path clip-rule="evenodd" d="M23.7459 0.00140111C36.1129 0.39021 46.0198 10.5385 46.0198 23C46.0198 35.4615 36.1129 45.6098 23.7459 45.9986V37.7082C31.5367 37.325 37.736 30.8862 37.736 23C37.736 15.1138 31.5367 8.675 23.7459 8.2918V0.00140111ZM22.3193 46C9.93067 45.635 0 35.4776 0 23C0 10.5231 9.93067 0.36499 22.3193 0V8.2897C14.5068 8.64978 8.28313 15.0984 8.28313 23C8.28313 30.9016 14.5068 37.3502 22.3193 37.711V46Z" fill="white" fill-rule="evenodd"></path><path clip-rule="evenodd" d="M11.8683 16.0075L17.1806 19.7401C16.6414 20.7044 16.334 21.8163 16.334 23C16.334 24.1699 16.6345 25.2701 17.162 26.2267L11.8483 29.96C10.589 27.9411 9.86133 25.5558 9.86133 23C9.86133 20.4303 10.5966 18.0333 11.8683 16.0075V16.0075ZM34.1707 29.96L28.8576 26.2267C29.3852 25.2701 29.6857 24.1699 29.6857 23C29.6857 21.8163 29.3783 20.7044 28.8391 19.7401L34.1514 16.0075C35.4231 18.0333 36.1584 20.4303 36.1584 23C36.1584 25.5558 35.4307 27.9411 34.1707 29.96V29.96ZM23.711 9.85712C27.6155 10.0621 31.0688 11.9726 33.3412 14.8576L28.0275 18.5916C26.9491 17.3624 25.427 16.5328 23.711 16.3533V9.85712ZM22.308 9.85712V16.3533C20.5927 16.5328 19.0706 17.3624 17.9922 18.5916L12.6784 14.8576C14.9509 11.9726 18.4042 10.0621 22.308 9.85712V9.85712ZM22.308 36.1428C18.3911 35.9365 14.9275 34.0136 12.6558 31.1119L17.9674 27.3793C19.0472 28.6244 20.5796 29.4651 22.308 29.6459V36.1428ZM23.711 36.1428V29.6459C25.4401 29.4651 26.9725 28.6244 28.0523 27.3793L33.3639 31.1119C31.0922 34.0136 27.6286 35.9365 23.711 36.1428Z" fill="white" fill-rule="evenodd"></path><mask height="28" id="mask0_114_2" maskUnits="userSpaceOnUse" style="mask-type:alpha" width="28" x="9" y="9"><path clip-rule="evenodd" d="M23.711 16.3538C25.4263 16.534 26.9484 17.3629 28.0275 18.5921V18.5921L33.3412 14.8582C31.0681 11.9732 27.6155 10.0628 23.711 9.85712V9.85712V16.3538ZM12.6784 14.8582L17.9915 18.5921C19.0699 17.3629 20.592 16.534 22.308 16.3538V16.3538V9.85712C18.4035 10.0628 14.9509 11.9732 12.6784 14.8582V14.8582ZM28.8391 19.7406C29.3783 20.7048 29.6857 21.8167 29.6857 22.9996V22.9996C29.6857 24.1702 29.3852 25.2703 28.857 26.2269V26.2269L34.1707 29.9601C35.43 27.9414 36.1584 25.5554 36.1584 22.9996V22.9996C36.1584 20.4308 35.4224 18.0337 34.1514 16.008V16.008L28.8391 19.7406ZM9.86133 22.9996C9.86133 25.5554 10.5883 27.9414 11.8483 29.9601V29.9601L17.1614 26.2269C16.6338 25.2703 16.3333 24.1702 16.3333 22.9996V22.9996C16.3333 21.8167 16.6407 20.7048 17.1799 19.7406V19.7406L11.8683 16.008C10.5966 18.0337 9.86133 20.4308 9.86133 22.9996V22.9996ZM23.711 29.6461V36.1428C27.6279 35.9365 31.0915 34.0136 33.3639 31.1128V31.1128L28.0516 27.3795C26.9718 28.6246 25.4394 29.4653 23.711 29.6461V29.6461ZM12.6551 31.1128C14.9268 34.0136 18.3904 35.9365 22.308 36.1428V36.1428V29.6461C20.5789 29.4653 19.0472 28.6246 17.9667 27.3795V27.3795L12.6551 31.1128Z" fill="white" fill-rule="evenodd"></path></mask><g mask="url(#mask0_114_2)"> </g></svg>