<svg xmlns="http://www.w3.org/2000/svg" width="17" height="17" fill="none"><g fill="#181C1F" clip-path="url(#a)"><path d="M7.65 14.75a.6.6 0 1 0 1.2 0V9.199l1.976 1.975a.6.6 0 0 0 .848-.848l-2.999-3a.615.615 0 0 0-.195-.13.598.598 0 0 0-.655.13l-3 3a.6.6 0 0 0 .85.848L7.65 9.2v5.551z"/><path d="M15.25 1.25a.5.5 0 0 1 .5.5v11a.5.5 0 0 1-.5.5h-2.5a.5.5 0 0 1 0-1h2v-10h-3.623c-.96 0-1.84.543-2.27 1.403-.07.141-.107.297-.107.456V5.5a.5.5 0 0 1-1 0V4.109c0-.159-.037-.315-.108-.456a2.538 2.538 0 0 0-2.27-1.403H1.75v10h2a.5.5 0 0 1 0 1h-2.5a.5.5 0 0 1-.5-.5v-11a.5.5 0 0 1 .5-.5h4.122c1.153 0 2.22.56 2.878 1.48a3.538 3.538 0 0 1 2.877-1.48h4.123z"/></g><defs><clipPath id="a"><path fill="#fff" d="M.25.25h16v16h-16z"/></clipPath></defs></svg>