<svg xmlns="http://www.w3.org/2000/svg" width="16" height="17" fill="none"><path fill="#F4E28D" d="M3 1.743a1.6 1.6 0 0 0-1.6 1.6v3.586a.4.4 0 0 1-.117.282l-.707.708a.6.6 0 0 0 0 .848l.707.707a.4.4 0 0 1 .117.283v3.586a1.6 1.6 0 0 0 1.6 1.6h1a.6.6 0 0 0 0-1.2H3a.4.4 0 0 1-.4-.4V9.757a1.6 1.6 0 0 0-.469-1.131l-.283-.283.283-.283c.3-.3.469-.707.469-1.131V3.343a.4.4 0 0 1 .4-.4h1a.6.6 0 0 0 0-1.2H3zm9 1.2h1a.4.4 0 0 1 .4.4v3.586c0 .424.168.83.468 1.13l.283.284-.283.283a1.6 1.6 0 0 0-.468 1.131v3.586a.4.4 0 0 1-.4.4h-1a.6.6 0 1 0 0 1.2h1a1.6 1.6 0 0 0 1.6-1.6V9.757a.4.4 0 0 1 .117-.283l.707-.707a.6.6 0 0 0 0-.848l-.707-.708a.4.4 0 0 1-.117-.282V3.343a1.6 1.6 0 0 0-1.6-1.6h-1a.6.6 0 1 0 0 1.2z"/><path fill="#F4E28D" d="M4.5 7.443a.9.9 0 1 1 0 1.8.9.9 0 0 1 0-1.8zm3.5 0a.9.9 0 1 1 0 1.8.9.9 0 0 1 0-1.8zm3.5 0a.9.9 0 1 1 0 1.8.9.9 0 0 1 0-1.8z"/></svg>