<svg xmlns="http://www.w3.org/2000/svg" width="17" height="17" fill="none"><path fill="#181C1F" fill-rule="evenodd" d="M4.85 2.95a1.4 1.4 0 0 0-1.4 1.4v9.26h-1.2V4.35a2.6 2.6 0 0 1 2.6-2.6h6.523a2.6 2.6 0 0 1 2.6 2.593l.015 6.53a1.6 1.6 0 0 1-1.6 1.603H8.323v-1.2h4.065a.401.401 0 0 0 .4-.4l-.015-6.53a1.4 1.4 0 0 0-1.4-1.396H4.85z" clip-rule="evenodd"/><path fill="#181C1F" d="M8.16 12.469h.6v-1.2h-.6v1.2zm5.209 3.354a.6.6 0 0 0 0-1.2v1.2zm-8.842-3.354h3.632v-1.2H4.527v1.2zm8.842 2.154H4.527v1.2h8.842v-1.2zm-8.842 0a1.077 1.077 0 0 1-1.077-1.077h-1.2a2.277 2.277 0 0 0 2.277 2.277v-1.2zm0-3.354a2.277 2.277 0 0 0-2.277 2.277h1.2c0-.595.482-1.077 1.077-1.077v-1.2z"/><path fill="#181C1F" fill-rule="evenodd" d="M5.61 5.855a.6.6 0 0 1 .6-.6h3.821a.6.6 0 0 1 0 1.2H6.21a.6.6 0 0 1-.6-.6zm7.826 5.192a.6.6 0 0 1 .22.82c-.318.552-.446 1.037-.425 1.488.02.45.192.924.577 1.452a.6.6 0 0 1-.97.707c-.49-.672-.772-1.368-.806-2.104-.034-.734.183-1.445.585-2.143a.6.6 0 0 1 .819-.22z" clip-rule="evenodd"/></svg>