<svg xmlns="http://www.w3.org/2000/svg" width="24" height="24" fill="none"><path fill="#F4E28D" fill-rule="evenodd" d="M2.4 19.583c0 .638.578 1.267 1.433 1.267h2.454V3.15H3.833c-.4 0-.773.149-1.037.394-.263.244-.396.56-.396.873v15.166Zm-1.8 0c0 1.756 1.512 3.067 3.233 3.067h16.333c1.722 0 3.234-1.311 3.234-3.067V4.417c0-1.756-1.512-3.067-3.234-3.067H3.833c-.836 0-1.651.308-2.262.875A2.991 2.991 0 0 0 .6 4.417v15.166ZM8.087 3.15v17.7h12.08c.855 0 1.433-.629 1.433-1.267V4.417c0-.638-.578-1.267-1.434-1.267H8.086Zm9.288 8.575a.6.6 0 0 1 0 .849l-3.6 3.6a.6.6 0 0 1-1.025-.424v-7.2a.6.6 0 0 1 1.024-.425l3.6 3.6Z" clip-rule="evenodd"/></svg>