<svg xmlns="http://www.w3.org/2000/svg" width="25" height="24" fill="none"><g clip-path="url(#a)"><path fill="#14171C" fill-rule="evenodd" d="M3.281 3.898a6.056 6.056 0 0 1 8.613 0l.002.002 1.02 1.032 1.01-1.02a6.03 6.03 0 0 1 8.594 0 6.152 6.152 0 0 1 0 8.655c-1.5 1.51-2.996 3.022-4.493 4.533l-4.494 4.534a.9.9 0 0 1-1.279-.001L3.28 12.555l-.001-.001a6.152 6.152 0 0 1 0-8.654l.002-.002zm1.276 1.27a4.352 4.352 0 0 0 .002 6.122l8.336 8.431c1.286-1.296 2.57-2.592 3.853-3.888 1.497-1.51 2.994-3.022 4.494-4.533a4.352 4.352 0 0 0 0-6.122 4.23 4.23 0 0 0-6.037 0l-1.649 1.666a.9.9 0 0 1-1.28 0L10.62 5.168a4.257 4.257 0 0 0-6.062 0z" clip-rule="evenodd"/></g><defs><clipPath id="a"><path fill="#fff" d="M.9 0h24v24H.9z"/></clipPath></defs></svg>