<svg xmlns="http://www.w3.org/2000/svg" width="17" height="17" fill="none"><path fill="#F4E28D" fill-rule="evenodd" d="M2.213 3.496a3.854 3.854 0 0 1 5.48 0l.002.001.65.657.641-.65a3.837 3.837 0 0 1 5.47 0 3.915 3.915 0 0 1 0 5.509c-.954.96-1.907 1.923-2.86 2.884-.952.962-1.905 1.924-2.86 2.886a.573.573 0 0 1-.813-.001L2.21 9.005a3.915 3.915 0 0 1 0-5.508h.002zm.812.808A2.77 2.77 0 0 0 3.026 8.2l5.305 5.365 2.452-2.474 2.86-2.885a2.77 2.77 0 0 0-.001-3.896 2.691 2.691 0 0 0-3.842 0L8.751 5.37a.573.573 0 0 1-.814 0L6.882 4.305a2.709 2.709 0 0 0-3.857 0z" clip-rule="evenodd"/></svg>