<svg xmlns="http://www.w3.org/2000/svg" width="17" height="17" fill="none"><g fill="#181C1F" clip-path="url(#a)"><path d="M3.25 2.15a1.6 1.6 0 0 0-1.6 1.6v3.586a.4.4 0 0 1-.117.283l-.707.707a.6.6 0 0 0 0 .848l.707.707a.4.4 0 0 1 .117.283v3.586a1.6 1.6 0 0 0 1.6 1.6h1a.6.6 0 1 0 0-1.2h-1a.4.4 0 0 1-.4-.4v-3.586a1.6 1.6 0 0 0-.468-1.131l-.283-.283.283-.283c.3-.3.468-.707.468-1.131V3.75a.4.4 0 0 1 .4-.4h1a.6.6 0 0 0 0-1.2h-1zm9 1.2h1a.4.4 0 0 1 .4.4v3.586c0 .424.169.831.469 1.131l.283.283-.283.283a1.6 1.6 0 0 0-.469 1.131v3.586a.4.4 0 0 1-.4.4h-1a.6.6 0 1 0 0 1.2h1a1.6 1.6 0 0 0 1.6-1.6v-3.586a.4.4 0 0 1 .118-.283l.707-.707a.6.6 0 0 0 0-.848l-.708-.707a.4.4 0 0 1-.117-.283V3.75a1.6 1.6 0 0 0-1.6-1.6h-1a.6.6 0 1 0 0 1.2z"/><path d="M4.75 7.85a.9.9 0 1 1 0 1.8.9.9 0 0 1 0-1.8zm3.5 0a.9.9 0 1 1 0 1.8.9.9 0 0 1 0-1.8zm3.5 0a.9.9 0 1 1 0 1.8.9.9 0 0 1 0-1.8z"/></g><defs><clipPath id="a"><path fill="#fff" d="M.25.75h16v16h-16z"/></clipPath></defs></svg>