<?xml version="1.0" encoding="UTF-8"?>
<svg id="katman_1" data-name="katman 1" xmlns="http://www.w3.org/2000/svg"  version="1.1" xmlns:xlink="http://www.w3.org/1999/xlink" viewBox="0 0 841.89 595.28" fill="#ffffff"  width="1000px" height="750px">
  <defs>
    <style>
      .cls-1 {
        fill: none;
      }

      .cls-1, .cls-2, .cls-3 {
        stroke-width: 0px;
      }

      .cls-2 {
        fill=#ffffff
      }

      .cls-3 {
        fill=#ffffff;
        fill-rule: evenodd;
      }

      .cls-4 {
        clip-path: url(#clippath);
      }
    </style>
    <clipPath id="clippath">
      <rect class="cls-1" x="64.82" y="205.12" width="712.33" height="184.58"/>
    </clipPath>
  </defs>
  <g class="cls-4">
    <g>
      <path class="cls-3" d="M110.97,324.26v19.26l-46.14-46.14,9.62-9.62,36.52,36.51ZM130.22,343.52h-19.26l46.14,46.14,9.62-9.62-36.51-36.52ZM239.74,307.01l9.64-9.64-92.29-92.29-9.61,9.66,36.51,36.51h-22.06l-25.49-25.43-9.62,9.62,15.84,15.85h-11.07v71.63h71.63v-11.07l15.85,15.84,9.62-9.61-25.47-25.49v-22.07l36.52,36.49ZM115.78,246.45l-9.66,9.64,10.34,10.33,9.63-9.63-10.31-10.34ZM197.73,328.41l-9.63,9.64,10.33,10.34,9.64-9.64-10.34-10.34ZM95.12,267.11l-9.64,9.65,25.49,25.47v-19.27l-15.85-15.85ZM171.57,343.56h-19.27l25.48,25.49,9.64-9.64-15.84-15.85Z"/>
      <path class="cls-2" d="M764.58,343.4c-6.22,0-11.07-1.69-14.54-5.07-3.48-3.39-5.21-8.07-5.21-14.04v-36.92h-11.15v-13.82h11.21l2-18.46h13.13v18.46h17.13v13.84h-17.13v34.9c-.04,1.9.67,3.74,1.97,5.13,1.35,1.44,3.26,2.22,5.23,2.14h9.92v13.84h-12.56ZM697.52,344.71c-8.29,0-14.95-1.97-20-5.92-5.01-3.92-8.45-9.51-9.68-15.76h16.48c.72,2.4,2.31,4.44,4.48,5.71,2.65,1.53,5.67,2.28,8.72,2.15,8.79,0,13.2-2.46,13.2-7.21,0-2.37-1.38-4.18-4.15-5.43-3.21-1.37-6.57-2.38-10.01-2.99-3.99-.77-7.94-1.73-11.83-2.89-3.97-1.17-7.49-3.52-10.11-6.73-2.74-3.28-4.12-7.59-4.13-12.93-.08-5.7,2.49-11.11,6.96-14.64,4.66-3.89,11.12-5.83,19.38-5.82,8.26,0,14.77,1.85,19.69,5.53,4.84,3.66,8.16,8.97,9.34,14.92h-16.5c-1.76-4.39-5.92-6.59-12.49-6.59-7.04,0-10.56,2.2-10.56,6.61.03,2.06,1.16,3.94,2.97,4.92,2.25,1.38,4.77,2.28,7.38,2.65,3.28.56,6.51,1.3,9.69,2.24,3.31.94,6.54,2.1,9.69,3.47,3.07,1.39,5.67,3.65,7.47,6.5,2.09,3.35,3.13,7.24,2.99,11.19.13,5.96-2.62,11.61-7.38,15.18-4.92,3.88-12.12,5.82-21.61,5.83M648.39,279.23c-5.08-4.56-12.19-6.84-21.33-6.84-7.31,0-13.42,1.96-18.35,5.89-4.9,3.83-8.36,9.19-9.84,15.22h15.58c.79-2.28,2.31-4.25,4.31-5.6,2.43-1.63,5.32-2.44,8.24-2.33,3.67-.2,7.28.97,10.13,3.28,2.54,2.36,3.9,5.74,3.69,9.21v3.35h-17.77c-8.24,0-14.68,2.05-19.33,6.15-4.53,3.87-7.09,9.57-6.98,15.53-.2,5.9,2.17,11.61,6.49,15.64,4.33,4.1,10.07,6.15,17.23,6.15,4.43.11,8.82-.91,12.75-2.96,3.16-1.54,5.84-3.92,7.73-6.89h.64l1.23,8.61h13.19v-45.53c.01-8-2.53-14.29-7.61-18.88M640.89,316.55c.19,4.2-1.5,8.26-4.61,11.07-3.05,2.72-7.22,4.08-12.51,4.08-3.85,0-6.8-.87-8.84-2.61-2-1.62-3.14-4.08-3.08-6.66,0-6.15,4.02-9.21,11.92-9.21h17.12v3.33ZM557.19,344.87c-10,0-17.99-3.21-23.97-9.63-5.98-6.41-8.97-15.28-8.98-26.63,0-11.35,3-20.18,8.95-26.61,5.96-6.41,13.96-9.62,24-9.61,8.15,0,14.91,2.18,20.28,6.53,5.27,4.19,9.02,9.99,10.68,16.51h-15.11c-3.02-5.91-9.21-9.51-15.84-9.21-4.99-.18-9.78,1.98-12.94,5.84-3.28,3.92-4.92,9.43-4.92,16.54,0,7.12,1.64,12.64,4.92,16.56,3.16,3.87,7.94,6.04,12.94,5.87,6.63.28,12.82-3.32,15.84-9.23h15.12c-1.67,6.53-5.42,12.33-10.69,16.54-5.34,4.35-12.09,6.52-20.27,6.52M468.05,369.95l10.54-26.38-28.32-69.85h16.48l19.12,49.43h.63l19.15-49.43h16.47l-38.26,96.23h-15.81ZM436.03,279.23c-5.08-4.56-12.19-6.84-21.33-6.84-7.3,0-13.41,1.96-18.35,5.89-4.88,3.82-8.32,9.19-9.77,15.22h15.57c.79-2.28,2.3-4.25,4.31-5.6,2.43-1.63,5.32-2.44,8.24-2.33,4.28,0,7.65,1.09,10.12,3.28,2.55,2.36,3.91,5.74,3.69,9.21v3.35h-17.84c-8.2,0-14.65,2.05-19.33,6.15-4.54,3.87-7.1,9.57-6.99,15.53-.18,5.88,2.19,11.56,6.5,15.57,4.33,4.1,10.07,6.15,17.23,6.15,4.43.11,8.81-.91,12.74-2.96,3.17-1.54,5.84-3.92,7.74-6.89h.63l1.31,8.61h13.17v-45.53c0-7.96-2.54-14.23-7.61-18.82M428.52,316.55c.19,4.2-1.5,8.26-4.61,11.07-3.05,2.72-7.22,4.08-12.52,4.08-3.85,0-6.8-.87-8.84-2.61-1.99-1.63-3.13-4.09-3.08-6.66.05-6.12,4.02-9.19,11.92-9.21h17.13v3.33ZM350.55,308.61c2.36-.63,4.61-1.51,6.77-2.66,2.51-1.37,4.84-3.01,6.99-4.92,2.58-2.38,4.58-5.33,5.82-8.61,1.49-3.86,2.23-7.97,2.18-12.11,0-8.79-2.8-15.83-8.41-21.12-5.62-5.29-12.92-7.92-21.9-7.9h-38.24v92.29h16.48v-34.25h12.5l23.75,34.23h18.46l-24.39-34.95ZM320.23,294.72v-28.92h20.41c4.68,0,8.37,1.23,11.07,3.8,2.71,2.58,4.08,6.09,4.08,10.66s-1.37,8.13-4.11,10.68c-3.01,2.61-6.92,3.98-10.92,3.78h-20.54Z"/>
    </g>
  </g>
</svg>