<?xml version="1.0" encoding="UTF-8"?>
<svg id="katman_1" data-name="katman 1" xmlns="http://www.w3.org/2000/svg" version="1.1" viewBox="0 0 841.89 595.28"  width="1000px" height="750px">
  <defs>
    <style>
      .cls-1 {
        fill: #ffffff;
      }

      .cls-1, .cls-2,cls-3 {
        stroke-width: 0px;
      }
      .cls-2 {
        fill: #ffffff;
      }
      .cls-3{
        fill: #181C1F;

      }
    </style>
  </defs>
  <path class="cls-1" d="M694.29,317.71c0,11.9,7.2,17.7,20.2,17.7,4.02-.12,8.01-.69,11.9-1.7v-13.8c-2.49.8-5.09,1.2-7.7,1.2-5.4,0-7.4-1.7-7.4-6.7v-21.2h15.6v-14.2h-15.6v-18l-17,3.7v14.3h-11.3v14.2h11.2l.1,24.5ZM641.29,318.01c0-3.7,3.7-5.5,9.3-5.5,3.41-.02,6.81.42,10.1,1.3v7.2c-3.24,1.79-6.9,2.69-10.6,2.6-5.5,0-8.8-2.1-8.8-5.6M646.49,335.61c5.45.17,10.83-1.33,15.4-4.3v3.4h16.8v-35.7c0-13.6-9.1-21-24.4-21-8.5,0-16.9,2-26,6.1l6.1,12.5c6.5-2.7,12-4.4,16.8-4.4,7,0,10.6,2.7,10.6,8.3v2.7c-4.11-1.08-8.35-1.62-12.6-1.6-14.3,0-22.9,6-22.9,16.7,0,9.8,7.8,17.3,20.2,17.3M554.09,334.71h18.1v-28.9h30.3v28.8h18.1v-73.6h-18.1v28.3h-30.3v-28.3h-18.1v73.7ZM485.19,306.81c0-8,6.3-14.1,14.6-14.1,4.33-.06,8.52,1.47,11.8,4.3v19.5c-3.19,2.99-7.43,4.61-11.8,4.5-8.2-.1-14.6-6.2-14.6-14.2M511.79,334.71h16.8v-77.4l-17,3.7v20.9c-4.32-2.47-9.22-3.74-14.2-3.7-16.2,0-28.9,12.5-28.9,28.5-.19,15.6,12.29,28.41,27.9,28.6,0,0,0,0,0,0h.5c5.35,0,10.56-1.67,14.9-4.8v4.2ZM434.59,291.91c5.4,0,9.9,3.5,11.7,8.8h-23.2c1.29-5.27,6.08-8.93,11.5-8.8M405.89,306.91c0,16.2,13.2,28.8,30.3,28.8,9.4,0,16.2-2.5,23.2-8.4l-11.3-10c-2.6,2.7-6.5,4.2-11.1,4.2-5.95.19-11.4-3.31-13.7-8.8h39.6v-4.2c0-17.7-11.9-30.4-28.1-30.4-15.76-.23-28.74,12.34-29,28.1.09.22.12.46.1.7M376.59,276.51c6,0,9.4,3.8,9.4,8.3s-3.4,8.3-9.4,8.3h-17.9v-16.6h17.9ZM340.59,334.61h18.1v-26.8h13.8l13.9,26.8h20.2l-16.2-29.5c8.41-3.43,13.91-11.61,13.9-20.7,0-13.2-10.4-23.5-26-23.5h-37.7v73.7Z"/>
  <path class="cls-2" d="M242.09,308.41c12.5,0,30.6-2.6,30.6-17.5,0-1.14-.1-2.28-.3-3.4l-7.4-32.4c-1.7-7.1-3.2-10.4-15.7-16.6-9.7-5-30.8-13.1-37.1-13.1-5.9,0-7.6,7.5-14.5,7.5s-11.6-5.6-17.9-5.6-9.9,4.1-12.9,12.5c0,0-8.4,23.7-9.5,27.2-.17.62-.23,1.26-.2,1.9-.1,9.2,36.2,39.4,84.9,39.5M274.59,297.01c1.7,8.2,1.7,9.1,1.7,10.1,0,14-15.7,21.8-36.4,21.8-46.8,0-87.7-27.4-87.7-45.5,0-2.51.51-4.99,1.5-7.3-16.8.8-38.6,3.8-38.6,23,0,31.5,74.6,70.3,133.6,70.3,45.3,0,56.7-20.5,56.7-36.7,0-12.7-11-27.1-30.8-35.7"/>
  <path class="cls-3" d="M274.59,297.01c1.7,8.2,1.7,9.1,1.7,10.1,0,14-15.7,21.8-36.4,21.8-46.8,0-87.7-27.4-87.7-45.5,0-2.51.51-4.99,1.5-7.3l3.7-9.1c-.17.62-.23,1.26-.2,1.9,0,9.2,36.3,39.4,84.9,39.4,12.5,0,30.6-2.6,30.6-17.5,0-1.14-.1-2.28-.3-3.4l2.2,9.6Z"/>
</svg>