<svg xmlns="http://www.w3.org/2000/svg" width="17" height="17" fill="none"><path stroke="#F4E28D" stroke-linejoin="round" d="M3.667 2.493a.65.65 0 0 1 .65-.65h6.156a.65.65 0 0 1 .469.2l1.266 1.317 1.277 1.328a.65.65 0 0 1 .181.45v9.055a.65.65 0 0 1-.65.65h-8.7a.65.65 0 0 1-.65-.65v-11.7z"/><path stroke="#F4E28D" stroke-linecap="round" stroke-linejoin="round" d="M10.479 2.168v2.425a.5.5 0 0 0 .5.5h2.263"/><path fill="#F4E28D" fill-rule="evenodd" d="M8.438 6.343a.622.622 0 0 0-.617.545l-.029.226a.271.271 0 0 1-.168.213.27.27 0 0 1-.27-.032l-.18-.14a.622.622 0 0 0-.82.051l-.324.324a.622.622 0 0 0-.051.821l.14.18c.06.076.07.18.032.27a.272.272 0 0 1-.215.169l-.225.028a.622.622 0 0 0-.545.617v.458c0 .314.234.578.545.617l.227.028a.27.27 0 0 1 .213.168.27.27 0 0 1-.032.269l-.14.18c-.193.247-.17.6.05.821l.325.324a.622.622 0 0 0 .82.051l.18-.14a.27.27 0 0 1 .27-.033c.09.038.156.118.168.214l.029.226a.622.622 0 0 0 .616.545h.459a.621.621 0 0 0 .616-.545l.029-.226a.271.271 0 0 1 .168-.213.27.27 0 0 1 .27.032l.18.14c.247.192.599.17.82-.051l.324-.324a.622.622 0 0 0 .051-.821l-.14-.18a.27.27 0 0 1-.032-.27.272.272 0 0 1 .215-.17l.225-.027a.622.622 0 0 0 .544-.617v-.458a.622.622 0 0 0-.545-.617l-.226-.028a.27.27 0 0 1-.213-.168.268.268 0 0 1 .032-.268l.14-.18a.622.622 0 0 0-.05-.822l-.325-.324a.622.622 0 0 0-.82-.05l-.18.139a.27.27 0 0 1-.27.033.271.271 0 0 1-.168-.214l-.029-.226a.622.622 0 0 0-.617-.545h-.457zm.228 5.25a1.75 1.75 0 1 0 0-3.5 1.75 1.75 0 0 0 0 3.5z" clip-rule="evenodd"/></svg>