<svg xmlns="http://www.w3.org/2000/svg" width="17" height="17" fill="none"><path fill="#F4E28D" fill-rule="evenodd" d="M3.706 3.3c-.73 0-1.323.592-1.323 1.323v7.44c0 .73.593 1.323 1.323 1.323h9.92c.731 0 1.323-.592 1.323-1.323v-7.44c0-.731-.592-1.323-1.322-1.323H3.706zM3.41 4.475a.33.33 0 0 1 .296-.183h9.92a.33.33 0 0 1 .297.183L10.16 8.777a1.984 1.984 0 0 1-2.987 0L3.41 4.475zm-.035 1.468v4.51L5.48 8.347 3.375 5.943zm0 5.912v.208c0 .183.148.33.331.33h9.92a.33.33 0 0 0 .331-.33v-.208l-2.759-2.759-.292.334a2.976 2.976 0 0 1-4.48 0l-.292-.334-2.759 2.76zm10.582-1.403v-4.51l-2.104 2.406 2.104 2.104z" clip-rule="evenodd"/></svg>