<svg xmlns="http://www.w3.org/2000/svg" width="24" height="24" fill="none"><path fill="#F4E28D" fill-rule="evenodd" d="M7.676 2.1h8.593V.985a.9.9 0 0 1 1.8 0V2.1h.23c1.99 0 3.6 1.4 3.6 3.126v13.548c0 1.726-1.61 3.126-3.6 3.126H5.7c-1.987 0-3.6-1.4-3.6-3.126V5.226C2.1 3.5 3.713 2.1 5.7 2.1h.177V.985a.9.9 0 1 1 1.8 0V2.1zM3.9 7.31V5.227c0-.863.806-1.563 1.8-1.563h.176v1.153a.9.9 0 1 0 1.8 0V3.663h8.593v1.153a.9.9 0 0 0 1.8 0V3.663h.23c.995 0 1.8.7 1.8 1.563v2.085H3.9zm0 1.564v9.9c0 .863.806 1.563 1.8 1.563h12.6c.994 0 1.8-.7 1.8-1.563v-9.9H3.9z" clip-rule="evenodd"/></svg>