<?xml version="1.0" encoding="utf-8"?>
<!-- Generator: Adobe Illustrator 26.0.3, SVG Export Plug-In . SVG Version: 6.00 Build 0)  -->
<svg version="1.0" id="katman_1" xmlns="http://www.w3.org/2000/svg" xmlns:xlink="http://www.w3.org/1999/xlink" x="0px" y="0px"
	 viewBox="0 0 600 450" style="enable-background:new 0 0 600 450;" xml:space="preserve" width="500" height="120">
<style type="text/css">
	.st0{fill:#ffffff;}
</style>
<g>
	<path class="st0" d="M164.9,172.5c-7.8,0-16.1,6-22.8,20.1l-8.6-20.7h-0.5c-1.4,3.3-5.8,5.1-10,5.1H77.5v0.9
		c3.6,1.5,6.8,6.8,9.8,13.9l28.2,68h0.9l18.3-44.3l18.3,44.3h0.9l15.6-38.9c6-15.3,10-23.7,10-31.3
		C179.5,179.6,173.9,172.5,164.9,172.5z M122.6,236.3l-18.3-44.4c-3-7.2-0.2-12.4,7.3-12.4c6.6,0,9.9,4.4,13.2,12.3l8.1,19.5
		L122.6,236.3z M166.4,219.7l-6.4,16.2l-16.9-40.6c4.1-6,9.5-8.3,15.7-8.3c7.4,0,11.8,5.1,11.8,14.2
		C170.6,206.2,169.3,212.4,166.4,219.7L166.4,219.7z"/>
	<path class="st0" d="M403.1,216.5c0-9-9.2-15.6-21-15.6c-17.8,0-29.9,15.4-29.9,31.5c0,17.6,13.4,28.1,26.7,28.1
		c10.7,0,21-6.5,24.2-17.8l-0.8-0.7c-3.6,5.4-9.9,8.3-16.2,8.3c-8.3,0-15-4.7-18.1-13.2C385.1,234.5,403.1,229.9,403.1,216.5
		L403.1,216.5z M367.3,234.6c-0.7-2.6-1-5.5-1-8.4c0-14.3,6-22.3,13.5-22.3c5.8,0,7.6,4.9,7.6,10.2
		C387.4,225,377.5,232.4,367.3,234.6z"/>
	<path class="st0" d="M511.7,199.3c-7.6,0-14.9,7.1-19.3,16.8l-7.5-15.8H484c-1.4,5.4-8.1,8.4-15.5,8.3v0.9
		c4.6,1.1,6.6,5.5,9.5,11.3l19.5,40.1l-1.3,2.4c-4.2,8.2-7,11.2-10,11.2c-5.4,0-5.8-7.8-12.3-7.8c-3.8,0-7,2.6-7,7.2
		c0,5.2,5.7,8.4,11.7,8.4c8.7,0,14.1-6.8,19.9-17.8l15.1-28.1c6-11.3,9.4-16.2,9.4-24.7C522.7,205,518.8,199.3,511.7,199.3
		L511.7,199.3z M510.7,235l-4.8,9.3l-12.4-26.1c2.4-4.2,6.6-7.6,12.8-7.6c5.8,0,8.9,3.6,8.9,9.6C515.1,224.3,513.7,229.3,510.7,235z
		"/>
	<path class="st0" d="M240.9,247.4v-33.9c0-7.6-4.7-12.6-11.8-12.6c-8.5,0-19.1,7.7-24.9,13.3v-45.8h-0.8
		c-3.4,5.4-12.2,8.7-20.7,8.4v0.9c4.8,1.3,6.3,4.7,6.3,11.3v58.4c0,4.9-2.2,8.9-6.2,10.5v0.9h27.7V258c-4.1-2.3-6.4-5.6-6.4-10.3
		V217c6.5-4.7,11.4-7,15.1-7c4.1,0,6.4,3,6.4,9v28.6c0,4.7-2.1,7.9-6.4,10.3v0.9H247V258C243.1,256.3,240.9,252.4,240.9,247.4
		L240.9,247.4z"/>
	<path class="st0" d="M446.8,200.9c-7.9,0-15.5,5.8-19.7,10.3v-42.8h-0.7c-4,5.4-13.1,8.7-21.2,8.4v0.9c4.5,1.3,6.6,4.8,6.6,11.3
		v70.9h1l7.3-8.1c3.2,5.1,9.2,8.1,16.5,8.1c18.3,0,30.8-15.6,30.8-32.6C467.4,211.8,457.6,200.9,446.8,200.9L446.8,200.9z
		 M436.1,257c-5.4,0-9-4.4-9-10.4v-32.3c3.6-3.2,7.7-6.1,12.2-6c7.7,0.1,12.1,8.8,12.2,22.1C451.7,245.4,445.5,257,436.1,257
		L436.1,257z"/>
	<path class="st0" d="M343.6,200.9c-6,0-12.7,6.5-15.7,12.6v-13.3H327c-3.7,5.4-12.5,8.6-20.8,8.4v0.9c4.5,1.3,6.7,4.9,6.7,11.3V247
		c0,5-2.2,9-6.6,11v0.9h28.4V258c-4.5-2-6.5-5.9-6.5-11v-30.7c1.6-2.1,3.5-4.3,5.7-4.3c4.1,0,5.7,4.9,10.8,4.9
		c3.5,0,7.2-2.9,7.2-7.7C351.9,204.4,348,200.9,343.6,200.9L343.6,200.9z"/>
	<path class="st0" d="M301.2,216.5c0-9-9.2-15.6-21-15.6c-17.8,0-29.9,15.4-29.9,31.5c0,17.6,13.4,28.1,26.7,28.1
		c10.7,0,21-6.5,24.2-17.8l-0.8-0.7c-3.6,5.4-9.9,8.3-16.2,8.3c-8.3,0-15-4.7-18.1-13.2C283.1,234.5,301.2,229.9,301.2,216.5
		L301.2,216.5z M265.3,234.6c-0.7-2.6-1-5.5-1-8.4c0-14.3,6-22.3,13.5-22.3c5.8,0,7.7,4.9,7.7,10.2
		C285.5,225,275.5,232.4,265.3,234.6z"/>
</g>
</svg>
