<svg xmlns="http://www.w3.org/2000/svg" width="678" height="588" fill="none"><path fill="url(#a)" d="M178.858 558.793h527.815v469.168H178.858z" transform="rotate(-90 178.858 558.793)"/><g stroke="#2D323A" stroke-width="1.3" opacity=".2"><path d="M167.619.65h40.563v58.646h-58.646V18.733c0-9.987 8.096-18.083 18.083-18.083zm-18.733 29.323h59.946M178.858 0v59.946"/><path d="M208.182.65h58.646v58.646h-58.646zm-.65 29.323h59.946M237.505 0v59.946M266.828.65h58.646v58.646h-58.646zm-.65 29.323h59.946M296.151 0v59.946M325.474.65h58.646v58.646h-58.646zm-.65 29.323h59.946M354.797 0v59.946M384.12.65h58.646v58.646H384.12zm-.65 29.323h59.946M413.442 0v59.946M442.766.65h58.646v58.646h-58.646zm-.65 29.323h59.946M472.089 0v59.946"/><path d="M501.412.65h58.646v58.646h-58.646zm-.65 29.323h59.946M530.734 0v59.946M560.058.65h58.646v58.646h-58.646zm-.65 29.323h59.946M589.381 0v59.946M618.705.65h40.563c9.987 0 18.083 8.096 18.083 18.083v40.563h-58.646V.65zm-.65 29.323h59.946M648.027 0v59.946m-498.491-.65h58.646v58.646h-58.646zm-.65 29.324h59.946m-29.974-29.974v59.946"/><path d="M208.182 59.296h58.646v58.646h-58.646zm-.65 29.324h59.946m-29.973-29.974v59.946m29.323-59.296h58.646v58.646h-58.646zm-.65 29.324h59.946m-29.973-29.974v59.946m29.323-59.296h58.646v58.646h-58.646zm-.65 29.324h59.946m-29.973-29.974v59.946m29.323-59.296h58.646v58.646H384.12zm-.65 29.324h59.946m-29.974-29.974v59.946m29.324-59.296h58.646v58.646h-58.646zm-.65 29.324h59.946m-29.973-29.974v59.946m29.323-59.296h58.646v58.646h-58.646zm-.65 29.324h59.946m-29.974-29.974v59.946m29.324-59.296h58.646v58.646h-58.646zm-.65 29.324h59.946m-29.973-29.974v59.946m29.324-59.296h58.646v58.646h-58.646zm-.65 29.324h59.946m-29.974-29.974v59.946m-498.491-.65h58.646v58.646h-58.646zm-.65 29.323h59.946m-29.974-29.973v59.946"/><path d="M208.182 117.942h58.646v58.646h-58.646zm-.65 29.323h59.946m-29.973-29.973v59.946m29.323-59.296h58.646v58.646h-58.646zm-.65 29.323h59.946m-29.973-29.973v59.946m29.323-59.296h58.646v58.646h-58.646zm-.65 29.323h59.946m-29.973-29.973v59.946m29.323-59.296h58.646v58.646H384.12zm-.65 29.323h59.946m-29.974-29.973v59.946m29.324-59.296h58.646v58.646h-58.646zm-.65 29.323h59.946m-29.973-29.973v59.946m29.323-59.296h58.646v58.646h-58.646zm-.65 29.323h59.946m-29.974-29.973v59.946m29.324-59.296h58.646v58.646h-58.646zm-.65 29.323h59.946m-29.973-29.973v59.946m29.324-59.296h58.646v58.646h-58.646zm-.65 29.323h59.946m-29.974-29.973v59.946m-498.491-.65h58.646v58.646h-58.646zm-.65 29.323h59.946m-29.974-29.973v59.946"/><path d="M208.182 176.588h58.646v58.646h-58.646zm-.65 29.323h59.946m-29.973-29.973v59.947m29.323-59.297h58.646v58.646h-58.646zm-.65 29.323h59.946m-29.973-29.973v59.947m29.323-59.297h58.646v58.646h-58.646zm-.65 29.323h59.946m-29.973-29.973v59.946m29.323-59.296h58.646v58.646H384.12zm-.65 29.323h59.946m-29.974-29.973v59.946m29.324-59.296h58.646v58.646h-58.646zm-.65 29.323h59.946m-29.973-29.973v59.946m29.323-59.296h58.646v58.646h-58.646zm-.65 29.323h59.946m-29.974-29.973v59.946m29.324-59.296h58.646v58.646h-58.646zm-.65 29.323h59.946m-29.973-29.973v59.946m29.324-59.296h58.646v58.646h-58.646zm-.65 29.323h59.946m-29.974-29.973v59.947m-498.491-.651h58.646v58.646h-58.646zm-.65 29.323h59.946m-29.974-29.973v59.947m29.324-59.297h58.646v58.646h-58.646zm-.65 29.323h59.946m-29.973-29.973v59.947m29.323-59.297h58.646v58.646h-58.646zm-.65 29.323h59.946m-29.973-29.973v59.947m29.323-59.297h58.646v58.646h-58.646zm-.65 29.323h59.946m-29.973-29.973v59.947m29.323-59.297h58.646v58.646H384.12zm-.65 29.323h59.946m-29.974-29.973v59.947m29.324-59.297h58.646v58.646h-58.646zm-.65 29.323h59.946m-29.973-29.973v59.947m29.323-59.297h58.646v58.646h-58.646zm-.65 29.323h59.946m-29.974-29.973v59.947m29.324-59.297h58.646v58.646h-58.646zm-.65 29.323h59.946m-29.973-29.973v59.947m29.324-59.297h58.646v58.646h-58.646zm-.65 29.323h59.946m-29.974-29.973v59.947m-498.491-.65h58.646v58.646h-58.646zm-.65 29.322h59.946m-29.974-29.973v59.947m29.324-59.296h58.646v58.646h-58.646zm-.65 29.322h59.946m-29.973-29.973v59.946m29.323-59.295h58.646v58.646h-58.646zm-.65 29.322h59.946m-29.973-29.973v59.946m29.323-59.295h58.646v58.646h-58.646zm-.65 29.322h59.946m-29.973-29.973v59.947m29.324-59.296h58.646v58.646h-58.646zm-.65 29.322h59.946m-29.974-29.973v59.947"/><path d="M442.766 293.88h58.646v58.646h-58.646zm-.65 29.323h59.946m-29.973-29.973v59.946m29.324-59.295h58.646v58.646h-58.646zm-.65 29.322h59.946m-29.974-29.973v59.946m29.324-59.295h58.646v58.646h-58.646zm-.65 29.322h59.946m-29.973-29.973v59.947m29.323-59.296h58.646v58.646h-58.646zm-.65 29.322h59.946m-29.974-29.973v59.946m-498.491-.649h58.646v58.646h-58.646zm-.65 29.323h59.946m-29.974-29.973v59.946"/><path d="M208.182 352.527h58.646v58.646h-58.646zm-.65 29.323h59.946m-29.973-29.974v59.947m29.323-59.296h58.646v58.646h-58.646zm-.65 29.323h59.946m-29.973-29.974v59.947m29.323-59.296h58.646v58.646h-58.646zm-.65 29.323h59.946m-29.973-29.973v59.946m29.324-59.296h58.646v58.646h-58.646zm-.65 29.323h59.946m-29.974-29.973v59.946"/><path d="M442.766 352.527h58.646v58.646h-58.646zm-.65 29.323h59.946m-29.973-29.974v59.947m29.324-59.296h58.646v58.646h-58.646zm-.65 29.323h59.946m-29.974-29.974v59.947m29.324-59.296h58.646v58.646h-58.646zm-.65 29.323h59.946m-29.973-29.973v59.946m29.323-59.296h58.646v58.646h-58.646zm-.65 29.323h59.946m-29.974-29.974v59.947m-498.491-.65h58.646v58.646h-58.646zm-.65 29.323h59.946m-29.974-29.973v59.947"/><path d="M208.182 411.173h58.646v58.646h-58.646zm-.65 29.323h59.946m-29.973-29.973v59.947m29.323-59.297h58.646v58.646h-58.646zm-.65 29.323h59.946m-29.973-29.973v59.947m29.323-59.297h58.646v58.646h-58.646zm-.65 29.323h59.946m-29.973-29.973v59.947m29.323-59.297h58.646v58.646H384.12zm-.65 29.323h59.946m-29.974-29.973v59.947m29.324-59.297h58.646v58.646h-58.646zm-.65 29.323h59.946m-29.973-29.973v59.947"/><path d="M501.412 411.173h58.646v58.646h-58.646zm-.65 29.323h59.946m-29.974-29.973v59.947m29.324-59.297h58.646v58.646h-58.646zm-.65 29.323h59.946m-29.973-29.973v59.947m29.324-59.297h58.646v58.646h-58.646zm-.65 29.323h59.946m-29.974-29.973v59.947m-498.491-.651h58.646v58.646h-58.646zm-.65 29.323h59.946m-29.974-29.973v59.946m29.324-59.296h58.646v58.646h-58.646zm-.65 29.323h59.946m-29.973-29.973v59.946m29.323-59.296h58.646v58.646h-58.646zm-.65 29.323h59.946m-29.973-29.973v59.946m29.323-59.296h58.646v58.646h-58.646zm-.65 29.323h59.946m-29.973-29.973v59.946m29.323-59.296h58.646v58.646H384.12zm-.65 29.323h59.946m-29.974-29.973v59.946m29.324-59.296h58.646v58.646h-58.646zm-.65 29.323h59.946m-29.973-29.973v59.946"/><path d="M501.412 469.819h58.646v58.646h-58.646zm-.65 29.323h59.946m-29.974-29.973v59.946m29.324-59.296h58.646v58.646h-58.646zm-.65 29.323h59.946m-29.973-29.973v59.946m29.324-59.296h58.646v58.646h-58.646zm-.65 29.323h59.946m-29.974-29.973v59.946m-498.491-.65h58.646v58.646h-40.563c-9.987 0-18.083-8.096-18.083-18.083v-40.563zm-.65 29.323h59.946m-29.974-29.973v59.947m29.324-59.297h58.646v58.646h-58.646zm-.65 29.323h59.946m-29.973-29.972v59.946m29.323-59.297h58.646v58.646h-58.646zm-.65 29.323h59.946m-29.973-29.972v59.946m29.323-59.297h58.646v58.646h-58.646zm-.65 29.323h59.946m-29.973-29.973v59.947m29.323-59.297h58.646v58.646H384.12zm-.65 29.323h59.946m-29.974-29.973v59.947m29.324-59.297h58.646v58.646h-58.646zm-.65 29.323h59.946m-29.973-29.973v59.947"/><path d="M501.412 528.465h58.646v58.646h-58.646zm-.65 29.323h59.946m-29.974-29.972v59.946m29.324-59.297h58.646v58.646h-58.646zm-.65 29.323h59.946m-29.973-29.973v59.947m29.324-59.297h58.646v40.563c0 9.987-8.096 18.083-18.083 18.083h-40.563v-58.646zm-.65 29.323h59.946m-29.974-29.972v59.946"/></g><g stroke="#2D323A" stroke-width="1.3" opacity=".2"><path d="M18.733 235.234h40.563v58.646H.65v-40.562c0-9.987 8.096-18.084 18.083-18.084zM0 264.557h59.946m-29.973-29.973v59.947m29.324-59.297H99.86c9.987 0 18.083 8.097 18.083 18.084v40.562H59.297v-58.646zm-.65 29.323h59.946M88.62 234.584v59.947"/><path d="M.65 293.88h58.646v58.646H18.733C8.746 352.526.65 344.43.65 334.443V293.88zM0 323.204h59.946m-29.973-29.973v59.946m29.324-59.296h58.646v40.562c0 9.988-8.096 18.084-18.084 18.084H59.297v-58.646zm-.65 29.323h59.946M88.62 293.231v59.946"/></g><g clip-path="url(#b)" filter="url(#c)"><rect width="59.604" height="59.604" x="29.477" y="264.078" fill="#181C1F" rx="11.981"/><g clip-path="url(#d)"><path stroke="#BBDDE5" stroke-width="1.56" d="M73.605 294.5c.205-.306.371-.633.527-.999a5.9 5.9 0 0 0 .527.999 6.101 6.101 0 0 0 1.409 1.486c.354.266.741.477 1.189.684a6.428 6.428 0 0 0-1.19.684 6.101 6.101 0 0 0-1.408 1.486 5.942 5.942 0 0 0-.527.998 5.934 5.934 0 0 0-.527-.998 6.103 6.103 0 0 0-1.409-1.486 6.428 6.428 0 0 0-1.19-.684 6.428 6.428 0 0 0 1.19-.684 6.103 6.103 0 0 0 1.409-1.486l-.648-.434.648.434zm-5.169-14.749c.374-.558.649-1.171.931-1.917.282.746.557 1.359.931 1.917a7.93 7.93 0 0 0 1.832 1.932c.593.445 1.26.774 2.099 1.134-.838.359-1.506.688-2.1 1.133a7.946 7.946 0 0 0-1.83 1.932c-.375.558-.65 1.171-.932 1.917-.282-.746-.557-1.359-.93-1.917a7.946 7.946 0 0 0-1.832-1.932c-.594-.445-1.261-.774-2.1-1.133.839-.36 1.506-.689 2.1-1.134a7.928 7.928 0 0 0 1.831-1.932z"/><path fill="#BBDDE5" d="M61.551 303.662 61 303.11l-1.103 1.104.552.551 1.103-1.103zm5.212 7.418a.78.78 0 1 0 1.103-1.103l-1.103 1.103zm-3.099-16.051c0 6.544-5.305 11.849-11.85 11.849v1.561c7.407 0 13.41-6.004 13.41-13.41h-1.56zm-11.85 11.849c-6.544 0-11.85-5.305-11.85-11.849h-1.56c0 7.406 6.004 13.41 13.41 13.41v-1.561zm-11.85-11.849c0-6.545 5.306-11.85 11.85-11.85v-1.56c-7.406 0-13.41 6.004-13.41 13.41h1.56zm11.85-11.85c6.545 0 11.85 5.305 11.85 11.85h1.56c0-7.406-6.004-13.41-13.41-13.41v1.56zm8.634 21.586 6.315 6.315 1.103-1.103-6.315-6.315-1.103 1.103z"/></g></g><rect width="410.844" height="469.35" x="208.022" y="59.505" fill="#181C1F" fill-opacity=".95" rx="5.201"/><path fill="#F2F7F7" d="m242.466 89.269 2.111-7.646h2.125l-3.055 10.332h-2.48l-2.155-7.66-2.214 7.66h-2.494l-2.952-10.332h2.125l2.126 7.572 2.169-7.572h2.583l2.111 7.646zm9.273 2.686h-2.036V81.623h5.756c2.067 0 3.528 1.195 3.528 2.82 0 1.328-.812 2.228-1.653 2.523 1.077 0 1.446.487 1.446 1.52v3.47h-2.037v-3.027c0-.694-.206-.885-.9-.885h-4.104v3.911zm0-8.531v2.819h3.499c.974 0 1.55-.517 1.55-1.417 0-.827-.576-1.402-1.55-1.402h-3.499zm13.094 8.531h-2.036V81.623h2.036v10.332zm9.291 0h-2.037v-8.531h-4.163v-1.801h10.362v1.8h-4.162v8.532zm9.287-4.413v2.612h7.247v1.801h-9.284V81.623h9.136v1.8h-7.099v2.318h6.214v1.8h-6.214zm25.77 1.727 2.111-7.646h2.126l-3.056 10.332h-2.479l-2.155-7.66-2.215 7.66h-2.494l-2.952-10.332h2.125l2.126 7.572 2.17-7.572h2.583l2.11 7.646zm9.274 2.686h-2.037V81.623h2.037v10.332zm9.29 0h-2.037v-8.531h-4.162v-1.801h10.361v1.8h-4.162v8.532zm9.287 0h-2.037V81.623h2.037v4.25h5.889v-4.25h2.037v10.332h-2.037v-4.28h-5.889v4.28zm27.542 0h-2.199l-1.107-2.42h-5.343l-1.107 2.42h-2.155l4.826-10.332h2.273l4.812 10.332zm-5.978-8.221-1.845 4h3.69l-1.845-4zm10.813 8.221h-2.036V81.623h2.036v10.332z"/><path fill="#BBDDE5" fill-rule="evenodd" d="M246.251 125.617a3.596 3.596 0 0 1 5.088 0l.489.489a3.598 3.598 0 0 1 0 5.088l-8.86 8.86a3.6 3.6 0 0 1-1.858.988l-4.632.898a.829.829 0 0 1-.974-.973l.899-4.632a3.607 3.607 0 0 1 .988-1.859l8.86-8.859zm3.914 1.174a1.937 1.937 0 0 0-2.74 0l-8.219 8.219 3.229 3.229 8.219-8.219a1.937 1.937 0 0 0 0-2.74l-.489-.489zm-9.012 12.514-3.013-3.013a1.937 1.937 0 0 0-.107.36l-.664 3.424 3.424-.664c.124-.024.244-.06.36-.107zm-5.65 5.699a.83.83 0 0 1 .83-.831h19.027a.83.83 0 1 1 0 1.661h-19.027a.83.83 0 0 1-.83-.83z" clip-rule="evenodd"/><path fill="#fff" d="M286.727 141.298c-4.16 0-6.697-3.145-6.697-7.306 0-4.16 2.537-7.306 6.697-7.306 3.045 0 5.48 1.786 5.683 4.668h-2.03c-.202-1.725-1.623-2.842-3.551-2.842h-.203c-2.943 0-4.567 2.436-4.567 5.48 0 3.044 1.624 5.48 4.567 5.48h.203c1.928 0 3.349-1.116 3.551-2.842h2.03c-.203 2.882-2.638 4.668-5.683 4.668zm12.363 0c-2.74 0-4.871-2.131-4.871-5.276 0-3.146 2.131-5.277 4.871-5.277 2.74 0 4.871 2.131 4.871 5.277 0 3.145-2.131 5.276-4.871 5.276zm-2.943-5.276c0 2.334 1.218 3.653 2.862 3.653h.162c1.644 0 2.862-1.319 2.862-3.653s-1.218-3.654-2.862-3.654h-.162c-1.644 0-2.862 1.32-2.862 3.654zm10.236 5.073v-10.147h1.928v1.42c.609-.913 1.624-1.623 3.247-1.623 2.334 0 3.654 1.42 3.654 3.552v6.798h-1.928v-6.393c0-1.42-.609-2.334-2.05-2.334h-.163c-1.441 0-2.76 1.117-2.76 3.045v5.682h-1.928zm14.982 0c-1.421 0-2.233-.811-2.233-2.232v-6.251H316.9v-1.664h2.232v-3.288h1.928v3.288h2.436v1.664h-2.436v5.947c0 .608.203.811.812.811h1.928v1.725h-2.435zm4.521 0v-10.147h1.928v10.147h-1.928zm-.102-11.974v-2.232h2.131v2.232h-2.131zm5.076 11.974v-10.147h1.928v1.42c.609-.913 1.624-1.623 3.248-1.623 2.334 0 3.653 1.42 3.653 3.552v6.798h-1.928v-6.393c0-1.42-.609-2.334-2.05-2.334h-.162c-1.441 0-2.761 1.117-2.761 3.045v5.682h-1.928zm15.122.203c-2.273 0-3.45-1.522-3.45-3.653v-6.697h1.928v6.291c0 1.624.67 2.436 2.05 2.436h.162c1.299 0 2.557-1.218 2.557-3.247v-5.48h1.928v10.147h-1.928v-1.928c-.385 1.117-1.481 2.131-3.247 2.131zm12.407 0c-2.517 0-4.79-1.745-4.79-5.297 0-3.511 2.334-5.256 4.729-5.256 2.638 0 4.303 1.826 4.303 4.465v1.116h-7.104c.122 2.314 1.604 3.349 2.842 3.349h.162c.994 0 1.948-.508 2.151-1.583h1.928c-.365 2.05-2.131 3.206-4.221 3.206zm-2.74-6.494h5.054c-.082-1.766-1.137-2.436-2.294-2.436h-.162c-1.056 0-2.233.63-2.598 2.436zm16.464 6.291-3.146-10.147h2.03l2.232 8.016 2.233-8.016h2.029l2.334 8.016 2.131-8.016h2.03l-3.146 10.147h-2.131l-2.232-7.935-2.233 7.935h-2.131zm13.807 0v-10.147h1.826v2.232c.406-1.522 1.624-2.334 2.943-2.334h.913v1.867h-.812c-1.826 0-2.942 1.218-2.942 3.248v5.134h-1.928zm7.63 0v-10.147h1.928v10.147h-1.928zm-.101-11.974v-2.232h2.131v2.232h-2.131zm8.364 11.974c-1.421 0-2.233-.811-2.233-2.232v-6.251h-2.232v-1.664h2.232v-3.288h1.928v3.288h2.436v1.664h-2.436v5.947c0 .608.203.811.812.811h1.928v1.725h-2.435zm4.521 0v-10.147h1.928v10.147h-1.928zm-.102-11.974v-2.232h2.131v2.232h-2.131zm5.077 11.974v-10.147h1.928v1.42c.609-.913 1.623-1.623 3.247-1.623 2.334 0 3.653 1.42 3.653 3.552v6.798h-1.928v-6.393c0-1.42-.609-2.334-2.05-2.334h-.162c-1.441 0-2.76 1.117-2.76 3.045v5.682h-1.928zm15.69 4.465c-2.842 0-4.506-1.319-4.709-3.145h1.928c.203 1.014 1.299 1.522 2.679 1.522h.203c1.725 0 2.943-.913 2.943-3.044v-1.421c-.508.812-1.522 1.623-3.044 1.623-2.334 0-4.506-1.623-4.506-5.175 0-3.552 2.111-5.175 4.506-5.175 1.522 0 2.638.812 3.044 1.623v-1.42h1.928v10.147c0 2.537-1.827 4.465-4.972 4.465zm-2.578-9.64c0 2.537 1.218 3.552 2.659 3.552h.162c1.4 0 2.801-1.319 2.801-3.552 0-2.232-1.299-3.552-2.699-3.552h-.163c-1.441 0-2.76 1.015-2.76 3.552z"/><path fill="#BBDDE5" d="M251.718 187.393a.83.83 0 0 1 .83.83v1.591h1.591a.83.83 0 1 1 0 1.661h-1.591v1.591a.83.83 0 1 1-1.661 0v-1.591h-1.591a.83.83 0 0 1 0-1.661h1.591v-1.591a.83.83 0 0 1 .831-.83z"/><path fill="#BBDDE5" fill-rule="evenodd" d="M236.713 177.066a.83.83 0 0 1 .83-.83h16.605a.83.83 0 1 1 0 1.66h-16.605a.83.83 0 0 1-.83-.83zm0 6.797a.83.83 0 0 1 .83-.83h16.605a.83.83 0 1 1 0 1.661h-16.605a.83.83 0 0 1-.83-.831zm0 6.798a.83.83 0 0 1 .83-.831h2.491a.83.83 0 0 1 0 1.661h-2.491a.83.83 0 0 1-.83-.83zm5.812 0a.83.83 0 0 1 .83-.831h2.491a.83.83 0 0 1 0 1.661h-2.491a.83.83 0 0 1-.83-.83z" clip-rule="evenodd"/><path fill="#BBDDE5" d="M251.718 187.393a.83.83 0 0 1 .83.83v1.591h1.591a.83.83 0 1 1 0 1.661h-1.591v1.591a.83.83 0 1 1-1.661 0v-1.591h-1.591a.83.83 0 0 1 0-1.661h1.591v-1.591a.83.83 0 0 1 .831-.83z"/><path fill="#BBDDE5" fill-rule="evenodd" d="M236.713 177.066a.83.83 0 0 1 .83-.83h16.605a.83.83 0 1 1 0 1.66h-16.605a.83.83 0 0 1-.83-.83zm0 6.797a.83.83 0 0 1 .83-.83h16.605a.83.83 0 1 1 0 1.661h-16.605a.83.83 0 0 1-.83-.831zm0 6.798a.83.83 0 0 1 .83-.831h2.491a.83.83 0 0 1 0 1.661h-2.491a.83.83 0 0 1-.83-.83zm5.812 0a.83.83 0 0 1 .83-.831h2.491a.83.83 0 0 1 0 1.661h-2.491a.83.83 0 0 1-.83-.83z" clip-rule="evenodd"/><path fill="#BBDDE5" d="M251.718 187.393a.83.83 0 0 1 .83.83v1.591h1.591a.83.83 0 1 1 0 1.661h-1.591v1.591a.83.83 0 1 1-1.661 0v-1.591h-1.591a.83.83 0 0 1 0-1.661h1.591v-1.591a.83.83 0 0 1 .831-.83z"/><path fill="#BBDDE5" fill-rule="evenodd" d="M236.713 177.066a.83.83 0 0 1 .83-.83h16.605a.83.83 0 1 1 0 1.66h-16.605a.83.83 0 0 1-.83-.83zm0 6.797a.83.83 0 0 1 .83-.83h16.605a.83.83 0 1 1 0 1.661h-16.605a.83.83 0 0 1-.83-.831zm0 6.798a.83.83 0 0 1 .83-.831h2.491a.83.83 0 0 1 0 1.661h-2.491a.83.83 0 0 1-.83-.83zm5.812 0a.83.83 0 0 1 .83-.831h2.491a.83.83 0 0 1 0 1.661h-2.491a.83.83 0 0 1-.83-.83z" clip-rule="evenodd"/><path fill="#fff" d="M280.882 189.989v-14.207h10.351v1.827h-8.321v4.16h7.103v1.827h-7.103v4.566h8.524v1.827h-10.554zm11.758 0 3.755-5.115-3.653-5.033h2.253l2.536 3.491 2.558-3.491h2.192l-3.654 4.993 3.755 5.155h-2.253l-2.638-3.633-2.659 3.633h-2.192zm11.603 4.059v-14.207h1.928v1.421c.507-.914 1.928-1.624 3.348-1.624 2.537 0 4.364 1.928 4.364 5.277s-2.03 5.277-4.567 5.277c-1.42 0-2.638-.711-3.145-1.624v5.48h-1.928zm1.928-9.133c0 2.435 1.42 3.653 2.861 3.653h.163c1.542 0 2.76-1.218 2.76-3.653 0-2.436-1.218-3.653-2.76-3.653h-.163c-1.441 0-2.861 1.217-2.861 3.653zm10.162 5.074v-14.207h1.928v14.207h-1.928zm8.851.203c-2.537 0-4.465-1.928-4.465-5.277s1.928-5.277 4.465-5.277c1.725 0 2.638.71 3.247 1.624v-1.421h1.928v10.148h-1.928v-1.421c-.609.913-1.522 1.624-3.247 1.624zm-2.537-5.277c0 2.435 1.218 3.653 2.74 3.653h.203c1.42 0 2.841-1.218 2.841-3.653 0-2.436-1.421-3.653-2.841-3.653h-.203c-1.522 0-2.74 1.217-2.74 3.653zm10.75 5.074v-10.148h1.928v10.148h-1.928zm-.101-11.975v-2.232h2.131v2.232h-2.131zm5.076 11.975v-10.148h1.928v1.421c.609-.914 1.624-1.624 3.247-1.624 2.334 0 3.654 1.421 3.654 3.552v6.799h-1.928v-6.393c0-1.421-.609-2.334-2.05-2.334h-.163c-1.441 0-2.76 1.116-2.76 3.044v5.683h-1.928zm11.59 0v-2.436h2.436v2.436h-2.436zm5.114 0v-2.436h2.435v2.436h-2.435zm5.113 0v-2.436h2.436v2.436h-2.436z"/><path fill="#BBDDE5" d="M251.718 236.287a.83.83 0 0 1 .83.83v1.592h1.591a.83.83 0 1 1 0 1.66h-1.591v1.591a.83.83 0 1 1-1.661 0v-1.591h-1.591a.83.83 0 0 1 0-1.66h1.591v-1.592a.83.83 0 0 1 .831-.83z"/><path stroke="#BBDDE5" stroke-linecap="round" stroke-width="1.661" d="M237.543 225.96h16.605m-16.605 6.798h16.605"/><path stroke="#BBDDE5" stroke-dasharray="4.15 2.77" stroke-linecap="round" stroke-width="1.661" d="M237.543 239.555h8.303"/><path fill="#fff" d="m282.973 238.883-3.451-14.207h2.111l2.781 11.994 2.902-11.994h2.659l2.821 12.096 2.679-12.096h2.11l-3.45 14.207h-2.74l-2.841-11.873-2.841 11.873h-2.74zm16.255 0v-10.148h1.827v2.232c.406-1.522 1.623-2.334 2.943-2.334h.913v1.868h-.812c-1.827 0-2.943 1.217-2.943 3.247v5.135h-1.928zm7.631 0v-10.148h1.928v10.148h-1.928zm-.102-11.975v-2.232h2.131v2.232h-2.131zm8.364 11.975c-1.42 0-2.232-.812-2.232-2.233v-6.251h-2.233v-1.664h2.233v-3.288h1.928v3.288h2.435v1.664h-2.435v5.947c0 .609.203.811.812.811h1.928v1.726h-2.436zm8.583.203c-2.516 0-4.789-1.746-4.789-5.298 0-3.511 2.334-5.256 4.729-5.256 2.638 0 4.302 1.827 4.302 4.465v1.116h-7.103c.122 2.314 1.603 3.349 2.841 3.349h.162c.995 0 1.949-.507 2.152-1.583h1.928c-.365 2.05-2.131 3.207-4.222 3.207zm-2.739-6.495h5.053c-.081-1.766-1.136-2.435-2.293-2.435h-.163c-1.055 0-2.232.629-2.597 2.435zm18.311 6.495c-2.537 0-4.465-1.929-4.465-5.277 0-3.349 1.928-5.277 4.465-5.277 1.725 0 2.638.71 3.247 1.624v-1.421h1.928v10.148h-1.928v-1.421c-.609.913-1.522 1.624-3.247 1.624zm-2.537-5.277c0 2.435 1.217 3.653 2.74 3.653h.202c1.421 0 2.842-1.218 2.842-3.653 0-2.436-1.421-3.653-2.842-3.653h-.202c-1.523 0-2.74 1.217-2.74 3.653zm15.705 9.133v-14.207h1.928v1.421c.508-.914 1.928-1.624 3.349-1.624 2.537 0 4.363 1.928 4.363 5.277 0 3.348-2.029 5.277-4.566 5.277-1.421 0-2.638-.711-3.146-1.624v5.48h-1.928zm1.928-9.133c0 2.435 1.421 3.653 2.862 3.653h.162c1.543 0 2.76-1.218 2.76-3.653 0-2.436-1.217-3.653-2.76-3.653h-.162c-1.441 0-2.862 1.217-2.862 3.653zm14.039 5.277c-2.537 0-4.465-1.929-4.465-5.277 0-3.349 1.928-5.277 4.465-5.277 1.725 0 2.638.71 3.247 1.624v-1.421h1.928v10.148h-1.928v-1.421c-.609.913-1.522 1.624-3.247 1.624zm-2.537-5.277c0 2.435 1.217 3.653 2.739 3.653h.203c1.421 0 2.842-1.218 2.842-3.653 0-2.436-1.421-3.653-2.842-3.653h-.203c-1.522 0-2.739 1.217-2.739 3.653zm10.75 5.074v-10.148h1.827v2.232c.406-1.522 1.623-2.334 2.943-2.334h.913v1.868h-.812c-1.827 0-2.943 1.217-2.943 3.247v5.135h-1.928zm11.23.203c-2.537 0-4.465-1.929-4.465-5.277 0-3.349 1.928-5.277 4.465-5.277 1.725 0 2.638.71 3.247 1.624v-1.421h1.928v10.148h-1.928v-1.421c-.609.913-1.522 1.624-3.247 1.624zm-2.537-5.277c0 2.435 1.217 3.653 2.74 3.653h.203c1.42 0 2.841-1.218 2.841-3.653 0-2.436-1.421-3.653-2.841-3.653h-.203c-1.523 0-2.74 1.217-2.74 3.653zm14.667 9.539c-2.841 0-4.505-1.32-4.708-3.146h1.928c.203 1.015 1.299 1.522 2.679 1.522h.203c1.725 0 2.943-.913 2.943-3.044v-1.421c-.508.812-1.523 1.624-3.045 1.624-2.334 0-4.505-1.624-4.505-5.176 0-3.551 2.11-5.175 4.505-5.175 1.522 0 2.639.812 3.045 1.624v-1.421h1.928v10.148c0 2.536-1.827 4.465-4.973 4.465zm-2.577-9.641c0 2.537 1.217 3.552 2.658 3.552h.163c1.4 0 2.801-1.319 2.801-3.552 0-2.232-1.299-3.551-2.7-3.551h-.162c-1.441 0-2.76 1.014-2.76 3.551zm10.592 5.176v-10.148h1.826v2.232c.406-1.522 1.624-2.334 2.943-2.334h.913v1.868h-.811c-1.827 0-2.943 1.217-2.943 3.247v5.135h-1.928zm11.229.203c-2.537 0-4.465-1.929-4.465-5.277 0-3.349 1.928-5.277 4.465-5.277 1.725 0 2.639.71 3.248 1.624v-1.421h1.928v10.148h-1.928v-1.421c-.609.913-1.523 1.624-3.248 1.624zm-2.537-5.277c0 2.435 1.218 3.653 2.74 3.653h.203c1.421 0 2.842-1.218 2.842-3.653 0-2.436-1.421-3.653-2.842-3.653h-.203c-1.522 0-2.74 1.217-2.74 3.653zm10.751 9.133v-14.207h1.928v1.421c.507-.914 1.928-1.624 3.349-1.624 2.537 0 4.363 1.928 4.363 5.277 0 3.348-2.029 5.277-4.566 5.277-1.421 0-2.639-.711-3.146-1.624v5.48h-1.928zm1.928-9.133c0 2.435 1.421 3.653 2.862 3.653h.162c1.542 0 2.76-1.218 2.76-3.653 0-2.436-1.218-3.653-2.76-3.653h-.162c-1.441 0-2.862 1.217-2.862 3.653zm10.162 5.074v-14.207h1.928v5.48c.609-.914 1.624-1.624 3.247-1.624 2.334 0 3.653 1.421 3.653 3.552v6.799h-1.928v-6.393c0-1.421-.609-2.334-2.05-2.334h-.162c-1.441 0-2.76 1.116-2.76 3.044v5.683h-1.928zm20.604.203c-2.537 0-4.465-1.929-4.465-5.277 0-3.349 1.928-5.277 4.465-5.277 1.725 0 2.639.71 3.247 1.624v-1.421h1.928v10.148h-1.928v-1.421c-.608.913-1.522 1.624-3.247 1.624zm-2.537-5.277c0 2.435 1.218 3.653 2.74 3.653h.203c1.421 0 2.841-1.218 2.841-3.653 0-2.436-1.42-3.653-2.841-3.653h-.203c-1.522 0-2.74 1.217-2.74 3.653zm16.028 5.277c-1.421 0-2.842-.711-3.349-1.624v1.421h-1.928v-14.207h1.928v5.48c.507-.914 1.725-1.624 3.146-1.624 2.536 0 4.566 1.928 4.566 5.277 0 3.348-1.827 5.277-4.363 5.277zm-3.349-5.277c0 2.435 1.42 3.653 2.861 3.653h.163c1.542 0 2.76-1.218 2.76-3.653 0-2.436-1.218-3.653-2.76-3.653h-.163c-1.441 0-2.861 1.217-2.861 3.653zm14.403 5.277c-2.739 0-4.87-2.131-4.87-5.277 0-3.146 2.131-5.277 4.87-5.277 2.74 0 4.871 2.131 4.871 5.277 0 3.146-2.131 5.277-4.871 5.277zm-2.942-5.277c0 2.334 1.217 3.653 2.861 3.653h.163c1.644 0 2.861-1.319 2.861-3.653s-1.217-3.653-2.861-3.653h-.163c-1.644 0-2.861 1.319-2.861 3.653zm13.585 5.277c-2.274 0-3.451-1.523-3.451-3.654v-6.697h1.928v6.291c0 1.624.67 2.436 2.05 2.436h.163c1.299 0 2.557-1.218 2.557-3.247v-5.48h1.928v10.148h-1.928v-1.928c-.386 1.116-1.482 2.131-3.247 2.131zm11.513-.203c-1.42 0-2.232-.812-2.232-2.233v-6.251h-2.233v-1.664h2.233v-3.288h1.928v3.288h2.435v1.664h-2.435v5.947c0 .609.203.811.812.811h1.928v1.726h-2.436zm4.339 0v-2.436h2.435v2.436h-2.435zm5.113 0v-2.436h2.436v2.436h-2.436zm5.114 0v-2.436h2.435v2.436h-2.435z"/><path fill="#BBDDE5" d="M251.718 285.18a.83.83 0 0 1 .83.83v1.592h1.591a.83.83 0 1 1 0 1.66h-1.591v1.592a.83.83 0 0 1-1.661 0v-1.592h-1.591a.83.83 0 0 1 0-1.66h1.591v-1.592a.83.83 0 0 1 .831-.83z"/><path stroke="#BBDDE5" stroke-linecap="round" stroke-width="1.661" d="M237.543 274.853h16.605m-16.605 6.798h16.605"/><path stroke="#BBDDE5" stroke-dasharray="4.15 2.77" stroke-linecap="round" stroke-width="1.661" d="M237.543 288.448h8.303"/><path fill="#fff" d="m282.973 287.776-3.451-14.207h2.111l2.781 11.995 2.902-11.995h2.659l2.821 12.096 2.679-12.096h2.11l-3.45 14.207h-2.74l-2.841-11.873-2.841 11.873h-2.74zm16.255 0v-10.148h1.827v2.233c.406-1.523 1.623-2.334 2.943-2.334h.913v1.867h-.812c-1.827 0-2.943 1.217-2.943 3.247v5.135h-1.928zm7.631 0v-10.148h1.928v10.148h-1.928zm-.102-11.975v-2.232h2.131v2.232h-2.131zm8.364 11.975c-1.42 0-2.232-.812-2.232-2.233v-6.251h-2.233v-1.664h2.233v-3.288h1.928v3.288h2.435v1.664h-2.435v5.947c0 .609.203.812.812.812h1.928v1.725h-2.436zm8.583.203c-2.516 0-4.789-1.746-4.789-5.297 0-3.511 2.334-5.257 4.729-5.257 2.638 0 4.302 1.827 4.302 4.465v1.116h-7.103c.122 2.314 1.603 3.349 2.841 3.349h.162c.995 0 1.949-.507 2.152-1.583h1.928c-.365 2.05-2.131 3.207-4.222 3.207zm-2.739-6.495h5.053c-.081-1.766-1.136-2.435-2.293-2.435h-.163c-1.055 0-2.232.629-2.597 2.435zm17.823 6.495c-2.699 0-4.16-1.421-4.16-3.349h1.928c.101 1.218 1.055 1.725 2.253 1.725h.162c1.055 0 1.888-.507 1.888-1.319 0-.65-.366-1.096-1.38-1.299l-1.482-.284c-1.644-.325-2.963-1.177-2.963-2.902 0-2.03 1.806-3.126 3.836-3.126 2.658 0 4.018 1.421 4.018 3.349h-1.928c-.101-.913-.67-1.725-1.989-1.725h-.162c-1.137 0-1.847.588-1.847 1.299 0 .71.406 1.096 1.421 1.299l1.603.324c1.542.305 2.801 1.137 2.801 2.963 0 1.827-1.644 3.045-3.999 3.045zm10.763 0c-2.74 0-4.871-2.131-4.871-5.277 0-3.146 2.131-5.277 4.871-5.277 2.74 0 4.871 2.131 4.871 5.277 0 3.146-2.131 5.277-4.871 5.277zm-2.943-5.277c0 2.334 1.218 3.653 2.862 3.653h.162c1.644 0 2.862-1.319 2.862-3.653s-1.218-3.653-2.862-3.653h-.162c-1.644 0-2.862 1.319-2.862 3.653zm10.236 5.074v-10.148h1.928v1.421c.609-.914 1.624-1.624 3.044-1.624 1.462 0 2.679.568 3.349 1.888.792-1.401 2.111-1.888 3.349-1.888 2.334 0 3.653 1.421 3.653 3.552v6.799h-1.928v-6.393c0-1.421-.609-2.334-2.05-2.334h-.162c-1.238 0-2.557 1.116-2.557 3.044v5.683h-1.928v-6.393c0-1.421-.609-2.334-2.05-2.334h-.163c-1.238 0-2.557 1.116-2.557 3.044v5.683h-1.928zm22.455.203c-2.517 0-4.79-1.746-4.79-5.297 0-3.511 2.334-5.257 4.729-5.257 2.638 0 4.302 1.827 4.302 4.465v1.116h-7.103c.122 2.314 1.603 3.349 2.841 3.349h.163c.994 0 1.948-.507 2.151-1.583h1.928c-.365 2.05-2.131 3.207-4.221 3.207zm-2.74-6.495h5.053c-.081-1.766-1.136-2.435-2.293-2.435h-.162c-1.056 0-2.233.629-2.598 2.435zm18.696 6.495c-3.125 0-4.87-2.294-4.87-5.277 0-2.984 1.745-5.277 4.87-5.277 2.314 0 3.958 1.36 4.161 3.552h-1.928c-.183-1.116-.995-1.928-2.151-1.928h-.163c-1.948 0-2.861 1.725-2.861 3.653s.913 3.653 2.861 3.653h.163c1.156 0 1.968-.812 2.151-1.928h1.928c-.203 2.192-1.847 3.552-4.161 3.552zm10.782 0c-2.74 0-4.871-2.131-4.871-5.277 0-3.146 2.131-5.277 4.871-5.277 2.74 0 4.871 2.131 4.871 5.277 0 3.146-2.131 5.277-4.871 5.277zm-2.943-5.277c0 2.334 1.218 3.653 2.862 3.653h.162c1.644 0 2.862-1.319 2.862-3.653s-1.218-3.653-2.862-3.653h-.162c-1.644 0-2.862 1.319-2.862 3.653zm14.011 5.277c-2.537 0-4.363-1.928-4.363-5.277s2.029-5.277 4.566-5.277c1.421 0 2.639.71 3.146 1.624v-5.48h1.928v14.207h-1.928v-1.421c-.507.913-1.928 1.624-3.349 1.624zm-2.435-5.277c0 2.435 1.217 3.653 2.76 3.653h.162c1.441 0 2.862-1.218 2.862-3.653 0-2.436-1.421-3.653-2.862-3.653h-.162c-1.543 0-2.76 1.217-2.76 3.653zm14.931 5.277c-2.517 0-4.79-1.746-4.79-5.297 0-3.511 2.334-5.257 4.729-5.257 2.639 0 4.303 1.827 4.303 4.465v1.116h-7.104c.122 2.314 1.604 3.349 2.842 3.349h.162c.995 0 1.949-.507 2.151-1.583h1.929c-.366 2.05-2.131 3.207-4.222 3.207zm-2.74-6.495h5.054c-.081-1.766-1.137-2.435-2.294-2.435h-.162c-1.055 0-2.232.629-2.598 2.435zm17.386 6.292c-1.421 0-2.233-.812-2.233-2.233v-6.251h-2.232v-1.664h2.232v-3.288h1.928v3.288h2.436v1.664h-2.436v5.947c0 .609.203.812.812.812h1.928v1.725h-2.435zm4.521 0v-14.207h1.928v5.48c.609-.914 1.624-1.624 3.247-1.624 2.334 0 3.653 1.421 3.653 3.552v6.799h-1.928v-6.393c0-1.421-.609-2.334-2.05-2.334h-.162c-1.441 0-2.76 1.116-2.76 3.044v5.683h-1.928zm15.649.203c-2.537 0-4.465-1.928-4.465-5.277s1.928-5.277 4.465-5.277c1.725 0 2.639.71 3.247 1.624v-1.421h1.929v10.148h-1.929v-1.421c-.608.913-1.522 1.624-3.247 1.624zm-2.537-5.277c0 2.435 1.218 3.653 2.74 3.653h.203c1.421 0 2.841-1.218 2.841-3.653 0-2.436-1.42-3.653-2.841-3.653h-.203c-1.522 0-2.74 1.217-2.74 3.653zm14.039 5.074c-1.421 0-2.233-.812-2.233-2.233v-6.251h-2.232v-1.664h2.232v-3.288h1.928v3.288h2.436v1.664h-2.436v5.947c0 .609.203.812.812.812h1.928v1.725h-2.435zm4.338 0v-2.436h2.436v2.436h-2.436zm5.114 0v-2.436h2.435v2.436h-2.435zm5.113 0v-2.436h2.436v2.436h-2.436z"/><path fill="#F2F7F7" d="M237.609 348.267c-3.646 0-5.845-2.17-5.845-5.313 0-3.1 2.214-5.314 5.86-5.314 3.306 0 5.092 1.594 5.24 3.69h-2.141c-.103-.841-.841-1.889-2.981-1.889h-.236c-2.214 0-3.69 1.284-3.69 3.513 0 2.228 1.505 3.512 3.69 3.512h.236c2.155 0 3.321-1.003 3.321-1.845v-.118h-3.395v-1.8h3.941c.9 0 1.402.516 1.402 1.417v4h-1.948v-1.152c-.399.502-1.447 1.299-3.454 1.299zm11.088-4.561v2.613h7.247v1.801h-9.284v-10.333h9.137v1.801h-7.1v2.318h6.214v1.8h-6.214zm18.579 1.668v-7.587h2.037v10.333h-2.51l-5.372-7.72v7.72h-2.037v-10.333h2.598l5.284 7.587zm8.171-1.668v2.613h7.248v1.801h-9.285v-10.333h9.137v1.801h-7.1v2.318h6.214v1.8h-6.214zm12.734 4.414h-2.037v-10.333h5.756c2.067 0 3.528 1.196 3.528 2.82 0 1.328-.812 2.228-1.653 2.524 1.077 0 1.446.487 1.446 1.52v3.469h-2.036v-3.026c0-.694-.207-.886-.901-.886h-4.103v3.912zm0-8.532v2.819h3.498c.974 0 1.55-.516 1.55-1.417 0-.826-.576-1.402-1.55-1.402h-3.498zm21.67 8.532h-2.2l-1.107-2.421h-5.343l-1.107 2.421h-2.155l4.827-10.333h2.273l4.812 10.333zm-5.978-8.222-1.845 4h3.69l-1.845-4zm12.4 8.222h-2.037v-8.532h-4.162v-1.801h10.362v1.801h-4.163v8.532zm9.287-4.414v2.613h7.247v1.801h-9.284v-10.333h9.137v1.801h-7.1v2.318h6.214v1.8h-6.214zm18.073 4.414h-2.037v-10.333h8.841v1.801h-6.804v2.613h5.978v1.801h-5.978v4.118zm12.013 0h-2.037v-10.333h5.756c2.067 0 3.528 1.196 3.528 2.82 0 1.328-.812 2.228-1.653 2.524 1.077 0 1.446.487 1.446 1.52v3.469h-2.037v-3.026c0-.694-.206-.886-.9-.886h-4.103v3.912zm0-8.532v2.819h3.498c.974 0 1.55-.516 1.55-1.417 0-.826-.576-1.402-1.55-1.402h-3.498zm16.282 8.679c-3.351 0-5.86-2.007-5.86-5.313 0-3.307 2.509-5.314 5.86-5.314 3.35 0 5.845 2.007 5.845 5.314 0 3.306-2.495 5.313-5.845 5.313zm-.118-1.801h.236c1.993 0 3.675-1.284 3.675-3.512 0-2.229-1.682-3.513-3.675-3.513h-.236c-1.993 0-3.69 1.284-3.69 3.513 0 2.228 1.697 3.512 3.69 3.512zm15.819-.398 3.395-8.281h2.982v10.333h-2.037v-7.676l-3.144 7.676h-2.421l-3.129-7.631v7.631h-2.037v-10.333h2.997l3.394 8.281zm17.856 2.052h-2.037v-10.333h5.476c2.184 0 3.778 1.285 3.778 3.262 0 2.214-1.594 3.307-3.778 3.307h-3.439v3.764zm0-8.532v2.967h3.217c1.285 0 1.949-.517 1.949-1.491 0-.959-.664-1.476-1.949-1.476h-3.217zm20.127 8.532h-2.199l-1.107-2.421h-5.343l-1.107 2.421h-2.155l4.826-10.333h2.273l4.812 10.333zm-5.978-8.222-1.845 4h3.69l-1.845-4zm13.612 8.369c-3.646 0-5.845-2.17-5.845-5.313 0-3.1 2.214-5.314 5.86-5.314 3.306 0 5.092 1.594 5.24 3.69h-2.14c-.104-.841-.842-1.889-2.982-1.889h-.236c-2.214 0-3.69 1.284-3.69 3.513 0 2.228 1.505 3.512 3.69 3.512h.236c2.155 0 3.321-1.003 3.321-1.845v-.118h-3.395v-1.8h3.941c.901 0 1.402.516 1.402 1.417v4H436.7v-1.152c-.398.502-1.446 1.299-3.454 1.299zm11.088-4.561v2.613h7.248v1.801h-9.285v-10.333h9.137v1.801h-7.1v2.318h6.214v1.8h-6.214z"/><g fill="#BBDDE5" clip-path="url(#e)"><path fill-rule="evenodd" d="M242.847 381.435a.83.83 0 0 1 .83.83v3.892c0 1.07.867 1.938 1.937 1.938h4.152a.83.83 0 1 1 0 1.66h-4.152a3.597 3.597 0 0 1-3.597-3.598v-3.892a.83.83 0 0 1 .83-.83z" clip-rule="evenodd"/><path d="M248.8 402.221a.164.164 0 0 1-.31 0c-.298-.848-.481-1.37-.782-1.819a4.262 4.262 0 0 0-.98-1.034c-.432-.324-.944-.535-1.775-.878a.178.178 0 0 1 0-.329c.831-.343 1.343-.554 1.775-.878.382-.287.714-.637.98-1.034.301-.449.484-.971.782-1.819a.164.164 0 0 1 .31 0c.298.848.481 1.37.782 1.819.266.397.597.747.98 1.034.432.324.944.535 1.775.878a.178.178 0 0 1 0 .329c-.831.343-1.343.554-1.775.878a4.243 4.243 0 0 0-.98 1.034c-.301.449-.484.971-.782 1.819z"/><path fill-rule="evenodd" d="M233.011 382.957c0-1.223.991-2.214 2.214-2.214h8.248c.587 0 1.151.233 1.566.649l5.589 5.589c.415.415.649.978.649 1.565v3.752a.83.83 0 0 1-1.661 0v-3.752a.553.553 0 0 0-.162-.391l-5.589-5.589a.554.554 0 0 0-.392-.162h-8.248a.553.553 0 0 0-.554.553v1.557a.83.83 0 1 1-1.66 0v-1.557zm.83 4.77a.83.83 0 0 1 .83.83v4.627a.83.83 0 1 1-1.66 0v-4.627a.83.83 0 0 1 .83-.83zm10.528 13.219a.83.83 0 0 1-.83.831h-2.011a.83.83 0 0 1 0-1.661h2.011a.83.83 0 0 1 .83.83zm-10.528-5.587a.83.83 0 0 1 .83.831v2.108c0 .752.325 1.171.701 1.433.419.292.912.385 1.118.385h2.119a.83.83 0 0 1 0 1.661h-2.119c-.508 0-1.34-.177-2.066-.683-.77-.535-1.413-1.44-1.413-2.796v-2.108a.83.83 0 0 1 .83-.831z" clip-rule="evenodd"/></g><path fill="#fff" d="M277.988 397.463c-3.349 0-5.48-1.624-5.582-4.77h2.03c0 1.928 1.502 2.943 3.633 2.943h.203c1.908 0 2.943-.954 2.943-2.131 0-1.157-.731-1.826-2.233-2.131l-2.273-.467c-2.273-.466-3.592-1.745-3.592-3.998 0-2.232 2.009-4.059 5.074-4.059 3.145 0 5.155 1.725 5.256 4.465h-2.029c-.102-1.623-1.401-2.638-3.126-2.638h-.203c-1.766 0-2.943.954-2.943 2.212 0 1.096.751 1.745 1.949 1.989l2.273.446c2.455.487 3.876 1.786 3.876 4.1 0 2.496-2.111 4.039-5.256 4.039zm11.263 0c-2.273 0-3.45-1.522-3.45-3.653v-6.698h1.928v6.292c0 1.623.67 2.435 2.05 2.435h.162c1.299 0 2.557-1.218 2.557-3.247v-5.48h1.928v10.148h-1.928v-1.928c-.385 1.116-1.481 2.131-3.247 2.131zm8.226-.203v-10.148h1.928v1.421c.609-.913 1.624-1.624 3.044-1.624 1.462 0 2.679.569 3.349 1.888.792-1.401 2.111-1.888 3.349-1.888 2.334 0 3.653 1.421 3.653 3.552v6.799h-1.928v-6.393c0-1.421-.609-2.334-2.05-2.334h-.162c-1.238 0-2.557 1.116-2.557 3.044v5.683h-1.928v-6.393c0-1.421-.609-2.334-2.05-2.334h-.163c-1.238 0-2.557 1.116-2.557 3.044v5.683h-1.928zm18.274 0v-10.148h1.928v1.421c.609-.913 1.624-1.624 3.044-1.624 1.461 0 2.679.569 3.349 1.888.791-1.401 2.111-1.888 3.349-1.888 2.334 0 3.653 1.421 3.653 3.552v6.799h-1.928v-6.393c0-1.421-.609-2.334-2.05-2.334h-.162c-1.238 0-2.558 1.116-2.558 3.044v5.683h-1.928v-6.393c0-1.421-.609-2.334-2.05-2.334h-.162c-1.238 0-2.557 1.116-2.557 3.044v5.683h-1.928zm22.15.203c-2.537 0-4.465-1.928-4.465-5.277s1.928-5.277 4.465-5.277c1.725 0 2.638.711 3.247 1.624v-1.421h1.928v10.148h-1.928v-1.421c-.609.914-1.522 1.624-3.247 1.624zm-2.537-5.277c0 2.435 1.218 3.653 2.74 3.653h.203c1.421 0 2.841-1.218 2.841-3.653s-1.42-3.653-2.841-3.653h-.203c-1.522 0-2.74 1.218-2.74 3.653zm10.751 5.074v-10.148h1.826v2.233c.406-1.522 1.624-2.334 2.943-2.334h.913v1.867h-.811c-1.827 0-2.943 1.218-2.943 3.247v5.135h-1.928zm7.63 0v-10.148h1.928v10.148h-1.928zm-.101-11.974v-2.233h2.131v2.233h-2.131zm4.406 11.974v-1.725l5.845-6.759h-5.743v-1.664h8.016v1.725l-5.845 6.759h6.15v1.664h-8.423zm14.681.203c-2.516 0-4.789-1.746-4.789-5.297 0-3.511 2.334-5.257 4.729-5.257 2.638 0 4.302 1.827 4.302 4.465v1.116h-7.103c.122 2.314 1.603 3.349 2.841 3.349h.162c.995 0 1.949-.507 2.152-1.583h1.928c-.365 2.05-2.131 3.207-4.222 3.207zm-2.739-6.495h5.053c-.081-1.765-1.136-2.435-2.293-2.435h-.163c-1.055 0-2.232.629-2.597 2.435z"/><g clip-path="url(#f)"><path stroke="#BBDDE5" stroke-linecap="round" stroke-linejoin="round" stroke-width="1.661" d="M242.847 430.716v3.892a2.767 2.767 0 0 0 2.767 2.767h4.152"/><path fill="#BBDDE5" d="M248.8 450.671a.164.164 0 0 1-.31 0c-.298-.848-.481-1.37-.782-1.819a4.262 4.262 0 0 0-.98-1.034c-.432-.324-.944-.535-1.775-.878a.178.178 0 0 1 0-.329c.831-.343 1.343-.554 1.775-.878.382-.287.714-.637.98-1.034.301-.449.484-.971.782-1.819a.164.164 0 0 1 .31 0c.298.848.481 1.37.782 1.819.266.397.597.747.98 1.034.432.324.944.535 1.775.878a.179.179 0 0 1 0 .33c-.831.342-1.343.553-1.775.877a4.243 4.243 0 0 0-.98 1.034c-.301.449-.484.971-.782 1.819z"/><path stroke="#BBDDE5" stroke-linecap="round" stroke-linejoin="round" stroke-width="1.661" d="M250.446 440.748v-3.751c0-.367-.146-.719-.405-.979l-5.59-5.589a1.384 1.384 0 0 0-.978-.405h-8.248c-.765 0-1.384.619-1.384 1.384v1.556m0 4.044v4.627m9.698 7.762h-2.011m-2.92 0h-2.119c-.713 0-2.648-.541-2.648-2.649v-2.108"/></g><path fill="#fff" d="M273.502 445.71v-14.206h10.351v1.826h-8.321v4.161h7.103v1.826h-7.103v4.567h8.524v1.826h-10.554zm11.758 0 3.755-5.114-3.653-5.033h2.253l2.537 3.49 2.557-3.49h2.192l-3.653 4.992 3.754 5.155h-2.253l-2.638-3.633-2.659 3.633h-2.192zm11.603 4.059v-14.206h1.928v1.42c.507-.913 1.928-1.623 3.348-1.623 2.537 0 4.364 1.928 4.364 5.276 0 3.349-2.03 5.277-4.566 5.277-1.421 0-2.639-.71-3.146-1.623v5.479h-1.928zm1.928-9.133c0 2.436 1.42 3.654 2.861 3.654h.163c1.542 0 2.76-1.218 2.76-3.654 0-2.435-1.218-3.653-2.76-3.653h-.163c-1.441 0-2.861 1.218-2.861 3.653zm10.162 5.074v-14.206h1.928v14.206h-1.928zm8.851.203c-2.537 0-4.465-1.928-4.465-5.277 0-3.348 1.928-5.276 4.465-5.276 1.725 0 2.638.71 3.247 1.623v-1.42h1.928v10.147h-1.928v-1.42c-.609.913-1.522 1.623-3.247 1.623zm-2.537-5.277c0 2.436 1.218 3.654 2.74 3.654h.203c1.42 0 2.841-1.218 2.841-3.654 0-2.435-1.421-3.653-2.841-3.653h-.203c-1.522 0-2.74 1.218-2.74 3.653zm10.75 5.074v-10.147h1.929v10.147h-1.929zm-.101-11.974v-2.232h2.131v2.232h-2.131zm5.076 11.974v-10.147h1.928v1.42c.609-.913 1.624-1.623 3.248-1.623 2.333 0 3.653 1.42 3.653 3.551v6.799h-1.928v-6.393c0-1.42-.609-2.334-2.05-2.334h-.163c-1.441 0-2.76 1.117-2.76 3.045v5.682h-1.928zm19.679 0c-1.421 0-2.233-.811-2.233-2.232v-6.251h-2.232v-1.664h2.232v-3.288h1.929v3.288h2.435v1.664h-2.435v5.946c0 .609.202.812.811.812h1.928v1.725h-2.435zm4.521 0v-14.206h1.928v5.479c.609-.913 1.624-1.623 3.247-1.623 2.334 0 3.654 1.42 3.654 3.551v6.799h-1.929v-6.393c0-1.42-.608-2.334-2.049-2.334h-.163c-1.441 0-2.76 1.117-2.76 3.045v5.682h-1.928zm11.773 0v-10.147h1.928v10.147h-1.928zm-.101-11.974v-2.232h2.131v2.232h-2.131zm8.465 12.177c-2.699 0-4.16-1.42-4.16-3.348h1.928c.101 1.217 1.055 1.725 2.252 1.725h.163c1.055 0 1.887-.508 1.887-1.32 0-.649-.365-1.096-1.38-1.298l-1.481-.285c-1.644-.324-2.964-1.177-2.964-2.902 0-2.029 1.807-3.125 3.836-3.125 2.659 0 4.019 1.42 4.019 3.348h-1.928c-.102-.913-.67-1.725-1.989-1.725h-.163c-1.136 0-1.847.589-1.847 1.299 0 .711.406 1.096 1.421 1.299l1.603.325c1.543.304 2.801 1.136 2.801 2.963 0 1.827-1.644 3.044-3.998 3.044z"/><g fill="#BBDDE5" clip-path="url(#g)"><path d="M239.122 492.815c-.583 0-1.023-.149-1.321-.447-.285-.298-.459-.688-.521-1.172h-.093a2.457 2.457 0 0 1-1.023 1.358c-.484.323-1.104.484-1.861.484-.98 0-1.761-.254-2.344-.763-.583-.521-.875-1.234-.875-2.14 0-.93.341-1.637 1.023-2.121.695-.496 1.756-.744 3.182-.744h1.842v-.745c0-1.302-.688-1.953-2.065-1.953-.62 0-1.123.124-1.507.372a3.062 3.062 0 0 0-.968.949l-1.209-.986c.273-.521.732-.968 1.377-1.34.645-.385 1.476-.577 2.493-.577 1.216 0 2.171.292 2.866.875.694.583 1.042 1.426 1.042 2.53v4.82h1.209v1.6h-1.247zm-4.242-1.266c.657 0 1.197-.148 1.619-.446.422-.298.632-.682.632-1.154v-1.395h-1.804c-1.464 0-2.196.44-2.196 1.321v.372c0 .434.155.763.465.986.31.211.738.316 1.284.316zm10.341-9.639h7.008v1.64h-7.008v-1.64zm.014 3.349h7.064v1.598h-7.064v-1.598zm-.07 3.322h7.036v1.626h-7.036v-1.626zm-1.093-6.671h1.724v4.639c0 2.439-.379 5.872-2.747 7.862-.253-.35-.939-.981-1.304-1.205 2.13-1.808 2.327-4.513 2.327-6.657v-4.639zm7.372 0h1.78v10.371c0 .995-.239 1.5-.883 1.78-.673.294-1.668.322-3.126.322-.098-.504-.42-1.317-.7-1.766.995.057 2.158.043 2.494.043.323-.014.435-.113.435-.407V481.91z"/></g><path fill="#fff" d="M277.095 494.16v-12.38h-5.074v-1.826h12.177v1.826h-5.074v12.38h-2.029zm7.123 0v-10.147h1.826v2.232c.406-1.522 1.624-2.334 2.943-2.334h.913v1.867h-.811c-1.827 0-2.943 1.218-2.943 3.248v5.134h-1.928zm11.229.203c-2.537 0-4.465-1.928-4.465-5.276 0-3.349 1.928-5.277 4.465-5.277 1.725 0 2.639.71 3.247 1.623v-1.42h1.929v10.147h-1.929v-1.42c-.608.913-1.522 1.623-3.247 1.623zm-2.537-5.276c0 2.435 1.218 3.653 2.74 3.653h.203c1.421 0 2.841-1.218 2.841-3.653 0-2.436-1.42-3.654-2.841-3.654h-.203c-1.522 0-2.74 1.218-2.74 3.654zm10.751 5.073v-10.147h1.928v1.42c.609-.913 1.624-1.623 3.247-1.623 2.334 0 3.653 1.42 3.653 3.551v6.799h-1.928v-6.393c0-1.42-.609-2.334-2.05-2.334h-.162c-1.441 0-2.76 1.117-2.76 3.045v5.682h-1.928zm15.162.203c-2.699 0-4.16-1.42-4.16-3.348h1.928c.101 1.217 1.055 1.725 2.252 1.725h.163c1.055 0 1.887-.508 1.887-1.319 0-.65-.365-1.096-1.38-1.299l-1.481-.285c-1.644-.324-2.964-1.177-2.964-2.902 0-2.029 1.807-3.125 3.836-3.125 2.659 0 4.019 1.42 4.019 3.348h-1.928c-.102-.913-.67-1.725-1.989-1.725h-.163c-1.136 0-1.847.589-1.847 1.299 0 .711.406 1.096 1.421 1.299l1.603.325c1.543.304 2.801 1.136 2.801 2.963 0 1.827-1.644 3.044-3.998 3.044zm6.521-.203v-14.206h1.928v14.206h-1.928zm8.851.203c-2.537 0-4.465-1.928-4.465-5.276 0-3.349 1.928-5.277 4.465-5.277 1.725 0 2.638.71 3.247 1.623v-1.42h1.928v10.147h-1.928v-1.42c-.609.913-1.522 1.623-3.247 1.623zm-2.537-5.276c0 2.435 1.218 3.653 2.74 3.653h.203c1.42 0 2.841-1.218 2.841-3.653 0-2.436-1.421-3.654-2.841-3.654h-.203c-1.522 0-2.74 1.218-2.74 3.654zm14.038 5.073c-1.42 0-2.232-.811-2.232-2.232v-6.251h-2.233v-1.664h2.233v-3.288h1.928v3.288h2.435v1.664h-2.435v5.946c0 .609.203.812.812.812h1.928v1.725h-2.436zm8.583.203c-2.516 0-4.789-1.745-4.789-5.297 0-3.511 2.334-5.256 4.728-5.256 2.639 0 4.303 1.826 4.303 4.465v1.116h-7.103c.121 2.314 1.603 3.349 2.841 3.349h.162c.995 0 1.949-.508 2.152-1.583h1.928c-.366 2.05-2.131 3.206-4.222 3.206zm-2.74-6.494h5.054c-.081-1.766-1.137-2.436-2.293-2.436h-.163c-1.055 0-2.232.63-2.598 2.436z"/><defs><clipPath id="b"><path fill="#fff" d="M29.4 264.004h59.754v59.754H29.4z"/></clipPath><clipPath id="d"><path fill="#fff" d="M39.185 275.51h40.186v36.741H39.185z"/></clipPath><clipPath id="e"><path fill="#fff" d="M231.085 380.19h22.14v22.14h-22.14z"/></clipPath><clipPath id="f"><path fill="#fff" d="M231.085 428.64h22.14v22.14h-22.14z"/></clipPath><clipPath id="g"><path fill="#fff" d="M231.085 477.09h22.14v22.14h-22.14z"/></clipPath><linearGradient id="a" x1="442.766" x2="442.766" y1="558.793" y2="1027.96" gradientUnits="userSpaceOnUse"><stop stop-color="#BBDDE5" stop-opacity=".7"/><stop offset="1" stop-color="#BBDDE5" stop-opacity="0"/></linearGradient><filter id="c" width="103.588" height="103.588" x="7.483" y="252.401" color-interpolation-filters="sRGB" filterUnits="userSpaceOnUse"><feFlood flood-opacity="0" result="BackgroundImageFix"/><feColorMatrix in="SourceAlpha" result="hardAlpha" values="0 0 0 0 0 0 0 0 0 0 0 0 0 0 0 0 0 0 127 0"/><feMorphology in="SourceAlpha" operator="dilate" radius="3.868" result="effect1_dropShadow_707_5862"/><feOffset dy="10.314"/><feGaussianBlur stdDeviation="9.025"/><feColorMatrix values="0 0 0 0 0.0392157 0 0 0 0 0.0470588 0 0 0 0 0.054902 0 0 0 0.32 0"/><feBlend in2="BackgroundImageFix" result="effect1_dropShadow_707_5862"/><feColorMatrix in="SourceAlpha" result="hardAlpha" values="0 0 0 0 0 0 0 0 0 0 0 0 0 0 0 0 0 0 127 0"/><feOffset dy="2.578"/><feGaussianBlur stdDeviation="1.289"/><feComposite in2="hardAlpha" operator="out"/><feColorMatrix values="0 0 0 0 0.0392157 0 0 0 0 0.0470588 0 0 0 0 0.054902 0 0 0 0.16 0"/><feBlend in2="effect1_dropShadow_707_5862" result="effect2_dropShadow_707_5862"/><feBlend in="SourceGraphic" in2="effect2_dropShadow_707_5862" result="shape"/></filter></defs></svg>