<svg xmlns="http://www.w3.org/2000/svg" width="408" height="453" fill="none"><path fill="url(#a)" d="M23.935 430.633h405.968v360.86H23.935z" transform="rotate(-90 23.935 430.633)"/><g stroke="#2D323A" opacity=".2"><path d="M1.382 15.246c0-7.681 6.227-13.908 13.908-13.908h31.2v45.107H1.381V15.246zm-.5 8.646h46.107M23.936.838v46.107"/><path d="M46.489 1.338h45.108v45.108H46.489zm-.499 22.554h46.107M69.043.838v46.107M91.597 1.338h45.108v45.108H91.597zm-.5 22.554h46.107M114.15.838v46.107"/><path d="M136.704 1.338h45.108v45.108h-45.108zm-.499 22.554h46.107M159.258.838v46.107m22.554-45.607h45.108v45.108h-45.108zm-.5 22.554h46.108M204.366.838v46.107"/><path d="M226.92 1.338h45.108v45.108H226.92zm-.5 22.554h46.107M249.473.838v46.107"/><path d="M272.027 1.338h45.108v45.108h-45.108zm-.5 22.554h46.108M294.581.838v46.107m22.554-45.607h45.108v45.108h-45.108zm-.5 22.554h46.107M339.688.838v46.107"/><path d="M362.242 1.338h31.199c7.682 0 13.909 6.227 13.909 13.908v31.2h-45.108V1.337zm-.5 22.554h46.108M384.796.838v46.107m-383.414-.5H46.49v45.108H1.382zM.882 69h46.107M23.936 45.945v46.108"/><path d="M46.489 46.445h45.108v45.108H46.489zM45.99 69h46.107M69.043 45.945v46.108m22.554-45.608h45.108v45.108H91.597zM91.097 69h46.107M114.15 45.945v46.108"/><path d="M136.704 46.445h45.108v45.108h-45.108zM136.205 69h46.107m-23.054-23.055v46.108m22.554-45.608h45.108v45.108h-45.108zm-.5 22.555h46.108m-23.054-23.055v46.108"/><path d="M226.92 46.445h45.108v45.108H226.92zM226.42 69h46.107m-23.054-23.055v46.108"/><path d="M272.027 46.445h45.108v45.108h-45.108zm-.5 22.555h46.108m-23.054-23.055v46.108m22.554-45.608h45.108v45.108h-45.108zm-.5 22.555h46.107m-23.054-23.055v46.108"/><path d="M362.242 46.445h45.108v45.108h-45.108zm-.5 22.555h46.108m-23.054-23.055v46.108m-383.414-.5H46.49v45.108H1.382zm-.5 22.554h46.107M23.936 91.053v46.107"/><path d="M46.489 91.553h45.108v45.108H46.489zm-.499 22.554h46.107M69.043 91.053v46.107m22.554-45.607h45.108v45.108H91.597zm-.5 22.554h46.107M114.15 91.053v46.107"/><path d="M136.704 91.553h45.108v45.108h-45.108zm-.499 22.554h46.107m-23.054-23.054v46.107m22.554-45.607h45.108v45.108h-45.108zm-.5 22.554h46.108m-23.054-23.054v46.107"/><path d="M226.92 91.553h45.108v45.108H226.92zm-.5 22.554h46.107m-23.054-23.054v46.107"/><path d="M272.027 91.553h45.108v45.108h-45.108zm-.5 22.554h46.108m-23.054-23.054v46.107m22.554-45.607h45.108v45.108h-45.108zm-.5 22.554h46.107m-23.054-23.054v46.107"/><path d="M362.242 91.553h45.108v45.108h-45.108zm-.5 22.554h46.108m-23.054-23.054v46.107m-383.414-.5H46.49v45.108H1.382zm-.5 22.554h46.107m-23.053-23.053v46.107"/><path d="M46.489 136.66h45.108v45.108H46.489zm-.499 22.554h46.107m-23.054-23.053v46.107m22.554-45.608h45.108v45.108H91.597zm-.5 22.554h46.107m-23.054-23.053v46.107"/><path d="M136.704 136.66h45.108v45.108h-45.108zm-.499 22.554h46.107m-23.054-23.053v46.107m22.554-45.608h45.108v45.108h-45.108zm-.5 22.554h46.108m-23.054-23.053v46.107"/><path d="M226.92 136.66h45.108v45.108H226.92zm-.5 22.554h46.107m-23.054-23.053v46.107"/><path d="M272.027 136.66h45.108v45.108h-45.108zm-.5 22.554h46.108m-23.054-23.053v46.107m22.554-45.608h45.108v45.108h-45.108zm-.5 22.554h46.107m-23.054-23.053v46.107"/><path d="M362.242 136.66h45.108v45.108h-45.108zm-.5 22.554h46.108m-23.054-23.053v46.107m-383.414-.5H46.49v45.108H1.382zm-.5 22.554h46.107m-23.053-23.054v46.108"/><path d="M46.489 181.768h45.108v45.108H46.489zm-.499 22.554h46.107m-23.054-23.054v46.108m22.554-45.608h45.108v45.108H91.597zm-.5 22.554h46.107m-23.054-23.054v46.108"/><path d="M136.704 181.768h45.108v45.108h-45.108zm-.499 22.554h46.107m-23.054-23.054v46.108m22.554-45.608h45.108v45.108h-45.108zm-.5 22.554h46.108m-23.054-23.054v46.108"/><path d="M226.92 181.768h45.108v45.108H226.92zm-.5 22.554h46.107m-23.054-23.054v46.108"/><path d="M272.027 181.768h45.108v45.108h-45.108zm-.5 22.554h46.108m-23.054-23.054v46.108m22.554-45.608h45.108v45.108h-45.108zm-.5 22.554h46.107m-23.054-23.054v46.108"/><path d="M362.242 181.768h45.108v45.108h-45.108zm-.5 22.554h46.108m-23.054-23.054v46.108m-383.414-.5H46.49v45.108H1.382zm-.5 22.553h46.107m-23.053-23.054v46.108"/><path d="M46.489 226.876h45.108v45.108H46.489zm-.499 22.553h46.107m-23.054-23.054v46.108m22.554-45.607h45.108v45.108H91.597zm-.5 22.553h46.107m-23.054-23.054v46.108"/><path d="M136.704 226.876h45.108v45.108h-45.108zm-.499 22.553h46.107m-23.054-23.054v46.108m22.554-45.607h45.108v45.108h-45.108zm-.5 22.553h46.108m-23.054-23.054v46.108"/><path d="M226.92 226.876h45.108v45.108H226.92zm-.5 22.553h46.107m-23.054-23.054v46.108"/><path d="M272.027 226.876h45.108v45.108h-45.108zm-.5 22.553h46.108m-23.054-23.054v46.108m22.554-45.607h45.108v45.108h-45.108zm-.5 22.553h46.107m-23.054-23.054v46.108"/><path d="M362.242 226.876h45.108v45.108h-45.108zm-.5 22.553h46.108m-23.054-23.054v46.108m-383.414-.5H46.49v45.108H1.382zm-.5 22.554h46.107m-23.053-23.054v46.108"/><path d="M46.489 271.983h45.108v45.108H46.489zm-.499 22.554h46.107m-23.054-23.054v46.108m22.554-45.608h45.108v45.108H91.597zm-.5 22.554h46.107m-23.054-23.054v46.108"/><path d="M136.704 271.983h45.108v45.108h-45.108zm-.499 22.554h46.107m-23.054-23.054v46.108m22.554-45.608h45.108v45.108h-45.108zm-.5 22.554h46.108m-23.054-23.054v46.108"/><path d="M226.92 271.983h45.108v45.108H226.92zm-.5 22.554h46.107m-23.054-23.054v46.108"/><path d="M272.027 271.983h45.108v45.108h-45.108zm-.5 22.554h46.108m-23.054-23.054v46.108m22.554-45.608h45.108v45.108h-45.108zm-.5 22.554h46.107m-23.054-23.054v46.108"/><path d="M362.242 271.983h45.108v45.108h-45.108zm-.5 22.554h46.108m-23.054-23.054v46.108m-383.414-.5H46.49v45.108H1.382zm-.5 22.554h46.107m-23.053-23.054v46.107"/><path d="M46.489 317.091h45.108v45.108H46.489zm-.499 22.554h46.107m-23.054-23.054v46.107m22.554-45.607h45.108v45.108H91.597zm-.5 22.554h46.107m-23.054-23.054v46.107"/><path d="M136.704 317.091h45.108v45.108h-45.108zm-.499 22.554h46.107m-23.054-23.054v46.107m22.554-45.607h45.108v45.108h-45.108zm-.5 22.554h46.108m-23.054-23.054v46.107"/><path d="M226.92 317.091h45.108v45.108H226.92zm-.5 22.554h46.107m-23.054-23.054v46.107"/><path d="M272.027 317.091h45.108v45.108h-45.108zm-.5 22.554h46.108m-23.054-23.054v46.107m22.554-45.607h45.108v45.108h-45.108zm-.5 22.554h46.107m-23.054-23.054v46.107"/><path d="M362.242 317.091h45.108v45.108h-45.108zm-.5 22.554h46.108m-23.054-23.054v46.107m-383.414-.5H46.49v45.108H1.382zm-.5 22.554h46.107m-23.053-23.054v46.108"/><path d="M46.489 362.198h45.108v45.108H46.489zm-.499 22.554h46.107m-23.054-23.054v46.108m22.554-45.608h45.108v45.108H91.597zm-.5 22.554h46.107m-23.054-23.054v46.108"/><path d="M136.704 362.198h45.108v45.108h-45.108zm-.499 22.554h46.107m-23.054-23.054v46.108m22.554-45.608h45.108v45.108h-45.108zm-.5 22.554h46.108m-23.054-23.054v46.108"/><path d="M226.92 362.198h45.108v45.108H226.92zm-.5 22.554h46.107m-23.054-23.054v46.108"/><path d="M272.027 362.198h45.108v45.108h-45.108zm-.5 22.554h46.108m-23.054-23.054v46.108m22.554-45.608h45.108v45.108h-45.108zm-.5 22.554h46.107m-23.054-23.054v46.108"/><path d="M362.242 362.198h45.108v45.108h-45.108zm-.5 22.554h46.108m-23.054-23.054v46.108m-383.414-.5h45.107v45.107H15.29c-7.681 0-13.908-6.227-13.908-13.908v-31.199zm-.5 22.554h46.107m-23.053-23.054v46.108m22.553-45.608h45.108v45.108H46.489zm-.499 22.554h46.107m-23.054-23.054v46.108m22.554-45.608h45.108v45.108H91.597zm-.5 22.554h46.107m-23.054-23.054v46.108"/><path d="M136.704 407.306h45.108v45.108h-45.108zm-.499 22.554h46.107m-23.054-23.054v46.108m22.554-45.608h45.108v45.108h-45.108zm-.5 22.554h46.108m-23.054-23.054v46.108"/><path d="M226.92 407.306h45.108v45.108H226.92zm-.5 22.554h46.107m-23.054-23.054v46.108"/><path d="M272.027 407.306h45.108v45.108h-45.108zm-.5 22.554h46.108m-23.054-23.054v46.108m22.554-45.608h45.108v45.108h-45.108zm-.5 22.554h46.107m-23.054-23.054v46.108"/><path d="M362.242 407.306h45.108v31.199c0 7.681-6.227 13.908-13.909 13.908h-31.199v-45.107zm-.5 22.554h46.108m-23.054-23.054v46.108"/></g><defs><linearGradient id="a" x1="226.92" x2="226.92" y1="430.633" y2="791.494" gradientUnits="userSpaceOnUse"><stop stop-color="#BBDDE5" stop-opacity=".7"/><stop offset="1" stop-color="#BBDDE5" stop-opacity="0"/></linearGradient></defs></svg>