<svg width="141" height="33" viewBox="0 0 141 33" fill="none" xmlns="http://www.w3.org/2000/svg">
<g clip-path="url(#clip0_4950_263)">
<path d="M23.1648 1.65529C21.1359 0.697622 18.7231 0.11145 16.432 0.11145C9.51632 0.11145 5.37959 5.83528 5.82462 11.4304C6.02632 13.9611 7.26896 16.4096 9.32381 18.3244C10.0598 19.014 10.8823 19.6049 11.7707 20.0824C11.0986 19.2816 10.6546 18.3146 10.4853 17.2829C10.0257 14.471 11.8826 10.3349 16.625 10.3349C21.7254 10.3349 27.3405 15.1837 27.8153 21.146C28.1056 24.7934 26.723 28.0768 24.3853 30.3707C29.2201 27.5626 32.4711 22.3281 32.4711 16.3339C32.4711 9.84818 28.6653 4.25143 23.1648 1.65529Z" fill="black"/>
<path d="M26.6729 21.2375C26.4712 18.7067 25.2285 16.2582 23.1737 14.3434C22.4377 13.6539 21.6151 13.0629 20.7268 12.5855C21.3989 13.3862 21.8429 14.3533 22.0121 15.3849C22.4718 18.1968 20.6148 22.333 15.8725 22.333C10.7721 22.333 5.15699 17.4841 4.68222 11.5213C4.39183 7.87392 5.77453 4.59049 8.11219 2.29663C3.27735 5.10528 0.0263672 10.3397 0.0263672 16.3339C0.0263672 22.8197 3.83216 28.4164 9.33266 31.0126C11.3615 31.9702 13.7744 32.5564 16.0655 32.5564C22.9812 32.5564 27.1179 26.8326 26.6729 21.2375Z" fill="black"/>
<path d="M45.7627 8.22278H40.5947V24.4453H45.7627C51.4632 24.4453 54.0821 21.3403 54.0821 16.3578C54.0821 11.351 51.4632 8.22278 45.7627 8.22278ZM45.6929 22.4986H42.8891V10.1462H45.6929C50.1887 10.1462 51.7417 12.5098 51.7417 16.3567C51.7417 20.1804 50.1887 22.4986 45.6929 22.4986Z" fill="black"/>
<path d="M60.9291 12.672C57.4986 12.672 55.1582 15.1054 55.1582 18.7435C55.1582 22.3352 57.5224 24.7226 60.9053 24.7226C63.6171 24.7226 65.4941 23.1003 66.1197 20.9449H63.8253C63.3619 22.0805 62.3426 22.8219 60.9053 22.8219C59.1208 22.8219 57.5456 21.5711 57.4061 19.2302H66.4209C66.4442 18.8133 66.4442 18.4656 66.4442 18.1406C66.4442 15.1746 64.312 12.672 60.9291 12.672ZM57.4531 17.608C57.7078 15.6153 59.1911 14.5722 60.9058 14.5722C62.7135 14.5722 64.0811 15.731 64.1736 17.608H57.4531Z" fill="black"/>
<path d="M73.4198 12.672C69.9898 12.672 67.6494 15.1054 67.6494 18.7435C67.6494 22.3352 70.013 24.7226 73.3965 24.7226C76.1078 24.7226 77.9848 23.1003 78.6109 20.9449H76.3165C75.8526 22.0805 74.8333 22.8219 73.3965 22.8219C71.612 22.8219 70.0363 21.5711 69.8973 19.2302H78.9116C78.9348 18.8133 78.9348 18.4656 78.9348 18.1406C78.9348 15.1746 76.8027 12.672 73.4198 12.672ZM69.9449 17.608C70.2001 15.6153 71.6829 14.5722 73.3981 14.5722C75.2058 14.5722 76.5729 15.731 76.6653 17.608H69.9449Z" fill="black"/>
<path d="M86.6745 12.672C84.6121 12.672 83.3143 13.6686 82.5962 14.7809L82.3642 12.9505H80.3018V29.5423H82.5983V22.6369C83.3862 23.9574 84.823 24.7226 86.6539 24.7226C90.0374 24.7226 92.3551 22.1962 92.3551 18.7203C92.3551 15.2443 90.0347 12.672 86.6745 12.672ZM86.3041 22.7299C84.1486 22.7299 82.5962 21.1077 82.5962 18.6976C82.5962 16.3107 84.1486 14.6652 86.3041 14.6652C88.4822 14.6652 90.0114 16.3107 90.0114 18.6976C90.0114 21.1071 88.4822 22.7294 86.3041 22.7294V22.7299Z" fill="black"/>
<path d="M101.964 19.1838L96.3551 8.22278H93.667V24.4453H95.9614V12.2319L101.083 22.1276H102.844L107.942 12.2319V24.4453H110.237V8.22278H107.548L101.964 19.1838Z" fill="black"/>
<path d="M114.315 12.9506H112.021V24.4453H114.315V12.9506Z" fill="black"/>
<path d="M113.156 7.75879C112.299 7.75879 111.65 8.36172 111.65 9.1961C111.65 10.0305 112.299 10.6561 113.156 10.6561C114.037 10.6561 114.686 10.0305 114.686 9.1961C114.686 8.36172 114.037 7.75879 113.156 7.75879Z" fill="black"/>
<path d="M122.263 12.672C120.478 12.672 119.042 13.5529 118.3 14.9664L118.138 12.9505H116.099V24.4452H118.396V18.5115C118.396 16.009 119.763 14.6414 121.64 14.6414C123.494 14.6414 124.445 15.777 124.445 18.0481V24.4452H126.716V17.8167C126.712 14.364 125.02 12.672 122.263 12.672Z" fill="black"/>
<path d="M137.732 7.7085V14.7074C136.944 13.3864 135.507 12.6217 133.653 12.6217C130.27 12.6217 127.976 15.1476 127.976 18.6241C127.976 22.1005 130.27 24.6723 133.63 24.6723C135.693 24.6723 136.99 23.6763 137.732 22.5634L137.964 24.3944H140.026V7.7085H137.732ZM134.001 22.6791C131.846 22.6791 130.293 21.0336 130.293 18.6468C130.293 16.2367 131.846 14.6144 134.001 14.6144C136.179 14.6144 137.709 16.2367 137.709 18.6468C137.709 21.0336 136.179 22.6791 134.001 22.6791H134.001Z" fill="black"/>
</g>
<defs>
<clipPath id="clip0_4950_263">
<rect width="141" height="33" fill="white"/>
</clipPath>
</defs>
</svg>
