<svg width="105" height="44" viewBox="0 0 105 44" fill="none" xmlns="http://www.w3.org/2000/svg">
<path d="M91.6137 43.4874C89.4377 43.4874 87.5177 43.1514 85.8537 42.4794C84.1897 41.8394 82.8617 40.8794 81.8697 39.5994C80.8777 38.3514 80.3017 36.7994 80.1417 34.9434H85.4217C85.7417 36.3194 86.4617 37.3754 87.5817 38.1114C88.7017 38.8794 90.1737 39.2634 91.9977 39.2634C94.2057 39.2634 95.9177 38.7194 97.1337 37.6314C98.3497 36.5434 98.9577 34.7994 98.9577 32.3994V29.6154C98.1897 30.8633 97.1497 31.8554 95.8377 32.5914C94.5577 33.3274 92.9577 33.6954 91.0377 33.6954C88.8297 33.6954 86.8457 33.1994 85.0857 32.2074C83.3577 31.2154 81.9977 29.7914 81.0057 27.9354C80.0137 26.0473 79.5177 23.8074 79.5177 21.2153C79.5177 18.7193 80.0137 16.5274 81.0057 14.6394C82.0297 12.7514 83.4217 11.2954 85.1817 10.2714C86.9417 9.24735 88.9097 8.73535 91.0857 8.73535C93.0057 8.73535 94.6057 9.11935 95.8857 9.88735C97.1977 10.6234 98.2537 11.6154 99.0537 12.8634L99.5817 9.02335H104.094V32.5914C104.094 34.7994 103.662 36.7194 102.798 38.3514C101.934 40.0154 100.59 41.2794 98.7657 42.1433C96.9417 43.0393 94.5577 43.4874 91.6137 43.4874ZM91.9017 29.3274C93.3417 29.3274 94.5897 28.9914 95.6457 28.3194C96.7017 27.6154 97.5177 26.6714 98.0937 25.4874C98.6697 24.2714 98.9577 22.8793 98.9577 21.3113C98.9577 19.7113 98.6697 18.3034 98.0937 17.0874C97.5177 15.8394 96.7017 14.8633 95.6457 14.1593C94.5897 13.4553 93.3417 13.1034 91.9017 13.1034C90.4937 13.1034 89.2457 13.4553 88.1577 14.1593C87.1017 14.8633 86.2697 15.8234 85.6617 17.0394C85.0857 18.2234 84.7977 19.6153 84.7977 21.2153C84.7977 22.8153 85.0857 24.2234 85.6617 25.4394C86.2697 26.6554 87.1017 27.6154 88.1577 28.3194C89.2457 28.9914 90.4937 29.3274 91.9017 29.3274Z" fill="black"/>
<path d="M60.5221 33.888C58.3141 33.888 56.3301 33.392 54.5701 32.4C52.8421 31.408 51.4821 29.968 50.4901 28.08C49.4981 26.192 49.0021 23.936 49.0021 21.312C49.0021 18.784 49.4981 16.576 50.4901 14.688C51.5141 12.8 52.9061 11.344 54.6661 10.32C56.4261 9.264 58.3941 8.736 60.5701 8.736C62.4581 8.736 64.0421 9.072 65.3221 9.744C66.6341 10.416 67.6581 11.296 68.3941 12.384V0H73.5781V33.6H69.0661L68.4901 29.904C67.6901 30.96 66.6501 31.888 65.3701 32.688C64.0901 33.488 62.4741 33.888 60.5221 33.888ZM61.3861 29.52C62.8261 29.52 64.0741 29.168 65.1301 28.464C66.1861 27.76 67.0021 26.8 67.5781 25.584C68.1541 24.368 68.4421 22.976 68.4421 21.408C68.4421 19.776 68.1541 18.336 67.5781 17.088C67.0021 15.84 66.1861 14.88 65.1301 14.208C64.0741 13.504 62.8261 13.152 61.3861 13.152C59.9461 13.152 58.6981 13.504 57.6421 14.208C56.5861 14.88 55.7541 15.84 55.1461 17.088C54.5701 18.304 54.2821 19.712 54.2821 21.312C54.2821 22.912 54.5701 24.336 55.1461 25.584C55.7541 26.8 56.5861 27.76 57.6421 28.464C58.6981 29.168 59.9461 29.52 61.3861 29.52Z" fill="black"/>
<path d="M32.6637 33.6V13.584H26.5197V9.024H32.6637V6.72C32.6637 4.48 33.2077 2.8 34.2957 1.68C35.3837 0.56 37.1117 0 39.4797 0H46.2477V4.464H40.1997C39.3357 4.464 38.7117 4.672 38.3277 5.088C37.9757 5.472 37.7997 6.064 37.7997 6.864V9.024H46.2477V13.584H37.8477V33.6H32.6637Z" fill="black"/>
<path d="M0 33.5994V9.02335H4.512L5.088 12.2394C5.824 11.2794 6.784 10.4634 7.968 9.79135C9.184 9.08735 10.736 8.73535 12.624 8.73535C14.352 8.73535 15.936 9.08735 17.376 9.79135C18.848 10.4634 20.016 11.5993 20.88 13.1994C21.776 14.7993 22.224 16.9274 22.224 19.5834V33.5994H16.992V20.0634C16.992 17.8874 16.528 16.2234 15.6 15.0714C14.672 13.8874 13.28 13.2954 11.424 13.2954C10.144 13.2954 9.04 13.5994 8.112 14.2074C7.184 14.8154 6.464 15.6794 5.952 16.7994C5.44 17.9194 5.184 19.2794 5.184 20.8794V33.5994H0Z" fill="black"/>
</svg>
