<svg width="149" height="36" viewBox="0 0 149 36" fill="none" xmlns="http://www.w3.org/2000/svg">
<path d="M105.909 13.7441C103.744 13.7441 102.194 14.4822 101.439 15.8845L101.029 16.6389V14.1132H97.503V29.5302H101.218V20.362C101.218 18.1724 102.407 16.9095 104.498 16.9095C106.589 16.9095 107.614 18.1314 107.614 20.2636V29.5302H111.329V19.5993C111.305 15.9337 109.287 13.7441 105.909 13.7441ZM87.9166 13.7441C83.5375 13.7441 80.8149 16.4749 80.8149 20.8704V23.0354C80.8149 27.2668 83.5621 29.891 87.974 29.891C90.9262 29.891 93.0009 28.8085 94.3048 26.6108L92.0005 25.2905C91.5318 25.9204 90.9254 26.4347 90.2276 26.7943C89.5297 27.1539 88.7589 27.3492 87.974 27.3652C85.7352 27.3652 84.4068 25.9876 84.4068 23.675V23.06H94.7723V20.485C94.7723 16.3929 92.0743 13.7441 87.9166 13.7441ZM91.3936 20.5424H84.4068V20.1734C84.4068 17.6312 85.6532 16.2371 87.9166 16.2371C90.1799 16.2371 91.3936 17.6148 91.3936 19.9273V20.5424ZM148.15 11.5792V8.62699H135.316V11.5792H139.818V26.5862H135.316V29.5384H148.15V26.5862H143.648V11.5792H148.15ZM50.8337 8.20056C45.1015 8.20056 41.5425 11.776 41.5425 17.5246V20.6326C41.5425 26.373 45.1015 29.9566 50.8337 29.9566C56.5659 29.9566 60.1249 26.3812 60.1249 20.6326V17.5246C60.1331 11.776 56.5659 8.20056 50.8337 8.20056ZM56.3035 20.8458C56.3035 24.6673 54.3107 26.8568 50.8419 26.8568C47.3731 26.8568 45.3803 24.6673 45.3803 20.8458V17.3114C45.3803 13.4899 47.3731 11.3004 50.8419 11.3004C54.3107 11.3004 56.3035 13.4899 56.3035 17.3114V20.8458ZM71.7943 13.7441C70.9227 13.7017 70.0541 13.8765 69.2668 14.253C68.4795 14.6295 67.7982 15.1957 67.284 15.9009L66.8822 16.5159V14.1132H63.3559V34.8359H67.0708V27.3324L67.4644 27.9229C67.9776 28.5805 68.6426 29.1039 69.4025 29.4481C70.1623 29.7923 70.9943 29.9471 71.8271 29.8992C75.0253 29.8992 78.2563 27.8081 78.2563 23.1338V20.5096C78.2481 17.1474 76.2472 13.7441 71.7861 13.7441H71.7943ZM74.5415 22.9451C74.5415 25.4053 73.09 26.9716 70.761 26.9716C68.5879 26.9716 67.0708 25.3315 67.0708 23.0026V20.7228C67.0708 18.3528 68.6043 16.6963 70.7938 16.6963C73.1064 16.6963 74.5497 18.238 74.5497 20.7228L74.5415 22.9451ZM121.555 8.62699L114.06 29.5302H117.808L119.243 25.0527H127.853V25.0937L129.288 29.5302H133.061L125.565 8.62699H121.555ZM120.194 22.1005L123.548 11.53L126.894 22.1005H120.194Z" fill="black"/>
<path d="M35.6172 18.5939C35.2337 17.1356 34.4827 15.8001 33.4358 14.715C33.871 13.5099 34.0349 12.2236 33.9158 10.9478C33.7968 9.67205 33.3977 8.43829 32.747 7.3345C31.7583 5.67716 30.2677 4.37763 28.491 3.62421C26.7144 2.87079 24.744 2.7026 22.8653 3.14402C21.811 1.91615 20.4457 0.994546 18.9126 0.475843C17.3796 -0.0428603 15.7352 -0.13956 14.1519 0.195883C12.5686 0.531325 11.1047 1.28655 9.91374 2.38239C8.72275 3.47822 7.8485 4.8743 7.38268 6.42424C6.10586 6.64793 4.89297 7.14666 3.82811 7.88583C2.76325 8.625 1.8719 9.58693 1.21586 10.7049C0.242271 12.3611 -0.163642 14.29 0.0598841 16.1981C0.28341 18.1062 1.12414 19.8891 2.45415 21.2754C2.01898 22.4806 1.85508 23.7669 1.97415 25.0426C2.09322 26.3184 2.49232 27.5521 3.143 28.6559C4.12525 30.3192 5.61547 31.6232 7.39436 32.3761C9.17324 33.129 11.1468 33.291 13.0247 32.8382C14.0758 34.0688 15.4386 34.9939 16.9702 35.5166C18.5018 36.0393 20.1459 36.1403 21.73 35.809C23.3141 35.4778 24.7799 34.7265 25.9737 33.6339C27.1676 32.5413 28.0455 31.1476 28.5155 29.599C29.7923 29.3753 31.0052 28.8766 32.0701 28.1374C33.1349 27.3982 34.0263 26.4363 34.6823 25.3183C35.2787 24.3164 35.6686 23.2054 35.8292 22.0505C35.9897 20.8957 35.9177 19.7204 35.6172 18.5939ZM28.9009 27.0158C28.8952 26.9194 28.8641 26.8261 28.8109 26.7455C28.7576 26.6648 28.684 26.5997 28.5975 26.5566V18.2002C28.635 18.0269 28.6153 17.8462 28.5413 17.685C28.4674 17.5239 28.3433 17.391 28.1875 17.3064L19.9869 12.6731L22.9473 10.9919L29.885 14.9364C30.661 15.3733 31.3416 15.9612 31.8867 16.6654C32.4318 17.3696 32.8303 18.1759 33.0586 19.0367C33.2879 19.8815 33.3458 20.7637 33.2289 21.6313C33.112 22.4988 32.8227 23.3342 32.378 24.0882C31.5944 25.4385 30.365 26.4737 28.9009 27.0158V27.0158ZM6.98905 8.97461C6.9947 9.07216 7.02666 9.16636 7.08152 9.24721C7.13639 9.32806 7.21212 9.39255 7.30067 9.43384V17.7902C7.25196 17.9627 7.26553 18.1468 7.33901 18.3102C7.41248 18.4737 7.54117 18.606 7.7025 18.6841L15.903 23.3174L12.9427 24.9985L5.97218 21.0458C5.19616 20.609 4.51553 20.0211 3.97045 19.3168C3.42538 18.6126 3.02691 17.8063 2.79857 16.9455C2.56926 16.1007 2.51134 15.2185 2.62824 14.351C2.74513 13.4834 3.03447 12.648 3.47922 11.894C4.27239 10.5409 5.51411 9.50807 6.98905 8.97461V8.97461ZM31.3529 13.1241C31.1782 13.0353 30.9774 13.012 30.787 13.0585L23.4886 8.90901C23.3334 8.82133 23.1583 8.77526 22.9801 8.77526C22.8019 8.77526 22.6268 8.82133 22.4717 8.90901L14.1563 13.6571V10.2129L21.2252 6.26843C22.7909 5.37716 24.6438 5.13558 26.3856 5.59559C28.1275 6.0556 29.6195 7.18049 30.541 8.7286C31.3217 10.0581 31.6091 11.6201 31.3529 13.1405V13.1241ZM17.945 13.8949L21.7336 16.0435V20.0044L17.945 22.0955L14.1645 19.9469V16.0107L17.945 13.8949ZM20.0607 4.57092L12.6392 8.72039C12.4789 8.80126 12.3496 8.9325 12.2711 9.09398C12.1925 9.25545 12.1692 9.43823 12.2046 9.61425V18.8153L9.2196 17.1752V9.46665C9.22424 9.41207 9.22424 9.35721 9.2196 9.30263C9.23454 8.01317 9.61461 6.75434 10.3158 5.67205C11.0169 4.58977 12.0104 3.72834 13.1811 3.18762C14.3518 2.64689 15.6518 2.44901 16.9304 2.61692C18.2089 2.78482 19.4137 3.31163 20.4052 4.13629C20.2434 4.23677 20.1216 4.39044 20.0607 4.57092V4.57092ZM4.53709 22.8499C4.64639 22.906 4.7669 22.9369 4.88971 22.9401C4.96048 22.9494 5.03216 22.9494 5.10293 22.9401L12.4014 27.0896C12.5563 27.1781 12.7315 27.2246 12.9098 27.2246C13.0882 27.2246 13.2634 27.1781 13.4183 27.0896L21.7418 22.3579V25.8021L14.6648 29.722C13.0991 30.6133 11.2462 30.8548 9.50432 30.3948C7.76242 29.9348 6.27045 28.8099 5.34894 27.2618C4.56831 25.9323 4.28088 24.3703 4.53709 22.8499ZM15.8292 31.4195L23.2589 27.2782C23.4193 27.1957 23.548 27.0626 23.6251 26.8995C23.7022 26.7364 23.7234 26.5525 23.6854 26.3762V17.1752L26.6622 18.8153V26.5238C26.6575 26.5784 26.6575 26.6332 26.6622 26.6878C26.646 27.9758 26.2655 29.2329 25.5648 30.3137C24.8641 31.3945 23.8717 32.2548 22.7025 32.7953C21.5333 33.3357 20.2349 33.5341 18.9577 33.3676C17.6804 33.201 16.4764 32.6763 15.4848 31.8541C15.6466 31.7537 15.7684 31.6 15.8292 31.4195Z" fill="black"/>
</svg>
