<svg xmlns="http://www.w3.org/2000/svg" width="162" height="30" fill="none" id="svg765922132_3742"><g clip-path="url(#svg765922132_3742_a)" fill="#DEE5E5"><path d="M78.919 18.63c-.153.353-.953 1.949-2.957 1.949-2.32 0-3.225-1.991-3.225-3.47 0-2.447 1.592-4.644 3.936-4.644 2.523 0 3.125 1.944 3.183 2.296h3.71c.223-1.435-.878-5.824-6.75-5.824-4.295 0-7.731 3.55-7.731 8.293 0 3.881 2.344 6.874 6.69 6.874 5.416 0 6.878-4.395 7.057-5.473H78.92ZM50.441 19.7c0-.224.057-.648.248-1.54.185-.893 2.807-13.387 2.807-13.387h-3.483l-2.89 13.782a8.169 8.169 0 0 0-.174 1.656c0 3.023 2.26 3.911 4.07 3.911.647 0 1.248-.111 1.398-.132.058-.302.604-2.897.63-3.01-.078.005-.462.035-.907.035-1.295 0-1.699-.568-1.699-1.315ZM95.043 8.985l-6.24 5.812 2.103-10.054H87.4l-3.983 19.074h3.505l.969-4.634 2.156-1.776 2.982 6.41h3.902L92.7 15.231l7.2-6.246h-4.858Zm-63.746 8.937c.292-1.368 2.763-13.173 2.763-13.173h6.635c4.815 0 6 2.768 6 4.448 0 3.716-3.393 4.7-3.809 4.835.387.131 2.59 1.034 2.59 3.952 0 3.175-2.83 5.836-7.217 5.836h-2c-3.685 0-5.663-2.616-4.962-5.898Zm10.39-.234c0-.896-.558-2.034-3.036-2.034h-3.217l-.964 4.613h3.643c2.357 0 3.574-1.098 3.574-2.58Zm1.194-7.686c0-.927-.683-1.725-2.354-1.725h-3.55l-.805 3.85h3.699c1.992 0 3.01-.995 3.01-2.125Zm55.422 7.92c.292-1.368 2.762-13.173 2.762-13.173h6.639c4.814 0 6 2.768 6 4.448 0 3.716-3.393 4.7-3.809 4.835.381.131 2.589 1.034 2.589 3.953 0 3.175-2.833 5.835-7.219 5.835h-2c-3.685 0-5.664-2.616-4.962-5.898Zm10.39-.234c0-.896-.559-2.034-3.035-2.034h-3.22l-.963 4.614h3.644c2.357 0 3.574-1.1 3.574-2.58Zm1.193-7.686c0-.927-.68-1.725-2.356-1.725h-3.549l-.803 3.85h3.7c1.991 0 3.008-.995 3.008-2.125Zm27.898-1.008c-3.716 0-6.244 2.275-7.095 6.545a1884.12 1884.12 0 0 1-1.714 8.286h3.48s1.283-6.134 1.688-8.062c.532-2.527 1.823-3.385 3.56-3.385.561 0 .918.066 1.101.092.096-.508.581-2.789.697-3.348-.377-.05-.972-.128-1.717-.128ZM149.626 29.5l11.682-20.506h-3.76l-5.368 9.65-1.254-9.662h-4.022c-4.607 0-6.994 2.18-7.841 6.35-.425 2.082-1.774 8.493-1.774 8.493h3.481s1.278-6.09 1.786-8.547c.492-2.386 2.203-3.115 4.047-2.708l.734-3.501c.543 3.325 2.205 13.947 2.205 13.947l-3.645 6.484h3.729Zm-89.131-12c.766-.117 3.009-.476 3.315-.52-.058.247-.148.643-.214.935-.405 1.793-2.171 2.945-4.119 2.945-1.242 0-1.968-.691-1.968-1.513 0-.679.602-1.483 2.986-1.847Zm-1.303-3.863c.086-.146.982-1.575 3.213-1.575 1.388 0 2.099.524 2.099 1.157 0 .895-1.399 1.127-3.821 1.486-4.162.622-6.792 1.958-6.792 5.068 0 2.203 1.769 4.35 4.91 4.35 2.61 0 3.974-1.63 4.095-1.755.012.392.061.978.102 1.45h3.598c-.124-.643-.382-1.878.046-3.854.226-1.04.86-4.03 1.184-5.68.617-3.121-1.04-5.328-5.283-5.328-5.456 0-7.028 4.057-7.282 4.682h3.931Zm64.662 5.737c-.128.29-.975 1.513-2.868 1.513-2.726 0-3.346-2.391-3.283-3.047h10.618c.061-.268.301-1.246.301-2.25 0-3.475-2.277-6.652-6.869-6.652-4.2 0-7.569 3.653-7.569 7.992 0 4.197 2.437 7.175 6.745 7.175 5.324 0 6.758-4.314 6.896-4.73h-3.971Zm-2.064-7.142c2.344 0 3.24 1.48 3.144 2.667h-6.705c.173-.754 1.292-2.667 3.561-2.667ZM9.27 2.572C9.27 1.657 8.73.5 6.456.5H2.952l-.996 4.766h3.652c2.85 0 3.663-1.396 3.663-2.694Zm9.436 0c0-.915-.54-2.072-2.814-2.072H12.39l-.995 4.765h3.65c2.852 0 3.662-1.395 3.662-2.693ZM8.007 9.745c0-.915-.541-2.075-2.816-2.075H1.688l-.996 4.769h3.65c2.852 0 3.665-1.4 3.665-2.694Zm9.436 0c0-.915-.542-2.075-2.815-2.075h-3.503l-.997 4.769h3.652c2.852 0 3.663-1.4 3.663-2.694Zm9.872-2.909c0-.915-.542-2.075-2.815-2.075h-3.503L20 9.529h3.65c2.853 0 3.665-1.396 3.665-2.693Zm-1.361 7.468c0-.915-.54-2.072-2.815-2.072h-3.502l-.996 4.766h3.65c2.852 0 3.663-1.4 3.663-2.694Zm-9.867 2.909c0-.918-.54-2.078-2.813-2.078H9.77l-.995 4.768h3.65c2.852 0 3.663-1.395 3.663-2.69Z"></path></g><defs><clipPath id="svg765922132_3742_a"><path fill="#fff" transform="translate(.692 .5)" d="M0 0h160.615v29H0z"></path></clipPath></defs></svg>