<svg xmlns="http://www.w3.org/2000/svg" width="142" height="30" fill="none" id="svg-1363083407_3765"><path d="M7.01 26.604h17.278c-.648-1.125-1.193-2.147-1.806-3.102-.102-.17-.511-.204-.75-.204H5.92c-.58 0-.955-.136-1.227-.682-.41-.852-.954-1.67-1.5-2.624h17.278c-.647-1.124-1.227-2.147-1.874-3.135-.102-.17-.511-.17-.784-.17H2.001c-1.125 0-1.84-1.295-1.33-2.318.41-.817.92-1.056 1.84-1.056 5.112.068 10.258.034 15.37.034.511 0 .818-.136 1.057-.613.443-.886.988-1.738 1.533-2.693H3.193c.648-1.158 1.227-2.18 1.875-3.169.102-.17.51-.17.783-.17h15.813c.58 0 .92-.17 1.159-.682.443-.852.954-1.67 1.499-2.624H7.18C8.1.976 9.225.022 11.304.056c4.26.069 8.554.034 12.813 0 1.466 0 2.488.614 3.204 1.84 2.42 4.192 4.84 8.35 7.259 12.542.238.408.238.681 0 1.09-2.42 4.158-4.84 8.315-7.225 12.473-.75 1.295-1.806 1.942-3.306 1.942-4.26-.034-8.485-.034-12.745 0-1.67.034-2.829-.613-3.578-2.079-.17-.374-.41-.75-.716-1.26Zm54.117-6.305c0 1.056.034 2.25-.034 3.408 0 .238-.307.545-.546.715-4.668 3-13.46 2.113-15.573-6.1-.989-3.85-.512-7.53 2.078-10.7 2.25-2.76 5.317-3.68 8.793-3.442 1.738.102 3.373.613 4.805 1.602.204.136.409.409.443.647.034 1.193.034 2.351.034 3.646a47.611 47.611 0 0 0-.989-.783c-1.84-1.33-3.884-1.977-6.168-1.67-2.76.375-4.532 1.942-5.35 4.566-.648 2.181-.613 4.362.273 6.475 1.363 3.272 4.907 4.771 8.52 3.544 1.294-.443 2.487-1.26 3.714-1.908Zm17.107-1.295H67.602c.204 2.215 1.533 3.578 3.68 3.85 2.079.24 4.022-.101 5.828-1.158.068-.034.17-.068.306-.17 0 .988.034 1.908 0 2.828-.034.103-.068.17-.102.273-.034.102-.136.136-.204.204-2.624 1.67-7.43 1.534-9.917-.306-1.602-1.159-2.488-2.76-2.795-4.703-.374-2.317-.136-4.532 1.09-6.577 1.534-2.488 4.363-3.68 7.396-3.135 2.556.477 4.532 2.487 5.112 5.282.136.647.204 1.295.238 1.976.034.512 0 1.057 0 1.636Zm-3.237-2.658c-.103-2.147-1.431-3.442-3.51-3.442-2.08 0-3.68 1.5-3.749 3.442h7.259Zm19.799 9.304h-3.305v-.784c0-2.829.034-5.623-.034-8.452 0-.716-.137-1.397-.477-2.045-.75-1.397-2.863-1.704-4.397-.647-.92.613-1.465 1.363-1.43 2.59.067 2.828.033 5.691.033 8.52v.817h-3.34v-15.3h3.136v2.078c.852-1.125 1.738-1.84 2.862-2.181 3-.92 6.85.375 6.987 5.078.102 3.373.034 6.747.034 10.155a.26.26 0 0 0-.069.17Zm31.114 0h-3.033v-2.011c-.988 1.124-2.079 1.942-3.51 2.215-3.271.647-6.1-1.397-6.27-4.703-.137-2.726-.068-5.453-.068-8.145v-2.658h3.407v9.167c0 1.704.716 2.829 1.977 3.17.75.204 1.533.136 2.249-.137.716-.272 1.295-.818 1.704-1.465.17-.341.273-.682.273-1.057.034-2.964 0-5.93 0-8.86v-.818h3.339V25.65h-.068Zm-16.63-11.11c-1.943-1.432-4.021-1.909-6.237-1.466a2.21 2.21 0 0 0-1.192.682c-.716.784-.205 1.942.954 2.283.988.273 1.976.477 2.965.716.613.136 1.192.34 1.772.58 1.636.715 2.488 1.976 2.522 3.714.034 1.772-.716 3.17-2.318 4.021-2.044 1.09-4.26 1.125-6.475.682-.92-.17-1.806-.58-2.692-.92-.17-.069-.409-.307-.409-.478-.034-1.022-.034-2.01-.034-3.135 1.33.954 2.692 1.568 4.192 1.704 1.022.068 2.044.034 3.067-.102.886-.102 1.329-.648 1.363-1.397.034-.75-.375-1.363-1.261-1.602-1.159-.307-2.317-.545-3.476-.818-3.067-.681-4.532-3.306-3.408-6.066.614-1.534 1.909-2.317 3.442-2.692a10.378 10.378 0 0 1 6.577.511c.477.204.682.477.682.988-.068.886-.034 1.772-.034 2.795Zm31.455 0a7.49 7.49 0 0 0-5.317-1.602 6.342 6.342 0 0 0-1.397.273c-.647.204-1.022.681-1.022 1.363 0 .681.375 1.193 1.022 1.363 1.091.307 2.215.58 3.306.818 1.431.34 2.794.886 3.578 2.215 1.329 2.25.341 5.248-2.181 6.27-2.965 1.193-5.93.92-8.758-.443a.909.909 0 0 1-.273-.238 1.021 1.021 0 0 1-.136-.34c-.034-.955-.034-1.943-.034-3 .272.17.443.273.647.41 2.011 1.26 4.192 1.635 6.509 1.226.988-.17 1.397-.648 1.466-1.397.034-.852-.341-1.397-1.329-1.67-1.159-.307-2.318-.511-3.477-.818-3.203-.784-4.634-3.817-3.101-6.509a4.48 4.48 0 0 1 2.42-1.977c2.522-.852 5.009-.715 7.463.273.409.17.614.409.579.886 0 .954.035 1.84.035 2.897Z" fill="#DEE5E5"></path></svg>