<svg xmlns="http://www.w3.org/2000/svg" width="80" height="42" fill="none" id="svg-664073338_2662"><g clip-path="url(#svg-664073338_2662_a)" fill="#DEE5E5"><path d="M39.447 28.003c-.103-.028-1.683-.435-3.361-.435-3.178 0-5.092 1.716-5.092 4.271 0 2.263 1.601 3.39 3.522 3.998.213.07.527.168.736.237.855.27 1.537.669 1.537 1.361 0 .775-.788 1.276-2.503 1.276-1.507 0-2.952-.431-3.257-.508v3.144a20.6 20.6 0 0 0 3.722.373c2.638 0 5.656-1.152 5.656-4.584 0-1.665-1.019-3.198-3.257-3.91l-.951-.302c-.567-.18-1.58-.47-1.58-1.301 0-.657.75-1.12 2.132-1.12 1.193 0 2.644.4 2.696.417v-2.917Zm29.137 6.641c0 1.988-1.522 3.597-3.566 3.597-2.045 0-3.564-1.609-3.564-3.597 0-1.984 1.519-3.593 3.564-3.593 2.044 0 3.566 1.61 3.566 3.593Zm-3.566-7.072c-4.202 0-7.216 3.17-7.216 7.072 0 3.909 3.014 7.077 7.216 7.077s7.22-3.168 7.22-7.077c0-3.902-3.018-7.072-7.22-7.072ZM26.371 41.477h-3.448V27.814h3.448m-8.188.248c-.324-.096-1.521-.49-3.143-.49-4.196 0-7.276 2.992-7.276 7.072 0 4.403 3.4 7.077 7.276 7.077 1.54 0 2.715-.365 3.143-.487v-3.668c-.148.083-1.275.726-2.896.726-2.297 0-3.779-1.617-3.779-3.648 0-2.092 1.546-3.644 3.779-3.644 1.649 0 2.758.657 2.896.73m35.989-3.668c-.324-.096-1.522-.49-3.144-.49-4.196 0-7.276 2.992-7.276 7.072 0 4.403 3.4 7.077 7.276 7.077 1.54 0 2.715-.365 3.144-.487v-3.668c-.148.083-1.275.726-2.897.726-2.297 0-3.779-1.617-3.779-3.648 0-2.092 1.546-3.644 3.78-3.644 1.648 0 2.757.657 2.896.73M22.913 1.982A1.71 1.71 0 0 0 21.2.277a1.71 1.71 0 0 0-1.711 1.705v18.144a1.711 1.711 0 0 0 3.424 0V1.982ZM13.51 8.423a1.711 1.711 0 0 0-3.424 0v8.295a1.711 1.711 0 0 0 3.424 0V8.423Zm-9.402 4.708a1.71 1.71 0 0 0-1.712-1.706 1.71 1.71 0 0 0-1.712 1.706v3.587a1.712 1.712 0 0 0 3.424 0"></path><path d="M19.489 1.982A1.71 1.71 0 0 1 21.201.277a1.71 1.71 0 0 1 1.711 1.705v18.144a1.711 1.711 0 0 1-3.423 0V1.982Zm9.402 6.441a1.711 1.711 0 0 1 3.424 0v8.295a1.711 1.711 0 0 1-3.424 0V8.423Zm9.403 4.708a1.71 1.71 0 0 1 1.711-1.706 1.71 1.71 0 0 1 1.712 1.706v3.587a1.712 1.712 0 0 1-3.423 0M57.087 1.982c0-.941.77-1.705 1.712-1.705a1.71 1.71 0 0 1 1.712 1.705v18.144a1.711 1.711 0 0 1-3.424 0V1.982Zm9.403 6.441a1.711 1.711 0 0 1 3.423 0v8.295a1.711 1.711 0 0 1-3.423 0V8.423Zm9.402 4.708a1.71 1.71 0 0 1 1.712-1.706 1.71 1.71 0 0 1 1.712 1.706v3.587a1.712 1.712 0 0 1-3.424 0"></path><path d="M60.511 1.982A1.71 1.71 0 0 0 58.8.277a1.71 1.71 0 0 0-1.712 1.705v18.144a1.711 1.711 0 0 0 3.424 0V1.982Zm-9.403 6.441a1.711 1.711 0 0 0-3.423 0v8.295a1.711 1.711 0 0 0 3.423 0V8.423Zm-9.402 4.708a1.71 1.71 0 0 0-1.712-1.706 1.71 1.71 0 0 0-1.711 1.706v3.587a1.712 1.712 0 0 0 3.423 0"></path></g><defs><clipPath id="svg-664073338_2662_a"><path fill="#fff" transform="translate(.684 .25)" d="M0 0h78.632v41.5H0z"></path></clipPath></defs></svg>