<svg xmlns="http://www.w3.org/2000/svg" width="124" height="44" fill="none" id="svg1786678573_3254"><path d="M46.3 11.752h7.274c1.766 0 3.354.345 4.734 1.035 1.38.677 2.443 1.643 3.202 2.912.759 1.243 1.145 2.692 1.145 4.334 0 1.643-.386 3.092-1.145 4.348-.76 1.242-1.822 2.208-3.202 2.912-1.38.676-2.954 1.021-4.734 1.021H46.3V11.752Zm7.136 13.954c1.214 0 2.29-.235 3.202-.69.938-.47 1.642-1.132 2.139-1.988.51-.87.76-1.863.76-3.009 0-1.145-.25-2.125-.76-2.98a4.819 4.819 0 0 0-2.14-1.988c-.924-.47-1.987-.704-3.201-.704h-4.044v11.345h4.044v.014Zm24.139-3.644c0 .207-.014.497-.041.87h-9.965c.18.924.62 1.67 1.352 2.222.746.538 1.656.8 2.76.8 1.395 0 2.54-.455 3.451-1.366l1.587 1.822c-.566.676-1.297 1.187-2.167 1.532-.87.345-1.849.524-2.94.524-1.393 0-2.622-.276-3.684-.828-1.063-.552-1.891-1.311-2.471-2.291-.566-.994-.856-2.112-.856-3.354s.276-2.332.828-3.312a6.015 6.015 0 0 1 2.347-2.319c.993-.552 2.125-.828 3.381-.828 1.256 0 2.333.276 3.299.828a5.603 5.603 0 0 1 2.277 2.291c.566.994.842 2.126.842 3.41Zm-6.418-4.154c-.952 0-1.753.29-2.429.855-.649.553-1.049 1.298-1.187 2.223h7.205c-.125-.911-.511-1.657-1.16-2.223-.648-.565-1.463-.855-2.429-.855Zm21.2 4.154c0 .207-.014.497-.042.87h-9.95c.179.924.62 1.67 1.352 2.222.745.538 1.67.8 2.76.8 1.394 0 2.54-.455 3.45-1.366l1.588 1.822c-.566.676-1.297 1.187-2.167 1.532-.87.345-1.85.524-2.94.524-1.394 0-2.622-.276-3.685-.828-1.063-.552-1.89-1.311-2.47-2.291-.566-.994-.856-2.112-.856-3.354s.276-2.332.828-3.312a6.015 6.015 0 0 1 2.346-2.319c.994-.552 2.126-.828 3.368-.828s2.333.276 3.299.828a5.603 5.603 0 0 1 2.277 2.291c.566.994.842 2.126.842 3.41Zm-6.418-4.154c-.952 0-1.753.29-2.43.855-.648.553-1.048 1.298-1.186 2.223h7.204c-.124-.911-.51-1.657-1.159-2.223-.662-.565-1.463-.855-2.429-.855Zm16.3-2.36c1.228 0 2.332.262 3.298.8a5.805 5.805 0 0 1 2.305 2.277c.552.98.829 2.098.829 3.382 0 1.284-.277 2.415-.829 3.409a5.805 5.805 0 0 1-2.305 2.277c-.966.538-2.07.8-3.298.8-1.712 0-3.064-.565-4.058-1.697v6.128h-2.967V15.686h2.83v1.656a4.733 4.733 0 0 1 1.807-1.353 5.845 5.845 0 0 1 2.388-.441Zm-.331 10.392c1.09 0 1.987-.358 2.677-1.09.718-.718 1.077-1.684 1.077-2.857 0-1.173-.359-2.14-1.077-2.857-.704-.718-1.587-1.09-2.677-1.09-.718 0-1.353.165-1.919.497a3.48 3.48 0 0 0-1.352 1.366c-.332.594-.497 1.297-.497 2.084 0 .787.165 1.477.497 2.084a3.554 3.554 0 0 0 1.352 1.394 3.703 3.703 0 0 0 1.919.47Zm9.868-14.188h3.091v13.954h8.696V28.3h-11.787V11.752Z" fill="#DEE5E5"></path><path fill-rule="evenodd" clip-rule="evenodd" d="M34.352 9.059 19.282.342a2.487 2.487 0 0 0-2.516 0L1.696 9.088a2.522 2.522 0 0 0-1.259 2.168V28.72a2.52 2.52 0 0 0 1.258 2.19l15.07 8.725c.037.022.08.044.117.065l7.423 4.3-.022-3.78.015-2.096.007.036v-.709c0-.419.217-.795.542-1.026l.484-.275.232-.13h-.015l8.804-5.096a2.53 2.53 0 0 0 1.258-2.19V11.249a2.53 2.53 0 0 0-1.258-2.19ZM16.29 26.819a2.618 2.618 0 0 1-.73 2.537 2.583 2.583 0 0 1-3.614 0 2.603 2.603 0 0 1 0-3.78 2.583 2.583 0 0 1 3.744.137l6.1-3.513 1.258.708-6.758 3.91Zm10.582-4.424a2.583 2.583 0 0 1-3.614 0 2.612 2.612 0 0 1-.68-2.71l-.021.014-6.882-3.983c-.036.036-.065.072-.1.101a2.583 2.583 0 0 1-3.615 0 2.603 2.603 0 0 1 0-3.78 2.583 2.583 0 0 1 3.614 0c.723.694.962 1.684.716 2.58l6.932 4.034.036-.037a2.583 2.583 0 0 1 3.614 0 2.615 2.615 0 0 1 0 3.78Z" fill="#DEE5E5"></path></svg>