<svg xmlns="http://www.w3.org/2000/svg" width="126" height="24" fill="none" id="svg1346672262_2255"><g clip-path="url(#svg1346672262_2255_a)" fill="#DEE5E5"><path d="M0 1.117c.173-.014.332-.027.479-.027 3.324 0 6.648-.106 9.959.04 4.348.186 8.031 1.835 10.012 5.944 2.9 5.97.559 14.466-8.337 15.836-1.13.173-2.287.226-3.43.24-2.872.026-5.758.013-8.683.013V1.117Zm4.082 18.482c2.008 0 3.963.053 5.904-.013 4.082-.146 7.18-2.646 7.446-6.994.226-3.697-1.822-6.689-5.398-7.633-.679-.172-1.397-.305-2.088-.319-1.941-.04-3.883-.013-5.864-.013v14.972Zm56.112-2.473c2.766-.718 5.385-.718 8.151.013-.651-1.223-1.236-2.313-1.821-3.404a938.635 938.635 0 0 0-4.375-8.031c-.2-.359-.2-.612 0-.957.705-1.25 1.383-2.513 2.127-3.91 4.003 7.393 7.939 14.68 11.94 22.06-1.595 0-3.11.013-4.626-.014-.147 0-.306-.146-.44-.252-4.015-3.231-9.52-3.271-13.628-.133a2.132 2.132 0 0 1-1.117.385c-1.33.054-2.646.014-4.096.014 2.713-5 5.399-9.933 8.138-14.972.798 1.462 1.556 2.805 2.26 4.161.08.16-.04.466-.146.665-.651 1.237-1.316 2.447-1.981 3.67-.12.2-.213.386-.386.705ZM126 23.11c-1.609 0-3.111.013-4.601-.014-.146 0-.319-.133-.452-.24-4.122-3.257-9.507-3.297-13.682-.119a2.045 2.045 0 0 1-1.077.36c-1.317.039-2.646.012-4.109.012 2.726-5.039 5.399-9.946 8.124-14.972.798 1.463 1.556 2.82 2.274 4.202.067.133-.053.412-.146.598-.678 1.29-1.383 2.567-2.074 3.857-.08.146-.147.305-.266.545 2.726-.718 5.358-.732 8.084.026-.106-.226-.159-.385-.226-.518-1.968-3.63-3.936-7.26-5.93-10.89-.2-.36-.213-.652 0-1.024.718-1.237 1.383-2.513 2.127-3.87C118.048 8.43 121.998 15.716 126 23.11ZM79.209 4.587v-3.47h20.463v3.417h-8.137v.85c0 5.652-.013 11.303.013 16.954 0 .639-.186.785-.784.771-1.077-.04-2.168-.013-3.311-.013V4.587h-8.244Zm-53.2-3.484h2.58c2.752 0 5.49-.053 8.243.027 2.487.066 4.8.705 6.675 2.5 2.992 2.872 3.018 9.76-2.074 12.033-.16.067-.32.146-.532.253 1.662 2.38 3.31 4.733 5.013 7.167-1.49 0-2.846.013-4.215-.013-.147 0-.32-.147-.413-.28-2.167-3.071-4.32-6.156-6.488-9.228-.04-.053-.04-.12-.08-.2.944-.052 1.875-.052 2.779-.185 3.643-.519 4.414-3.418 3.657-5.784-.586-1.822-2.075-2.593-3.817-2.686-2.739-.147-5.491-.12-8.23-.133-.466 0-.758-.12-1.024-.532-.625-.944-1.316-1.862-2.074-2.939Z"></path></g><defs><clipPath id="svg1346672262_2255_a"><path fill="#fff" transform="translate(0 .837)" d="M0 0h126v22.325H0z"></path></clipPath></defs></svg>