<svg xmlns="http://www.w3.org/2000/svg" width="70" height="28" fill="none" id="svg567038655_1434"><g clip-path="url(#svg567038655_1434_a)" fill="#DEE5E5"><path d="M9.165 6.13C4.25 6.13.154 8.216.154 14.507c0 4.985 2.754 8.124 9.138 8.124 7.515 0 7.997-4.95 7.997-4.95h-3.641s-.781 2.665-4.578 2.665c-3.092 0-5.316-2.089-5.316-5.017H17.67v-1.837c0-2.897-1.84-7.362-8.505-7.362ZM9.04 8.478c2.943 0 4.95 1.804 4.95 4.506H3.834c0-2.869 2.62-4.506 5.205-4.506Z"></path><path d="M17.667.038V19.47c0 1.103-.079 2.652-.079 2.652h3.473s.125-1.112.125-2.129c0 0 1.716 2.684 6.381 2.684 4.913 0 8.25-3.41 8.25-8.298 0-4.546-3.065-8.202-8.242-8.202-4.848 0-6.354 2.618-6.354 2.618V.038h-3.554Zm9.012 8.543c3.336 0 5.458 2.477 5.458 5.8 0 3.563-2.45 5.894-5.434 5.894-3.561 0-5.482-2.78-5.482-5.863 0-2.872 1.723-5.83 5.458-5.83Z"></path><path d="M44.449 6.13c-7.396 0-7.87 4.05-7.87 4.696h3.68s.194-2.364 3.936-2.364c2.431 0 4.315 1.113 4.315 3.253v.762h-4.315c-5.73 0-8.758 1.676-8.758 5.077 0 3.347 2.798 5.168 6.58 5.168 5.154 0 6.814-2.848 6.814-2.848 0 1.133.088 2.25.088 2.25h3.272s-.127-1.385-.127-2.27v-7.651c0-5.017-4.047-6.073-7.615-6.073Zm4.061 8.631v1.016c0 1.324-.817 4.617-5.628 4.617-2.635 0-3.764-1.315-3.764-2.84 0-2.775 3.804-2.793 9.392-2.793Z"></path><path d="M50.082 6.765h4.141l5.943 11.907 5.93-11.907h3.75l-10.8 21.197h-3.934l3.116-5.909-8.146-15.288Z"></path></g><defs><clipPath id="svg567038655_1434_a"><path fill="#fff" transform="translate(.13 .014)" d="M0 0h69.74v27.971H0z"></path></clipPath></defs></svg>