<svg xmlns="http://www.w3.org/2000/svg" width="72" height="24" fill="none" id="svg-1472209531_1038"><path d="m59.95 8.743 2.978 3.282 2.867-3.282h6.122l-5.983 6.729L72 22.255h-6.37l-2.95-3.308-2.923 3.308h-6.15L59.62 15.5l-6.012-6.757h6.343Z" fill="#DEE5E5"></path><path d="M53.607 8.743v4.566h-6.809v4.188h6.81v4.758H41.793V.97h11.813v4.744h-6.809v3.028h6.81ZM36.812.971v8.71h-.055c-1.104-1.267-2.482-1.708-4.081-1.708-3.277 0-5.745 2.228-6.61 5.172-.99-3.245-3.537-5.233-7.316-5.233-3.068 0-5.49 1.377-6.755 3.62V8.744H5.654V5.715h6.922V.971H0v21.284h5.653v-8.946h5.636a8.48 8.48 0 0 0-.258 2.104c0 4.439 3.391 7.555 7.72 7.555 3.64 0 6.038-1.71 7.306-4.825h-4.845c-.654.938-1.151 1.215-2.462 1.215-1.518 0-2.829-1.326-2.829-2.896h9.866c.428 3.526 3.175 6.567 6.944 6.567 1.625 0 3.114-.8 4.024-2.15h.055v1.377h4.983V.971h-4.981Zm-20.732 12.4c.314-1.351 1.363-2.235 2.672-2.235 1.44 0 2.436.857 2.698 2.236h-5.37Zm17.706 5.644c-1.837 0-2.979-1.713-2.979-3.5 0-1.91.994-3.747 2.98-3.747 2.059 0 2.879 1.837 2.879 3.747 0 1.811-.87 3.5-2.88 3.5Z" fill="#DEE5E5"></path></svg>