<svg xmlns="http://www.w3.org/2000/svg" width="70" height="28" fill="none" id="svg-1204070202_1927"><g clip-path="url(#svg-1204070202_1927_a)" fill="#DEE5E5"><path d="M.38 25.954h13.462v1.927H.38v-1.927Zm0-3.697h13.462v1.934H.38v-1.934Zm3.84-3.689h5.775v1.934H4.22v-1.934Zm0-3.69h5.775v1.934H4.22v-1.934Zm0-3.69h5.775v1.934H4.22v-1.934Zm0-3.696h5.775v1.934H4.22V7.492Zm9.622-3.69H.38v1.934h13.462V3.802Zm0-3.69H.38v1.934h13.462V.112Zm1.921 24.079h20.705c.35-.596.61-1.248.768-1.934H15.763v1.934Zm19.093-9.313H19.61v1.934h16.858a7.74 7.74 0 0 0-1.612-1.934Zm-15.246-3.69v1.934h15.246a7.196 7.196 0 0 0 1.611-1.934H19.61Zm16.858-7.386H15.763v1.934h21.473a8.369 8.369 0 0 0-.768-1.934ZM30.103.112h-14.34v1.934h19.285A7.28 7.28 0 0 0 30.103.112Zm-4.725 7.38H19.61v1.934h5.768V7.492Zm5.774 1.934h6.035a7.23 7.23 0 0 0 .261-1.934h-6.296v1.934ZM19.61 18.568h5.768v1.934H19.61v-1.934Zm11.542 0v1.934h6.296a7.23 7.23 0 0 0-.26-1.934h-6.036Zm-15.389 9.299 14.34.02c1.92 0 3.655-.74 4.952-1.933H15.763v1.913Zm23.084-1.913h9.615v1.927h-9.615v-1.927Zm0-3.697h9.615v1.934h-9.615v-1.934Zm3.841-3.689h5.774v1.934h-5.774v-1.934Zm0-3.69h5.774v1.934h-5.774v-1.934Zm8.449-11.076h-12.29v1.934h12.956l-.666-1.934ZM49.862.112H38.847v1.934h11.68L49.862.112Zm10.136 25.842h9.622v1.927h-9.622v-1.927Zm0-3.697h9.622v1.934h-9.622v-1.934Zm0-3.689h5.774v1.934h-5.774v-1.934Zm0-3.69h5.774v1.934h-5.774v-1.934Zm0-1.756h5.774v-1.934h-11l-.542 1.564-.542-1.564h-11v1.934h5.774v-1.776l.61 1.776h10.316l.61-1.776v1.776Zm5.775-5.63h-9.725l-.666 1.934h10.39V7.492ZM58.606.112l-.665 1.934h11.68V.112H58.605ZM54.23 27.867l.665-1.913h-1.33l.665 1.913Zm-1.275-3.676h2.55l.687-1.934h-3.916l.679 1.934Zm-1.297-3.689h5.144l.68-1.934H50.98l.678 1.934Zm-1.288-3.69h7.728l.659-1.934h-9.053l.665 1.934Zm-7.682-7.386h10.39l-.665-1.934h-9.725v1.934Zm13.977-3.69H69.62V3.802H57.323l-.658 1.934Z"></path></g><defs><clipPath id="svg-1204070202_1927_a"><path fill="#fff" transform="translate(.38 .112)" d="M0 0h69.24v27.776H0z"></path></clipPath></defs></svg>