<svg xmlns="http://www.w3.org/2000/svg" width="110" height="28" fill="none" id="svg240407758_3630"><g clip-path="url(#svg240407758_3630_a)"><path fill-rule="evenodd" clip-rule="evenodd" d="M4.472 4.922a.396.396 0 0 0 .016.547l18.528 18.528c.15.15.39.159.547.016a13.48 13.48 0 0 0 4.422-9.998C27.985 6.55 21.935.5 14.47.5a13.48 13.48 0 0 0-9.998 4.422ZM2.156 8.438a.398.398 0 0 0 .083.445l17.363 17.363a.398.398 0 0 0 .445.083c.4-.182.791-.383 1.17-.602a.394.394 0 0 0 .076-.621L3.38 7.19a.394.394 0 0 0-.621.076c-.22.38-.42.77-.602 1.171ZM1.103 13.41a.399.399 0 0 1-.117-.308c.036-.538.103-1.066.2-1.585a.388.388 0 0 1 .66-.195l15.316 15.316a.388.388 0 0 1-.195.661c-.518.097-1.046.164-1.584.2a.398.398 0 0 1-.308-.117L1.103 13.41Zm.94 3.771c-.28-.279-.73-.039-.628.343a13.54 13.54 0 0 0 9.546 9.546c.381.102.622-.349.343-.628l-9.261-9.26Zm53.39-9.244c.968 0 1.754-.788 1.754-1.76s-.785-1.76-1.754-1.76-1.754.788-1.754 1.76.785 1.76 1.754 1.76ZM40.41 23.29V4.418h3.116v16.11h8.405v2.762H40.41Zm22.184-7.701v7.7h-3.016V9.915h2.978v2.293l.038-.025c.303-.718.791-1.318 1.464-1.799.673-.49 1.531-.735 2.575-.735.925 0 1.766.207 2.523.621.757.405 1.363 1 1.817 1.786.455.785.682 1.748.682 2.888v8.347h-3.016v-7.93c0-1.012-.27-1.78-.808-2.304-.53-.532-1.24-.798-2.132-.798-.573 0-1.094.118-1.565.354-.471.237-.846.6-1.123 1.09-.278.49-.417 1.118-.417 1.887Zm27.309 7.473c.69.295 1.48.443 2.372.443.732 0 1.359-.093 1.88-.279.522-.194.95-.451 1.287-.772.345-.321.619-.672.82-1.052h.051v1.888h2.89v-9.208a4.17 4.17 0 0 0-.379-1.786 4.014 4.014 0 0 0-1.098-1.406c-.47-.397-1.043-.701-1.716-.912-.673-.22-1.43-.33-2.271-.33-1.153 0-2.15.199-2.99.596-.834.388-1.486.912-1.957 1.57a4.111 4.111 0 0 0-.77 2.23h2.915c.034-.389.169-.735.404-1.04a2.31 2.31 0 0 1 .96-.708c.403-.178.87-.266 1.4-.266.53 0 .98.088 1.35.266.379.177.67.418.87.722.203.303.304.658.304 1.063v.102c0 .304-.105.528-.316.671-.202.144-.547.25-1.034.317a73.03 73.03 0 0 1-1.969.24c-.681.076-1.338.19-1.969.342a6.058 6.058 0 0 0-1.69.672 3.308 3.308 0 0 0-1.162 1.178c-.285.49-.428 1.118-.428 1.887 0 .886.201 1.63.605 2.229a3.79 3.79 0 0 0 1.64 1.343Zm4.883-2.242c-.488.261-1.09.392-1.804.392-.724 0-1.3-.152-1.729-.456-.43-.312-.644-.739-.644-1.279 0-.422.118-.764.354-1.026.244-.262.563-.468.959-.62a5.532 5.532 0 0 1 1.287-.317c.336-.05.665-.101.984-.152.32-.06.618-.114.896-.165.278-.059.513-.118.707-.177.202-.06.349-.122.441-.19v1.495a2.91 2.91 0 0 1-.366 1.443c-.235.431-.597.781-1.085 1.052Zm7.048 2.47V9.914h2.903v2.204h.038c.244-.76.626-1.338 1.148-1.735.53-.405 1.224-.608 2.082-.608.21 0 .4.009.568.025.177.009.324.017.442.026v2.723a11.142 11.142 0 0 0-1.464-.101c-.497 0-.951.114-1.363.342-.412.228-.741.578-.984 1.05-.236.465-.354 1.052-.354 1.761v7.689h-3.016Zm-47.916 0V9.914h3.016V23.29H53.92Zm22.753-.596c.968.6 2.116.9 3.445.9 1.027 0 1.96-.186 2.802-.558a5.925 5.925 0 0 0 2.12-1.558 4.975 4.975 0 0 0 1.098-2.305h-2.84a2.72 2.72 0 0 1-.618 1.051 2.886 2.886 0 0 1-1.047.697c-.421.169-.909.253-1.464.253-.749 0-1.393-.168-1.93-.506a3.238 3.238 0 0 1-1.212-1.406c-.252-.552-.39-1.177-.413-1.875h9.7v-.81c0-1.03-.151-1.968-.454-2.812a6.497 6.497 0 0 0-1.287-2.204 5.637 5.637 0 0 0-2.007-1.444c-.774-.338-1.636-.507-2.587-.507-1.236 0-2.33.3-3.28.9-.951.6-1.696 1.427-2.234 2.482-.538 1.056-.808 2.263-.808 3.623 0 1.35.261 2.554.783 3.61a5.979 5.979 0 0 0 2.233 2.47Zm6.348-8.853a3.09 3.09 0 0 0-1.187-1.33c-.513-.313-1.118-.469-1.817-.469-.69 0-1.291.156-1.804.469a3.2 3.2 0 0 0-1.186 1.33 4.151 4.151 0 0 0-.388 1.418h6.769a4.158 4.158 0 0 0-.387-1.418Z" fill="#DEE5E5"></path></g><defs><clipPath id="svg240407758_3630_a"><path fill="#fff" transform="translate(.985 .5)" d="M0 0h108.03v27H0z"></path></clipPath></defs></svg>