<svg xmlns="http://www.w3.org/2000/svg" width="128" height="16" fill="none" id="svg2009732301_2862"><g clip-path="url(#svg2009732301_2862_a)" fill="#DEE5E5"><path d="M23.73.122c-.111 0-.246.085-.32.17l-7.64 9.374c-.636.778-1.273 1.556-1.91 2.346-.073-.085-.134-.146-.196-.219A2734.533 2734.533 0 0 1 4.334.328C4.2.158 4.053.11 3.844.11 2.56.122 1.287.11 0 .11v15.782h3.698V5.058l.183.182 4.127 5.082c1.26 1.544 2.51 3.088 3.77 4.632.515.62 1.188.985 2.021.997.943.012 1.653-.425 2.229-1.13 2.228-2.736 4.444-5.471 6.673-8.195.416-.51.832-1.033 1.26-1.544.025.012.05.012.074.024v10.772h3.637V.146c-.062-.012-.098-.012-.135-.012a132.524 132.524 0 0 0-3.808-.012ZM128 10.614c-.049-1.909-.845-2.954-2.694-3.55-.918-.292-1.873-.414-2.828-.462-1.69-.073-3.392-.122-5.094-.17-1.995-.061-3.991-.098-5.975-.17-.587-.025-1.187-.061-1.751-.22-.979-.28-1.224-1.434-.44-2.078.342-.28.795-.475 1.224-.572 1.494-.365 3.037-.413 4.567-.413 1.494 0 2.988.036 4.469.158 1.812.158 3.612.413 5.412.632.527.06 1.053.17 1.616.267.135-.996.27-1.957.404-2.966-1.396-.207-2.755-.426-4.126-.62a46.802 46.802 0 0 0-6.11-.462c-2.02-.024-4.028.073-6.024.352-1.065.146-2.118.34-3.11.766-1.139.487-1.996 1.253-2.265 2.48a6.62 6.62 0 0 0-.147 1.776c.086 1.507.82 2.59 2.277 3.149.906.34 1.849.498 2.817.547 1.187.06 2.375.097 3.55.133 2.645.086 5.29.159 7.947.244a10.72 10.72 0 0 1 1.763.194c.526.11.894.45.967 1.01.074.546-.085 1.02-.539 1.337a3.442 3.442 0 0 1-1.077.486c-1.249.316-2.522.425-3.796.413-2.057-.012-4.114-.048-6.158-.182-1.641-.097-3.27-.328-4.91-.523-.821-.097-1.629-.219-2.486-.34-.11.985-.233 1.957-.343 2.93.098.024.172.049.233.06 1.163.195 2.314.426 3.477.56 1.984.219 3.967.365 5.951.547.208.024.416.037.624.06h3.808c.061-.011.11-.036.172-.048 1.2-.11 2.4-.182 3.599-.34 1.127-.146 2.217-.474 3.196-1.082.894-.56 1.469-1.338 1.665-2.359a7.122 7.122 0 0 0 .135-1.544ZM40.675 9.605h16.799v-3.21H40.687v-3.1h17.51V.134H36.988v15.732h21.403c.184-1.057.355-2.115.539-3.197H40.675V9.605ZM96.618.11c-.244 0-.367.072-.465.303-1.261 3.016-2.547 6.03-3.82 9.046a331.19 331.19 0 0 1-1.139 2.675 14.25 14.25 0 0 1-.171-.292C89.1 8.45 87.19 5.058 85.268 1.666 84.68.632 83.787.06 82.574.06c-1.212 0-2.106.56-2.693 1.605-1.886 3.319-3.76 6.65-5.633 9.97-.085.157-.183.303-.294.51-.06-.134-.097-.207-.134-.292C72.216 8.024 70.6 4.207 68.996.39c-.086-.207-.184-.292-.417-.28-1.053.013-2.106 0-3.159.013-.098 0-.195.012-.306.024.037.121.061.207.098.28a8008.043 8008.043 0 0 1 6.416 15.185c.086.207.184.292.416.28a150.42 150.42 0 0 1 3.319 0c.22 0 .33-.073.428-.256 1.812-3.258 3.637-6.504 5.449-9.75.44-.779.881-1.569 1.347-2.396.073.122.122.195.159.256 2.216 3.963 4.444 7.927 6.648 11.902.098.17.196.244.404.244a152.64 152.64 0 0 1 3.343 0c.22 0 .318-.073.404-.268 2.13-5.07 4.273-10.128 6.416-15.185l.122-.329c-1.187 0-2.326.013-3.465 0Z"></path></g><defs><clipPath id="svg2009732301_2862_a"><path fill="#fff" d="M0 0h128v16H0z"></path></clipPath></defs></svg>