<svg xmlns="http://www.w3.org/2000/svg" width="108" height="30" fill="none" id="svg-585002168_937"><path d="M82.874 26.604c1.494.111 2.98.238 4.466.372V.75h-4.466v25.853Zm-71.838-9.728L5.217.758H.974V29.25a403.12 403.12 0 0 1 4.466-.61V13.138l5.173 14.856c1.627-.186 3.254-.364 4.89-.535V.75h-4.467v16.125ZM19.79 27.05c4.117-.372 8.249-.684 12.403-.922v-4.406c-2.653.156-5.299.334-7.937.542v-6.658c1.732-.015 4.013-.067 6.035-.045v-4.4c-1.613-.007-4.207.023-6.035.045V5.194h7.937V.758H19.79V27.05ZM35.061 5.194h4.675v20.578c1.486-.06 2.972-.104 4.466-.141V5.194h4.674V.758H35.061v4.436Zm16.676 20.31h4.466V15.346h6.057v-4.4h-6.057V5.194h8.004V.758h-12.47v24.746ZM107.018.751h-4.904l-3.233 7.498L95.975.75h-4.83l5.195 13.39-5.67 13.14c1.568.155 3.128.319 4.696.49l3.3-7.64 3.262 8.42c1.702.216 3.396.446 5.09.691h.008l-5.819-15.004L107.018.751Zm-35.491 0H67.06v24.976c4.058.141 8.1.342 12.128.61v-4.4c-2.549-.17-5.098-.312-7.661-.43V.75Z" fill="#DEE5E5"></path></svg>