<svg xmlns="http://www.w3.org/2000/svg" width="153" height="44" fill="none" id="svg-41355284_3722"><g clip-path="url(#svg-41355284_3722_a)" fill-rule="evenodd" clip-rule="evenodd" fill="#DEE5E5"><path d="M57.709 12.915c2.135 0 3.976.805 5.485 2.459 1.477 1.62 2.246 3.574 2.246 5.865 0 2.295-.761 4.257-2.245 5.878-1.512 1.65-3.353 2.454-5.486 2.454-2.129 0-3.967-.808-5.474-2.454-1.485-1.62-2.245-3.583-2.245-5.878 0-2.291.765-4.246 2.245-5.865 1.505-1.65 3.344-2.46 5.474-2.46Zm19.46 6.298c.273.21.535.498.714.693.984 1.08 1.48 2.387 1.48 3.91 0 1.543-.536 2.853-1.53 3.943-.86.939-1.92 1.461-3.117 1.636l-.023.004h-5.268V13.13h4.853c.99 0 1.864.364 2.567 1.132a3.85 3.85 0 0 1 1.04 2.675c0 .862-.243 1.627-.716 2.277Zm10.243 1.997c-.96-.343-1.86-.865-2.578-1.65-.683-.747-1.03-1.658-1.03-2.714 0-1.065.38-1.972 1.062-2.727.72-.794 1.613-1.175 2.634-1.175 1.033 0 1.924.405 2.66 1.198.439.475.72 1.093.903 1.732l.097.332-2.22.947-.122-.356c-.087-.26-.28-.803-.458-1.002-.239-.267-.516-.429-.86-.429-.336 0-.609.16-.844.417-.269.293-.38.652-.38 1.063 0 .427.122.787.392 1.093.364.381.83.676 1.285.911a7.262 7.262 0 0 1 2.957 1.938c.92 1.002 1.412 2.208 1.412 3.63 0 1.418-.482 2.629-1.397 3.628-.942 1.026-2.096 1.525-3.425 1.525-1.346 0-2.498-.524-3.448-1.568-.774-.85-1.2-1.908-1.358-3.088l-.042-.302 2.394-.945.045.478c.072.766.263 1.676.78 2.239.456.494.984.754 1.63.754.658 0 1.202-.273 1.666-.78.491-.536.714-1.184.714-1.94 0-.745-.208-1.397-.696-1.924a5.574 5.574 0 0 0-1.773-1.285Zm8.922 8.19h2.475V13.127h-2.475V29.4Zm10.393-16.272c2.146 0 4.221.598 5.765 2.302 1.462 1.611 2.211 3.559 2.211 5.83 0 2.298-.766 4.268-2.248 5.895-1.532 1.68-3.612 2.244-5.728 2.244h-3.342V13.13h3.342Zm12.06 16.271h2.473V13.13h-2.473V29.4Zm12.253-11.527a2206.69 2206.69 0 0 1-3.872 11.527h-2.597l5.462-16.27h2.03l5.385 16.27h-2.585c-1.706-5.149-2.424-7.294-3.823-11.527Zm19.49 6.862V13.128H153V29.4h-2.491l-7.36-11.292V29.4h-2.473V13.13h2.286l7.568 11.605Zm-92.821-9.368c-1.446 0-2.663.589-3.682 1.709-1.052 1.151-1.557 2.537-1.557 4.164 0 1.629.501 3.025 1.556 4.177 1.021 1.117 2.237 1.7 3.683 1.7 1.45 0 2.67-.58 3.693-1.7 1.056-1.152 1.556-2.548 1.556-4.177 0-1.627-.505-3.013-1.556-4.164-1.022-1.123-2.242-1.709-3.693-1.709Zm14.187.196v2.658h2.5c.244-.03.496-.112.673-.309l.005-.004c.246-.262.33-.604.33-.971 0-.387-.104-.715-.354-.987-.217-.239-.47-.387-.783-.387h-2.37Zm0 5.102v6.292h2.242c.756 0 1.382-.318 1.913-.898.566-.621.822-1.369.822-2.242 0-.877-.256-1.627-.822-2.251-.53-.58-1.157-.9-1.913-.9h-2.242Zm33.959-5.059v11.329h.861c1.443 0 2.852-.367 3.908-1.483 1.059-1.161 1.568-2.555 1.568-4.19 0-1.637-.517-3.028-1.561-4.183-1.063-1.114-2.478-1.473-3.915-1.473h-.861ZM21.886.802c11.399.359 20.53 9.712 20.53 21.198s-9.131 20.84-20.53 21.197v-7.64c7.181-.354 12.895-6.288 12.895-13.557S29.067 8.797 21.886 8.444V.802ZM20.571 43.2C9.153 42.862 0 33.5 0 22S9.153 1.138 20.571.801v7.64C13.371 8.775 7.634 14.718 7.634 22c0 7.283 5.737 13.226 12.937 13.559v7.64Z"></path><path d="m10.939 15.555 4.896 3.44a6.137 6.137 0 0 0-.78 3.005c0 1.078.277 2.092.763 2.974l-4.897 3.44A12.081 12.081 0 0 1 9.088 22c0-2.369.678-4.578 1.85-6.445Zm20.556 12.86-4.897-3.441A6.141 6.141 0 0 0 27.36 22a6.137 6.137 0 0 0-.78-3.005l4.896-3.44A12.08 12.08 0 0 1 33.327 22c0 2.356-.67 4.554-1.832 6.415Zm-9.64-18.529a12.094 12.094 0 0 1 8.875 4.61l-4.897 3.44a6.14 6.14 0 0 0-3.979-2.062V9.886Zm-1.294 0v5.988a6.138 6.138 0 0 0-3.978 2.063l-4.897-3.442a12.094 12.094 0 0 1 8.875-4.609Zm0 24.228a12.095 12.095 0 0 1-8.896-4.637l4.895-3.44a6.137 6.137 0 0 0 4.001 2.088v5.989Zm1.293 0v-5.989a6.137 6.137 0 0 0 4.001-2.089l4.896 3.44a12.095 12.095 0 0 1-8.897 4.638Z"></path></g><defs><clipPath id="svg-41355284_3722_a"><path fill="#fff" transform="translate(0 .801)" d="M0 0h153v42.398H0z"></path></clipPath></defs></svg>