<svg xmlns="http://www.w3.org/2000/svg" width="116" height="32" fill="none" id="svg511425961_2498"><g clip-path="url(#svg511425961_2498_a)" fill="#DEE5E5"><path d="M13.92.502H4.897c-.617 0-1.142.45-1.238 1.061L.009 24.766a.753.753 0 0 0 .745.87H5.06c.617 0 1.142-.45 1.239-1.062l.984-6.258a1.253 1.253 0 0 1 1.237-1.063h2.857c5.943 0 9.373-2.884 10.27-8.6.403-2.5.016-4.465-1.151-5.84C19.213 1.3 16.94.501 13.92.501Zm1.04 8.474c-.493 3.247-2.966 3.247-5.358 3.247H8.24l.956-6.063a.752.752 0 0 1 .742-.637h.624c1.63 0 3.167 0 3.96.931.474.556.62 1.382.439 2.522Zm25.93-.104h-4.32a.754.754 0 0 0-.743.636l-.192 1.212-.302-.44c-.935-1.36-3.021-1.816-5.103-1.816-4.774 0-8.852 3.627-9.646 8.714-.413 2.537.174 4.964 1.61 6.656 1.316 1.556 3.2 2.204 5.441 2.204 3.847 0 5.98-2.48 5.98-2.48l-.192 1.204a.753.753 0 0 0 .741.873h3.892c.619 0 1.141-.45 1.239-1.063l2.335-14.83a.75.75 0 0 0-.74-.87Zm-6.023 8.433c-.416 2.475-2.376 4.137-4.874 4.137-1.255 0-2.258-.404-2.901-1.168-.639-.76-.882-1.84-.678-3.045.389-2.454 2.38-4.17 4.841-4.17 1.227 0 2.225.409 2.882 1.18.658.78.919 1.867.73 3.066ZM63.9 8.872h-4.34a1.26 1.26 0 0 0-1.04.552l-5.988 8.845-2.538-8.5a1.258 1.258 0 0 0-1.203-.897h-4.266a.754.754 0 0 0-.714.997l4.782 14.075-4.496 6.365a.754.754 0 0 0 .614 1.191h4.336a1.25 1.25 0 0 0 1.03-.54l14.441-20.904a.754.754 0 0 0-.617-1.184ZM78.276.502h-9.024c-.616 0-1.141.45-1.238 1.061l-3.649 23.203a.752.752 0 0 0 .742.87h4.63c.43 0 .799-.315.866-.743l1.035-6.577a1.254 1.254 0 0 1 1.238-1.063h2.855c5.944 0 9.373-2.884 10.27-8.6.406-2.5.016-4.465-1.151-5.84C83.569 1.3 81.296.501 78.276.501Zm1.04 8.474c-.492 3.247-2.965 3.247-5.358 3.247h-1.36l.956-6.063a.75.75 0 0 1 .741-.637h.624c1.629 0 3.167 0 3.96.931.475.556.618 1.382.438 2.522Zm25.929-.104h-4.318a.749.749 0 0 0-.742.636l-.191 1.212-.304-.44c-.935-1.36-3.02-1.816-5.101-1.816-4.775 0-8.851 3.627-9.646 8.714-.411 2.537.173 4.964 1.609 6.656 1.319 1.556 3.2 2.204 5.441 2.204 3.848 0 5.98-2.48 5.98-2.48l-.192 1.204a.754.754 0 0 0 .744.873h3.891c.616 0 1.141-.45 1.237-1.063l2.337-14.83a.755.755 0 0 0-.745-.87Zm-6.023 8.433c-.414 2.475-2.376 4.137-4.875 4.137-1.252 0-2.257-.404-2.901-1.168-.638-.76-.879-1.84-.678-3.045.392-2.454 2.381-4.17 4.842-4.17 1.227 0 2.224.409 2.881 1.18.66.78.922 1.867.73 3.066Zm11.116-16.166-3.703 23.627a.752.752 0 0 0 .741.87h3.723c.619 0 1.144-.45 1.239-1.062l3.652-23.201a.753.753 0 0 0-.741-.872h-4.17a.754.754 0 0 0-.741.638Z"></path></g><defs><clipPath id="svg511425961_2498_a"><path fill="#fff" transform="translate(0 .5)" d="M0 0h116v31H0z"></path></clipPath></defs></svg>