<svg xmlns="http://www.w3.org/2000/svg" width="154" height="30" fill="none" id="svg-1986101907_3067"><g clip-path="url(#svg-1986101907_3067_a)"><path d="M41.968 8.99c.408 0 .758.332.758.763v14.586c0 .412-.369.744-.758.744h-1.962c-.369 0-.738-.293-.738-.704v-1.351c-.991 1.468-2.7 2.486-5.188 2.486-4.158 0-6.722-2.78-6.722-6.911v-8.89c0-.41.369-.743.757-.743h1.963a.74.74 0 0 1 .738.744v8.32c0 2.683 1.399 4.465 4.158 4.465 2.7 0 4.294-1.84 4.294-4.425v-8.36c0-.412.369-.744.738-.744h1.962M13.018.903C6.296.903.875 6.17.875 13.199c0 7.048 5.42 12.296 12.143 12.296 1.147 0 2.254-.157 3.303-.45l1.322 3.426c.136.372.408.607.893.607h2.099c.505 0 .874-.333.641-.98l-1.71-4.483c3.361-2.134 5.596-5.913 5.596-10.436 0-7.01-5.42-12.276-12.143-12.276Zm5.285 19.442-1.535-4.014c-.136-.332-.408-.646-.99-.646h-2.002c-.505 0-.893.333-.66.98l2.02 5.266a8.27 8.27 0 0 1-2.117.255c-4.916 0-8.414-3.897-8.414-8.987 0-5.091 3.498-8.987 8.413-8.987 4.916 0 8.413 3.896 8.413 8.987 0 2.976-1.185 5.521-3.128 7.146Zm134.764 3.916c.175.411-.039.803-.525.803h-2.195c-.408 0-.739-.196-.875-.607l-4.061-11.004-4.119 11.004c-.174.43-.466.607-.874.607h-1.962c-.408 0-.7-.176-.875-.607l-4.158-11.063-4.099 11.063c-.175.411-.467.607-.875.607h-2.059c-.408 0-.7-.196-.874-.607l-4.061-11.063-4.197 11.063c-.175.43-.466.607-.874.607h-1.963c-.408 0-.699-.176-.874-.607l-4.1-11.063-4.099 11.063c-.136.411-.467.607-.875.607h-2.137c-.505 0-.699-.411-.524-.803l5.556-14.645c.175-.431.467-.646.875-.646h2.39c.408 0 .699.195.874.646l4.002 10.69 3.964-10.69c.175-.431.466-.646.874-.646h2.351c.408 0 .7.195.875.646l3.924 10.69 3.925-10.69c.175-.431.466-.646.875-.646h2.37c.408 0 .699.195.874.646l3.983 10.69 3.886-10.69c.175-.431.467-.646.875-.646h2.389c.408 0 .7.195.875.646l5.518 14.645ZM60.99 8.99h-1.962a.762.762 0 0 0-.758.764v1.331C57.279 9.576 55.336 8.5 53.043 8.5 48.711 8.5 45 11.946 45 16.977c0 5.091 3.731 8.518 8.025 8.518 2.331 0 4.216-1.077 5.265-2.585v1.41c0 .411.37.744.758.744h1.963a.74.74 0 0 0 .738-.744V9.753c-.02-.431-.35-.764-.758-.764Zm-7.578 13.295c-2.856 0-4.896-2.35-4.896-5.267 0-2.957 2.02-5.228 4.897-5.228 2.836 0 4.896 2.271 4.896 5.228-.02 2.937-2.08 5.267-4.896 5.267Zm30.99.509c.428.528.059.94-.174 1.116-1.36 1.037-3.167 1.605-5.13 1.605-4.954 0-8.257-3.661-8.257-8.478 0-4.816 3.303-8.517 8.257-8.517 1.963 0 3.75.568 5.13 1.606.233.176.563.528.175 1.116l-.933 1.312c-.37.509-.797.372-1.166.137-.874-.529-1.904-.98-3.089-.98-2.895 0-4.819 2.35-4.819 5.326 0 2.976 1.924 5.306 4.819 5.306 1.205 0 2.157-.47 3.031-.979.37-.195.758-.372 1.166.177l.99 1.253Zm9.25-14.254c-4.664 0-8.375 3.68-8.375 8.478 0 4.836 3.73 8.478 8.374 8.478 4.663 0 8.374-3.662 8.374-8.478.02-4.778-3.71-8.478-8.374-8.478Zm0 13.725c-2.857 0-4.897-2.31-4.897-5.228 0-2.956 2.02-5.228 4.896-5.228 2.856 0 4.896 2.272 4.896 5.228 0 2.918-2.02 5.228-4.896 5.228ZM67.867 1.334c.428 0 .738.372.738.763V24.3c0 .411-.291.764-.738.764h-1.962c-.408 0-.758-.372-.758-.764V2.117a.79.79 0 0 1 .758-.764h1.962" fill="#DEE5E5"></path></g><defs><clipPath id="svg-1986101907_3067_a"><path fill="#fff" transform="translate(.875 .903)" d="M0 0h152.25v28.194H0z"></path></clipPath></defs></svg>