<svg xmlns="http://www.w3.org/2000/svg" width="147" height="38" fill="none" id="svg-1478772768_4233"><g clip-path="url(#svg-1478772768_4233_a)"><mask id="svg-1478772768_4233_b" style="mask-type:luminance" maskUnits="userSpaceOnUse" x="0" y="0" width="147" height="38"><path d="M0 .032h146.403v37.936H0V.032Z" fill="#fff"></path></mask><g mask="url(#svg-1478772768_4233_b)" fill="#DEE5E5"><path fill-rule="evenodd" clip-rule="evenodd" d="M9.484 24.518v3.958L0 18.992l1.977-1.977 7.507 7.503Zm3.958 3.958H9.484l9.484 9.484 1.977-1.977-7.503-7.507Zm22.508-7.503 1.98-1.98L18.964.023 16.987 2.01l7.504 7.503h-4.534L14.72 4.286l-1.977 1.977 3.256 3.258h-2.276v14.722h14.722v-2.276l3.257 3.256 1.978-1.976-5.235-5.238v-4.536l7.506 7.5ZM10.473 8.527l-1.985 1.98 2.125 2.123 1.978-1.979-2.118-2.124ZM27.317 25.37l-1.98 1.98 2.123 2.125 1.981-1.98-2.124-2.125ZM6.227 12.772l-1.981 1.984 5.238 5.235v-3.96l-3.258-3.259Zm15.712 15.712h-3.96l5.236 5.238 1.98-1.98-3.256-3.258Z"></path><path d="M143.818 28.452c-1.279 0-2.275-.347-2.987-1.041-.715-.697-1.072-1.659-1.072-2.885v-7.587h-2.292v-2.84h2.305l.411-3.794h2.698v3.793h3.52v2.846h-3.52v7.172a1.5 1.5 0 0 0 .405 1.055 1.377 1.377 0 0 0 1.074.44h2.039v2.843l-2.581-.002Zm-13.781.269c-1.703 0-3.073-.406-4.11-1.217a5.453 5.453 0 0 1-1.99-3.239h3.387c.147.493.476.912.92 1.173a3.314 3.314 0 0 0 1.793.443c1.806 0 2.714-.506 2.714-1.482 0-.486-.284-.858-.852-1.116a9.491 9.491 0 0 0-2.058-.614 25.273 25.273 0 0 1-2.431-.595 4.22 4.22 0 0 1-2.077-1.383c-.564-.674-.847-1.56-.849-2.657a3.756 3.756 0 0 1 1.43-3.008c.958-.799 2.286-1.197 3.983-1.196 1.698 0 3.035.38 4.047 1.136a5.09 5.09 0 0 1 1.92 3.067h-3.392c-.361-.903-1.217-1.355-2.567-1.355-1.447 0-2.171.453-2.17 1.36a1.174 1.174 0 0 0 .61 1.011c.463.285.98.468 1.518.545a17.49 17.49 0 0 1 1.991.46c.68.194 1.344.432 1.992.713a3.552 3.552 0 0 1 1.535 1.336c.43.687.643 1.489.615 2.3a3.795 3.795 0 0 1-1.518 3.12c-1.01.797-2.491 1.196-4.441 1.198Zm-10.098-13.458c-1.044-.938-2.505-1.406-4.383-1.406-1.501 0-2.758.403-3.771 1.21a5.69 5.69 0 0 0-2.023 3.128h3.202c.163-.469.474-.874.885-1.15a2.846 2.846 0 0 1 1.695-.48 3.033 3.033 0 0 1 2.081.676 2.377 2.377 0 0 1 .759 1.892v.689h-3.651c-1.694 0-3.018.421-3.974 1.264a4.094 4.094 0 0 0-1.434 3.192 4.22 4.22 0 0 0 .319 1.751 4.228 4.228 0 0 0 1.015 1.462c.891.843 2.071 1.265 3.541 1.265a5.375 5.375 0 0 0 2.621-.609 3.912 3.912 0 0 0 1.588-1.416h.132l.252 1.77h2.711v-9.357c.002-1.644-.519-2.938-1.565-3.88Zm-1.541 7.67a2.883 2.883 0 0 1-.948 2.276c-.627.558-1.484.838-2.572.838-.791 0-1.397-.18-1.816-.538a1.7 1.7 0 0 1-.632-1.369c0-1.264.826-1.892 2.45-1.892h3.518v.685Zm-17.203 5.82c-2.055 0-3.698-.66-4.927-1.98-1.229-1.317-1.844-3.14-1.847-5.472 0-2.333.617-4.147 1.84-5.469 1.225-1.318 2.87-1.977 4.934-1.975 1.675 0 3.064.447 4.168 1.341a6.326 6.326 0 0 1 2.195 3.394h-3.106a3.477 3.477 0 0 0-3.256-1.892 3.286 3.286 0 0 0-2.66 1.201c-.674.805-1.012 1.938-1.012 3.399 0 1.462.338 2.597 1.012 3.403a3.287 3.287 0 0 0 2.659 1.206 3.49 3.49 0 0 0 3.256-1.897h3.107a6.369 6.369 0 0 1-2.197 3.399c-1.097.893-2.486 1.342-4.166 1.342Zm-18.322 5.156 2.167-5.422-5.821-14.355h3.387l3.93 10.158h.13L90.6 14.132h3.386l-7.864 19.777h-3.25Zm-6.58-18.646c-1.043-.938-2.505-1.406-4.385-1.406-1.5 0-2.756.403-3.771 1.21a5.643 5.643 0 0 0-2.008 3.128h3.2c.163-.469.472-.874.885-1.15a2.846 2.846 0 0 1 1.694-.48c.88 0 1.574.226 2.08.676a2.37 2.37 0 0 1 .76 1.892v.689H71.08c-1.686 0-3.01.421-3.972 1.264a4.094 4.094 0 0 0-1.437 3.192 4.205 4.205 0 0 0 1.336 3.2c.89.844 2.07 1.265 3.54 1.265a5.38 5.38 0 0 0 2.618-.608 3.91 3.91 0 0 0 1.59-1.417h.13l.268 1.77h2.706v-9.357c0-1.635-.521-2.925-1.564-3.868m-1.546 7.67a2.893 2.893 0 0 1-.949 2.276c-.627.558-1.484.838-2.573.838-.791 0-1.397-.18-1.818-.538a1.724 1.724 0 0 1-.632-1.369c.01-1.258.827-1.889 2.45-1.892h3.522v.685ZM58.724 21.3c.485-.128.949-.31 1.391-.546.517-.283.995-.62 1.437-1.012.531-.49.94-1.095 1.197-1.77a6.658 6.658 0 0 0 .447-2.488c0-1.806-.577-3.253-1.73-4.34-1.154-1.088-2.655-1.63-4.501-1.624h-7.859v18.968h3.387v-7.04h2.569l4.88 7.035h3.794L58.724 21.3Zm-6.23-2.854v-5.943h4.194c.961 0 1.72.252 2.276.78.557.53.84 1.252.84 2.191 0 .94-.282 1.672-.844 2.196a3.183 3.183 0 0 1-2.245.776h-4.222Z"></path></g></g><defs><clipPath id="svg-1478772768_4233_a"><path fill="#fff" transform="translate(0 .032)" d="M0 0h147v37.935H0z"></path></clipPath></defs></svg>