<svg xmlns="http://www.w3.org/2000/svg" width="112" height="22" fill="none" id="svg-608283879_866"><g clip-path="url(#svg-608283879_866_a)"><path fill-rule="evenodd" clip-rule="evenodd" d="M21.88 21.422h-4.266l-12.798-8.36v8.36H.55V.523h14.931c3.525 0 6.4 2.816 6.4 6.27 0 3.453-2.875 6.27-6.4 6.27h-2.133 8.532v8.359ZM33.61.522c5.866 0 10.666 4.703 10.666 10.45V21.42H40.01v-4.18H27.212v4.18h-4.266V10.97C22.946 5.226 27.745.523 33.61.523ZM78.42 0c6.184 0 11.198 4.912 11.198 10.972S84.604 21.944 78.42 21.944c-6.185 0-11.198-4.913-11.198-10.972C67.222 4.912 72.235 0 78.42 0Zm11.715.522h4.266l12.798 8.36V.522h4.266v20.899h-4.266l-12.798-8.36v8.36h-4.266V.522Zm-40.527 0h-4.266v8.36l6.399 4.18h-6.399v8.359H58.14c4.699 0 8.532-3.755 8.532-8.36V.523h-4.267v8.36L49.608.522Z" fill="#DEE5E5"></path></g><defs><clipPath id="svg-608283879_866_a"><path fill="#fff" transform="translate(.5)" d="M0 0h111v22H0z"></path></clipPath></defs></svg>