<svg xmlns="http://www.w3.org/2000/svg" width="120" height="30" fill="none" id="svg448817765_2373"><path fill-rule="evenodd" clip-rule="evenodd" d="M30.906 13.731c0 2.918-3.55 3.425-6.003 3.425v-.008c-9.54 0-16.66-5.93-16.66-7.738-.005-.128.01-.256.043-.38.212-.675 1.862-5.327 1.862-5.327.592-1.65 1.359-2.452 2.536-2.452.602 0 1.144.266 1.694.536.57.279 1.148.563 1.814.563.71 0 1.14-.401 1.552-.784.376-.351.737-.687 1.282-.687 1.226 0 5.37 1.606 7.273 2.579 2.451 1.226 2.748 1.86 3.085 3.256l1.461 6.346c.048.22.068.446.061.671Zm.716 3.171c0-.211 0-.38-.34-1.986h.005c3.889 1.69 6.046 4.522 6.046 7.017 0 3.172-2.24 7.188-11.12 7.188C14.629 29.121 0 21.511 0 15.337c0-3.77 4.27-4.358 7.569-4.522a3.619 3.619 0 0 0-.297 1.437c0 3.552 8.034 8.926 17.205 8.92 4.058 0 7.145-1.524 7.145-4.27Zm85.944 5.545c-2.558 0-3.96-1.134-3.96-3.465v-4.806H111.4v-2.785h2.214V8.583l3.334-.722v3.53H120v2.785h-3.052v4.144c0 .991.39 1.32 1.444 1.32a4.873 4.873 0 0 0 1.506-.227v2.705c-.762.199-1.545.31-2.332.33Zm-12.539-4.476c-1.092 0-1.816.352-1.816 1.073 0 .68.641 1.093 1.712 1.093a4.218 4.218 0 0 0 2.085-.516v-1.402a8.455 8.455 0 0 0-1.981-.248Zm2.217 3.672c-.887.598-1.836.845-3.013.845l-.004.006c-2.434 0-3.96-1.463-3.96-3.381 0-2.105 1.691-3.281 4.497-3.281.835-.004 1.667.1 2.476.31v-.536c0-1.094-.71-1.63-2.083-1.63-.948 0-2.022.33-3.301.867l-1.197-2.455c1.777-.805 3.429-1.197 5.1-1.197 2.991 0 4.783 1.46 4.783 4.119v6.994h-3.298v-.661Zm-17.6.667h-3.547l.014-14.445h3.548v5.548h5.94V7.865h3.544v14.439h-3.557V16.65h-5.941v5.659ZM75.46 14.072c-1.63 0-2.868 1.197-2.868 2.766v.008c0 1.567 1.26 2.763 2.868 2.763a3.21 3.21 0 0 0 2.306-.875V14.92a3.378 3.378 0 0 0-2.306-.848Zm5.652 8.24h-3.3l.007-.812c-.85.62-1.876.952-2.928.947a5.542 5.542 0 0 1-5.57-5.61c0-3.135 2.497-5.589 5.672-5.589a5.55 5.55 0 0 1 2.785.722V7.865l3.334-.722v15.169Zm-16.159-6.659c-.351-1.051-1.237-1.732-2.289-1.732-1.106 0-1.932.648-2.261 1.732h4.55Zm-1.973 6.863c-3.34 0-5.939-2.475-5.939-5.653l.004-.006a5.603 5.603 0 0 1 5.688-5.65c3.177 0 5.507 2.495 5.507 5.96v.83h-7.776a2.823 2.823 0 0 0 2.683 1.732c.906 0 1.669-.289 2.185-.826l2.208 1.961c-1.383 1.155-2.724 1.652-4.56 1.652Zm-9.855-9.99c0-.888-.66-1.629-1.836-1.629H47.78v3.26h3.509c1.177 0 1.836-.742 1.836-1.63Zm-5.349 9.778h-3.548V7.864h7.39c3.058 0 5.1 2.001 5.1 4.6a4.368 4.368 0 0 1-2.723 4.064l3.178 5.776H53.2l-2.724-5.26h-2.7v5.26Z" fill="#DEE5E5"></path></svg>