<svg xmlns="http://www.w3.org/2000/svg" width="138" height="42" fill="none" id="svg593335343_3592"><path fill-rule="evenodd" clip-rule="evenodd" d="M30.44 8.776c.133.022.31.11.331.308.023.177 4.079 27.625 4.079 27.625l-9.943 2.469-22.95-3.968S4.69 14.022 4.8 13.294c.132-.992.176-1.014 1.212-1.345.016-.015.756-.243 1.928-.603l1.622-.499c.22-1.587.992-3.637 2.028-5.269 1.477-2.337 3.263-3.638 5.07-3.682.927-.022 1.698.287 2.316.948.044.066.088.11.132.155.088-.022.198-.022.286-.022 1.412 0 2.558.793 3.352 2.314.242.463.418.926.529 1.301.705-.22 1.124-.353 1.124-.353.176-.044.595-.11.816.11.22.221 2.447 2.382 2.447 2.382s2.645.022 2.778.044ZM21.237 7.22c.316-.1.614-.194.893-.275-.286-.926-.948-2.47-2.337-2.734.42 1.103.53 2.381.551 3.285.313-.094.61-.187.893-.276Zm-3.012.938.929-.287c0-.992-.088-2.47-.595-3.505-.53.22-.97.595-1.301.948-.86.925-1.565 2.336-1.94 3.747.99-.313 1.968-.615 2.907-.903Zm-.46-4.763c-.309-.198-.661-.286-1.08-.286-2.778.088-5.203 4.431-5.865 7.341l.288-.09c.908-.282 1.869-.58 2.865-.88.353-1.852 1.235-3.748 2.381-4.982.441-.485.926-.86 1.411-1.102Zm.485 14.816 1.147-4.321s-.992-.508-2.977-.331c-5.048.33-7.341 3.858-7.12 7.341.148 2.314 1.519 3.288 2.72 4.141.94.667 1.775 1.26 1.843 2.363.044.617-.33 1.477-1.389 1.543-1.61.088-3.638-1.433-3.638-1.433L8.064 30.8s2.006 2.139 5.666 1.918c3.042-.198 5.159-2.623 4.938-6.195-.173-2.732-2.095-3.966-3.617-4.943-.996-.639-1.82-1.168-1.873-1.935-.022-.375 0-1.786 2.25-1.918a6.335 6.335 0 0 1 2.821.485Z" fill="#DEE5E5"></path><path d="M48.32 23.106c-1.146-.617-1.741-1.146-1.741-1.874 0-.926.815-1.521 2.116-1.521 1.5 0 2.822.617 2.822.617l1.058-3.219s-.97-.75-3.814-.75c-3.968 0-6.724 2.271-6.724 5.468 0 1.808 1.279 3.197 2.998 4.19 1.39.793 1.874 1.344 1.874 2.182 0 .86-.683 1.543-1.984 1.543-1.918 0-3.726-.992-3.726-.992l-1.124 3.219s1.675 1.124 4.475 1.124c4.079 0 7.011-2.006 7.011-5.622.022-1.962-1.455-3.35-3.24-4.365Zm16.27-6.79c-2.006 0-3.593.948-4.806 2.403l-.066-.022 1.742-9.128h-4.541l-4.41 23.215h4.542l1.521-7.936c.595-2.999 2.139-4.85 3.593-4.85 1.015 0 1.412.683 1.412 1.675 0 .617-.067 1.389-.199 2.006l-1.72 9.083H66.2l1.786-9.392c.198-.992.33-2.182.33-2.954 0-2.535-1.366-4.1-3.725-4.1Zm14 0c-5.467 0-9.083 4.938-9.083 10.45 0 3.527 2.183 6.349 6.261 6.349 5.357 0 8.995-4.806 8.995-10.45-.022-3.24-1.94-6.35-6.173-6.35Zm-2.249 13.316c-1.543 0-2.204-1.323-2.204-2.955 0-2.601 1.345-6.856 3.814-6.856 1.61 0 2.138 1.389 2.138 2.734 0 2.8-1.345 7.077-3.748 7.077ZM96.36 16.316c-3.065 0-4.807 2.69-4.807 2.69h-.066l.265-2.448h-4.013c-.198 1.654-.55 4.145-.926 6.019L83.661 39.2h4.541l1.257-6.724h.088s.926.595 2.668.595c5.335 0 8.818-5.468 8.818-11.001.022-3.02-1.344-5.754-4.674-5.754Zm-4.344 13.382c-1.19 0-1.874-.662-1.874-.662l.75-4.255c.53-2.821 2.006-4.717 3.594-4.717 1.388 0 1.807 1.278 1.807 2.513 0 2.932-1.741 7.12-4.277 7.12Zm15.521-19.886c-1.455 0-2.601 1.146-2.601 2.646 0 1.344.859 2.27 2.138 2.27h.066c1.411 0 2.646-.948 2.668-2.645 0-1.323-.882-2.271-2.271-2.271Zm-6.349 22.972h4.541l3.087-16.093h-4.586l-3.042 16.093Zm19.18-16.138h-3.153l.155-.75c.264-1.543 1.19-2.931 2.689-2.931.816 0 1.455.22 1.455.22l.882-3.55s-.793-.396-2.469-.396c-1.609 0-3.219.463-4.453 1.521-1.543 1.323-2.271 3.219-2.646 5.137l-.132.75h-2.117l-.661 3.417h2.117l-2.404 12.72h4.542l2.403-12.72h3.131l.661-3.418Zm10.935.044s-2.844 7.165-4.123 11.068h-.066c-.088-1.257-1.124-11.067-1.124-11.067h-4.762l2.734 14.793c.066.33.022.529-.089.75-.529 1.013-1.411 2.005-2.469 2.733-.86.617-1.808 1.014-2.579 1.279l1.256 3.858c.926-.199 2.822-.948 4.454-2.47 2.072-1.94 3.99-4.938 5.952-9.016l5.556-11.927h-4.74Z" fill="#DEE5E5"></path></svg>