<svg xmlns="http://www.w3.org/2000/svg" width="86" height="44" fill="none" id="svg-1602063333_5883"><g clip-path="url(#svg-1602063333_5883_a)"><path d="M76.744 23.571h-.327v5.646h-4.055V15.16l4.055-6.338v13.117c.807-.989 3.526-4.744 3.526-4.744h5.006l-4.746 5.023 4.91 7.01H79.99l-3.247-5.656Zm-11.3-.922 1.663-5.416h4.016l-4.708 11.946c-1.403 3.591-3.41 6.021-6.409 6.021-1.153 0-2.123-.297-2.632-.586l1.614-2.496c.24.028.49.038.74.038 1.383 0 2.421-1.345 3.093-2.938l-4.938-11.985h4.545l1.777 5.349c.346 1.018.596 2.957.596 2.957s.317-1.872.644-2.89Zm-12.25-.279c0-1.565-.692-2.304-2.008-2.304-.644 0-1.316.182-1.777.46v8.692h-4.055v-11.87l3.968-.326-.096 1.94h.135a5.038 5.038 0 0 1 4.035-2.027c2.075 0 3.872 1.287 3.872 4.331v7.952h-4.074V22.37Zm-19.446 6.233.365-2.766c1.268.624 2.7.922 3.9.922.875 0 1.451-.298 1.451-.826 0-1.517-5.467-1.152-5.467-5.118 0-2.535 2.326-3.87 5.237-3.87 1.45 0 2.95.393 3.92.74l-.394 2.717c-1.019-.394-2.402-.759-3.555-.759-.711 0-1.288.25-1.288.71 0 1.499 5.583 1.201 5.583 5.071 0 2.574-2.287 4.053-5.42 4.053-1.729 0-3.131-.298-4.332-.874Z" fill="#DEE5E5"></path><mask id="svg-1602063333_5883_b" style="mask-type:luminance" maskUnits="userSpaceOnUse" x="0" y="0" width="29" height="44"><path d="M28.46.7H.89v42.612h27.57V.7Z" fill="#fff"></path></mask><g mask="url(#svg-1602063333_5883_b)" fill="#DEE5E5"><path d="M25.256 10.122c.246.69.394 1.412.438 2.143v.228l-1.598 4.268c.37 3.371.721 7.532.331 8.54-.192.494-.771 1.389-1.714 2.649l1.023 9.457 4.048-2.9a1.596 1.596 0 0 0 .667-1.3V12.166a1.596 1.596 0 0 0-1.155-1.536 31.957 31.957 0 0 0-2.04-.507Zm-13.507 2.157a9.178 9.178 0 0 1 5.86 0l.491-.806.327-2.282s-2.283-.121-3.73-.121c-1.344 0-2.6.048-3.765.125l.328 2.283.489.8ZM4.913 25.302c-.388-1-.037-5.17.33-8.54l-1.585-4.269v-.228c.043-.73.19-1.451.436-2.14-.845.182-1.53.36-2.055.506a1.597 1.597 0 0 0-1.157 1.536v21.04a1.598 1.598 0 0 0 .669 1.3l4.065 2.912 1.022-9.45c-.944-1.27-1.531-2.17-1.725-2.667Z"></path><path d="M20.399 1.613a.107.107 0 0 1 .098.06l.538 1.002c1.44 2.677 3.88 7.71 3.88 9.586v.086l-1.597 4.312v.07c.5 4.533.646 7.63.39 8.285-.228.585-1.123 1.826-1.883 2.823l1.107 9.023-.666.477-6.66 4.772a1.598 1.598 0 0 1-1.863 0l-5.386-3.88-.82-.587-1.093-.782 1.096-9.004c-.76-1-1.67-2.257-1.899-2.846-.256-.655-.11-3.753.393-8.285v-.071l-1.598-4.31v-.088c0-1.88 2.435-6.913 3.88-9.586l.539-1.002a.107.107 0 0 1 .098-.06.112.112 0 0 1 .114.099l1.44 10.042.892 1.468.229-.075a9.912 9.912 0 0 1 3.049-.557 10.2 10.2 0 0 1 3.063.559l.228.073.879-1.463L20.285 1.71a.112.112 0 0 1 .114-.098Zm0-.913a1.02 1.02 0 0 0-1.018.881l-1.413 9.849-.422.684a10.703 10.703 0 0 0-2.878-.456 10.35 10.35 0 0 0-2.865.456l-.422-.684-1.413-9.85A1.018 1.018 0 0 0 8.95.701a1.03 1.03 0 0 0-.913.54l-.536 1.002C6.835 3.48 3.516 9.775 3.516 12.265v.251l.057.155L5.1 16.78c-.532 4.864-.639 7.747-.32 8.57.078.2.304.781 1.799 2.771l-1.052 8.64-.064.536.44.315 1.094.783.817.586 5.388 3.862a2.51 2.51 0 0 0 2.926 0l6.654-4.768.666-.477.438-.315-.064-.536-1.054-8.648c1.479-1.97 1.707-2.55 1.782-2.74.322-.825.215-3.71-.32-8.572l1.528-4.108.057-.155v-.251c0-2.49-3.319-8.787-3.983-10.024l-.539-1a1.028 1.028 0 0 0-.913-.54L20.4.7Z"></path><path d="m8.204 26.41 1.956-.57a.208.208 0 0 0 .107-.068l1.87-2.13a.227.227 0 0 1 .246-.064.23.23 0 0 1 .153.204l.324 6.103c.002.05-.011.1-.039.141-.13.19-.504.77-.504 1.125 0 .457.685 1.055 1.337 1.532a.59.59 0 0 1 .026-.057c.228-.416.536-.49.684-.171.05.236.068.478.053.719h.011v.561c0 .035-.008.07-.023.1-.12.247-.705 1.29-1.956 1.29-.534 0-1.846-.173-2.433-1.776-.726-1.988-.732-4.77-.732-4.886v-.192l-.119-.148a53.944 53.944 0 0 1-1.068-1.37.228.228 0 0 1 .107-.342Zm12.021 1.72-.119.148v.192c0 .116 0 2.898-.732 4.886-.587 1.598-1.899 1.776-2.433 1.776-1.25 0-1.826-1.043-1.956-1.29a.23.23 0 0 1-.023-.1v-.561a2.63 2.63 0 0 1 .055-.72c.137-.319.44-.244.685.172 0 .018.016.039.025.057.664-.477 1.337-1.075 1.337-1.532 0-.356-.374-.936-.504-1.125a.242.242 0 0 1-.04-.141l.325-6.103a.228.228 0 0 1 .4-.14l1.869 2.13a.208.208 0 0 0 .107.068l1.954.57a.226.226 0 0 1 .154.149.227.227 0 0 1-.036.21 63.22 63.22 0 0 1-1.068 1.354Zm-9.672-6.407a.347.347 0 0 1-.34.3.576.576 0 0 0 .9.336.57.57 0 0 0-.04-.942h.956a.027.027 0 0 1 .027.027 1.294 1.294 0 1 1-2.585.021v-.048h.997-.016a.345.345 0 0 1 .1.306Zm-.63-1.317a.228.228 0 0 1-.174-.08c-.287-.335-1.141-1.463.34-1.463 1.11 0 1.986.671 2.474 1.155a.229.229 0 0 1-.162.388H9.923Zm8.974 1.023a.036.036 0 0 0-.016 0h.997v.048a1.291 1.291 0 1 1-2.583-.02v-.028h.981a.57.57 0 0 0-.228.684.562.562 0 0 0 .456.352.573.573 0 0 0 .64-.443.349.349 0 0 1-.329-.457.343.343 0 0 1 .082-.136Zm-1.952-1.023a.23.23 0 0 1-.225-.27.229.229 0 0 1 .061-.118c.489-.484 1.37-1.155 2.477-1.155 1.476 0 .625 1.128.34 1.463a.228.228 0 0 1-.174.08h-2.479Z"></path><path d="M16.92 36.006c-.153 0-.307-.018-.456-.055a.23.23 0 0 0-.228.09 1.893 1.893 0 0 1-3.097 0 .23.23 0 0 0-.229-.092 1.81 1.81 0 0 1-.431.05h-.135a.23.23 0 0 0-.245.22.228.228 0 0 0 .028.118 2.913 2.913 0 0 0 5.133 0 .228.228 0 0 0-.214-.338l-.126.007Zm-1.618-2.554c.162.055.316.132.457.228-.149-.232-.329-.317-.457-.228Zm-1.666.201c.134-.088.278-.157.43-.208-.124-.073-.286-.009-.43.22v-.012Zm.361-.673a2.058 2.058 0 0 0-.477.228c.16-.228.34-.317.477-.228Zm1.889.26a2.132 2.132 0 0 0-.513-.26c.141-.098.342 0 .514.26Z"></path><path d="M13.778 35.673a.093.093 0 0 0-.054.016.092.092 0 0 0-.036.1.091.091 0 0 0 .03.046 1.577 1.577 0 0 0 1.913.002.093.093 0 0 0 .027-.102.093.093 0 0 0-.086-.062h-1.794Zm-7.76-24.029c.086-.913.938-2.94 1.825-4.781a.183.183 0 0 1 .345.054l.176 1.21a.203.203 0 0 1 0 .053c-.103.684-.516 3.058-1.577 4.726a.183.183 0 0 1-.327-.034l-.426-1.141a.206.206 0 0 1-.016-.087Zm16.581 1.262c-1.06-1.668-1.474-4.046-1.575-4.726a.185.185 0 0 1 0-.053l.174-1.21a.183.183 0 0 1 .344-.054c.883 1.842 1.735 3.86 1.826 4.781a.173.173 0 0 1 0 .082l-.424 1.142a.184.184 0 0 1-.268.118.185.185 0 0 1-.077-.08Z"></path></g></g><defs><clipPath id="svg-1602063333_5883_a"><path fill="#fff" transform="translate(.7)" d="M0 0h84.601v44H0z"></path></clipPath></defs></svg>