<svg xmlns="http://www.w3.org/2000/svg" width="120" height="42" fill="none" id="svg-1333919977_1608"><g clip-path="url(#svg-1333919977_1608_a)"><path fill-rule="evenodd" clip-rule="evenodd" d="M20.719 36.732v4.294c11.153 0 20.227-8.862 20.227-19.753 0-10.89-9.075-19.752-20.227-19.752C9.565 1.52.49 10.38.49 21.273h4.396c0-8.524 7.103-15.458 15.832-15.458 8.728 0 15.83 6.933 15.83 15.458 0 8.524-7.101 15.46-15.83 15.46Zm89.232-12.056-1.137 1.079v4.57h-4.093V9.6h4.092v11.527l.171.056 4.463-5.053h5.031l.057.17-5.856 5.706 6.795 8.176-.058.143h-4.974l-4.491-5.65Zm-61.22-13.087v13.598c0 3.377 2.246 5.28 5.288 5.28 1.051 0 2.246-.226 3.042-.596l-.57-3.265a5.64 5.64 0 0 1-1.79.284c-1.108 0-1.876-.567-1.876-1.93v-5.706h3.525V16.13h-3.525v-4.54h-4.094Zm14.753 4.542h-4.093v14.223h4.093v-9.396c.967-.795 2.275-1.305 3.782-1.305h.682v-3.805h-.399c-1.62 0-2.984.823-3.895 1.93l-.17-.056v-1.59Zm21.009 7.722c0 4.089-3.071 6.757-7.107 6.757-4.008 0-7.107-2.668-7.107-6.757v-7.72h4.094v7.72c0 2.3 1.278 3.407 3.013 3.407 1.734 0 3.014-1.107 3.014-3.407v-7.72h4.091l.002 7.72Zm6.895-7.72h-4.093v14.193h4.092v-9.88c.768-.852 1.933-1.25 3.213-1.25 1.505 0 2.757.852 2.757 2.84v8.289h4.093v-8.517c0-3.945-2.33-5.961-5.145-5.961-2.131 0-3.78.823-4.747 1.958l-.17-.056v-1.62.003Zm-80.491 5.45H6.499c0-7.777 6.378-14.103 14.217-14.103v4.362c-5.414 0-9.82 4.37-9.82 9.741Zm13.632 0h4.396c0-4.489-3.681-8.142-8.206-8.142-4.528 0-8.21 3.652-8.21 8.142h4.398c0-2.084 1.709-3.781 3.81-3.781 2.102 0 3.812 1.697 3.812 3.781Z" fill="#DEE5E5"></path></g><defs><clipPath id="svg-1333919977_1608_a"><path fill="#fff" transform="translate(.491 .623)" d="M0 0h119.017v40.754H0z"></path></clipPath></defs></svg>