<svg xmlns="http://www.w3.org/2000/svg" width="122" height="32" fill="none" id="svg315912834_3079"><path d="M24.4 1.709c-2.11 0-4.354 1.622-6.166 5.435L15.91 1.546h-.136c-.378.893-1.568 1.38-2.704 1.38H.766v.243c.973.406 1.838 1.839 2.65 3.759l7.625 18.388h.244l4.948-11.98 4.949 11.98h.243l4.218-10.52c1.623-4.137 2.705-6.408 2.705-8.463 0-2.704-1.515-4.624-3.948-4.624ZM12.96 18.96 8.013 6.955C7.2 5.008 7.958 3.602 9.987 3.602c1.784 0 2.677 1.19 3.569 3.326l2.19 5.273-2.785 6.76Zm11.844-4.489-1.73 4.38-4.57-10.978c1.108-1.622 2.569-2.244 4.245-2.244 2.001 0 3.19 1.379 3.19 3.84 0 1.352-.35 3.028-1.135 5.002Zm64.008-.864c0-2.434-2.488-4.219-5.679-4.219-4.813 0-8.085 4.165-8.085 8.518 0 4.76 3.623 7.599 7.22 7.599 2.893 0 5.678-1.758 6.544-4.813l-.216-.19c-.974 1.46-2.678 2.245-4.381 2.245-2.245 0-4.056-1.271-4.895-3.57 4.624-.703 9.492-1.947 9.492-5.57Zm-9.68 4.894c-.19-.703-.271-1.487-.271-2.271 0-3.867 1.622-6.03 3.65-6.03 1.569 0 2.055 1.325 2.055 2.758 0 2.947-2.677 4.948-5.435 5.543Zm39.047-9.545c-2.056 0-4.03 1.92-5.219 4.543l-2.028-4.273h-.244c-.378 1.46-2.19 2.272-4.191 2.245v.243c1.244.297 1.784 1.487 2.569 3.056l5.273 10.843-.352.65c-1.136 2.216-1.893 3.028-2.704 3.028-1.46 0-1.568-2.11-3.326-2.11-1.028 0-1.893.704-1.893 1.947 0 1.407 1.541 2.272 3.164 2.272 2.353 0 3.813-1.839 5.381-4.813l4.083-7.599c1.623-3.056 2.542-4.38 2.542-6.68-.081-1.81-1.135-3.352-3.055-3.352Zm-.271 9.654-1.298 2.514-3.353-7.057c.649-1.136 1.785-2.056 3.461-2.056 1.569 0 2.407.974 2.407 2.596-.027 1.11-.406 2.461-1.217 4.003ZM44.95 21.963v-9.167c0-2.055-1.27-3.408-3.19-3.408-2.298 0-5.165 2.083-6.733 3.597V.6h-.217c-.919 1.46-3.299 2.353-5.597 2.271v.244c1.298.351 1.703 1.27 1.703 3.055v15.793c0 1.325-.594 2.406-1.676 2.839v.243h7.49v-.216c-1.108-.622-1.73-1.514-1.73-2.785v-8.302c1.757-1.27 3.082-1.893 4.083-1.893 1.109 0 1.73.811 1.73 2.434v7.734c0 1.27-.567 2.136-1.73 2.785v.243H46.6v-.216c-1.054-.46-1.65-1.514-1.65-2.866Zm55.679-12.575c-2.136 0-4.192 1.569-5.327 2.786V.6h-.19c-1.081 1.46-3.542 2.353-5.732 2.271v.244c1.217.351 1.785 1.298 1.785 3.055v19.173h.27l1.974-2.19c.865 1.379 2.488 2.19 4.462 2.19 4.948 0 8.328-4.219 8.328-8.816 0-4.191-2.65-7.139-5.57-7.139Zm-2.894 15.17c-1.46 0-2.433-1.19-2.433-2.812v-8.734c.973-.865 2.082-1.65 3.299-1.623 2.082.027 3.272 2.38 3.299 5.977.054 4.056-1.623 7.192-4.165 7.192ZM72.722 9.388c-1.622 0-3.434 1.758-4.245 3.408V9.199h-.243c-1.001 1.46-3.38 2.326-5.625 2.272v.243c1.217.351 1.812 1.325 1.812 3.056v7.084c0 1.352-.595 2.434-1.785 2.975v.243h7.68v-.243c-1.217-.54-1.758-1.596-1.758-2.975v-8.301c.433-.568.946-1.163 1.541-1.163 1.109 0 1.542 1.325 2.92 1.325.947 0 1.948-.784 1.948-2.082a2.238 2.238 0 0 0-2.245-2.245Zm-11.465 4.219c0-2.434-2.488-4.219-5.679-4.219-4.813 0-8.085 4.165-8.085 8.518 0 4.76 3.623 7.599 7.22 7.599 2.893 0 5.679-1.758 6.544-4.813l-.216-.19c-.974 1.46-2.677 2.245-4.381 2.245-2.244 0-4.056-1.271-4.895-3.57 4.597-.703 9.492-1.947 9.492-5.57ZM51.549 18.5c-.19-.703-.27-1.487-.27-2.271 0-3.867 1.622-6.03 3.65-6.03 1.569 0 2.082 1.325 2.082 2.758 0 2.947-2.704 4.948-5.462 5.543Z" fill="#DEE5E5"></path></svg>