<svg xmlns="http://www.w3.org/2000/svg" width="46" height="46" fill="none" id="svg-1227220849_1251"><g clip-path="url(#svg-1227220849_1251_a)"><rect x=".9" y=".738" width="45" height="45" rx="9.045" fill="#fff"></rect><path d="m38.151 20.175-.043-.11-4.153-10.84a1.082 1.082 0 0 0-1.074-.68 1.112 1.112 0 0 0-.625.233c-.178.145-.306.34-.369.56l-2.804 8.58H17.726l-2.804-8.58a1.09 1.09 0 0 0-.37-.561 1.113 1.113 0 0 0-1.27-.068 1.092 1.092 0 0 0-.428.514L8.693 20.06l-.042.11a7.713 7.713 0 0 0 2.559 8.914l.014.01.038.028 6.327 4.738 3.13 2.37 1.908 1.439a1.282 1.282 0 0 0 1.55 0l1.907-1.44 3.13-2.369 6.366-4.767.016-.012a7.716 7.716 0 0 0 2.555-8.905Z" fill="#E24329"></path><path d="m38.151 20.175-.043-.11a14.03 14.03 0 0 0-5.585 2.51l-9.123 6.9c3.107 2.35 5.812 4.392 5.812 4.392l6.365-4.767.016-.013a7.716 7.716 0 0 0 2.558-8.911Z" fill="#FC6D26"></path><path d="m17.59 33.865 3.13 2.37 1.907 1.44a1.282 1.282 0 0 0 1.55 0l1.907-1.44 3.13-2.37s-2.707-2.048-5.813-4.392c-3.107 2.344-5.811 4.392-5.811 4.392Z" fill="#FCA326"></path><path d="M14.277 22.576a14.014 14.014 0 0 0-5.584-2.517l-.042.11a7.713 7.713 0 0 0 2.559 8.914l.014.01.038.028 6.328 4.738 5.81-4.392-9.123-6.891Z" fill="#FC6D26"></path></g><defs><clipPath id="svg-1227220849_1251_a"><path fill="#fff" transform="translate(.9 .738)" d="M0 0h45v45H0z"></path></clipPath></defs></svg>