<svg xmlns="http://www.w3.org/2000/svg" width="46" height="46" fill="none" id="svg-1198817300_1099"><g clip-path="url(#svg-1198817300_1099_a)"><g clip-path="url(#svg-1198817300_1099_b)"><path d="M.955.932h44.09v44.712H.955V.932Z" fill="#5C6BF1"></path><path d="M6.871 27.152a.31.31 0 0 1 .528-.288l12.074 12.244c.228.231.03.61-.283.536-6.093-1.45-10.89-6.314-12.32-12.492Zm-.404-4.907a.334.334 0 0 0 .095.255l17.215 17.457a.324.324 0 0 0 .252.097 16.45 16.45 0 0 0 2.302-.31c.253-.053.34-.368.158-.553L7.318 19.75a.32.32 0 0 0-.545.16 16.9 16.9 0 0 0-.306 2.335Zm1.392-5.762a.335.335 0 0 0 .068.368l21.42 21.722c.096.097.24.126.364.07.59-.267 1.163-.568 1.715-.9a.332.332 0 0 0 .06-.517L9.256 14.682a.322.322 0 0 0-.51.062 17.02 17.02 0 0 0-.888 1.739Zm2.793-3.901a.334.334 0 0 1-.015-.454c3.03-3.44 7.44-5.607 12.347-5.607 9.14 0 16.55 7.514 16.55 16.783 0 4.977-2.136 9.448-5.53 12.52a.323.323 0 0 1-.447-.014L10.652 12.582Z" fill="#fff"></path></g></g><defs><clipPath id="svg-1198817300_1099_a"><path fill="#fff" transform="translate(.5 .788)" d="M0 0h45v45H0z"></path></clipPath><clipPath id="svg-1198817300_1099_b"><rect x=".955" y=".932" width="44.09" height="44.711" rx="8.818" fill="#fff"></rect></clipPath></defs></svg>