<svg xmlns="http://www.w3.org/2000/svg" width="678" height="534" fill="none"><path fill="url(#a)" d="M24.711 506.911h480.582v628.091H24.711z" transform="rotate(-90 24.71 506.911)"/><g stroke="#2D323A" stroke-width="1.072" opacity=".2"><path d="M15.445 1.324h33.443v48.352H.536V16.233c0-8.234 6.675-14.91 14.909-14.91zM0 25.5h49.424M24.71.788v49.424M48.888 1.324H97.24v48.352H48.888zM48.352 25.5h49.423M73.063.788v49.424M97.24 1.324h48.352v48.352H97.24zM96.704 25.5h49.424M121.415.788v49.424m24.177-48.888h48.352v48.352h-48.352zm-.536 24.176h49.424M169.767.788v49.424"/><path d="M193.944 1.324h48.352v48.352h-48.352zm-.536 24.176h49.424M218.12.788v49.424"/><path d="M242.296 1.324h48.352v48.352h-48.352zM241.76 25.5h49.424M266.471.788v49.424m24.177-48.888H339v48.352h-48.352zm-.536 24.176h49.424M314.824.788v49.424M339 1.324h48.352v48.352H339zm-.536 24.176h49.424M363.176.788v49.424m24.176-48.888h48.352v48.352h-48.352zm-.536 24.176h49.424M411.527.788v49.424m24.177-48.888h48.352v48.352h-48.352zm-.536 24.176h49.424M459.879.788v49.424m24.177-48.888h48.352v48.352h-48.352zm-.535 24.176h49.423M508.232.788v49.424m24.176-48.888h48.352v48.352h-48.352zm-.536 24.176h49.424M556.583.788v49.424m24.178-48.888h48.352v48.352h-48.352zm-.536 24.176h49.424M604.936.788v49.424"/><path d="M629.112 1.324h33.443c8.234 0 14.909 6.675 14.909 14.909v33.443h-48.352V1.324zm-.536 24.176H678M653.289.788v49.424M.536 49.676h48.352v48.352H.536zM0 73.852h49.424M24.71 49.14v49.424m24.178-48.888H97.24v48.352H48.888zm-.536 24.176h49.423M73.063 49.14v49.424M97.24 49.676h48.352v48.352H97.24zm-.536 24.176h49.424M121.415 49.14v49.424m24.177-48.888h48.352v48.352h-48.352zm-.536 24.176h49.424M169.767 49.14v49.424"/><path d="M193.944 49.676h48.352v48.352h-48.352zm-.536 24.176h49.424M218.12 49.14v49.424"/><path d="M242.296 49.676h48.352v48.352h-48.352zm-.536 24.176h49.424M266.471 49.14v49.424m24.177-48.888H339v48.352h-48.352zm-.536 24.176h49.424M314.824 49.14v49.424M339 49.676h48.352v48.352H339zm-.536 24.176h49.424M363.176 49.14v49.424m24.176-48.888h48.352v48.352h-48.352zm-.536 24.176h49.424M411.527 49.14v49.424m24.177-48.888h48.352v48.352h-48.352zm-.536 24.176h49.424M459.879 49.14v49.424m24.177-48.888h48.352v48.352h-48.352zm-.535 24.176h49.423M508.232 49.14v49.424m24.176-48.888h48.352v48.352h-48.352zm-.536 24.176h49.424M556.583 49.14v49.424m24.178-48.888h48.352v48.352h-48.352zm-.536 24.176h49.424M604.936 49.14v49.424"/><path d="M629.112 49.676h48.352v48.352h-48.352zm-.536 24.176H678M653.289 49.14v49.424M.536 98.028h48.352v48.352H.536zM0 122.204h49.424M24.71 97.492v49.424m24.178-48.888H97.24v48.352H48.888zm-.536 24.176h49.423M73.063 97.492v49.424M97.24 98.028h48.352v48.352H97.24zm-.536 24.176h49.424m-24.713-24.712v49.424m24.177-48.888h48.352v48.352h-48.352zm-.536 24.176h49.424m-24.713-24.712v49.424m24.177-48.888h48.352v48.352h-48.352zm-.536 24.176h49.424M218.12 97.492v49.424"/><path d="M242.296 98.028h48.352v48.352h-48.352zm-.536 24.176h49.424m-24.713-24.712v49.424m24.177-48.888H339v48.352h-48.352zm-.536 24.176h49.424m-24.712-24.712v49.424M339 98.028h48.352v48.352H339zm-.536 24.176h49.424m-24.712-24.712v49.424m24.176-48.888h48.352v48.352h-48.352zm-.536 24.176h49.424m-24.713-24.712v49.424m24.177-48.888h48.352v48.352h-48.352zm-.536 24.176h49.424m-24.713-24.712v49.424m24.177-48.888h48.352v48.352h-48.352zm-.535 24.176h49.423m-24.712-24.712v49.424m24.176-48.888h48.352v48.352h-48.352zm-.536 24.176h49.424m-24.713-24.712v49.424m24.178-48.888h48.352v48.352h-48.352zm-.536 24.176h49.424m-24.713-24.712v49.424"/><path d="M629.112 98.028h48.352v48.352h-48.352zm-.536 24.176H678m-24.711-24.712v49.424M.536 146.38h48.352v48.352H.536zM0 170.556h49.424M24.71 145.844v49.424m24.178-48.888H97.24v48.352H48.888zm-.536 24.176h49.423m-24.712-24.712v49.424M97.24 146.38h48.352v48.352H97.24zm-.536 24.176h49.424m-24.713-24.712v49.424m24.177-48.888h48.352v48.352h-48.352zm-.536 24.176h49.424m-24.713-24.712v49.424m24.177-48.888h48.352v48.352h-48.352zm-.536 24.176h49.424m-24.712-24.712v49.424"/><path d="M242.296 146.38h48.352v48.352h-48.352zm-.536 24.176h49.424m-24.713-24.712v49.424m24.177-48.888H339v48.352h-48.352zm-.536 24.176h49.424m-24.712-24.712v49.424M339 146.38h48.352v48.352H339zm-.536 24.176h49.424m-24.712-24.712v49.424m24.176-48.888h48.352v48.352h-48.352zm-.536 24.176h49.424m-24.713-24.712v49.424m24.177-48.888h48.352v48.352h-48.352zm-.536 24.176h49.424m-24.713-24.712v49.424m24.177-48.888h48.352v48.352h-48.352zm-.535 24.176h49.423m-24.712-24.712v49.424m24.176-48.888h48.352v48.352h-48.352zm-.536 24.176h49.424m-24.713-24.712v49.424m24.178-48.888h48.352v48.352h-48.352zm-.536 24.176h49.424m-24.713-24.712v49.424"/><path d="M629.112 146.38h48.352v48.352h-48.352zm-.536 24.176H678m-24.711-24.712v49.424M.536 194.732h48.352v48.352H.536zM0 218.908h49.424M24.71 194.196v49.424m24.178-48.888H97.24v48.352H48.888zm-.536 24.176h49.423m-24.712-24.712v49.424m24.177-48.888h48.352v48.352H97.24zm-.536 24.176h49.424m-24.713-24.712v49.424m24.177-48.888h48.352v48.352h-48.352zm-.536 24.176h49.424m-24.713-24.712v49.424"/><path d="M193.944 194.732h48.352v48.352h-48.352zm-.536 24.176h49.424m-24.712-24.712v49.424"/><path d="M242.296 194.732h48.352v48.352h-48.352zm-.536 24.176h49.424m-24.713-24.712v49.424m24.177-48.888H339v48.352h-48.352zm-.536 24.176h49.424m-24.712-24.712v49.424M339 194.732h48.352v48.352H339zm-.536 24.176h49.424m-24.712-24.712v49.424m24.176-48.888h48.352v48.352h-48.352zm-.536 24.176h49.424m-24.713-24.712v49.424m24.177-48.888h48.352v48.352h-48.352zm-.536 24.176h49.424m-24.713-24.712v49.424m24.177-48.888h48.352v48.352h-48.352zm-.535 24.176h49.423m-24.712-24.712v49.424m24.176-48.888h48.352v48.352h-48.352zm-.536 24.176h49.424m-24.713-24.712v49.424m24.178-48.888h48.352v48.352h-48.352zm-.536 24.176h49.424m-24.713-24.712v49.424"/><path d="M629.112 194.732h48.352v48.352h-48.352zm-.536 24.176H678m-24.711-24.712v49.424M.536 243.084h48.352v48.352H.536zM0 267.26h49.424M24.71 242.548v49.423m24.178-48.887H97.24v48.352H48.888zm-.536 24.176h49.423m-24.712-24.712v49.424m24.177-48.888h48.352v48.352H97.24zm-.536 24.176h49.424m-24.713-24.712v49.424m24.178-48.888h48.352v48.352h-48.352zm-.536 24.176h49.424m-24.713-24.712v49.424"/><path d="M193.944 243.084h48.352v48.352h-48.352zm-.536 24.176h49.424m-24.712-24.712v49.424m24.177-48.888h48.352v48.352h-48.352zm-.536 24.176h49.424m-24.713-24.712v49.424"/><path d="M290.648 243.084H339v48.352h-48.352zm-.536 24.176h49.424m-24.712-24.712v49.423m24.177-48.887h48.352v48.352h-48.352zm-.536 24.176h49.424m-24.712-24.712v49.423"/><path d="M387.352 243.084h48.352v48.352h-48.352zm-.536 24.176h49.424m-24.713-24.712v49.424m24.177-48.888h48.352v48.352h-48.352zm-.536 24.176h49.424m-24.713-24.712v49.424m24.177-48.888h48.352v48.352h-48.352zm-.535 24.176h49.423m-24.712-24.712v49.424m24.176-48.888h48.352v48.352h-48.352zm-.536 24.176h49.424m-24.713-24.712v49.424m24.178-48.888h48.352v48.352h-48.352zm-.536 24.176h49.424m-24.713-24.712v49.424"/><path d="M629.112 243.084h48.352v48.352h-48.352zm-.536 24.176H678m-24.711-24.712v49.424M.536 291.436h48.352v48.352H.536zM0 315.612h49.424M24.71 290.9v49.424m24.178-48.888H97.24v48.352H48.888zm-.536 24.176h49.423M73.063 290.9v49.424m24.177-48.888h48.352v48.352H97.24zm-.536 24.176h49.424M121.415 290.9v49.424m24.178-48.888h48.352v48.352h-48.352zm-.536 24.176h49.424M169.768 290.9v49.424"/><path d="M193.944 291.436h48.352v48.352h-48.352zm-.536 24.176h49.424M218.12 290.9v49.424m24.177-48.888h48.352v48.352h-48.352zm-.536 24.176h49.424M266.472 290.9v49.424"/><path d="M290.648 291.436H339v48.352h-48.352zm-.536 24.176h49.424M314.824 290.9v49.424m24.177-48.888h48.352v48.352h-48.352zm-.536 24.176h49.424M363.177 290.9v49.424"/><path d="M387.352 291.436h48.352v48.352h-48.352zm-.536 24.176h49.424M411.527 290.9v49.424m24.177-48.888h48.352v48.352h-48.352zm-.536 24.176h49.424M459.879 290.9v49.424m24.177-48.888h48.352v48.352h-48.352zm-.535 24.176h49.423M508.232 290.9v49.424m24.176-48.888h48.352v48.352h-48.352zm-.536 24.176h49.424M556.583 290.9v49.424m24.178-48.888h48.352v48.352h-48.352zm-.536 24.176h49.424M604.936 290.9v49.424"/><path d="M629.112 291.436h48.352v48.352h-48.352zm-.536 24.176H678M653.289 290.9v49.424M.536 339.788h48.352v48.352H.536zM0 363.964h49.424M24.71 339.252v49.424m24.178-48.888H97.24v48.352H48.888zm-.536 24.176h49.423m-24.712-24.712v49.424m24.177-48.888h48.352v48.352H97.24zm-.536 24.176h49.424m-24.713-24.712v49.424m24.177-48.888h48.352v48.352h-48.352zm-.536 24.176h49.424m-24.713-24.712v49.424"/><path d="M193.944 339.788h48.352v48.352h-48.352zm-.536 24.176h49.424m-24.712-24.712v49.424"/><path d="M242.296 339.788h48.352v48.352h-48.352zm-.536 24.176h49.424m-24.713-24.712v49.424m24.177-48.888H339v48.352h-48.352zm-.536 24.176h49.424m-24.712-24.712v49.424M339 339.788h48.352v48.352H339zm-.536 24.176h49.424m-24.712-24.712v49.424m24.176-48.888h48.352v48.352h-48.352zm-.536 24.176h49.424m-24.713-24.712v49.424m24.177-48.888h48.352v48.352h-48.352zm-.536 24.176h49.424m-24.713-24.712v49.424m24.177-48.888h48.352v48.352h-48.352zm-.535 24.176h49.423m-24.712-24.712v49.424m24.176-48.888h48.352v48.352h-48.352zm-.536 24.176h49.424m-24.713-24.712v49.424m24.178-48.888h48.352v48.352h-48.352zm-.536 24.176h49.424m-24.713-24.712v49.424"/><path d="M629.112 339.788h48.352v48.352h-48.352zm-.536 24.176H678m-24.711-24.712v49.424M.536 388.14h48.352v48.352H.536zM0 412.316h49.424M24.71 387.604v49.424m24.178-48.888H97.24v48.352H48.888zm-.536 24.176h49.423m-24.712-24.712v49.424M97.24 388.14h48.352v48.352H97.24zm-.536 24.176h49.424m-24.713-24.712v49.424m24.177-48.888h48.352v48.352h-48.352zm-.536 24.176h49.424m-24.713-24.712v49.424m24.177-48.888h48.352v48.352h-48.352zm-.536 24.176h49.424m-24.712-24.712v49.424"/><path d="M242.296 388.14h48.352v48.352h-48.352zm-.536 24.176h49.424m-24.713-24.712v49.424m24.177-48.888H339v48.352h-48.352zm-.536 24.176h49.424m-24.712-24.712v49.424M339 388.14h48.352v48.352H339zm-.536 24.176h49.424m-24.712-24.712v49.424m24.176-48.888h48.352v48.352h-48.352zm-.536 24.176h49.424m-24.713-24.712v49.424m24.177-48.888h48.352v48.352h-48.352zm-.536 24.176h49.424m-24.713-24.712v49.424m24.177-48.888h48.352v48.352h-48.352zm-.535 24.176h49.423m-24.712-24.712v49.424m24.176-48.888h48.352v48.352h-48.352zm-.536 24.176h49.424m-24.713-24.712v49.424m24.178-48.888h48.352v48.352h-48.352zm-.536 24.176h49.424m-24.713-24.712v49.424"/><path d="M629.112 388.14h48.352v48.352h-48.352zm-.536 24.176H678m-24.711-24.712v49.424M.536 436.492h48.352v48.352H.536zM0 460.668h49.424M24.71 435.957v49.423m24.178-48.888H97.24v48.352H48.888zm-.536 24.176h49.423m-24.712-24.711v49.423m24.177-48.888h48.352v48.352H97.24zm-.536 24.176h49.424m-24.713-24.712v49.424m24.177-48.887h48.352v48.352h-48.352zm-.536 24.176h49.424m-24.713-24.712v49.423"/><path d="M193.944 436.493h48.352v48.352h-48.352zm-.536 24.176h49.424m-24.712-24.712v49.423"/><path d="M242.296 436.492h48.352v48.352h-48.352zm-.536 24.176h49.424m-24.713-24.712v49.424m24.177-48.888H339v48.352h-48.352zm-.536 24.176h49.424m-24.712-24.711v49.423M339 436.492h48.352v48.352H339zm-.536 24.176h49.424m-24.712-24.711v49.423m24.176-48.888h48.352v48.352h-48.352zm-.536 24.177h49.424m-24.713-24.712v49.423m24.177-48.888h48.352v48.352h-48.352zm-.536 24.176h49.424m-24.713-24.711v49.423m24.177-48.888h48.352v48.352h-48.352zm-.535 24.176h49.423m-24.712-24.712v49.424m24.176-48.888h48.352v48.352h-48.352zm-.536 24.176h49.424m-24.713-24.712v49.424m24.178-48.888h48.352v48.352h-48.352zm-.536 24.176h49.424m-24.713-24.712v49.424"/><path d="M629.112 436.492h48.352v48.352h-48.352zm-.536 24.176H678m-24.711-24.711v49.423M.536 484.844h48.352v48.352H15.445c-8.234 0-14.909-6.675-14.909-14.909v-33.443zM0 509.021h49.424M24.71 484.309v49.424m24.178-48.889H97.24v48.352H48.888zm-.536 24.177h49.423m-24.712-24.712v49.424m24.177-48.889h48.352v48.352H97.24zm-.536 24.177h49.424m-24.713-24.712v49.424m24.177-48.889h48.352v48.352h-48.352zm-.536 24.177h49.424m-24.713-24.712v49.424"/><path d="M193.944 484.844h48.352v48.352h-48.352zm-.536 24.177h49.424m-24.712-24.712v49.424"/><path d="M242.296 484.844h48.352v48.352h-48.352zm-.536 24.177h49.424m-24.713-24.712v49.424m24.177-48.889H339v48.352h-48.352zm-.536 24.177h49.424m-24.712-24.712v49.424M339 484.844h48.352v48.352H339zm-.536 24.177h49.424m-24.712-24.712v49.424m24.176-48.889h48.352v48.352h-48.352zm-.536 24.176h49.424m-24.713-24.712v49.424m24.177-48.887h48.352v48.352h-48.352zm-.536 24.175h49.424m-24.713-24.711v49.423m24.177-48.888h48.352v48.352h-48.352zm-.535 24.176h49.423m-24.712-24.711v49.423m24.176-48.888h48.352v48.352h-48.352zm-.536 24.176h49.424m-24.713-24.711v49.423m24.178-48.888h48.352v48.352h-48.352zm-.536 24.176h49.424m-24.713-24.712v49.424"/><path d="M629.112 484.844h48.352v33.443c0 8.234-6.675 14.909-14.909 14.909h-33.443v-48.352zm-.536 24.177H678m-24.711-24.712v49.424"/></g><g clip-path="url(#b)"><path fill="#D9D9D9" d="M49.424 50.212h579.152v26.725H49.424z"/><circle cx="67.331" cy="63.574" r="5.628" fill="#F2544C"/><circle cx="84.726" cy="63.574" r="5.628" fill="#FEBC2E"/><circle cx="102.121" cy="63.574" r="5.628" fill="#28C840"/><path fill="#656973" fill-rule="evenodd" d="M616.732 61.094c.24.24.24.628 0 .868l-4.093 4.093a.613.613 0 0 1-.868 0l-4.093-4.093a.614.614 0 1 1 .868-.868l3.659 3.658 3.659-3.658c.24-.24.628-.24.868 0z" clip-rule="evenodd"/><g clip-path="url(#c)"><path fill="#181C1F" fill-opacity=".95" d="M49.424 76.937H272.49V486.11H49.424z"/><path fill="#fff" d="M88.307 471.703h18.418v-18.418H88.307v18.418z"/><path fill="#DEE5E5" d="M118.246 467.951v-10.028h4.226c1.863 0 3.223 1.103 3.223 3.037s-1.36 3.037-3.223 3.037h-2.793v3.954h-1.433zm1.433-5.243h2.578c1.29 0 2.006-.602 2.006-1.748s-.716-1.748-2.006-1.748h-2.578v3.496zm10.322 5.243v-8.739h-3.581v-1.289h8.595v1.289h-3.581v8.739h-1.433zm10.11.143c-2.722 0-4.727-1.934-4.727-5.157s2.005-5.157 4.727-5.157c2.722 0 4.727 1.934 4.727 5.157s-2.005 5.157-4.727 5.157zm-3.295-5.157c0 2.435 1.361 3.868 3.223 3.868h.144c1.862 0 3.223-1.433 3.223-3.868 0-2.435-1.361-3.868-3.223-3.868h-.144c-1.862 0-3.223 1.433-3.223 3.868zm13.294 7.879v-10.028h1.36v1.003c.359-.645 1.361-1.146 2.364-1.146 1.791 0 3.08 1.361 3.08 3.725 0 2.363-1.432 3.724-3.223 3.724-1.003 0-1.862-.501-2.221-1.146v3.868h-1.36zm1.36-6.446c0 1.719 1.003 2.578 2.02 2.578h.115c1.089 0 1.948-.859 1.948-2.578 0-1.719-.859-2.579-1.948-2.579h-.115c-1.017 0-2.02.86-2.02 2.579zm10.167 3.724c-1.934 0-3.438-1.504-3.438-3.724 0-2.221 1.504-3.725 3.438-3.725 1.934 0 3.438 1.504 3.438 3.725 0 2.22-1.504 3.724-3.438 3.724zm-2.077-3.724c0 1.647.86 2.578 2.02 2.578h.114c1.161 0 2.02-.931 2.02-2.578 0-1.648-.859-2.579-2.02-2.579h-.114c-1.16 0-2.02.931-2.02 2.579zm7.225 3.581v-10.028h1.361v10.028h-1.361zm3.511 0v-7.163h1.361v7.163h-1.361zm-.071-8.452v-1.576h1.504v1.576h-1.504zm6.591 8.595c-2.206 0-3.438-1.619-3.438-3.724 0-2.106 1.232-3.725 3.438-3.725 1.633 0 2.794.96 2.937 2.507h-1.361c-.129-.788-.702-1.361-1.519-1.361h-.114c-1.375 0-2.02 1.218-2.02 2.579 0 1.361.645 2.578 2.02 2.578h.114c.817 0 1.39-.573 1.519-1.361h1.361c-.143 1.547-1.304 2.507-2.937 2.507zm4.146 2.507v-1.218h2.006c.429 0 .573-.143.573-.573v-1.002l-3.009-7.02h1.447l2.235 5.286 2.149-5.286h1.404l-2.937 7.005v1.304c0 1.003-.501 1.504-1.504 1.504h-2.364z" opacity=".5"/><path fill="#fff" d="M88.307 441.006h18.418v-18.419H88.307v18.419z"/><path fill="#DEE5E5" d="M118.246 437.254v-10.028h7.02v1.289h-5.587v3.224h4.87v1.289h-4.87v4.226h-1.433zm8.473 0v-7.163h1.361v7.163h-1.361zm-.072-8.452v-1.576h1.504v1.576h-1.504zm3.583 8.452v-7.163h1.361v1.003c.43-.645 1.146-1.146 2.292-1.146 1.648 0 2.579 1.003 2.579 2.507v4.799h-1.361v-4.513c0-1.002-.43-1.647-1.447-1.647h-.115c-1.017 0-1.948.788-1.948 2.149v4.011h-1.361zm11.046.143c-1.79 0-3.151-1.361-3.151-3.725 0-2.363 1.361-3.724 3.151-3.724 1.218 0 1.863.501 2.292 1.146v-1.003h1.361v7.163h-1.361v-1.003c-.429.645-1.074 1.146-2.292 1.146zm-1.79-3.725c0 1.72.859 2.579 1.934 2.579h.143c1.003 0 2.005-.859 2.005-2.579 0-1.719-1.002-2.578-2.005-2.578h-.143c-1.075 0-1.934.859-1.934 2.578zm7.588 3.582v-7.163h1.361v1.003c.429-.645 1.146-1.146 2.292-1.146 1.647 0 2.578 1.003 2.578 2.507v4.799h-1.361v-4.513c0-1.002-.429-1.647-1.446-1.647h-.115c-1.017 0-1.948.788-1.948 2.149v4.011h-1.361zm11.318.143c-2.206 0-3.438-1.619-3.438-3.725 0-2.105 1.232-3.724 3.438-3.724 1.633 0 2.793.96 2.937 2.507h-1.361c-.129-.788-.702-1.361-1.519-1.361h-.114c-1.376 0-2.02 1.218-2.02 2.578 0 1.361.644 2.579 2.02 2.579h.114c.817 0 1.39-.573 1.519-1.361h1.361c-.144 1.547-1.304 2.507-2.937 2.507zm7.567 0c-1.776 0-3.381-1.232-3.381-3.739 0-2.478 1.648-3.71 3.338-3.71 1.862 0 3.037 1.289 3.037 3.151v.788h-5.014c.086 1.633 1.132 2.364 2.006 2.364h.114c.702 0 1.375-.358 1.519-1.117h1.361c-.258 1.447-1.505 2.263-2.98 2.263zm-1.934-4.584h3.567c-.057-1.246-.802-1.719-1.619-1.719h-.114c-.745 0-1.576.444-1.834 1.719zm10.189 4.441v-10.028h1.36v3.868c.43-.645 1.146-1.146 2.293-1.146 1.647 0 2.578 1.003 2.578 2.507v4.799h-1.361v-4.513c0-1.002-.43-1.647-1.447-1.647h-.114c-1.017 0-1.949.788-1.949 2.149v4.011h-1.36zm10.673.143c-1.604 0-2.435-1.074-2.435-2.579v-4.727h1.361v4.441c0 1.146.472 1.719 1.447 1.719h.114c.917 0 1.805-.859 1.805-2.292v-3.868h1.361v7.163h-1.361v-1.361c-.272.788-1.046 1.504-2.292 1.504zm9.531 0c-1.003 0-2.006-.501-2.364-1.146v1.003h-1.361v-10.028h1.361v3.868c.358-.645 1.218-1.146 2.221-1.146 1.79 0 3.223 1.361 3.223 3.724 0 2.364-1.289 3.725-3.08 3.725zm-2.364-3.725c0 1.72 1.003 2.579 2.02 2.579h.115c1.088 0 1.948-.859 1.948-2.579 0-1.719-.86-2.578-1.948-2.578h-.115c-1.017 0-2.02.859-2.02 2.578z" opacity=".5"/><path fill="#fff" d="M88.307 410.309h18.418V391.89H88.307v18.419z"/><path fill="#DEE5E5" d="M118.246 406.557v-10.028h1.433v4.369h5.085v-4.369h1.433v10.028h-1.433v-4.37h-5.085v4.37h-1.433zm10.32 0v-7.163h1.36v7.163h-1.36zm-.072-8.452v-1.576h1.504v1.576h-1.504zm3.583 8.452v-7.163h1.289v1.576c.287-1.075 1.146-1.648 2.077-1.648h.645v1.318h-.573c-1.289 0-2.077.86-2.077 2.292v3.625h-1.361zm5.386 0v-7.163h1.361v7.163h-1.361zm-.072-8.452v-1.576h1.504v1.576h-1.504zm3.583 8.452v-7.163h1.361v1.003c.43-.645 1.146-1.146 2.292-1.146 1.648 0 2.579 1.003 2.579 2.507v4.799h-1.361v-4.513c0-1.003-.43-1.647-1.447-1.647h-.115c-1.017 0-1.948.788-1.948 2.149v4.011h-1.361zm11.075 3.151c-2.006 0-3.18-.931-3.324-2.22h1.361c.144.716.917 1.074 1.891 1.074h.144c1.217 0 2.077-.644 2.077-2.149v-1.002c-.358.573-1.075 1.146-2.149 1.146-1.647 0-3.18-1.146-3.18-3.653s1.49-3.653 3.18-3.653c1.074 0 1.862.573 2.149 1.146v-1.003h1.361v7.163c0 1.79-1.29 3.151-3.51 3.151zm-1.819-6.804c0 1.79.859 2.507 1.876 2.507h.115c.988 0 1.977-.931 1.977-2.507s-.917-2.507-1.906-2.507h-.114c-1.017 0-1.948.716-1.948 2.507zm13.738 6.804c-2.006 0-3.18-.931-3.323-2.22h1.36c.144.716.917 1.074 1.891 1.074h.144c1.217 0 2.077-.644 2.077-2.149v-1.002c-.358.573-1.075 1.146-2.149 1.146-1.647 0-3.18-1.146-3.18-3.653s1.49-3.653 3.18-3.653c1.074 0 1.862.573 2.149 1.146v-1.003h1.361v7.163c0 1.79-1.29 3.151-3.51 3.151zm-1.819-6.804c0 1.79.859 2.507 1.876 2.507h.115c.988 0 1.977-.931 1.977-2.507s-.917-2.507-1.905-2.507h-.115c-1.017 0-1.948.716-1.948 2.507zm9.84 3.796c-1.605 0-2.436-1.074-2.436-2.579v-4.727h1.361v4.441c0 1.146.473 1.719 1.447 1.719h.115c.917 0 1.805-.86 1.805-2.292v-3.868h1.361v7.163h-1.361v-1.361c-.272.788-1.046 1.504-2.292 1.504zm5.806-.143v-7.163h1.361v7.163h-1.361zm-.072-8.452v-1.576h1.504v1.576h-1.504zm6.248 8.595c-1.791 0-3.08-1.361-3.08-3.725 0-2.363 1.432-3.724 3.223-3.724 1.003 0 1.862.501 2.22 1.146v-3.868h1.361v10.028h-1.361v-1.003c-.358.645-1.36 1.146-2.363 1.146zm-1.719-3.725c0 1.719.859 2.579 1.948 2.579h.115c1.017 0 2.019-.86 2.019-2.579 0-1.719-1.002-2.578-2.019-2.578h-.115c-1.089 0-1.948.859-1.948 2.578zm10.539 3.725c-1.776 0-3.381-1.232-3.381-3.739 0-2.478 1.648-3.71 3.338-3.71 1.862 0 3.037 1.289 3.037 3.151v.788h-5.014c.086 1.633 1.132 2.364 2.006 2.364h.114c.702 0 1.375-.358 1.519-1.117h1.361c-.258 1.446-1.505 2.263-2.98 2.263zm-1.934-4.584h3.567c-.057-1.246-.802-1.719-1.619-1.719h-.114c-.745 0-1.576.444-1.834 1.719z" opacity=".5"/><path fill="#fff" d="M88.307 379.611h18.418v-18.418H88.307v18.418z"/><path fill="#DEE5E5" d="m119.722 375.86-2.435-10.028h1.489l1.963 8.466 2.048-8.466h1.877l1.991 8.538 1.891-8.538h1.49l-2.435 10.028h-1.934l-2.006-8.381-2.005 8.381h-1.934zm14.257.143c-1.777 0-3.381-1.232-3.381-3.739 0-2.478 1.647-3.71 3.338-3.71 1.862 0 3.037 1.289 3.037 3.151v.788h-5.014c.086 1.633 1.132 2.364 2.005 2.364h.115c.702 0 1.375-.358 1.519-1.118h1.36c-.257 1.447-1.504 2.264-2.979 2.264zm-1.934-4.584h3.567c-.057-1.247-.802-1.719-1.619-1.719h-.115c-.744 0-1.575.444-1.833 1.719zm9.642 4.584c-1.776 0-3.381-1.232-3.381-3.739 0-2.478 1.648-3.71 3.338-3.71 1.862 0 3.037 1.289 3.037 3.151v.788h-5.014c.086 1.633 1.132 2.364 2.006 2.364h.114c.702 0 1.376-.358 1.519-1.118h1.361c-.258 1.447-1.504 2.264-2.98 2.264zm-1.934-4.584h3.567c-.057-1.247-.802-1.719-1.619-1.719h-.114c-.745 0-1.576.444-1.834 1.719zm6.691 4.441v-10.028h1.361v5.959l3.152-3.094h1.79l-2.979 2.851 3.123 4.312h-1.676l-2.421-3.381-.989.96v2.421h-1.361zm7.639 0v-10.028h1.36v10.028h-1.36zm3.153 2.65v-1.218h2.005c.43 0 .573-.143.573-.573v-1.003l-3.008-7.019h1.447l2.235 5.286 2.148-5.286h1.404l-2.936 7.005v1.304c0 1.002-.502 1.504-1.505 1.504h-2.363zm13.69-2.507c-1.905 0-2.937-1.003-2.937-2.364h1.361c.072.86.745 1.218 1.59 1.218h.115c.745 0 1.332-.358 1.332-.931 0-.459-.258-.774-.974-.917l-1.046-.201c-1.16-.229-2.091-.831-2.091-2.048 0-1.433 1.275-2.206 2.707-2.206 1.877 0 2.837 1.002 2.837 2.363h-1.361c-.072-.644-.473-1.217-1.404-1.217h-.115c-.802 0-1.303.415-1.303.916 0 .502.286.774 1.003.917l1.131.23c1.089.214 1.977.802 1.977 2.091 0 1.289-1.16 2.149-2.822 2.149zm4.105 2.507v-1.218h2.005c.43 0 .573-.143.573-.573v-1.003l-3.008-7.019h1.447l2.234 5.286 2.149-5.286h1.404l-2.937 7.005v1.304c0 1.002-.501 1.504-1.504 1.504h-2.363zm8.038-2.65v-7.163h1.361v1.003c.43-.645 1.146-1.146 2.292-1.146 1.647 0 2.578 1.002 2.578 2.507v4.799h-1.36v-4.513c0-1.003-.43-1.647-1.447-1.647h-.115c-1.017 0-1.948.788-1.948 2.148v4.012h-1.361zm11.318.143c-2.206 0-3.438-1.619-3.438-3.725s1.232-3.724 3.438-3.724c1.633 0 2.794.959 2.937 2.507h-1.361c-.129-.788-.702-1.361-1.519-1.361h-.114c-1.375 0-2.02 1.217-2.02 2.578 0 1.361.645 2.579 2.02 2.579h.114c.817 0 1.39-.573 1.519-1.361h1.361c-.143 1.547-1.304 2.507-2.937 2.507z" opacity=".5"/><path fill="#fff" d="M88.307 348.914h18.418v-18.418H88.307v18.418z"/><path fill="#DEE5E5" d="M122.372 345.306c-2.937 0-4.727-2.221-4.727-5.157 0-2.937 1.79-5.158 4.727-5.158 2.149 0 3.868 1.261 4.011 3.295h-1.432c-.144-1.217-1.146-2.005-2.507-2.005h-.144c-2.077 0-3.223 1.719-3.223 3.868 0 2.148 1.146 3.867 3.223 3.867h.144c1.361 0 2.363-.787 2.507-2.005h1.432c-.143 2.034-1.862 3.295-4.011 3.295zm8.726 0c-1.934 0-3.438-1.504-3.438-3.725 0-2.22 1.504-3.724 3.438-3.724 1.934 0 3.438 1.504 3.438 3.724 0 2.221-1.504 3.725-3.438 3.725zm-2.077-3.725c0 1.648.859 2.579 2.02 2.579h.114c1.161 0 2.02-.931 2.02-2.579 0-1.647-.859-2.578-2.02-2.578h-.114c-1.161 0-2.02.931-2.02 2.578zm7.225 3.581V338h1.361v1.003a2.507 2.507 0 0 1 2.149-1.146c1.031 0 1.891.401 2.363 1.332.559-.989 1.49-1.332 2.364-1.332 1.647 0 2.578 1.002 2.578 2.506v4.799h-1.36v-4.512c0-1.003-.43-1.647-1.447-1.647h-.115c-.874 0-1.805.787-1.805 2.148v4.011h-1.361v-4.512c0-1.003-.43-1.647-1.447-1.647h-.114c-.874 0-1.805.787-1.805 2.148v4.011h-1.361zm12.898 2.866V338h1.361v1.003c.358-.645 1.361-1.146 2.364-1.146 1.79 0 3.08 1.36 3.08 3.724s-1.433 3.725-3.223 3.725c-1.003 0-1.863-.502-2.221-1.146v3.868h-1.361zm1.361-6.447c0 1.719 1.003 2.579 2.02 2.579h.115c1.088 0 1.948-.86 1.948-2.579 0-1.719-.86-2.578-1.948-2.578h-.115c-1.017 0-2.02.859-2.02 2.578zm9.909 3.725c-1.791 0-3.152-1.361-3.152-3.725s1.361-3.724 3.152-3.724c1.218 0 1.862.501 2.292 1.146V338h1.361v7.162h-1.361v-1.002c-.43.644-1.074 1.146-2.292 1.146zm-1.791-3.725c0 1.719.86 2.579 1.934 2.579h.144c1.002 0 2.005-.86 2.005-2.579 0-1.719-1.003-2.578-2.005-2.578h-.144c-1.074 0-1.934.859-1.934 2.578zm7.589 3.581V338h1.36v1.003c.43-.645 1.146-1.146 2.292-1.146 1.648 0 2.579 1.002 2.579 2.506v4.799h-1.361v-4.512c0-1.003-.43-1.647-1.447-1.647h-.114c-1.017 0-1.949.787-1.949 2.148v4.011h-1.36zm7.825 2.651v-1.218h2.006c.43 0 .573-.143.573-.573v-1.003L173.608 338h1.446l2.235 5.286 2.149-5.286h1.404l-2.937 7.005v1.303c0 1.003-.501 1.505-1.504 1.505h-2.364zm13.103-2.651L184.49 338h1.404l2.077 5.83 2.077-5.83h1.39l-2.65 7.162h-1.648zm8.178.144c-1.791 0-3.152-1.361-3.152-3.725s1.361-3.724 3.152-3.724c1.218 0 1.862.501 2.292 1.146V338h1.361v7.162h-1.361v-1.002c-.43.644-1.074 1.146-2.292 1.146zm-1.791-3.725c0 1.719.86 2.579 1.934 2.579h.144c1.002 0 2.005-.86 2.005-2.579 0-1.719-1.003-2.578-2.005-2.578h-.144c-1.074 0-1.934.859-1.934 2.578zm7.589 3.581v-10.027h1.36v10.027h-1.36zm5.875.144c-1.605 0-2.436-1.075-2.436-2.579V338h1.361v4.441c0 1.146.473 1.719 1.447 1.719h.115c.916 0 1.805-.86 1.805-2.292V338h1.361v7.162h-1.361v-1.36c-.273.787-1.046 1.504-2.292 1.504zm8.757 0c-1.777 0-3.381-1.232-3.381-3.739 0-2.478 1.647-3.71 3.338-3.71 1.862 0 3.037 1.289 3.037 3.151v.788h-5.014c.086 1.633 1.132 2.364 2.005 2.364h.115c.702 0 1.375-.358 1.519-1.118h1.36c-.257 1.447-1.504 2.264-2.979 2.264zm-1.934-4.584h3.567c-.057-1.247-.802-1.719-1.619-1.719h-.114c-.745 0-1.576.444-1.834 1.719zm9.083 4.584c-1.905 0-2.936-1.003-2.936-2.364h1.361c.071.86.745 1.218 1.59 1.218h.114c.745 0 1.333-.358 1.333-.931 0-.459-.258-.774-.975-.917l-1.045-.201c-1.161-.229-2.092-.831-2.092-2.048 0-1.433 1.275-2.206 2.708-2.206 1.876 0 2.836 1.002 2.836 2.363h-1.361c-.071-.644-.473-1.217-1.404-1.217h-.114c-.803 0-1.304.415-1.304.916 0 .502.287.774 1.003.917l1.132.229c1.088.215 1.976.803 1.976 2.092 0 1.289-1.16 2.149-2.822 2.149z" opacity=".5"/><path fill="#fff" d="M88.307 318.217h18.418v-18.418H88.307v18.418z"/><path fill="#DEE5E5" d="M122.372 314.609c-2.937 0-4.727-2.221-4.727-5.158 0-2.936 1.79-5.157 4.727-5.157 2.149 0 3.868 1.261 4.011 3.295h-1.432c-.144-1.217-1.146-2.005-2.507-2.005h-.144c-2.077 0-3.223 1.719-3.223 3.867 0 2.149 1.146 3.868 3.223 3.868h.144c1.361 0 2.363-.788 2.507-2.005h1.432c-.143 2.034-1.862 3.295-4.011 3.295zm8.726 0c-1.934 0-3.438-1.505-3.438-3.725s1.504-3.725 3.438-3.725c1.934 0 3.438 1.505 3.438 3.725s-1.504 3.725-3.438 3.725zm-2.077-3.725c0 1.647.859 2.579 2.02 2.579h.114c1.161 0 2.02-.932 2.02-2.579 0-1.647-.859-2.579-2.02-2.579h-.114c-1.161 0-2.02.932-2.02 2.579zm7.225 3.581v-7.162h1.361v1.002a2.509 2.509 0 0 1 2.149-1.146c1.031 0 1.891.402 2.363 1.333.559-.989 1.49-1.333 2.364-1.333 1.647 0 2.578 1.003 2.578 2.507v4.799h-1.36v-4.512c0-1.003-.43-1.648-1.447-1.648h-.115c-.874 0-1.805.788-1.805 2.149v4.011h-1.361v-4.512c0-1.003-.43-1.648-1.447-1.648h-.114c-.874 0-1.805.788-1.805 2.149v4.011h-1.361zm12.898 2.865v-10.027h1.361v1.002c.358-.644 1.361-1.146 2.364-1.146 1.79 0 3.08 1.361 3.08 3.725s-1.433 3.725-3.223 3.725c-1.003 0-1.863-.502-2.221-1.146v3.867h-1.361zm1.361-6.446c0 1.719 1.003 2.579 2.02 2.579h.115c1.088 0 1.948-.86 1.948-2.579 0-1.719-.86-2.579-1.948-2.579h-.115c-1.017 0-2.02.86-2.02 2.579zm9.909 3.725c-1.791 0-3.152-1.361-3.152-3.725s1.361-3.725 3.152-3.725c1.218 0 1.862.502 2.292 1.146v-1.002h1.361v7.162h-1.361v-1.002c-.43.644-1.074 1.146-2.292 1.146zm-1.791-3.725c0 1.719.86 2.579 1.934 2.579h.144c1.002 0 2.005-.86 2.005-2.579 0-1.719-1.003-2.579-2.005-2.579h-.144c-1.074 0-1.934.86-1.934 2.579zm7.589 3.581v-7.162h1.36v1.002c.43-.644 1.146-1.146 2.292-1.146 1.648 0 2.579 1.003 2.579 2.507v4.799h-1.361v-4.512c0-1.003-.43-1.648-1.447-1.648h-.114c-1.017 0-1.949.788-1.949 2.149v4.011h-1.36zm7.825 2.651v-1.218h2.006c.43 0 .573-.143.573-.573v-1.003l-3.008-7.019h1.446l2.235 5.286 2.149-5.286h1.404l-2.937 7.005v1.303c0 1.003-.501 1.505-1.504 1.505h-2.364zm14.307-2.507c-2.207 0-3.438-1.619-3.438-3.725s1.231-3.725 3.438-3.725c1.633 0 2.793.96 2.936 2.507h-1.361c-.129-.788-.702-1.361-1.518-1.361h-.115c-1.375 0-2.02 1.218-2.02 2.579 0 1.361.645 2.579 2.02 2.579h.115c.816 0 1.389-.573 1.518-1.361h1.361c-.143 1.547-1.303 2.507-2.936 2.507zm6.979 0c-1.604 0-2.435-1.075-2.435-2.579v-4.727h1.361v4.441c0 1.146.473 1.719 1.447 1.719h.114c.917 0 1.805-.86 1.805-2.292v-3.868h1.361v7.162h-1.361v-1.361c-.272.788-1.045 1.505-2.292 1.505zm5.806-.144v-10.027h1.361v10.027h-1.361zm5.833 0c-1.003 0-1.576-.573-1.576-1.575v-4.413h-1.576v-1.174h1.576v-2.321h1.361v2.321h1.719v1.174h-1.719v4.198c0 .429.143.573.573.573h1.361v1.217h-1.719zm5.554.144c-1.604 0-2.435-1.075-2.435-2.579v-4.727h1.361v4.441c0 1.146.473 1.719 1.447 1.719h.115c.916 0 1.804-.86 1.804-2.292v-3.868h1.361v7.162h-1.361v-1.361c-.272.788-1.045 1.505-2.292 1.505zm5.807-.144v-7.162h1.289v1.575c.286-1.074 1.146-1.647 2.077-1.647h.645v1.318h-.573c-1.29 0-2.077.859-2.077 2.292v3.624h-1.361zm8.113.144c-1.776 0-3.381-1.232-3.381-3.739 0-2.479 1.647-3.711 3.338-3.711 1.862 0 3.037 1.29 3.037 3.152v.788h-5.014c.086 1.633 1.132 2.364 2.006 2.364h.114c.702 0 1.375-.359 1.519-1.118h1.361c-.258 1.447-1.505 2.264-2.98 2.264zm-1.934-4.585h3.567c-.057-1.246-.802-1.719-1.619-1.719h-.114c-.745 0-1.576.445-1.834 1.719z" opacity=".5"/><g clip-path="url(#d)"><path fill="#3F89A1" d="M49.424 265.091h239.438v28.651H49.424z"/><path fill="#fff" d="M87.283 288.169h18.418V269.75H87.283v18.419z"/><path fill="#DEE5E5" d="M121.349 284.56c-2.937 0-4.728-2.22-4.728-5.157s1.791-5.157 4.728-5.157c2.148 0 3.867 1.26 4.011 3.295h-1.433c-.143-1.218-1.146-2.006-2.507-2.006h-.143c-2.077 0-3.223 1.719-3.223 3.868s1.146 3.868 3.223 3.868h.143c1.361 0 2.364-.788 2.507-2.006h1.433c-.144 2.034-1.863 3.295-4.011 3.295zm8.725 0c-1.933 0-3.438-1.504-3.438-3.725 0-2.22 1.505-3.724 3.438-3.724 1.934 0 3.439 1.504 3.439 3.724 0 2.221-1.505 3.725-3.439 3.725zm-2.077-3.725c0 1.648.86 2.579 2.02 2.579h.115c1.16 0 2.02-.931 2.02-2.579 0-1.647-.86-2.578-2.02-2.578h-.115c-1.16 0-2.02.931-2.02 2.578zm7.225 3.582v-7.163h1.361v1.003a2.507 2.507 0 0 1 2.149-1.146c1.032 0 1.891.401 2.364 1.332.558-.988 1.49-1.332 2.363-1.332 1.648 0 2.579 1.003 2.579 2.507v4.799h-1.361v-4.513c0-1.003-.43-1.647-1.447-1.647h-.114c-.874 0-1.805.788-1.805 2.149v4.011h-1.361v-4.513c0-1.003-.43-1.647-1.447-1.647h-.115c-.874 0-1.805.788-1.805 2.149v4.011h-1.361zm12.899 2.865v-10.028h1.361v1.003c.358-.645 1.361-1.146 2.363-1.146 1.791 0 3.08 1.361 3.08 3.724 0 2.364-1.432 3.725-3.223 3.725-1.003 0-1.862-.501-2.22-1.146v3.868h-1.361zm1.361-6.447c0 1.719 1.002 2.579 2.02 2.579h.114c1.089 0 1.948-.86 1.948-2.579 0-1.719-.859-2.578-1.948-2.578h-.114c-1.018 0-2.02.859-2.02 2.578zm9.909 3.725c-1.791 0-3.152-1.361-3.152-3.725 0-2.363 1.361-3.724 3.152-3.724 1.217 0 1.862.501 2.292 1.146v-1.003h1.361v7.163h-1.361v-1.003c-.43.645-1.075 1.146-2.292 1.146zm-1.791-3.725c0 1.719.859 2.579 1.934 2.579h.143c1.003 0 2.006-.86 2.006-2.579 0-1.719-1.003-2.578-2.006-2.578h-.143c-1.075 0-1.934.859-1.934 2.578zm7.588 3.582v-7.163h1.361v1.003c.43-.645 1.146-1.146 2.292-1.146 1.647 0 2.579 1.003 2.579 2.507v4.799h-1.361v-4.513c0-1.003-.43-1.647-1.447-1.647h-.115c-1.017 0-1.948.788-1.948 2.149v4.011h-1.361zm7.826 2.65v-1.218h2.005c.43 0 .573-.143.573-.573v-1.003l-3.008-7.019h1.447l2.235 5.286 2.148-5.286h1.404l-2.936 7.005v1.304c0 1.003-.502 1.504-1.504 1.504h-2.364zm11.298-2.65v-10.028h1.361v3.868c.429-.645 1.146-1.146 2.292-1.146 1.647 0 2.578 1.003 2.578 2.507v4.799h-1.361v-4.513c0-1.003-.429-1.647-1.446-1.647h-.115c-1.017 0-1.948.788-1.948 2.149v4.011h-1.361zm11.046.143c-1.791 0-3.152-1.361-3.152-3.725 0-2.363 1.361-3.724 3.152-3.724 1.217 0 1.862.501 2.292 1.146v-1.003h1.361v7.163h-1.361v-1.003c-.43.645-1.075 1.146-2.292 1.146zm-1.791-3.725c0 1.719.86 2.579 1.934 2.579h.143c1.003 0 2.006-.86 2.006-2.579 0-1.719-1.003-2.578-2.006-2.578h-.143c-1.074 0-1.934.859-1.934 2.578zm7.588 3.582v-7.163h1.361v1.003c.43-.645 1.146-1.146 2.292-1.146 1.648 0 2.579 1.003 2.579 2.507v4.799h-1.361v-4.513c0-1.003-.43-1.647-1.447-1.647h-.115c-1.017 0-1.948.788-1.948 2.149v4.011h-1.361zm10.975.143c-1.791 0-3.08-1.361-3.08-3.725 0-2.363 1.432-3.724 3.223-3.724 1.003 0 1.862.501 2.22 1.146v-3.868h1.361v10.028h-1.361v-1.003c-.358.645-1.361 1.146-2.363 1.146zm-1.719-3.725c0 1.719.859 2.579 1.948 2.579h.114c1.018 0 2.02-.86 2.02-2.579 0-1.719-1.002-2.578-2.02-2.578h-.114c-1.089 0-1.948.859-1.948 2.578zm11.312 3.725c-1.002 0-2.005-.501-2.363-1.146v1.003h-1.361v-10.028h1.361v3.868c.358-.645 1.217-1.146 2.22-1.146 1.791 0 3.223 1.361 3.223 3.724 0 2.364-1.289 3.725-3.08 3.725zm-2.363-3.725c0 1.719 1.002 2.579 2.019 2.579h.115c1.089 0 1.948-.86 1.948-2.579 0-1.719-.859-2.578-1.948-2.578h-.115c-1.017 0-2.019.859-2.019 2.578zm10.166 3.725c-1.934 0-3.438-1.504-3.438-3.725 0-2.22 1.504-3.724 3.438-3.724 1.934 0 3.438 1.504 3.438 3.724 0 2.221-1.504 3.725-3.438 3.725zm-2.077-3.725c0 1.648.86 2.579 2.02 2.579h.115c1.16 0 2.02-.931 2.02-2.579 0-1.647-.86-2.578-2.02-2.578h-.115c-1.16 0-2.02.931-2.02 2.578zm10.219 3.725c-1.934 0-3.438-1.504-3.438-3.725 0-2.22 1.504-3.724 3.438-3.724 1.934 0 3.438 1.504 3.438 3.724 0 2.221-1.504 3.725-3.438 3.725zm-2.077-3.725c0 1.648.86 2.579 2.02 2.579h.115c1.16 0 2.019-.931 2.019-2.579 0-1.647-.859-2.578-2.019-2.578h-.115c-1.16 0-2.02.931-2.02 2.578zm7.225 3.582v-10.028h1.361v5.959l3.152-3.094h1.79l-2.979 2.851 3.123 4.312h-1.676l-2.421-3.381-.989.96v2.421h-1.361z"/></g><g fill="#656973" clip-path="url(#e)"><path d="M79.099 245.548a.613.613 0 1 0 0 1.227h2.046a.613.613 0 1 0 0-1.227H79.1zm-2.661 3.172c0-.339.275-.614.614-.614h6.14a.614.614 0 0 1 0 1.228h-6.14a.614.614 0 0 1-.614-.614zm2.661 1.944a.614.614 0 0 0 0 1.228h2.046a.614.614 0 0 0 0-1.228H79.1z"/><path fill-rule="evenodd" d="M70.299 244.627a5.732 5.732 0 0 0 4.278 5.544 5.73 5.73 0 1 0 6.996-6.996 5.731 5.731 0 0 0-11.274 1.452zm5.73-4.503a4.503 4.503 0 0 0-1.636 8.699l-.001-.103a5.73 5.73 0 0 1 5.73-5.731l.103.001a4.505 4.505 0 0 0-4.196-2.866zm4.093 4.093a4.503 4.503 0 1 0 0 9.005 4.503 4.503 0 0 0 0-9.005z" clip-rule="evenodd"/></g><path fill="#DEE5E5" d="M101.922 251.816c-3.08 0-4.798-2.077-4.798-5.157s1.719-5.157 4.798-5.157c2.651 0 4.069 1.547 4.212 3.438H104.2c-.215-1.089-.988-1.719-2.206-1.719h-.143c-1.648 0-2.794 1.289-2.794 3.438s1.146 3.438 2.794 3.438h.143c1.218 0 1.991-.601 2.206-1.719h1.934c-.143 1.963-1.561 3.438-4.212 3.438zm8.881 0c-2.149 0-3.581-1.575-3.581-3.724s1.432-3.725 3.581-3.725 3.582 1.576 3.582 3.725-1.433 3.724-3.582 3.724zm-1.704-3.724c0 1.404.644 2.22 1.647 2.22h.115c1.002 0 1.647-.816 1.647-2.22 0-1.404-.645-2.221-1.647-2.221h-.115c-1.003 0-1.647.817-1.647 2.221zm6.792 3.581v-7.163h1.863v1.018c.501-.817 1.332-1.161 2.134-1.161 1.003 0 1.791.416 2.192 1.232.544-.874 1.461-1.232 2.363-1.232 1.863 0 2.55 1.218 2.55 2.794v4.512h-1.862v-4.297c0-.932-.329-1.433-1.103-1.433h-.115c-.859 0-1.532.745-1.532 1.748v3.982h-1.863v-4.297c0-.932-.344-1.433-1.117-1.433h-.115c-.859 0-1.532.745-1.532 1.748v3.982h-1.863zm12.955 2.865V244.51h1.862v.932c.286-.502 1.06-1.075 2.063-1.075 2.077 0 3.18 1.791 3.18 3.725 0 1.934-1.103 3.724-3.18 3.724-1.003 0-1.777-.573-2.063-1.074v3.796h-1.862zm1.862-6.446c0 1.361.773 2.22 1.633 2.22h.115c.931 0 1.633-.859 1.633-2.22 0-1.361-.702-2.221-1.633-2.221h-.115c-.86 0-1.633.86-1.633 2.221zm9.42 3.724c-1.433 0-3.08-1.217-3.08-3.724s1.504-3.725 3.08-3.725c1.146 0 1.862.573 2.149 1.146v-1.003h1.862v7.163h-1.862v-1.003c-.315.559-1.003 1.146-2.149 1.146zm-1.218-3.739c0 1.29.731 2.235 1.619 2.235h.115c.888 0 1.633-.816 1.633-2.22 0-1.404-.745-2.221-1.633-2.221h-.115c-.888 0-1.619.932-1.619 2.206zm7.143 3.596v-7.163h1.862v1.046c.43-.716 1.232-1.189 2.163-1.189 1.719 0 2.493 1.146 2.493 2.722v4.584h-1.863v-4.369c0-.931-.415-1.433-1.131-1.433h-.115c-.859 0-1.547.817-1.547 1.82v3.982h-1.862zm7.826 2.894v-1.605h1.905c.645 0 .788-.143.788-.787v-1.061l-3.123-6.604h2.092l1.933 4.355 1.863-4.355h2.063l-3.052 6.533v1.662c0 1.217-.644 1.862-1.862 1.862h-2.607zm14.412-2.751c-2.077 0-3.18-1.79-3.18-3.724 0-1.934 1.103-3.725 3.18-3.725 1.003 0 1.776.573 2.063 1.075v-3.797h1.862v10.028h-1.862v-.931c-.287.501-1.06 1.074-2.063 1.074zm-1.318-3.739c0 1.361.702 2.235 1.633 2.235h.115c.859 0 1.633-.859 1.633-2.22 0-1.361-.774-2.221-1.633-2.221h-.115c-.931 0-1.633.846-1.633 2.206zm10.323 3.739c-2.149 0-3.582-1.575-3.582-3.724s1.433-3.725 3.582-3.725 3.581 1.576 3.581 3.725-1.432 3.724-3.581 3.724zm-1.705-3.724c0 1.404.645 2.22 1.647 2.22h.115c1.003 0 1.647-.816 1.647-2.22 0-1.404-.644-2.221-1.647-2.221h-.115c-1.002 0-1.647.817-1.647 2.221zm9.83 3.724c-1.934 0-3.438-1.432-3.438-3.724 0-2.292 1.504-3.725 3.438-3.725 1.862 0 3.08.86 3.223 2.65h-1.862c-.115-.702-.531-1.146-1.304-1.146h-.115c-1.06 0-1.518 1.003-1.518 2.221 0 1.217.458 2.22 1.518 2.22h.115c.773 0 1.189-.444 1.304-1.146h1.862c-.143 1.791-1.361 2.65-3.223 2.65zm7.292 0c-1.934 0-3.108-.931-3.108-2.507h1.905c0 .645.487 1.075 1.203 1.075h.115c.573 0 .974-.272.974-.702 0-.373-.244-.587-.759-.716l-.932-.23c-1.504-.372-2.22-1.002-2.22-2.163 0-1.289 1.089-2.206 2.879-2.206 1.863 0 2.937.931 2.937 2.436h-1.862c-.072-.616-.43-1.003-1.075-1.003h-.114c-.502 0-.931.2-.931.702 0 .386.358.587.945.73l.96.244c1.375.344 2.005 1.003 2.005 2.134 0 1.218-.988 2.206-2.922 2.206z"/><path fill="#DEE5E5" fill-opacity=".64" d="M70.932 212.288h3.009c.835 0 1.567.168 2.198.503.63.336 1.121.827 1.473 1.474.352.638.528 1.412.528 2.32 0 .909-.172 1.687-.516 2.333a3.495 3.495 0 0 1-1.46 1.462c-.623.335-1.352.503-2.186.503h-3.046v-8.595zm2.886 7.281c.59 0 1.097-.102 1.523-.307.425-.213.753-.54.982-.982.229-.442.344-1.007.344-1.695 0-1.023-.25-1.776-.75-2.259-.499-.483-1.199-.724-2.1-.724h-1.411v5.967h1.412zm9.697 1.437c-.802 0-1.514-.176-2.136-.528a3.776 3.776 0 0 1-1.462-1.535c-.343-.663-.515-1.449-.515-2.358 0-.908.172-1.694.515-2.357a3.696 3.696 0 0 1 1.462-1.523c.622-.36 1.334-.54 2.136-.54s1.514.18 2.137.54c.622.352 1.109.86 1.46 1.523.353.663.529 1.449.529 2.357 0 .909-.176 1.695-.528 2.358a3.775 3.775 0 0 1-1.461 1.535c-.623.352-1.335.528-2.137.528zm.061-1.314c.524 0 .979-.123 1.364-.368.392-.254.695-.614.908-1.081.213-.466.32-1.019.32-1.658 0-.638-.107-1.191-.32-1.657-.213-.467-.516-.823-.909-1.068-.384-.254-.839-.381-1.362-.381h-.123c-.516 0-.97.127-1.363.381-.385.245-.684.601-.897 1.068-.212.466-.319 1.019-.319 1.657 0 .639.107 1.192.32 1.658.212.467.511.827.896 1.081.393.245.847.368 1.363.368h.123zm9.402 1.314c-.851 0-1.584-.188-2.197-.565a3.722 3.722 0 0 1-1.413-1.559c-.319-.663-.478-1.429-.478-2.297 0-.867.16-1.633.478-2.296a3.717 3.717 0 0 1 1.413-1.559c.613-.377 1.346-.565 2.197-.565.68 0 1.277.127 1.793.381.516.245.925.585 1.228 1.019.303.434.475.933.516 1.498H95.04c-.082-.491-.303-.876-.663-1.154-.352-.287-.798-.43-1.338-.43h-.123a2.4 2.4 0 0 0-1.363.393c-.385.262-.68.626-.884 1.093-.205.466-.307 1.007-.307 1.62 0 .614.102 1.155.307 1.621.205.467.5.831.884 1.093a2.4 2.4 0 0 0 1.363.393h.123c.36 0 .68-.061.957-.184a1.75 1.75 0 0 0 .688-.54 1.94 1.94 0 0 0 .356-.86h1.474a3.023 3.023 0 0 1-.516 1.523 2.976 2.976 0 0 1-1.228 1.019c-.516.237-1.113.356-1.793.356zm8.461 0c-.745 0-1.367-.127-1.867-.381a2.523 2.523 0 0 1-1.105-1.08c-.237-.475-.356-1.04-.356-1.695v-5.562h1.474v5.366c0 .687.147 1.199.442 1.535.302.335.753.503 1.35.503h.123c.598 0 1.044-.168 1.338-.503.303-.336.455-.848.455-1.535v-5.366h1.473v5.562c0 .991-.282 1.764-.847 2.321-.557.557-1.383.835-2.48.835zm5.466-8.718h2.358l2.406 7.269h-.147l2.345-7.269h2.333v8.595h-1.449v-7.355l.074.012-2.382 7.343h-1.719l-2.444-7.343.086-.012v7.355h-1.461v-8.595zm11.514 0h6.41v1.314h-4.936v2.21h4.199v1.314h-4.199v2.443h5.059v1.314h-6.533v-8.595zm8.193 0h1.965l3.806 6.937-.159.135v-7.072h1.473v8.595h-1.965l-3.781-6.925.135-.111v7.036h-1.474v-8.595zm11.482 1.314h-3.009v-1.314h7.503v1.314h-3.021v7.281h-1.473v-7.281zm7.262-1.314h1.781l3.34 8.595h-1.547l-2.837-7.343h.221l-2.824 7.343h-1.535l3.401-8.595zm-1.313 5.169h4.58l.024 1.326h-4.862l.258-1.326zm8.853-3.855h-3.008v-1.314h7.503v1.314h-3.021v7.281h-1.474v-7.281zm5.876-1.314h1.473v8.595h-1.473v-8.595zm7.33 8.718c-.802 0-1.514-.176-2.136-.528a3.776 3.776 0 0 1-1.461-1.535c-.344-.663-.516-1.449-.516-2.358 0-.908.172-1.694.516-2.357a3.696 3.696 0 0 1 1.461-1.523c.622-.36 1.334-.54 2.136-.54.803 0 1.515.18 2.137.54.622.352 1.109.86 1.461 1.523.352.663.528 1.449.528 2.357 0 .909-.176 1.695-.528 2.358a3.776 3.776 0 0 1-1.461 1.535c-.622.352-1.334.528-2.137.528zm.062-1.314c.524 0 .978-.123 1.363-.368a2.46 2.46 0 0 0 .908-1.081c.213-.466.32-1.019.32-1.658 0-.638-.107-1.191-.32-1.657-.212-.467-.515-.823-.908-1.068-.385-.254-.839-.381-1.363-.381h-.123c-.516 0-.97.127-1.363.381-.385.245-.683.601-.896 1.068-.213.466-.32 1.019-.32 1.657 0 .639.107 1.192.32 1.658.213.467.511.827.896 1.081.393.245.847.368 1.363.368h.123zm5.792-7.404h1.964l3.807 6.937-.16.135v-7.072h1.474v8.595h-1.965l-3.782-6.925.135-.111v7.036h-1.473v-8.595z"/><path fill="#A4A7B0" d="M245.476 210.86a.614.614 0 0 0-1.228 0v4.502h-4.502a.614.614 0 0 0 0 1.228h4.502v4.502a.614.614 0 0 0 1.228 0v-4.502h4.502a.614.614 0 0 0 0-1.228h-4.502v-4.502z"/><rect width="198.508" height="32.744" x="61.703" y="154.906" fill="#2B2E39" rx="4.093"/><g fill="#A4A7B0" clip-path="url(#f)"><path fill-rule="evenodd" d="M75.517 175.678a3.889 3.889 0 1 0-.001-7.777 3.889 3.889 0 0 0 0 7.777zm0 1.228a5.117 5.117 0 1 0-.001-10.233 5.117 5.117 0 0 0 0 10.233z" clip-rule="evenodd"/><path d="M78.453 175.594a.615.615 0 0 1 .868-.869l2.615 2.616a.614.614 0 1 1-.868.868l-2.615-2.615zm5.6-6.363a.09.09 0 0 0-.17 0c-.164.467-.265.754-.43 1.001a2.334 2.334 0 0 1-.54.569c-.238.178-.52.294-.977.483a.098.098 0 0 0 0 .181c.458.189.739.305.977.483.21.158.393.351.54.569.165.247.266.534.43 1.001a.09.09 0 0 0 .17 0c.164-.467.264-.754.43-1.001.146-.218.329-.411.54-.569.237-.178.519-.294.976-.483a.098.098 0 0 0 0-.181c-.457-.189-.739-.305-.977-.483a2.335 2.335 0 0 1-.539-.569c-.166-.247-.266-.534-.43-1.001zm-1.599-5.944a.121.121 0 0 0-.229 0c-.22.627-.356 1.013-.578 1.345a3.135 3.135 0 0 1-.725.764c-.32.24-.698.396-1.313.649a.132.132 0 0 0 0 .244c.615.254.993.41 1.313.649.283.213.528.471.725.765.222.332.358.718.578 1.345.038.108.19.108.229 0 .22-.627.356-1.013.578-1.345.197-.294.442-.552.725-.765.32-.239.698-.395 1.312-.649a.132.132 0 0 0 0-.244c-.614-.253-.992-.409-1.312-.649a3.133 3.133 0 0 1-.725-.764c-.222-.332-.358-.718-.578-1.345z"/></g><path fill="#DEE5E5" fill-opacity=".64" d="M97.897 167.183h1.78l3.34 8.595h-1.547l-2.837-7.343h.221l-2.824 7.343h-1.535l3.402-8.595zm-1.314 5.169h4.58l.024 1.326h-4.862l.258-1.326zm10.367 3.549c-.737 0-1.359-.119-1.866-.356a2.656 2.656 0 0 1-1.155-1.02c-.262-.442-.405-.97-.429-1.584h1.473c.016.508.205.909.565 1.204.368.294.868.442 1.498.442h.123c.491 0 .872-.111 1.142-.332.278-.221.417-.495.417-.822 0-.295-.086-.528-.258-.7-.172-.18-.462-.311-.872-.393l-1.461-.295c-.736-.155-1.289-.438-1.657-.847-.361-.409-.541-.946-.541-1.609 0-.45.127-.867.381-1.252s.622-.692 1.105-.921c.483-.237 1.048-.356 1.695-.356.654 0 1.223.119 1.706.356.483.229.852.552 1.105.97.262.417.397.9.406 1.449h-1.474c-.033-.459-.204-.815-.515-1.068-.312-.262-.713-.393-1.204-.393h-.123c-.319 0-.601.053-.847.159a1.261 1.261 0 0 0-.565.418.979.979 0 0 0-.196.589c0 .303.09.54.27.712.18.172.458.295.835.369l1.326.258c.761.155 1.343.433 1.744.835.409.401.614.945.614 1.633a2.3 2.3 0 0 1-.393 1.326c-.254.384-.627.687-1.118.908-.491.213-1.068.32-1.731.32zm6.285-4.421 4.163-4.297h1.854l-6.029 6.262.012-1.965zm-1.216-4.297h1.474v8.595h-1.474v-8.595zm2.444 4.174 1.166-.957 3.696 5.378h-1.829l-3.033-4.421zm12.468 4.544c-.802 0-1.514-.176-2.136-.528a3.782 3.782 0 0 1-1.461-1.535c-.344-.663-.516-1.449-.516-2.358 0-.908.172-1.694.516-2.357a3.696 3.696 0 0 1 1.461-1.523c.622-.36 1.334-.54 2.136-.54.803 0 1.515.18 2.137.54.622.352 1.109.86 1.461 1.523.352.663.528 1.449.528 2.357 0 .909-.176 1.695-.528 2.358a3.782 3.782 0 0 1-1.461 1.535c-.622.352-1.334.528-2.137.528zm.062-1.314c.524 0 .978-.123 1.363-.369.393-.253.695-.614.908-1.08.213-.467.32-1.019.32-1.658 0-.638-.107-1.191-.32-1.657-.213-.467-.515-.823-.908-1.069-.385-.253-.839-.38-1.363-.38h-.123c-.516 0-.97.127-1.363.38-.385.246-.684.602-.896 1.069-.213.466-.32 1.019-.32 1.657 0 .639.107 1.191.32 1.658.212.466.511.827.896 1.08.393.246.847.369 1.363.369h.123zm5.792-7.404h3.867c.5 0 .95.102 1.351.307.409.196.729.474.958.835.237.352.356.749.356 1.191 0 .548-.127 1.006-.381 1.375a2.122 2.122 0 0 1-1.056.798c.467 0 .803.098 1.007.295.205.196.307.503.307.921v2.873h-1.473v-2.505c0-.328-.058-.544-.172-.651-.115-.114-.332-.172-.651-.172h-2.64v3.328h-1.473v-8.595zm3.499 3.966c.336 0 .618-.058.847-.172.238-.115.414-.274.528-.479a1.38 1.38 0 0 0 .184-.725c0-.425-.135-.744-.405-.957-.262-.213-.646-.32-1.154-.32h-2.026v2.653h2.026zm10.841 4.752c-.736 0-1.359-.119-1.866-.356a2.653 2.653 0 0 1-1.154-1.02c-.262-.442-.405-.97-.43-1.584h1.473c.017.508.205.909.565 1.204.369.294.868.442 1.498.442h.123c.491 0 .872-.111 1.142-.332.278-.221.417-.495.417-.822 0-.295-.085-.528-.257-.7-.172-.18-.463-.311-.872-.393l-1.461-.295c-.737-.155-1.29-.438-1.658-.847-.36-.409-.54-.946-.54-1.609 0-.45.127-.867.38-1.252.254-.385.623-.692 1.105-.921.483-.237 1.048-.356 1.695-.356.655 0 1.224.119 1.707.356.483.229.851.552 1.105.97.262.417.397.9.405 1.449h-1.473c-.033-.459-.205-.815-.516-1.068-.311-.262-.712-.393-1.203-.393h-.123c-.32 0-.602.053-.848.159a1.258 1.258 0 0 0-.564.418.98.98 0 0 0-.197.589c0 .303.09.54.27.712.18.172.459.295.835.369l1.326.258c.762.155 1.343.433 1.744.835.409.401.614.945.614 1.633a2.3 2.3 0 0 1-.393 1.326c-.254.384-.626.687-1.117.908-.492.213-1.069.32-1.732.32zm5.07-8.718h6.409v1.313h-4.936v2.211h4.2v1.313h-4.2v2.444h5.059v1.314h-6.532v-8.595zm10.599 0h1.781l3.339 8.595h-1.547l-2.836-7.343h.221l-2.824 7.343h-1.535l3.401-8.595zm-1.314 5.169h4.58l.025 1.326h-4.862l.257-1.326zm7.688-5.169h3.868c.499 0 .949.102 1.35.307.41.196.729.474.958.835.238.352.356.749.356 1.191 0 .548-.127 1.006-.38 1.375a2.13 2.13 0 0 1-1.056.798c.466 0 .802.098 1.006.295.205.196.307.503.307.921v2.873h-1.473v-2.505c0-.328-.057-.544-.172-.651-.115-.114-.331-.172-.651-.172h-2.64v3.328h-1.473v-8.595zm3.499 3.966c.336 0 .618-.058.848-.172.237-.115.413-.274.528-.479a1.39 1.39 0 0 0 .184-.725c0-.425-.135-.744-.405-.957-.262-.213-.647-.32-1.155-.32h-2.026v2.653h2.026zm8.603 4.752c-.851 0-1.584-.189-2.198-.565a3.735 3.735 0 0 1-1.412-1.56c-.319-.663-.478-1.428-.478-2.296 0-.867.159-1.633.478-2.296a3.727 3.727 0 0 1 1.412-1.559c.614-.377 1.347-.565 2.198-.565.68 0 1.277.127 1.793.38.516.246.925.586 1.228 1.02.303.433.475.933.516 1.498h-1.474c-.082-.492-.303-.876-.663-1.155-.352-.286-.798-.429-1.338-.429h-.123c-.516 0-.97.131-1.363.393a2.502 2.502 0 0 0-.884 1.092c-.205.467-.307 1.007-.307 1.621 0 .614.102 1.154.307 1.621.205.467.499.831.884 1.093.393.262.847.393 1.363.393h.123c.36 0 .679-.062.958-.184.286-.131.515-.311.687-.541.18-.237.299-.524.356-.859h1.474a3.02 3.02 0 0 1-.516 1.522 2.972 2.972 0 0 1-1.228 1.02c-.516.237-1.113.356-1.793.356zm5.207-8.718h1.473v3.634h4.015v-3.634h1.474v8.595h-1.474v-3.635h-4.015v3.635h-1.473v-8.595z"/><path fill="#fff" d="M232.559 115.86c-.858 0-1.598-.161-2.221-.483a5.293 5.293 0 0 1-1.641-1.384l.821-.804c.375.525.81.917 1.303 1.174.504.258 1.1.386 1.786.386.708 0 1.282-.16 1.722-.482.439-.322.659-.767.659-1.336 0-.439-.102-.799-.305-1.078a2.205 2.205 0 0 0-.805-.692 6.659 6.659 0 0 0-1.078-.482c-.397-.14-.794-.285-1.19-.435a5.533 5.533 0 0 1-1.079-.595 2.714 2.714 0 0 1-.804-.901c-.193-.365-.29-.831-.29-1.4 0-.601.145-1.115.435-1.544.289-.43.686-.757 1.19-.982.505-.236 1.078-.354 1.722-.354.719 0 1.357.14 1.915.418.568.279 1.04.655 1.416 1.127l-.805.804a3.808 3.808 0 0 0-1.126-.933c-.408-.215-.885-.322-1.432-.322-.644 0-1.159.15-1.545.451-.386.3-.579.718-.579 1.255 0 .418.097.756.29 1.013.203.258.472.472.804.644.333.172.692.327 1.078.467.397.128.794.273 1.191.434.397.161.756.365 1.078.611.332.247.6.564.804.95.204.375.306.858.306 1.448 0 .954-.327 1.7-.981 2.236-.644.526-1.524.789-2.639.789zm-11.902-5.117v-.997h3.218c.729 0 1.287-.183 1.673-.547.386-.376.579-.875.579-1.497 0-.601-.193-1.089-.579-1.464-.386-.386-.944-.579-1.673-.579h-3.218v-1.03h3.218c.718 0 1.335.134 1.85.402.515.258.906.617 1.174 1.078.279.462.419.987.419 1.577 0 .611-.14 1.148-.419 1.609a2.727 2.727 0 0 1-1.174 1.078c-.515.247-1.132.37-1.85.37h-3.218zm-.757 4.956v-11.07h1.175v11.07H219.9zm6.694 0-4.151-5.117 1.142-.37 4.521 5.487h-1.512zm-16.168 0v-11.07h1.174v11.07h-1.174zm.772 0v-1.078h6.516v1.078h-6.516zm0-5.149v-1.046h6.002v1.046h-6.002zm0-4.843v-1.078h6.42v1.078h-6.42zm-7.865 9.992v-10.764h1.191v10.764h-1.191zm-3.894-9.992v-1.078h8.979v1.078h-8.979zm-7.725 5.036v-.997h3.218c.73 0 1.287-.183 1.674-.547.386-.376.579-.875.579-1.497 0-.601-.193-1.089-.579-1.464-.387-.386-.944-.579-1.674-.579h-3.218v-1.03h3.218c.719 0 1.336.134 1.85.402.515.258.907.617 1.175 1.078.279.462.418.987.418 1.577 0 .611-.139 1.148-.418 1.609a2.73 2.73 0 0 1-1.175 1.078c-.514.247-1.131.37-1.85.37h-3.218zm-.756 4.956v-11.07h1.175v11.07h-1.175zm6.693 0-4.151-5.117 1.143-.37 4.521 5.487h-1.513zm-18.497 0 4.538-11.07h.885l4.489 11.07h-1.272l-3.909-9.783h.466l-3.942 9.783h-1.255zm2.076-2.88v-1.046h5.792v1.046h-5.792zm-7.775 3.041c-.805 0-1.523-.177-2.156-.531a4.073 4.073 0 0 1-1.48-1.481 4.169 4.169 0 0 1-.548-2.123v-7.096h1.191v7.031c0 .622.129 1.164.386 1.625a2.66 2.66 0 0 0 1.062 1.062c.461.247.976.37 1.545.37.568 0 1.072-.123 1.512-.37a2.678 2.678 0 0 0 1.062-1.046c.268-.461.402-1.003.402-1.625v-7.047h1.175v7.112c0 .783-.182 1.485-.547 2.107a3.92 3.92 0 0 1-1.48 1.481c-.622.354-1.33.531-2.124.531zm-12.139 0a5.494 5.494 0 0 1-2.189-.435 5.676 5.676 0 0 1-1.769-1.223 5.676 5.676 0 0 1-1.175-1.818 5.959 5.959 0 0 1-.418-2.236c0-.805.139-1.55.418-2.237a5.663 5.663 0 0 1 1.158-1.802 5.507 5.507 0 0 1 1.754-1.206 5.49 5.49 0 0 1 2.188-.435c.783 0 1.508.145 2.173.435a5.27 5.27 0 0 1 1.753 1.206 5.481 5.481 0 0 1 1.175 1.818c.289.687.434 1.432.434 2.237 0 .794-.139 1.539-.418 2.236a5.488 5.488 0 0 1-1.175 1.802 5.723 5.723 0 0 1-1.753 1.223 5.335 5.335 0 0 1-2.156.435zm5.534.627-5.39-5.374.757-.756 5.39 5.374-.757.756zm-5.567-1.77c.837 0 1.577-.198 2.221-.595a4.291 4.291 0 0 0 1.528-1.625c.376-.687.563-1.47.563-2.349 0-.655-.107-1.255-.321-1.802a4.35 4.35 0 0 0-.901-1.448 3.966 3.966 0 0 0-1.368-.966 4.33 4.33 0 0 0-1.722-.338c-.836 0-1.576.199-2.22.596a4.154 4.154 0 0 0-1.528 1.609c-.365.686-.548 1.469-.548 2.349 0 .654.108 1.26.322 1.818.215.558.51 1.046.885 1.464.386.408.842.724 1.368.949a4.307 4.307 0 0 0 1.721.338zm-16.142.982v-1.094h3.25c.869 0 1.636-.188 2.301-.563a4.168 4.168 0 0 0 1.561-1.577c.375-.676.563-1.448.563-2.317 0-.869-.188-1.636-.563-2.301a4.051 4.051 0 0 0-1.561-1.561c-.665-.386-1.432-.579-2.301-.579h-3.218v-1.078h3.25c.805 0 1.545.139 2.221.418a5.156 5.156 0 0 1 1.786 1.159 5.08 5.08 0 0 1 1.19 1.754c.279.665.419 1.399.419 2.204 0 .783-.14 1.512-.419 2.188a5.374 5.374 0 0 1-1.174 1.77c-.504.493-1.1.88-1.786 1.158a5.722 5.722 0 0 1-2.204.419h-3.315zm-.724 0v-11.07h1.175v11.07h-1.175zm-11.804 0 4.538-11.07h.885l4.489 11.07h-1.272l-3.909-9.783h.466l-3.942 9.783h-1.255zm2.076-2.88v-1.046h5.792v1.046h-5.792zm-10.73 2.88v-11.07h1.175v11.07h-1.175zm.772 0v-1.078h6.517v1.078h-6.517zm0-5.149v-1.046h6.002v1.046h-6.002zm0-4.843v-1.078h6.42v1.078h-6.42zm-12.038 9.992v-11.07h1.175v11.07h-1.175zm7.257 0v-11.07h1.174v11.07h-1.174zm-6.484-5.181v-1.078h6.806v1.078h-6.806zM84.017 99.942s.037.005.054.005a.31.31 0 0 0 .178-.059.303.303 0 0 0 .125-.199l1.324-8.293a.305.305 0 0 0-.245-.349l-.104-.02c-.054-.013-.108-.021-.162-.03l-.265-.041a.305.305 0 0 0-.353.245l-1.594 8.243a.292.292 0 0 0 .05.233.32.32 0 0 0 .199.128l.793.141v-.004zm1.566 19.376-.793-.141a.304.304 0 0 0-.232.054.3.3 0 0 0-.125.199l-1.324 8.293a.305.305 0 0 0 .25.349l.111.021c.05.008.1.021.154.029l.265.041s.034.004.054.004a.302.302 0 0 0 .3-.249l1.593-8.243a.293.293 0 0 0-.05-.233.323.323 0 0 0-.199-.128l-.004.004zm17.183-9.593-8.243-1.593a.293.293 0 0 0-.233.049.327.327 0 0 0-.128.2l-.141.792a.309.309 0 0 0 .257.357l8.293 1.324h.05a.31.31 0 0 0 .303-.249l.091-.527a.309.309 0 0 0-.245-.353h-.004zm-28.42 1.267c.062 0 .12-.021.174-.054a.327.327 0 0 0 .13-.2l.14-.792a.313.313 0 0 0-.054-.233.3.3 0 0 0-.203-.124l-8.293-1.324a.305.305 0 0 0-.349.244l-.02.108-.03.154-.041.266a.304.304 0 0 0 .245.352l8.243 1.594s.037.005.058.005v.004zm23.826-13.353a.309.309 0 0 0 .07-.424l-.149-.22-.095-.133-.062-.087a.3.3 0 0 0-.42-.074l-6.956 4.702a.3.3 0 0 0-.129.2.29.29 0 0 0 .05.232l.46.66c.046.066.12.112.2.125.016 0 .033.004.05.004a.308.308 0 0 0 .178-.058l6.8-4.927h.003zm-19.791 19.878a.293.293 0 0 0-.05-.233l-.46-.66a.302.302 0 0 0-.2-.124.304.304 0 0 0-.232.054l-6.8 4.927a.313.313 0 0 0-.074.423l.058.087c.03.046.058.092.092.133l.157.216a.305.305 0 0 0 .25.129c.058 0 .12-.017.17-.054l6.956-4.703a.299.299 0 0 0 .129-.199l.004.004zm14.179-1.806a.302.302 0 0 0-.2-.129.29.29 0 0 0-.232.05l-.66.461a.309.309 0 0 0-.07.432l4.927 6.799a.304.304 0 0 0 .423.074l.083-.058.137-.095.216-.158a.304.304 0 0 0 .075-.423l-4.703-6.957.004.004zm-16.31-12.303a.299.299 0 0 0 .2.129c.017 0 .037.004.054.004a.322.322 0 0 0 .174-.054l.66-.461a.31.31 0 0 0 .07-.431l-4.926-6.8a.31.31 0 0 0-.424-.074l-.44.307a.305.305 0 0 0-.074.423l4.703 6.957h.004zm16.4-10.074a.31.31 0 0 0-.09-.42l-.225-.149a4.26 4.26 0 0 0-.141-.087l-.087-.054a.31.31 0 0 0-.42.087l-4.67 6.978c-.045.066-.061.153-.045.232a.32.32 0 0 0 .133.195l.676.436c.05.033.108.05.167.05.02 0 .045 0 .066-.008a.315.315 0 0 0 .195-.137l4.437-7.127.004.004zm-10.949 25.665-.676-.436a.31.31 0 0 0-.428.095l-4.437 7.127a.31.31 0 0 0 .091.419l.453.291a.305.305 0 0 0 .415-.091l4.67-6.978c.045-.066.062-.153.045-.232a.319.319 0 0 0-.133-.195zm12.569-6.824a.302.302 0 0 0-.232-.046.32.32 0 0 0-.195.133l-.436.676a.31.31 0 0 0 .095.428l7.127 4.437c.05.033.108.046.162.046.1 0 .199-.05.258-.137l.29-.453a.31.31 0 0 0-.087-.419l-6.978-4.669-.004.004zm-19.732-5.23c.05.033.112.05.17.05.02 0 .041 0 .062-.009a.32.32 0 0 0 .195-.132l.436-.677a.308.308 0 0 0-.096-.428l-7.127-4.437a.31.31 0 0 0-.419.092l-.29.452a.309.309 0 0 0 .087.419l6.977 4.67h.005zm18.512-2.387a.287.287 0 0 0-.041.232l.17.789a.312.312 0 0 0 .137.195c.05.033.108.046.166.046.025 0 .046 0 .07-.009l8.178-1.905a.308.308 0 0 0 .232-.361l-.021-.104a1.45 1.45 0 0 0-.033-.157l-.037-.154-.025-.108a.304.304 0 0 0-.357-.232l-8.235 1.635a.306.306 0 0 0-.195.133h-.009zm-17.293 10.003a.29.29 0 0 0 .041-.232l-.17-.789a.312.312 0 0 0-.37-.236l-8.177 1.905a.309.309 0 0 0-.232.361l.112.523a.31.31 0 0 0 .299.241c.02 0 .041 0 .058-.005l8.235-1.635a.305.305 0 0 0 .195-.133h.009zm13.781 3.84a.306.306 0 0 0-.365-.236l-.789.17a.307.307 0 0 0-.195.137.306.306 0 0 0-.041.232l1.9 8.177a.306.306 0 0 0 .3.237c.02 0 .041 0 .062-.008l.527-.112a.306.306 0 0 0 .232-.357l-1.635-8.236.004-.004zm-10.264-17.687c.016.079.062.15.132.195.05.034.108.05.17.05.021 0 .042 0 .067-.008l.789-.17a.31.31 0 0 0 .237-.37l-1.902-8.177a.309.309 0 0 0-.36-.232l-.262.054-.162.037-.1.025a.305.305 0 0 0-.232.357l1.635 8.235-.012.004z"/></g><path fill="#181C1F" fill-opacity=".95" d="M272.489 76.937h356.087V486.11H272.489z"/><g clip-path="url(#g)"><mask id="h" width="359" height="396" x="270.489" y="90.285" fill="#000" maskUnits="userSpaceOnUse"><path fill="#fff" d="M270.489 90.285h359v396h-359z"/><path d="M272.489 100.471a8.186 8.186 0 0 1 8.186-8.186h347.901v393.826H272.489v-385.64z"/></mask><path fill="#fff" d="M294.489 143.729h26.604v-26.605h-26.604v26.605z"/><path fill="#DEE5E5" d="M341.392 138.852c-4.75 0-7.496-3.354-7.496-8.104 0-4.75 2.746-8.104 7.496-8.104 3.827 0 6.258 2.229 6.483 5.313h-2.701c-.293-1.801-1.666-2.904-3.669-2.904h-.225c-2.882 0-4.683 2.318-4.683 5.695 0 3.377 1.801 5.695 4.683 5.695h.225c2.003 0 3.376-1.08 3.669-2.904h2.701c-.225 3.13-2.656 5.313-6.483 5.313zm13.62 0c-3.22 0-5.516-2.431-5.516-5.853 0-3.422 2.296-5.853 5.516-5.853 3.241 0 5.537 2.431 5.537 5.853 0 3.422-2.296 5.853-5.537 5.853zm-2.927-5.853c0 2.364 1.171 3.737 2.837 3.737h.18c1.688 0 2.836-1.373 2.836-3.737s-1.148-3.737-2.836-3.737h-.18c-1.666 0-2.837 1.373-2.837 3.737zm10.743 5.628v-11.256h2.589v1.599c.743-1.171 1.981-1.824 3.377-1.824 1.598 0 2.881.653 3.557 2.004.855-1.441 2.318-2.004 3.714-2.004 2.791 0 4.03 1.779 4.03 4.187v7.294h-2.589v-6.888c0-1.531-.586-2.409-1.959-2.409h-.18c-1.373 0-2.611 1.193-2.611 3.016v6.281h-2.589v-6.888c0-1.531-.585-2.409-1.958-2.409h-.18c-1.374 0-2.612 1.193-2.612 3.016v6.281h-2.589zm20.088 4.502v-15.758h2.589v1.509c.518-.878 1.868-1.734 3.444-1.734 3.084 0 4.93 2.522 4.93 5.853 0 3.332-1.936 5.853-5.02 5.853-1.576 0-2.836-.855-3.354-1.733v6.01h-2.589zm2.589-10.13c0 2.386 1.373 3.737 2.836 3.737h.18c1.576 0 2.769-1.351 2.769-3.737s-1.193-3.737-2.769-3.737h-.18c-1.463 0-2.836 1.351-2.836 3.737zm14.917 5.853c-2.499 0-4.885-2.003-4.885-5.853 0-3.849 2.273-5.853 4.885-5.853 1.846 0 2.926.856 3.466 1.801v-1.576h2.589v11.256h-2.589v-1.576c-.562.946-1.62 1.801-3.466 1.801zm-2.297-5.875c0 2.318 1.239 3.759 2.747 3.759h.202c1.486 0 2.814-1.328 2.814-3.737s-1.328-3.737-2.814-3.737h-.202c-1.508 0-2.747 1.419-2.747 3.715zm11.293 5.65v-11.256h2.589v1.621c.675-1.08 1.891-1.846 3.489-1.846 2.656 0 3.984 1.711 3.984 4.142v7.339h-2.588v-6.956c0-1.508-.676-2.409-2.004-2.409h-.18c-1.441 0-2.701 1.261-2.701 3.084v6.281h-2.589zm12.073 4.39v-2.274h3.061c.878 0 1.103-.225 1.103-1.081v-1.598l-4.839-10.693h2.858l3.22 7.474 3.129-7.474h2.814l-4.728 10.581v2.363c0 1.779-.923 2.702-2.679 2.702h-3.939zm17.589-4.39v-15.758h2.589v6.123c.675-1.08 1.891-1.846 3.489-1.846 2.656 0 3.984 1.711 3.984 4.142v7.339h-2.588v-6.956c0-1.508-.676-2.409-2.004-2.409h-.18c-1.441 0-2.701 1.261-2.701 3.084v6.281h-2.589zm17.132.225c-2.499 0-4.885-2.003-4.885-5.853 0-3.849 2.273-5.853 4.885-5.853 1.846 0 2.926.856 3.466 1.801v-1.576h2.589v11.256h-2.589v-1.576c-.562.946-1.62 1.801-3.466 1.801zm-2.297-5.875c0 2.318 1.239 3.759 2.747 3.759h.202c1.486 0 2.814-1.328 2.814-3.737s-1.328-3.737-2.814-3.737h-.202c-1.508 0-2.747 1.419-2.747 3.715zm11.293 5.65v-11.256h2.589v1.621c.675-1.08 1.891-1.846 3.489-1.846 2.656 0 3.984 1.711 3.984 4.142v7.339h-2.588v-6.956c0-1.508-.676-2.409-2.004-2.409h-.18c-1.441 0-2.701 1.261-2.701 3.084v6.281h-2.589zm17.154.225c-3.061 0-4.93-2.521-4.93-5.853 0-3.331 1.959-5.853 5.043-5.853 1.575 0 2.836.856 3.331 1.734v-6.011h2.589v15.758h-2.589v-1.508c-.495.878-1.868 1.733-3.444 1.733zm-2.341-5.875c0 2.386 1.216 3.759 2.791 3.759h.18c1.464 0 2.814-1.351 2.814-3.737s-1.35-3.737-2.814-3.737h-.18c-1.575 0-2.791 1.351-2.791 3.715zm17.348 5.875c-1.576 0-2.927-.855-3.444-1.733v1.508h-2.589v-15.758h2.589v6.011c.517-.878 1.778-1.734 3.354-1.734 3.084 0 5.02 2.522 5.02 5.853 0 3.332-1.846 5.853-4.93 5.853zm-3.444-5.853c0 2.386 1.373 3.737 2.836 3.737h.18c1.576 0 2.769-1.373 2.769-3.759 0-2.364-1.193-3.715-2.769-3.715h-.18c-1.463 0-2.836 1.351-2.836 3.737zm15.524 5.853c-3.219 0-5.515-2.431-5.515-5.853 0-3.422 2.296-5.853 5.515-5.853 3.242 0 5.538 2.431 5.538 5.853 0 3.422-2.296 5.853-5.538 5.853zm-2.926-5.853c0 2.364 1.17 3.737 2.836 3.737h.18c1.688 0 2.837-1.373 2.837-3.737s-1.149-3.737-2.837-3.737h-.18c-1.666 0-2.836 1.373-2.836 3.737zm15.605 5.853c-3.219 0-5.515-2.431-5.515-5.853 0-3.422 2.296-5.853 5.515-5.853 3.242 0 5.538 2.431 5.538 5.853 0 3.422-2.296 5.853-5.538 5.853zm-2.926-5.853c0 2.364 1.17 3.737 2.836 3.737h.18c1.689 0 2.837-1.373 2.837-3.737s-1.148-3.737-2.837-3.737h-.18c-1.666 0-2.836 1.373-2.836 3.737zm10.743 5.628v-15.758h2.589v8.982l4.457-4.48h3.264l-4.479 4.48 4.704 6.776h-3.106l-3.422-4.952-1.418 1.395v3.557h-2.589z"/><rect width="317.715" height="10.232" x="292.954" y="176.038" fill="#262930" rx="5.116"/><rect width="317.715" height="10.232" x="292.954" y="200.596" fill="#262930" rx="5.116"/><rect width="237.391" height="10.232" x="292.954" y="225.154" fill="#262930" rx="5.116"/><rect width="317.715" height="10.232" x="292.954" y="264.037" fill="#262930" rx="5.116"/><rect width="317.715" height="10.232" x="292.954" y="288.594" fill="#262930" rx="5.116"/><rect width="317.715" height="10.232" x="292.954" y="313.152" fill="#262930" rx="5.116"/><rect width="317.715" height="10.232" x="292.954" y="337.71" fill="#262930" rx="5.116"/><rect width="237.391" height="10.232" x="292.954" y="362.267" fill="#262930" rx="5.116"/><rect width="317.715" height="10.232" x="292.954" y="401.15" fill="#262930" rx="5.116"/><rect width="317.715" height="10.232" x="292.954" y="425.708" fill="#262930" rx="5.116"/><rect width="237.391" height="10.232" x="292.954" y="450.266" fill="#262930" rx="5.116"/></g><path fill="#374151" d="M271.466 100.471a9.209 9.209 0 0 1 9.209-9.209h347.901v2.047H280.675a7.163 7.163 0 0 0-7.163 7.162h-2.046zm357.11 385.64H272.489h356.087zm-357.11 0v-385.64a9.209 9.209 0 0 1 9.209-9.209v2.047a7.163 7.163 0 0 0-7.163 7.162v385.64h-2.046zm357.11-393.826v393.826V92.285z" mask="url(#h)"/></g><path fill="#FDA599" d="m452.914 175.275 9.266 16.05 1.9-6.638.06-.226 7.309-4.219-18.535-4.967z"/><rect width="104" height="33" x="470.225" y="187.883" fill="#FDA599" rx="4"/><path fill="#181C1F" d="M486.966 210.883v-12.6h9.18v1.62h-7.38v3.69h6.3v1.62h-6.3v4.05h7.56v1.62h-9.36zm11.472 0v-9h1.71v1.26c.54-.81 1.44-1.44 2.88-1.44 2.07 0 3.24 1.26 3.24 3.15v6.03h-1.71v-5.67c0-1.26-.54-2.07-1.818-2.07h-.144c-1.278 0-2.448.99-2.448 2.7v5.04h-1.71zm13.915 3.96c-2.52 0-3.996-1.17-4.176-2.79h1.71c.18.9 1.152 1.35 2.376 1.35h.18c1.53 0 2.61-.81 2.61-2.7v-1.26c-.45.72-1.35 1.44-2.7 1.44-2.07 0-3.996-1.44-3.996-4.59s1.872-4.59 3.996-4.59c1.35 0 2.34.72 2.7 1.44v-1.26h1.71v9c0 2.25-1.62 3.96-4.41 3.96zm-2.286-8.55c0 2.25 1.08 3.15 2.358 3.15h.144c1.242 0 2.484-1.17 2.484-3.15s-1.152-3.15-2.394-3.15h-.144c-1.278 0-2.448.9-2.448 3.15zm9.394 4.59v-9h1.71v9h-1.71zm-.09-10.62v-1.98h1.89v1.98h-1.89zm4.502 10.62v-9h1.71v1.26c.54-.81 1.44-1.44 2.88-1.44 2.07 0 3.24 1.26 3.24 3.15v6.03h-1.71v-5.67c0-1.26-.54-2.07-1.818-2.07h-.144c-1.278 0-2.448.99-2.448 2.7v5.04h-1.71zm14.15.18c-2.232 0-4.248-1.548-4.248-4.698 0-3.114 2.07-4.662 4.194-4.662 2.34 0 3.816 1.62 3.816 3.96v.99h-6.3c.108 2.052 1.422 2.97 2.52 2.97h.144c.882 0 1.728-.45 1.908-1.404h1.71c-.324 1.818-1.89 2.844-3.744 2.844zm-2.43-5.76h4.482c-.072-1.566-1.008-2.16-2.034-2.16h-.144c-.936 0-1.98.558-2.304 2.16zm12.115 5.76c-2.232 0-4.248-1.548-4.248-4.698 0-3.114 2.07-4.662 4.194-4.662 2.34 0 3.816 1.62 3.816 3.96v.99h-6.3c.108 2.052 1.422 2.97 2.52 2.97h.144c.882 0 1.728-.45 1.908-1.404h1.71c-.324 1.818-1.89 2.844-3.744 2.844zm-2.43-5.76h4.482c-.072-1.566-1.008-2.16-2.034-2.16h-.144c-.936 0-1.98.558-2.304 2.16zm8.408 5.58v-9h1.62v1.98c.36-1.35 1.44-2.07 2.61-2.07h.81v1.656h-.72c-1.62 0-2.61 1.08-2.61 2.88v4.554h-1.71z"/><path fill="#F4E28D" d="m314.824 258.457 9.266 16.05 1.9-6.638.061-.226 7.308-4.219-18.535-4.967z"/><rect width="162" height="33" x="332.135" y="271.065" fill="#F4E28D" rx="4"/><path fill="#181C1F" d="M352.234 294.065v-10.98h-4.5v-1.62h10.8v1.62h-4.5v10.98h-1.8zm9.498.18c-2.232 0-4.248-1.548-4.248-4.698 0-3.114 2.07-4.662 4.194-4.662 2.34 0 3.816 1.62 3.816 3.96v.99h-6.3c.108 2.052 1.422 2.97 2.52 2.97h.144c.882 0 1.728-.45 1.908-1.404h1.71c-.324 1.818-1.89 2.844-3.744 2.844zm-2.43-5.76h4.482c-.072-1.566-1.008-2.16-2.034-2.16h-.144c-.936 0-1.98.558-2.304 2.16zm12.187 5.76c-2.772 0-4.32-2.034-4.32-4.68s1.548-4.68 4.32-4.68c2.052 0 3.51 1.206 3.69 3.15h-1.71c-.162-.99-.882-1.71-1.908-1.71h-.144c-1.728 0-2.538 1.53-2.538 3.24 0 1.71.81 3.24 2.538 3.24h.144c1.026 0 1.746-.72 1.908-1.71h1.71c-.18 1.944-1.638 3.15-3.69 3.15zm5.8-.18v-12.6h1.71v4.86c.54-.81 1.44-1.44 2.88-1.44 2.07 0 3.24 1.26 3.24 3.15v6.03h-1.71v-5.67c0-1.26-.54-2.07-1.818-2.07h-.144c-1.278 0-2.448.99-2.448 2.7v5.04h-1.71zm10.442 0v-9h1.71v1.26c.54-.81 1.44-1.44 2.88-1.44 2.07 0 3.24 1.26 3.24 3.15v6.03h-1.71v-5.67c0-1.26-.54-2.07-1.818-2.07h-.144c-1.278 0-2.448.99-2.448 2.7v5.04h-1.71zm10.441 0v-9h1.71v9h-1.71zm-.09-10.62v-1.98h1.89v1.98h-1.89zm8.282 10.8c-2.772 0-4.32-2.034-4.32-4.68s1.548-4.68 4.32-4.68c2.052 0 3.51 1.206 3.69 3.15h-1.71c-.162-.99-.882-1.71-1.908-1.71h-.144c-1.728 0-2.538 1.53-2.538 3.24 0 1.71.81 3.24 2.538 3.24h.144c1.026 0 1.746-.72 1.908-1.71h1.71c-.18 1.944-1.638 3.15-3.69 3.15zm9.238 0c-2.25 0-3.96-1.71-3.96-4.68 0-2.97 1.71-4.68 3.96-4.68 1.53 0 2.34.63 2.88 1.44v-1.26h1.71v9h-1.71v-1.26c-.54.81-1.35 1.44-2.88 1.44zm-2.25-4.68c0 2.16 1.08 3.24 2.43 3.24h.18c1.26 0 2.52-1.08 2.52-3.24s-1.26-3.24-2.52-3.24h-.18c-1.35 0-2.43 1.08-2.43 3.24zm9.535 4.5v-12.6h1.71v12.6h-1.71zm10.607 0-2.79-9h1.8l1.98 7.11 1.98-7.11h1.8l2.07 7.11 1.89-7.11h1.8l-2.79 9h-1.89l-1.98-7.038-1.98 7.038h-1.89zm12.245 0v-9h1.62v1.98c.36-1.35 1.44-2.07 2.61-2.07h.81v1.656h-.72c-1.62 0-2.61 1.08-2.61 2.88v4.554h-1.71zm6.767 0v-9h1.71v9h-1.71zm-.09-10.62v-1.98h1.89v1.98h-1.89zm7.418 10.62c-1.26 0-1.98-.72-1.98-1.98v-5.544h-1.98v-1.476h1.98v-2.916h1.71v2.916h2.16v1.476h-2.16v5.274c0 .54.18.72.72.72h1.71v1.53h-2.16zm7.613.18c-2.232 0-4.248-1.548-4.248-4.698 0-3.114 2.07-4.662 4.194-4.662 2.34 0 3.816 1.62 3.816 3.96v.99h-6.3c.108 2.052 1.422 2.97 2.52 2.97h.144c.882 0 1.728-.45 1.908-1.404h1.71c-.324 1.818-1.89 2.844-3.744 2.844zm-2.43-5.76h4.482c-.072-1.566-1.008-2.16-2.034-2.16h-.144c-.936 0-1.98.558-2.304 2.16zm8.407 5.58v-9h1.62v1.98c.36-1.35 1.44-2.07 2.61-2.07h.81v1.656h-.72c-1.62 0-2.61 1.08-2.61 2.88v4.554h-1.71z"/><path fill="#91EABF" d="m513.569 353.088 9.266 16.049 1.9-6.637.061-.226 7.308-4.22-18.535-4.966z"/><rect width="116" height="33" x="530.88" y="365.696" fill="#91EABF" rx="4"/><path fill="#181C1F" d="M547.978 388.696v-12.6h2.988l3.762 10.908 3.69-10.908h2.97v12.6h-1.8v-11.07l-3.708 11.07h-2.304l-3.798-11.016v11.016h-1.8zm19.709.18c-2.25 0-3.96-1.71-3.96-4.68 0-2.97 1.71-4.68 3.96-4.68 1.53 0 2.34.63 2.88 1.44v-1.26h1.71v9h-1.71v-1.26c-.54.81-1.35 1.44-2.88 1.44zm-2.25-4.68c0 2.16 1.08 3.24 2.43 3.24h.18c1.26 0 2.52-1.08 2.52-3.24s-1.26-3.24-2.52-3.24h-.18c-1.35 0-2.43 1.08-2.43 3.24zm9.535 4.5v-9h1.62v1.98c.36-1.35 1.44-2.07 2.61-2.07h.81v1.656h-.72c-1.62 0-2.61 1.08-2.61 2.88v4.554h-1.71zm6.768 0v-12.6h1.71v7.488l3.96-3.888h2.25l-3.744 3.582 3.924 5.418h-2.106l-3.042-4.248-1.242 1.206v3.042h-1.71zm12.813.18c-2.232 0-4.248-1.548-4.248-4.698 0-3.114 2.07-4.662 4.194-4.662 2.34 0 3.816 1.62 3.816 3.96v.99h-6.3c.108 2.052 1.422 2.97 2.52 2.97h.144c.882 0 1.728-.45 1.908-1.404h1.71c-.324 1.818-1.89 2.844-3.744 2.844zm-2.43-5.76h4.482c-.072-1.566-1.008-2.16-2.034-2.16h-.144c-.936 0-1.98.558-2.304 2.16zm11.183 5.58c-1.26 0-1.98-.72-1.98-1.98v-5.544h-1.98v-1.476h1.98v-2.916h1.71v2.916h2.16v1.476h-2.16v5.274c0 .54.18.72.72.72h1.71v1.53h-2.16zm4.01 0v-9h1.71v9h-1.71zm-.09-10.62v-1.98h1.89v1.98h-1.89zm4.502 10.62v-9h1.71v1.26c.54-.81 1.44-1.44 2.88-1.44 2.07 0 3.24 1.26 3.24 3.15v6.03h-1.71v-5.67c0-1.26-.54-2.07-1.818-2.07h-.144c-1.278 0-2.448.99-2.448 2.7v5.04h-1.71zm13.915 3.96c-2.52 0-3.996-1.17-4.176-2.79h1.71c.18.9 1.152 1.35 2.376 1.35h.18c1.53 0 2.61-.81 2.61-2.7v-1.26c-.45.72-1.35 1.44-2.7 1.44-2.07 0-3.996-1.44-3.996-4.59s1.872-4.59 3.996-4.59c1.35 0 2.34.72 2.7 1.44v-1.26h1.71v9c0 2.25-1.62 3.96-4.41 3.96zm-2.286-8.55c0 2.25 1.08 3.15 2.358 3.15h.144c1.242 0 2.484-1.17 2.484-3.15s-1.152-3.15-2.394-3.15h-.144c-1.278 0-2.448.9-2.448 3.15z"/><path fill="#BBDDE5" d="m314.824 397.119 9.266 16.049 1.9-6.638.061-.226 7.308-4.219-18.535-4.966z"/><rect width="97" height="33" x="332.135" y="409.726" fill="#BBDDE5" rx="4"/><path fill="#181C1F" d="M352.782 432.906c-2.97 0-4.86-1.44-4.95-4.23h1.8c0 1.71 1.332 2.61 3.222 2.61h.18c1.692 0 2.61-.846 2.61-1.89 0-1.026-.648-1.62-1.98-1.89l-2.016-.414c-2.016-.414-3.186-1.548-3.186-3.546 0-1.98 1.782-3.6 4.5-3.6 2.79 0 4.572 1.53 4.662 3.96h-1.8c-.09-1.44-1.242-2.34-2.772-2.34h-.18c-1.566 0-2.61.846-2.61 1.962 0 .972.666 1.548 1.728 1.764l2.016.396c2.178.432 3.438 1.584 3.438 3.636 0 2.214-1.872 3.582-4.662 3.582zm9.989 0c-2.016 0-3.06-1.35-3.06-3.24v-5.94h1.71v5.58c0 1.44.594 2.16 1.818 2.16h.144c1.152 0 2.268-1.08 2.268-2.88v-4.86h1.71v9h-1.71v-1.71c-.342.99-1.314 1.89-2.88 1.89zm7.296 3.42v-12.6h1.71v1.26c.45-.81 1.71-1.44 2.97-1.44 2.25 0 3.87 1.71 3.87 4.68 0 2.97-1.8 4.68-4.05 4.68-1.26 0-2.34-.63-2.79-1.44v4.86h-1.71zm1.71-8.1c0 2.16 1.26 3.24 2.538 3.24h.144c1.368 0 2.448-1.08 2.448-3.24s-1.08-3.24-2.448-3.24h-.144c-1.278 0-2.538 1.08-2.538 3.24zm9.012 8.1v-12.6h1.71v1.26c.45-.81 1.71-1.44 2.97-1.44 2.25 0 3.87 1.71 3.87 4.68 0 2.97-1.8 4.68-4.05 4.68-1.26 0-2.34-.63-2.79-1.44v4.86h-1.71zm1.71-8.1c0 2.16 1.26 3.24 2.538 3.24h.144c1.368 0 2.448-1.08 2.448-3.24s-1.08-3.24-2.448-3.24h-.144c-1.278 0-2.538 1.08-2.538 3.24zm12.775 4.68c-2.43 0-4.32-1.89-4.32-4.68s1.89-4.68 4.32-4.68c2.43 0 4.32 1.89 4.32 4.68s-1.89 4.68-4.32 4.68zm-2.61-4.68c0 2.07 1.08 3.24 2.538 3.24h.144c1.458 0 2.538-1.17 2.538-3.24 0-2.07-1.08-3.24-2.538-3.24h-.144c-1.458 0-2.538 1.17-2.538 3.24zm9.079 4.5v-9h1.62v1.98c.36-1.35 1.44-2.07 2.61-2.07h.81v1.656h-.72c-1.62 0-2.61 1.08-2.61 2.88v4.554h-1.71zm9.683 0c-1.26 0-1.98-.72-1.98-1.98v-5.544h-1.98v-1.476h1.98v-2.916h1.71v2.916h2.16v1.476h-2.16v5.274c0 .54.18.72.72.72h1.71v1.53h-2.16z"/><defs><clipPath id="b"><rect width="579.152" height="435.899" x="49.424" y="50.212" fill="#fff" rx="4.093"/></clipPath><clipPath id="c"><path fill="#fff" d="M49.424 76.937H272.49v409.174H49.424z"/></clipPath><clipPath id="d"><path fill="#fff" d="M49.424 265.091h239.438v28.651H49.424z"/></clipPath><clipPath id="e"><path fill="#fff" d="M69.889 238.487h16.372v16.372H69.889z"/></clipPath><clipPath id="f"><path fill="#fff" d="M69.889 163.092h16.372v16.372H69.889z"/></clipPath><clipPath id="g"><path fill="#fff" d="M272.489 100.471a8.186 8.186 0 0 1 8.186-8.186h347.901v393.826H272.489v-385.64z"/></clipPath><linearGradient id="a" x1="265.002" x2="265.002" y1="506.911" y2="1135" gradientUnits="userSpaceOnUse"><stop stop-color="#FEBC2E" stop-opacity=".7"/><stop offset="1" stop-color="#FEBC2E" stop-opacity="0"/></linearGradient></defs></svg>