<svg xmlns="http://www.w3.org/2000/svg" width="22" height="22" fill="none" id="svg-2117117430_1703"><path fill-rule="evenodd" clip-rule="evenodd" d="M11.946 6.154c-.323-.871-1.569-.872-1.892 0-.38 1.026-.57 1.526-.868 1.948a4.3 4.3 0 0 1-1.02 1.02c-.435.31-.96.521-2.018.935a1.01 1.01 0 0 0 0 1.886c1.057.414 1.583.625 2.018.935.4.285.744.63 1.02 1.02.297.422.488.922.868 1.948.323.872 1.569.872 1.892 0 .38-1.026.57-1.526.868-1.947.276-.39.62-.736 1.02-1.021.435-.31.96-.521 2.018-.935a1.01 1.01 0 0 0 0-1.886c-1.057-.414-1.583-.625-2.018-.935a4.3 4.3 0 0 1-1.02-1.02c-.297-.422-.489-.922-.868-1.948ZM11 8.143c.147.321.306.613.5.887a5.907 5.907 0 0 0 1.4 1.403c.306.218.636.396 1.008.567-.372.17-.702.35-1.008.567a5.908 5.908 0 0 0-1.4 1.403 5.433 5.433 0 0 0-.5.887 5.44 5.44 0 0 0-.5-.887 5.91 5.91 0 0 0-1.4-1.403A6.055 6.055 0 0 0 8.092 11c.372-.17.702-.35 1.008-.567a5.91 5.91 0 0 0 1.4-1.403c.194-.274.353-.566.5-.887ZM11 0c.502 0 .908.407.908.908V2.27a.908.908 0 1 1-1.816 0V.908A.91.91 0 0 1 11 0Zm0 18.822c.502 0 .908.406.908.908v1.362a.908.908 0 1 1-1.816 0V19.73c0-.502.407-.908.908-.908ZM22 11a.908.908 0 0 1-.908.909H19.73a.908.908 0 1 1 0-1.816h1.362c.502 0 .908.406.908.908ZM3.178 11a.908.908 0 0 1-.908.909H.908a.908.908 0 1 1 0-1.816H2.27c.501 0 .908.406.908.908Zm15.6-7.778a.908.908 0 0 1 0 1.284l-.963.963a.908.908 0 0 1-1.284-1.284l.963-.963a.908.908 0 0 1 1.284 0ZM5.469 16.531a.908.908 0 0 1 0 1.284l-.963.963a.908.908 0 1 1-1.284-1.284l.963-.963a.908.908 0 0 1 1.284 0Zm13.309 2.247a.908.908 0 0 1-1.284 0l-.963-.963a.908.908 0 1 1 1.284-1.284l.963.963a.908.908 0 0 1 0 1.284ZM5.47 5.47a.908.908 0 0 1-1.285 0l-.963-.964a.908.908 0 0 1 1.284-1.284l.963.963a.908.908 0 0 1 0 1.285Z" fill="#14171C"></path></svg>