<svg xmlns="http://www.w3.org/2000/svg" width="24" height="24" fill="none" id="svg1619858187_1551"><g clip-path="url(#svg1619858187_1551_a)" fill="#181C1F"><path d="M20.145.6a.9.9 0 0 1 .9.9v1.725h1.725a.9.9 0 1 1 0 1.8h-1.726V6.75a.9.9 0 1 1-1.8 0V5.025H17.52a.9.9 0 0 1 0-1.8h1.724V1.5a.9.9 0 0 1 .9-.9Z"></path><path fill-rule="evenodd" clip-rule="evenodd" d="M12 1.35a.9.9 0 0 1 .85.601l1.057 3.009c.54 1.536.763 2.152 1.109 2.668a5.1 5.1 0 0 0 1.175 1.24c.497.372 1.1.628 2.606 1.25l2.546 1.05a.9.9 0 0 1 0 1.664l-2.546 1.05c-1.505.621-2.11.877-2.606 1.25a5.1 5.1 0 0 0-1.175 1.24c-.346.515-.57 1.132-1.11 2.668l-1.057 3.008a.9.9 0 0 1-1.698 0l-1.057-3.008c-.54-1.536-.764-2.153-1.11-2.668a5.099 5.099 0 0 0-1.175-1.24c-.496-.373-1.1-.629-2.605-1.25l-2.547-1.05a.9.9 0 0 1 0-1.664l2.547-1.05c1.505-.622 2.109-.878 2.605-1.25a5.1 5.1 0 0 0 1.176-1.24c.345-.516.569-1.132 1.109-2.668l1.056-3.01a.9.9 0 0 1 .85-.601Zm0 3.614-.25.714c-.484 1.376-.782 2.224-1.27 2.952a6.9 6.9 0 0 1-1.59 1.677c-.702.527-1.532.87-2.881 1.425L5.36 12l.649.267c1.349.556 2.179.899 2.88 1.425a6.9 6.9 0 0 1 1.59 1.678c.489.728.787 1.575 1.27 2.952l.251.714.251-.714c.484-1.377.781-2.224 1.27-2.952a6.9 6.9 0 0 1 1.59-1.678c.701-.526 1.532-.868 2.88-1.425l.65-.267-.65-.268c-1.348-.556-2.178-.898-2.88-1.425a6.9 6.9 0 0 1-1.59-1.677c-.489-.728-.786-1.576-1.27-2.952l-.25-.714Z"></path><path d="M4.125 16.35a.9.9 0 0 1 .9.9v1.725H6.75a.9.9 0 1 1 0 1.8H5.025V22.5a.9.9 0 0 1-1.8 0v-1.725H1.5a.9.9 0 0 1 0-1.8h1.725V17.25a.9.9 0 0 1 .9-.9Z"></path></g><defs><clipPath id="svg1619858187_1551_a"><path fill="#fff" d="M0 0h24v24H0z"></path></clipPath></defs></svg>