<svg xmlns="http://www.w3.org/2000/svg" width="218" height="70" fill="none"><g clip-path="url(#a)"><path fill="#181C1F" fill-rule="evenodd" d="M58.472 25.922a.396.396 0 0 0 .016.547l18.528 18.528c.15.15.39.159.547.016a13.48 13.48 0 0 0 4.422-9.998c0-7.464-6.05-13.515-13.515-13.515a13.48 13.48 0 0 0-9.998 4.422zm-2.316 3.516a.398.398 0 0 0 .083.445l17.363 17.363a.398.398 0 0 0 .445.083c.4-.182.791-.383 1.17-.602a.394.394 0 0 0 .076-.621L57.38 28.19a.394.394 0 0 0-.621.076c-.22.38-.42.77-.602 1.171zm-1.053 4.972a.399.399 0 0 1-.117-.308c.036-.538.103-1.066.2-1.584a.388.388 0 0 1 .66-.196l15.316 15.316a.388.388 0 0 1-.195.661c-.518.097-1.046.164-1.584.2a.398.398 0 0 1-.308-.117L55.103 34.41zm.94 3.771c-.28-.279-.73-.038-.628.343a13.54 13.54 0 0 0 9.546 9.545c.381.103.622-.348.343-.627l-9.262-9.26zm53.39-9.244c.969 0 1.754-.788 1.754-1.76s-.785-1.76-1.754-1.76-1.754.788-1.754 1.76.785 1.76 1.754 1.76zM94.41 44.29V25.418h3.117v16.11h8.404v2.762H94.41zm22.185-7.701v7.7h-3.016V30.915h2.978v2.293l.038-.025c.302-.718.79-1.318 1.463-1.799.673-.49 1.531-.735 2.575-.735.925 0 1.766.207 2.524.621.757.405 1.362 1 1.817 1.786.454.785.681 1.748.681 2.888v8.347h-3.016v-7.93c0-1.013-.269-1.78-.808-2.304-.529-.532-1.24-.798-2.132-.798a3.44 3.44 0 0 0-1.565.354c-.471.237-.845.6-1.123 1.09-.278.49-.416 1.118-.416 1.887zm27.308 7.473c.69.295 1.481.443 2.372.443.732 0 1.359-.093 1.88-.279.522-.194.951-.451 1.288-.772a4 4 0 0 0 .82-1.052h.051v1.888h2.889v-9.21c0-.65-.126-1.245-.378-1.785a4.03 4.03 0 0 0-1.098-1.406c-.471-.397-1.043-.701-1.717-.912-.672-.22-1.43-.33-2.271-.33-1.152 0-2.149.199-2.991.596-.833.388-1.484.912-1.956 1.57a4.11 4.11 0 0 0-.769 2.23h2.915a1.93 1.93 0 0 1 .404-1.04c.235-.303.555-.54.959-.708.403-.178.87-.266 1.4-.266.53 0 .98.088 1.351.266.378.177.668.418.87.722.202.304.303.658.303 1.063v.102c0 .304-.105.528-.315.671-.202.144-.547.25-1.035.317-.48.067-1.136.148-1.969.24-.681.076-1.337.19-1.968.342a6.052 6.052 0 0 0-1.691.672 3.307 3.307 0 0 0-1.161 1.178c-.286.49-.429 1.118-.429 1.887 0 .886.202 1.63.605 2.229a3.79 3.79 0 0 0 1.641 1.343zm4.884-2.242c-.488.261-1.09.392-1.805.392-.723 0-1.3-.152-1.729-.456-.429-.312-.643-.739-.643-1.279 0-.422.117-.764.353-1.026.244-.261.564-.468.959-.62a5.522 5.522 0 0 1 1.287-.317c.337-.05.665-.101.984-.152.32-.06.619-.114.896-.165a8.52 8.52 0 0 0 .707-.177c.202-.06.349-.123.442-.19v1.495c0 .523-.122 1.004-.366 1.444-.236.43-.598.78-1.085 1.05zm7.048 2.47V30.915h2.902v2.203h.038c.244-.76.627-1.338 1.148-1.735.53-.405 1.224-.608 2.082-.608.211 0 .4.009.568.026.177.008.324.016.442.025v2.723a11.18 11.18 0 0 0-1.464-.101c-.496 0-.95.114-1.363.342-.412.228-.74.578-.984 1.05-.236.465-.353 1.052-.353 1.761v7.689h-3.016zm-47.916 0V30.915h3.016V44.29h-3.016zm22.752-.596c.968.6 2.116.9 3.445.9 1.027 0 1.961-.186 2.802-.558a5.925 5.925 0 0 0 2.12-1.558 4.97 4.97 0 0 0 1.098-2.305h-2.839a2.73 2.73 0 0 1-.619 1.051 2.885 2.885 0 0 1-1.047.697c-.421.169-.909.253-1.464.253-.749 0-1.392-.169-1.931-.506a3.24 3.24 0 0 1-1.211-1.406c-.252-.552-.39-1.177-.413-1.875h9.701v-.81c0-1.03-.152-1.968-.455-2.812a6.505 6.505 0 0 0-1.287-2.204 5.639 5.639 0 0 0-2.006-1.444c-.774-.338-1.637-.507-2.587-.507-1.237 0-2.331.3-3.281.9-.951.6-1.695 1.427-2.234 2.482-.538 1.056-.808 2.263-.808 3.623 0 1.35.261 2.554.783 3.61a5.976 5.976 0 0 0 2.233 2.47zm6.348-8.853a3.092 3.092 0 0 0-1.186-1.33c-.514-.313-1.119-.469-1.818-.469-.689 0-1.291.157-1.804.469-.505.312-.9.756-1.186 1.33a4.153 4.153 0 0 0-.387 1.418h6.768a4.153 4.153 0 0 0-.387-1.418z" clip-rule="evenodd"/></g><defs><clipPath id="a"><path fill="#fff" d="M54.985 21.5h108.03v27H54.985z"/></clipPath></defs></svg>