<svg xmlns="http://www.w3.org/2000/svg" width="46" height="46" fill="none" id="svg1807958017_3546"><g clip-path="url(#svg1807958017_3546_a)"><rect x=".257" y=".887" width="44.887" height="44.887" rx="9.023" fill="#fff"></rect><path fill-rule="evenodd" clip-rule="evenodd" d="m24.31 7.504-.66 8.132a8.27 8.27 0 0 0-.945-.054c-.401 0-.794.027-1.177.09l-.374-3.942a.216.216 0 0 1 .213-.231h.67l-.322-3.986c-.009-.125.09-.232.205-.232h2.185c.125 0 .223.107.205.232v-.009Zm-5.51.402c-.036-.116-.16-.188-.277-.143l-2.05.749a.209.209 0 0 0-.116.285l1.667 3.638-.633.232c-.116.044-.17.178-.116.285l1.703 3.575a7.645 7.645 0 0 1 1.988-.758L18.81 7.906h-.01Zm-5.03 2.264 4.717 6.652a7.728 7.728 0 0 0-1.605 1.39l-2.827-2.781a.215.215 0 0 1 .01-.312l.516-.428-2.808-2.845a.209.209 0 0 1 .018-.312l1.667-1.4a.206.206 0 0 1 .303.036h.009Zm-3.959 3.852c-.098-.071-.24-.036-.303.071l-1.088 1.89a.21.21 0 0 0 .09.295l3.62 1.712-.34.58a.205.205 0 0 0 .099.293l3.602 1.65a7.55 7.55 0 0 1 1.034-1.855l-6.714-4.636Zm-2.666 5.136c.018-.125.143-.197.259-.17l7.89 2.06a7.807 7.807 0 0 0-.338 2.104l-3.95-.32a.206.206 0 0 1-.187-.25l.116-.66-3.986-.375c-.125-.009-.205-.125-.187-.25l.374-2.148.01.009Zm-.294 5.331c-.125.01-.205.125-.187.25l.383 2.149c.018.125.143.196.259.17l3.87-1.008.115.66c.018.124.143.196.259.169l3.816-1.052a7.728 7.728 0 0 1-.401-2.087l-8.123.75h.01Zm1.266 5.653a.21.21 0 0 1 .09-.294l7.364-3.495a7.55 7.55 0 0 0 1.097 1.828l-3.228 2.3a.21.21 0 0 1-.303-.062l-.339-.589-3.29 2.274c-.098.071-.24.035-.303-.072l-1.097-1.89h.01Zm8.925-1.533-5.733 5.804a.209.209 0 0 0 .018.312l1.676 1.4c.098.08.232.062.303-.036l2.319-3.263.517.437a.21.21 0 0 0 .312-.045l2.247-3.263a8.015 8.015 0 0 1-1.65-1.346h-.009Zm-1.132 9.317a.209.209 0 0 1-.116-.285l3.397-7.418a7.436 7.436 0 0 0 2.006.695l-.998 3.834a.21.21 0 0 1-.277.142l-.633-.231-1.061 3.86c-.036.116-.16.188-.276.143l-2.051-.749.009.009Zm5.849-6.91-.66 8.132c-.009.124.09.231.205.231h2.184a.204.204 0 0 0 .206-.231l-.321-3.986h.668a.216.216 0 0 0 .214-.232l-.374-3.94a7.371 7.371 0 0 1-1.177.088 6.64 6.64 0 0 1-.945-.062Zm7.864-22.014a.206.206 0 0 0-.116-.285l-2.05-.75a.214.214 0 0 0-.277.144l-1.061 3.86-.633-.232c-.116-.044-.241.027-.277.143l-.998 3.834a7.974 7.974 0 0 1 2.006.696l3.406-7.41ZM34.1 12.24l-5.733 5.804a7.78 7.78 0 0 0-1.65-1.346l2.247-3.263a.218.218 0 0 1 .312-.045l.517.437 2.318-3.264a.207.207 0 0 1 .303-.035l1.677 1.4c.098.08.098.223.018.312h-.01Zm3.102 4.565a.204.204 0 0 0 .09-.294l-1.097-1.89a.22.22 0 0 0-.303-.072l-3.29 2.274-.339-.58c-.063-.107-.205-.143-.303-.062l-3.228 2.3a7.9 7.9 0 0 1 1.097 1.828l7.365-3.495.008-.01Zm1.16 2.96.374 2.149a.215.215 0 0 1-.187.25l-8.123.757a7.659 7.659 0 0 0-.401-2.086l3.816-1.052a.205.205 0 0 1 .259.17l.116.659 3.87-1.008c.115-.026.24.045.258.17l.018-.01Zm-.366 7.89a.21.21 0 0 0 .259-.169l.374-2.148a.216.216 0 0 0-.187-.25l-3.986-.375.116-.66a.215.215 0 0 0-.187-.25l-3.95-.32a7.81 7.81 0 0 1-.339 2.104l7.891 2.06.009.009Zm-2.104 4.905a.22.22 0 0 1-.303.07l-6.714-4.635a7.55 7.55 0 0 0 1.034-1.855l3.602 1.65c.116.053.16.187.098.294l-.339.58 3.62 1.711a.21.21 0 0 1 .09.294l-1.088 1.89Zm-8.979-2.738 4.717 6.652a.207.207 0 0 0 .303.035l1.667-1.4a.216.216 0 0 0 .018-.311l-2.808-2.845.517-.428a.209.209 0 0 0 .009-.312l-2.827-2.782a7.699 7.699 0 0 1-1.605 1.391h.01Zm-.044 9.059c-.116.045-.241-.027-.277-.143l-2.157-7.864a7.645 7.645 0 0 0 1.988-.758l1.703 3.576c.053.116 0 .25-.116.285l-.633.232 1.667 3.638c.054.116 0 .24-.116.285l-2.05.749h-.01Z" fill="#000"></path></g><defs><clipPath id="svg1807958017_3546_a"><path fill="#fff" transform="translate(.2 .83)" d="M0 0h45v45H0z"></path></clipPath></defs></svg>