<svg xmlns="http://www.w3.org/2000/svg" width="218" height="70" fill="none"><path fill="#181C1F" d="M137.874 46.604c1.494.111 2.98.238 4.466.371V20.75h-4.466v25.854zm-71.838-9.728-5.819-16.118h-4.243v28.491c1.486-.208 2.973-.416 4.466-.609V33.138l5.172 14.856c1.628-.186 3.255-.364 4.89-.535V20.75h-4.466v16.126zM74.79 47.05c4.117-.372 8.249-.684 12.403-.922v-4.406c-2.653.156-5.299.334-7.937.542v-6.658c1.732-.015 4.013-.067 6.034-.045v-4.4c-1.612-.007-4.206.023-6.034.045v-6.011h7.937v-4.437H74.79V47.05zm15.271-21.855h4.675v20.577c1.486-.06 2.972-.104 4.466-.142V25.194h4.674v-4.436H90.061v4.437zm16.676 20.31h4.466v-10.16h6.057v-4.399h-6.057v-5.752h8.004v-4.436h-12.47v24.746zm55.281-24.755h-4.904l-3.233 7.499-2.905-7.498h-4.831l5.195 13.39-5.67 13.14c1.568.155 3.128.319 4.696.49l3.3-7.64 3.262 8.42c1.702.215 3.396.446 5.09.691h.008l-5.819-15.004 5.811-13.488zm-35.491 0h-4.467v24.977c4.058.141 8.101.342 12.128.61v-4.4a372.38 372.38 0 0 0-7.661-.43V20.75z"/></svg>