<svg xmlns="http://www.w3.org/2000/svg" width="218" height="70" fill="none" id="svg638216753_2150"><path d="M85.594 26.633c-1.142 0-2.154.597-2.77 1.52l-4.188 6.253a.833.833 0 0 1-.692.38c-.47 0-.852-.406-.852-.907 0-.187.052-.361.142-.504l3.536-5.637a3.82 3.82 0 0 0 .17-3.718c-.59-1.178-1.742-1.912-2.996-1.912H59.247v3.62h16.15c0 1-.762 1.811-1.7 1.811h-14.45c0 1.288.252 2.512.71 3.622h12.04c0 .998-.762 1.81-1.698 1.81h-9.354c1.551 2.199 4.021 3.622 6.803 3.622h5.097c.47 0 .853.406.853.906 0 .502-.382.908-.852.908h-5.098l-5.68 9.057h11.206c4.704 0 8.698-3.26 10.092-7.774l1.916-6.184a11.379 11.379 0 0 1 3.239-5.103c-.599-1.062-1.685-1.77-2.927-1.77Zm0 2.491c-.351 0-.635-.303-.635-.677 0-.374.284-.678.635-.678.353 0 .636.305.636.678.004.373-.283.677-.636.677Zm24.28 9.449c.687.94 1.03 2.013 1.03 3.222 0 1.742-.573 3.122-1.714 4.14-1.142 1.018-2.738 1.529-4.78 1.529H95.3v-20.84h8.805c1.987 0 3.544.484 4.668 1.455 1.123.97 1.684 2.286 1.684 3.95 0 1.228-.301 2.246-.904 3.058-.601.812-1.405 1.375-2.409 1.691a4.506 4.506 0 0 1 2.73 1.795Zm-9.81-3.518h3.119c.782 0 1.381-.182 1.796-.55.417-.365.629-.908.629-1.617 0-.713-.208-1.255-.629-1.632-.415-.377-1.014-.563-1.796-.563h-3.119v4.362Zm5.366 7.73c.435-.384.654-.942.654-1.675 0-.734-.227-1.308-.684-1.724-.453-.416-1.082-.623-1.882-.623h-3.454v4.6h3.51c.8.004 1.417-.19 1.856-.578Zm12.997-16.16v20.839h-4.763v-20.84h4.763Zm13.432 20.839-4.068-7.869h-1.142v7.869h-4.767v-20.84h7.995c1.543 0 2.856.285 3.941.86 1.086.574 1.902 1.363 2.441 2.362.538.997.806 2.11.806 3.34 0 1.386-.368 2.621-1.1 3.712-.734 1.089-1.816 1.861-3.247 2.313l4.515 8.253h-5.374Zm-5.213-11.462h2.951c.875 0 1.529-.225 1.964-.682.435-.455.655-1.097.655-1.928 0-.794-.22-1.415-.655-1.871-.435-.455-1.089-.682-1.964-.682h-2.951v5.163Zm26.138-8.075a9.04 9.04 0 0 1 3.581 3.666c.844 1.572 1.269 3.386 1.269 5.447 0 2.04-.425 3.851-1.269 5.433a8.975 8.975 0 0 1-3.596 3.68c-1.551.871-3.347 1.307-5.392 1.307h-7.329V26.62h7.329c2.065.004 3.865.44 5.407 1.306Zm-1.506 13.57c1.004-1.05 1.506-2.532 1.506-4.453 0-1.918-.502-3.415-1.506-4.48-1.004-1.07-2.405-1.605-4.205-1.605h-2.257V43.07h2.257c1.8 0 3.201-.527 4.205-1.573Z" fill="#181C1F"></path></svg>