<svg xmlns="http://www.w3.org/2000/svg" viewBox="0 0 950 89" width="950" height="89" preserveAspectRatio="xMidYMid slice" style="width: 100%; height: 100%; transform: translate3d(0px, 0px, 0px);"><defs><clipPath id="__lottie_element_352"><rect width="950" height="89" x="0" y="0"></rect></clipPath><clipPath id="__lottie_element_354"><path d="M0,0 L100000,0 L100000,100000 L0,100000z"></path></clipPath><clipPath id="__lottie_element_358"><path d="M0,0 L100000,0 L100000,100000 L0,100000z"></path></clipPath><clipPath id="__lottie_element_362"><path d="M0,0 L100000,0 L100000,100000 L0,100000z"></path></clipPath><clipPath id="__lottie_element_366"><path d="M0,0 L100000,0 L100000,100000 L0,100000z"></path></clipPath><clipPath id="__lottie_element_370"><path d="M0,0 L100000,0 L100000,100000 L0,100000z"></path></clipPath><mask id="__lottie_element_373" mask-type="alpha"><g id="precomp_9BkWgw29k1uUeysbn1qwp18" clip-path="url(#__lottie_element_374)" transform="matrix(1,0,0,1,0,0)" opacity="1" style="display: block;"><g id="G90-y6ocITL-kNhYwKPur19" transform="matrix(1,0,0,1,50000,50000)" opacity="1" style="display: block;"><g opacity="1" transform="matrix(1,0,0,1,0,0)"><path fill="rgb(0,0,0)" fill-opacity="1" d=" M98.31500244140625,-21.969999313354492 C98.31500244140625,-25.28139877319336 95.62640380859375,-27.969999313354492 92.31500244140625,-27.969999313354492 C92.31500244140625,-27.969999313354492 -92.31500244140625,-27.969999313354492 -92.31500244140625,-27.969999313354492 C-95.62640380859375,-27.969999313354492 -98.31500244140625,-25.28139877319336 -98.31500244140625,-21.969999313354492 C-98.31500244140625,-21.969999313354492 -98.31500244140625,21.969999313354492 -98.31500244140625,21.969999313354492 C-98.31500244140625,25.28139877319336 -95.62640380859375,27.969999313354492 -92.31500244140625,27.969999313354492 C-92.31500244140625,27.969999313354492 92.31500244140625,27.969999313354492 92.31500244140625,27.969999313354492 C95.62640380859375,27.969999313354492 98.31500244140625,25.28139877319336 98.31500244140625,21.969999313354492 C98.31500244140625,21.969999313354492 98.31500244140625,-21.969999313354492 98.31500244140625,-21.969999313354492z"></path></g></g></g></mask><clipPath id="__lottie_element_374"><path d="M0,0 L100000,0 L100000,100000 L0,100000z"></path></clipPath><clipPath id="__lottie_element_381"><path d="M0,0 L100000,0 L100000,100000 L0,100000z"></path></clipPath><clipPath id="__lottie_element_385"><path d="M0,0 L100000,0 L100000,100000 L0,100000z"></path></clipPath><clipPath id="__lottie_element_389"><path d="M0,0 L100000,0 L100000,100000 L0,100000z"></path></clipPath><clipPath id="__lottie_element_393"><path d="M0,0 L100000,0 L100000,100000 L0,100000z"></path></clipPath><clipPath id="__lottie_element_424"><path d="M0,0 L100000,0 L100000,100000 L0,100000z"></path></clipPath><clipPath id="__lottie_element_431"><path d="M0,0 L100000,0 L100000,100000 L0,100000z"></path></clipPath><clipPath id="__lottie_element_435"><path d="M0,0 L100000,0 L100000,100000 L0,100000z"></path></clipPath><clipPath id="__lottie_element_439"><path d="M0,0 L100000,0 L100000,100000 L0,100000z"></path></clipPath><mask id="__lottie_element_442" mask-type="alpha"><g id="precomp_n2WJYCF-2iIFgtSSsAdtq27" clip-path="url(#__lottie_element_443)" transform="matrix(1,0,0,1,0,0)" opacity="1" style="display: block;"><g id="CzcVrjQBiA1B6eyGy_tLM28" transform="matrix(1,0,0,1,50000,50000)" opacity="1" style="display: block;"><g opacity="1" transform="matrix(1,0,0,1,0,0)"><path fill="rgb(0,0,0)" fill-opacity="1" d=" M18,-19.5 C18,-19.5 -18,-19.5 -18,-19.5 C-18,-19.5 -18,19.5 -18,19.5 C-18,19.5 18,19.5 18,19.5 C18,19.5 18,-19.5 18,-19.5z"></path></g></g></g></mask><clipPath id="__lottie_element_443"><path d="M0,0 L100000,0 L100000,100000 L0,100000z"></path></clipPath><clipPath id="__lottie_element_450"><path d="M0,0 L100000,0 L100000,100000 L0,100000z"></path></clipPath><clipPath id="__lottie_element_457"><path d="M0,0 L100000,0 L100000,100000 L0,100000z"></path></clipPath><clipPath id="__lottie_element_461"><path d="M0,0 L100000,0 L100000,100000 L0,100000z"></path></clipPath><clipPath id="__lottie_element_465"><path d="M0,0 L100000,0 L100000,100000 L0,100000z"></path></clipPath><clipPath id="__lottie_element_469"><path d="M0,0 L100000,0 L100000,100000 L0,100000z"></path></clipPath><clipPath id="__lottie_element_473"><path d="M0,0 L100000,0 L100000,100000 L0,100000z"></path></clipPath><clipPath id="__lottie_element_477"><path d="M0,0 L100000,0 L100000,100000 L0,100000z"></path></clipPath></defs><g clip-path="url(#__lottie_element_352)"><g id="precomp_Nx_R8MUFWoUZJJFsQAWfx0" clip-path="url(#__lottie_element_354)" transform="matrix(1,0,0,1,-49525,-49955.5)" opacity="1" style="display: block;"><g id="precomp_Nq4cZtkKwndNEgCOOdwd234" clip-path="url(#__lottie_element_477)" transform="matrix(1,0,0,1,0,0)" opacity="1" style="display: block;"></g><g id="precomp_Yn3OGZB-CrxhFwnPTTgd533" clip-path="url(#__lottie_element_473)" transform="matrix(1,0,0,1,0,0)" opacity="1" style="display: block;"></g><g id="precomp_lYMVF4-mzFgrlXCR0t85k1" clip-path="url(#__lottie_element_358)" transform="matrix(1,0,0,1,146.3984375,-0.1015625)" opacity="1" style="display: block;"><g id="precomp_IZW5Sv_S_1SoGfiuJZL5J32" clip-path="url(#__lottie_element_469)" transform="matrix(1,0,0,1,0,0)" opacity="1" style="display: block;"></g><g id="precomp_JcTSzhbGa0ZYU_xWInJFG31" clip-path="url(#__lottie_element_465)" transform="matrix(1,0,0,1,0,0)" opacity="1" style="display: block;"></g><g id="precomp_5tnjRdxKR2o1flAaCqZI322" clip-path="url(#__lottie_element_431)" transform="matrix(1,0,0,1,-94.98828125,-24.8984375)" opacity="1" style="display: block;"><g id="precomp_LQx1zF2DsunSsYbqcpUNx30" clip-path="url(#__lottie_element_461)" transform="matrix(1,0,0,1,0,0)" opacity="1" style="display: block;"></g><g id="precomp_oN1wPdRPkaYUvChRbx06h29" clip-path="url(#__lottie_element_457)" transform="matrix(1,0,0,1,0,0)" opacity="1" style="display: block;"></g><g id="precomp_QKHEzWyHmoCEy7ZjHvrMK24" clip-path="url(#__lottie_element_439)" transform="matrix(1,0,0,1,0,0)" opacity="1" style="display: block;"><g mask="url(#__lottie_element_442)" style="display: block;"><g id="precomp_QKHEzWyHmoCEy7ZjHvrMK25" clip-path="url(#__lottie_element_450)" transform="matrix(1,0,0,1,0,0)" opacity="1"><g id="_b1aW4OwpJUYOfmCCatHm26" transform="matrix(1.333299994468689,0,0,1.333299994468689,49982,49980.5)" opacity="1" style="display: block;"><g opacity="1" transform="matrix(1,0,0,1,0,0)"><g opacity="1" transform="matrix(1,0,0,1,0,0)"><g opacity="1" transform="matrix(1,0,0,1,0,0)"><path fill="rgb(145,234,191)" fill-opacity="1" d=" M0,8.630000114440918 C0,8.630000114440918 11.779999732971191,29.030000686645508 11.779999732971191,29.030000686645508 C11.779999732971191,29.030000686645508 14.199999809265137,20.59000015258789 14.199999809265137,20.59000015258789 C14.199999809265137,20.59000015258789 14.270000457763672,20.299999237060547 14.270000457763672,20.299999237060547 C14.270000457763672,20.299999237060547 23.559999465942383,14.9399995803833 23.559999465942383,14.9399995803833 C23.559999465942383,14.9399995803833 0,8.630000114440918 0,8.630000114440918z"></path></g></g></g></g></g></g></g><g id="precomp_eW7Lc0iJTeG348FvNb0Ce23" clip-path="url(#__lottie_element_435)" transform="matrix(1,0,0,1,0,0)" opacity="1" style="display: block;"></g></g><g id="precomp_UMF0Ptt-twLDnrvpFhVOj2" clip-path="url(#__lottie_element_362)" transform="matrix(1,0,0,1,14.671875,16.44140625)" opacity="1" style="display: block;"><g id="precomp_pJdW7GGLMH_lMEolS7Uu820" clip-path="url(#__lottie_element_424)" transform="matrix(1,0,0,1,0,0)" opacity="1" style="display: block;"><g id="7u7PHBX1tlvJQimbx9Mkl21" transform="matrix(1,0,0,1,50000,50000)" opacity="1" style="display: block;"><g opacity="1" transform="matrix(1,0,0,1,0,0)"><path fill="rgb(145,234,191)" fill-opacity="1" d=" M98.31500244140625,-21.969999313354492 C98.31500244140625,-25.28139877319336 95.62640380859375,-27.969999313354492 92.31500244140625,-27.969999313354492 C92.31500244140625,-27.969999313354492 -92.31500244140625,-27.969999313354492 -92.31500244140625,-27.969999313354492 C-95.62640380859375,-27.969999313354492 -98.31500244140625,-25.28139877319336 -98.31500244140625,-21.969999313354492 C-98.31500244140625,-21.969999313354492 -98.31500244140625,21.969999313354492 -98.31500244140625,21.969999313354492 C-98.31500244140625,25.28139877319336 -95.62640380859375,27.969999313354492 -92.31500244140625,27.969999313354492 C-92.31500244140625,27.969999313354492 92.31500244140625,27.969999313354492 92.31500244140625,27.969999313354492 C95.62640380859375,27.969999313354492 98.31500244140625,25.28139877319336 98.31500244140625,21.969999313354492 C98.31500244140625,21.969999313354492 98.31500244140625,-21.969999313354492 98.31500244140625,-21.969999313354492z"></path></g></g></g><g id="precomp_9BFtH2MO0Sl5EEGkjH0Zw4" clip-path="url(#__lottie_element_370)" transform="matrix(1,0,0,1,0,0)" opacity="1" style="display: block;"><g mask="url(#__lottie_element_373)" style="display: block;"><g id="precomp_9BFtH2MO0Sl5EEGkjH0Zw5" clip-path="url(#__lottie_element_381)" transform="matrix(1,0,0,1,0,0)" opacity="1"><g id="precomp_xtyg0I-ZmJln6jqSQN9vk6" clip-path="url(#__lottie_element_385)" transform="matrix(1,0,0,1,1,2.5)" opacity="1" style="display: block;"><g id="precomp_UvvmzY3V7KLn_Xwc73Nqc7" clip-path="url(#__lottie_element_389)" transform="matrix(1,0,0,1,0,-0.26953125)" opacity="1" style="display: block;"><g id="precomp_6U4--hHU8W0veatq7xEaf8" clip-path="url(#__lottie_element_393)" transform="matrix(1,0,0,1,0,0)" opacity="1" style="display: block;"><g id="oHnFGdWCYXqvxzjF52ySK17" transform="matrix(1,0,0,1,49927.2890625,50008.5390625)" opacity="1" style="display: block;"><g opacity="1" transform="matrix(1,0,0,1,0,0)"><path fill="rgb(22,28,30)" fill-opacity="1" d=" M2.75,0 C2.75,0 2.75,-21.360000610351562 2.75,-21.360000610351562 C2.75,-21.360000610351562 7.809999942779541,-21.360000610351562 7.809999942779541,-21.360000610351562 C7.809999942779541,-21.360000610351562 14.550000190734863,-1.8300000429153442 14.550000190734863,-1.8300000429153442 C14.550000190734863,-1.8300000429153442 13.850000381469727,-1.8300000429153442 13.850000381469727,-1.8300000429153442 C13.850000381469727,-1.8300000429153442 20.440000534057617,-21.360000610351562 20.440000534057617,-21.360000610351562 C20.440000534057617,-21.360000610351562 25.479999542236328,-21.360000610351562 25.479999542236328,-21.360000610351562 C25.479999542236328,-21.360000610351562 25.479999542236328,0 25.479999542236328,0 C25.479999542236328,0 22.43000030517578,0 22.43000030517578,0 C22.43000030517578,0 22.43000030517578,-19.6200008392334 22.43000030517578,-19.6200008392334 C22.43000030517578,-19.6200008392334 22.700000762939453,-19.59000015258789 22.700000762939453,-19.59000015258789 C22.700000762939453,-19.59000015258789 16.139999389648438,0 16.139999389648438,0 C16.139999389648438,0 12.239999771118164,0 12.239999771118164,0 C12.239999771118164,0 5.489999771118164,-19.559999465942383 5.489999771118164,-19.559999465942383 C5.489999771118164,-19.559999465942383 5.800000190734863,-19.6200008392334 5.800000190734863,-19.6200008392334 C5.800000190734863,-19.6200008392334 5.800000190734863,0 5.800000190734863,0 C5.800000190734863,0 2.75,0 2.75,0"></path></g></g><g id="7vDp7rUQ_jgFbmo2uCm7I16" transform="matrix(1,0,0,1,49955.51953125,50008.5390625)" opacity="1" style="display: block;"><g opacity="1" transform="matrix(1,0,0,1,0,0)"><path fill="rgb(22,28,30)" fill-opacity="1" d=" M8.729999542236328,-2.140000104904175 C9.460000038146973,-2.140000104904175 10.149999618530273,-2.3499999046325684 10.800000190734863,-2.759999990463257 C11.449999809265137,-3.180000066757202 11.979999542236328,-3.809999942779541 12.390000343322754,-4.639999866485596 C12.800000190734863,-5.46999979019165 13,-6.46999979019165 13,-7.630000114440918 C13,-7.630000114440918 13,-7.630000114440918 13,-7.630000114440918 C13,-8.789999961853027 12.800000190734863,-9.789999961853027 12.390000343322754,-10.619999885559082 C11.979999542236328,-11.449999809265137 11.449999809265137,-12.079999923706055 10.800000190734863,-12.489999771118164 C10.149999618530273,-12.90999984741211 9.460000038146973,-13.119999885559082 8.729999542236328,-13.119999885559082 C8.729999542236328,-13.119999885559082 8.729999542236328,-13.119999885559082 8.729999542236328,-13.119999885559082 C8.729999542236328,-13.119999885559082 8.420000076293945,-13.119999885559082 8.420000076293945,-13.119999885559082 C7.650000095367432,-13.119999885559082 6.949999809265137,-12.90999984741211 6.320000171661377,-12.489999771118164 C5.690000057220459,-12.079999923706055 5.190000057220459,-11.460000038146973 4.840000152587891,-10.630000114440918 C4.480000019073486,-9.8100004196167 4.300000190734863,-8.8100004196167 4.300000190734863,-7.630000114440918 C4.300000190734863,-7.630000114440918 4.300000190734863,-7.630000114440918 4.300000190734863,-7.630000114440918 C4.300000190734863,-6.449999809265137 4.480000019073486,-5.449999809265137 4.840000152587891,-4.619999885559082 C5.190000057220459,-3.799999952316284 5.690000057220459,-3.180000066757202 6.320000171661377,-2.759999990463257 C6.949999809265137,-2.3499999046325684 7.650000095367432,-2.140000104904175 8.420000076293945,-2.140000104904175 C8.420000076293945,-2.140000104904175 8.420000076293945,-2.140000104904175 8.420000076293945,-2.140000104904175 C8.420000076293945,-2.140000104904175 8.729999542236328,-2.140000104904175 8.729999542236328,-2.140000104904175 M8.119999885559082,0.3100000023841858 C6.829999923706055,0.3100000023841858 5.679999828338623,-0.009999999776482582 4.670000076293945,-0.6399999856948853 C3.6500000953674316,-1.2699999809265137 2.8499999046325684,-2.190000057220459 2.2699999809265137,-3.390000104904175 C1.690000057220459,-4.590000152587891 1.399999976158142,-6 1.399999976158142,-7.630000114440918 C1.399999976158142,-7.630000114440918 1.399999976158142,-7.630000114440918 1.399999976158142,-7.630000114440918 C1.399999976158142,-9.260000228881836 1.690000057220459,-10.670000076293945 2.2699999809265137,-11.869999885559082 C2.8499999046325684,-13.069999694824219 3.6500000953674316,-13.979999542236328 4.670000076293945,-14.609999656677246 C5.679999828338623,-15.239999771118164 6.829999923706055,-15.5600004196167 8.119999885559082,-15.5600004196167 C8.119999885559082,-15.5600004196167 8.119999885559082,-15.5600004196167 8.119999885559082,-15.5600004196167 C9.319999694824219,-15.5600004196167 10.3100004196167,-15.350000381469727 11.079999923706055,-14.920000076293945 C11.850000381469727,-14.489999771118164 12.489999771118164,-13.890000343322754 13,-13.119999885559082 C13,-13.119999885559082 13,-13.119999885559082 13,-13.119999885559082 C13,-13.119999885559082 13,-15.260000228881836 13,-15.260000228881836 C13,-15.260000228881836 15.899999618530273,-15.260000228881836 15.899999618530273,-15.260000228881836 C15.899999618530273,-15.260000228881836 15.899999618530273,0 15.899999618530273,0 C15.899999618530273,0 13,0 13,0 C13,0 13,-2.140000104904175 13,-2.140000104904175 C12.489999771118164,-1.3700000047683716 11.850000381469727,-0.7699999809265137 11.079999923706055,-0.3400000035762787 C10.3100004196167,0.09000000357627869 9.319999694824219,0.3100000023841858 8.119999885559082,0.3100000023841858 C8.119999885559082,0.3100000023841858 8.119999885559082,0.3100000023841858 8.119999885559082,0.3100000023841858"></path></g></g><g id="ZENoApiIlyF2qgCCb-GiX15" transform="matrix(1,0,0,1,49973.69921875,50008.5390625)" opacity="1" style="display: block;"><g opacity="1" transform="matrix(1,0,0,1,0,0)"><path fill="rgb(22,28,30)" fill-opacity="1" d=" M2.2899999618530273,0 C2.2899999618530273,0 2.2899999618530273,-15.260000228881836 2.2899999618530273,-15.260000228881836 C2.2899999618530273,-15.260000228881836 5.03000020980835,-15.260000228881836 5.03000020980835,-15.260000228881836 C5.03000020980835,-15.260000228881836 5.03000020980835,-11.899999618530273 5.03000020980835,-11.899999618530273 C5.340000152587891,-13.020000457763672 5.889999866485596,-13.880000114440918 6.699999809265137,-14.489999771118164 C7.5,-15.100000381469727 8.420000076293945,-15.40999984741211 9.460000038146973,-15.40999984741211 C9.460000038146973,-15.40999984741211 9.460000038146973,-15.40999984741211 9.460000038146973,-15.40999984741211 C9.460000038146973,-15.40999984741211 10.829999923706055,-15.40999984741211 10.829999923706055,-15.40999984741211 C10.829999923706055,-15.40999984741211 10.829999923706055,-12.600000381469727 10.829999923706055,-12.600000381469727 C10.829999923706055,-12.600000381469727 9.609999656677246,-12.600000381469727 9.609999656677246,-12.600000381469727 C8.229999542236328,-12.600000381469727 7.150000095367432,-12.170000076293945 6.360000133514404,-11.300000190734863 C5.579999923706055,-10.4399995803833 5.190000057220459,-9.25 5.190000057220459,-7.71999979019165 C5.190000057220459,-7.71999979019165 5.190000057220459,-7.71999979019165 5.190000057220459,-7.71999979019165 C5.190000057220459,-7.71999979019165 5.190000057220459,0 5.190000057220459,0 C5.190000057220459,0 2.2899999618530273,0 2.2899999618530273,0"></path></g></g><g id="0_EeUh26uYsw_zQh1GHnP14" transform="matrix(1,0,0,1,49985.171875,50008.5390625)" opacity="1" style="display: block;"><g opacity="1" transform="matrix(1,0,0,1,0,0)"><path fill="rgb(22,28,30)" fill-opacity="1" d=" M2.2899999618530273,0 C2.2899999618530273,0 2.2899999618530273,-21.360000610351562 2.2899999618530273,-21.360000610351562 C2.2899999618530273,-21.360000610351562 5.190000057220459,-21.360000610351562 5.190000057220459,-21.360000610351562 C5.190000057220459,-21.360000610351562 5.190000057220459,-8.670000076293945 5.190000057220459,-8.670000076293945 C5.190000057220459,-8.670000076293945 11.899999618530273,-15.260000228881836 11.899999618530273,-15.260000228881836 C11.899999618530273,-15.260000228881836 15.710000038146973,-15.260000228881836 15.710000038146973,-15.260000228881836 C15.710000038146973,-15.260000228881836 9.369999885559082,-9.180000305175781 9.369999885559082,-9.180000305175781 C9.369999885559082,-9.180000305175781 16.020000457763672,0 16.020000457763672,0 C16.020000457763672,0 12.449999809265137,0 12.449999809265137,0 C12.449999809265137,0 7.289999961853027,-7.199999809265137 7.289999961853027,-7.199999809265137 C7.289999961853027,-7.199999809265137 5.190000057220459,-5.159999847412109 5.190000057220459,-5.159999847412109 C5.190000057220459,-5.159999847412109 5.190000057220459,0 5.190000057220459,0 C5.190000057220459,0 2.2899999618530273,0 2.2899999618530273,0"></path></g></g><g id="QUgUGHfU7HVWhnzlqBVjB13" transform="matrix(1,0,0,1,50001.4296875,50008.5390625)" opacity="1" style="display: block;"><g opacity="1" transform="matrix(1,0,0,1,0,0)"><path fill="rgb(22,28,30)" fill-opacity="1" d=" M12.050000190734863,-9.460000038146973 C11.989999771118164,-10.699999809265137 11.640000343322754,-11.619999885559082 11,-12.220000267028809 C10.359999656677246,-12.819999694824219 9.5600004196167,-13.119999885559082 8.600000381469727,-13.119999885559082 C8.600000381469727,-13.119999885559082 8.600000381469727,-13.119999885559082 8.600000381469727,-13.119999885559082 C8.600000381469727,-13.119999885559082 8.359999656677246,-13.119999885559082 8.359999656677246,-13.119999885559082 C7.46999979019165,-13.119999885559082 6.659999847412109,-12.829999923706055 5.929999828338623,-12.239999771118164 C5.210000038146973,-11.649999618530273 4.71999979019165,-10.720000267028809 4.449999809265137,-9.460000038146973 C4.449999809265137,-9.460000038146973 4.449999809265137,-9.460000038146973 4.449999809265137,-9.460000038146973 C4.449999809265137,-9.460000038146973 12.050000190734863,-9.460000038146973 12.050000190734863,-9.460000038146973 M8.569999694824219,0.3100000023841858 C7.269999980926514,0.3100000023841858 6.079999923706055,0.009999999776482582 4.989999771118164,-0.5899999737739563 C3.9000000953674316,-1.2000000476837158 3.0299999713897705,-2.0999999046325684 2.359999895095825,-3.299999952316284 C1.7000000476837158,-4.5 1.3700000047683716,-5.949999809265137 1.3700000047683716,-7.659999847412109 C1.3700000047683716,-7.659999847412109 1.3700000047683716,-7.659999847412109 1.3700000047683716,-7.659999847412109 C1.3700000047683716,-9.350000381469727 1.7000000476837158,-10.789999961853027 2.359999895095825,-11.979999542236328 C3.0299999713897705,-13.170000076293945 3.9000000953674316,-14.0600004196167 4.989999771118164,-14.65999984741211 C6.079999923706055,-15.260000228881836 7.239999771118164,-15.5600004196167 8.479999542236328,-15.5600004196167 C8.479999542236328,-15.5600004196167 8.479999542236328,-15.5600004196167 8.479999542236328,-15.5600004196167 C9.779999732971191,-15.5600004196167 10.920000076293945,-15.279999732971191 11.899999618530273,-14.720000267028809 C12.869999885559082,-14.15999984741211 13.630000114440918,-13.369999885559082 14.15999984741211,-12.359999656677246 C14.6899995803833,-11.34000015258789 14.949999809265137,-10.170000076293945 14.949999809265137,-8.850000381469727 C14.949999809265137,-8.850000381469727 14.949999809265137,-8.850000381469727 14.949999809265137,-8.850000381469727 C14.949999809265137,-8.300000190734863 14.949999809265137,-7.739999771118164 14.949999809265137,-7.170000076293945 C14.949999809265137,-7.170000076293945 14.949999809265137,-7.170000076293945 14.949999809265137,-7.170000076293945 C14.949999809265137,-7.170000076293945 4.269999980926514,-7.170000076293945 4.269999980926514,-7.170000076293945 C4.329999923706055,-6.070000171661377 4.570000171661377,-5.139999866485596 5,-4.389999866485596 C5.429999828338623,-3.640000104904175 5.960000038146973,-3.069999933242798 6.610000133514404,-2.700000047683716 C7.25,-2.3299999237060547 7.889999866485596,-2.140000104904175 8.539999961853027,-2.140000104904175 C8.539999961853027,-2.140000104904175 8.539999961853027,-2.140000104904175 8.539999961853027,-2.140000104904175 C8.539999961853027,-2.140000104904175 8.789999961853027,-2.140000104904175 8.789999961853027,-2.140000104904175 C9.579999923706055,-2.140000104904175 10.279999732971191,-2.3399999141693115 10.890000343322754,-2.75 C11.5,-3.1600000858306885 11.880000114440918,-3.75 12.020000457763672,-4.519999980926514 C12.020000457763672,-4.519999980926514 12.020000457763672,-4.519999980926514 12.020000457763672,-4.519999980926514 C12.020000457763672,-4.519999980926514 14.920000076293945,-4.519999980926514 14.920000076293945,-4.519999980926514 C14.649999618530273,-3.009999990463257 13.930000305175781,-1.8300000429153442 12.75,-0.9800000190734863 C11.569999694824219,-0.11999999731779099 10.180000305175781,0.3100000023841858 8.569999694824219,0.3100000023841858 C8.569999694824219,0.3100000023841858 8.569999694824219,0.3100000023841858 8.569999694824219,0.3100000023841858"></path></g></g><g id="Rivcd_H0G-Fuaf0nARkvN12" transform="matrix(1,0,0,1,50017.8515625,50008.5390625)" opacity="1" style="display: block;"><g opacity="1" transform="matrix(1,0,0,1,0,0)"><path fill="rgb(22,28,30)" fill-opacity="1" d=" M7.230000019073486,0 C6.170000076293945,0 5.349999904632568,-0.28999999165534973 4.760000228881836,-0.8799999952316284 C4.170000076293945,-1.4700000286102295 3.869999885559082,-2.299999952316284 3.869999885559082,-3.359999895095825 C3.869999885559082,-3.359999895095825 3.869999885559082,-3.359999895095825 3.869999885559082,-3.359999895095825 C3.869999885559082,-3.359999895095825 3.869999885559082,-12.75 3.869999885559082,-12.75 C3.869999885559082,-12.75 0.5199999809265137,-12.75 0.5199999809265137,-12.75 C0.5199999809265137,-12.75 0.5199999809265137,-15.260000228881836 0.5199999809265137,-15.260000228881836 C0.5199999809265137,-15.260000228881836 3.869999885559082,-15.260000228881836 3.869999885559082,-15.260000228881836 C3.869999885559082,-15.260000228881836 3.869999885559082,-20.200000762939453 3.869999885559082,-20.200000762939453 C3.869999885559082,-20.200000762939453 6.769999980926514,-20.200000762939453 6.769999980926514,-20.200000762939453 C6.769999980926514,-20.200000762939453 6.769999980926514,-15.260000228881836 6.769999980926514,-15.260000228881836 C6.769999980926514,-15.260000228881836 10.430000305175781,-15.260000228881836 10.430000305175781,-15.260000228881836 C10.430000305175781,-15.260000228881836 10.430000305175781,-12.75 10.430000305175781,-12.75 C10.430000305175781,-12.75 6.769999980926514,-12.75 6.769999980926514,-12.75 C6.769999980926514,-12.75 6.769999980926514,-3.809999942779541 6.769999980926514,-3.809999942779541 C6.769999980926514,-3.359999895095825 6.860000133514404,-3.049999952316284 7.050000190734863,-2.869999885559082 C7.230000019073486,-2.680000066757202 7.539999961853027,-2.5899999141693115 7.989999771118164,-2.5899999141693115 C7.989999771118164,-2.5899999141693115 7.989999771118164,-2.5899999141693115 7.989999771118164,-2.5899999141693115 C7.989999771118164,-2.5899999141693115 10.890000343322754,-2.5899999141693115 10.890000343322754,-2.5899999141693115 C10.890000343322754,-2.5899999141693115 10.890000343322754,0 10.890000343322754,0 C10.890000343322754,0 7.230000019073486,0 7.230000019073486,0"></path></g></g><g id="VGoh-5XWEZt0PDek5noF111" transform="matrix(1,0,0,1,50029.58984375,50008.5390625)" opacity="1" style="display: block;"><g opacity="1" transform="matrix(1,0,0,1,0,0)"><path fill="rgb(22,28,30)" fill-opacity="1" d=" M2.140000104904175,-18 C2.140000104904175,-18 2.140000104904175,-21.360000610351562 2.140000104904175,-21.360000610351562 C2.140000104904175,-21.360000610351562 5.340000152587891,-21.360000610351562 5.340000152587891,-21.360000610351562 C5.340000152587891,-21.360000610351562 5.340000152587891,-18 5.340000152587891,-18 C5.340000152587891,-18 2.140000104904175,-18 2.140000104904175,-18 M2.2899999618530273,0 C2.2899999618530273,0 2.2899999618530273,-15.260000228881836 2.2899999618530273,-15.260000228881836 C2.2899999618530273,-15.260000228881836 5.190000057220459,-15.260000228881836 5.190000057220459,-15.260000228881836 C5.190000057220459,-15.260000228881836 5.190000057220459,0 5.190000057220459,0 C5.190000057220459,0 2.2899999618530273,0 2.2899999618530273,0"></path></g></g><g id="kpvOjRNTe92TfzFSFG_0k10" transform="matrix(1,0,0,1,50037.0703125,50008.5390625)" opacity="1" style="display: block;"><g opacity="1" transform="matrix(1,0,0,1,0,0)"><path fill="rgb(22,28,30)" fill-opacity="1" d=" M2.2899999618530273,0 C2.2899999618530273,0 2.2899999618530273,-15.260000228881836 2.2899999618530273,-15.260000228881836 C2.2899999618530273,-15.260000228881836 5.190000057220459,-15.260000228881836 5.190000057220459,-15.260000228881836 C5.190000057220459,-15.260000228881836 5.190000057220459,-13.119999885559082 5.190000057220459,-13.119999885559082 C5.699999809265137,-13.869999885559082 6.349999904632568,-14.470000267028809 7.139999866485596,-14.899999618530273 C7.929999828338623,-15.34000015258789 8.90999984741211,-15.5600004196167 10.069999694824219,-15.5600004196167 C10.069999694824219,-15.5600004196167 10.069999694824219,-15.5600004196167 10.069999694824219,-15.5600004196167 C11.229999542236328,-15.5600004196167 12.220000267028809,-15.34000015258789 13.039999961853027,-14.899999618530273 C13.869999885559082,-14.470000267028809 14.489999771118164,-13.850000381469727 14.920000076293945,-13.039999961853027 C15.350000381469727,-12.239999771118164 15.5600004196167,-11.300000190734863 15.5600004196167,-10.220000267028809 C15.5600004196167,-10.220000267028809 15.5600004196167,-10.220000267028809 15.5600004196167,-10.220000267028809 C15.5600004196167,-10.220000267028809 15.5600004196167,0 15.5600004196167,0 C15.5600004196167,0 12.65999984741211,0 12.65999984741211,0 C12.65999984741211,0 12.65999984741211,-9.609999656677246 12.65999984741211,-9.609999656677246 C12.65999984741211,-10.34000015258789 12.550000190734863,-10.970000267028809 12.34000015258789,-11.489999771118164 C12.130000114440918,-12.010000228881836 11.789999961853027,-12.40999984741211 11.34000015258789,-12.6899995803833 C10.880000114440918,-12.979999542236328 10.289999961853027,-13.119999885559082 9.579999923706055,-13.119999885559082 C9.579999923706055,-13.119999885559082 9.579999923706055,-13.119999885559082 9.579999923706055,-13.119999885559082 C9.579999923706055,-13.119999885559082 9.34000015258789,-13.119999885559082 9.34000015258789,-13.119999885559082 C8.609999656677246,-13.119999885559082 7.920000076293945,-12.9399995803833 7.289999961853027,-12.569999694824219 C6.659999847412109,-12.199999809265137 6.159999847412109,-11.670000076293945 5.769999980926514,-10.979999542236328 C5.380000114440918,-10.289999961853027 5.190000057220459,-9.479999542236328 5.190000057220459,-8.539999961853027 C5.190000057220459,-8.539999961853027 5.190000057220459,-8.539999961853027 5.190000057220459,-8.539999961853027 C5.190000057220459,-8.539999961853027 5.190000057220459,0 5.190000057220459,0 C5.190000057220459,0 2.2899999618530273,0 2.2899999618530273,0"></path></g></g><g id="9Ec2NoDSZVaMbzAI-wNRp9" transform="matrix(1,0,0,1,50054.76953125,50008.5390625)" opacity="1" style="display: block;"><g opacity="1" transform="matrix(1,0,0,1,0,0)"><path fill="rgb(22,28,30)" fill-opacity="1" d=" M8.539999961853027,-2.440000057220459 C9.25,-2.440000057220459 9.9399995803833,-2.6600000858306885 10.59000015258789,-3.0999999046325684 C11.239999771118164,-3.5299999713897705 11.760000228881836,-4.150000095367432 12.15999984741211,-4.960000038146973 C12.550000190734863,-5.760000228881836 12.75,-6.699999809265137 12.75,-7.78000020980835 C12.75,-7.78000020980835 12.75,-7.78000020980835 12.75,-7.78000020980835 C12.75,-8.859999656677246 12.5600004196167,-9.8100004196167 12.1899995803833,-10.619999885559082 C11.8100004196167,-11.430000305175781 11.3100004196167,-12.050000190734863 10.6899995803833,-12.479999542236328 C10.069999694824219,-12.90999984741211 9.40999984741211,-13.119999885559082 8.699999809265137,-13.119999885559082 C8.699999809265137,-13.119999885559082 8.699999809265137,-13.119999885559082 8.699999809265137,-13.119999885559082 C8.699999809265137,-13.119999885559082 8.449999809265137,-13.119999885559082 8.449999809265137,-13.119999885559082 C7.699999809265137,-13.119999885559082 7.010000228881836,-12.930000305175781 6.380000114440918,-12.5600004196167 C5.75,-12.180000305175781 5.239999771118164,-11.59000015258789 4.869999885559082,-10.800000190734863 C4.489999771118164,-10.010000228881836 4.300000190734863,-9 4.300000190734863,-7.78000020980835 C4.300000190734863,-7.78000020980835 4.300000190734863,-7.78000020980835 4.300000190734863,-7.78000020980835 C4.300000190734863,-5.96999979019165 4.670000076293945,-4.619999885559082 5.420000076293945,-3.75 C6.159999847412109,-2.880000114440918 7.119999885559082,-2.440000057220459 8.300000190734863,-2.440000057220459 C8.300000190734863,-2.440000057220459 8.300000190734863,-2.440000057220459 8.300000190734863,-2.440000057220459 C8.300000190734863,-2.440000057220459 8.539999961853027,-2.440000057220459 8.539999961853027,-2.440000057220459 M8.180000305175781,6.710000038146973 C6.789999961853027,6.710000038146973 5.579999923706055,6.510000228881836 4.550000190734863,6.119999885559082 C3.509999990463257,5.71999979019165 2.700000047683716,5.159999847412109 2.119999885559082,4.440000057220459 C1.5399999618530273,3.7200000286102295 1.2000000476837158,2.9000000953674316 1.100000023841858,1.9800000190734863 C1.100000023841858,1.9800000190734863 1.100000023841858,1.9800000190734863 1.100000023841858,1.9800000190734863 C1.100000023841858,1.9800000190734863 4,1.9800000190734863 4,1.9800000190734863 C4.139999866485596,2.7100000381469727 4.579999923706055,3.2799999713897705 5.309999942779541,3.680000066757202 C6.039999961853027,4.070000171661377 6.949999809265137,4.269999980926514 8.020000457763672,4.269999980926514 C8.020000457763672,4.269999980926514 8.020000457763672,4.269999980926514 8.020000457763672,4.269999980926514 C8.020000457763672,4.269999980926514 8.329999923706055,4.269999980926514 8.329999923706055,4.269999980926514 C9.6899995803833,4.269999980926514 10.770000457763672,3.890000104904175 11.5600004196167,3.140000104904175 C12.350000381469727,2.390000104904175 12.75,1.2400000095367432 12.75,-0.3100000023841858 C12.75,-0.3100000023841858 12.75,-0.3100000023841858 12.75,-0.3100000023841858 C12.75,-0.3100000023841858 12.75,-2.440000057220459 12.75,-2.440000057220459 C12.319999694824219,-1.75 11.720000267028809,-1.1699999570846558 10.9399995803833,-0.699999988079071 C10.149999618530273,-0.23000000417232513 9.229999542236328,0 8.180000305175781,0 C8.180000305175781,0 8.180000305175781,0 8.180000305175781,0 C6.960000038146973,0 5.840000152587891,-0.2800000011920929 4.809999942779541,-0.8500000238418579 C3.7799999713897705,-1.4199999570846558 2.950000047683716,-2.2899999618530273 2.3299999237060547,-3.4600000381469727 C1.7100000381469727,-4.630000114440918 1.399999976158142,-6.070000171661377 1.399999976158142,-7.78000020980835 C1.399999976158142,-7.78000020980835 1.399999976158142,-7.78000020980835 1.399999976158142,-7.78000020980835 C1.399999976158142,-9.489999771118164 1.7100000381469727,-10.930000305175781 2.319999933242798,-12.100000381469727 C2.930000066757202,-13.270000457763672 3.75,-14.140000343322754 4.78000020980835,-14.710000038146973 C5.809999942779541,-15.279999732971191 6.940000057220459,-15.5600004196167 8.180000305175781,-15.5600004196167 C8.180000305175781,-15.5600004196167 8.180000305175781,-15.5600004196167 8.180000305175781,-15.5600004196167 C9.25,-15.5600004196167 10.199999809265137,-15.319999694824219 11.029999732971191,-14.84000015258789 C11.859999656677246,-14.369999885559082 12.430000305175781,-13.789999961853027 12.75,-13.119999885559082 C12.75,-13.119999885559082 12.75,-13.119999885559082 12.75,-13.119999885559082 C12.75,-13.119999885559082 12.75,-15.260000228881836 12.75,-15.260000228881836 C12.75,-15.260000228881836 15.649999618530273,-15.260000228881836 15.649999618530273,-15.260000228881836 C15.649999618530273,-15.260000228881836 15.649999618530273,0 15.649999618530273,0 C15.649999618530273,1.2799999713897705 15.359999656677246,2.430000066757202 14.770000457763672,3.450000047683716 C14.180000305175781,4.460000038146973 13.319999694824219,5.260000228881836 12.1899995803833,5.840000152587891 C11.0600004196167,6.420000076293945 9.729999542236328,6.710000038146973 8.180000305175781,6.710000038146973 C8.180000305175781,6.710000038146973 8.180000305175781,6.710000038146973 8.180000305175781,6.710000038146973"></path></g></g></g></g></g></g></g></g><g id="precomp_4RBMv_AZ2s5HLn_H7VXhx3" clip-path="url(#__lottie_element_366)" transform="matrix(1,0,0,1,0,0)" opacity="1" style="display: block;"></g></g></g></g></g></svg>