<svg xmlns="http://www.w3.org/2000/svg" width="218" height="70" fill="none" id="svg-1804021538_5661"><g clip-path="url(#svg-1804021538_5661_a)" fill="#181C1F"><path d="M49.238 42.018c0-.106-.106-.106-.213-.106-.106 0-.106 0-.212.106-2.659 2.02-5.21 4.148-7.657 6.487-.106 0-.106.106-.106.213 0 .106 0 .106.106.212l1.17 1.383c0 .106.106.106.213.106.106 0 .106 0 .212-.106 2.659-2.02 5.21-4.148 7.657-6.487.106 0 .106-.106.106-.213 0-.106 0-.106-.106-.212l-1.17-1.383Zm-3.934.107v-1.808c0-.106 0-.106-.107-.213 0-.106-.106-.106-.213-.106a78.37 78.37 0 0 0-9.995 0c-.107 0-.107 0-.213.106-.106.107-.106.213-.106.213v1.808c0 .106 0 .106.106.212.106.107.106.107.213.107 3.296.212 6.699.212 9.995 0 .107 0 .107 0 .213-.107 0 0 .106-.106.106-.212Zm-3.19-4.148 1.169-1.382c0-.106.106-.106.106-.213 0-.106 0-.106-.106-.212-2.446-2.34-4.998-4.467-7.656-6.487h-.213c-.106 0-.106 0-.213.106l-1.17 1.383c0 .106-.106.106-.106.212 0 .107 0 .107.107.213 2.445 2.34 4.998 4.466 7.656 6.487.106 0 .106.106.213.106l.212-.212Zm0-5.53c0 .107.106.107.106.214.106 0 .106.106.212 0l1.808-.32c.106 0 .106-.106.213-.106 0-.106.106-.106.106-.212-.425-3.297-1.063-6.593-1.808-9.784 0-.106-.106-.106-.106-.212-.106 0-.106-.107-.213 0l-1.807.212c-.107 0-.107.107-.213.107 0 .106-.106.106-.106.212.425 3.403 1.063 6.7 1.807 9.89Zm3.934-3.508 1.595.957h.213c.106 0 .106-.107.212-.107a88.08 88.08 0 0 0 4.998-8.72v-.212c0-.106-.106-.106-.106-.213l-1.595-.957h-.213c-.106 0-.106.107-.213.107a88.072 88.072 0 0 0-4.998 8.72v.212c0 .106 0 .106.107.213Zm15.844-2.552-.638-1.702c0-.106-.106-.106-.106-.212h-.213c-3.19.957-6.38 2.126-9.464 3.402-.106 0-.106.107-.106.107v.212l.638 1.702c0 .106.106.106.106.212h.213c3.19-.957 6.38-2.126 9.464-3.402.106 0 .106-.107.106-.107v-.212Zm3.51 8.081c-3.084-1.382-6.275-2.446-9.465-3.403h-.212c-.107 0-.107.107-.107.213l-.531 1.595v.213c0 .106.106.106.106.106 3.084 1.383 6.168 2.446 9.464 3.403h.213c.106 0 .106-.106.106-.213l.638-1.701v-.213c0 .107-.106 0-.213 0Zm57.741-11.058c-.213 0-.532 0-.744.105-.213.107-.426.213-.638.426-.213.213-.319.425-.426.638-.106.213-.106.532-.106.744 0 .213 0 .532.106.745.107.212.213.425.426.638.212.212.425.319.638.425.212.106.531.106.744.106.213 0 .532 0 .744-.106.213-.106.426-.213.638-.425.213-.213.319-.426.426-.638.106-.213.106-.532.106-.745 0-.212 0-.531-.106-.744 0-.213-.213-.425-.426-.638-.212-.213-.425-.32-.638-.425-.212-.107-.425-.107-.744-.107Zm32.22 6.698c-.957-.744-2.126-1.17-3.615-1.17-1.17 0-2.233.213-3.084.745a3.497 3.497 0 0 0-1.701 1.808l-.319-.107.319-.957c.106-.319.106-.531.106-.85v-.32h-3.296v14.57h3.296v-9.04c0-.957.319-1.701.957-2.34.638-.53 1.595-.85 2.446-.85h.106c.957 0 1.702.213 2.233.638.532.426.851 1.17.851 2.127v9.358h3.296v-9.783c-.212-1.808-.638-3.084-1.595-3.828Zm-17.333-.212c-1.169-.638-2.446-.957-3.828-.957-1.382 0-2.658.319-3.828.957-1.063.638-2.02 1.488-2.552 2.658-.638 1.17-.851 2.446-.851 4.041 0 1.595.319 2.871.957 4.04.532 1.17 1.489 2.021 2.552 2.66a7.76 7.76 0 0 0 3.722.956c1.276 0 2.659-.319 3.828-.957 1.064-.638 2.021-1.595 2.552-2.658.638-1.17.957-2.552.957-4.04 0-1.49-.319-2.872-.957-4.042-.638-1.17-1.488-2.127-2.552-2.658Zm-.85 10.315c-.638.957-1.596 1.488-2.765 1.488h-.213c-1.17 0-2.127-.531-2.765-1.488-.638-.957-.957-2.233-.957-3.616 0-1.382.319-2.658.957-3.615.638-.957 1.595-1.383 2.765-1.383h.213c1.169 0 2.127.425 2.765 1.383.638.957.957 2.126.957 3.615 0 1.383-.319 2.659-.957 3.616Zm-12.442-10.953h-3.296v14.568h3.296V29.258Zm-6.806 11.91c-.531 0-.957-.213-1.169-.532-.319-.32-.426-.744-.426-1.383V31.81h2.659v-2.552h-2.659v-4.041h-3.296v4.147h-2.127v2.446h2.127v7.337c0 1.595.319 2.765.957 3.616.638.85 1.701 1.276 3.19 1.276.532 0 .957 0 1.382-.107.426-.106.638-.106.638-.106v-2.765c-.106 0-.319 0-.425.107h-.851Zm-12.335-.426c-.638.638-1.382.957-2.339.957h-.213c-1.17 0-2.127-.531-2.765-1.488-.638-.957-.957-2.233-.957-3.616 0-1.489.32-2.658.957-3.615.638-.957 1.595-1.383 2.765-1.383h.213c.85 0 1.701.32 2.233.85a3.289 3.289 0 0 1 1.17 2.128h3.402c-.319-1.808-1.169-3.19-2.339-4.148-1.276-.957-2.765-1.382-4.573-1.382-1.382 0-2.658.32-3.828.957-1.063.638-2.02 1.489-2.552 2.659-.638 1.17-.85 2.445-.85 4.04 0 1.49.318 2.871.85 4.041.532 1.17 1.489 2.02 2.552 2.659 1.064.638 2.34.957 3.828.957 1.17 0 2.34-.213 3.403-.745.957-.425 1.808-1.17 2.446-2.02a6.071 6.071 0 0 0 1.17-2.978h-3.403c-.213.639-.532 1.49-1.17 2.127Zm-21.48-16.269-7.231 19.353h3.403l1.914-4.998h7.975l2.02 4.998h3.51l-7.656-19.354h-3.935Zm-1.063 11.803 2.126-6.061.32-.957c.106-.532.212-1.064.212-1.595v-.213h.744v.106c0 .532.107 1.064.32 1.595l.318.957 2.34 6.062-6.38.106Zm80.072-11.697h-3.296v19.353h3.296V24.58Zm20.311 13.505c.425-1.276.531-2.659.531-3.935 0-2.02-.319-3.722-1.063-5.21-.638-1.489-1.808-2.659-3.19-3.51-1.383-.85-2.978-1.275-4.892-1.275-1.914 0-3.509.425-4.891 1.276-1.383.85-2.446 2.02-3.19 3.509-.745 1.488-1.064 3.296-1.064 5.21 0 2.02.319 3.722 1.064 5.21.638 1.49 1.807 2.66 3.19 3.51 1.382.85 2.977 1.276 4.891 1.276 1.808 0 3.403-.425 4.679-1.17.426.532.957 1.064 1.383 1.595 0 .107.106.107.212.107.107 0 .107 0 .213-.107l1.382-1.17c.107 0 .107-.106.107-.212v-.213c-.426-.531-.851-1.17-1.276-1.701l.212-.213c.851-.744 1.383-1.807 1.702-2.977Zm-3.829.638c-.957-1.17-1.914-2.34-2.977-3.51 0-.106-.106-.106-.213-.106-.106 0-.106 0-.212.107l-1.383 1.17c-.106 0-.106.106-.106.212v.213a98.4 98.4 0 0 0 2.977 4.04c-.85.426-1.807.745-2.658.745h-.213c-1.701 0-3.084-.638-4.147-2.02-.957-1.276-1.489-3.084-1.489-5.317s.532-4.041 1.489-5.317c.957-1.276 2.34-2.02 4.147-2.02h.213c1.808 0 3.084.637 4.147 1.913.957 1.276 1.489 3.084 1.489 5.317 0 1.914-.425 3.403-1.064 4.573Z"></path></g><defs><clipPath id="svg-1804021538_5661_a"><path fill="#fff" transform="translate(33.5 19.05)" d="M0 0h151v31.901H0z"></path></clipPath></defs></svg>