<svg xmlns="http://www.w3.org/2000/svg" width="46" height="46" fill="none" id="svg31211888_967"><g clip-path="url(#svg31211888_967_a)"><rect x=".9" y=".575" width="45" height="45" rx="9.045" fill="#401DA7"></rect><path d="M13.417 21.245c4.56-.75 8.133-4.521 8.884-9.08l.252-2.192c.06-.35-.174-.832-.615-.799-3.447.268-6.695 1.405-8.507 2.145a2.386 2.386 0 0 0-1.483 2.21v7.15c0 .424.38.745.798.678l.67-.109v-.003ZM24.5 12.162c.751 4.562 4.323 8.33 8.884 9.08l.67.11a.686.686 0 0 0 .8-.68v-7.15a2.39 2.39 0 0 0-1.484-2.209c-1.81-.74-5.06-1.876-8.507-2.144-.441-.034-.67.455-.617.798l.25 2.193.004.002Zm8.88 11.083c-6.23 1.229-9.124 5.37-9.124 13.213 0 .394.391.665.718.447 2.866-1.932 9.172-6.977 9.823-13.289.025-.796-.97-.421-1.416-.371Zm-19.962 0c6.232 1.229 9.125 5.37 9.125 13.213 0 .394-.391.665-.718.447-2.865-1.932-9.172-6.977-9.823-13.289-.025-.796.97-.421 1.416-.371Z" fill="#fff"></path></g><defs><clipPath id="svg31211888_967_a"><path fill="#fff" transform="translate(.9 .575)" d="M0 0h45v45H0z"></path></clipPath></defs></svg>