<svg xmlns="http://www.w3.org/2000/svg" width="46" height="46" fill="none" id="svg90597480_1943"><path d="M.2 9.784A9.045 9.045 0 0 1 9.246.738h26.91A9.045 9.045 0 0 1 45.2 9.784v26.91a9.045 9.045 0 0 1-9.045 9.044H9.245A9.045 9.045 0 0 1 .2 36.693V9.783Z" fill="#fff"></path><path d="M37.716 14.958a17.266 17.266 0 0 0-6.311-6.311C28.748 7.097 25.847 6.32 22.7 6.32c-3.146 0-6.048.775-8.704 2.326a17.264 17.264 0 0 0-6.311 6.31c-1.55 2.658-2.326 5.56-2.326 8.705 0 3.779 1.102 7.177 3.308 10.195 2.205 3.018 5.054 5.106 8.546 6.265.407.076.708.023.903-.157a.883.883 0 0 0 .294-.678l-.012-1.219c-.007-.768-.011-1.438-.011-2.01l-.52.09c-.33.061-.748.087-1.253.08a9.557 9.557 0 0 1-1.569-.158 3.508 3.508 0 0 1-1.513-.677 2.864 2.864 0 0 1-.993-1.389l-.226-.52c-.15-.345-.387-.73-.711-1.15-.324-.422-.651-.708-.982-.859l-.158-.113a1.654 1.654 0 0 1-.294-.271 1.235 1.235 0 0 1-.203-.316c-.045-.106-.008-.192.113-.26.12-.068.339-.101.655-.101l.451.067c.301.06.674.24 1.118.542.444.301.809.692 1.095 1.174.346.617.764 1.088 1.253 1.411.49.324.982.486 1.48.486a6.42 6.42 0 0 0 1.286-.113c.361-.075.7-.188 1.016-.339.136-1.009.505-1.784 1.106-2.326a15.505 15.505 0 0 1-2.314-.406 9.214 9.214 0 0 1-2.122-.881 6.078 6.078 0 0 1-1.818-1.513c-.482-.602-.877-1.392-1.185-2.37-.309-.98-.463-2.108-.463-3.388 0-1.821.595-3.372 1.784-4.651-.557-1.37-.505-2.905.158-4.606.436-.136 1.084-.034 1.942.305.858.338 1.486.628 1.885.869.4.24.719.444.96.61a16 16 0 0 1 4.335-.587c1.49 0 2.936.195 4.336.586l.858-.541c.587-.362 1.28-.693 2.077-.994.798-.3 1.408-.384 1.83-.248.677 1.701.737 3.236.18 4.606 1.189 1.28 1.784 2.83 1.784 4.652 0 1.279-.155 2.412-.463 3.398-.309.986-.707 1.776-1.196 2.37a6.313 6.313 0 0 1-1.83 1.502c-.73.407-1.438.7-2.122.88a15.38 15.38 0 0 1-2.315.408c.783.677 1.174 1.746 1.174 3.206v4.764a.9.9 0 0 0 .283.677c.188.18.485.233.891.158 3.493-1.16 6.342-3.248 8.547-6.266 2.205-3.018 3.308-6.416 3.308-10.195 0-3.145-.776-6.046-2.326-8.703Z" fill="#14171C"></path></svg>