<svg xmlns="http://www.w3.org/2000/svg" width="46" height="46" fill="none" id="svg-190353445_1132"><g clip-path="url(#svg-190353445_1132_a)"><rect x=".5" y=".922" width="45" height="45" rx="9.045" fill="#F5F2F2"></rect><path d="M16.652 20.895h3.85c-.961-.601-1.321-1.444-1.804-3.007l-1.445-5.355c-.66-2.406-1.203-3.55-3.85-3.55H7.87v1.444h.784c1.622 0 1.804.602 2.287 2.407l1.263 4.694c.66 2.287 1.686 3.367 4.452 3.367h-.004Zm8.905 0h3.85c2.767 0 3.728-1.084 4.394-3.367l1.262-4.694c.483-1.805.72-2.407 2.288-2.407h.784V8.983H32.66c-2.707 0-3.25 1.084-3.85 3.55l-1.445 5.355c-.483 1.622-.848 2.406-1.81 3.007Zm-5.054 5.054h5.054v-5.054h-5.054v5.054ZM7.87 37.862h5.532c2.648 0 3.19-1.144 3.851-3.55l1.445-5.355c.483-1.563.843-2.406 1.805-3.008h-3.851c-2.767 0-3.792 1.085-4.453 3.368l-1.262 4.694c-.483 1.805-.661 2.406-2.288 2.406h-.784v1.445h.005Zm24.782 0h5.473v-1.445h-.783c-1.564 0-1.805-.601-2.288-2.406l-1.263-4.694c-.66-2.288-1.622-3.368-4.393-3.368h-3.841c.961.602 1.312 1.386 1.795 3.008l1.445 5.355c.601 2.465 1.143 3.55 3.85 3.55h.005Z" fill="#000"></path></g><defs><clipPath id="svg-190353445_1132_a"><path fill="#fff" transform="translate(.5 .922)" d="M0 0h45v45H0z"></path></clipPath></defs></svg>