<svg xmlns="http://www.w3.org/2000/svg" width="46" height="46" fill="none" id="svg807696336_1679"><g clip-path="url(#svg807696336_1679_a)"><rect x=".5" y=".014" width="45" height="45" rx="9.045" fill="#fff"></rect><path d="M17.765 7.712h9.297L17.41 36.308a1.482 1.482 0 0 1-1.404 1.009H8.771a1.48 1.48 0 0 1-1.403-1.953L16.36 8.72a1.482 1.482 0 0 1 1.405-1.009Z" fill="url(#svg807696336_1679_b)"></path><path d="M31.275 26.892H16.532a.682.682 0 0 0-.466 1.182l9.474 8.842c.275.258.639.4 1.016.4h8.348l-3.629-10.424Z" fill="#0078D4"></path><path d="M17.765 7.712a1.47 1.47 0 0 0-1.408 1.028l-8.978 26.6a1.478 1.478 0 0 0 1.395 1.977h7.423a1.587 1.587 0 0 0 1.217-1.036l1.79-5.276 6.395 5.964c.268.222.605.345.953.348h8.316l-3.647-10.425-10.634.003 6.508-19.183h-9.33Z" fill="url(#svg807696336_1679_c)"></path><path d="M29.64 8.72a1.48 1.48 0 0 0-1.403-1.008H17.875a1.48 1.48 0 0 1 1.403 1.007l8.992 26.644a1.48 1.48 0 0 1-1.402 1.954H37.23a1.48 1.48 0 0 0 1.402-1.954L29.64 8.72Z" fill="url(#svg807696336_1679_d)"></path></g><defs><linearGradient id="svg807696336_1679_b" x1="21.153" y1="9.906" x2="11.498" y2="38.43" gradientUnits="userSpaceOnUse"><stop stop-color="#114A8B"></stop><stop offset="1" stop-color="#0669BC"></stop></linearGradient><linearGradient id="svg807696336_1679_c" x1="24.169" y1="23.199" x2="21.936" y2="23.954" gradientUnits="userSpaceOnUse"><stop stop-opacity=".3"></stop><stop offset=".071" stop-opacity=".2"></stop><stop offset=".321" stop-opacity=".1"></stop><stop offset=".623" stop-opacity=".05"></stop><stop offset="1" stop-opacity="0"></stop></linearGradient><linearGradient id="svg807696336_1679_d" x1="22.941" y1="9.074" x2="33.54" y2="37.311" gradientUnits="userSpaceOnUse"><stop stop-color="#3CCBF4"></stop><stop offset="1" stop-color="#2892DF"></stop></linearGradient><clipPath id="svg807696336_1679_a"><path fill="#fff" transform="translate(.5 .014)" d="M0 0h45v45H0z"></path></clipPath></defs></svg>