<svg xmlns="http://www.w3.org/2000/svg" width="25" height="24" fill="none" id="svg1122351782_736"><path fill-rule="evenodd" clip-rule="evenodd" d="M9.975 1.35a5.4 5.4 0 1 0 0 10.8 5.4 5.4 0 0 0 0-10.8Zm-3.6 5.4a3.6 3.6 0 1 1 7.2 0 3.6 3.6 0 0 1-7.2 0Zm2.297 7.35c-2.95 0-5.539 1.961-6.422 4.815l-.19.614c-.468 1.513.622 3.121 2.25 3.121h11.33c1.628 0 2.718-1.608 2.25-3.12l-.19-.615c-.883-2.854-3.472-4.815-6.422-4.815H8.672ZM3.97 19.447C4.628 17.32 6.538 15.9 8.672 15.9h2.606c2.134 0 4.044 1.42 4.702 3.547l.19.614c.131.422-.183.789-.53.789H4.31c-.347 0-.661-.367-.53-.789l.19-.614Z" fill="#F4E28D"></path><path d="M20.1 8.1a.9.9 0 0 1 .9.9v2.1h2.1a.9.9 0 0 1 0 1.8H21V15a.9.9 0 1 1-1.8 0v-2.1h-2.1a.9.9 0 1 1 0-1.8h2.1V9a.9.9 0 0 1 .9-.9Z" fill="#F4E28D"></path></svg>