<svg xmlns="http://www.w3.org/2000/svg" width="46" height="46" fill="none" id="svg916003259_1154"><g clip-path="url(#svg916003259_1154_a)"><rect x=".9" y=".483" width="45" height="45" rx="9.045" fill="#fff"></rect><path d="M36.531 8.813H21.407c0 3.759 3.06 6.819 6.82 6.819h2.797v2.666c0 3.76 3.06 6.819 6.819 6.819V10.124c0-.743-.612-1.311-1.312-1.311Z" fill="#0082FF"></path><path d="M29.057 16.33H13.933c0 3.76 3.06 6.82 6.819 6.82h2.797v2.71c0 3.759 3.06 6.819 6.82 6.819V17.686c0-.743-.613-1.355-1.312-1.355Z" fill="url(#svg916003259_1154_b)"></path><path d="M21.582 23.849H6.458a6.828 6.828 0 0 0 6.819 6.819h2.754v2.666c0 3.76 3.06 6.819 6.819 6.819V25.116c.043-.655-.569-1.267-1.268-1.267Z" fill="url(#svg916003259_1154_c)"></path></g><defs><linearGradient id="svg916003259_1154_b" x1="30.033" y1="16.363" x2="23.603" y2="22.994" gradientUnits="userSpaceOnUse"><stop offset=".18" stop-color="#0050D3"></stop><stop offset="1" stop-color="#0082FF"></stop></linearGradient><linearGradient id="svg916003259_1154_c" x1="22.98" y1="23.935" x2="15.544" y2="31.169" gradientUnits="userSpaceOnUse"><stop offset=".18" stop-color="#0050D3"></stop><stop offset="1" stop-color="#0082FF"></stop></linearGradient><clipPath id="svg916003259_1154_a"><path fill="#fff" transform="translate(.9 .483)" d="M0 0h45v45H0z"></path></clipPath></defs></svg>