<svg xmlns="http://www.w3.org/2000/svg" width="16" height="16" fill="none" id="svg141545968_1617"><path d="M14.927 4.18a7.965 7.965 0 0 0-2.912-2.911A7.825 7.825 0 0 0 8 .196c-1.451 0-2.79.357-4.016 1.073A7.964 7.964 0 0 0 1.073 4.18 7.825 7.825 0 0 0 0 8.196c0 1.743.509 3.31 1.526 4.703 1.017 1.392 2.332 2.355 3.943 2.89.187.035.326.01.416-.073a.408.408 0 0 0 .136-.312l-.006-.563a92.867 92.867 0 0 1-.005-.926l-.24.04c-.152.029-.345.04-.578.037a4.4 4.4 0 0 1-.724-.073 1.618 1.618 0 0 1-.697-.312 1.322 1.322 0 0 1-.459-.64l-.104-.24a2.602 2.602 0 0 0-.328-.531c-.15-.195-.3-.326-.453-.396l-.073-.052a.764.764 0 0 1-.135-.125.57.57 0 0 1-.094-.146c-.02-.049-.004-.089.052-.12.056-.031.156-.047.302-.047l.208.031c.14.028.311.112.516.25.205.14.373.32.505.542.16.285.352.502.578.651.226.15.453.224.682.224.23 0 .428-.017.594-.052a2.07 2.07 0 0 0 .469-.156c.062-.466.233-.823.51-1.073a7.132 7.132 0 0 1-1.067-.188 4.25 4.25 0 0 1-.98-.406 2.803 2.803 0 0 1-.838-.698c-.222-.278-.405-.643-.547-1.094-.142-.451-.213-.972-.213-1.562 0-.84.274-1.556.823-2.146-.257-.632-.233-1.34.073-2.125.2-.063.5-.016.895.14.396.157.686.29.87.402.184.11.332.205.443.28a7.397 7.397 0 0 1 2-.27c.687 0 1.354.09 2 .27l.396-.249c.27-.167.59-.32.958-.458.368-.14.65-.178.844-.115.312.785.34 1.493.083 2.125.549.59.823 1.306.823 2.146a5.26 5.26 0 0 1-.213 1.567c-.143.455-.326.82-.552 1.094a2.91 2.91 0 0 1-.844.693 4.26 4.26 0 0 1-.98.406 7.13 7.13 0 0 1-1.067.188c.361.312.542.805.542 1.479v2.198c0 .124.043.229.13.312.087.083.224.108.411.073 1.611-.535 2.926-1.498 3.943-2.89C15.491 11.505 16 9.938 16 8.194c0-1.45-.358-2.79-1.073-4.015Z" fill="#DEDFE3"></path></svg>