<svg xmlns="http://www.w3.org/2000/svg" width="23" height="17" fill="none" id="svg-1274645714_674"><g clip-path="url(#svg-1274645714_674_a)"><path d="M22.52 3.081a2.914 2.914 0 0 0-.743-1.305 2.886 2.886 0 0 0-1.29-.757C18.691.532 11.5.532 11.5.532s-7.192 0-8.986.487a2.887 2.887 0 0 0-1.29.757 2.915 2.915 0 0 0-.743 1.305c-.48 1.818-.48 5.612-.48 5.612s0 3.795.48 5.613a2.859 2.859 0 0 0 2.033 2.03c1.794.487 8.986.487 8.986.487s7.191 0 8.985-.488a2.86 2.86 0 0 0 2.034-2.028c.48-1.82.48-5.614.48-5.614s0-3.794-.48-5.613v.001ZM9.149 12.139v-6.89l6.01 3.444-6.01 3.446Z" fill="#F2F7F7"></path></g><defs><clipPath id="svg-1274645714_674_a"><path fill="#fff" transform="translate(.001 .532)" d="M0 0h22.998v16.291H0z"></path></clipPath></defs></svg>