<svg xmlns="http://www.w3.org/2000/svg" width="24" height="25" fill="none" id="svg-349618484_804"><g clip-path="url(#svg-349618484_804_a)" fill="#262930"><path d="M11.1 22.25a.9.9 0 1 0 1.8 0v-8.327l2.964 2.963a.9.9 0 1 0 1.273-1.272l-4.499-4.5-.012-.01a.897.897 0 0 0-1.252 0l-.011.01-4.499 4.5a.9.9 0 1 0 1.273 1.272l2.963-2.963v8.327Z"></path><path d="M22.5 2a.75.75 0 0 1 .75.75v16.5a.75.75 0 0 1-.75.75h-3.75a.75.75 0 0 1 0-1.5h3v-15h-5.433c-1.442 0-2.76.815-3.405 2.104a1.529 1.529 0 0 0-.162.684v2.087a.75.75 0 1 1-1.5 0V6.288c0-.237-.055-.471-.161-.684A3.807 3.807 0 0 0 7.684 3.5H2.25v15h3a.75.75 0 0 1 0 1.5H1.5a.75.75 0 0 1-.75-.75V2.75A.75.75 0 0 1 1.5 2h6.184c1.729 0 3.33.84 4.316 2.22A5.307 5.307 0 0 1 16.317 2H22.5Z"></path></g><defs><clipPath id="svg-349618484_804_a"><path fill="#fff" transform="translate(0 .5)" d="M0 0h24v24H0z"></path></clipPath></defs></svg>