<svg xmlns="http://www.w3.org/2000/svg" width="218" height="70" fill="none" id="svg-120508131_3792"><path d="M44.514 46.604H61.79c-.647-1.125-1.192-2.147-1.806-3.102-.102-.17-.51-.204-.75-.204h-15.81c-.58 0-.954-.136-1.227-.682-.409-.852-.954-1.67-1.5-2.624h17.279c-.648-1.124-1.227-2.147-1.875-3.135-.102-.17-.51-.17-.784-.17H39.505c-1.124 0-1.84-1.295-1.329-2.318.409-.818.92-1.056 1.84-1.056 5.112.068 10.258.034 15.37.034.51 0 .818-.136 1.056-.613.443-.887.988-1.738 1.534-2.693H40.697c.647-1.158 1.227-2.18 1.874-3.169.102-.17.511-.17.784-.17h15.812c.58 0 .92-.17 1.16-.682.442-.852.953-1.67 1.498-2.624H44.684c.92-2.42 2.045-3.374 4.123-3.34 4.26.069 8.554.034 12.814 0 1.465 0 2.488.614 3.203 1.84 2.42 4.192 4.84 8.35 7.26 12.541.238.41.238.682 0 1.091-2.42 4.158-4.84 8.315-7.225 12.473-.75 1.295-1.807 1.942-3.306 1.942-4.26-.034-8.486-.034-12.745 0-1.67.034-2.829-.613-3.579-2.078-.17-.375-.409-.75-.715-1.261Zm54.116-6.305c0 1.056.034 2.25-.034 3.408 0 .238-.306.545-.545.715-4.669 3-13.461 2.113-15.574-6.1-.988-3.85-.511-7.53 2.079-10.7 2.25-2.76 5.316-3.68 8.792-3.442 1.738.102 3.374.613 4.805 1.602.205.136.41.409.443.647a126.4 126.4 0 0 1 .034 3.646 45.217 45.217 0 0 0-.988-.783c-1.84-1.33-3.885-1.977-6.168-1.67-2.76.375-4.533 1.942-5.35 4.566-.648 2.181-.614 4.362.272 6.475 1.363 3.272 4.907 4.771 8.52 3.544 1.295-.443 2.487-1.26 3.714-1.908Zm17.108-1.295h-10.633c.205 2.215 1.534 3.578 3.681 3.85 2.079.24 4.021-.101 5.827-1.158.068-.034.171-.068.307-.17 0 .988.034 1.908 0 2.828-.034.103-.068.17-.102.273-.034.102-.137.136-.205.204-2.624 1.67-7.429 1.534-9.917-.306-1.601-1.159-2.487-2.76-2.794-4.703-.375-2.317-.136-4.533 1.09-6.577 1.534-2.488 4.362-3.68 7.395-3.135 2.556.477 4.533 2.487 5.112 5.282.137.647.205 1.295.239 1.976.034.511 0 1.057 0 1.636Zm-3.238-2.658c-.102-2.147-1.431-3.442-3.51-3.442-2.079 0-3.68 1.5-3.748 3.442h7.258Zm19.8 9.304h-3.306v-.784c0-2.829.034-5.623-.034-8.452 0-.716-.136-1.397-.477-2.045-.75-1.397-2.862-1.704-4.396-.647-.92.613-1.465 1.363-1.431 2.59.068 2.828.034 5.691.034 8.52v.817h-3.34v-15.3h3.135v2.078c.852-1.125 1.738-1.84 2.863-2.181 2.999-.92 6.85.375 6.986 5.078.102 3.373.034 6.747.034 10.155a.26.26 0 0 0-.068.17Zm31.114 0h-3.033v-2.011c-.989 1.124-2.079 1.942-3.51 2.215-3.272.647-6.101-1.397-6.271-4.703-.136-2.726-.068-5.453-.068-8.145v-2.658h3.408v9.167c0 1.704.715 2.829 1.976 3.17.75.204 1.534.136 2.25-.137.715-.272 1.295-.818 1.703-1.465.171-.341.273-.682.273-1.057.034-2.964 0-5.93 0-8.86v-.818h3.34V45.65h-.068Zm-16.631-11.11c-1.942-1.432-4.021-1.909-6.236-1.466a2.217 2.217 0 0 0-1.193.682c-.715.784-.204 1.942.954 2.283.989.273 1.977.477 2.965.716.614.136 1.193.34 1.772.58 1.636.715 2.488 1.976 2.522 3.714.034 1.772-.715 3.17-2.317 4.021-2.045 1.09-4.26 1.125-6.475.682-.92-.17-1.806-.58-2.692-.92-.171-.069-.409-.307-.409-.478-.034-1.022-.034-2.01-.034-3.135 1.329.954 2.692 1.568 4.191 1.704 1.023.068 2.045.034 3.067-.102.886-.102 1.329-.648 1.364-1.397.034-.75-.375-1.364-1.261-1.602-1.159-.307-2.318-.545-3.476-.818-3.067-.681-4.533-3.306-3.408-6.066.613-1.534 1.908-2.317 3.442-2.692a10.38 10.38 0 0 1 6.577.511c.477.204.681.477.681.988-.068.886-.034 1.772-.034 2.795Zm31.455 0a7.487 7.487 0 0 0-5.316-1.602 6.356 6.356 0 0 0-1.398.273c-.647.204-1.022.681-1.022 1.363 0 .681.375 1.193 1.022 1.363 1.091.307 2.216.58 3.306.818 1.431.34 2.795.886 3.578 2.215 1.329 2.25.341 5.248-2.181 6.27-2.964 1.193-5.929.92-8.758-.443a.917.917 0 0 1-.272-.238 1.002 1.002 0 0 1-.137-.34c-.034-.955-.034-1.943-.034-3 .273.17.443.273.648.41 2.01 1.26 4.191 1.635 6.509 1.226.988-.17 1.397-.648 1.465-1.397.034-.852-.341-1.398-1.329-1.67-1.159-.307-2.317-.511-3.476-.818-3.203-.784-4.635-3.817-3.101-6.509a4.475 4.475 0 0 1 2.419-1.977c2.522-.852 5.01-.715 7.464.273.409.17.613.409.579.886 0 .954.034 1.84.034 2.897Z" fill="#181C1F"></path></svg>