<svg xmlns="http://www.w3.org/2000/svg" viewBox="0 0 40 40" width="40" height="40" preserveAspectRatio="xMidYMid slice" style="width: 100%; height: 100%; transform: translate3d(0px, 0px, 0px);"><defs><clipPath id="__lottie_element_58"><rect width="40" height="40" x="0" y="0"></rect></clipPath><clipPath id="__lottie_element_60"><path d="M0,0 L100000,0 L100000,100000 L0,100000z"></path></clipPath><clipPath id="__lottie_element_64"><path d="M0,0 L100000,0 L100000,100000 L0,100000z"></path></clipPath><clipPath id="__lottie_element_71"><path d="M0,0 L100000,0 L100000,100000 L0,100000z"></path></clipPath><clipPath id="__lottie_element_78"><path d="M0,0 L100000,0 L100000,100000 L0,100000z"></path></clipPath><clipPath id="__lottie_element_82"><path d="M0,0 L100000,0 L100000,100000 L0,100000z"></path></clipPath></defs><g clip-path="url(#__lottie_element_58)"><g id="precomp_PGrh0v8832QJnc4dFk-yb0" clip-path="url(#__lottie_element_60)" transform="matrix(1,0,0,1,-49980,-49980)" opacity="1" style="display: block;"><g id="precomp_nGgeE__O_nOGgmbWs0HWU6" clip-path="url(#__lottie_element_82)" transform="matrix(1,0,0,1,0,0)" opacity="1" style="display: block;"></g><g id="precomp_6cCdBa-tu_fUVgxj8ILHu5" clip-path="url(#__lottie_element_78)" transform="matrix(1,0,0,1,0,0)" opacity="1" style="display: block;"></g><g id="precomp_hSHwGl4aSLUhTI4OYFxn13" clip-path="url(#__lottie_element_71)" transform="matrix(1.006142497062683,0,0,1.006142497062683,-307.125,-307.125)" opacity="0.30184072" style="display: block;"><g id="W-rzezInx3C9UvhZCq4bw4" transform="matrix(1,0,0,1,50000,50000)" opacity="1" style="display: block;"><g opacity="1" transform="matrix(1,0,0,1,0,0)"><path fill="rgb(145,234,191)" fill-opacity="1" d=" M13.5,0 C13.5,0 13.5,0 13.5,0 C13.5,0 13.5,0 13.5,0 C13.5,0 13.5,0 13.5,0 C13.5,0 13.5,0 13.5,0 M13.5,0 C13.5,7.460000038146973 7.460000038146973,13.5 0,13.5 C-7.460000038146973,13.5 -13.5,7.460000038146973 -13.5,0 C-13.5,-7.460000038146973 -7.460000038146973,-13.5 0,-13.5 C7.460000038146973,-13.5 13.5,-7.460000038146973 13.5,0"></path></g></g></g><g id="precomp_3VprvlQWNsrRW7anuISDF1" clip-path="url(#__lottie_element_64)" transform="matrix(1,0,0,1,0,0)" opacity="1" style="display: block;"><g id="MESOczDgU-xB9bnEJKkiQ2" transform="matrix(1,0,0,1,50000,50000)" opacity="1" style="display: block;"><g opacity="1" transform="matrix(1,0,0,1,0,0)"><path fill="rgb(145,234,191)" fill-opacity="1" d=" M5.369999885559082,0 C5.369999885559082,0 5.369999885559082,0 5.369999885559082,0 C5.369999885559082,0 5.369999885559082,0 5.369999885559082,0 C5.369999885559082,0 5.369999885559082,0 5.369999885559082,0 C5.369999885559082,0 5.369999885559082,0 5.369999885559082,0 M5.369999885559082,0 C5.369999885559082,3.0399999618530273 2.9700000286102295,5.5 0,5.5 C-2.9700000286102295,5.5 -5.369999885559082,3.0399999618530273 -5.369999885559082,0 C-5.369999885559082,-3.0399999618530273 -2.9700000286102295,-5.5 0,-5.5 C2.9700000286102295,-5.5 5.369999885559082,-3.0399999618530273 5.369999885559082,0"></path></g></g></g></g></g></svg>