<svg xmlns="http://www.w3.org/2000/svg" width="24" height="24" fill="none" id="svg-689140291_1691"><path d="M22.174 6.12a11.586 11.586 0 0 0-4.234-4.234C16.156.846 14.21.326 12.099.326c-2.112 0-4.059.52-5.841 1.56A11.585 11.585 0 0 0 2.023 6.12C.983 7.904.462 9.85.462 11.96c0 2.536.74 4.816 2.22 6.841 1.48 2.026 3.391 3.427 5.735 4.205.272.05.474.015.606-.106a.593.593 0 0 0 .196-.454l-.007-.819a142.69 142.69 0 0 1-.008-1.348l-.348.06a4.494 4.494 0 0 1-.841.054 6.417 6.417 0 0 1-1.053-.106 2.354 2.354 0 0 1-1.015-.455 1.923 1.923 0 0 1-.667-.931l-.152-.35a3.785 3.785 0 0 0-.477-.772c-.217-.283-.437-.475-.659-.575l-.106-.076a1.111 1.111 0 0 1-.197-.182.83.83 0 0 1-.136-.212c-.03-.071-.005-.13.076-.175.08-.046.227-.068.439-.068l.303.046c.202.04.452.161.75.363.298.202.543.465.735.788.232.414.512.73.84.947.329.217.66.326.993.326.333 0 .621-.026.864-.076.242-.05.47-.127.681-.227.091-.677.339-1.198.743-1.561a10.383 10.383 0 0 1-1.553-.273A6.192 6.192 0 0 1 7 16.234a4.08 4.08 0 0 1-1.22-1.015c-.323-.404-.589-.935-.795-1.591-.208-.657-.311-1.414-.311-2.273 0-1.222.399-2.263 1.197-3.121-.374-.92-.338-1.95.106-3.091.293-.091.727-.023 1.303.204.576.228.997.422 1.265.584.268.161.483.298.644.409.94-.263 1.91-.394 2.91-.394 1 0 1.97.131 2.909.394l.576-.364a8.156 8.156 0 0 1 1.393-.666c.536-.202.945-.258 1.228-.167.455 1.142.495 2.172.121 3.09.798.86 1.197 1.9 1.197 3.122 0 .859-.104 1.619-.31 2.28-.207.662-.475 1.192-.803 1.591-.329.4-.738.735-1.228 1.008s-.964.47-1.424.591c-.46.121-.977.213-1.553.273.525.454.788 1.172.788 2.152v3.196c0 .182.063.333.19.455.126.12.325.156.598.105 2.343-.777 4.255-2.179 5.735-4.204 1.48-2.025 2.22-4.305 2.22-6.841-.001-2.11-.522-4.057-1.562-5.84Z" fill="#F2F7F7"></path></svg>