<svg xmlns="http://www.w3.org/2000/svg" viewBox="0 0 950 89" width="950" height="89" preserveAspectRatio="xMidYMid slice" style="width: 100%; height: 100%; transform: translate3d(0px, 0px, 0px);"><defs><clipPath id="__lottie_element_481"><rect width="950" height="89" x="0" y="0"></rect></clipPath><clipPath id="__lottie_element_483"><path d="M0,0 L100000,0 L100000,100000 L0,100000z"></path></clipPath><clipPath id="__lottie_element_487"><path d="M0,0 L100000,0 L100000,100000 L0,100000z"></path></clipPath><clipPath id="__lottie_element_491"><path d="M0,0 L100000,0 L100000,100000 L0,100000z"></path></clipPath><clipPath id="__lottie_element_495"><path d="M0,0 L100000,0 L100000,100000 L0,100000z"></path></clipPath><clipPath id="__lottie_element_499"><path d="M0,0 L100000,0 L100000,100000 L0,100000z"></path></clipPath><mask id="__lottie_element_502" mask-type="alpha"><g id="precomp_IxnCjK1rF6NMNrH0bIwWJ25" clip-path="url(#__lottie_element_503)" transform="matrix(1,0,0,1,0,0)" opacity="1" style="display: block;"><g id="YEIyOi4BeIfaKCGEhlDS226" transform="matrix(1,0,0,1,50000,50000)" opacity="1" style="display: block;"><g opacity="1" transform="matrix(1,0,0,1,0,0)"><path fill="rgb(0,0,0)" fill-opacity="1" d=" M137.3000030517578,-21.969999313354492 C137.3000030517578,-25.28139877319336 134.6114044189453,-27.969999313354492 131.3000030517578,-27.969999313354492 C131.3000030517578,-27.969999313354492 -131.3000030517578,-27.969999313354492 -131.3000030517578,-27.969999313354492 C-134.6114044189453,-27.969999313354492 -137.3000030517578,-25.28139877319336 -137.3000030517578,-21.969999313354492 C-137.3000030517578,-21.969999313354492 -137.3000030517578,21.969999313354492 -137.3000030517578,21.969999313354492 C-137.3000030517578,25.28139877319336 -134.6114044189453,27.969999313354492 -131.3000030517578,27.969999313354492 C-131.3000030517578,27.969999313354492 131.3000030517578,27.969999313354492 131.3000030517578,27.969999313354492 C134.6114044189453,27.969999313354492 137.3000030517578,25.28139877319336 137.3000030517578,21.969999313354492 C137.3000030517578,21.969999313354492 137.3000030517578,-21.969999313354492 137.3000030517578,-21.969999313354492z"></path></g></g></g></mask><clipPath id="__lottie_element_503"><path d="M0,0 L100000,0 L100000,100000 L0,100000z"></path></clipPath><clipPath id="__lottie_element_510"><path d="M0,0 L100000,0 L100000,100000 L0,100000z"></path></clipPath><clipPath id="__lottie_element_514"><path d="M0,0 L100000,0 L100000,100000 L0,100000z"></path></clipPath><clipPath id="__lottie_element_518"><path d="M0,0 L100000,0 L100000,100000 L0,100000z"></path></clipPath><clipPath id="__lottie_element_522"><path d="M0,0 L100000,0 L100000,100000 L0,100000z"></path></clipPath><clipPath id="__lottie_element_544"><path d="M0,0 L100000,0 L100000,100000 L0,100000z"></path></clipPath><clipPath id="__lottie_element_575"><path d="M0,0 L100000,0 L100000,100000 L0,100000z"></path></clipPath><clipPath id="__lottie_element_582"><path d="M0,0 L100000,0 L100000,100000 L0,100000z"></path></clipPath><clipPath id="__lottie_element_586"><path d="M0,0 L100000,0 L100000,100000 L0,100000z"></path></clipPath><clipPath id="__lottie_element_590"><path d="M0,0 L100000,0 L100000,100000 L0,100000z"></path></clipPath><mask id="__lottie_element_593" mask-type="alpha"><g id="precomp_lFDqP62-znklJONSQ9oa834" clip-path="url(#__lottie_element_594)" transform="matrix(1,0,0,1,0,0)" opacity="1" style="display: block;"><g id="RLiLhZLYyzwBweFLN6lkr35" transform="matrix(1,0,0,1,50000,50000)" opacity="1" style="display: block;"><g opacity="1" transform="matrix(1,0,0,1,0,0)"><path fill="rgb(0,0,0)" fill-opacity="1" d=" M18,-19.5 C18,-19.5 -18,-19.5 -18,-19.5 C-18,-19.5 -18,19.5 -18,19.5 C-18,19.5 18,19.5 18,19.5 C18,19.5 18,-19.5 18,-19.5z"></path></g></g></g></mask><clipPath id="__lottie_element_594"><path d="M0,0 L100000,0 L100000,100000 L0,100000z"></path></clipPath><clipPath id="__lottie_element_601"><path d="M0,0 L100000,0 L100000,100000 L0,100000z"></path></clipPath><clipPath id="__lottie_element_608"><path d="M0,0 L100000,0 L100000,100000 L0,100000z"></path></clipPath><clipPath id="__lottie_element_612"><path d="M0,0 L100000,0 L100000,100000 L0,100000z"></path></clipPath><clipPath id="__lottie_element_616"><path d="M0,0 L100000,0 L100000,100000 L0,100000z"></path></clipPath><clipPath id="__lottie_element_620"><path d="M0,0 L100000,0 L100000,100000 L0,100000z"></path></clipPath><clipPath id="__lottie_element_624"><path d="M0,0 L100000,0 L100000,100000 L0,100000z"></path></clipPath><clipPath id="__lottie_element_628"><path d="M0,0 L100000,0 L100000,100000 L0,100000z"></path></clipPath></defs><g clip-path="url(#__lottie_element_481)"><g id="precomp_xSgzyWAQF0ucfygOExUa40" clip-path="url(#__lottie_element_483)" transform="matrix(1,0,0,1,-49525,-49955.5)" opacity="1" style="display: block;"><g id="precomp_zpQyGlT2JWZE2RxYKPhC041" clip-path="url(#__lottie_element_628)" transform="matrix(1,0,0,1,0,0)" opacity="1" style="display: block;"></g><g id="precomp_VM_3wG6kW2wjWctCl3xDa40" clip-path="url(#__lottie_element_624)" transform="matrix(1,0,0,1,0,0)" opacity="1" style="display: block;"></g><g id="precomp_cIexDRIoHxYIZesY1H3L01" clip-path="url(#__lottie_element_487)" transform="matrix(1,0,0,1,37.55859375,-0.1015625)" opacity="0.9999999947913772" style="display: block;"><g id="precomp_QVBM6lykgLYOeEJV3f3p839" clip-path="url(#__lottie_element_620)" transform="matrix(1,0,0,1,0,0)" opacity="1" style="display: block;"></g><g id="precomp_dyZMOeCqpIlY7cLR6olpn38" clip-path="url(#__lottie_element_616)" transform="matrix(1,0,0,1,0,0)" opacity="1" style="display: block;"></g><g id="precomp_l5-i3dzMhZjoMzCLpPcly29" clip-path="url(#__lottie_element_582)" transform="matrix(1,0,0,1,-133.96875,-24.8984375)" opacity="1" style="display: block;"><g id="precomp_cAFib0tdPSmydinUFZID037" clip-path="url(#__lottie_element_612)" transform="matrix(1,0,0,1,0,0)" opacity="1" style="display: block;"></g><g id="precomp_LuLNvmOYHcVRXf-mB2cO136" clip-path="url(#__lottie_element_608)" transform="matrix(1,0,0,1,0,0)" opacity="1" style="display: block;"></g><g id="precomp_gisCfrGY6Ru9eQgDuM_gu31" clip-path="url(#__lottie_element_590)" transform="matrix(1,0,0,1,0,0)" opacity="1" style="display: block;"><g mask="url(#__lottie_element_593)" style="display: block;"><g id="precomp_gisCfrGY6Ru9eQgDuM_gu32" clip-path="url(#__lottie_element_601)" transform="matrix(1,0,0,1,0,0)" opacity="1"><g id="BT9Gp2UbzKYfIKRv9riqK33" transform="matrix(1.333299994468689,0,0,1.333299994468689,49982,49980.5)" opacity="1" style="display: block;"><g opacity="1" transform="matrix(1,0,0,1,0,0)"><g opacity="1" transform="matrix(1,0,0,1,0,0)"><g opacity="1" transform="matrix(1,0,0,1,0,0)"><path fill="rgb(244,226,140)" fill-opacity="1" d=" M0,8.630000114440918 C0,8.630000114440918 11.779999732971191,29.030000686645508 11.779999732971191,29.030000686645508 C11.779999732971191,29.030000686645508 14.199999809265137,20.59000015258789 14.199999809265137,20.59000015258789 C14.199999809265137,20.59000015258789 14.270000457763672,20.299999237060547 14.270000457763672,20.299999237060547 C14.270000457763672,20.299999237060547 23.559999465942383,14.9399995803833 23.559999465942383,14.9399995803833 C23.559999465942383,14.9399995803833 0,8.630000114440918 0,8.630000114440918z"></path></g></g></g></g></g></g></g><g id="precomp_tsF645MCULZsqHQvm1rzB30" clip-path="url(#__lottie_element_586)" transform="matrix(1,0,0,1,0,0)" opacity="1" style="display: block;"></g></g><g id="precomp_drEwZXbcfaBqhwAqzCR682" clip-path="url(#__lottie_element_491)" transform="matrix(1,0,0,1,14.671875,16.44140625)" opacity="1" style="display: block;"><g id="precomp__2fXt4XY8h1NYjdrq2Y1427" clip-path="url(#__lottie_element_575)" transform="matrix(1,0,0,1,0,0)" opacity="1" style="display: block;"><g id="iX3iDLCaYQm8bc73TApmp28" transform="matrix(1,0,0,1,50000,50000)" opacity="1" style="display: block;"><g opacity="1" transform="matrix(1,0,0,1,0,0)"><path fill="rgb(244,226,140)" fill-opacity="1" d=" M137.3000030517578,-21.969999313354492 C137.3000030517578,-25.28139877319336 134.6114044189453,-27.969999313354492 131.3000030517578,-27.969999313354492 C131.3000030517578,-27.969999313354492 -131.3000030517578,-27.969999313354492 -131.3000030517578,-27.969999313354492 C-134.6114044189453,-27.969999313354492 -137.3000030517578,-25.28139877319336 -137.3000030517578,-21.969999313354492 C-137.3000030517578,-21.969999313354492 -137.3000030517578,21.969999313354492 -137.3000030517578,21.969999313354492 C-137.3000030517578,25.28139877319336 -134.6114044189453,27.969999313354492 -131.3000030517578,27.969999313354492 C-131.3000030517578,27.969999313354492 131.3000030517578,27.969999313354492 131.3000030517578,27.969999313354492 C134.6114044189453,27.969999313354492 137.3000030517578,25.28139877319336 137.3000030517578,21.969999313354492 C137.3000030517578,21.969999313354492 137.3000030517578,-21.969999313354492 137.3000030517578,-21.969999313354492z"></path></g></g></g><g id="precomp_LheBepNnJVG_fUh7VVYOf4" clip-path="url(#__lottie_element_499)" transform="matrix(1,0,0,1,0,0)" opacity="1" style="display: block;"><g mask="url(#__lottie_element_502)" style="display: block;"><g id="precomp_LheBepNnJVG_fUh7VVYOf5" clip-path="url(#__lottie_element_510)" transform="matrix(1,0,0,1,0,0)" opacity="1"><g id="precomp_4FPsqyK4sPEM2hgiU2w476" clip-path="url(#__lottie_element_514)" transform="matrix(1,0,0,1,1,2.5)" opacity="1" style="display: block;"><g id="precomp_RcXodfM2jyNp3uLSC10237" clip-path="url(#__lottie_element_518)" transform="matrix(1,0,0,1,0,-0.26953125)" opacity="1" style="display: block;"><g id="precomp_QunU4SBUZKKHhd6pxpD0N15" clip-path="url(#__lottie_element_544)" transform="matrix(1,0,0,1,-44.91015625,0)" opacity="1" style="display: block;"><g id="CdpVVuPorwVtU6KWUhF1024" transform="matrix(1,0,0,1,49931.62890625,50008.5390625)" opacity="1" style="display: block;"><g opacity="1" transform="matrix(1,0,0,1,0,0)"><path fill="rgb(22,28,30)" fill-opacity="1" d=" M8.149999618530273,0 C8.149999618530273,0 8.149999618530273,-18.610000610351562 8.149999618530273,-18.610000610351562 C8.149999618530273,-18.610000610351562 0.5199999809265137,-18.610000610351562 0.5199999809265137,-18.610000610351562 C0.5199999809265137,-18.610000610351562 0.5199999809265137,-21.360000610351562 0.5199999809265137,-21.360000610351562 C0.5199999809265137,-21.360000610351562 18.829999923706055,-21.360000610351562 18.829999923706055,-21.360000610351562 C18.829999923706055,-21.360000610351562 18.829999923706055,-18.610000610351562 18.829999923706055,-18.610000610351562 C18.829999923706055,-18.610000610351562 11.199999809265137,-18.610000610351562 11.199999809265137,-18.610000610351562 C11.199999809265137,-18.610000610351562 11.199999809265137,0 11.199999809265137,0 C11.199999809265137,0 8.149999618530273,0 8.149999618530273,0"></path></g></g><g id="mQmwZ-_3D2H3HeBJdBTRk23" transform="matrix(1,0,0,1,49950.96875,50008.5390625)" opacity="1" style="display: block;"><g opacity="1" transform="matrix(1,0,0,1,0,0)"><path fill="rgb(22,28,30)" fill-opacity="1" d=" M12.050000190734863,-9.460000038146973 C11.989999771118164,-10.699999809265137 11.640000343322754,-11.619999885559082 11,-12.220000267028809 C10.359999656677246,-12.819999694824219 9.5600004196167,-13.119999885559082 8.600000381469727,-13.119999885559082 C8.600000381469727,-13.119999885559082 8.600000381469727,-13.119999885559082 8.600000381469727,-13.119999885559082 C8.600000381469727,-13.119999885559082 8.359999656677246,-13.119999885559082 8.359999656677246,-13.119999885559082 C7.46999979019165,-13.119999885559082 6.659999847412109,-12.829999923706055 5.929999828338623,-12.239999771118164 C5.210000038146973,-11.649999618530273 4.71999979019165,-10.720000267028809 4.449999809265137,-9.460000038146973 C4.449999809265137,-9.460000038146973 4.449999809265137,-9.460000038146973 4.449999809265137,-9.460000038146973 C4.449999809265137,-9.460000038146973 12.050000190734863,-9.460000038146973 12.050000190734863,-9.460000038146973 M8.569999694824219,0.3100000023841858 C7.269999980926514,0.3100000023841858 6.079999923706055,0.009999999776482582 4.989999771118164,-0.5899999737739563 C3.9000000953674316,-1.2000000476837158 3.0299999713897705,-2.0999999046325684 2.359999895095825,-3.299999952316284 C1.7000000476837158,-4.5 1.3700000047683716,-5.949999809265137 1.3700000047683716,-7.659999847412109 C1.3700000047683716,-7.659999847412109 1.3700000047683716,-7.659999847412109 1.3700000047683716,-7.659999847412109 C1.3700000047683716,-9.350000381469727 1.7000000476837158,-10.789999961853027 2.359999895095825,-11.979999542236328 C3.0299999713897705,-13.170000076293945 3.9000000953674316,-14.0600004196167 4.989999771118164,-14.65999984741211 C6.079999923706055,-15.260000228881836 7.239999771118164,-15.5600004196167 8.479999542236328,-15.5600004196167 C8.479999542236328,-15.5600004196167 8.479999542236328,-15.5600004196167 8.479999542236328,-15.5600004196167 C9.779999732971191,-15.5600004196167 10.920000076293945,-15.279999732971191 11.899999618530273,-14.720000267028809 C12.869999885559082,-14.15999984741211 13.630000114440918,-13.369999885559082 14.15999984741211,-12.359999656677246 C14.6899995803833,-11.34000015258789 14.949999809265137,-10.170000076293945 14.949999809265137,-8.850000381469727 C14.949999809265137,-8.850000381469727 14.949999809265137,-8.850000381469727 14.949999809265137,-8.850000381469727 C14.949999809265137,-8.300000190734863 14.949999809265137,-7.739999771118164 14.949999809265137,-7.170000076293945 C14.949999809265137,-7.170000076293945 14.949999809265137,-7.170000076293945 14.949999809265137,-7.170000076293945 C14.949999809265137,-7.170000076293945 4.269999980926514,-7.170000076293945 4.269999980926514,-7.170000076293945 C4.329999923706055,-6.070000171661377 4.570000171661377,-5.139999866485596 5,-4.389999866485596 C5.429999828338623,-3.640000104904175 5.960000038146973,-3.069999933242798 6.610000133514404,-2.700000047683716 C7.25,-2.3299999237060547 7.889999866485596,-2.140000104904175 8.539999961853027,-2.140000104904175 C8.539999961853027,-2.140000104904175 8.539999961853027,-2.140000104904175 8.539999961853027,-2.140000104904175 C8.539999961853027,-2.140000104904175 8.789999961853027,-2.140000104904175 8.789999961853027,-2.140000104904175 C9.579999923706055,-2.140000104904175 10.279999732971191,-2.3399999141693115 10.890000343322754,-2.75 C11.5,-3.1600000858306885 11.880000114440918,-3.75 12.020000457763672,-4.519999980926514 C12.020000457763672,-4.519999980926514 12.020000457763672,-4.519999980926514 12.020000457763672,-4.519999980926514 C12.020000457763672,-4.519999980926514 14.920000076293945,-4.519999980926514 14.920000076293945,-4.519999980926514 C14.649999618530273,-3.009999990463257 13.930000305175781,-1.8300000429153442 12.75,-0.9800000190734863 C11.569999694824219,-0.11999999731779099 10.180000305175781,0.3100000023841858 8.569999694824219,0.3100000023841858 C8.569999694824219,0.3100000023841858 8.569999694824219,0.3100000023841858 8.569999694824219,0.3100000023841858"></path></g></g><g id="R2QGNQlHZmM3TLjQEl2yL22" transform="matrix(1,0,0,1,49967.37890625,50008.5390625)" opacity="1" style="display: block;"><g opacity="1" transform="matrix(1,0,0,1,0,0)"><path fill="rgb(22,28,30)" fill-opacity="1" d=" M8.699999809265137,0.3100000023841858 C7.170000076293945,0.3100000023841858 5.860000133514404,-0.03999999910593033 4.760000228881836,-0.7300000190734863 C3.6600000858306885,-1.4199999570846558 2.819999933242798,-2.369999885559082 2.240000009536743,-3.569999933242798 C1.659999966621399,-4.769999980926514 1.3700000047683716,-6.119999885559082 1.3700000047683716,-7.630000114440918 C1.3700000047683716,-7.630000114440918 1.3700000047683716,-7.630000114440918 1.3700000047683716,-7.630000114440918 C1.3700000047683716,-9.140000343322754 1.659999966621399,-10.489999771118164 2.240000009536743,-11.6899995803833 C2.819999933242798,-12.890000343322754 3.6600000858306885,-13.829999923706055 4.760000228881836,-14.520000457763672 C5.860000133514404,-15.210000038146973 7.170000076293945,-15.5600004196167 8.699999809265137,-15.5600004196167 C8.699999809265137,-15.5600004196167 8.699999809265137,-15.5600004196167 8.699999809265137,-15.5600004196167 C9.850000381469727,-15.5600004196167 10.880000114440918,-15.34000015258789 11.789999961853027,-14.899999618530273 C12.699999809265137,-14.470000267028809 13.420000076293945,-13.850000381469727 13.970000267028809,-13.039999961853027 C14.520000457763672,-12.239999771118164 14.850000381469727,-11.300000190734863 14.949999809265137,-10.220000267028809 C14.949999809265137,-10.220000267028809 14.949999809265137,-10.220000267028809 14.949999809265137,-10.220000267028809 C14.949999809265137,-10.220000267028809 12.050000190734863,-10.220000267028809 12.050000190734863,-10.220000267028809 C11.90999984741211,-11.069999694824219 11.550000190734863,-11.770000457763672 10.970000267028809,-12.3100004196167 C10.390000343322754,-12.850000381469727 9.670000076293945,-13.119999885559082 8.819999694824219,-13.119999885559082 C8.819999694824219,-13.119999885559082 8.819999694824219,-13.119999885559082 8.819999694824219,-13.119999885559082 C8.819999694824219,-13.119999885559082 8.569999694824219,-13.119999885559082 8.569999694824219,-13.119999885559082 C7.639999866485596,-13.119999885559082 6.840000152587891,-12.869999885559082 6.190000057220459,-12.369999885559082 C5.539999961853027,-11.869999885559082 5.059999942779541,-11.199999809265137 4.739999771118164,-10.369999885559082 C4.429999828338623,-9.539999961853027 4.269999980926514,-8.619999885559082 4.269999980926514,-7.630000114440918 C4.269999980926514,-7.630000114440918 4.269999980926514,-7.630000114440918 4.269999980926514,-7.630000114440918 C4.269999980926514,-6.079999923706055 4.639999866485596,-4.78000020980835 5.389999866485596,-3.7200000286102295 C6.130000114440918,-2.6700000762939453 7.190000057220459,-2.140000104904175 8.569999694824219,-2.140000104904175 C8.569999694824219,-2.140000104904175 8.569999694824219,-2.140000104904175 8.569999694824219,-2.140000104904175 C8.569999694824219,-2.140000104904175 8.819999694824219,-2.140000104904175 8.819999694824219,-2.140000104904175 C9.670000076293945,-2.140000104904175 10.390000343322754,-2.4100000858306885 10.970000267028809,-2.940000057220459 C11.550000190734863,-3.4800000190734863 11.90999984741211,-4.179999828338623 12.050000190734863,-5.03000020980835 C12.050000190734863,-5.03000020980835 12.050000190734863,-5.03000020980835 12.050000190734863,-5.03000020980835 C12.050000190734863,-5.03000020980835 14.949999809265137,-5.03000020980835 14.949999809265137,-5.03000020980835 C14.8100004196167,-3.380000114440918 14.170000076293945,-2.0799999237060547 13.029999732971191,-1.1299999952316284 C11.890000343322754,-0.17000000178813934 10.449999809265137,0.3100000023841858 8.699999809265137,0.3100000023841858 C8.699999809265137,0.3100000023841858 8.699999809265137,0.3100000023841858 8.699999809265137,0.3100000023841858"></path></g></g><g id="ftSWlxb9Y-guI8ENtIhVU21" transform="matrix(1,0,0,1,49983.62109375,50008.5390625)" opacity="1" style="display: block;"><g opacity="1" transform="matrix(1,0,0,1,0,0)"><path fill="rgb(22,28,30)" fill-opacity="1" d=" M2.2899999618530273,0 C2.2899999618530273,0 2.2899999618530273,-21.360000610351562 2.2899999618530273,-21.360000610351562 C2.2899999618530273,-21.360000610351562 5.190000057220459,-21.360000610351562 5.190000057220459,-21.360000610351562 C5.190000057220459,-21.360000610351562 5.190000057220459,-13.119999885559082 5.190000057220459,-13.119999885559082 C5.699999809265137,-13.869999885559082 6.349999904632568,-14.470000267028809 7.139999866485596,-14.899999618530273 C7.929999828338623,-15.34000015258789 8.90999984741211,-15.5600004196167 10.069999694824219,-15.5600004196167 C10.069999694824219,-15.5600004196167 10.069999694824219,-15.5600004196167 10.069999694824219,-15.5600004196167 C11.229999542236328,-15.5600004196167 12.220000267028809,-15.34000015258789 13.039999961853027,-14.899999618530273 C13.869999885559082,-14.470000267028809 14.489999771118164,-13.850000381469727 14.920000076293945,-13.039999961853027 C15.350000381469727,-12.239999771118164 15.5600004196167,-11.300000190734863 15.5600004196167,-10.220000267028809 C15.5600004196167,-10.220000267028809 15.5600004196167,-10.220000267028809 15.5600004196167,-10.220000267028809 C15.5600004196167,-10.220000267028809 15.5600004196167,0 15.5600004196167,0 C15.5600004196167,0 12.65999984741211,0 12.65999984741211,0 C12.65999984741211,0 12.65999984741211,-9.609999656677246 12.65999984741211,-9.609999656677246 C12.65999984741211,-10.34000015258789 12.550000190734863,-10.970000267028809 12.34000015258789,-11.489999771118164 C12.130000114440918,-12.010000228881836 11.789999961853027,-12.40999984741211 11.34000015258789,-12.6899995803833 C10.880000114440918,-12.979999542236328 10.289999961853027,-13.119999885559082 9.579999923706055,-13.119999885559082 C9.579999923706055,-13.119999885559082 9.579999923706055,-13.119999885559082 9.579999923706055,-13.119999885559082 C9.579999923706055,-13.119999885559082 9.34000015258789,-13.119999885559082 9.34000015258789,-13.119999885559082 C8.609999656677246,-13.119999885559082 7.920000076293945,-12.9399995803833 7.289999961853027,-12.569999694824219 C6.659999847412109,-12.199999809265137 6.159999847412109,-11.670000076293945 5.769999980926514,-10.979999542236328 C5.380000114440918,-10.289999961853027 5.190000057220459,-9.479999542236328 5.190000057220459,-8.539999961853027 C5.190000057220459,-8.539999961853027 5.190000057220459,-8.539999961853027 5.190000057220459,-8.539999961853027 C5.190000057220459,-8.539999961853027 5.190000057220459,0 5.190000057220459,0 C5.190000057220459,0 2.2899999618530273,0 2.2899999618530273,0"></path></g></g><g id="t_z4MZpoLj3R9WFUiVjof20" transform="matrix(1,0,0,1,50001.30859375,50008.5390625)" opacity="1" style="display: block;"><g opacity="1" transform="matrix(1,0,0,1,0,0)"><path fill="rgb(22,28,30)" fill-opacity="1" d=" M2.2899999618530273,0 C2.2899999618530273,0 2.2899999618530273,-15.260000228881836 2.2899999618530273,-15.260000228881836 C2.2899999618530273,-15.260000228881836 5.190000057220459,-15.260000228881836 5.190000057220459,-15.260000228881836 C5.190000057220459,-15.260000228881836 5.190000057220459,-13.119999885559082 5.190000057220459,-13.119999885559082 C5.699999809265137,-13.869999885559082 6.349999904632568,-14.470000267028809 7.139999866485596,-14.899999618530273 C7.929999828338623,-15.34000015258789 8.90999984741211,-15.5600004196167 10.069999694824219,-15.5600004196167 C10.069999694824219,-15.5600004196167 10.069999694824219,-15.5600004196167 10.069999694824219,-15.5600004196167 C11.229999542236328,-15.5600004196167 12.220000267028809,-15.34000015258789 13.039999961853027,-14.899999618530273 C13.869999885559082,-14.470000267028809 14.489999771118164,-13.850000381469727 14.920000076293945,-13.039999961853027 C15.350000381469727,-12.239999771118164 15.5600004196167,-11.300000190734863 15.5600004196167,-10.220000267028809 C15.5600004196167,-10.220000267028809 15.5600004196167,-10.220000267028809 15.5600004196167,-10.220000267028809 C15.5600004196167,-10.220000267028809 15.5600004196167,0 15.5600004196167,0 C15.5600004196167,0 12.65999984741211,0 12.65999984741211,0 C12.65999984741211,0 12.65999984741211,-9.609999656677246 12.65999984741211,-9.609999656677246 C12.65999984741211,-10.34000015258789 12.550000190734863,-10.970000267028809 12.34000015258789,-11.489999771118164 C12.130000114440918,-12.010000228881836 11.789999961853027,-12.40999984741211 11.34000015258789,-12.6899995803833 C10.880000114440918,-12.979999542236328 10.289999961853027,-13.119999885559082 9.579999923706055,-13.119999885559082 C9.579999923706055,-13.119999885559082 9.579999923706055,-13.119999885559082 9.579999923706055,-13.119999885559082 C9.579999923706055,-13.119999885559082 9.34000015258789,-13.119999885559082 9.34000015258789,-13.119999885559082 C8.609999656677246,-13.119999885559082 7.920000076293945,-12.9399995803833 7.289999961853027,-12.569999694824219 C6.659999847412109,-12.199999809265137 6.159999847412109,-11.670000076293945 5.769999980926514,-10.979999542236328 C5.380000114440918,-10.289999961853027 5.190000057220459,-9.479999542236328 5.190000057220459,-8.539999961853027 C5.190000057220459,-8.539999961853027 5.190000057220459,-8.539999961853027 5.190000057220459,-8.539999961853027 C5.190000057220459,-8.539999961853027 5.190000057220459,0 5.190000057220459,0 C5.190000057220459,0 2.2899999618530273,0 2.2899999618530273,0"></path></g></g><g id="tSh48pfSmEL_C9TavFiEc19" transform="matrix(1,0,0,1,50019.01171875,50008.5390625)" opacity="1" style="display: block;"><g opacity="1" transform="matrix(1,0,0,1,0,0)"><path fill="rgb(22,28,30)" fill-opacity="1" d=" M2.140000104904175,-18 C2.140000104904175,-18 2.140000104904175,-21.360000610351562 2.140000104904175,-21.360000610351562 C2.140000104904175,-21.360000610351562 5.340000152587891,-21.360000610351562 5.340000152587891,-21.360000610351562 C5.340000152587891,-21.360000610351562 5.340000152587891,-18 5.340000152587891,-18 C5.340000152587891,-18 2.140000104904175,-18 2.140000104904175,-18 M2.2899999618530273,0 C2.2899999618530273,0 2.2899999618530273,-15.260000228881836 2.2899999618530273,-15.260000228881836 C2.2899999618530273,-15.260000228881836 5.190000057220459,-15.260000228881836 5.190000057220459,-15.260000228881836 C5.190000057220459,-15.260000228881836 5.190000057220459,0 5.190000057220459,0 C5.190000057220459,0 2.2899999618530273,0 2.2899999618530273,0"></path></g></g><g id="A4NVslFtMpBdHluGe7igx18" transform="matrix(1,0,0,1,50026.48046875,50008.5390625)" opacity="1" style="display: block;"><g opacity="1" transform="matrix(1,0,0,1,0,0)"><path fill="rgb(22,28,30)" fill-opacity="1" d=" M8.699999809265137,0.3100000023841858 C7.170000076293945,0.3100000023841858 5.860000133514404,-0.03999999910593033 4.760000228881836,-0.7300000190734863 C3.6600000858306885,-1.4199999570846558 2.819999933242798,-2.369999885559082 2.240000009536743,-3.569999933242798 C1.659999966621399,-4.769999980926514 1.3700000047683716,-6.119999885559082 1.3700000047683716,-7.630000114440918 C1.3700000047683716,-7.630000114440918 1.3700000047683716,-7.630000114440918 1.3700000047683716,-7.630000114440918 C1.3700000047683716,-9.140000343322754 1.659999966621399,-10.489999771118164 2.240000009536743,-11.6899995803833 C2.819999933242798,-12.890000343322754 3.6600000858306885,-13.829999923706055 4.760000228881836,-14.520000457763672 C5.860000133514404,-15.210000038146973 7.170000076293945,-15.5600004196167 8.699999809265137,-15.5600004196167 C8.699999809265137,-15.5600004196167 8.699999809265137,-15.5600004196167 8.699999809265137,-15.5600004196167 C9.850000381469727,-15.5600004196167 10.880000114440918,-15.34000015258789 11.789999961853027,-14.899999618530273 C12.699999809265137,-14.470000267028809 13.420000076293945,-13.850000381469727 13.970000267028809,-13.039999961853027 C14.520000457763672,-12.239999771118164 14.850000381469727,-11.300000190734863 14.949999809265137,-10.220000267028809 C14.949999809265137,-10.220000267028809 14.949999809265137,-10.220000267028809 14.949999809265137,-10.220000267028809 C14.949999809265137,-10.220000267028809 12.050000190734863,-10.220000267028809 12.050000190734863,-10.220000267028809 C11.90999984741211,-11.069999694824219 11.550000190734863,-11.770000457763672 10.970000267028809,-12.3100004196167 C10.390000343322754,-12.850000381469727 9.670000076293945,-13.119999885559082 8.819999694824219,-13.119999885559082 C8.819999694824219,-13.119999885559082 8.819999694824219,-13.119999885559082 8.819999694824219,-13.119999885559082 C8.819999694824219,-13.119999885559082 8.569999694824219,-13.119999885559082 8.569999694824219,-13.119999885559082 C7.639999866485596,-13.119999885559082 6.840000152587891,-12.869999885559082 6.190000057220459,-12.369999885559082 C5.539999961853027,-11.869999885559082 5.059999942779541,-11.199999809265137 4.739999771118164,-10.369999885559082 C4.429999828338623,-9.539999961853027 4.269999980926514,-8.619999885559082 4.269999980926514,-7.630000114440918 C4.269999980926514,-7.630000114440918 4.269999980926514,-7.630000114440918 4.269999980926514,-7.630000114440918 C4.269999980926514,-6.079999923706055 4.639999866485596,-4.78000020980835 5.389999866485596,-3.7200000286102295 C6.130000114440918,-2.6700000762939453 7.190000057220459,-2.140000104904175 8.569999694824219,-2.140000104904175 C8.569999694824219,-2.140000104904175 8.569999694824219,-2.140000104904175 8.569999694824219,-2.140000104904175 C8.569999694824219,-2.140000104904175 8.819999694824219,-2.140000104904175 8.819999694824219,-2.140000104904175 C9.670000076293945,-2.140000104904175 10.390000343322754,-2.4100000858306885 10.970000267028809,-2.940000057220459 C11.550000190734863,-3.4800000190734863 11.90999984741211,-4.179999828338623 12.050000190734863,-5.03000020980835 C12.050000190734863,-5.03000020980835 12.050000190734863,-5.03000020980835 12.050000190734863,-5.03000020980835 C12.050000190734863,-5.03000020980835 14.949999809265137,-5.03000020980835 14.949999809265137,-5.03000020980835 C14.8100004196167,-3.380000114440918 14.170000076293945,-2.0799999237060547 13.029999732971191,-1.1299999952316284 C11.890000343322754,-0.17000000178813934 10.449999809265137,0.3100000023841858 8.699999809265137,0.3100000023841858 C8.699999809265137,0.3100000023841858 8.699999809265137,0.3100000023841858 8.699999809265137,0.3100000023841858"></path></g></g><g id="i-R7jXND6PTCft7WQ7Fx117" transform="matrix(1,0,0,1,50042.7109375,50008.5390625)" opacity="1" style="display: block;"><g opacity="1" transform="matrix(1,0,0,1,0,0)"><path fill="rgb(22,28,30)" fill-opacity="1" d=" M8.729999542236328,-2.140000104904175 C9.460000038146973,-2.140000104904175 10.149999618530273,-2.3499999046325684 10.800000190734863,-2.759999990463257 C11.449999809265137,-3.180000066757202 11.979999542236328,-3.809999942779541 12.390000343322754,-4.639999866485596 C12.800000190734863,-5.46999979019165 13,-6.46999979019165 13,-7.630000114440918 C13,-7.630000114440918 13,-7.630000114440918 13,-7.630000114440918 C13,-8.789999961853027 12.800000190734863,-9.789999961853027 12.390000343322754,-10.619999885559082 C11.979999542236328,-11.449999809265137 11.449999809265137,-12.079999923706055 10.800000190734863,-12.489999771118164 C10.149999618530273,-12.90999984741211 9.460000038146973,-13.119999885559082 8.729999542236328,-13.119999885559082 C8.729999542236328,-13.119999885559082 8.729999542236328,-13.119999885559082 8.729999542236328,-13.119999885559082 C8.729999542236328,-13.119999885559082 8.420000076293945,-13.119999885559082 8.420000076293945,-13.119999885559082 C7.650000095367432,-13.119999885559082 6.949999809265137,-12.90999984741211 6.320000171661377,-12.489999771118164 C5.690000057220459,-12.079999923706055 5.190000057220459,-11.460000038146973 4.840000152587891,-10.630000114440918 C4.480000019073486,-9.8100004196167 4.300000190734863,-8.8100004196167 4.300000190734863,-7.630000114440918 C4.300000190734863,-7.630000114440918 4.300000190734863,-7.630000114440918 4.300000190734863,-7.630000114440918 C4.300000190734863,-6.449999809265137 4.480000019073486,-5.449999809265137 4.840000152587891,-4.619999885559082 C5.190000057220459,-3.799999952316284 5.690000057220459,-3.180000066757202 6.320000171661377,-2.759999990463257 C6.949999809265137,-2.3499999046325684 7.650000095367432,-2.140000104904175 8.420000076293945,-2.140000104904175 C8.420000076293945,-2.140000104904175 8.420000076293945,-2.140000104904175 8.420000076293945,-2.140000104904175 C8.420000076293945,-2.140000104904175 8.729999542236328,-2.140000104904175 8.729999542236328,-2.140000104904175 M8.119999885559082,0.3100000023841858 C6.829999923706055,0.3100000023841858 5.679999828338623,-0.009999999776482582 4.670000076293945,-0.6399999856948853 C3.6500000953674316,-1.2699999809265137 2.8499999046325684,-2.190000057220459 2.2699999809265137,-3.390000104904175 C1.690000057220459,-4.590000152587891 1.399999976158142,-6 1.399999976158142,-7.630000114440918 C1.399999976158142,-7.630000114440918 1.399999976158142,-7.630000114440918 1.399999976158142,-7.630000114440918 C1.399999976158142,-9.260000228881836 1.690000057220459,-10.670000076293945 2.2699999809265137,-11.869999885559082 C2.8499999046325684,-13.069999694824219 3.6500000953674316,-13.979999542236328 4.670000076293945,-14.609999656677246 C5.679999828338623,-15.239999771118164 6.829999923706055,-15.5600004196167 8.119999885559082,-15.5600004196167 C8.119999885559082,-15.5600004196167 8.119999885559082,-15.5600004196167 8.119999885559082,-15.5600004196167 C9.319999694824219,-15.5600004196167 10.3100004196167,-15.350000381469727 11.079999923706055,-14.920000076293945 C11.850000381469727,-14.489999771118164 12.489999771118164,-13.890000343322754 13,-13.119999885559082 C13,-13.119999885559082 13,-13.119999885559082 13,-13.119999885559082 C13,-13.119999885559082 13,-15.260000228881836 13,-15.260000228881836 C13,-15.260000228881836 15.899999618530273,-15.260000228881836 15.899999618530273,-15.260000228881836 C15.899999618530273,-15.260000228881836 15.899999618530273,0 15.899999618530273,0 C15.899999618530273,0 13,0 13,0 C13,0 13,-2.140000104904175 13,-2.140000104904175 C12.489999771118164,-1.3700000047683716 11.850000381469727,-0.7699999809265137 11.079999923706055,-0.3400000035762787 C10.3100004196167,0.09000000357627869 9.319999694824219,0.3100000023841858 8.119999885559082,0.3100000023841858 C8.119999885559082,0.3100000023841858 8.119999885559082,0.3100000023841858 8.119999885559082,0.3100000023841858"></path></g></g><g id="MW7A337Mo_zx1vd3E-mOy16" transform="matrix(1,0,0,1,50060.8984375,50008.5390625)" opacity="1" style="display: block;"><g opacity="1" transform="matrix(1,0,0,1,0,0)"><path fill="rgb(22,28,30)" fill-opacity="1" d=" M2.2899999618530273,0 C2.2899999618530273,0 2.2899999618530273,-21.360000610351562 2.2899999618530273,-21.360000610351562 C2.2899999618530273,-21.360000610351562 5.190000057220459,-21.360000610351562 5.190000057220459,-21.360000610351562 C5.190000057220459,-21.360000610351562 5.190000057220459,0 5.190000057220459,0 C5.190000057220459,0 2.2899999618530273,0 2.2899999618530273,0"></path></g></g></g><g id="precomp_NJOPsnY92eI9aYXlZDy9i8" clip-path="url(#__lottie_element_522)" transform="matrix(1,0,0,1,72.1015625,0)" opacity="1" style="display: block;"><g id="PTTD4SgbDykFxaLT_FPCK14" transform="matrix(1,0,0,1,49958.80859375,50008.5390625)" opacity="1" style="display: block;"><g opacity="1" transform="matrix(1,0,0,1,0,0)"><path fill="rgb(22,28,30)" fill-opacity="1" d=" M5.340000152587891,0 C5.340000152587891,0 0.6100000143051147,-15.260000228881836 0.6100000143051147,-15.260000228881836 C0.6100000143051147,-15.260000228881836 3.6600000858306885,-15.260000228881836 3.6600000858306885,-15.260000228881836 C3.6600000858306885,-15.260000228881836 7.260000228881836,-2.319999933242798 7.260000228881836,-2.319999933242798 C7.260000228881836,-2.319999933242798 6.769999980926514,-2.319999933242798 6.769999980926514,-2.319999933242798 C6.769999980926514,-2.319999933242798 10.369999885559082,-15.260000228881836 10.369999885559082,-15.260000228881836 C10.369999885559082,-15.260000228881836 13.430000305175781,-15.260000228881836 13.430000305175781,-15.260000228881836 C13.430000305175781,-15.260000228881836 17.18000030517578,-2.319999933242798 17.18000030517578,-2.319999933242798 C17.18000030517578,-2.319999933242798 16.690000534057617,-2.319999933242798 16.690000534057617,-2.319999933242798 C16.690000534057617,-2.319999933242798 20.139999389648438,-15.260000228881836 20.139999389648438,-15.260000228881836 C20.139999389648438,-15.260000228881836 23.190000534057617,-15.260000228881836 23.190000534057617,-15.260000228881836 C23.190000534057617,-15.260000228881836 18.459999084472656,0 18.459999084472656,0 C18.459999084472656,0 15.260000228881836,0 15.260000228881836,0 C15.260000228881836,0 11.65999984741211,-12.779999732971191 11.65999984741211,-12.779999732971191 C11.65999984741211,-12.779999732971191 12.140000343322754,-12.779999732971191 12.140000343322754,-12.779999732971191 C12.140000343322754,-12.779999732971191 8.539999961853027,0 8.539999961853027,0 C8.539999961853027,0 5.340000152587891,0 5.340000152587891,0"></path></g></g><g id="hI0N0XGDqiU4wgkQbXw3Q13" transform="matrix(1,0,0,1,49982.609375,50008.5390625)" opacity="1" style="display: block;"><g opacity="1" transform="matrix(1,0,0,1,0,0)"><path fill="rgb(22,28,30)" fill-opacity="1" d=" M2.2899999618530273,0 C2.2899999618530273,0 2.2899999618530273,-15.260000228881836 2.2899999618530273,-15.260000228881836 C2.2899999618530273,-15.260000228881836 5.03000020980835,-15.260000228881836 5.03000020980835,-15.260000228881836 C5.03000020980835,-15.260000228881836 5.03000020980835,-11.899999618530273 5.03000020980835,-11.899999618530273 C5.340000152587891,-13.020000457763672 5.889999866485596,-13.880000114440918 6.699999809265137,-14.489999771118164 C7.5,-15.100000381469727 8.420000076293945,-15.40999984741211 9.460000038146973,-15.40999984741211 C9.460000038146973,-15.40999984741211 9.460000038146973,-15.40999984741211 9.460000038146973,-15.40999984741211 C9.460000038146973,-15.40999984741211 10.829999923706055,-15.40999984741211 10.829999923706055,-15.40999984741211 C10.829999923706055,-15.40999984741211 10.829999923706055,-12.600000381469727 10.829999923706055,-12.600000381469727 C10.829999923706055,-12.600000381469727 9.609999656677246,-12.600000381469727 9.609999656677246,-12.600000381469727 C8.229999542236328,-12.600000381469727 7.150000095367432,-12.170000076293945 6.360000133514404,-11.300000190734863 C5.579999923706055,-10.4399995803833 5.190000057220459,-9.25 5.190000057220459,-7.71999979019165 C5.190000057220459,-7.71999979019165 5.190000057220459,-7.71999979019165 5.190000057220459,-7.71999979019165 C5.190000057220459,-7.71999979019165 5.190000057220459,0 5.190000057220459,0 C5.190000057220459,0 2.2899999618530273,0 2.2899999618530273,0"></path></g></g><g id="ZHOHoeVi1zh3Xe7GF2-L-12" transform="matrix(1,0,0,1,49994.078125,50008.5390625)" opacity="1" style="display: block;"><g opacity="1" transform="matrix(1,0,0,1,0,0)"><path fill="rgb(22,28,30)" fill-opacity="1" d=" M2.140000104904175,-18 C2.140000104904175,-18 2.140000104904175,-21.360000610351562 2.140000104904175,-21.360000610351562 C2.140000104904175,-21.360000610351562 5.340000152587891,-21.360000610351562 5.340000152587891,-21.360000610351562 C5.340000152587891,-21.360000610351562 5.340000152587891,-18 5.340000152587891,-18 C5.340000152587891,-18 2.140000104904175,-18 2.140000104904175,-18 M2.2899999618530273,0 C2.2899999618530273,0 2.2899999618530273,-15.260000228881836 2.2899999618530273,-15.260000228881836 C2.2899999618530273,-15.260000228881836 5.190000057220459,-15.260000228881836 5.190000057220459,-15.260000228881836 C5.190000057220459,-15.260000228881836 5.190000057220459,0 5.190000057220459,0 C5.190000057220459,0 2.2899999618530273,0 2.2899999618530273,0"></path></g></g><g id="QJqUJqYsma5YW_F0SXFxY11" transform="matrix(1,0,0,1,50001.55859375,50008.5390625)" opacity="1" style="display: block;"><g opacity="1" transform="matrix(1,0,0,1,0,0)"><path fill="rgb(22,28,30)" fill-opacity="1" d=" M7.230000019073486,0 C6.170000076293945,0 5.349999904632568,-0.28999999165534973 4.760000228881836,-0.8799999952316284 C4.170000076293945,-1.4700000286102295 3.869999885559082,-2.299999952316284 3.869999885559082,-3.359999895095825 C3.869999885559082,-3.359999895095825 3.869999885559082,-3.359999895095825 3.869999885559082,-3.359999895095825 C3.869999885559082,-3.359999895095825 3.869999885559082,-12.75 3.869999885559082,-12.75 C3.869999885559082,-12.75 0.5199999809265137,-12.75 0.5199999809265137,-12.75 C0.5199999809265137,-12.75 0.5199999809265137,-15.260000228881836 0.5199999809265137,-15.260000228881836 C0.5199999809265137,-15.260000228881836 3.869999885559082,-15.260000228881836 3.869999885559082,-15.260000228881836 C3.869999885559082,-15.260000228881836 3.869999885559082,-20.200000762939453 3.869999885559082,-20.200000762939453 C3.869999885559082,-20.200000762939453 6.769999980926514,-20.200000762939453 6.769999980926514,-20.200000762939453 C6.769999980926514,-20.200000762939453 6.769999980926514,-15.260000228881836 6.769999980926514,-15.260000228881836 C6.769999980926514,-15.260000228881836 10.430000305175781,-15.260000228881836 10.430000305175781,-15.260000228881836 C10.430000305175781,-15.260000228881836 10.430000305175781,-12.75 10.430000305175781,-12.75 C10.430000305175781,-12.75 6.769999980926514,-12.75 6.769999980926514,-12.75 C6.769999980926514,-12.75 6.769999980926514,-3.809999942779541 6.769999980926514,-3.809999942779541 C6.769999980926514,-3.359999895095825 6.860000133514404,-3.049999952316284 7.050000190734863,-2.869999885559082 C7.230000019073486,-2.680000066757202 7.539999961853027,-2.5899999141693115 7.989999771118164,-2.5899999141693115 C7.989999771118164,-2.5899999141693115 7.989999771118164,-2.5899999141693115 7.989999771118164,-2.5899999141693115 C7.989999771118164,-2.5899999141693115 10.890000343322754,-2.5899999141693115 10.890000343322754,-2.5899999141693115 C10.890000343322754,-2.5899999141693115 10.890000343322754,0 10.890000343322754,0 C10.890000343322754,0 7.230000019073486,0 7.230000019073486,0"></path></g></g><g id="z06suREfyiYNOiRkBleq310" transform="matrix(1,0,0,1,50013.30078125,50008.5390625)" opacity="1" style="display: block;"><g opacity="1" transform="matrix(1,0,0,1,0,0)"><path fill="rgb(22,28,30)" fill-opacity="1" d=" M12.050000190734863,-9.460000038146973 C11.989999771118164,-10.699999809265137 11.640000343322754,-11.619999885559082 11,-12.220000267028809 C10.359999656677246,-12.819999694824219 9.5600004196167,-13.119999885559082 8.600000381469727,-13.119999885559082 C8.600000381469727,-13.119999885559082 8.600000381469727,-13.119999885559082 8.600000381469727,-13.119999885559082 C8.600000381469727,-13.119999885559082 8.359999656677246,-13.119999885559082 8.359999656677246,-13.119999885559082 C7.46999979019165,-13.119999885559082 6.659999847412109,-12.829999923706055 5.929999828338623,-12.239999771118164 C5.210000038146973,-11.649999618530273 4.71999979019165,-10.720000267028809 4.449999809265137,-9.460000038146973 C4.449999809265137,-9.460000038146973 4.449999809265137,-9.460000038146973 4.449999809265137,-9.460000038146973 C4.449999809265137,-9.460000038146973 12.050000190734863,-9.460000038146973 12.050000190734863,-9.460000038146973 M8.569999694824219,0.3100000023841858 C7.269999980926514,0.3100000023841858 6.079999923706055,0.009999999776482582 4.989999771118164,-0.5899999737739563 C3.9000000953674316,-1.2000000476837158 3.0299999713897705,-2.0999999046325684 2.359999895095825,-3.299999952316284 C1.7000000476837158,-4.5 1.3700000047683716,-5.949999809265137 1.3700000047683716,-7.659999847412109 C1.3700000047683716,-7.659999847412109 1.3700000047683716,-7.659999847412109 1.3700000047683716,-7.659999847412109 C1.3700000047683716,-9.350000381469727 1.7000000476837158,-10.789999961853027 2.359999895095825,-11.979999542236328 C3.0299999713897705,-13.170000076293945 3.9000000953674316,-14.0600004196167 4.989999771118164,-14.65999984741211 C6.079999923706055,-15.260000228881836 7.239999771118164,-15.5600004196167 8.479999542236328,-15.5600004196167 C8.479999542236328,-15.5600004196167 8.479999542236328,-15.5600004196167 8.479999542236328,-15.5600004196167 C9.779999732971191,-15.5600004196167 10.920000076293945,-15.279999732971191 11.899999618530273,-14.720000267028809 C12.869999885559082,-14.15999984741211 13.630000114440918,-13.369999885559082 14.15999984741211,-12.359999656677246 C14.6899995803833,-11.34000015258789 14.949999809265137,-10.170000076293945 14.949999809265137,-8.850000381469727 C14.949999809265137,-8.850000381469727 14.949999809265137,-8.850000381469727 14.949999809265137,-8.850000381469727 C14.949999809265137,-8.300000190734863 14.949999809265137,-7.739999771118164 14.949999809265137,-7.170000076293945 C14.949999809265137,-7.170000076293945 14.949999809265137,-7.170000076293945 14.949999809265137,-7.170000076293945 C14.949999809265137,-7.170000076293945 4.269999980926514,-7.170000076293945 4.269999980926514,-7.170000076293945 C4.329999923706055,-6.070000171661377 4.570000171661377,-5.139999866485596 5,-4.389999866485596 C5.429999828338623,-3.640000104904175 5.960000038146973,-3.069999933242798 6.610000133514404,-2.700000047683716 C7.25,-2.3299999237060547 7.889999866485596,-2.140000104904175 8.539999961853027,-2.140000104904175 C8.539999961853027,-2.140000104904175 8.539999961853027,-2.140000104904175 8.539999961853027,-2.140000104904175 C8.539999961853027,-2.140000104904175 8.789999961853027,-2.140000104904175 8.789999961853027,-2.140000104904175 C9.579999923706055,-2.140000104904175 10.279999732971191,-2.3399999141693115 10.890000343322754,-2.75 C11.5,-3.1600000858306885 11.880000114440918,-3.75 12.020000457763672,-4.519999980926514 C12.020000457763672,-4.519999980926514 12.020000457763672,-4.519999980926514 12.020000457763672,-4.519999980926514 C12.020000457763672,-4.519999980926514 14.920000076293945,-4.519999980926514 14.920000076293945,-4.519999980926514 C14.649999618530273,-3.009999990463257 13.930000305175781,-1.8300000429153442 12.75,-0.9800000190734863 C11.569999694824219,-0.11999999731779099 10.180000305175781,0.3100000023841858 8.569999694824219,0.3100000023841858 C8.569999694824219,0.3100000023841858 8.569999694824219,0.3100000023841858 8.569999694824219,0.3100000023841858"></path></g></g><g id="b3j_os7zMpiRPTFRebcaJ9" transform="matrix(1,0,0,1,50029.71875,50008.5390625)" opacity="1" style="display: block;"><g opacity="1" transform="matrix(1,0,0,1,0,0)"><path fill="rgb(22,28,30)" fill-opacity="1" d=" M2.2899999618530273,0 C2.2899999618530273,0 2.2899999618530273,-15.260000228881836 2.2899999618530273,-15.260000228881836 C2.2899999618530273,-15.260000228881836 5.03000020980835,-15.260000228881836 5.03000020980835,-15.260000228881836 C5.03000020980835,-15.260000228881836 5.03000020980835,-11.899999618530273 5.03000020980835,-11.899999618530273 C5.340000152587891,-13.020000457763672 5.889999866485596,-13.880000114440918 6.699999809265137,-14.489999771118164 C7.5,-15.100000381469727 8.420000076293945,-15.40999984741211 9.460000038146973,-15.40999984741211 C9.460000038146973,-15.40999984741211 9.460000038146973,-15.40999984741211 9.460000038146973,-15.40999984741211 C9.460000038146973,-15.40999984741211 10.829999923706055,-15.40999984741211 10.829999923706055,-15.40999984741211 C10.829999923706055,-15.40999984741211 10.829999923706055,-12.600000381469727 10.829999923706055,-12.600000381469727 C10.829999923706055,-12.600000381469727 9.609999656677246,-12.600000381469727 9.609999656677246,-12.600000381469727 C8.229999542236328,-12.600000381469727 7.150000095367432,-12.170000076293945 6.360000133514404,-11.300000190734863 C5.579999923706055,-10.4399995803833 5.190000057220459,-9.25 5.190000057220459,-7.71999979019165 C5.190000057220459,-7.71999979019165 5.190000057220459,-7.71999979019165 5.190000057220459,-7.71999979019165 C5.190000057220459,-7.71999979019165 5.190000057220459,0 5.190000057220459,0 C5.190000057220459,0 2.2899999618530273,0 2.2899999618530273,0"></path></g></g></g></g></g></g></g></g><g id="precomp_BG6y1SfhLJ-ORvarlOMl03" clip-path="url(#__lottie_element_495)" transform="matrix(1,0,0,1,0,0)" opacity="1" style="display: block;"></g></g></g></g></g></svg>