<svg xmlns="http://www.w3.org/2000/svg" width="17" height="16" fill="none"><path fill="#3F89A1" fill-rule="evenodd" d="M5.001 2.2a1.4 1.4 0 0 0-1.4 1.4v9.26h-1.2V3.6a2.6 2.6 0 0 1 2.6-2.6h6.523a2.6 2.6 0 0 1 2.6 2.594l.015 6.529a1.599 1.599 0 0 1-1.6 1.603H8.474v-1.2h4.065a.401.401 0 0 0 .4-.4l-.015-6.53a1.4 1.4 0 0 0-1.4-1.396H5.001z" clip-rule="evenodd"/><path fill="#3F89A1" d="M8.311 11.719h.6v-1.2h-.6v1.2zm5.21 3.354a.6.6 0 1 0 0-1.2v1.2zm-8.843-3.354H8.31v-1.2H4.678v1.2zm8.842 2.154H4.678v1.2h8.842v-1.2zm-8.842 0a1.077 1.077 0 0 1-1.077-1.077h-1.2a2.277 2.277 0 0 0 2.277 2.277v-1.2zm0-3.354a2.277 2.277 0 0 0-2.277 2.277h1.2c0-.595.482-1.077 1.077-1.077v-1.2z"/><path fill="#3F89A1" fill-rule="evenodd" d="M5.76 5.105a.6.6 0 0 1 .6-.6h3.822a.6.6 0 0 1 0 1.2H6.36a.6.6 0 0 1-.6-.6zm7.827 5.192a.6.6 0 0 1 .22.82c-.318.552-.446 1.038-.425 1.488.02.45.192.925.577 1.452a.6.6 0 0 1-.97.707c-.49-.671-.772-1.368-.806-2.103-.034-.735.183-1.446.584-2.143a.6.6 0 0 1 .82-.22z" clip-rule="evenodd"/></svg>