<svg xmlns="http://www.w3.org/2000/svg" width="24" height="25" fill="none" id="svg322333443_1013"><path fill-rule="evenodd" clip-rule="evenodd" d="M6.9 3.8a2.1 2.1 0 0 0-2.1 2.1v13.89H3V5.9A3.9 3.9 0 0 1 6.9 2h9.785a3.9 3.9 0 0 1 3.9 3.89l.022 9.794a2.397 2.397 0 0 1-2.4 2.405H12.11v-1.8h6.097a.6.6 0 0 0 .6-.6v-.001l-.022-9.793a2.1 2.1 0 0 0-2.1-2.095H6.9Z" fill="#262930"></path><path d="M11.865 18.079h.9v-1.8h-.9v1.8Zm7.814 5.03a.9.9 0 0 0 0-1.8v1.8ZM6.416 18.08h5.448v-1.8H6.416v1.8Zm13.263 3.23H6.416v1.8h13.263v-1.8Zm-13.263 0A1.615 1.615 0 0 1 4.8 19.695H3a3.415 3.415 0 0 0 3.416 3.416v-1.8Zm0-5.03A3.416 3.416 0 0 0 3 19.694h1.8c0-.892.723-1.615 1.616-1.615v-1.8Z" fill="#262930"></path><path fill-rule="evenodd" clip-rule="evenodd" d="M8.039 8.158a.9.9 0 0 1 .9-.9h5.733a.9.9 0 1 1 0 1.8H8.939a.9.9 0 0 1-.9-.9Zm11.74 7.788a.9.9 0 0 1 .33 1.229c-.477.829-.669 1.557-.638 2.233.032.673.288 1.386.866 2.178a.9.9 0 1 1-1.454 1.06c-.735-1.007-1.159-2.052-1.21-3.155-.05-1.101.274-2.169.876-3.215a.9.9 0 0 1 1.23-.33Z" fill="#262930"></path></svg>