<svg xmlns="http://www.w3.org/2000/svg" viewBox="0 0 950 89" width="950" height="89" preserveAspectRatio="xMidYMid slice" style="width: 100%; height: 100%; transform: translate3d(0px, 0px, 0px);"><defs><clipPath id="__lottie_element_748"><rect width="950" height="89" x="0" y="0"></rect></clipPath><clipPath id="__lottie_element_750"><path d="M0,0 L100000,0 L100000,100000 L0,100000z"></path></clipPath><clipPath id="__lottie_element_754"><path d="M0,0 L100000,0 L100000,100000 L0,100000z"></path></clipPath><clipPath id="__lottie_element_758"><path d="M0,0 L100000,0 L100000,100000 L0,100000z"></path></clipPath><clipPath id="__lottie_element_762"><path d="M0,0 L100000,0 L100000,100000 L0,100000z"></path></clipPath><clipPath id="__lottie_element_766"><path d="M0,0 L100000,0 L100000,100000 L0,100000z"></path></clipPath><mask id="__lottie_element_769" mask-type="alpha"><g id="precomp_3HOmHrs6vekj5RrZZAsTX16" clip-path="url(#__lottie_element_770)" transform="matrix(1,0,0,1,0,0)" opacity="1" style="display: block;"><g id="_BROIIZdZBmep7sn_86Hi17" transform="matrix(1,0,0,1,50000,50000)" opacity="1" style="display: block;"><g opacity="1" transform="matrix(1,0,0,1,0,0)"><path fill="rgb(0,0,0)" fill-opacity="1" d=" M82.20999908447266,-21.969999313354492 C82.20999908447266,-25.28139877319336 79.52140045166016,-27.969999313354492 76.20999908447266,-27.969999313354492 C76.20999908447266,-27.969999313354492 -76.20999908447266,-27.969999313354492 -76.20999908447266,-27.969999313354492 C-79.52140045166016,-27.969999313354492 -82.20999908447266,-25.28139877319336 -82.20999908447266,-21.969999313354492 C-82.20999908447266,-21.969999313354492 -82.20999908447266,21.969999313354492 -82.20999908447266,21.969999313354492 C-82.20999908447266,25.28139877319336 -79.52140045166016,27.969999313354492 -76.20999908447266,27.969999313354492 C-76.20999908447266,27.969999313354492 76.20999908447266,27.969999313354492 76.20999908447266,27.969999313354492 C79.52140045166016,27.969999313354492 82.20999908447266,25.28139877319336 82.20999908447266,21.969999313354492 C82.20999908447266,21.969999313354492 82.20999908447266,-21.969999313354492 82.20999908447266,-21.969999313354492z"></path></g></g></g></mask><clipPath id="__lottie_element_770"><path d="M0,0 L100000,0 L100000,100000 L0,100000z"></path></clipPath><clipPath id="__lottie_element_777"><path d="M0,0 L100000,0 L100000,100000 L0,100000z"></path></clipPath><clipPath id="__lottie_element_781"><path d="M0,0 L100000,0 L100000,100000 L0,100000z"></path></clipPath><clipPath id="__lottie_element_785"><path d="M0,0 L100000,0 L100000,100000 L0,100000z"></path></clipPath><clipPath id="__lottie_element_789"><path d="M0,0 L100000,0 L100000,100000 L0,100000z"></path></clipPath><clipPath id="__lottie_element_814"><path d="M0,0 L100000,0 L100000,100000 L0,100000z"></path></clipPath><clipPath id="__lottie_element_821"><path d="M0,0 L100000,0 L100000,100000 L0,100000z"></path></clipPath><clipPath id="__lottie_element_825"><path d="M0,0 L100000,0 L100000,100000 L0,100000z"></path></clipPath><clipPath id="__lottie_element_829"><path d="M0,0 L100000,0 L100000,100000 L0,100000z"></path></clipPath><mask id="__lottie_element_832" mask-type="alpha"><g id="precomp_9rBArrOL_SMh0t18e4mzv25" clip-path="url(#__lottie_element_833)" transform="matrix(1,0,0,1,0,0)" opacity="1" style="display: block;"><g id="R8Vjlzv6zjoNC58T0My6W26" transform="matrix(1,0,0,1,50000,50000)" opacity="1" style="display: block;"><g opacity="1" transform="matrix(1,0,0,1,0,0)"><path fill="rgb(0,0,0)" fill-opacity="1" d=" M18,-19.5 C18,-19.5 -18,-19.5 -18,-19.5 C-18,-19.5 -18,19.5 -18,19.5 C-18,19.5 18,19.5 18,19.5 C18,19.5 18,-19.5 18,-19.5z"></path></g></g></g></mask><clipPath id="__lottie_element_833"><path d="M0,0 L100000,0 L100000,100000 L0,100000z"></path></clipPath><clipPath id="__lottie_element_840"><path d="M0,0 L100000,0 L100000,100000 L0,100000z"></path></clipPath><clipPath id="__lottie_element_847"><path d="M0,0 L100000,0 L100000,100000 L0,100000z"></path></clipPath><clipPath id="__lottie_element_851"><path d="M0,0 L100000,0 L100000,100000 L0,100000z"></path></clipPath><clipPath id="__lottie_element_855"><path d="M0,0 L100000,0 L100000,100000 L0,100000z"></path></clipPath><clipPath id="__lottie_element_859"><path d="M0,0 L100000,0 L100000,100000 L0,100000z"></path></clipPath><clipPath id="__lottie_element_863"><path d="M0,0 L100000,0 L100000,100000 L0,100000z"></path></clipPath><clipPath id="__lottie_element_867"><path d="M0,0 L100000,0 L100000,100000 L0,100000z"></path></clipPath></defs><g clip-path="url(#__lottie_element_748)"><g id="precomp_p-rR99H6XCvNtj3-QVwzH0" clip-path="url(#__lottie_element_750)" transform="matrix(1,0,0,1,-49525,-49955.5)" opacity="1" style="display: block;"><g id="precomp_irekCXvOdHhDxpCpZ4ap532" clip-path="url(#__lottie_element_867)" transform="matrix(1,0,0,1,0,0)" opacity="1" style="display: block;"></g><g id="precomp_m8q-buaSet-S8scErQ8to31" clip-path="url(#__lottie_element_863)" transform="matrix(1,0,0,1,0,0)" opacity="1" style="display: block;"></g><g id="precomp_4jjGf6cz_o2Q8Zl1cnzxm1" clip-path="url(#__lottie_element_754)" transform="matrix(0.8658416867256165,0,0,0.8658416867256165,6337.0390625,6707.8125)" opacity="0.7316833076083572" style="display: block;"><g id="precomp_oOK8dYvqJC-sEtilvrr0330" clip-path="url(#__lottie_element_859)" transform="matrix(1,0,0,1,0,0)" opacity="1" style="display: block;"></g><g id="precomp_7v6QfyhDb5Vd6-rXlWt8_29" clip-path="url(#__lottie_element_855)" transform="matrix(1,0,0,1,0,0)" opacity="1" style="display: block;"></g><g id="precomp_HpiacTb63pNxG2eOK1Zcd20" clip-path="url(#__lottie_element_821)" transform="matrix(1,0,0,1,-78.87890625,-24.8984375)" opacity="1" style="display: block;"><g id="precomp_10PTnjMkIL3qnY-U3q8cs28" clip-path="url(#__lottie_element_851)" transform="matrix(1,0,0,1,0,0)" opacity="1" style="display: block;"></g><g id="precomp_xCyKho7Dm2jxBgUXO8FpA27" clip-path="url(#__lottie_element_847)" transform="matrix(1,0,0,1,0,0)" opacity="1" style="display: block;"></g><g id="precomp_4X7px46cQhaJvD2HLx4B922" clip-path="url(#__lottie_element_829)" transform="matrix(1,0,0,1,0,0)" opacity="1" style="display: block;"><g mask="url(#__lottie_element_832)" style="display: block;"><g id="precomp_4X7px46cQhaJvD2HLx4B923" clip-path="url(#__lottie_element_840)" transform="matrix(1,0,0,1,0,0)" opacity="1"><g id="FhCXByITdIEuom1JxQAVV24" transform="matrix(1.333299994468689,0,0,1.333299994468689,49982,49980.5)" opacity="1" style="display: block;"><g opacity="1" transform="matrix(1,0,0,1,0,0)"><g opacity="1" transform="matrix(1,0,0,1,0,0)"><g opacity="1" transform="matrix(1,0,0,1,0,0)"><path fill="rgb(186,221,229)" fill-opacity="1" d=" M0,8.630000114440918 C0,8.630000114440918 11.779999732971191,29.030000686645508 11.779999732971191,29.030000686645508 C11.779999732971191,29.030000686645508 14.199999809265137,20.59000015258789 14.199999809265137,20.59000015258789 C14.199999809265137,20.59000015258789 14.270000457763672,20.299999237060547 14.270000457763672,20.299999237060547 C14.270000457763672,20.299999237060547 23.559999465942383,14.9399995803833 23.559999465942383,14.9399995803833 C23.559999465942383,14.9399995803833 0,8.630000114440918 0,8.630000114440918z"></path></g></g></g></g></g></g></g><g id="precomp_mbGdWUVbelzmr6i7h_IQH21" clip-path="url(#__lottie_element_825)" transform="matrix(1,0,0,1,0,0)" opacity="1" style="display: block;"></g></g><g id="precomp_VQ51SumVn11e1tbu3evIh2" clip-path="url(#__lottie_element_758)" transform="matrix(1,0,0,1,14.671875,16.44140625)" opacity="1" style="display: block;"><g id="precomp_-P8n0Eb20K6JZX5o8hQ-l18" clip-path="url(#__lottie_element_814)" transform="matrix(1,0,0,1,0,0)" opacity="1" style="display: block;"><g id="jQG0dGQ3EWOXi2y9vOtsO19" transform="matrix(1,0,0,1,50000,50000)" opacity="1" style="display: block;"><g opacity="1" transform="matrix(1,0,0,1,0,0)"><path fill="rgb(186,221,229)" fill-opacity="1" d=" M82.20999908447266,-21.969999313354492 C82.20999908447266,-25.28139877319336 79.52140045166016,-27.969999313354492 76.20999908447266,-27.969999313354492 C76.20999908447266,-27.969999313354492 -76.20999908447266,-27.969999313354492 -76.20999908447266,-27.969999313354492 C-79.52140045166016,-27.969999313354492 -82.20999908447266,-25.28139877319336 -82.20999908447266,-21.969999313354492 C-82.20999908447266,-21.969999313354492 -82.20999908447266,21.969999313354492 -82.20999908447266,21.969999313354492 C-82.20999908447266,25.28139877319336 -79.52140045166016,27.969999313354492 -76.20999908447266,27.969999313354492 C-76.20999908447266,27.969999313354492 76.20999908447266,27.969999313354492 76.20999908447266,27.969999313354492 C79.52140045166016,27.969999313354492 82.20999908447266,25.28139877319336 82.20999908447266,21.969999313354492 C82.20999908447266,21.969999313354492 82.20999908447266,-21.969999313354492 82.20999908447266,-21.969999313354492z"></path></g></g></g><g id="precomp_doH1btHWOGUWT8jk9WBQU4" clip-path="url(#__lottie_element_766)" transform="matrix(1,0,0,1,0,0)" opacity="1" style="display: block;"><g mask="url(#__lottie_element_769)" style="display: block;"><g id="precomp_doH1btHWOGUWT8jk9WBQU5" clip-path="url(#__lottie_element_777)" transform="matrix(1,0,0,1,0,0)" opacity="1"><g id="precomp_u9wHT0g9b-XRf5xiSunpK6" clip-path="url(#__lottie_element_781)" transform="matrix(1,0,0,1,0.5,2.5)" opacity="1" style="display: block;"><g id="precomp_5kahkqxMvaoEGkwydR_q_7" clip-path="url(#__lottie_element_785)" transform="matrix(1,0,0,1,0,-0.26953125)" opacity="1" style="display: block;"><g id="precomp_Sukv-SBr7IPQbCij-kmSP8" clip-path="url(#__lottie_element_789)" transform="matrix(1,0,0,1,0,0)" opacity="1" style="display: block;"><g id="XQkkqKxL8PJr_DLA4OdzF15" transform="matrix(1,0,0,1,49943.30078125,50008.5390625)" opacity="1" style="display: block;"><g opacity="1" transform="matrix(1,0,0,1,0,0)"><path fill="rgb(22,28,30)" fill-opacity="1" d=" M9.489999771118164,0.3100000023841858 C7.800000190734863,0.3100000023841858 6.340000152587891,0.03999999910593033 5.099999904632568,-0.5 C3.8499999046325684,-1.0399999618530273 2.890000104904175,-1.850000023841858 2.200000047683716,-2.930000066757202 C1.5099999904632568,-4.010000228881836 1.1399999856948853,-5.320000171661377 1.100000023841858,-6.869999885559082 C1.100000023841858,-6.869999885559082 1.100000023841858,-6.869999885559082 1.100000023841858,-6.869999885559082 C1.100000023841858,-6.869999885559082 4.150000095367432,-6.869999885559082 4.150000095367432,-6.869999885559082 C4.150000095367432,-5.460000038146973 4.650000095367432,-4.369999885559082 5.639999866485596,-3.5999999046325684 C6.639999866485596,-2.8299999237060547 7.960000038146973,-2.440000057220459 9.609999656677246,-2.440000057220459 C9.609999656677246,-2.440000057220459 9.609999656677246,-2.440000057220459 9.609999656677246,-2.440000057220459 C9.609999656677246,-2.440000057220459 9.920000076293945,-2.440000057220459 9.920000076293945,-2.440000057220459 C11.300000190734863,-2.440000057220459 12.380000114440918,-2.75 13.170000076293945,-3.359999895095825 C13.949999809265137,-3.9700000286102295 14.34000015258789,-4.730000019073486 14.34000015258789,-5.639999866485596 C14.34000015258789,-5.639999866485596 14.34000015258789,-5.639999866485596 14.34000015258789,-5.639999866485596 C14.34000015258789,-6.5 14.069999694824219,-7.190000057220459 13.520000457763672,-7.71999979019165 C12.970000267028809,-8.25 12.119999885559082,-8.619999885559082 10.979999542236328,-8.850000381469727 C10.979999542236328,-8.850000381469727 10.979999542236328,-8.850000381469727 10.979999542236328,-8.850000381469727 C10.979999542236328,-8.850000381469727 7.570000171661377,-9.550000190734863 7.570000171661377,-9.550000190734863 C5.820000171661377,-9.920000076293945 4.480000019073486,-10.59000015258789 3.549999952316284,-11.579999923706055 C2.630000114440918,-12.569999694824219 2.1700000762939453,-13.890000343322754 2.1700000762939453,-15.5600004196167 C2.1700000762939453,-15.5600004196167 2.1700000762939453,-15.5600004196167 2.1700000762939453,-15.5600004196167 C2.1700000762939453,-16.68000030517578 2.490000009536743,-17.700000762939453 3.130000114440918,-18.6299991607666 C3.7699999809265137,-19.559999465942383 4.659999847412109,-20.290000915527344 5.809999942779541,-20.84000015258789 C6.960000038146973,-21.389999389648438 8.289999961853027,-21.65999984741211 9.789999961853027,-21.65999984741211 C9.789999961853027,-21.65999984741211 9.789999961853027,-21.65999984741211 9.789999961853027,-21.65999984741211 C11.359999656677246,-21.65999984741211 12.729999542236328,-21.389999389648438 13.899999618530273,-20.84000015258789 C15.069999694824219,-20.290000915527344 15.979999542236328,-19.520000457763672 16.639999389648438,-18.510000228881836 C17.309999465942383,-17.5 17.65999984741211,-16.309999465942383 17.700000762939453,-14.949999809265137 C17.700000762939453,-14.949999809265137 17.700000762939453,-14.949999809265137 17.700000762939453,-14.949999809265137 C17.700000762939453,-14.949999809265137 14.649999618530273,-14.949999809265137 14.649999618530273,-14.949999809265137 C14.5600004196167,-16.149999618530273 14.09000015258789,-17.110000610351562 13.229999542236328,-17.829999923706055 C12.359999656677246,-18.559999465942383 11.270000457763672,-18.920000076293945 9.949999809265137,-18.920000076293945 C9.949999809265137,-18.920000076293945 9.949999809265137,-18.920000076293945 9.949999809265137,-18.920000076293945 C9.949999809265137,-18.920000076293945 9.640000343322754,-18.920000076293945 9.640000343322754,-18.920000076293945 C8.770000457763672,-18.920000076293945 7.989999771118164,-18.780000686645508 7.320000171661377,-18.489999771118164 C6.650000095367432,-18.200000762939453 6.139999866485596,-17.809999465942383 5.769999980926514,-17.299999237060547 C5.400000095367432,-16.790000915527344 5.21999979019165,-16.219999313354492 5.21999979019165,-15.59000015258789 C5.21999979019165,-15.59000015258789 5.21999979019165,-15.59000015258789 5.21999979019165,-15.59000015258789 C5.21999979019165,-14.800000190734863 5.46999979019165,-14.149999618530273 5.980000019073486,-13.640000343322754 C6.489999771118164,-13.130000114440918 7.210000038146973,-12.789999961853027 8.149999618530273,-12.600000381469727 C8.149999618530273,-12.600000381469727 8.149999618530273,-12.600000381469727 8.149999618530273,-12.600000381469727 C8.149999618530273,-12.600000381469727 11.5600004196167,-11.930000305175781 11.5600004196167,-11.930000305175781 C13.449999809265137,-11.5600004196167 14.899999618530273,-10.869999885559082 15.899999618530273,-9.859999656677246 C16.889999389648438,-8.84000015258789 17.389999389648438,-7.480000019073486 17.389999389648438,-5.769999980926514 C17.389999389648438,-5.769999980926514 17.389999389648438,-5.769999980926514 17.389999389648438,-5.769999980926514 C17.389999389648438,-4.53000020980835 17.059999465942383,-3.450000047683716 16.399999618530273,-2.5299999713897705 C15.739999771118164,-1.6200000047683716 14.8100004196167,-0.9200000166893005 13.619999885559082,-0.4300000071525574 C12.430000305175781,0.05999999865889549 11.0600004196167,0.3100000023841858 9.489999771118164,0.3100000023841858 C9.489999771118164,0.3100000023841858 9.489999771118164,0.3100000023841858 9.489999771118164,0.3100000023841858"></path></g></g><g id="i3xIIzp25tx9edbc8fFij14" transform="matrix(1,0,0,1,49962.3984375,50008.5390625)" opacity="1" style="display: block;"><g opacity="1" transform="matrix(1,0,0,1,0,0)"><path fill="rgb(22,28,30)" fill-opacity="1" d=" M7.320000171661377,0.3100000023841858 C6.199999809265137,0.3100000023841858 5.260000228881836,0.07000000029802322 4.489999771118164,-0.4000000059604645 C3.7200000286102295,-0.8700000047683716 3.130000114440918,-1.5099999904632568 2.7300000190734863,-2.3299999237060547 C2.3399999141693115,-3.1600000858306885 2.140000104904175,-4.110000133514404 2.140000104904175,-5.190000057220459 C2.140000104904175,-5.190000057220459 2.140000104904175,-5.190000057220459 2.140000104904175,-5.190000057220459 C2.140000104904175,-5.190000057220459 2.140000104904175,-15.260000228881836 2.140000104904175,-15.260000228881836 C2.140000104904175,-15.260000228881836 5.03000020980835,-15.260000228881836 5.03000020980835,-15.260000228881836 C5.03000020980835,-15.260000228881836 5.03000020980835,-5.800000190734863 5.03000020980835,-5.800000190734863 C5.03000020980835,-4.579999923706055 5.289999961853027,-3.6600000858306885 5.800000190734863,-3.049999952316284 C6.309999942779541,-2.440000057220459 7.079999923706055,-2.140000104904175 8.119999885559082,-2.140000104904175 C8.119999885559082,-2.140000104904175 8.119999885559082,-2.140000104904175 8.119999885559082,-2.140000104904175 C8.119999885559082,-2.140000104904175 8.359999656677246,-2.140000104904175 8.359999656677246,-2.140000104904175 C9.029999732971191,-2.140000104904175 9.65999984741211,-2.3399999141693115 10.239999771118164,-2.7300000190734863 C10.819999694824219,-3.130000114440918 11.289999961853027,-3.700000047683716 11.65999984741211,-4.440000057220459 C12.020000457763672,-5.179999828338623 12.199999809265137,-6.039999961853027 12.199999809265137,-7.019999980926514 C12.199999809265137,-7.019999980926514 12.199999809265137,-7.019999980926514 12.199999809265137,-7.019999980926514 C12.199999809265137,-7.019999980926514 12.199999809265137,-15.260000228881836 12.199999809265137,-15.260000228881836 C12.199999809265137,-15.260000228881836 15.100000381469727,-15.260000228881836 15.100000381469727,-15.260000228881836 C15.100000381469727,-15.260000228881836 15.100000381469727,0 15.100000381469727,0 C15.100000381469727,0 12.199999809265137,0 12.199999809265137,0 C12.199999809265137,0 12.199999809265137,-2.9000000953674316 12.199999809265137,-2.9000000953674316 C11.880000114440918,-1.9900000095367432 11.300000190734863,-1.2200000286102295 10.449999809265137,-0.6100000143051147 C9.600000381469727,0 8.5600004196167,0.3100000023841858 7.320000171661377,0.3100000023841858 C7.320000171661377,0.3100000023841858 7.320000171661377,0.3100000023841858 7.320000171661377,0.3100000023841858"></path></g></g><g id="H7hDuGJ8qXev4hx5tG8OD13" transform="matrix(1,0,0,1,49979.7890625,50008.5390625)" opacity="1" style="display: block;"><g opacity="1" transform="matrix(1,0,0,1,0,0)"><path fill="rgb(22,28,30)" fill-opacity="1" d=" M9.729999542236328,-2.140000104904175 C10.520000457763672,-2.140000104904175 11.229999542236328,-2.3499999046325684 11.850000381469727,-2.759999990463257 C12.470000267028809,-3.180000066757202 12.960000038146973,-3.799999952316284 13.329999923706055,-4.619999885559082 C13.699999809265137,-5.449999809265137 13.880000114440918,-6.449999809265137 13.880000114440918,-7.630000114440918 C13.880000114440918,-7.630000114440918 13.880000114440918,-7.630000114440918 13.880000114440918,-7.630000114440918 C13.880000114440918,-9.399999618530273 13.489999771118164,-10.75 12.720000267028809,-11.699999809265137 C11.949999809265137,-12.649999618530273 10.949999809265137,-13.119999885559082 9.729999542236328,-13.119999885559082 C9.729999542236328,-13.119999885559082 9.729999542236328,-13.119999885559082 9.729999542236328,-13.119999885559082 C9.729999542236328,-13.119999885559082 9.489999771118164,-13.119999885559082 9.489999771118164,-13.119999885559082 C8.739999771118164,-13.119999885559082 8.029999732971191,-12.90999984741211 7.380000114440918,-12.489999771118164 C6.730000019073486,-12.079999923706055 6.210000038146973,-11.449999809265137 5.800000190734863,-10.619999885559082 C5.389999866485596,-9.789999961853027 5.190000057220459,-8.789999961853027 5.190000057220459,-7.630000114440918 C5.190000057220459,-7.630000114440918 5.190000057220459,-7.630000114440918 5.190000057220459,-7.630000114440918 C5.190000057220459,-6.46999979019165 5.389999866485596,-5.46999979019165 5.800000190734863,-4.639999866485596 C6.210000038146973,-3.809999942779541 6.730000019073486,-3.180000066757202 7.380000114440918,-2.759999990463257 C8.029999732971191,-2.3499999046325684 8.739999771118164,-2.140000104904175 9.489999771118164,-2.140000104904175 C9.489999771118164,-2.140000104904175 9.489999771118164,-2.140000104904175 9.489999771118164,-2.140000104904175 C9.489999771118164,-2.140000104904175 9.729999542236328,-2.140000104904175 9.729999542236328,-2.140000104904175 M2.2899999618530273,6.099999904632568 C2.2899999618530273,6.099999904632568 2.2899999618530273,-15.260000228881836 2.2899999618530273,-15.260000228881836 C2.2899999618530273,-15.260000228881836 5.190000057220459,-15.260000228881836 5.190000057220459,-15.260000228881836 C5.190000057220459,-15.260000228881836 5.190000057220459,-13.119999885559082 5.190000057220459,-13.119999885559082 C5.579999923706055,-13.8100004196167 6.25,-14.390000343322754 7.199999809265137,-14.859999656677246 C8.149999618530273,-15.329999923706055 9.15999984741211,-15.5600004196167 10.220000267028809,-15.5600004196167 C10.220000267028809,-15.5600004196167 10.220000267028809,-15.5600004196167 10.220000267028809,-15.5600004196167 C11.5,-15.5600004196167 12.630000114440918,-15.239999771118164 13.619999885559082,-14.609999656677246 C14.609999656677246,-13.979999542236328 15.380000114440918,-13.069999694824219 15.9399995803833,-11.880000114440918 C16.5,-10.6899995803833 16.780000686645508,-9.279999732971191 16.780000686645508,-7.630000114440918 C16.780000686645508,-7.630000114440918 16.780000686645508,-7.630000114440918 16.780000686645508,-7.630000114440918 C16.780000686645508,-6 16.479999542236328,-4.590000152587891 15.880000114440918,-3.390000104904175 C15.279999732971191,-2.190000057220459 14.460000038146973,-1.2699999809265137 13.40999984741211,-0.6399999856948853 C12.359999656677246,-0.009999999776482582 11.199999809265137,0.3100000023841858 9.920000076293945,0.3100000023841858 C9.920000076293945,0.3100000023841858 9.920000076293945,0.3100000023841858 9.920000076293945,0.3100000023841858 C8.880000114440918,0.3100000023841858 7.929999828338623,0.07999999821186066 7.059999942779541,-0.3799999952316284 C6.199999809265137,-0.8399999737739563 5.579999923706055,-1.4299999475479126 5.190000057220459,-2.140000104904175 C5.190000057220459,-2.140000104904175 5.190000057220459,-2.140000104904175 5.190000057220459,-2.140000104904175 C5.190000057220459,-2.140000104904175 5.190000057220459,6.099999904632568 5.190000057220459,6.099999904632568 C5.190000057220459,6.099999904632568 2.2899999618530273,6.099999904632568 2.2899999618530273,6.099999904632568"></path></g></g><g id="QBNOpxrDWTScUCYgnGNga12" transform="matrix(1,0,0,1,49997.96875,50008.5390625)" opacity="1" style="display: block;"><g opacity="1" transform="matrix(1,0,0,1,0,0)"><path fill="rgb(22,28,30)" fill-opacity="1" d=" M9.729999542236328,-2.140000104904175 C10.520000457763672,-2.140000104904175 11.229999542236328,-2.3499999046325684 11.850000381469727,-2.759999990463257 C12.470000267028809,-3.180000066757202 12.960000038146973,-3.799999952316284 13.329999923706055,-4.619999885559082 C13.699999809265137,-5.449999809265137 13.880000114440918,-6.449999809265137 13.880000114440918,-7.630000114440918 C13.880000114440918,-7.630000114440918 13.880000114440918,-7.630000114440918 13.880000114440918,-7.630000114440918 C13.880000114440918,-9.399999618530273 13.489999771118164,-10.75 12.720000267028809,-11.699999809265137 C11.949999809265137,-12.649999618530273 10.949999809265137,-13.119999885559082 9.729999542236328,-13.119999885559082 C9.729999542236328,-13.119999885559082 9.729999542236328,-13.119999885559082 9.729999542236328,-13.119999885559082 C9.729999542236328,-13.119999885559082 9.489999771118164,-13.119999885559082 9.489999771118164,-13.119999885559082 C8.739999771118164,-13.119999885559082 8.029999732971191,-12.90999984741211 7.380000114440918,-12.489999771118164 C6.730000019073486,-12.079999923706055 6.210000038146973,-11.449999809265137 5.800000190734863,-10.619999885559082 C5.389999866485596,-9.789999961853027 5.190000057220459,-8.789999961853027 5.190000057220459,-7.630000114440918 C5.190000057220459,-7.630000114440918 5.190000057220459,-7.630000114440918 5.190000057220459,-7.630000114440918 C5.190000057220459,-6.46999979019165 5.389999866485596,-5.46999979019165 5.800000190734863,-4.639999866485596 C6.210000038146973,-3.809999942779541 6.730000019073486,-3.180000066757202 7.380000114440918,-2.759999990463257 C8.029999732971191,-2.3499999046325684 8.739999771118164,-2.140000104904175 9.489999771118164,-2.140000104904175 C9.489999771118164,-2.140000104904175 9.489999771118164,-2.140000104904175 9.489999771118164,-2.140000104904175 C9.489999771118164,-2.140000104904175 9.729999542236328,-2.140000104904175 9.729999542236328,-2.140000104904175 M2.2899999618530273,6.099999904632568 C2.2899999618530273,6.099999904632568 2.2899999618530273,-15.260000228881836 2.2899999618530273,-15.260000228881836 C2.2899999618530273,-15.260000228881836 5.190000057220459,-15.260000228881836 5.190000057220459,-15.260000228881836 C5.190000057220459,-15.260000228881836 5.190000057220459,-13.119999885559082 5.190000057220459,-13.119999885559082 C5.579999923706055,-13.8100004196167 6.25,-14.390000343322754 7.199999809265137,-14.859999656677246 C8.149999618530273,-15.329999923706055 9.15999984741211,-15.5600004196167 10.220000267028809,-15.5600004196167 C10.220000267028809,-15.5600004196167 10.220000267028809,-15.5600004196167 10.220000267028809,-15.5600004196167 C11.5,-15.5600004196167 12.630000114440918,-15.239999771118164 13.619999885559082,-14.609999656677246 C14.609999656677246,-13.979999542236328 15.380000114440918,-13.069999694824219 15.9399995803833,-11.880000114440918 C16.5,-10.6899995803833 16.780000686645508,-9.279999732971191 16.780000686645508,-7.630000114440918 C16.780000686645508,-7.630000114440918 16.780000686645508,-7.630000114440918 16.780000686645508,-7.630000114440918 C16.780000686645508,-6 16.479999542236328,-4.590000152587891 15.880000114440918,-3.390000104904175 C15.279999732971191,-2.190000057220459 14.460000038146973,-1.2699999809265137 13.40999984741211,-0.6399999856948853 C12.359999656677246,-0.009999999776482582 11.199999809265137,0.3100000023841858 9.920000076293945,0.3100000023841858 C9.920000076293945,0.3100000023841858 9.920000076293945,0.3100000023841858 9.920000076293945,0.3100000023841858 C8.880000114440918,0.3100000023841858 7.929999828338623,0.07999999821186066 7.059999942779541,-0.3799999952316284 C6.199999809265137,-0.8399999737739563 5.579999923706055,-1.4299999475479126 5.190000057220459,-2.140000104904175 C5.190000057220459,-2.140000104904175 5.190000057220459,-2.140000104904175 5.190000057220459,-2.140000104904175 C5.190000057220459,-2.140000104904175 5.190000057220459,6.099999904632568 5.190000057220459,6.099999904632568 C5.190000057220459,6.099999904632568 2.2899999618530273,6.099999904632568 2.2899999618530273,6.099999904632568"></path></g></g><g id="XXVs5T_KCJhyIzNwdZ1qz11" transform="matrix(1,0,0,1,50016.16015625,50008.5390625)" opacity="1" style="display: block;"><g opacity="1" transform="matrix(1,0,0,1,0,0)"><path fill="rgb(22,28,30)" fill-opacity="1" d=" M8.789999961853027,-2.140000104904175 C9.619999885559082,-2.140000104904175 10.359999656677246,-2.359999895095825 11.010000228881836,-2.7899999618530273 C11.65999984741211,-3.2300000190734863 12.170000076293945,-3.859999895095825 12.539999961853027,-4.679999828338623 C12.90999984741211,-5.510000228881836 13.09000015258789,-6.489999771118164 13.09000015258789,-7.630000114440918 C13.09000015258789,-7.630000114440918 13.09000015258789,-7.630000114440918 13.09000015258789,-7.630000114440918 C13.09000015258789,-8.770000457763672 12.90999984741211,-9.75 12.539999961853027,-10.569999694824219 C12.170000076293945,-11.399999618530273 11.65999984741211,-12.029999732971191 11.010000228881836,-12.460000038146973 C10.359999656677246,-12.899999618530273 9.619999885559082,-13.119999885559082 8.789999961853027,-13.119999885559082 C8.789999961853027,-13.119999885559082 8.789999961853027,-13.119999885559082 8.789999961853027,-13.119999885559082 C8.789999961853027,-13.119999885559082 8.539999961853027,-13.119999885559082 8.539999961853027,-13.119999885559082 C7.710000038146973,-13.119999885559082 6.96999979019165,-12.899999618530273 6.320000171661377,-12.460000038146973 C5.670000076293945,-12.029999732971191 5.159999847412109,-11.399999618530273 4.789999961853027,-10.569999694824219 C4.420000076293945,-9.75 4.239999771118164,-8.770000457763672 4.239999771118164,-7.630000114440918 C4.239999771118164,-7.630000114440918 4.239999771118164,-7.630000114440918 4.239999771118164,-7.630000114440918 C4.239999771118164,-6.489999771118164 4.420000076293945,-5.510000228881836 4.789999961853027,-4.679999828338623 C5.159999847412109,-3.859999895095825 5.670000076293945,-3.2300000190734863 6.320000171661377,-2.7899999618530273 C6.96999979019165,-2.359999895095825 7.710000038146973,-2.140000104904175 8.539999961853027,-2.140000104904175 C8.539999961853027,-2.140000104904175 8.539999961853027,-2.140000104904175 8.539999961853027,-2.140000104904175 C8.539999961853027,-2.140000104904175 8.789999961853027,-2.140000104904175 8.789999961853027,-2.140000104904175 M8.670000076293945,0.3100000023841858 C7.300000190734863,0.3100000023841858 6.059999942779541,-0.029999999329447746 4.940000057220459,-0.699999988079071 C3.819999933242798,-1.3700000047683716 2.940000057220459,-2.309999942779541 2.299999952316284,-3.509999990463257 C1.659999966621399,-4.710000038146973 1.340000033378601,-6.079999923706055 1.340000033378601,-7.630000114440918 C1.340000033378601,-7.630000114440918 1.340000033378601,-7.630000114440918 1.340000033378601,-7.630000114440918 C1.340000033378601,-9.180000305175781 1.659999966621399,-10.550000190734863 2.299999952316284,-11.75 C2.940000057220459,-12.949999809265137 3.819999933242798,-13.880000114440918 4.940000057220459,-14.550000190734863 C6.059999942779541,-15.220000267028809 7.300000190734863,-15.5600004196167 8.670000076293945,-15.5600004196167 C8.670000076293945,-15.5600004196167 8.670000076293945,-15.5600004196167 8.670000076293945,-15.5600004196167 C10.029999732971191,-15.5600004196167 11.270000457763672,-15.220000267028809 12.390000343322754,-14.550000190734863 C13.510000228881836,-13.880000114440918 14.390000343322754,-12.949999809265137 15.029999732971191,-11.75 C15.670000076293945,-10.550000190734863 15.989999771118164,-9.180000305175781 15.989999771118164,-7.630000114440918 C15.989999771118164,-7.630000114440918 15.989999771118164,-7.630000114440918 15.989999771118164,-7.630000114440918 C15.989999771118164,-6.079999923706055 15.670000076293945,-4.710000038146973 15.029999732971191,-3.509999990463257 C14.390000343322754,-2.309999942779541 13.510000228881836,-1.3700000047683716 12.390000343322754,-0.699999988079071 C11.270000457763672,-0.029999999329447746 10.029999732971191,0.3100000023841858 8.670000076293945,0.3100000023841858 C8.670000076293945,0.3100000023841858 8.670000076293945,0.3100000023841858 8.670000076293945,0.3100000023841858"></path></g></g><g id="Y0zbZfUmXXas-htVaYZSi10" transform="matrix(1,0,0,1,50033.48046875,50008.5390625)" opacity="1" style="display: block;"><g opacity="1" transform="matrix(1,0,0,1,0,0)"><path fill="rgb(22,28,30)" fill-opacity="1" d=" M2.2899999618530273,0 C2.2899999618530273,0 2.2899999618530273,-15.260000228881836 2.2899999618530273,-15.260000228881836 C2.2899999618530273,-15.260000228881836 5.03000020980835,-15.260000228881836 5.03000020980835,-15.260000228881836 C5.03000020980835,-15.260000228881836 5.03000020980835,-11.899999618530273 5.03000020980835,-11.899999618530273 C5.340000152587891,-13.020000457763672 5.889999866485596,-13.880000114440918 6.699999809265137,-14.489999771118164 C7.5,-15.100000381469727 8.420000076293945,-15.40999984741211 9.460000038146973,-15.40999984741211 C9.460000038146973,-15.40999984741211 9.460000038146973,-15.40999984741211 9.460000038146973,-15.40999984741211 C9.460000038146973,-15.40999984741211 10.829999923706055,-15.40999984741211 10.829999923706055,-15.40999984741211 C10.829999923706055,-15.40999984741211 10.829999923706055,-12.600000381469727 10.829999923706055,-12.600000381469727 C10.829999923706055,-12.600000381469727 9.609999656677246,-12.600000381469727 9.609999656677246,-12.600000381469727 C8.229999542236328,-12.600000381469727 7.150000095367432,-12.170000076293945 6.360000133514404,-11.300000190734863 C5.579999923706055,-10.4399995803833 5.190000057220459,-9.25 5.190000057220459,-7.71999979019165 C5.190000057220459,-7.71999979019165 5.190000057220459,-7.71999979019165 5.190000057220459,-7.71999979019165 C5.190000057220459,-7.71999979019165 5.190000057220459,0 5.190000057220459,0 C5.190000057220459,0 2.2899999618530273,0 2.2899999618530273,0"></path></g></g><g id="gQ5lVosFUTT5RSqb8vmD09" transform="matrix(1,0,0,1,50044.9609375,50008.5390625)" opacity="1" style="display: block;"><g opacity="1" transform="matrix(1,0,0,1,0,0)"><path fill="rgb(22,28,30)" fill-opacity="1" d=" M7.230000019073486,0 C6.170000076293945,0 5.349999904632568,-0.28999999165534973 4.760000228881836,-0.8799999952316284 C4.170000076293945,-1.4700000286102295 3.869999885559082,-2.299999952316284 3.869999885559082,-3.359999895095825 C3.869999885559082,-3.359999895095825 3.869999885559082,-3.359999895095825 3.869999885559082,-3.359999895095825 C3.869999885559082,-3.359999895095825 3.869999885559082,-12.75 3.869999885559082,-12.75 C3.869999885559082,-12.75 0.5199999809265137,-12.75 0.5199999809265137,-12.75 C0.5199999809265137,-12.75 0.5199999809265137,-15.260000228881836 0.5199999809265137,-15.260000228881836 C0.5199999809265137,-15.260000228881836 3.869999885559082,-15.260000228881836 3.869999885559082,-15.260000228881836 C3.869999885559082,-15.260000228881836 3.869999885559082,-20.200000762939453 3.869999885559082,-20.200000762939453 C3.869999885559082,-20.200000762939453 6.769999980926514,-20.200000762939453 6.769999980926514,-20.200000762939453 C6.769999980926514,-20.200000762939453 6.769999980926514,-15.260000228881836 6.769999980926514,-15.260000228881836 C6.769999980926514,-15.260000228881836 10.430000305175781,-15.260000228881836 10.430000305175781,-15.260000228881836 C10.430000305175781,-15.260000228881836 10.430000305175781,-12.75 10.430000305175781,-12.75 C10.430000305175781,-12.75 6.769999980926514,-12.75 6.769999980926514,-12.75 C6.769999980926514,-12.75 6.769999980926514,-3.809999942779541 6.769999980926514,-3.809999942779541 C6.769999980926514,-3.359999895095825 6.860000133514404,-3.049999952316284 7.050000190734863,-2.869999885559082 C7.230000019073486,-2.680000066757202 7.539999961853027,-2.5899999141693115 7.989999771118164,-2.5899999141693115 C7.989999771118164,-2.5899999141693115 7.989999771118164,-2.5899999141693115 7.989999771118164,-2.5899999141693115 C7.989999771118164,-2.5899999141693115 10.890000343322754,-2.5899999141693115 10.890000343322754,-2.5899999141693115 C10.890000343322754,-2.5899999141693115 10.890000343322754,0 10.890000343322754,0 C10.890000343322754,0 7.230000019073486,0 7.230000019073486,0"></path></g></g></g></g></g></g></g></g><g id="precomp_0jDfTwB09zL9CChhniYrX3" clip-path="url(#__lottie_element_762)" transform="matrix(1,0,0,1,0,0)" opacity="1" style="display: block;"></g></g></g></g></g></svg>