<svg xmlns="http://www.w3.org/2000/svg" width="24" height="24" fill="none" id="svg-1379878851_1777"><path fill-rule="evenodd" clip-rule="evenodd" d="M7.463 4.688a3.337 3.337 0 1 1 6.675 0v.562h.106c.655 0 1.192 0 1.63.03.454.031.868.097 1.265.261a3.825 3.825 0 0 1 2.07 2.07c.164.397.23.811.261 1.265.016.227.023.48.027.762h.566a3.337 3.337 0 1 1 0 6.675H19.5v.795c0 .787 0 1.432-.043 1.956-.044.544-.139 1.037-.374 1.498a3.825 3.825 0 0 1-1.671 1.671c-.461.235-.954.33-1.497.374-.525.043-1.17.043-1.957.043h-.72a.9.9 0 0 1-.9-.9v-1.706a1.294 1.294 0 1 0-2.588 0v1.706a.9.9 0 0 1-.9.9H7.643c-.787 0-1.433 0-1.957-.043-.544-.044-1.036-.139-1.497-.374a3.825 3.825 0 0 1-1.672-1.671c-.235-.461-.33-.954-.374-1.498-.043-.524-.043-1.17-.043-1.956v-.233a2.362 2.362 0 0 1 2.363-2.362 1.538 1.538 0 0 0 0-3.075c-1.278 0-2.412-1.043-2.342-2.409.026-.516.089-.979.27-1.418a3.825 3.825 0 0 1 2.07-2.07c.397-.164.811-.23 1.265-.261.439-.03.976-.03 1.63-.03h.107v-.562ZM10.8 3.15c-.849 0-1.537.688-1.537 1.538V6.15a.9.9 0 0 1-.9.9h-.975c-.694 0-1.17 0-1.54.026-.362.025-.557.07-.698.128-.496.206-.89.6-1.096 1.096-.065.158-.113.38-.135.821-.013.248.206.517.544.517a3.337 3.337 0 1 1 0 6.675.562.562 0 0 0-.563.562v.195c0 .834 0 1.405.037 1.848.035.432.1.662.184.826.194.381.504.691.885.885.165.084.394.149.826.184.443.036 1.014.037 1.848.037h.27v-.806a3.094 3.094 0 0 1 6.188 0v.806c.717 0 1.227-.004 1.63-.037.432-.035.662-.1.827-.184.38-.194.69-.504.885-.885.084-.164.148-.394.183-.826.037-.443.037-1.014.037-1.848v-1.657a.9.9 0 0 1 .9-.9h1.463a1.537 1.537 0 1 0 0-3.075H18.6a.9.9 0 0 1-.9-.9c0-.694 0-1.17-.026-1.54-.024-.362-.07-.557-.128-.698-.205-.496-.6-.89-1.096-1.096-.14-.058-.336-.103-.698-.128-.37-.025-.846-.026-1.54-.026h-.974a.9.9 0 0 1-.9-.9V4.688c0-.85-.689-1.538-1.538-1.538Z" fill="#fff"></path></svg>