<svg xmlns="http://www.w3.org/2000/svg" width="24" height="24" fill="none"><path stroke="#F4E28D" stroke-linecap="round" stroke-linejoin="round" stroke-width="1.2" d="M20.634 3.366 19.47 4.532M4.531 19.469l-1.165 1.165m17.268 0-1.165-1.165M4.531 4.531 3.366 3.366"/><path stroke="#F4E28D" stroke-linejoin="round" stroke-width="1.2" d="M14.097 6.902C13.262 5.72 12.74 4.36 12 2.362c-.74 1.997-1.262 3.357-2.097 4.54a12.016 12.016 0 0 1-2.849 2.853C5.848 10.614 4.438 11.18 2.346 12c2.093.82 3.502 1.386 4.708 2.245a12.021 12.021 0 0 1 2.849 2.853c.835 1.183 1.357 2.543 2.097 4.54.74-1.997 1.262-3.357 2.097-4.54a12.014 12.014 0 0 1 2.849-2.853c1.206-.859 2.615-1.425 4.707-2.245-2.092-.82-3.501-1.386-4.707-2.245a12.015 12.015 0 0 1-2.849-2.853Z"/></svg>