<svg xmlns="http://www.w3.org/2000/svg" width="46" height="46" fill="none" id="svg146722719_617"><path d="M.5 9.876A9.045 9.045 0 0 1 9.545.83h26.91A9.045 9.045 0 0 1 45.5 9.876v26.91a9.045 9.045 0 0 1-9.045 9.044H9.545A9.045 9.045 0 0 1 .5 36.785V9.875Z" fill="#FF3670"></path><path fill-rule="evenodd" clip-rule="evenodd" d="M27.616 35.54h.225v-5.703c.034-.172.06-.346.087-.525.212-1.414.47-3.127 4.866-6.155 4.579-3.152 5.254-10.207 5.254-12.008-3.516-.273-11.394 1.259-15.048 9.498-3.654-8.24-11.532-9.77-15.048-9.498 0 1.801.675 8.856 5.254 12.008 4.397 3.028 4.654 4.741 4.866 6.155.027.18.053.354.087.525v5.704h9.457Z" fill="#fff"></path></svg>