<svg xmlns="http://www.w3.org/2000/svg" width="633" height="499" fill="none"><path fill="url(#a)" d="M23.054 473h448.335v585.946H23.054z" transform="rotate(-90 23.054 473)"/><g stroke="#2D323A" opacity=".2"><path d="M.5 15.246C.5 7.565 6.727 1.338 14.409 1.338h31.199v45.107H.5V15.246zM0 23.892h46.108M23.054.838v46.107"/><path d="M45.608 1.338h45.108v45.108H45.608zm-.501 22.554h46.108M68.161.838v46.107"/><path d="M90.715 1.338h45.108v45.108H90.715zm-.5 22.554h46.107M113.269.838v46.107m22.554-45.607h45.108v45.108h-45.108zm-.5 22.554h46.108M158.377.838v46.107"/><path d="M180.93 1.338h45.108v45.108H180.93zm-.5 22.554h46.108M203.484.838v46.107m22.554-45.607h45.108v45.108h-45.108zm-.5 22.554h46.107M248.592.838v46.107m22.554-45.607h45.108v45.108h-45.108zm-.5 22.554h46.107M293.699.838v46.107"/><path d="M316.253 1.338h45.108v45.108h-45.108zm-.5 22.554h46.107M338.807.838v46.107m22.554-45.607h45.108v45.108h-45.108zm-.5 22.554h46.107M383.914.838v46.107"/><path d="M406.468 1.338h45.108v45.108h-45.108zm-.5 22.554h46.108M429.022.838v46.107m22.554-45.607h45.108v45.108h-45.108zm-.5 22.554h46.107M474.129.838v46.107"/><path d="M496.683 1.338h45.108v45.108h-45.108zm-.5 22.554h46.108M519.237.838v46.107m22.554-45.607h45.108v45.108h-45.108zm-.5 22.554h46.107M564.344.838v46.107"/><path d="M586.898 1.338h31.199c7.682 0 13.909 6.227 13.909 13.908v31.2h-45.108V1.337zm-.5 22.554h46.108M609.452.838v46.107M.5 46.445h45.108v45.108H.5zM0 69h46.108M23.054 45.945v46.108m22.554-45.608h45.108v45.108H45.608zM45.107 69h46.108M68.161 45.945v46.108"/><path d="M90.715 46.445h45.108v45.108H90.715zM90.215 69h46.107m-23.053-23.055v46.108m22.554-45.608h45.108v45.108h-45.108zm-.5 22.555h46.108m-23.054-23.055v46.108"/><path d="M180.93 46.445h45.108v45.108H180.93zM180.43 69h46.108m-23.054-23.055v46.108m22.554-45.608h45.108v45.108h-45.108zm-.5 22.555h46.107m-23.053-23.055v46.108m22.554-45.608h45.108v45.108h-45.108zm-.5 22.555h46.107m-23.054-23.055v46.108"/><path d="M316.253 46.445h45.108v45.108h-45.108zm-.5 22.555h46.107m-23.053-23.055v46.108m22.554-45.608h45.108v45.108h-45.108zM360.86 69h46.108m-23.054-23.055v46.108"/><path d="M406.468 46.445h45.108v45.108h-45.108zm-.5 22.555h46.108m-23.054-23.055v46.108m22.554-45.608h45.108v45.108h-45.108zm-.5 22.555h46.107m-23.054-23.055v46.108"/><path d="M496.683 46.445h45.108v45.108h-45.108zm-.5 22.555h46.108m-23.054-23.055v46.108m22.554-45.608h45.108v45.108h-45.108zm-.5 22.555h46.107m-23.054-23.055v46.108"/><path d="M586.898 46.445h45.108v45.108h-45.108zm-.5 22.555h46.108m-23.054-23.055v46.108M.5 91.553h45.108v45.108H.5zM0 114.107h46.108M23.054 91.053v46.107m22.554-45.607h45.108v45.108H45.608zm-.501 22.554h46.108M68.161 91.053v46.107"/><path d="M90.715 91.553h45.108v45.108H90.715zm-.5 22.554h46.107m-23.053-23.054v46.107m22.554-45.607h45.108v45.108h-45.108zm-.5 22.554h46.108m-23.054-23.054v46.107"/><path d="M180.93 91.553h45.108v45.108H180.93zm-.5 22.554h46.108m-23.054-23.054v46.107m22.554-45.607h45.108v45.108h-45.108zm-.5 22.554h46.107m-23.053-23.054v46.107m22.554-45.607h45.108v45.108h-45.108zm-.5 22.554h46.107m-23.054-23.054v46.107"/><path d="M316.253 91.553h45.108v45.108h-45.108zm-.5 22.554h46.107m-23.053-23.054v46.107m22.554-45.607h45.108v45.108h-45.108zm-.501 22.554h46.108m-23.054-23.054v46.107"/><path d="M406.468 91.553h45.108v45.108h-45.108zm-.5 22.554h46.108m-23.054-23.054v46.107m22.554-45.607h45.108v45.108h-45.108zm-.5 22.554h46.107m-23.054-23.054v46.107"/><path d="M496.683 91.553h45.108v45.108h-45.108zm-.5 22.554h46.108m-23.054-23.054v46.107m22.554-45.607h45.108v45.108h-45.108zm-.5 22.554h46.107m-23.054-23.054v46.107"/><path d="M586.898 91.553h45.108v45.108h-45.108zm-.5 22.554h46.108m-23.054-23.054v46.107M.5 136.66h45.108v45.108H.5zM0 159.214h46.108m-23.054-23.053v46.107m22.554-45.608h45.108v45.108H45.608zm-.501 22.554h46.108m-23.054-23.053v46.107"/><path d="M90.715 136.66h45.108v45.108H90.715zm-.5 22.554h46.107m-23.053-23.053v46.107m22.554-45.608h45.108v45.108h-45.108zm-.5 22.554h46.108m-23.054-23.053v46.107"/><path d="M180.93 136.66h45.108v45.108H180.93zm-.5 22.554h46.108m-23.054-23.053v46.107m22.554-45.608h45.108v45.108h-45.108zm-.5 22.554h46.107m-23.053-23.053v46.107m22.554-45.608h45.108v45.108h-45.108zm-.5 22.554h46.107m-23.054-23.053v46.107"/><path d="M316.253 136.66h45.108v45.108h-45.108zm-.5 22.554h46.107m-23.053-23.053v46.107m22.554-45.608h45.108v45.108h-45.108zm-.501 22.554h46.108m-23.054-23.053v46.107"/><path d="M406.468 136.66h45.108v45.108h-45.108zm-.5 22.554h46.108m-23.054-23.054v46.108m22.554-45.608h45.108v45.108h-45.108zm-.5 22.554h46.107m-23.054-23.054v46.108"/><path d="M496.683 136.66h45.108v45.108h-45.108zm-.5 22.554h46.108m-23.054-23.054v46.108m22.554-45.608h45.108v45.108h-45.108zm-.5 22.554h46.107m-23.054-23.054v46.108"/><path d="M586.898 136.66h45.108v45.108h-45.108zm-.5 22.554h46.108m-23.054-23.054v46.108M.5 181.768h45.108v45.108H.5zM0 204.322h46.108m-23.054-23.054v46.108m22.554-45.608h45.108v45.108H45.608zm-.501 22.554h46.108m-23.054-23.054v46.108"/><path d="M90.715 181.768h45.108v45.108H90.715zm-.5 22.554h46.107m-23.053-23.054v46.108m22.554-45.608h45.108v45.108h-45.108zm-.5 22.554h46.108m-23.054-23.054v46.108"/><path d="M180.93 181.768h45.108v45.108H180.93zm-.5 22.554h46.108m-23.054-23.054v46.108m22.554-45.608h45.108v45.108h-45.108zm-.5 22.554h46.107m-23.053-23.054v46.108m22.554-45.608h45.108v45.108h-45.108zm-.5 22.554h46.107m-23.054-23.054v46.108"/><path d="M316.253 181.768h45.108v45.108h-45.108zm-.5 22.554h46.107m-23.053-23.054v46.108m22.554-45.608h45.108v45.108h-45.108zm-.501 22.554h46.108m-23.054-23.054v46.108"/><path d="M406.468 181.768h45.108v45.108h-45.108zm-.5 22.554h46.108m-23.054-23.054v46.108m22.554-45.608h45.108v45.108h-45.108zm-.5 22.554h46.107m-23.054-23.054v46.108"/><path d="M496.683 181.768h45.108v45.108h-45.108zm-.5 22.554h46.108m-23.054-23.054v46.108m22.554-45.608h45.108v45.108h-45.108zm-.5 22.554h46.107m-23.054-23.054v46.108"/><path d="M586.898 181.768h45.108v45.108h-45.108zm-.5 22.554h46.108m-23.054-23.054v46.108M.5 226.876h45.108v45.108H.5zM0 249.429h46.108m-23.054-23.054v46.108m22.554-45.607h45.108v45.108H45.608zm-.501 22.553h46.108m-23.054-23.054v46.108"/><path d="M90.715 226.876h45.108v45.108H90.715zm-.5 22.553h46.107m-23.053-23.054v46.108m22.554-45.607h45.108v45.108h-45.108zm-.5 22.553h46.108m-23.054-23.054v46.108"/><path d="M180.93 226.876h45.108v45.108H180.93zm-.5 22.553h46.108m-23.054-23.054v46.108m22.554-45.607h45.108v45.108h-45.108zm-.5 22.553h46.107m-23.053-23.054v46.108m22.554-45.607h45.108v45.108h-45.108zm-.5 22.553h46.107m-23.054-23.054v46.108"/><path d="M316.253 226.876h45.108v45.108h-45.108zm-.5 22.553h46.107m-23.053-23.054v46.108m22.554-45.607h45.108v45.108h-45.108zm-.501 22.553h46.108m-23.054-23.054v46.108"/><path d="M406.468 226.876h45.108v45.108h-45.108zm-.5 22.553h46.108m-23.054-23.053v46.107m22.554-45.607h45.108v45.108h-45.108zm-.5 22.553h46.107m-23.054-23.053v46.107"/><path d="M496.683 226.876h45.108v45.108h-45.108zm-.5 22.553h46.108m-23.054-23.053v46.107m22.554-45.607h45.108v45.108h-45.108zm-.5 22.553h46.107m-23.054-23.053v46.107"/><path d="M586.898 226.876h45.108v45.108h-45.108zm-.5 22.553h46.108m-23.054-23.053v46.107M.5 271.983h45.108v45.108H.5zM0 294.537h46.108m-23.054-23.054v46.108m22.554-45.608h45.108v45.108H45.608zm-.501 22.554h46.108m-23.054-23.054v46.108"/><path d="M90.715 271.983h45.108v45.108H90.715zm-.5 22.554h46.107m-23.053-23.054v46.108m22.554-45.608h45.108v45.108h-45.108zm-.5 22.554h46.108m-23.054-23.054v46.108"/><path d="M180.93 271.983h45.108v45.108H180.93zm-.5 22.554h46.108m-23.054-23.054v46.108m22.554-45.608h45.108v45.108h-45.108zm-.5 22.554h46.107m-23.053-23.054v46.108m22.554-45.608h45.108v45.108h-45.108zm-.5 22.554h46.107m-23.054-23.054v46.108"/><path d="M316.253 271.983h45.108v45.108h-45.108zm-.5 22.554h46.107m-23.053-23.054v46.108m22.554-45.608h45.108v45.108h-45.108zm-.501 22.554h46.108m-23.054-23.054v46.108"/><path d="M406.468 271.983h45.108v45.108h-45.108zm-.5 22.554h46.108m-23.054-23.054v46.108m22.554-45.608h45.108v45.108h-45.108zm-.5 22.554h46.107m-23.054-23.054v46.108"/><path d="M496.683 271.983h45.108v45.108h-45.108zm-.5 22.554h46.108m-23.054-23.054v46.108m22.554-45.608h45.108v45.108h-45.108zm-.5 22.554h46.107m-23.054-23.054v46.108"/><path d="M586.898 271.983h45.108v45.108h-45.108zm-.5 22.554h46.108m-23.054-23.054v46.108M.5 317.091h45.108v45.108H.5zM0 339.645h46.108m-23.054-23.054v46.107m22.554-45.607h45.108v45.108H45.608zm-.501 22.554h46.108m-23.054-23.054v46.107"/><path d="M90.715 317.091h45.108v45.108H90.715zm-.5 22.554h46.107m-23.053-23.054v46.107m22.554-45.607h45.108v45.108h-45.108zm-.5 22.554h46.108m-23.054-23.054v46.107"/><path d="M180.93 317.091h45.108v45.108H180.93zm-.5 22.554h46.108m-23.054-23.054v46.107m22.554-45.607h45.108v45.108h-45.108zm-.5 22.554h46.107m-23.053-23.054v46.107m22.554-45.607h45.108v45.108h-45.108zm-.5 22.554h46.107m-23.054-23.054v46.107"/><path d="M316.253 317.091h45.108v45.108h-45.108zm-.5 22.554h46.107m-23.053-23.054v46.107m22.554-45.607h45.108v45.108h-45.108zm-.501 22.554h46.108m-23.054-23.054v46.107"/><path d="M406.468 317.091h45.108v45.108h-45.108zm-.5 22.554h46.108m-23.054-23.054v46.107m22.554-45.607h45.108v45.108h-45.108zm-.5 22.554h46.107m-23.054-23.054v46.107"/><path d="M496.683 317.091h45.108v45.108h-45.108zm-.5 22.554h46.108m-23.054-23.054v46.107m22.554-45.607h45.108v45.108h-45.108zm-.5 22.554h46.107m-23.054-23.054v46.107"/><path d="M586.898 317.091h45.108v45.108h-45.108zm-.5 22.554h46.108m-23.054-23.054v46.107M.5 362.198h45.108v45.108H.5zM0 384.752h46.108m-23.054-23.054v46.108m22.554-45.608h45.108v45.108H45.608zm-.501 22.554h46.108m-23.054-23.054v46.108"/><path d="M90.715 362.198h45.108v45.108H90.715zm-.5 22.554h46.107m-23.053-23.054v46.108m22.554-45.608h45.108v45.108h-45.108zm-.5 22.554h46.108m-23.054-23.054v46.108"/><path d="M180.93 362.198h45.108v45.108H180.93zm-.5 22.554h46.108m-23.054-23.054v46.108m22.554-45.608h45.108v45.108h-45.108zm-.5 22.554h46.107m-23.053-23.054v46.108m22.554-45.608h45.108v45.108h-45.108zm-.5 22.554h46.107m-23.054-23.054v46.108"/><path d="M316.253 362.198h45.108v45.108h-45.108zm-.5 22.554h46.107m-23.053-23.054v46.108m22.554-45.608h45.108v45.108h-45.108zm-.501 22.554h46.108m-23.054-23.054v46.108"/><path d="M406.468 362.198h45.108v45.108h-45.108zm-.5 22.554h46.108m-23.054-23.054v46.108m22.554-45.608h45.108v45.108h-45.108zm-.5 22.554h46.107m-23.054-23.054v46.108"/><path d="M496.683 362.198h45.108v45.108h-45.108zm-.5 22.554h46.108m-23.054-23.054v46.108m22.554-45.608h45.108v45.108h-45.108zm-.5 22.554h46.107m-23.054-23.054v46.108"/><path d="M586.898 362.198h45.108v45.108h-45.108zm-.5 22.554h46.108m-23.054-23.054v46.108M.5 407.306h45.108v45.108H.5zM0 429.86h46.108m-23.054-23.054v46.107m22.554-45.607h45.108v45.108H45.608zm-.501 22.554h46.108m-23.054-23.054v46.107"/><path d="M90.715 407.306h45.108v45.108H90.715zm-.5 22.554h46.107m-23.053-23.054v46.107m22.554-45.607h45.108v45.108h-45.108zm-.5 22.554h46.108m-23.054-23.054v46.107"/><path d="M180.93 407.306h45.108v45.108H180.93zm-.5 22.554h46.108m-23.054-23.054v46.107m22.554-45.607h45.108v45.108h-45.108zm-.5 22.554h46.107m-23.053-23.054v46.107m22.554-45.607h45.108v45.108h-45.108zm-.5 22.554h46.107m-23.054-23.054v46.107"/><path d="M316.253 407.306h45.108v45.108h-45.108zm-.5 22.554h46.107m-23.053-23.054v46.107m22.554-45.607h45.108v45.108h-45.108zm-.501 22.554h46.108m-23.054-23.054v46.107"/><path d="M406.468 407.306h45.108v45.108h-45.108zm-.5 22.554h46.108m-23.054-23.054v46.107m22.554-45.607h45.108v45.108h-45.108zm-.5 22.554h46.107m-23.054-23.054v46.107"/><path d="M496.683 407.306h45.108v45.108h-45.108zm-.5 22.554h46.108m-23.054-23.054v46.107m22.554-45.607h45.108v45.108h-45.108zm-.5 22.554h46.107m-23.054-23.054v46.107"/><path d="M586.898 407.306h45.108v45.108h-45.108zm-.5 22.554h46.108m-23.054-23.054v46.107M.5 452.414h45.108v45.107h-31.2C6.729 497.521.5 491.294.5 483.612v-31.198zM0 474.967h46.108m-23.054-23.053v46.107m22.554-45.607h45.108v45.108H45.608zm-.501 22.553h46.108m-23.054-23.053v46.107"/><path d="M90.715 452.414h45.108v45.108H90.715zm-.5 22.553h46.107m-23.053-23.053v46.107m22.554-45.607h45.108v45.108h-45.108zm-.5 22.553h46.108m-23.054-23.053v46.107"/><path d="M180.93 452.414h45.108v45.108H180.93zm-.5 22.553h46.108m-23.054-23.053v46.107m22.554-45.607h45.108v45.108h-45.108zm-.5 22.553h46.107m-23.053-23.053v46.107m22.554-45.607h45.108v45.108h-45.108zm-.5 22.553h46.107m-23.054-23.053v46.107"/><path d="M316.253 452.414h45.108v45.108h-45.108zm-.5 22.553h46.107m-23.053-23.053v46.107m22.554-45.607h45.108v45.108h-45.108zm-.5 22.553h46.107m-23.054-23.053v46.107"/><path d="M406.468 452.414h45.108v45.108h-45.108zm-.5 22.553h46.108m-23.054-23.053v46.107m22.554-45.607h45.108v45.108h-45.108zm-.5 22.553h46.107m-23.054-23.053v46.107"/><path d="M496.683 452.414h45.108v45.108h-45.108zm-.5 22.553h46.108m-23.054-23.053v46.107m22.554-45.607h45.108v45.108h-45.108zm-.5 22.553h46.107m-23.054-23.053v46.107"/><path d="M586.898 452.414h45.108v31.198c0 7.682-6.227 13.909-13.909 13.909h-31.199v-45.107zm-.5 22.553h46.108m-23.054-23.053v46.107"/></g><defs><linearGradient id="a" x1="247.221" x2="247.221" y1="473" y2="1058.95" gradientUnits="userSpaceOnUse"><stop stop-color="#FEBC2E" stop-opacity=".7"/><stop offset="1" stop-color="#FEBC2E" stop-opacity="0"/></linearGradient></defs></svg>