<svg xmlns="http://www.w3.org/2000/svg" width="122" height="106" fill="none" id="svg738259038_6119"><path fill-rule="evenodd" clip-rule="evenodd" d="M120.489 48.065 35.6 97.435l-.502-.865 84.888-49.37.503.865Z" fill="url(#svg738259038_6119_a)"></path><path fill-rule="evenodd" clip-rule="evenodd" d="M119.224 41.81 34.336 91.18l-.503-.865 84.889-49.37.502.865Z" fill="url(#svg738259038_6119_b)"></path><path fill-rule="evenodd" clip-rule="evenodd" d="M120.489 33.991 35.6 83.361l-.502-.865 84.888-49.37.503.865Z" fill="url(#svg738259038_6119_c)"></path><path fill-rule="evenodd" clip-rule="evenodd" d="m117.809 22.217-84.89 49.37-.502-.865 84.889-49.37.503.865Z" fill="url(#svg738259038_6119_d)"></path><path fill-rule="evenodd" clip-rule="evenodd" d="M85.64 3.675.751 53.045.25 52.18 85.138 2.81l.502.865Z" fill="url(#svg738259038_6119_e)"></path><path fill-rule="evenodd" clip-rule="evenodd" d="M90.502 85.373 2.262 34.886l.497-.868 88.24 50.487-.497.868Z" fill="url(#svg738259038_6119_f)"></path><path fill-rule="evenodd" clip-rule="evenodd" d="M94.548 74.874 6.308 24.387l.497-.868 88.24 50.486-.497.869Z" fill="url(#svg738259038_6119_g)"></path><path fill-rule="evenodd" clip-rule="evenodd" d="M94.548 94.867 6.308 44.38l.497-.867 88.24 50.486-.497.868Z" fill="url(#svg738259038_6119_h)"></path><path fill-rule="evenodd" clip-rule="evenodd" d="M90.7 99.493 2.462 49.006l.497-.867 88.24 50.486-.497.868Z" fill="url(#svg738259038_6119_i)"></path><path fill-rule="evenodd" clip-rule="evenodd" d="M93.63 81.082 5.39 30.595l.496-.867 88.24 50.486-.497.868Z" fill="url(#svg738259038_6119_j)"></path><path fill-rule="evenodd" clip-rule="evenodd" d="M120.66 52.265 32.42 1.778l.497-.868 88.239 50.487-.496.868Z" fill="url(#svg738259038_6119_k)"></path><path fill-rule="evenodd" clip-rule="evenodd" d="M92.573 105.502 92.175 3.841l1-.004.398 101.661-1 .004Z" fill="url(#svg738259038_6119_l)"></path><path fill-rule="evenodd" clip-rule="evenodd" d="M86.814 105.502 86.417 3.841l1-.004.397 101.661-1 .004Z" fill="url(#svg738259038_6119_m)"></path><path fill-rule="evenodd" clip-rule="evenodd" d="M36.997 105.502 36.6 3.841l1-.004.397 101.661-1 .004Z" fill="url(#svg738259038_6119_n)"></path><path fill-rule="evenodd" clip-rule="evenodd" d="M31.19 105.502 30.791 3.841l1-.004.397 101.661-1 .004Z" fill="url(#svg738259038_6119_o)"></path><path fill-rule="evenodd" clip-rule="evenodd" d="M25.38 105.502 24.985 3.841l1-.004.397 101.661-1 .004Z" fill="url(#svg738259038_6119_p)"></path><defs><linearGradient id="svg738259038_6119_a" x1="36.136" y1="98.644" x2="119.685" y2="47.264" gradientUnits="userSpaceOnUse"><stop stop-color="#fff" stop-opacity="0"></stop><stop offset=".495" stop-color="#fff"></stop><stop offset="1" stop-color="#fff" stop-opacity="0"></stop></linearGradient><linearGradient id="svg738259038_6119_b" x1="34.871" y1="92.39" x2="118.42" y2="41.01" gradientUnits="userSpaceOnUse"><stop stop-color="#fff" stop-opacity="0"></stop><stop offset=".495" stop-color="#fff"></stop><stop offset="1" stop-color="#fff" stop-opacity="0"></stop></linearGradient><linearGradient id="svg738259038_6119_c" x1="36.136" y1="84.571" x2="119.685" y2="33.191" gradientUnits="userSpaceOnUse"><stop stop-color="#fff" stop-opacity="0"></stop><stop offset=".495" stop-color="#fff"></stop><stop offset="1" stop-color="#fff" stop-opacity="0"></stop></linearGradient><linearGradient id="svg738259038_6119_d" x1="33.456" y1="72.796" x2="117.004" y2="21.416" gradientUnits="userSpaceOnUse"><stop stop-color="#fff" stop-opacity="0"></stop><stop offset=".495" stop-color="#fff"></stop><stop offset="1" stop-color="#fff" stop-opacity="0"></stop></linearGradient><linearGradient id="svg738259038_6119_e" x1="1.287" y1="54.255" x2="84.836" y2="2.875" gradientUnits="userSpaceOnUse"><stop stop-color="#fff" stop-opacity="0"></stop><stop offset=".495" stop-color="#fff"></stop><stop offset="1" stop-color="#fff" stop-opacity="0"></stop></linearGradient><linearGradient id="svg738259038_6119_f" x1="-.032" y1="34.129" x2="84.911" y2="83.17" gradientUnits="userSpaceOnUse"><stop stop-color="#fff" stop-opacity="0"></stop><stop offset=".495" stop-color="#fff"></stop><stop offset="1" stop-color="#fff" stop-opacity="0"></stop></linearGradient><linearGradient id="svg738259038_6119_g" x1="4.014" y1="23.63" x2="88.957" y2="72.671" gradientUnits="userSpaceOnUse"><stop stop-color="#fff" stop-opacity="0"></stop><stop offset=".495" stop-color="#fff"></stop><stop offset="1" stop-color="#fff" stop-opacity="0"></stop></linearGradient><linearGradient id="svg738259038_6119_h" x1="4.014" y1="43.623" x2="88.957" y2="92.665" gradientUnits="userSpaceOnUse"><stop stop-color="#fff" stop-opacity="0"></stop><stop offset=".495" stop-color="#fff"></stop><stop offset="1" stop-color="#fff" stop-opacity="0"></stop></linearGradient><linearGradient id="svg738259038_6119_i" x1=".167" y1="48.249" x2="85.11" y2="97.29" gradientUnits="userSpaceOnUse"><stop stop-color="#fff" stop-opacity="0"></stop><stop offset=".495" stop-color="#fff"></stop><stop offset="1" stop-color="#fff" stop-opacity="0"></stop></linearGradient><linearGradient id="svg738259038_6119_j" x1="3.096" y1="29.838" x2="88.038" y2="78.879" gradientUnits="userSpaceOnUse"><stop stop-color="#fff" stop-opacity="0"></stop><stop offset=".495" stop-color="#fff"></stop><stop offset="1" stop-color="#fff" stop-opacity="0"></stop></linearGradient><linearGradient id="svg738259038_6119_k" x1="30.126" y1="1.021" x2="115.069" y2="50.062" gradientUnits="userSpaceOnUse"><stop stop-color="#fff" stop-opacity="0"></stop><stop offset=".495" stop-color="#fff"></stop><stop offset="1" stop-color="#fff" stop-opacity="0"></stop></linearGradient><linearGradient id="svg738259038_6119_l" x1="91.684" y1="1.476" x2="91.684" y2="99.559" gradientUnits="userSpaceOnUse"><stop stop-color="#fff" stop-opacity="0"></stop><stop offset=".495" stop-color="#fff"></stop><stop offset="1" stop-color="#fff" stop-opacity="0"></stop></linearGradient><linearGradient id="svg738259038_6119_m" x1="85.926" y1="1.476" x2="85.926" y2="99.559" gradientUnits="userSpaceOnUse"><stop stop-color="#fff" stop-opacity="0"></stop><stop offset=".495" stop-color="#fff"></stop><stop offset="1" stop-color="#fff" stop-opacity="0"></stop></linearGradient><linearGradient id="svg738259038_6119_n" x1="36.109" y1="1.476" x2="36.109" y2="99.559" gradientUnits="userSpaceOnUse"><stop stop-color="#fff" stop-opacity="0"></stop><stop offset=".495" stop-color="#fff"></stop><stop offset="1" stop-color="#fff" stop-opacity="0"></stop></linearGradient><linearGradient id="svg738259038_6119_o" x1="30.301" y1="1.476" x2="30.301" y2="99.559" gradientUnits="userSpaceOnUse"><stop stop-color="#fff" stop-opacity="0"></stop><stop offset=".495" stop-color="#fff"></stop><stop offset="1" stop-color="#fff" stop-opacity="0"></stop></linearGradient><linearGradient id="svg738259038_6119_p" x1="24.493" y1="1.476" x2="24.493" y2="99.559" gradientUnits="userSpaceOnUse"><stop stop-color="#fff" stop-opacity="0"></stop><stop offset=".495" stop-color="#fff"></stop><stop offset="1" stop-color="#fff" stop-opacity="0"></stop></linearGradient></defs></svg>