<svg xmlns="http://www.w3.org/2000/svg" width="218" height="70" fill="none" id="svg-1505201008_1520"><g clip-path="url(#svg-1505201008_1520_a)"><path d="M155.061 18.875v24.187h-2.837V18.875h2.837ZM97.7 26.565a4.495 4.495 0 0 0-4.757 4.025h-.139v-3.652h-2.84v16.124h2.838V33.02c0-2.716 1.445-3.96 3.87-3.96 2.775 0 4.016 1.376 4.016 4.104v9.898h2.836V32.794c-.003-3.85-2.18-6.23-5.824-6.23ZM80.34 42.628h-.092l-4.925-15.691h-2.94l5.213 16.124h2.61l-2.66 8.063h2.832l7.808-24.187h-2.939l-4.906 15.69Zm62.26 0h-.093l-4.924-15.691h-2.941l5.213 16.124h2.61l-2.661 8.063h2.831l7.807-24.187h-2.939l-4.903 15.69ZM64.218 35l7-8.062H67.77l-6.53 7.781h-.09V18.875h-2.837v24.187h2.837V35.15h2.695l5.452 7.913h3.286L66.94 35h-2.721Zm63.709-4.409h-.138v-3.653h-2.837v16.124h2.837V32.991c0-2.715 1.54-3.709 4.18-3.709a7.636 7.636 0 0 1 1.758.189V26.73a4.15 4.15 0 0 0-1.345-.171 4.355 4.355 0 0 0-4.455 4.032Zm-9.456-11.716h2.836v24.187h-2.836V39.41h-.137c-.272 2.25-1.998 4.026-5.27 4.026-3.991 0-6.828-3.167-6.828-8.436s2.836-8.436 6.828-8.436c3.272 0 4.999 1.774 5.27 4.026h.137V18.875Zm0 13.995c0-2.715-2.05-3.81-4.592-3.81-2.68 0-4.684 1.667-4.684 5.94 0 4.273 2.004 5.94 4.684 5.94 2.542 0 4.592-1.094 4.592-3.81v-4.26Zm37.858 8.489v.19h.515v1.513h.242v-1.511h.515v-.191l-1.272-.001Zm2.838 0-.424 1.68h-.004l-.404-1.68h-.466l-.05 1.703h.229l.05-1.68h.005l.419 1.68h.425l.445-1.68h.004l.05 1.68h.242l-.055-1.702h-.466v-.001Z" fill="#181C1F"></path></g><defs><clipPath id="svg-1505201008_1520_a"><path fill="#fff" transform="translate(58.312 18.875)" d="M0 0h101.377v32.25H0z"></path></clipPath></defs></svg>