<svg xmlns="http://www.w3.org/2000/svg" width="60" height="61" fill="none" id="svg-1252396535_13619"><path d="M28.57 10.575c11.01.01 19.928 8.967 19.917 20.005-.01 11.039-8.944 19.978-19.955 19.967-10.997-.01-19.909-8.946-19.917-19.971-.01-11.036 8.904-19.99 19.912-20.001h.043Zm-6.702 30.249a19.918 19.918 0 0 1 13.367-.003l.621-2.343c.287 0 .55-.008.815.002a2.9 2.9 0 0 1 .815.048 28.909 28.909 0 0 1-.708 2.882c.736.408 1.467.777 2.163 1.205.696.428 1.354.91 2.027 1.367 8.082-7.425 7.578-20.055-.032-26.86a20.72 20.72 0 0 1-4.169 2.555c.282 1.002.552 1.963.73 2.954H35.84c-.1-.4-.192-.782-.293-1.16a8.245 8.245 0 0 0-.346-1.162 19.885 19.885 0 0 1-13.334-.007l-.623 2.35c-.287 0-.552.002-.816 0-.269-.002-.538-.006-.859-.01l.751-2.973a20.34 20.34 0 0 1-4.155-2.552c-8.032 7.343-7.694 19.972 0 26.881a20.912 20.912 0 0 1 4.176-2.559 28.704 28.704 0 0 1-.74-2.951h1.65l.616 2.336Zm12.795-22.075a1.574 1.574 0 0 0-.041-.193 15.75 15.75 0 0 0-2.061-3.834 7.31 7.31 0 0 0-2.058-1.933 3.563 3.563 0 0 0-3.719-.102 6.617 6.617 0 0 0-1.938 1.653 14.135 14.135 0 0 0-2.074 3.507c-.122.283-.234.57-.364.89a18.147 18.147 0 0 0 12.255.012ZM22.428 42.373c.028.096.04.152.06.203a15.983 15.983 0 0 0 1.88 3.581 8.345 8.345 0 0 0 1.84 1.915c1.495 1.093 3.116 1.107 4.626.042a7.38 7.38 0 0 0 1.389-1.297 14.897 14.897 0 0 0 2.405-4.268c.016-.06.027-.12.032-.18a18.188 18.188 0 0 0-12.232.004Zm10.787 5.88a17.49 17.49 0 0 0 6.447-3.145 17.566 17.566 0 0 0-3.39-2.072c-.458.934-.879 1.846-1.346 2.733a14.42 14.42 0 0 1-1.712 2.484Zm-9.309.007a13.658 13.658 0 0 1-1.72-2.47c-.476-.895-.895-1.818-1.352-2.756a17.612 17.612 0 0 0-3.394 2.074 17.601 17.601 0 0 0 6.466 3.152Zm12.305-30.18c.881-.298 3.092-1.672 3.4-2.11a17.45 17.45 0 0 0-6.41-3.11c1.343 1.543 2.264 3.318 3.01 5.22Zm-12.337-5.207a17.428 17.428 0 0 0-6.415 3.124c.683.637 2.796 1.908 3.442 2.069a17.846 17.846 0 0 1 2.973-5.193Zm15.299 43.224a4.158 4.158 0 0 1-.378 1.755 3.058 3.058 0 0 1-2.669 1.81 3.555 3.555 0 0 1-1.234-.101 3.035 3.035 0 0 1-2.165-2.058 4.435 4.435 0 0 1-.014-2.829 3.1 3.1 0 0 1 2.785-2.2 3.407 3.407 0 0 1 2.006.4 3.142 3.142 0 0 1 1.548 2.194c.067.336.082.686.12 1.029Zm-4.323-.038.058.004c0 .266-.017.532.004.797.003.463.102.92.289 1.343a.68.68 0 0 0 .601.402.65.65 0 0 0 .64-.391 2.28 2.28 0 0 0 .2-.586 9.345 9.345 0 0 0 .051-2.793 3.653 3.653 0 0 0-.23-.864.629.629 0 0 0-.607-.433.69.69 0 0 0-.66.418 1.443 1.443 0 0 0-.158.455c-.074.548-.127 1.098-.188 1.648Zm-2.992.036a3.591 3.591 0 0 1-.35 1.782 3.063 3.063 0 0 1-2.755 1.79 3.445 3.445 0 0 1-1.557-.247 3.037 3.037 0 0 1-1.743-1.91 4.463 4.463 0 0 1-.028-2.796 3.097 3.097 0 0 1 2.895-2.242c1.056-.053 1.983.237 2.703 1.055a3.46 3.46 0 0 1 .83 2.05c.016.17.005.345.005.518Zm-2.341.063c-.032-.49-.033-.862-.085-1.225a4.706 4.706 0 0 0-.23-.936.65.65 0 0 0-.626-.463.677.677 0 0 0-.67.46c-.105.23-.173.477-.201.728a31.543 31.543 0 0 0-.058 2.247c-.008.43.09.856.282 1.24a.677.677 0 0 0 1.224.03c.11-.19.184-.398.215-.615.07-.527.108-1.055.146-1.466h.003Zm-17.295-2.064a.72.72 0 0 0 .12.037.73.73 0 0 1 .738.72c0 .024 0 .049-.003.072a.94.94 0 0 1-.748.988 2.1 2.1 0 0 1-.483.025.994.994 0 0 1-.966-.916 1.968 1.968 0 0 1 .642-1.753 3.097 3.097 0 0 1 1.885-.78c.842-.116 1.7.054 2.434.482a2.067 2.067 0 0 1 .967 2.328 1.743 1.743 0 0 1-.845 1.096c-.48.28-.993.495-1.527.644-.385.119-.777.224-1.154.366-.354.1-.659.33-.853.645.076-.019.15-.041.223-.068a2.908 2.908 0 0 1 1.99-.18c.212.058.427.105.643.14.468.07.655-.084.71-.566.009-.07.013-.138.023-.25a7.398 7.398 0 0 1 1.078.004c.041.63.041 1.234-.266 1.795-.287.525-.782.694-1.331.742a4.276 4.276 0 0 1-1.572-.19c-.332-.095-.663-.203-1-.272-.334-.069-.679-.112-.887.256h-1.146a2.796 2.796 0 0 1 .285-1.523c.297-.54.727-.995 1.248-1.323.39-.269.798-.51 1.195-.766a4.5 4.5 0 0 0 .426-.297c.298-.231.464-.593.446-.97a.847.847 0 0 0-.515-.797 1.555 1.555 0 0 0-1.757.31Zm7.434-1.432.038.62a1.11 1.11 0 0 0 .129-.119c.427-.586 1.024-.723 1.69-.607.337.075.67.172.994.288.198.06.394.13.59.198a.433.433 0 0 0 .467-.096l.116-.27h.874a.827.827 0 0 1-.027.581c-.203.465-.404.932-.641 1.379-.303.57-.651 1.117-.962 1.684a6.175 6.175 0 0 0-.684 2.77c-.004.112-.011.225-.018.358h-2.234a2.26 2.26 0 0 1-.024-.79 4.034 4.034 0 0 1 1.206-2.62c.469-.461.956-.904 1.434-1.357.107-.102.205-.213.367-.38-.137.03-.195.038-.25.056a2.995 2.995 0 0 1-1.47.063 6.885 6.885 0 0 0-.786-.106.66.66 0 0 0-.735.578l-.002.01c-.032.17-.053.34-.062.514-.01.112-.01.226-.018.356h-1.196v-3.096c.199-.004.39-.011.582-.015l.622.001Zm21.312.885c.643-.103 1.281-.2 1.608-.87h1.732c.006.128.014.25.016.374v4.716c0 .082-.003.162 0 .243.011.354.12.472.48.494.171.01.343.003.532.003.037.301.047.605.03.908-.276.068-3.824.092-4.392.031v-.898c.318-.102.688.052 1.048-.185.046-.123.076-.251.09-.382.01-1.098.006-2.197.005-3.294a.905.905 0 0 0-.036-.168h-1.114l.001-.972ZM28.339 2.19l.508 2.08h.075l.563-2.047h1.391V5.76h-.863V3.255c-.313.81-.503 1.652-.76 2.493h-.794l-.614-2.545-.073.002c-.004.206-.008.412-.01.619-.003.206-.004.416-.006.625-.003.22 0 .44-.009.66-.009.205-.032.41-.052.646l-.767-.042c-.076-.253-.074-2.99 0-3.523h1.41Zm18.003 11.123-.755-.678.308-2.301-.06-.026-1.271 1.395-.746-.69 2.4-2.652.744.697-.32 2.305.057.031 1.286-1.406.757.68-2.4 2.645ZM13.504 8.784l-1.099-1.5.813-.611 2.12 2.873-.815.615-2.272-.79c.388.588.784 1.072 1.158 1.606l-.812.608-2.123-2.873.815-.606 2.156.749.059-.071ZM54.69 31.933c-.407.46-.77.685-1.611.993V31.75l1.13-.58a.585.585 0 0 0 .364-.39c.006-.07.007-.14.002-.21h-1.408a5.62 5.62 0 0 1-.005-1.093c1.188-.042 2.354.075 3.545.06 0 .35.005.659-.001.968-.01.382-.03.763-.048 1.144-.004.068-.005.138-.015.207-.076.52-.352.82-.794.867a.955.955 0 0 1-1.114-.664 2.546 2.546 0 0 0-.045-.127Zm1.124-.336c.191-.278.218-.48.129-.965l-.65-.043a1.134 1.134 0 0 0-.046.649c.073.371.16.43.567.36ZM22.43 2.819c.628-.105 1.216-.205 1.806-.298a3.79 3.79 0 0 1 .583-.06.874.874 0 0 1 .911.649.997.997 0 0 1-.375 1.136c-.063.045-.128.084-.202.132.525.3.757.554 1.275 1.389-.198.037-.385.074-.573.107-.193.034-.386.063-.6.098-.267-.343-.536-.687-.803-1.033a.463.463 0 0 0-.597-.19l.216 1.415-1.062.178-.58-3.523Zm2.286.825c-.032-.284-.159-.435-.385-.42a1.546 1.546 0 0 0-.714.15l.128.69c.394-.061.779-.025.971-.42Zm-6.562 1.599c.005-1.21 1.11-1.72 2.032-1.743 1.148-.029 1.706 1 1.738 2.029.035 1.14-.95 1.703-2.06 1.74-1.061.036-1.657-.967-1.71-2.026Zm2.711.436a1.95 1.95 0 0 0-.347-1.033.703.703 0 0 0-.834-.232.69.69 0 0 0-.48.69c.016.383.15.752.383 1.054.188.25.523.335.807.204a.651.651 0 0 0 .471-.683Zm23.761 2.346a2.24 2.24 0 0 1-1.16 1.849 1.424 1.424 0 0 1-1.143.081 2.519 2.519 0 0 1-1.126-.716 1.491 1.491 0 0 1-.358-1.42c.112-.477.37-.905.74-1.226a1.515 1.515 0 0 1 1.582-.309c.44.146.831.415 1.125.776.229.268.35.612.34.965Zm-1.008-.138c0-.503-.583-.995-1.07-.691a1.517 1.517 0 0 0-.735 1.157c-.05.508.554.94.993.707.432-.248.73-.68.812-1.173ZM2.362 35.783c-.911 0-1.494-.436-1.694-1.283a2.783 2.783 0 0 1-.076-.924c.088-.788.49-1.221 1.26-1.416.322-.088.659-.113.991-.072a1.5 1.5 0 0 1 1.29 1.058c.132.373.178.77.134 1.163a1.51 1.51 0 0 1-.907 1.261 2.14 2.14 0 0 1-.998.213Zm.266-2.641a1.847 1.847 0 0 0-.9.207.72.72 0 0 0-.324.747c.032.3.26.54.557.586.365.07.743.024 1.082-.128a.67.67 0 0 0 .42-.692c-.02-.469-.307-.718-.835-.72Zm54.029-4.999c-.254.043-.477.084-.702.116-.478.07-.958.144-1.437.203-.692.087-1.434-.226-1.606-1.081a4.95 4.95 0 0 1-.108-1.03 1.15 1.15 0 0 1 .8-1.142 6.568 6.568 0 0 1 1.111-.24c.466-.077.935-.129 1.403-.192.135.335.19.698.161 1.057-.492.073-.991.143-1.492.217-.217.031-.437.048-.65.095a.612.612 0 0 0-.457.9.513.513 0 0 0 .544.344c.298-.025.595-.065.892-.106.376-.051.752-.112 1.129-.163.084-.006.17-.006.255-.001l.157 1.023Zm-4.079-8.073-.771-1.55-.654.324.84 1.707-.68.348a1.142 1.142 0 0 1-.09-.126c-.415-.839-.828-1.678-1.265-2.56l3.205-1.584 1.3 2.645-.654.332-.836-1.663-.53.258.756 1.55-.621.32Zm-.866-3.974-.583-.741c.191-.459.143-.763-.139-.927-.155-.09-.225-.065-.41.168l.155.469c.094.285.206.566.278.856a.967.967 0 0 1-.28 1.016 1.09 1.09 0 0 1-1.13.235 1.384 1.384 0 0 1-.419-.233 2.642 2.642 0 0 1-.854-1.278c-.144-.48.045-.998.464-1.273l.604.763c-.161.234-.32.47-.186.764a.607.607 0 0 0 .482.401c.31-.12.39-.245.313-.542-.047-.178-.138-.345-.181-.523a5.374 5.374 0 0 1-.164-.879c-.042-.591.591-.99 1.12-.848.124.029.24.079.348.147.519.359.878.907.998 1.528.06.31-.08.59-.416.897ZM2.115 36.86l.342.929c-.26.194-.4.426-.252.748.086.19.15.226.407.218.186-.143.135-.346.133-.54a9.942 9.942 0 0 1 .01-1.069c.082-.85 1.099-1.11 1.705-.646.13.097.24.217.328.353.313.491.451 1.075.391 1.657-.056.46-.375.71-.798.909l-.35-.928c.56-.486.553-.972-.006-1.221-.308.09-.367.15-.378.444-.008.23.016.464.006.694a3.161 3.161 0 0 1-.074.652.904.904 0 0 1-1.406.522 1.15 1.15 0 0 1-.317-.315 2.447 2.447 0 0 1-.41-1.614.961.961 0 0 1 .67-.793ZM35.067 6.555l-1.085-.21-.093-.617-1.23-.235-.325.544-1.058-.21 1.978-3.253 1.16.221c.236 1.233.443 2.466.653 3.76Zm-1.26-1.602A4.416 4.416 0 0 0 33.6 3.67l-.586 1.117.792.166ZM5.834 19.478c-.19-.045-.383-.074-.568-.135a3.918 3.918 0 0 1-1.232-.684 1.175 1.175 0 0 1-.397-1.48c.079-.203.186-.396.317-.571a1.099 1.099 0 0 1 1.158-.444 3.53 3.53 0 0 1 1.673.854c.456.342.586.97.303 1.465-.097.209-.22.404-.363.584a1.14 1.14 0 0 1-.89.41Zm.135-.91c.254.01.394-.059.46-.22a.42.42 0 0 0-.128-.501 3.784 3.784 0 0 0-1.505-.812.4.4 0 0 0-.477.192.392.392 0 0 0 .038.453c.033.048.072.09.117.126.4.312.847.559 1.323.731a.863.863 0 0 0 .172.032Zm47.634 4.815v.89a1.25 1.25 0 0 1-1.443-.68 2.68 2.68 0 0 1-.293-1.062 1.493 1.493 0 0 1 .775-1.447 2.42 2.42 0 0 1 1.351-.366c.399 0 .779.17 1.043.468.39.436.594 1.009.567 1.595a1.37 1.37 0 0 1-.669 1.108l-.475-.823c.044-.05.084-.091.12-.134a.693.693 0 0 0-.6-1.151 3.71 3.71 0 0 0-.945.314.576.576 0 0 0-.318.698.661.661 0 0 0 .552.55c.098.019.202.023.335.04Zm-49.339-.729a3.673 3.673 0 0 1-1.793-.698 1.038 1.038 0 0 1-.414-1.101c.05-.248.128-.49.232-.718a1.1 1.1 0 0 1 1.19-.65 3.57 3.57 0 0 1 1.702.618c.483.275.695.86.501 1.382-.043.155-.1.307-.167.453-.227.495-.625.717-1.25.714Zm.239-.9c.278-.002.426-.095.49-.272a.389.389 0 0 0-.148-.46 1.531 1.531 0 0 0-.345-.225 13.245 13.245 0 0 0-.838-.32 2.177 2.177 0 0 0-.403-.094.46.46 0 0 0-.508.272c-.067.17-.016.325.174.48.078.07.167.125.262.167.353.139.708.27 1.066.397.082.024.167.042.253.053l-.003.003ZM1.6 28.53l-.164.908c-.702-.144-1.016-.525-.998-1.226.007-.289.047-.575.122-.855a1.001 1.001 0 0 1 1.596-.556c.262.21.477.473.632.77l.422.675c.167-.261.092-.51.129-.737.038-.238.053-.479.083-.763l.774.042c-.09 1.006-.177 1.969-.265 2.969a1.765 1.765 0 0 1-.899-.492c-.23-.257-.43-.542-.634-.82-.123-.168-.23-.347-.346-.518a1.244 1.244 0 0 0-.13-.162.51.51 0 0 0-.529-.176.436.436 0 0 0-.289.396.467.467 0 0 0 .31.456c.053.021.103.048.186.09ZM17.199 6.095l.32.606-1.225.664.667 1.295-.952.51-1.66-3.167 2.4-1.262.355.646-1.429.766.29.58 1.234-.638ZM52.222 41.37l-1.365-.598.43-.988 1.382.588 2.446-.434-.478 1.086-1.408.194.816 1.161-.471 1.098-1.352-2.107ZM36.966 7.238 35.95 6.89l.852-2.529c-.318-.213-.699-.245-1.05-.43l.275-.791 3.163 1.08-.274.807-1.074-.35-.877 2.56Zm15.493 28.917 2.612.684.304-1.088.819.215-.842 3.231-.83-.203.278-1.097-2.608-.698.267-1.044ZM1.563 25.719l-.772-.184.631-2.807.626.137a4.359 4.359 0 0 0 2.56 1.933l-.206.923a4.727 4.727 0 0 1-2.406-1.724c-.195.587-.252 1.148-.433 1.722Zm5.176-11.137c-.069.345-.126.638-.187.93a.954.954 0 0 1-.078.173l-.615-.452c.17-.525.241-1.045-.048-1.556l.48-.656 2.916 2.155-.574.794-1.894-1.388Zm5.229-2.429-.744.799-2.453-2.586.752-.783 2.445 2.57ZM39.535 8.35l-.975-.47 1.52-3.228.985.459-1.53 3.239ZM5.77 39.67l.427.998-3.272 1.417-.428-.996L5.77 39.67Zm47.032-5.21.154-1.05c1.175.143 2.325.32 3.516.5l-.145 1.053a105.586 105.586 0 0 1-3.525-.503Z" fill="#F2F7F7"></path><path d="M44.014 30.578a6.01 6.01 0 0 1-.601 2.687 4.688 4.688 0 0 1-2.46 2.235 7.28 7.28 0 0 1-2.425.509 7.778 7.778 0 0 1-2.872-.311c-2.01-.646-3.214-2.005-3.52-4.122a6.66 6.66 0 0 1 .18-2.886 4.677 4.677 0 0 1 2.857-3.099 7.866 7.866 0 0 1 3.742-.46c.727.05 1.44.223 2.109.511a4.732 4.732 0 0 1 2.89 3.83c.053.366.068.738.1 1.106Zm-3.948 0c-.033-.495-.049-.994-.103-1.486a4.217 4.217 0 0 0-.442-1.593 1.58 1.58 0 0 0-1.468-.872 1.61 1.61 0 0 0-1.508.868c-.205.39-.337.812-.393 1.249a12.315 12.315 0 0 0-.058 3.248c.038.496.157.984.35 1.442a1.723 1.723 0 0 0 3.14.067c.107-.23.19-.47.247-.718.157-.726.235-1.464.235-2.205Zm-11.132-1.681c-.069-.19-.12-.342-.177-.493-.378-1.02-1.14-1.54-2.192-1.652a2.92 2.92 0 0 0-1.202.065 1.472 1.472 0 0 0-.67.413c-.375.416-.335.884.141 1.175.278.164.578.289.889.37.655.18 1.325.311 1.982.488a7.4 7.4 0 0 1 2.163.905 2.644 2.644 0 0 1 1.238 2.062 3.122 3.122 0 0 1-.665 2.404 3.517 3.517 0 0 1-1.56 1.057 6.439 6.439 0 0 1-2.522.321 7.565 7.565 0 0 1-2.894-.75c-.04-.018-.083-.03-.15-.053l-.386.544h-1.361v-3.774c.234-.036.473-.045.71-.029.23-.006.46-.001.72-.001.047.125.089.241.136.355.474 1.132 1.27 1.89 2.497 2.126.408.094.832.085 1.235-.027.22-.065.426-.17.608-.31a.787.787 0 0 0 0-1.281 3.586 3.586 0 0 0-.974-.51c-.675-.235-1.37-.408-2.051-.625a13.806 13.806 0 0 1-1.398-.506c-.868-.386-1.503-1.015-1.696-1.97-.308-1.527.332-2.855 1.728-3.593a4.635 4.635 0 0 1 1.927-.504 7.509 7.509 0 0 1 3.706.673c.041.02.086.034.161.063l.282-.473h1.433v3.522c-.266.003-.537.007-.808.008-.279.002-.555 0-.85 0Zm-8.584 5.377v1.42h-6.053v-1.42c.187 0 .369.004.549-.001.127 0 .253-.01.379-.032a.41.41 0 0 0 .367-.362c.027-.147.046-.296.053-.445.004-1.921.004-3.844 0-5.765-.001-.68-.163-.835-.84-.846-.161-.003-.322 0-.508 0V25.41h6.012c.079.458.086.927.02 1.388-.084.009-.172.02-.262.025-.09.006-.184 0-.277.002-.618.022-.764.155-.764.766a1001.24 1001.24 0 0 0 0 5.903c.002.631.15.768.782.78.172.001.343 0 .543 0Z" fill="#F2F7F7"></path></svg>