<svg xmlns="http://www.w3.org/2000/svg" width="65" height="65" fill="none"><path fill="#3F89A1" fill-opacity=".15" d="M.5.5h64v64H.5z"/><path fill="#3F89A1" fill-rule="evenodd" d="M21.01 26.65a2.64 2.64 0 0 1 2.64-2.64h4.95a2.64 2.64 0 0 1 2.64 2.64v5.033a2.64 2.64 0 0 1-2.64 2.64h-5.52a5.463 5.463 0 0 0 4.823 4.445l2.447.247a.99.99 0 0 1-.2 1.97l-2.446-.247a7.442 7.442 0 0 1-6.694-7.405V26.65zm1.98 5.693h5.61a.66.66 0 0 0 .66-.66V26.65a.66.66 0 0 0-.66-.66h-4.95a.66.66 0 0 0-.66.66v5.693zm10.77-5.693a2.64 2.64 0 0 1 2.64-2.64h4.95a2.64 2.64 0 0 1 2.64 2.64v5.033a2.64 2.64 0 0 1-2.64 2.64h-5.52a5.463 5.463 0 0 0 4.823 4.445l2.447.247a.99.99 0 0 1-.2 1.97l-2.446-.247a7.442 7.442 0 0 1-6.694-7.405V26.65zm1.98 5.693h5.61a.66.66 0 0 0 .66-.66V26.65a.66.66 0 0 0-.66-.66H36.4a.66.66 0 0 0-.66.66v5.693z" clip-rule="evenodd"/></svg>