<svg xmlns="http://www.w3.org/2000/svg" viewBox="0 0 950 89" width="950" height="89" preserveAspectRatio="xMidYMid slice" style="width: 100%; height: 100%; transform: translate3d(0px, 0px, 0px);"><defs><clipPath id="__lottie_element_226"><rect width="950" height="89" x="0" y="0"></rect></clipPath><clipPath id="__lottie_element_228"><path d="M0,0 L100000,0 L100000,100000 L0,100000z"></path></clipPath><clipPath id="__lottie_element_232"><path d="M0,0 L100000,0 L100000,100000 L0,100000z"></path></clipPath><clipPath id="__lottie_element_236"><path d="M0,0 L100000,0 L100000,100000 L0,100000z"></path></clipPath><clipPath id="__lottie_element_240"><path d="M0,0 L100000,0 L100000,100000 L0,100000z"></path></clipPath><clipPath id="__lottie_element_244"><path d="M0,0 L100000,0 L100000,100000 L0,100000z"></path></clipPath><mask id="__lottie_element_247" mask-type="alpha"><g id="precomp_GoLcg8tj_djlc9WMhjfNO17" clip-path="url(#__lottie_element_248)" transform="matrix(1,0,0,1,0,0)" opacity="1" style="display: block;"><g id="QO5iwaevRWzsLOahhJtW318" transform="matrix(1,0,0,1,50000,50000)" opacity="1" style="display: block;"><g opacity="1" transform="matrix(1,0,0,1,0,0)"><path fill="rgb(0,0,0)" fill-opacity="1" d=" M88.1449966430664,-21.969999313354492 C88.1449966430664,-25.28139877319336 85.4563980102539,-27.969999313354492 82.1449966430664,-27.969999313354492 C82.1449966430664,-27.969999313354492 -82.1449966430664,-27.969999313354492 -82.1449966430664,-27.969999313354492 C-85.4563980102539,-27.969999313354492 -88.1449966430664,-25.28139877319336 -88.1449966430664,-21.969999313354492 C-88.1449966430664,-21.969999313354492 -88.1449966430664,21.969999313354492 -88.1449966430664,21.969999313354492 C-88.1449966430664,25.28139877319336 -85.4563980102539,27.969999313354492 -82.1449966430664,27.969999313354492 C-82.1449966430664,27.969999313354492 82.1449966430664,27.969999313354492 82.1449966430664,27.969999313354492 C85.4563980102539,27.969999313354492 88.1449966430664,25.28139877319336 88.1449966430664,21.969999313354492 C88.1449966430664,21.969999313354492 88.1449966430664,-21.969999313354492 88.1449966430664,-21.969999313354492z"></path></g></g></g></mask><clipPath id="__lottie_element_248"><path d="M0,0 L100000,0 L100000,100000 L0,100000z"></path></clipPath><clipPath id="__lottie_element_255"><path d="M0,0 L100000,0 L100000,100000 L0,100000z"></path></clipPath><clipPath id="__lottie_element_259"><path d="M0,0 L100000,0 L100000,100000 L0,100000z"></path></clipPath><clipPath id="__lottie_element_263"><path d="M0,0 L100000,0 L100000,100000 L0,100000z"></path></clipPath><clipPath id="__lottie_element_267"><path d="M0,0 L100000,0 L100000,100000 L0,100000z"></path></clipPath><clipPath id="__lottie_element_295"><path d="M0,0 L100000,0 L100000,100000 L0,100000z"></path></clipPath><clipPath id="__lottie_element_302"><path d="M0,0 L100000,0 L100000,100000 L0,100000z"></path></clipPath><clipPath id="__lottie_element_306"><path d="M0,0 L100000,0 L100000,100000 L0,100000z"></path></clipPath><clipPath id="__lottie_element_310"><path d="M0,0 L100000,0 L100000,100000 L0,100000z"></path></clipPath><mask id="__lottie_element_313" mask-type="alpha"><g id="precomp_UyXs5jkBvelBGlzDZSF2Z26" clip-path="url(#__lottie_element_314)" transform="matrix(1,0,0,1,0,0)" opacity="1" style="display: block;"><g id="n_qG623EDfdCNmF8WmNTH27" transform="matrix(1,0,0,1,50000,50000)" opacity="1" style="display: block;"><g opacity="1" transform="matrix(1,0,0,1,0,0)"><path fill="rgb(0,0,0)" fill-opacity="1" d=" M18,-19.5 C18,-19.5 -18,-19.5 -18,-19.5 C-18,-19.5 -18,19.5 -18,19.5 C-18,19.5 18,19.5 18,19.5 C18,19.5 18,-19.5 18,-19.5z"></path></g></g></g></mask><clipPath id="__lottie_element_314"><path d="M0,0 L100000,0 L100000,100000 L0,100000z"></path></clipPath><clipPath id="__lottie_element_321"><path d="M0,0 L100000,0 L100000,100000 L0,100000z"></path></clipPath><clipPath id="__lottie_element_328"><path d="M0,0 L100000,0 L100000,100000 L0,100000z"></path></clipPath><clipPath id="__lottie_element_332"><path d="M0,0 L100000,0 L100000,100000 L0,100000z"></path></clipPath><clipPath id="__lottie_element_336"><path d="M0,0 L100000,0 L100000,100000 L0,100000z"></path></clipPath><clipPath id="__lottie_element_340"><path d="M0,0 L100000,0 L100000,100000 L0,100000z"></path></clipPath><clipPath id="__lottie_element_344"><path d="M0,0 L100000,0 L100000,100000 L0,100000z"></path></clipPath><clipPath id="__lottie_element_348"><path d="M0,0 L100000,0 L100000,100000 L0,100000z"></path></clipPath></defs><g clip-path="url(#__lottie_element_226)"><g id="precomp_clI_akd0ek1uXcmCJ5XRj0" clip-path="url(#__lottie_element_228)" transform="matrix(1,0,0,1,-49525,-49955.5)" opacity="1" style="display: block;"><g id="precomp_ZgZ2SjEi0NWygyzz4Kfs633" clip-path="url(#__lottie_element_348)" transform="matrix(1,0,0,1,0,0)" opacity="1" style="display: block;"></g><g id="precomp__hJqSzM9pL1JeHBsiqhoL32" clip-path="url(#__lottie_element_344)" transform="matrix(1,0,0,1,0,0)" opacity="1" style="display: block;"></g><g id="precomp_2tQDqaHvNLqcFz70UlmlW1" clip-path="url(#__lottie_element_232)" transform="matrix(1,0,0,1,121,0.41796875)" opacity="1" style="display: block;"><g id="precomp_cbLIuLcmeu9-IgA3DNGlQ31" clip-path="url(#__lottie_element_340)" transform="matrix(1,0,0,1,0,0)" opacity="1" style="display: block;"></g><g id="precomp_P2DwgFyRIp4T__z5mta3I30" clip-path="url(#__lottie_element_336)" transform="matrix(1,0,0,1,0,0)" opacity="1" style="display: block;"></g><g id="precomp_wHH1L6mFSgEDZGPIxotFg21" clip-path="url(#__lottie_element_302)" transform="matrix(1,0,0,1,-84.8203125,-24.8984375)" opacity="1" style="display: block;"><g id="precomp_y7qZDzJo-52UU0EOp_wvH29" clip-path="url(#__lottie_element_332)" transform="matrix(1,0,0,1,0,0)" opacity="1" style="display: block;"></g><g id="precomp_WBdpSwDudOXY7uxeoJTaU28" clip-path="url(#__lottie_element_328)" transform="matrix(1,0,0,1,0,0)" opacity="1" style="display: block;"></g><g id="precomp_AkDjbvxcYIqVOKj1wIQKV23" clip-path="url(#__lottie_element_310)" transform="matrix(1,0,0,1,0,0)" opacity="1" style="display: block;"><g mask="url(#__lottie_element_313)" style="display: block;"><g id="precomp_AkDjbvxcYIqVOKj1wIQKV24" clip-path="url(#__lottie_element_321)" transform="matrix(1,0,0,1,0,0)" opacity="1"><g id="yG3VjFpw2-fGq6QCWgsXm25" transform="matrix(1.333299994468689,0,0,1.333299994468689,49982,49980.5)" opacity="1" style="display: block;"><g opacity="1" transform="matrix(1,0,0,1,0,0)"><g opacity="1" transform="matrix(1,0,0,1,0,0)"><g opacity="1" transform="matrix(1,0,0,1,0,0)"><path fill="rgb(252,165,153)" fill-opacity="1" d=" M0,8.630000114440918 C0,8.630000114440918 11.779999732971191,29.030000686645508 11.779999732971191,29.030000686645508 C11.779999732971191,29.030000686645508 14.199999809265137,20.59000015258789 14.199999809265137,20.59000015258789 C14.199999809265137,20.59000015258789 14.270000457763672,20.299999237060547 14.270000457763672,20.299999237060547 C14.270000457763672,20.299999237060547 23.559999465942383,14.9399995803833 23.559999465942383,14.9399995803833 C23.559999465942383,14.9399995803833 0,8.630000114440918 0,8.630000114440918z"></path></g></g></g></g></g></g></g><g id="precomp_qIa3Ofca-VZ3ntV7T3QsT22" clip-path="url(#__lottie_element_306)" transform="matrix(1,0,0,1,0,0)" opacity="1" style="display: block;"></g></g><g id="precomp_2vRA2xODAd-KQ88-GY7r_2" clip-path="url(#__lottie_element_236)" transform="matrix(1,0,0,1,14.671875,16.44140625)" opacity="1" style="display: block;"><g id="precomp_fB65qYlIfAErPlu60mfIJ19" clip-path="url(#__lottie_element_295)" transform="matrix(1,0,0,1,0,0)" opacity="1" style="display: block;"><g id="24vfoCC7w2E7NBFwOcV_Z20" transform="matrix(1,0,0,1,50000,50000)" opacity="1" style="display: block;"><g opacity="1" transform="matrix(1,0,0,1,0,0)"><path fill="rgb(252,165,153)" fill-opacity="1" d=" M88.1449966430664,-21.969999313354492 C88.1449966430664,-25.28139877319336 85.4563980102539,-27.969999313354492 82.1449966430664,-27.969999313354492 C82.1449966430664,-27.969999313354492 -82.1449966430664,-27.969999313354492 -82.1449966430664,-27.969999313354492 C-85.4563980102539,-27.969999313354492 -88.1449966430664,-25.28139877319336 -88.1449966430664,-21.969999313354492 C-88.1449966430664,-21.969999313354492 -88.1449966430664,21.969999313354492 -88.1449966430664,21.969999313354492 C-88.1449966430664,25.28139877319336 -85.4563980102539,27.969999313354492 -82.1449966430664,27.969999313354492 C-82.1449966430664,27.969999313354492 82.1449966430664,27.969999313354492 82.1449966430664,27.969999313354492 C85.4563980102539,27.969999313354492 88.1449966430664,25.28139877319336 88.1449966430664,21.969999313354492 C88.1449966430664,21.969999313354492 88.1449966430664,-21.969999313354492 88.1449966430664,-21.969999313354492z"></path></g></g></g><g id="precomp_lMfHIFPrpotd84H2HTW2Q4" clip-path="url(#__lottie_element_244)" transform="matrix(1,0,0,1,0,0)" opacity="1" style="display: block;"><g mask="url(#__lottie_element_247)" style="display: block;"><g id="precomp_lMfHIFPrpotd84H2HTW2Q5" clip-path="url(#__lottie_element_255)" transform="matrix(1,0,0,1,0,0)" opacity="1"><g id="precomp_vA5fqLHOD4L7RyATAY2sj6" clip-path="url(#__lottie_element_259)" transform="matrix(1,0,0,1,0.5,2.5)" opacity="1" style="display: block;"><g id="precomp_OXS1GDFY_If-1aSm33RnM7" clip-path="url(#__lottie_element_263)" transform="matrix(1,0,0,1,0,-0.26953125)" opacity="1" style="display: block;"><g id="precomp_ifG8I_he40_DFveeRafoa8" clip-path="url(#__lottie_element_267)" transform="matrix(1,0,0,1,0,0)" opacity="1" style="display: block;"><g id="UnLhP81nuAO8rGnt7sKQE16" transform="matrix(1,0,0,1,49937.5,50008.5390625)" opacity="1" style="display: block;"><g opacity="1" transform="matrix(1,0,0,1,0,0)"><path fill="rgb(22,28,30)" fill-opacity="1" d=" M2.75,0 C2.75,0 2.75,-21.360000610351562 2.75,-21.360000610351562 C2.75,-21.360000610351562 18.309999465942383,-21.360000610351562 18.309999465942383,-21.360000610351562 C18.309999465942383,-21.360000610351562 18.309999465942383,-18.610000610351562 18.309999465942383,-18.610000610351562 C18.309999465942383,-18.610000610351562 5.800000190734863,-18.610000610351562 5.800000190734863,-18.610000610351562 C5.800000190734863,-18.610000610351562 5.800000190734863,-12.359999656677246 5.800000190734863,-12.359999656677246 C5.800000190734863,-12.359999656677246 16.479999542236328,-12.359999656677246 16.479999542236328,-12.359999656677246 C16.479999542236328,-12.359999656677246 16.479999542236328,-9.609999656677246 16.479999542236328,-9.609999656677246 C16.479999542236328,-9.609999656677246 5.800000190734863,-9.609999656677246 5.800000190734863,-9.609999656677246 C5.800000190734863,-9.609999656677246 5.800000190734863,-2.75 5.800000190734863,-2.75 C5.800000190734863,-2.75 18.610000610351562,-2.75 18.610000610351562,-2.75 C18.610000610351562,-2.75 18.610000610351562,0 18.610000610351562,0 C18.610000610351562,0 2.75,0 2.75,0"></path></g></g><g id="3y4g0v_eOgHbK03jRRrpt15" transform="matrix(1,0,0,1,49957.390625,50008.5390625)" opacity="1" style="display: block;"><g opacity="1" transform="matrix(1,0,0,1,0,0)"><path fill="rgb(22,28,30)" fill-opacity="1" d=" M2.2899999618530273,0 C2.2899999618530273,0 2.2899999618530273,-15.260000228881836 2.2899999618530273,-15.260000228881836 C2.2899999618530273,-15.260000228881836 5.190000057220459,-15.260000228881836 5.190000057220459,-15.260000228881836 C5.190000057220459,-15.260000228881836 5.190000057220459,-13.119999885559082 5.190000057220459,-13.119999885559082 C5.699999809265137,-13.869999885559082 6.349999904632568,-14.470000267028809 7.139999866485596,-14.899999618530273 C7.929999828338623,-15.34000015258789 8.90999984741211,-15.5600004196167 10.069999694824219,-15.5600004196167 C10.069999694824219,-15.5600004196167 10.069999694824219,-15.5600004196167 10.069999694824219,-15.5600004196167 C11.229999542236328,-15.5600004196167 12.220000267028809,-15.34000015258789 13.039999961853027,-14.899999618530273 C13.869999885559082,-14.470000267028809 14.489999771118164,-13.850000381469727 14.920000076293945,-13.039999961853027 C15.350000381469727,-12.239999771118164 15.5600004196167,-11.300000190734863 15.5600004196167,-10.220000267028809 C15.5600004196167,-10.220000267028809 15.5600004196167,-10.220000267028809 15.5600004196167,-10.220000267028809 C15.5600004196167,-10.220000267028809 15.5600004196167,0 15.5600004196167,0 C15.5600004196167,0 12.65999984741211,0 12.65999984741211,0 C12.65999984741211,0 12.65999984741211,-9.609999656677246 12.65999984741211,-9.609999656677246 C12.65999984741211,-10.34000015258789 12.550000190734863,-10.970000267028809 12.34000015258789,-11.489999771118164 C12.130000114440918,-12.010000228881836 11.789999961853027,-12.40999984741211 11.34000015258789,-12.6899995803833 C10.880000114440918,-12.979999542236328 10.289999961853027,-13.119999885559082 9.579999923706055,-13.119999885559082 C9.579999923706055,-13.119999885559082 9.579999923706055,-13.119999885559082 9.579999923706055,-13.119999885559082 C9.579999923706055,-13.119999885559082 9.34000015258789,-13.119999885559082 9.34000015258789,-13.119999885559082 C8.609999656677246,-13.119999885559082 7.920000076293945,-12.9399995803833 7.289999961853027,-12.569999694824219 C6.659999847412109,-12.199999809265137 6.159999847412109,-11.670000076293945 5.769999980926514,-10.979999542236328 C5.380000114440918,-10.289999961853027 5.190000057220459,-9.479999542236328 5.190000057220459,-8.539999961853027 C5.190000057220459,-8.539999961853027 5.190000057220459,-8.539999961853027 5.190000057220459,-8.539999961853027 C5.190000057220459,-8.539999961853027 5.190000057220459,0 5.190000057220459,0 C5.190000057220459,0 2.2899999618530273,0 2.2899999618530273,0"></path></g></g><g id="QLjO3y-8nIDAdavXrdLh414" transform="matrix(1,0,0,1,49975.08984375,50008.5390625)" opacity="1" style="display: block;"><g opacity="1" transform="matrix(1,0,0,1,0,0)"><path fill="rgb(22,28,30)" fill-opacity="1" d=" M8.539999961853027,-2.440000057220459 C9.25,-2.440000057220459 9.9399995803833,-2.6600000858306885 10.59000015258789,-3.0999999046325684 C11.239999771118164,-3.5299999713897705 11.760000228881836,-4.150000095367432 12.15999984741211,-4.960000038146973 C12.550000190734863,-5.760000228881836 12.75,-6.699999809265137 12.75,-7.78000020980835 C12.75,-7.78000020980835 12.75,-7.78000020980835 12.75,-7.78000020980835 C12.75,-8.859999656677246 12.5600004196167,-9.8100004196167 12.1899995803833,-10.619999885559082 C11.8100004196167,-11.430000305175781 11.3100004196167,-12.050000190734863 10.6899995803833,-12.479999542236328 C10.069999694824219,-12.90999984741211 9.40999984741211,-13.119999885559082 8.699999809265137,-13.119999885559082 C8.699999809265137,-13.119999885559082 8.699999809265137,-13.119999885559082 8.699999809265137,-13.119999885559082 C8.699999809265137,-13.119999885559082 8.449999809265137,-13.119999885559082 8.449999809265137,-13.119999885559082 C7.699999809265137,-13.119999885559082 7.010000228881836,-12.930000305175781 6.380000114440918,-12.5600004196167 C5.75,-12.180000305175781 5.239999771118164,-11.59000015258789 4.869999885559082,-10.800000190734863 C4.489999771118164,-10.010000228881836 4.300000190734863,-9 4.300000190734863,-7.78000020980835 C4.300000190734863,-7.78000020980835 4.300000190734863,-7.78000020980835 4.300000190734863,-7.78000020980835 C4.300000190734863,-5.96999979019165 4.670000076293945,-4.619999885559082 5.420000076293945,-3.75 C6.159999847412109,-2.880000114440918 7.119999885559082,-2.440000057220459 8.300000190734863,-2.440000057220459 C8.300000190734863,-2.440000057220459 8.300000190734863,-2.440000057220459 8.300000190734863,-2.440000057220459 C8.300000190734863,-2.440000057220459 8.539999961853027,-2.440000057220459 8.539999961853027,-2.440000057220459 M8.180000305175781,6.710000038146973 C6.789999961853027,6.710000038146973 5.579999923706055,6.510000228881836 4.550000190734863,6.119999885559082 C3.509999990463257,5.71999979019165 2.700000047683716,5.159999847412109 2.119999885559082,4.440000057220459 C1.5399999618530273,3.7200000286102295 1.2000000476837158,2.9000000953674316 1.100000023841858,1.9800000190734863 C1.100000023841858,1.9800000190734863 1.100000023841858,1.9800000190734863 1.100000023841858,1.9800000190734863 C1.100000023841858,1.9800000190734863 4,1.9800000190734863 4,1.9800000190734863 C4.139999866485596,2.7100000381469727 4.579999923706055,3.2799999713897705 5.309999942779541,3.680000066757202 C6.039999961853027,4.070000171661377 6.949999809265137,4.269999980926514 8.020000457763672,4.269999980926514 C8.020000457763672,4.269999980926514 8.020000457763672,4.269999980926514 8.020000457763672,4.269999980926514 C8.020000457763672,4.269999980926514 8.329999923706055,4.269999980926514 8.329999923706055,4.269999980926514 C9.6899995803833,4.269999980926514 10.770000457763672,3.890000104904175 11.5600004196167,3.140000104904175 C12.350000381469727,2.390000104904175 12.75,1.2400000095367432 12.75,-0.3100000023841858 C12.75,-0.3100000023841858 12.75,-0.3100000023841858 12.75,-0.3100000023841858 C12.75,-0.3100000023841858 12.75,-2.440000057220459 12.75,-2.440000057220459 C12.319999694824219,-1.75 11.720000267028809,-1.1699999570846558 10.9399995803833,-0.699999988079071 C10.149999618530273,-0.23000000417232513 9.229999542236328,0 8.180000305175781,0 C8.180000305175781,0 8.180000305175781,0 8.180000305175781,0 C6.960000038146973,0 5.840000152587891,-0.2800000011920929 4.809999942779541,-0.8500000238418579 C3.7799999713897705,-1.4199999570846558 2.950000047683716,-2.2899999618530273 2.3299999237060547,-3.4600000381469727 C1.7100000381469727,-4.630000114440918 1.399999976158142,-6.070000171661377 1.399999976158142,-7.78000020980835 C1.399999976158142,-7.78000020980835 1.399999976158142,-7.78000020980835 1.399999976158142,-7.78000020980835 C1.399999976158142,-9.489999771118164 1.7100000381469727,-10.930000305175781 2.319999933242798,-12.100000381469727 C2.930000066757202,-13.270000457763672 3.75,-14.140000343322754 4.78000020980835,-14.710000038146973 C5.809999942779541,-15.279999732971191 6.940000057220459,-15.5600004196167 8.180000305175781,-15.5600004196167 C8.180000305175781,-15.5600004196167 8.180000305175781,-15.5600004196167 8.180000305175781,-15.5600004196167 C9.25,-15.5600004196167 10.199999809265137,-15.319999694824219 11.029999732971191,-14.84000015258789 C11.859999656677246,-14.369999885559082 12.430000305175781,-13.789999961853027 12.75,-13.119999885559082 C12.75,-13.119999885559082 12.75,-13.119999885559082 12.75,-13.119999885559082 C12.75,-13.119999885559082 12.75,-15.260000228881836 12.75,-15.260000228881836 C12.75,-15.260000228881836 15.649999618530273,-15.260000228881836 15.649999618530273,-15.260000228881836 C15.649999618530273,-15.260000228881836 15.649999618530273,0 15.649999618530273,0 C15.649999618530273,1.2799999713897705 15.359999656677246,2.430000066757202 14.770000457763672,3.450000047683716 C14.180000305175781,4.460000038146973 13.319999694824219,5.260000228881836 12.1899995803833,5.840000152587891 C11.0600004196167,6.420000076293945 9.729999542236328,6.710000038146973 8.180000305175781,6.710000038146973 C8.180000305175781,6.710000038146973 8.180000305175781,6.710000038146973 8.180000305175781,6.710000038146973"></path></g></g><g id="VjXxRxoZCfQDWWQ7mQbP913" transform="matrix(1,0,0,1,49993.03125,50008.5390625)" opacity="1" style="display: block;"><g opacity="1" transform="matrix(1,0,0,1,0,0)"><path fill="rgb(22,28,30)" fill-opacity="1" d=" M2.140000104904175,-18 C2.140000104904175,-18 2.140000104904175,-21.360000610351562 2.140000104904175,-21.360000610351562 C2.140000104904175,-21.360000610351562 5.340000152587891,-21.360000610351562 5.340000152587891,-21.360000610351562 C5.340000152587891,-21.360000610351562 5.340000152587891,-18 5.340000152587891,-18 C5.340000152587891,-18 2.140000104904175,-18 2.140000104904175,-18 M2.2899999618530273,0 C2.2899999618530273,0 2.2899999618530273,-15.260000228881836 2.2899999618530273,-15.260000228881836 C2.2899999618530273,-15.260000228881836 5.190000057220459,-15.260000228881836 5.190000057220459,-15.260000228881836 C5.190000057220459,-15.260000228881836 5.190000057220459,0 5.190000057220459,0 C5.190000057220459,0 2.2899999618530273,0 2.2899999618530273,0"></path></g></g><g id="Mn_l4wt6D9GQQB625hrwZ12" transform="matrix(1,0,0,1,50000.5,50008.5390625)" opacity="1" style="display: block;"><g opacity="1" transform="matrix(1,0,0,1,0,0)"><path fill="rgb(22,28,30)" fill-opacity="1" d=" M2.2899999618530273,0 C2.2899999618530273,0 2.2899999618530273,-15.260000228881836 2.2899999618530273,-15.260000228881836 C2.2899999618530273,-15.260000228881836 5.190000057220459,-15.260000228881836 5.190000057220459,-15.260000228881836 C5.190000057220459,-15.260000228881836 5.190000057220459,-13.119999885559082 5.190000057220459,-13.119999885559082 C5.699999809265137,-13.869999885559082 6.349999904632568,-14.470000267028809 7.139999866485596,-14.899999618530273 C7.929999828338623,-15.34000015258789 8.90999984741211,-15.5600004196167 10.069999694824219,-15.5600004196167 C10.069999694824219,-15.5600004196167 10.069999694824219,-15.5600004196167 10.069999694824219,-15.5600004196167 C11.229999542236328,-15.5600004196167 12.220000267028809,-15.34000015258789 13.039999961853027,-14.899999618530273 C13.869999885559082,-14.470000267028809 14.489999771118164,-13.850000381469727 14.920000076293945,-13.039999961853027 C15.350000381469727,-12.239999771118164 15.5600004196167,-11.300000190734863 15.5600004196167,-10.220000267028809 C15.5600004196167,-10.220000267028809 15.5600004196167,-10.220000267028809 15.5600004196167,-10.220000267028809 C15.5600004196167,-10.220000267028809 15.5600004196167,0 15.5600004196167,0 C15.5600004196167,0 12.65999984741211,0 12.65999984741211,0 C12.65999984741211,0 12.65999984741211,-9.609999656677246 12.65999984741211,-9.609999656677246 C12.65999984741211,-10.34000015258789 12.550000190734863,-10.970000267028809 12.34000015258789,-11.489999771118164 C12.130000114440918,-12.010000228881836 11.789999961853027,-12.40999984741211 11.34000015258789,-12.6899995803833 C10.880000114440918,-12.979999542236328 10.289999961853027,-13.119999885559082 9.579999923706055,-13.119999885559082 C9.579999923706055,-13.119999885559082 9.579999923706055,-13.119999885559082 9.579999923706055,-13.119999885559082 C9.579999923706055,-13.119999885559082 9.34000015258789,-13.119999885559082 9.34000015258789,-13.119999885559082 C8.609999656677246,-13.119999885559082 7.920000076293945,-12.9399995803833 7.289999961853027,-12.569999694824219 C6.659999847412109,-12.199999809265137 6.159999847412109,-11.670000076293945 5.769999980926514,-10.979999542236328 C5.380000114440918,-10.289999961853027 5.190000057220459,-9.479999542236328 5.190000057220459,-8.539999961853027 C5.190000057220459,-8.539999961853027 5.190000057220459,-8.539999961853027 5.190000057220459,-8.539999961853027 C5.190000057220459,-8.539999961853027 5.190000057220459,0 5.190000057220459,0 C5.190000057220459,0 2.2899999618530273,0 2.2899999618530273,0"></path></g></g><g id="2GNWNVNKXAw0HlXiCtidb11" transform="matrix(1,0,0,1,50018.19921875,50008.5390625)" opacity="1" style="display: block;"><g opacity="1" transform="matrix(1,0,0,1,0,0)"><path fill="rgb(22,28,30)" fill-opacity="1" d=" M12.050000190734863,-9.460000038146973 C11.989999771118164,-10.699999809265137 11.640000343322754,-11.619999885559082 11,-12.220000267028809 C10.359999656677246,-12.819999694824219 9.5600004196167,-13.119999885559082 8.600000381469727,-13.119999885559082 C8.600000381469727,-13.119999885559082 8.600000381469727,-13.119999885559082 8.600000381469727,-13.119999885559082 C8.600000381469727,-13.119999885559082 8.359999656677246,-13.119999885559082 8.359999656677246,-13.119999885559082 C7.46999979019165,-13.119999885559082 6.659999847412109,-12.829999923706055 5.929999828338623,-12.239999771118164 C5.210000038146973,-11.649999618530273 4.71999979019165,-10.720000267028809 4.449999809265137,-9.460000038146973 C4.449999809265137,-9.460000038146973 4.449999809265137,-9.460000038146973 4.449999809265137,-9.460000038146973 C4.449999809265137,-9.460000038146973 12.050000190734863,-9.460000038146973 12.050000190734863,-9.460000038146973 M8.569999694824219,0.3100000023841858 C7.269999980926514,0.3100000023841858 6.079999923706055,0.009999999776482582 4.989999771118164,-0.5899999737739563 C3.9000000953674316,-1.2000000476837158 3.0299999713897705,-2.0999999046325684 2.359999895095825,-3.299999952316284 C1.7000000476837158,-4.5 1.3700000047683716,-5.949999809265137 1.3700000047683716,-7.659999847412109 C1.3700000047683716,-7.659999847412109 1.3700000047683716,-7.659999847412109 1.3700000047683716,-7.659999847412109 C1.3700000047683716,-9.350000381469727 1.7000000476837158,-10.789999961853027 2.359999895095825,-11.979999542236328 C3.0299999713897705,-13.170000076293945 3.9000000953674316,-14.0600004196167 4.989999771118164,-14.65999984741211 C6.079999923706055,-15.260000228881836 7.239999771118164,-15.5600004196167 8.479999542236328,-15.5600004196167 C8.479999542236328,-15.5600004196167 8.479999542236328,-15.5600004196167 8.479999542236328,-15.5600004196167 C9.779999732971191,-15.5600004196167 10.920000076293945,-15.279999732971191 11.899999618530273,-14.720000267028809 C12.869999885559082,-14.15999984741211 13.630000114440918,-13.369999885559082 14.15999984741211,-12.359999656677246 C14.6899995803833,-11.34000015258789 14.949999809265137,-10.170000076293945 14.949999809265137,-8.850000381469727 C14.949999809265137,-8.850000381469727 14.949999809265137,-8.850000381469727 14.949999809265137,-8.850000381469727 C14.949999809265137,-8.300000190734863 14.949999809265137,-7.739999771118164 14.949999809265137,-7.170000076293945 C14.949999809265137,-7.170000076293945 14.949999809265137,-7.170000076293945 14.949999809265137,-7.170000076293945 C14.949999809265137,-7.170000076293945 4.269999980926514,-7.170000076293945 4.269999980926514,-7.170000076293945 C4.329999923706055,-6.070000171661377 4.570000171661377,-5.139999866485596 5,-4.389999866485596 C5.429999828338623,-3.640000104904175 5.960000038146973,-3.069999933242798 6.610000133514404,-2.700000047683716 C7.25,-2.3299999237060547 7.889999866485596,-2.140000104904175 8.539999961853027,-2.140000104904175 C8.539999961853027,-2.140000104904175 8.539999961853027,-2.140000104904175 8.539999961853027,-2.140000104904175 C8.539999961853027,-2.140000104904175 8.789999961853027,-2.140000104904175 8.789999961853027,-2.140000104904175 C9.579999923706055,-2.140000104904175 10.279999732971191,-2.3399999141693115 10.890000343322754,-2.75 C11.5,-3.1600000858306885 11.880000114440918,-3.75 12.020000457763672,-4.519999980926514 C12.020000457763672,-4.519999980926514 12.020000457763672,-4.519999980926514 12.020000457763672,-4.519999980926514 C12.020000457763672,-4.519999980926514 14.920000076293945,-4.519999980926514 14.920000076293945,-4.519999980926514 C14.649999618530273,-3.009999990463257 13.930000305175781,-1.8300000429153442 12.75,-0.9800000190734863 C11.569999694824219,-0.11999999731779099 10.180000305175781,0.3100000023841858 8.569999694824219,0.3100000023841858 C8.569999694824219,0.3100000023841858 8.569999694824219,0.3100000023841858 8.569999694824219,0.3100000023841858"></path></g></g><g id="U04dmdKSMo8F9ecKNMCJu10" transform="matrix(1,0,0,1,50034.609375,50008.5390625)" opacity="1" style="display: block;"><g opacity="1" transform="matrix(1,0,0,1,0,0)"><path fill="rgb(22,28,30)" fill-opacity="1" d=" M12.050000190734863,-9.460000038146973 C11.989999771118164,-10.699999809265137 11.640000343322754,-11.619999885559082 11,-12.220000267028809 C10.359999656677246,-12.819999694824219 9.5600004196167,-13.119999885559082 8.600000381469727,-13.119999885559082 C8.600000381469727,-13.119999885559082 8.600000381469727,-13.119999885559082 8.600000381469727,-13.119999885559082 C8.600000381469727,-13.119999885559082 8.359999656677246,-13.119999885559082 8.359999656677246,-13.119999885559082 C7.46999979019165,-13.119999885559082 6.659999847412109,-12.829999923706055 5.929999828338623,-12.239999771118164 C5.210000038146973,-11.649999618530273 4.71999979019165,-10.720000267028809 4.449999809265137,-9.460000038146973 C4.449999809265137,-9.460000038146973 4.449999809265137,-9.460000038146973 4.449999809265137,-9.460000038146973 C4.449999809265137,-9.460000038146973 12.050000190734863,-9.460000038146973 12.050000190734863,-9.460000038146973 M8.569999694824219,0.3100000023841858 C7.269999980926514,0.3100000023841858 6.079999923706055,0.009999999776482582 4.989999771118164,-0.5899999737739563 C3.9000000953674316,-1.2000000476837158 3.0299999713897705,-2.0999999046325684 2.359999895095825,-3.299999952316284 C1.7000000476837158,-4.5 1.3700000047683716,-5.949999809265137 1.3700000047683716,-7.659999847412109 C1.3700000047683716,-7.659999847412109 1.3700000047683716,-7.659999847412109 1.3700000047683716,-7.659999847412109 C1.3700000047683716,-9.350000381469727 1.7000000476837158,-10.789999961853027 2.359999895095825,-11.979999542236328 C3.0299999713897705,-13.170000076293945 3.9000000953674316,-14.0600004196167 4.989999771118164,-14.65999984741211 C6.079999923706055,-15.260000228881836 7.239999771118164,-15.5600004196167 8.479999542236328,-15.5600004196167 C8.479999542236328,-15.5600004196167 8.479999542236328,-15.5600004196167 8.479999542236328,-15.5600004196167 C9.779999732971191,-15.5600004196167 10.920000076293945,-15.279999732971191 11.899999618530273,-14.720000267028809 C12.869999885559082,-14.15999984741211 13.630000114440918,-13.369999885559082 14.15999984741211,-12.359999656677246 C14.6899995803833,-11.34000015258789 14.949999809265137,-10.170000076293945 14.949999809265137,-8.850000381469727 C14.949999809265137,-8.850000381469727 14.949999809265137,-8.850000381469727 14.949999809265137,-8.850000381469727 C14.949999809265137,-8.300000190734863 14.949999809265137,-7.739999771118164 14.949999809265137,-7.170000076293945 C14.949999809265137,-7.170000076293945 14.949999809265137,-7.170000076293945 14.949999809265137,-7.170000076293945 C14.949999809265137,-7.170000076293945 4.269999980926514,-7.170000076293945 4.269999980926514,-7.170000076293945 C4.329999923706055,-6.070000171661377 4.570000171661377,-5.139999866485596 5,-4.389999866485596 C5.429999828338623,-3.640000104904175 5.960000038146973,-3.069999933242798 6.610000133514404,-2.700000047683716 C7.25,-2.3299999237060547 7.889999866485596,-2.140000104904175 8.539999961853027,-2.140000104904175 C8.539999961853027,-2.140000104904175 8.539999961853027,-2.140000104904175 8.539999961853027,-2.140000104904175 C8.539999961853027,-2.140000104904175 8.789999961853027,-2.140000104904175 8.789999961853027,-2.140000104904175 C9.579999923706055,-2.140000104904175 10.279999732971191,-2.3399999141693115 10.890000343322754,-2.75 C11.5,-3.1600000858306885 11.880000114440918,-3.75 12.020000457763672,-4.519999980926514 C12.020000457763672,-4.519999980926514 12.020000457763672,-4.519999980926514 12.020000457763672,-4.519999980926514 C12.020000457763672,-4.519999980926514 14.920000076293945,-4.519999980926514 14.920000076293945,-4.519999980926514 C14.649999618530273,-3.009999990463257 13.930000305175781,-1.8300000429153442 12.75,-0.9800000190734863 C11.569999694824219,-0.11999999731779099 10.180000305175781,0.3100000023841858 8.569999694824219,0.3100000023841858 C8.569999694824219,0.3100000023841858 8.569999694824219,0.3100000023841858 8.569999694824219,0.3100000023841858"></path></g></g><g id="7obObmwHvb7Sd9ySUfjW59" transform="matrix(1,0,0,1,50051.03125,50008.5390625)" opacity="1" style="display: block;"><g opacity="1" transform="matrix(1,0,0,1,0,0)"><path fill="rgb(22,28,30)" fill-opacity="1" d=" M2.2899999618530273,0 C2.2899999618530273,0 2.2899999618530273,-15.260000228881836 2.2899999618530273,-15.260000228881836 C2.2899999618530273,-15.260000228881836 5.03000020980835,-15.260000228881836 5.03000020980835,-15.260000228881836 C5.03000020980835,-15.260000228881836 5.03000020980835,-11.899999618530273 5.03000020980835,-11.899999618530273 C5.340000152587891,-13.020000457763672 5.889999866485596,-13.880000114440918 6.699999809265137,-14.489999771118164 C7.5,-15.100000381469727 8.420000076293945,-15.40999984741211 9.460000038146973,-15.40999984741211 C9.460000038146973,-15.40999984741211 9.460000038146973,-15.40999984741211 9.460000038146973,-15.40999984741211 C9.460000038146973,-15.40999984741211 10.829999923706055,-15.40999984741211 10.829999923706055,-15.40999984741211 C10.829999923706055,-15.40999984741211 10.829999923706055,-12.600000381469727 10.829999923706055,-12.600000381469727 C10.829999923706055,-12.600000381469727 9.609999656677246,-12.600000381469727 9.609999656677246,-12.600000381469727 C8.229999542236328,-12.600000381469727 7.150000095367432,-12.170000076293945 6.360000133514404,-11.300000190734863 C5.579999923706055,-10.4399995803833 5.190000057220459,-9.25 5.190000057220459,-7.71999979019165 C5.190000057220459,-7.71999979019165 5.190000057220459,-7.71999979019165 5.190000057220459,-7.71999979019165 C5.190000057220459,-7.71999979019165 5.190000057220459,0 5.190000057220459,0 C5.190000057220459,0 2.2899999618530273,0 2.2899999618530273,0"></path></g></g></g></g></g></g></g></g><g id="precomp_jxhyRO2yrWR9XTaC5deq-3" clip-path="url(#__lottie_element_240)" transform="matrix(1,0,0,1,0,0)" opacity="1" style="display: block;"></g></g></g></g></g></svg>