<svg xmlns="http://www.w3.org/2000/svg" width="25" height="24" fill="none" id="svg-1461300358_761"><path fill-rule="evenodd" clip-rule="evenodd" d="M1.01 6.15a2.64 2.64 0 0 1 2.64-2.64H8.6a2.64 2.64 0 0 1 2.64 2.64v5.033a2.64 2.64 0 0 1-2.64 2.64H3.08a5.464 5.464 0 0 0 4.824 4.445l2.446.247a.99.99 0 0 1-.2 1.97l-2.445-.247a7.442 7.442 0 0 1-6.695-7.405V6.15Zm1.98 5.693H8.6a.66.66 0 0 0 .66-.66V6.15a.66.66 0 0 0-.66-.66H3.65a.66.66 0 0 0-.66.66v5.693ZM13.76 6.15a2.64 2.64 0 0 1 2.64-2.64h4.95a2.64 2.64 0 0 1 2.64 2.64v5.033a2.64 2.64 0 0 1-2.64 2.64h-5.52a5.464 5.464 0 0 0 4.824 4.445l2.446.247a.99.99 0 0 1-.2 1.97l-2.445-.247a7.442 7.442 0 0 1-6.695-7.405V6.15Zm1.98 5.693h5.61a.66.66 0 0 0 .66-.66V6.15a.66.66 0 0 0-.66-.66H16.4a.66.66 0 0 0-.66.66v5.693Z" fill="#fff"></path></svg>