<svg xmlns="http://www.w3.org/2000/svg" width="218" height="70" fill="none"><g fill="#181C1F" clip-path="url(#a)"><path d="M83.165 27.13c-4.915 0-9.011 2.086-9.011 8.377 0 4.985 2.754 8.124 9.138 8.124 7.515 0 7.997-4.95 7.997-4.95h-3.641s-.781 2.665-4.578 2.665c-3.092 0-5.316-2.089-5.316-5.017H91.67v-1.837c0-2.897-1.84-7.362-8.505-7.362zm-.127 2.348c2.944 0 4.95 1.804 4.95 4.506H77.836c0-2.869 2.619-4.506 5.204-4.506z"/><path d="M91.667 21.038V40.47a64.67 64.67 0 0 1-.079 2.652h3.473s.125-1.112.125-2.129c0 0 1.716 2.684 6.381 2.684 4.913 0 8.251-3.41 8.251-8.297 0-4.547-3.066-8.203-8.243-8.203-4.848 0-6.354 2.618-6.354 2.618v-8.758h-3.554zm9.012 8.543c3.336 0 5.458 2.477 5.458 5.8 0 3.563-2.451 5.894-5.434 5.894-3.561 0-5.482-2.78-5.482-5.863 0-2.872 1.723-5.83 5.458-5.83z"/><path d="M118.449 27.13c-7.396 0-7.87 4.05-7.87 4.697h3.681s.193-2.365 3.935-2.365c2.431 0 4.315 1.113 4.315 3.253v.762h-4.315c-5.73 0-8.758 1.676-8.758 5.077 0 3.347 2.798 5.168 6.58 5.168 5.154 0 6.814-2.848 6.814-2.848 0 1.133.088 2.25.088 2.25h3.272s-.127-1.385-.127-2.27v-7.651c0-5.017-4.046-6.073-7.615-6.073zm4.061 8.631v1.016c0 1.324-.817 4.617-5.628 4.617-2.635 0-3.764-1.315-3.764-2.84 0-2.775 3.804-2.793 9.392-2.793z"/><path d="M124.082 27.765h4.141l5.943 11.907 5.929-11.906h3.751l-10.8 21.196h-3.934l3.116-5.909-8.146-15.287z"/></g><defs><clipPath id="a"><path fill="#fff" d="M74.13 21.014h69.74v27.971H74.13z"/></clipPath></defs></svg>