<svg xmlns="http://www.w3.org/2000/svg" width="92" height="92" fill="none"><g stroke="#2D323A" opacity=".2"><path d="M1.024 14.409C1.024 6.727 7.251.5 14.933.5h31.199v45.108H1.024v-31.2zm-.5 8.645h46.108M23.578 0v46.108"/><path d="M46.132.5H77.33c7.681 0 13.908 6.227 13.908 13.909v31.199H46.132V.5zm-.5 22.554h46.107M68.685 0v46.108m-67.661-.5h45.108v45.107h-31.2c-7.68 0-13.908-6.227-13.908-13.909V45.608zm-.5 22.553h46.108M23.578 45.108v46.107"/><path d="M46.132 45.608h45.107v31.199c0 7.681-6.227 13.908-13.908 13.908h-31.2V45.607zm-.5 22.553h46.107M68.685 45.108v46.107"/></g></svg>