<svg xmlns="http://www.w3.org/2000/svg" width="218" height="70" fill="none"><g fill="#181C1F" clip-path="url(#a)"><path d="M106.919 38.63c-.153.353-.953 1.949-2.957 1.949-2.32 0-3.225-1.991-3.225-3.47 0-2.447 1.592-4.644 3.936-4.644 2.523 0 3.125 1.944 3.183 2.296h3.71c.223-1.435-.878-5.824-6.75-5.824-4.295 0-7.731 3.55-7.731 8.293 0 3.881 2.344 6.874 6.69 6.874 5.416 0 6.878-4.395 7.057-5.474h-3.913zM78.441 39.7c0-.225.057-.648.248-1.54.185-.893 2.807-13.387 2.807-13.387h-3.483l-2.89 13.782a8.17 8.17 0 0 0-.174 1.656c0 3.023 2.26 3.911 4.07 3.911.647 0 1.248-.111 1.398-.132.058-.302.604-2.897.63-3.01-.078.005-.462.035-.907.035-1.295 0-1.699-.568-1.699-1.315zm44.602-10.715-6.239 5.812 2.102-10.054h-3.507l-3.983 19.075h3.505l.969-4.636 2.156-1.776 2.982 6.412h3.902l-4.231-8.587 7.202-6.246h-4.858zm-63.746 8.937c.292-1.368 2.763-13.173 2.763-13.173h6.635c4.815 0 6 2.768 6 4.448 0 3.716-3.393 4.7-3.809 4.835.387.131 2.59 1.034 2.59 3.952 0 3.175-2.83 5.836-7.217 5.836h-2c-3.685 0-5.663-2.616-4.962-5.898zm10.39-.234c0-.897-.558-2.034-3.036-2.034h-3.217l-.964 4.613h3.643c2.357 0 3.574-1.098 3.574-2.58zm1.194-7.686c0-.927-.683-1.725-2.354-1.725h-3.55l-.805 3.85h3.699c1.992 0 3.01-.995 3.01-2.125zm55.422 7.92c.292-1.368 2.762-13.173 2.762-13.173h6.639c4.814 0 6 2.768 6 4.448 0 3.716-3.393 4.7-3.809 4.835.381.131 2.589 1.034 2.589 3.953 0 3.175-2.833 5.835-7.219 5.835h-2c-3.685 0-5.664-2.616-4.962-5.898zm10.39-.234c0-.896-.559-2.034-3.035-2.034h-3.22l-.963 4.614h3.644c2.357 0 3.574-1.1 3.574-2.58zm1.193-7.686c0-.927-.68-1.725-2.356-1.725h-3.549l-.803 3.85h3.7c1.991 0 3.008-.995 3.008-2.125zm27.898-1.008c-3.716 0-6.244 2.275-7.095 6.545a1884.12 1884.12 0 0 1-1.714 8.286h3.48s1.283-6.134 1.688-8.062c.532-2.527 1.823-3.385 3.56-3.385.561 0 .918.066 1.101.093.096-.509.581-2.79.697-3.35-.377-.05-.972-.127-1.717-.127zM177.626 49.5l11.682-20.506h-3.76l-5.368 9.65-1.254-9.662h-4.022c-4.607 0-6.994 2.18-7.841 6.35-.425 2.082-1.774 8.493-1.774 8.493h3.481s1.278-6.09 1.786-8.547c.492-2.386 2.203-3.115 4.047-2.708l.734-3.501c.543 3.325 2.205 13.947 2.205 13.947l-3.645 6.484h3.729zm-89.131-12c.766-.117 3.009-.475 3.315-.52-.058.247-.148.643-.214.935-.405 1.793-2.171 2.945-4.119 2.945-1.242 0-1.968-.691-1.968-1.513 0-.679.602-1.483 2.986-1.847zm-1.303-3.863c.086-.146.982-1.575 3.213-1.575 1.388 0 2.099.524 2.099 1.157 0 .894-1.399 1.127-3.821 1.486-4.162.622-6.792 1.959-6.792 5.068 0 2.203 1.769 4.35 4.91 4.35 2.61 0 3.974-1.63 4.095-1.755.012.392.061.978.102 1.45h3.598c-.124-.643-.382-1.878.046-3.853.226-1.04.86-4.03 1.184-5.68.617-3.122-1.04-5.329-5.283-5.329-5.456 0-7.028 4.057-7.282 4.682h3.931zm64.662 5.737c-.128.29-.975 1.513-2.868 1.513-2.726 0-3.346-2.391-3.283-3.047h10.618c.061-.268.301-1.246.301-2.25 0-3.475-2.277-6.652-6.869-6.652-4.2 0-7.569 3.653-7.569 7.992 0 4.197 2.437 7.175 6.745 7.175 5.324 0 6.758-4.314 6.896-4.73h-3.971zm-2.064-7.142c2.344 0 3.24 1.48 3.144 2.667h-6.705c.173-.754 1.292-2.667 3.561-2.667zm-112.52-9.66c0-.915-.54-2.072-2.815-2.072h-3.503l-.996 4.766h3.652c2.85 0 3.663-1.396 3.663-2.694zm9.436 0c0-.915-.54-2.072-2.814-2.072H40.39l-.995 4.765h3.65c2.852 0 3.663-1.395 3.663-2.693zm-10.699 7.173c0-.915-.541-2.075-2.816-2.075h-3.503l-.996 4.769h3.65c2.852 0 3.665-1.4 3.665-2.694zm9.436 0c0-.915-.542-2.075-2.815-2.075h-3.503l-.997 4.769h3.652c2.852 0 3.663-1.4 3.663-2.694zm9.872-2.909c0-.915-.542-2.075-2.815-2.075h-3.503L48 29.529h3.65c2.853 0 3.665-1.396 3.665-2.693zm-1.361 7.468c0-.915-.54-2.072-2.815-2.072h-3.503l-.995 4.766h3.65c2.852 0 3.663-1.4 3.663-2.694zm-9.867 2.909c0-.918-.54-2.078-2.813-2.078H37.77l-.995 4.768h3.65c2.852 0 3.663-1.395 3.663-2.69z"/></g><defs><clipPath id="a"><path fill="#fff" d="M28.692 20.5h160.615v29H28.692z"/></clipPath></defs></svg>