<svg xmlns="http://www.w3.org/2000/svg" width="72" height="68" fill="none" id="svg2009687513_3448"><path fill-rule="evenodd" clip-rule="evenodd" d="m44.579 5.507 21.101 12.13a4.091 4.091 0 0 1 0 7.094L44.586 36.856c-1.611.926-2.886 1.659-3.984 2.154-1.13.51-2.144.802-3.247.802-1.103-.002-2.117-.296-3.246-.808-1.097-.497-2.37-1.232-3.98-2.16l-13.96-8.058a4.532 4.532 0 0 0-4.537.005 5.285 5.285 0 0 0-2.635 4.572v3.188a10.507 10.507 0 0 0 5.206 9.019l.1.058 16.798 9.703c1.669.965 2.857 1.65 3.853 2.101.975.442 1.692.624 2.402.625.71 0 1.426-.181 2.402-.623.996-.45 2.185-1.134 3.855-2.097l17.955-10.35c.43-.248.69-.398.874-.53.166-.119.202-.175.217-.2.014-.026.045-.086.065-.29.023-.225.024-.524.024-1.022v-3.03L41.21 52.328c-.79.455-1.446.834-2.019 1.093-.604.273-1.186.448-1.837.448-.65 0-1.234-.176-1.837-.45-.573-.259-1.23-.637-2.018-1.093L15.697 42.052l-.082-.047c-.532-.307-.921-.531-1.248-.817a4.416 4.416 0 0 1-1.42-2.445c-.087-.425-.089-.874-.092-1.49v-.123c-.003-.455-.005-.84.01-1.148.017-.31.055-.648.185-.968a2.723 2.723 0 0 1 2.87-1.672c.342.044.654.178.932.317.277.139.61.33 1.005.556l16.636 9.55c.84.483 1.408.807 1.876 1.018.448.201.73.263.986.263.255 0 .537-.062.985-.264.467-.211 1.035-.536 1.875-1.019l24.542-14.107a3.95 3.95 0 0 1 5.919 3.425v7.432c0 1.865 0 3.34-.118 4.542-.122 1.236-.375 2.264-.929 3.222-.553.957-1.318 1.69-2.328 2.413-.982.703-2.26 1.44-3.875 2.371l-12.063 6.954c-3.264 1.882-5.779 3.331-7.93 4.305-2.184.987-4.066 1.52-6.078 1.519-2.01 0-3.893-.535-6.076-1.523-2.15-.975-4.665-2.427-7.927-4.31l-11.386-6.574-.27-.157a21.35 21.35 0 0 1-10.542-18.26v-.624A21.35 21.35 0 0 1 11.717 16.12l.265-.154L30.133 5.513c1.61-.927 2.882-1.66 3.979-2.155 1.127-.51 2.141-.804 3.243-.804 1.102 0 2.116.292 3.244.801 1.097.495 2.37 1.227 3.98 2.152Zm-4.827-.275c-.973-.44-1.688-.62-2.396-.62s-1.423.182-2.396.621c-.994.45-2.18 1.131-3.846 2.09l-18.1 10.424-.257.148a19.29 19.29 0 0 0-9.545 16.511V35a19.29 19.29 0 0 0 9.526 16.5l.257.149 11.338 6.546c3.32 1.917 5.748 3.317 7.796 4.245 2.028.919 3.61 1.34 5.227 1.34 1.616 0 3.2-.419 5.228-1.336 2.049-.927 4.477-2.325 7.799-4.24l11.968-6.9c1.672-.964 2.862-1.65 3.752-2.288.872-.624 1.389-1.154 1.744-1.769s.556-1.328.662-2.395c.107-1.089.108-2.462.108-4.392v-7.38a1.892 1.892 0 0 0-2.834-1.64L41.198 45.573c-.787.452-1.441.828-2.012 1.086-.602.271-1.182.446-1.83.446-.65 0-1.23-.174-1.832-.445-.571-.257-1.226-.633-2.013-1.085l-16.653-9.56a20.748 20.748 0 0 0-.926-.514 1.327 1.327 0 0 0-.277-.117.663.663 0 0 0-.699.408s-.022.065-.034.297c-.013.243-.012.567-.009 1.06.004.748.01.981.051 1.184.103.507.37.965.758 1.305.156.136.356.257 1.004.631l17.76 10.25c.843.487 1.412.814 1.881 1.026.449.204.732.266.988.267.256 0 .54-.063.989-.266.47-.212 1.038-.539 1.882-1.025l21.813-12.574c.24-.14.512-.296.752-.39.265-.105.771-.249 1.29.05.518.3.646.811.688 1.092.038.256.038.569.037.847v3.442c0 .441 0 .843-.033 1.182-.037.372-.12.748-.332 1.116-.212.368-.497.627-.801.845-.277.198-.625.399-1.007.619L44.595 57.148c-1.613.93-2.89 1.665-3.989 2.162-1.13.511-2.147.806-3.251.805-1.104 0-2.12-.295-3.25-.808-1.1-.498-2.375-1.235-3.988-2.166l-16.844-9.73-.109-.064a12.566 12.566 0 0 1-6.226-10.786v-3.198a7.343 7.343 0 0 1 3.661-6.354 6.59 6.59 0 0 1 6.6-.006l13.912 8.03c1.667.962 2.854 1.646 3.848 2.096.974.441 1.69.623 2.398.624.708 0 1.424-.18 2.399-.62.995-.448 2.183-1.13 3.85-2.089l21.048-12.098a2.033 2.033 0 0 0 0-3.524L43.6 7.319c-1.666-.958-2.853-1.64-3.847-2.087Z" fill="#F2F7F7"></path></svg>