<svg xmlns="http://www.w3.org/2000/svg" width="218" height="70" fill="none" id="svg494676095_3239"><g clip-path="url(#svg494676095_3239_a)" fill="#181C1F"><path d="M59.924 31.054c1.596 0 3.014.976 3.37 2.483h3.546c-.355-3.37-3.28-5.497-6.827-5.497-4.079 0-7.448 3.014-7.448 7.448 0 4.61 3.28 7.536 7.448 7.536 3.369 0 6.383-2.04 6.915-5.497h-3.546c-.444 1.596-1.773 2.483-3.37 2.483-2.127 0-3.723-1.951-3.723-4.611-.089-2.571 1.418-4.345 3.635-4.345Zm17.733 5.232c0 2.482-1.419 3.724-3.015 3.724-1.684 0-2.837-1.153-2.837-3.192v-8.423H68.17v9.043c0 3.724 2.216 5.675 5.231 5.675 1.862 0 3.28-.62 4.256-1.95v1.684h3.547V28.394h-3.547v7.892Zm12.679-2.217-1.862-.443c-.532-.089-.975-.266-1.33-.532a.975.975 0 0 1-.532-.887c0-.71.71-1.419 2.128-1.419.887 0 2.394.355 2.66 1.862h3.458c-.177-.798-.887-4.61-6.03-4.61-1.684 0-3.103.443-4.078 1.241-.975.887-1.507 1.95-1.507 3.192 0 .887.177 1.596.62 2.128.444.532.976.975 1.685 1.33.71.355 1.419.532 2.305.71l2.04.443c.62.088 1.064.266 1.33.532.709.709.354 2.482-2.04 2.482-2.57 0-2.926-1.862-3.014-2.394H82.71c0 1.064.886 5.32 6.65 5.32 1.241 0 2.216-.177 3.103-.62.887-.444 1.507-.976 1.95-1.685.444-.71.71-1.507.71-2.305-.089-2.483-1.685-3.724-4.788-4.345Zm11.083 3.901v-6.738h3.37v-2.837h-3.37V23.96h-3.546v2.66l1.773 1.774h-4.167v2.837h2.482v7.182c0 1.064.266 5.674 7.005 4.433v-3.015c-2.039.62-3.547 0-3.547-1.862Zm11.26-9.93c-4.167 0-7.625 2.926-7.625 7.448 0 4.61 3.369 7.536 7.625 7.536 4.168 0 7.626-2.926 7.626-7.536 0-4.61-3.37-7.448-7.626-7.448Zm0 11.97c-2.394 0-3.99-1.862-3.99-4.611 0-2.66 1.596-4.433 3.99-4.433 2.306 0 3.902 1.862 3.902 4.433 0 2.749-1.596 4.61-3.902 4.61Zm26.157-11.97c-2.039 0-3.724.798-4.699 2.394-.887-1.685-2.66-2.394-4.345-2.394-1.951 0-3.369.71-4.256 2.04v-1.685h-3.546v14.363h3.546v-7.98c0-2.482 1.419-3.635 3.015-3.635 1.507 0 2.748 1.064 2.748 3.103v8.512h3.547v-7.98c0-2.394 1.419-3.635 3.015-3.635s2.748 1.064 2.748 3.103v8.512h3.635v-9.132c-.088-4.079-2.571-5.586-5.408-5.586Zm14.275 0c-3.901 0-7.448 2.837-7.448 7.359 0 4.788 3.458 7.625 7.537 7.625 3.014 0 6.117-1.33 7.004-4.522h-3.546c-.71 1.242-2.04 1.685-3.37 1.685-2.039 0-3.724-1.419-4.078-3.724h11.083v-.798c.088-5.054-3.281-7.625-7.182-7.625Zm-3.813 5.94c.266-2.039 1.862-3.192 3.724-3.192 2.04 0 3.458 1.242 3.636 3.192h-7.36Zm21.457-2.305v-3.37c-.266-.088-.621-.088-.975-.088-1.242 0-2.04.266-2.926.975-.444.355-.798.887-1.153 1.33v-2.127h-3.546v14.363h3.546v-7.714c0-2.837 2.039-3.369 3.547-3.369.443-.089.798-.089 1.507 0Zm2.217 7.271h-3.901v3.724h3.901v-3.724Zm7.005-10.551h-3.547v14.363h3.547V28.394Zm0-5.409h-3.547v3.546h3.547v-3.546Zm9.398 5.054c-4.167 0-7.625 2.926-7.625 7.448 0 4.61 3.369 7.536 7.625 7.536 4.167 0 7.625-2.926 7.625-7.536 0-4.61-3.458-7.448-7.625-7.448Zm0 11.97c-2.394 0-3.99-1.862-3.99-4.611 0-2.66 1.596-4.433 3.99-4.433 2.305 0 3.901 1.862 3.901 4.433 0 2.749-1.596 4.61-3.901 4.61ZM23.926 38.414 21 41.25v5.763h5.852l2.926-2.926 2.926-2.837-5.852-5.763-2.926 2.926Z"></path><path d="m29.778 26.799-2.926-2.838H21v5.763l2.926 2.926 2.926 2.838 5.852-5.764-2.926-2.925Z"></path><path d="M38.467 23.961h-5.852v5.763l5.852 5.764-5.852 5.763v5.763h5.852l5.852-5.763V29.724l-5.852-5.763Z"></path></g><defs><clipPath id="svg494676095_3239_a"><path fill="#fff" transform="translate(21 22.986)" d="M0 0h176v24.028H0z"></path></clipPath></defs></svg>