<svg xmlns="http://www.w3.org/2000/svg" width="46" height="46" fill="none" id="svg-2023534986_4362"><path d="M.2 9.968A9.045 9.045 0 0 1 9.246.922h26.91A9.045 9.045 0 0 1 45.2 9.968v26.91a9.045 9.045 0 0 1-9.045 9.044H9.245A9.045 9.045 0 0 1 .2 36.877V9.967Z" fill="#FFE01B"></path><path d="M30.802 22.487c.247-.026.482-.026.704 0 .13-.287.143-.796.039-1.343-.17-.809-.404-1.304-.874-1.226-.47.078-.495.665-.326 1.473.091.457.26.848.457 1.096Zm-4.069.638c.34.144.548.248.626.157.052-.052.04-.157-.04-.287-.169-.274-.508-.548-.873-.704-.743-.326-1.643-.209-2.32.274-.223.17-.444.39-.418.534.013.04.039.079.117.092.183.026.835-.313 1.591-.352.535-.026.978.143 1.317.287Zm-.691.392c-.443.065-.691.221-.848.352-.13.117-.221.248-.221.339 0 .039.013.065.039.078.026.013.039.026.078.026.104 0 .326-.091.326-.091.613-.222 1.017-.196 1.421-.143.222.026.326.039.378-.04.014-.026.027-.065-.012-.143-.105-.17-.548-.456-1.161-.378Zm3.377 1.433c.3.144.626.092.743-.13.117-.221-.052-.521-.352-.665-.3-.143-.626-.091-.743.13-.105.21.052.51.352.666Zm1.93-1.694c-.248 0-.443.26-.456.6 0 .339.182.612.43.612s.443-.26.456-.6c.013-.325-.182-.6-.43-.612Zm-16.613 5.998c-.065.013-.143.04-.221.026a.49.49 0 0 1-.418-.209c-.117-.17-.104-.43.014-.717.013-.039.039-.078.052-.13.195-.444.521-1.174.156-1.865-.274-.521-.73-.847-1.265-.926a1.624 1.624 0 0 0-1.395.509c-.535.6-.626 1.408-.522 1.695.04.104.105.13.144.143.091.014.222-.052.313-.286 0-.013.013-.04.026-.079.04-.117.104-.352.222-.521a.927.927 0 0 1 .612-.417.995.995 0 0 1 .744.143c.378.248.521.704.365 1.147-.078.235-.222.666-.183 1.018.066.73.509 1.017.913 1.043.391.013.665-.209.73-.365.04-.092 0-.157-.013-.183-.078-.078-.182-.052-.274-.026Z" fill="#000"></path><path d="M37.504 27.95a45.286 45.286 0 0 0-.248-.834c-.13-.43-.274-.73-.274-.73.535-.796.548-1.513.47-1.918-.079-.495-.288-.925-.705-1.369-.417-.443-1.278-.9-2.49-1.239-.144-.039-.6-.169-.64-.169 0-.026-.038-1.5-.064-2.125-.027-.457-.066-1.174-.274-1.865-.261-.952-.718-1.774-1.291-2.308 1.578-1.643 2.569-3.443 2.556-4.981 0-2.973-3.652-3.873-8.163-2.008l-.952.404S23.708 7.113 23.682 7.1C18.556 2.614 2.517 20.452 7.642 24.794l1.122.952c-.287.757-.404 1.617-.313 2.543.118 1.187.73 2.334 1.734 3.22.952.835 2.191 1.37 3.404 1.37 1.995 4.603 6.559 7.42 11.905 7.576 5.738.17 10.55-2.517 12.57-7.354.13-.34.691-1.865.691-3.221s-.769-1.93-1.252-1.93Zm-23.485 3.625c-.17.026-.352.04-.534.04-1.735-.053-3.6-1.605-3.795-3.456-.209-2.048.835-3.625 2.686-3.99a3.57 3.57 0 0 1 .783-.053c1.03.053 2.568.848 2.907 3.117.326 1.982-.17 4.03-2.047 4.342Zm-1.93-8.632c-1.147.221-2.164.873-2.79 1.773-.365-.313-1.056-.913-1.187-1.147-.99-1.878 1.082-5.542 2.53-7.602 3.573-5.112 9.18-8.972 11.775-8.268.417.118 1.812 1.735 1.812 1.735s-2.595 1.434-4.994 3.442c-3.234 2.504-5.685 6.129-7.146 10.067Zm6.611-6.99c1.278-1.473 2.843-2.75 4.238-3.468a.058.058 0 0 1 .079.078c-.118.196-.326.64-.392.965-.013.052.04.091.092.065.873-.6 2.386-1.238 3.716-1.317.052 0 .091.066.039.105-.209.156-.43.365-.587.586-.026.04 0 .092.04.092.938.013 2.255.339 3.116.821.052.04.013.144-.052.13-1.304-.3-3.43-.52-5.634.014-1.968.482-3.481 1.225-4.576 2.02-.066.027-.13-.038-.079-.09Zm18.856 14.383c-.248 1.513-.887 2.739-1.97 3.86a8.255 8.255 0 0 1-2.36 1.773c-.482.261-1.004.47-1.538.652-4.069 1.33-8.228-.13-9.571-3.273a6.245 6.245 0 0 1-.274-.743c-.574-2.06-.091-4.538 1.434-6.102.092-.105.183-.222.183-.366 0-.117-.078-.247-.144-.338-.534-.77-2.373-2.087-1.995-4.616.261-1.826 1.865-3.104 3.351-3.039.13 0 .248.013.379.026.639.04 1.212.118 1.734.144.887.039 1.682-.091 2.634-.874.313-.26.574-.495 1.004-.574.04-.013.157-.052.391-.039.235.013.457.078.652.209.756.508.86 1.721.9 2.62.026.51.078 1.748.104 2.1.052.809.261.926.691 1.07.248.078.47.143.796.234 1.004.287 1.604.574 1.969.939.221.235.326.47.365.704.117.86-.665 1.93-2.752 2.895-2.282 1.056-5.046 1.33-6.963 1.108a38.849 38.849 0 0 1-.665-.078c-1.525-.209-2.399 1.773-1.486 3.13.587.873 2.203 1.447 3.82 1.447 3.704 0 6.546-1.578 7.602-2.947.027-.04.04-.04.079-.117.052-.079.013-.118-.052-.079-.861.587-4.695 2.934-8.802 2.23 0 0-.496-.078-.952-.26-.365-.144-1.122-.483-1.213-1.265 3.312 1.03 5.399.052 5.399.052.039-.013.065-.066.065-.105 0-.052-.052-.09-.104-.09 0 0-2.713.403-5.282-.535.274-.913 1.018-.574 2.139-.496 2.021.117 3.834-.17 5.177-.56 1.16-.34 2.686-.992 3.872-1.93.405.873.535 1.838.535 1.838s.313-.052.574.104c.222.17.404.483.274 1.291Z" fill="#000"></path></svg>