<svg xmlns="http://www.w3.org/2000/svg" viewBox="0 0 40 40" width="40" height="40" preserveAspectRatio="xMidYMid slice" style="width: 100%; height: 100%; transform: translate3d(0px, 0px, 0px);"><defs><clipPath id="__lottie_element_142"><rect width="40" height="40" x="0" y="0"></rect></clipPath><clipPath id="__lottie_element_144"><path d="M0,0 L100000,0 L100000,100000 L0,100000z"></path></clipPath><clipPath id="__lottie_element_148"><path d="M0,0 L100000,0 L100000,100000 L0,100000z"></path></clipPath><clipPath id="__lottie_element_155"><path d="M0,0 L100000,0 L100000,100000 L0,100000z"></path></clipPath><clipPath id="__lottie_element_162"><path d="M0,0 L100000,0 L100000,100000 L0,100000z"></path></clipPath><clipPath id="__lottie_element_166"><path d="M0,0 L100000,0 L100000,100000 L0,100000z"></path></clipPath></defs><g clip-path="url(#__lottie_element_142)"><g id="precomp_PGrh0v8832QJnc4dFk-yb0" clip-path="url(#__lottie_element_144)" transform="matrix(1,0,0,1,-49980,-49980)" opacity="1" style="display: block;"><g id="precomp_JXxDm-wAOdooEKUJs2_oi6" clip-path="url(#__lottie_element_166)" transform="matrix(1,0,0,1,0,0)" opacity="1" style="display: block;"></g><g id="precomp_HFGej4uvqeZ7b-O1dBoAm5" clip-path="url(#__lottie_element_162)" transform="matrix(1,0,0,1,0,0)" opacity="1" style="display: block;"></g><g id="precomp_hSHwGl4aSLUhTI4OYFxn13" clip-path="url(#__lottie_element_155)" transform="matrix(1.006142497062683,0,0,1.006142497062683,-307.125,-307.125)" opacity="0.30184072" style="display: block;"><g id="1WDaYIvpVhVDb4mDYkM2l4" transform="matrix(1,0,0,1,50000,50000)" opacity="1" style="display: block;"><g opacity="1" transform="matrix(1,0,0,1,0,0)"><path fill="rgb(252,165,153)" fill-opacity="1" d=" M13.5,0 C13.5,0 13.5,0 13.5,0 C13.5,0 13.5,0 13.5,0 C13.5,0 13.5,0 13.5,0 C13.5,0 13.5,0 13.5,0 M13.5,0 C13.5,7.460000038146973 7.460000038146973,13.5 0,13.5 C-7.460000038146973,13.5 -13.5,7.460000038146973 -13.5,0 C-13.5,-7.460000038146973 -7.460000038146973,-13.5 0,-13.5 C7.460000038146973,-13.5 13.5,-7.460000038146973 13.5,0"></path></g></g></g><g id="precomp_3VprvlQWNsrRW7anuISDF1" clip-path="url(#__lottie_element_148)" transform="matrix(1,0,0,1,0,0)" opacity="1" style="display: block;"><g id="pBEii2pn8dtHhhux5DnUJ2" transform="matrix(1,0,0,1,50000,50000)" opacity="1" style="display: block;"><g opacity="1" transform="matrix(1,0,0,1,0,0)"><path fill="rgb(252,165,153)" fill-opacity="1" d=" M5.369999885559082,0 C5.369999885559082,0 5.369999885559082,0 5.369999885559082,0 C5.369999885559082,0 5.369999885559082,0 5.369999885559082,0 C5.369999885559082,0 5.369999885559082,0 5.369999885559082,0 C5.369999885559082,0 5.369999885559082,0 5.369999885559082,0 M5.369999885559082,0 C5.369999885559082,3.0399999618530273 2.9700000286102295,5.5 0,5.5 C-2.9700000286102295,5.5 -5.369999885559082,3.0399999618530273 -5.369999885559082,0 C-5.369999885559082,-3.0399999618530273 -2.9700000286102295,-5.5 0,-5.5 C2.9700000286102295,-5.5 5.369999885559082,-3.0399999618530273 5.369999885559082,0"></path></g></g></g></g></g></svg>