<svg xmlns="http://www.w3.org/2000/svg" width="678" height="588" fill="none"><path fill="url(#a)" d="M29.906 557.727H556.54v468.119H29.906z" transform="rotate(-90 29.906 557.727)"/><g stroke="#EAEBEE" stroke-width="1.297" opacity=".4"><path d="M18.691 1.48h40.472v58.516H.65V19.523C.649 9.56 8.727 1.481 18.69 1.481zM0 30.738h59.812M29.906.832v59.812M59.163 1.481h58.515v58.515H59.163zm-.648 29.257h59.812M88.42.832v59.812m29.259-59.163h58.515v58.515h-58.515zm-.649 29.257h59.812M146.937.832v59.812"/><path d="M176.194 1.481h58.515v58.515h-58.515zm-.649 29.257h59.812M205.451.832v59.812"/><path d="M234.708 1.481h58.515v58.515h-58.515zm-.648 29.257h59.812M263.966.832v59.812m29.257-59.163h58.515v58.515h-58.515zm-.649 29.257h59.812M322.48.832v59.812m29.258-59.163h58.515v58.515h-58.515zm-.648 29.257h59.812M380.995.832v59.812m29.258-59.163h58.515v58.515h-58.515zm-.649 29.257h59.813M439.511.832v59.812"/><path d="M468.768 1.48h40.472c9.965 0 18.043 8.079 18.043 18.043v40.473h-58.515V1.48zm-.649 29.258h59.812M498.025.832v59.812M.649 59.996h58.515v58.515H.649zM0 89.253h59.812M29.906 59.347v59.812"/><path d="M59.163 59.996h58.515v58.515H59.163zm-.648 29.257h59.812M88.42 59.347v59.812m29.259-59.163h58.515v58.515h-58.515zm-.649 29.257h59.812m-29.905-29.906v59.812"/><path d="M176.194 59.996h58.515v58.515h-58.515zm-.649 29.257h59.812m-29.906-29.906v59.812"/><path d="M234.708 59.996h58.515v58.515h-58.515zm-.648 29.257h59.812m-29.906-29.906v59.812m29.257-59.163h58.515v58.515h-58.515zm-.649 29.257h59.812M322.48 59.347v59.812m29.258-59.163h58.515v58.515h-58.515zm-.648 29.257h59.812m-29.907-29.906v59.812m29.258-59.163h58.515v58.515h-58.515zm-.649 29.257h59.813m-29.906-29.906v59.812m29.257-59.163h58.515v58.515h-58.515zm-.649 29.257h59.812m-29.906-29.906v59.812M.649 118.511h58.515v58.515H.649zM0 147.768h59.812m-29.906-29.906v59.812"/><path d="M59.163 118.511h58.515v58.515H59.163zm-.648 29.257h59.812M88.42 117.862v59.812m29.259-59.163h58.515v58.515h-58.515zm-.649 29.257h59.812m-29.905-29.906v59.812"/><path d="M176.194 118.511h58.515v58.515h-58.515zm-.649 29.257h59.812m-29.906-29.906v59.812"/><path d="M234.708 118.511h58.515v58.515h-58.515zm-.648 29.257h59.812m-29.906-29.906v59.812m29.257-59.163h58.515v58.515h-58.515zm-.649 29.257h59.812m-29.906-29.906v59.812m29.258-59.163h58.515v58.515h-58.515zm-.648 29.257h59.812m-29.907-29.906v59.812m29.258-59.163h58.515v58.515h-58.515zm-.649 29.257h59.813m-29.906-29.906v59.812m29.257-59.163h58.515v58.515h-58.515zm-.649 29.257h59.812m-29.906-29.906v59.812M.649 177.026h58.515v58.515H.649zM0 206.283h59.812m-29.906-29.906v59.812"/><path d="M59.163 177.026h58.515v58.515H59.163zm-.648 29.257h59.812M88.42 176.377v59.812m29.259-59.163h58.515v58.515h-58.515zm-.649 29.257h59.812m-29.905-29.906v59.812"/><path d="M176.194 177.026h58.515v58.515h-58.515zm-.649 29.257h59.812m-29.906-29.906v59.812"/><path d="M234.708 177.026h58.515v58.515h-58.515zm-.648 29.257h59.812m-29.906-29.906v59.812m29.257-59.163h58.515v58.515h-58.515zm-.649 29.257h59.812m-29.906-29.906v59.812m29.258-59.163h58.515v58.515h-58.515zm-.648 29.257h59.812m-29.907-29.906v59.812m29.258-59.163h58.515v58.515h-58.515zm-.649 29.257h59.813m-29.906-29.906v59.812m29.257-59.163h58.515v58.515h-58.515zm-.649 29.257h59.812m-29.906-29.906v59.812M.649 235.54h58.515v58.515H.649zM0 264.798h59.812m-29.906-29.906v59.812"/><path d="M59.163 235.54h58.515v58.515H59.163zm-.648 29.258h59.812M88.42 234.892v59.812m29.259-59.164h58.515v58.515h-58.515zm-.649 29.258h59.812m-29.905-29.906v59.812"/><path d="M176.194 235.54h58.515v58.515h-58.515zm-.649 29.258h59.812m-29.906-29.906v59.812"/><path d="M234.708 235.54h58.515v58.515h-58.515zm-.648 29.258h59.812m-29.906-29.906v59.812m29.257-59.164h58.515v58.515h-58.515zm-.649 29.258h59.812m-29.906-29.906v59.812m29.258-59.164h58.515v58.515h-58.515zm-.648 29.258h59.812m-29.907-29.906v59.812m29.258-59.164h58.515v58.515h-58.515zm-.649 29.258h59.813m-29.906-29.906v59.812m29.257-59.164h58.515v58.515h-58.515zm-.649 29.258h59.812m-29.906-29.906v59.812M.649 294.055h58.515v58.515H.649zM0 323.313h59.812m-29.906-29.906v59.812"/><path d="M59.163 294.055h58.515v58.515H59.163zm-.648 29.258h59.812M88.42 293.407v59.812m29.259-59.164h58.515v58.515h-58.515zm-.649 29.258h59.812m-29.905-29.906v59.812"/><path d="M176.194 294.055h58.515v58.515h-58.515zm-.649 29.258h59.812m-29.906-29.906v59.812m29.258-59.164h58.515v58.515h-58.515zm-.648 29.258h59.812m-29.906-29.906v59.812m29.257-59.164h58.515v58.515h-58.515zm-.649 29.258h59.812m-29.906-29.906v59.812"/><path d="M351.738 294.055h58.515v58.515h-58.515zm-.648 29.258h59.812m-29.907-29.906v59.812m29.259-59.164h58.515v58.515h-58.515zm-.649 29.258h59.813m-29.906-29.906v59.812m29.257-59.164h58.515v58.515h-58.515zm-.649 29.258h59.812m-29.906-29.906v59.812M.649 352.571h58.515v58.515H.649zM0 381.828h59.812m-29.906-29.906v59.812"/><path d="M59.163 352.571h58.515v58.515H59.163zm-.648 29.257h59.812M88.42 351.922v59.812m29.259-59.163h58.515v58.515h-58.515zm-.649 29.257h59.812m-29.905-29.906v59.812"/><path d="M176.194 352.571h58.515v58.515h-58.515zm-.649 29.257h59.812m-29.906-29.906v59.812m29.258-59.163h58.515v58.515h-58.515zm-.648 29.257h59.812m-29.906-29.906v59.812m29.257-59.163h58.515v58.515h-58.515zm-.649 29.257h59.812m-29.906-29.906v59.812"/><path d="M351.738 352.571h58.515v58.515h-58.515zm-.648 29.257h59.812m-29.907-29.906v59.812m29.259-59.163h58.515v58.515h-58.515zm-.649 29.257h59.813m-29.906-29.906v59.812m29.257-59.163h58.515v58.515h-58.515zm-.649 29.257h59.812m-29.906-29.906v59.812M.649 411.086h58.515v58.515H.649zM0 440.343h59.812m-29.906-29.906v59.813"/><path d="M59.163 411.086h58.515v58.515H59.163zm-.648 29.257h59.812M88.42 410.437v59.813m29.259-59.164h58.515v58.515h-58.515zm-.649 29.257h59.812m-29.905-29.906v59.813"/><path d="M176.194 411.086h58.515v58.515h-58.515zm-.649 29.257h59.812m-29.906-29.906v59.813"/><path d="M234.708 411.086h58.515v58.515h-58.515zm-.648 29.257h59.812m-29.906-29.906v59.813m29.257-59.164h58.515v58.515h-58.515zm-.649 29.257h59.812m-29.906-29.906v59.813m29.258-59.164h58.515v58.515h-58.515zm-.648 29.257h59.812m-29.907-29.906v59.813m29.258-59.164h58.515v58.515h-58.515zm-.649 29.257h59.813m-29.906-29.906v59.813m29.257-59.164h58.515v58.515h-58.515zm-.649 29.257h59.812m-29.906-29.906v59.813M.649 469.601h58.515v58.515H.649zM0 498.858h59.812m-29.906-29.906v59.812"/><path d="M59.163 469.601h58.515v58.515H59.163zm-.648 29.257h59.812M88.42 468.952v59.812m29.259-59.163h58.515v58.515h-58.515zm-.649 29.257h59.812m-29.905-29.906v59.812"/><path d="M176.194 469.601h58.515v58.515h-58.515zm-.649 29.257h59.812m-29.906-29.906v59.812"/><path d="M234.708 469.601h58.515v58.515h-58.515zm-.648 29.257h59.812m-29.906-29.906v59.812m29.257-59.163h58.515v58.515h-58.515zm-.649 29.257h59.812m-29.906-29.906v59.812m29.258-59.163h58.515v58.515h-58.515zm-.648 29.257h59.812m-29.907-29.906v59.812m29.258-59.163h58.515v58.515h-58.515zm-.649 29.257h59.813m-29.906-29.906v59.812m29.257-59.163h58.515v58.515h-58.515zm-.649 29.257h59.812m-29.906-29.906v59.812M.649 528.116h58.514v58.515H18.691c-9.964 0-18.042-8.078-18.042-18.043v-40.472zM0 557.373h59.812m-29.906-29.906v59.812"/><path d="M59.163 528.116h58.515v58.515H59.163zm-.648 29.257h59.812M88.42 527.467v59.812m29.259-59.163h58.515v58.515h-58.515zm-.649 29.257h59.812m-29.905-29.906v59.812"/><path d="M176.194 528.116h58.515v58.515h-58.515zm-.649 29.257h59.812m-29.906-29.906v59.812"/><path d="M234.708 528.116h58.515v58.515h-58.515zm-.648 29.257h59.812m-29.906-29.906v59.812m29.257-59.163h58.515v58.515h-58.515zm-.649 29.257h59.812m-29.906-29.906v59.812m29.258-59.163h58.515v58.515h-58.515zm-.648 29.257h59.812m-29.907-29.906v59.812m29.258-59.163h58.515v58.515h-58.515zm-.649 29.257h59.813m-29.906-29.906v59.812m29.257-59.163h58.515v40.472c0 9.965-8.078 18.043-18.043 18.043h-40.472v-58.515zm-.649 29.257h59.812m-29.906-29.906v59.812"/></g><g stroke="#EAEBEE" stroke-width="1.297" opacity=".4"><path d="M578.365 87.88h40.472v58.514h-58.515v-40.472c0-9.964 8.078-18.042 18.043-18.042zm-18.691 29.257h59.812M589.58 87.231v59.812m29.257-59.163h40.472c9.965 0 18.043 8.078 18.043 18.042v40.472h-58.515V87.88zm-.649 29.257h59.813m-29.906-29.906v59.812"/><path d="M560.322 146.394h58.515v58.515h-40.472c-9.965 0-18.043-8.078-18.043-18.042v-40.473zm-.648 29.258h59.812m-29.906-29.906v59.812m29.257-59.164h58.515v40.473c0 9.964-8.078 18.042-18.043 18.042h-40.472v-58.515zm-.649 29.258h59.813m-29.906-29.906v59.812"/></g><g clip-path="url(#b)"><rect width="60.025" height="60.025" x="589.013" y="116.369" fill="url(#c)" rx="12.066"/><path fill="#fff" d="M605.697 143.932c6.106-1.005 10.889-6.046 11.894-12.14l.337-2.932c.082-.466-.232-1.112-.823-1.068-4.614.359-8.962 1.879-11.389 2.868a3.192 3.192 0 0 0-1.986 2.954v9.56c0 .567.509.997 1.07.907l.897-.146v-.003zm14.841-12.143c1.006 6.098 5.788 11.135 11.894 12.139l.898.146a.92.92 0 0 0 1.069-.907v-9.56a3.192 3.192 0 0 0-1.986-2.953c-2.423-.99-6.775-2.51-11.389-2.868-.591-.045-.897.608-.826 1.068l.336 2.931.004.004zm11.891 14.821c-8.342 1.643-12.216 7.181-12.216 17.667 0 .527.523.889.961.598 3.836-2.585 12.28-9.329 13.151-17.768.034-1.064-1.298-.564-1.896-.497zm-26.729 0c8.343 1.644 12.216 7.182 12.216 17.667 0 .527-.523.889-.961.598-3.836-2.584-12.279-9.328-13.151-17.768-.033-1.064 1.298-.564 1.896-.497z"/></g><g stroke="#EAEBEE" stroke-width="1.297" opacity=".4"><path d="M578.365 235.073h40.472v58.515h-58.515v-40.472c0-9.965 8.078-18.043 18.043-18.043zm-18.691 29.258h59.812m-29.906-29.906v59.812m29.257-59.164h40.472c9.965 0 18.043 8.078 18.043 18.043v40.472h-58.515v-58.515zm-.649 29.258h59.813m-29.906-29.906v59.812"/><path d="M560.322 293.588h58.515v58.515h-40.472c-9.965 0-18.043-8.078-18.043-18.043v-40.472zm-.648 29.258h59.812M589.58 292.94v59.812m29.257-59.164h58.515v40.472c0 9.965-8.078 18.043-18.043 18.043h-40.472v-58.515zm-.649 29.258h59.813m-29.906-29.906v59.812"/></g><g clip-path="url(#d)"><rect width="59.974" height="59.974" x="589.015" y="264.069" fill="#fff" rx="12.055"/><path fill="#000" d="M635.33 300.377c-2.353 0-4.012-1.836-4.012-4.25 0-2.415 1.659-4.251 4.012-4.251 2.352 0 3.964 1.836 3.964 4.251 0 2.414-1.635 4.25-3.964 4.25zm-.378 2.53c1.897 0 3.509-.741 4.527-2.291.193 1.504 1.281 2.052 2.654 2.052h1.095v-2.384h-.47c-.779 0-.972-.378-.972-1.265v-9.426h-2.515v1.936c-.856-1.357-2.468-2.175-4.319-2.175-3.302 0-6.333 2.769-6.333 6.773 0 4.003 3.039 6.772 6.333 6.772v.008zM622 299.636c0 2.145 1.327 3.032 2.916 3.032h3.062v-2.384h-2.229c-.925 0-1.118-.355-1.118-1.265v-7.042h3.347v-2.384h-3.347v-4.389H622v14.432zm-11.979 3.032h2.631v-5.608h.879l4.482 5.608h3.324l-5.716-7.112 4.389-5.963h-2.962l-3.586 5.037h-.81v-9.426h-2.631v17.464zm-8.539-13.314c-3.679 0-6.711 2.769-6.711 6.773 0 4.003 3.04 6.772 6.711 6.772 3.672 0 6.711-2.769 6.711-6.772 0-4.004-3.039-6.773-6.711-6.773zm0 11.023c-2.352 0-4.011-1.836-4.011-4.25 0-2.415 1.659-4.251 4.011-4.251 2.353 0 4.011 1.836 4.011 4.251 0 2.414-1.658 4.25-4.011 4.25z"/></g><g stroke="#EAEBEE" stroke-width="1.297" opacity=".4"><path d="M578.365 383.201h40.472v58.515h-58.515v-40.472c0-9.965 8.078-18.043 18.043-18.043zm-18.691 29.257h59.812m-29.906-29.906v59.813m29.257-59.164h40.472c9.965 0 18.043 8.078 18.043 18.043v40.472h-58.515v-58.515zm-.649 29.257h59.813m-29.906-29.906v59.813"/><path d="M560.322 441.716h58.515v58.515h-40.472c-9.965 0-18.043-8.078-18.043-18.043v-40.472zm-.648 29.257h59.812m-29.906-29.906v59.813m29.257-59.164h58.515v40.472c0 9.965-8.078 18.043-18.043 18.043h-40.472v-58.515zm-.649 29.257h59.813m-29.906-29.906v59.813"/></g><g clip-path="url(#e)"><rect width="60.265" height="60.265" x="589.023" y="411.468" fill="#fff" rx="12.114"/><path fill="url(#f)" d="M612.144 421.776h12.451l-12.925 38.296a1.986 1.986 0 0 1-1.881 1.351h-9.69a1.977 1.977 0 0 1-1.61-.826 1.993 1.993 0 0 1-.268-1.79l12.042-35.68c.133-.394.386-.736.723-.979a1.99 1.99 0 0 1 1.158-.372z"/><path fill="#0078D4" d="M630.237 447.463h-19.744a.917.917 0 0 0-.851.578.913.913 0 0 0 .227 1.004l12.687 11.842c.369.344.856.536 1.361.536h11.18l-4.86-13.96z"/><path fill="url(#g)" d="M612.146 421.776a1.972 1.972 0 0 0-1.886 1.377l-12.023 35.622a1.981 1.981 0 0 0 1.869 2.648h9.94a2.133 2.133 0 0 0 1.631-1.387l2.397-7.066 8.565 7.988c.358.297.809.461 1.274.465h11.139l-4.885-13.96-14.241.003 8.716-25.69h-12.496z"/><path fill="url(#h)" d="M628.048 423.124a1.985 1.985 0 0 0-1.879-1.348h-13.876a1.981 1.981 0 0 1 1.878 1.348l12.043 35.682a1.99 1.99 0 0 1-.268 1.791 1.983 1.983 0 0 1-1.61.826h13.876a1.978 1.978 0 0 0 1.61-.827 1.975 1.975 0 0 0 .268-1.79l-12.042-35.682z"/></g><rect width="410.436" height="470.608" x="59.013" y="58.291" fill="#181C1F" fill-opacity=".95" rx="7.472"/><rect width="410.436" height="470.608" x="59.013" y="58.291" stroke="#374151" stroke-width=".996" rx="7.472"/><path fill="#F2F7F7" d="m434.007 95.798-.919-.92 5.058-5.057-5.058-5.058.919-.92 5.058 5.058 5.058-5.057.919.92-5.057 5.057 5.057 5.058-.919.92-5.058-5.058-5.058 5.057z"/><path fill="url(#i)" d="M254.302 115.723h17.632l-18.304 54.233a2.809 2.809 0 0 1-2.663 1.912h-13.722a2.815 2.815 0 0 1-2.281-1.17 2.8 2.8 0 0 1-.379-2.534l17.053-50.529a2.811 2.811 0 0 1 2.664-1.912z"/><path fill="#0078D4" d="M279.924 152.099h-27.961a1.288 1.288 0 0 0-1.205.819 1.3 1.3 0 0 0 .322 1.421l17.967 16.77a2.823 2.823 0 0 0 1.927.759h15.832l-6.882-19.769z"/><path fill="url(#j)" d="M254.303 115.722a2.792 2.792 0 0 0-2.67 1.95l-17.026 50.445a2.799 2.799 0 0 0 .348 2.563 2.811 2.811 0 0 0 2.298 1.188h14.077a3.015 3.015 0 0 0 2.309-1.964l3.395-10.007 12.129 11.312a2.868 2.868 0 0 0 1.805.659h15.773l-6.918-19.77-20.167.005 12.343-36.381h-17.696z"/><path fill="url(#k)" d="M276.823 117.632a2.81 2.81 0 0 0-2.66-1.909h-19.651a2.804 2.804 0 0 1 2.66 1.909l17.054 50.531a2.812 2.812 0 0 1-1.379 3.396 2.81 2.81 0 0 1-1.281.309h19.651a2.803 2.803 0 0 0 2.776-2.392 2.8 2.8 0 0 0-.117-1.313l-17.053-50.531z"/><path fill="#F2F7F7" d="m223.349 210.793-4.146-14.491h3.346l2.399 10.069h.12l2.646-10.069h2.866l2.639 10.09h.127l2.399-10.09h3.347l-4.147 14.491h-2.985l-2.76-9.474h-.113l-2.752 9.474h-2.986zm21.111.212c-1.118 0-2.08-.227-2.887-.679a4.655 4.655 0 0 1-1.854-1.939c-.433-.84-.65-1.833-.65-2.979 0-1.118.217-2.099.65-2.943a4.815 4.815 0 0 1 1.833-1.974c.792-.472 1.722-.708 2.788-.708.717 0 1.384.116 2.002.347a4.437 4.437 0 0 1 1.627 1.026c.467.458.83 1.033 1.09 1.726.259.689.389 1.496.389 2.42v.828h-9.177v-1.868h6.34c0-.434-.095-.818-.283-1.153a2.033 2.033 0 0 0-.786-.786 2.241 2.241 0 0 0-1.153-.29c-.457 0-.863.106-1.217.319a2.234 2.234 0 0 0-.821.842 2.38 2.38 0 0 0-.304 1.167v1.776c0 .538.099 1.002.297 1.394.203.391.489.693.857.906.367.212.804.318 1.308.318.335 0 .642-.047.92-.142.279-.094.517-.235.715-.424.198-.189.349-.42.453-.693l2.787.183a3.798 3.798 0 0 1-.87 1.755c-.434.495-.995.882-1.684 1.16-.684.274-1.474.411-2.37.411zm9.969-14.703v14.491h-3.014v-14.491h3.014zm7.325 14.703c-1.113 0-2.071-.236-2.873-.708a4.774 4.774 0 0 1-1.839-1.981c-.425-.844-.637-1.816-.637-2.915 0-1.113.214-2.089.644-2.929a4.787 4.787 0 0 1 1.846-1.974c.797-.476 1.746-.715 2.845-.715.948 0 1.778.173 2.49.517a4.165 4.165 0 0 1 1.691 1.45c.415.623.644 1.354.686 2.194h-2.844c-.08-.543-.292-.979-.637-1.309-.339-.335-.785-.503-1.337-.503-.467 0-.875.128-1.224.382-.344.25-.613.616-.806 1.097-.194.481-.291 1.064-.291 1.748 0 .693.095 1.283.283 1.769.194.485.465.856.814 1.11.349.255.757.382 1.224.382.344 0 .653-.07.927-.212.278-.141.507-.346.686-.615.184-.274.305-.602.361-.984h2.844c-.047.83-.273 1.561-.679 2.194a4.104 4.104 0 0 1-1.663 1.471c-.707.354-1.544.531-2.511.531zm11.693 0c-1.099 0-2.049-.234-2.851-.701a4.789 4.789 0 0 1-1.847-1.967c-.433-.844-.65-1.823-.65-2.936 0-1.122.217-2.104.65-2.943a4.74 4.74 0 0 1 1.847-1.967c.802-.472 1.752-.708 2.851-.708 1.1 0 2.048.236 2.845.708a4.717 4.717 0 0 1 1.853 1.967c.434.839.651 1.821.651 2.943 0 1.113-.217 2.092-.651 2.936a4.764 4.764 0 0 1-1.853 1.967c-.797.467-1.745.701-2.845.701zm.015-2.335c.5 0 .917-.141 1.252-.425.335-.287.587-.679.757-1.174.175-.495.262-1.059.262-1.691 0-.632-.087-1.196-.262-1.691-.17-.495-.422-.887-.757-1.175-.335-.287-.752-.431-1.252-.431-.505 0-.93.144-1.274.431-.34.288-.597.68-.771 1.175-.17.495-.255 1.059-.255 1.691 0 .632.085 1.196.255 1.691.174.495.431.887.771 1.174.344.284.769.425 1.274.425zm7.294 2.123v-10.868h2.873v1.917h.127a3.023 3.023 0 0 1 1.132-1.507c.529-.368 1.161-.552 1.896-.552.746 0 1.38.187 1.904.559.523.368.872.868 1.047 1.5h.113a2.898 2.898 0 0 1 1.203-1.493c.585-.377 1.276-.566 2.073-.566 1.014 0 1.837.324 2.469.97.637.641.955 1.552.955 2.731v7.309h-3.007v-6.715c0-.604-.16-1.056-.481-1.358-.32-.302-.721-.453-1.203-.453-.547 0-.974.174-1.28.523-.307.345-.46.8-.46 1.366v6.637h-2.922v-6.779c0-.533-.153-.957-.46-1.273-.302-.316-.701-.474-1.196-.474-.335 0-.637.085-.905.255a1.744 1.744 0 0 0-.63.7c-.156.297-.234.646-.234 1.047v6.524h-3.014zm23.126.212c-1.118 0-2.08-.227-2.887-.679a4.655 4.655 0 0 1-1.854-1.939c-.433-.84-.65-1.833-.65-2.979 0-1.118.217-2.099.65-2.943a4.815 4.815 0 0 1 1.833-1.974c.792-.472 1.722-.708 2.788-.708.717 0 1.384.116 2.002.347a4.437 4.437 0 0 1 1.627 1.026c.467.458.83 1.033 1.09 1.726.259.689.389 1.496.389 2.42v.828h-9.177v-1.868h6.34c0-.434-.094-.818-.283-1.153a2.033 2.033 0 0 0-.786-.786 2.241 2.241 0 0 0-1.153-.29c-.457 0-.863.106-1.217.319a2.224 2.224 0 0 0-.82.842 2.37 2.37 0 0 0-.305 1.167v1.776c0 .538.099 1.002.297 1.394.203.391.489.693.857.906.367.212.804.318 1.308.318.335 0 .642-.047.92-.142.279-.094.517-.235.715-.424.198-.189.349-.42.453-.693l2.787.183a3.798 3.798 0 0 1-.87 1.755c-.434.495-.995.882-1.684 1.16-.684.274-1.474.411-2.37.411z"/><path fill="#A4A7B0" d="M158.931 230.202h2.152v10.634h7.208v1.919h-9.36v-12.553zm14.4 12.732c-.848 0-1.607-.197-2.277-.592a4.372 4.372 0 0 1-1.56-1.667c-.371-.706-.556-1.507-.556-2.403 0-.897.185-1.698.556-2.403a4.248 4.248 0 0 1 1.56-1.65c.67-.406 1.429-.61 2.277-.61.849 0 1.608.204 2.278.61a4.082 4.082 0 0 1 1.56 1.65c.382.705.574 1.506.574 2.403 0 .896-.192 1.697-.574 2.403a4.197 4.197 0 0 1-1.56 1.667c-.67.395-1.429.592-2.278.592zm.072-1.686c.454 0 .849-.119 1.184-.358.346-.239.609-.58.789-1.022.191-.455.287-.987.287-1.596 0-.61-.096-1.136-.287-1.578-.18-.455-.443-.801-.789-1.04a1.986 1.986 0 0 0-1.184-.359h-.143c-.443 0-.837.12-1.184.359-.334.239-.597.585-.789 1.04-.191.442-.287.968-.287 1.578 0 .609.096 1.141.287 1.596.192.442.455.783.789 1.022.347.239.741.358 1.184.358h.143zm9.491 5.452c-.789 0-1.5-.126-2.134-.377-.622-.239-1.112-.574-1.47-1.004a2.518 2.518 0 0 1-.592-1.488h2.062c.072.37.299.657.681.86.383.215.879.323 1.489.323h.125c.694 0 1.249-.203 1.668-.61.43-.394.645-.986.645-1.775v-1.201a2.632 2.632 0 0 1-1.058.986 3.36 3.36 0 0 1-1.524.341 3.865 3.865 0 0 1-1.972-.52c-.586-.347-1.058-.861-1.417-1.543-.359-.693-.538-1.53-.538-2.51 0-.98.174-1.811.52-2.492.359-.694.837-1.214 1.435-1.561a3.865 3.865 0 0 1 1.972-.52c.562 0 1.076.12 1.542.359.479.239.825.562 1.04.968v-1.147h2.063v9.091c0 .694-.174 1.327-.52 1.901-.347.586-.867 1.052-1.561 1.399-.681.346-1.5.52-2.456.52zm.323-5.631a1.88 1.88 0 0 0 1.075-.341c.335-.239.598-.573.789-1.004.192-.442.287-.956.287-1.542 0-.586-.095-1.094-.287-1.524-.179-.442-.436-.777-.771-1.004a1.738 1.738 0 0 0-1.058-.359h-.143a1.94 1.94 0 0 0-1.112.341c-.335.215-.597.538-.789.968-.191.43-.287.956-.287 1.578 0 .933.198 1.65.592 2.152.407.49.927.735 1.56.735h.144zm10.294-7.28h2.062v8.966h-2.062v-8.966zm-.089-3.587h2.241v2.224h-2.241v-2.224zm4.319 3.587h2.062v1.291a3.147 3.147 0 0 1 1.129-1.076c.479-.263 1.028-.395 1.65-.395.693 0 1.273.138 1.739.413a2.6 2.6 0 0 1 1.076 1.165c.239.491.359 1.064.359 1.722v5.846h-2.062v-5.541c0-.407-.06-.753-.179-1.04a1.32 1.32 0 0 0-.538-.646c-.228-.155-.52-.233-.879-.233h-.144c-.382 0-.741.108-1.075.323a2.26 2.26 0 0 0-.789.878 2.69 2.69 0 0 0-.287 1.256v5.003h-2.062v-8.966zm16.989 8.966c-.693 0-1.231-.186-1.613-.556-.371-.383-.556-.921-.556-1.614v-5.093h-1.901v-1.703h1.901v-2.905h2.062v2.905h2.062v1.703h-2.062v4.609c0 .346.06.58.179.699.12.12.353.179.699.179h1.453v1.776h-2.224zm7.434.179c-.848 0-1.607-.197-2.277-.592a4.372 4.372 0 0 1-1.56-1.667c-.37-.706-.556-1.507-.556-2.403 0-.897.186-1.698.556-2.403a4.248 4.248 0 0 1 1.56-1.65c.67-.406 1.429-.61 2.277-.61.849 0 1.608.204 2.278.61a4.082 4.082 0 0 1 1.56 1.65c.382.705.574 1.506.574 2.403 0 .896-.192 1.697-.574 2.403a4.197 4.197 0 0 1-1.56 1.667c-.67.395-1.429.592-2.278.592zm.072-1.686c.454 0 .849-.119 1.184-.358.346-.239.609-.58.789-1.022.191-.455.287-.987.287-1.596 0-.61-.096-1.136-.287-1.578-.18-.455-.443-.801-.789-1.04a1.986 1.986 0 0 0-1.184-.359h-.143c-.443 0-.837.12-1.184.359-.334.239-.597.585-.789 1.04-.191.442-.287.968-.287 1.578 0 .609.096 1.141.287 1.596.192.442.455.783.789 1.022.347.239.741.358 1.184.358h.143zm13.201-11.046h2.6l4.877 12.553h-2.259l-4.142-10.724h.322l-4.124 10.724h-2.241l4.967-12.553zm-1.919 7.55h6.689l.035 1.936h-7.101l.377-1.936zm9.882 3.317 5.2-5.846.179.377h-5.29v-1.811h7.299v1.685l-5.201 5.846-.179-.376h5.649v1.811H243.4v-1.686zm12.156 1.865c-.669 0-1.231-.138-1.685-.412a2.663 2.663 0 0 1-1.022-1.184c-.228-.502-.341-1.082-.341-1.739v-5.81h2.062v5.505c0 .633.131 1.118.394 1.452.263.335.646.502 1.148.502h.144c.358 0 .687-.107.986-.322a2.33 2.33 0 0 0 .753-.897c.191-.394.287-.831.287-1.309v-4.931h2.062v8.966h-2.062v-1.471c-.239.49-.598.891-1.076 1.202-.478.299-1.028.448-1.65.448zm6.945-9.145h2.026v1.865c.179-.622.496-1.1.95-1.435.466-.347 1.016-.52 1.65-.52h.61v1.937h-.771c-.789 0-1.387.215-1.794.645-.406.419-.609 1.04-.609 1.865v4.609h-2.062v-8.966zm10.008 9.145c-.765 0-1.47-.179-2.116-.538-.646-.371-1.166-.909-1.56-1.614-.383-.705-.574-1.542-.574-2.51 0-.945.179-1.764.538-2.457a3.915 3.915 0 0 1 1.506-1.632 4.182 4.182 0 0 1 2.17-.574c.837 0 1.554.186 2.152.556a3.47 3.47 0 0 1 1.363 1.507c.31.645.466 1.386.466 2.223 0 .251-.012.556-.036.915h-6.151c.036.502.162.938.377 1.309.227.358.508.639.843.842a2.03 2.03 0 0 0 1.022.287h.143c.443 0 .819-.113 1.13-.34a1.49 1.49 0 0 0 .592-.915h2.044c-.191.897-.634 1.614-1.327 2.152-.693.526-1.554.789-2.582.789zm1.919-5.72c-.036-.622-.234-1.094-.592-1.417-.359-.335-.801-.502-1.327-.502h-.144c-.514 0-.962.167-1.344.502-.383.323-.616.795-.7 1.417h4.107zm10.623 5.541c-.694 0-1.232-.186-1.614-.556-.371-.383-.556-.921-.556-1.614v-5.093h-1.901v-1.703h1.901v-2.905h2.062v2.905h2.062v1.703h-2.062v4.609c0 .346.06.58.179.699.12.12.353.179.7.179h1.452v1.776h-2.223zm7.434.179c-.849 0-1.608-.197-2.278-.592a4.372 4.372 0 0 1-1.56-1.667c-.37-.706-.556-1.507-.556-2.403 0-.897.186-1.698.556-2.403a4.248 4.248 0 0 1 1.56-1.65c.67-.406 1.429-.61 2.278-.61.848 0 1.608.204 2.277.61a4.082 4.082 0 0 1 1.56 1.65c.383.705.574 1.506.574 2.403 0 .896-.191 1.697-.574 2.403a4.197 4.197 0 0 1-1.56 1.667c-.669.395-1.429.592-2.277.592zm.071-1.686c.455 0 .849-.119 1.184-.358.347-.239.61-.58.789-1.022.191-.455.287-.987.287-1.596 0-.61-.096-1.136-.287-1.578-.179-.455-.442-.801-.789-1.04a1.984 1.984 0 0 0-1.184-.359h-.143c-.442 0-.837.12-1.184.359-.334.239-.597.585-.789 1.04-.191.442-.286.968-.286 1.578 0 .609.095 1.141.286 1.596.192.442.455.783.789 1.022.347.239.742.358 1.184.358h.143zm13.674 1.686c-.849 0-1.602-.197-2.259-.592a4.011 4.011 0 0 1-1.506-1.65c-.359-.705-.538-1.512-.538-2.42 0-.909.179-1.716.538-2.421a4.023 4.023 0 0 1 1.506-1.65c.657-.394 1.41-.592 2.259-.592.741 0 1.387.126 1.937.377.562.251 1.01.622 1.345 1.112.334.478.532 1.064.591 1.757h-2.062c-.071-.478-.263-.855-.574-1.13-.298-.286-.687-.43-1.165-.43h-.144c-.49 0-.896.138-1.219.412-.323.263-.562.622-.717 1.076a4.461 4.461 0 0 0-.233 1.489c0 .848.179 1.56.538 2.134.37.561.914.842 1.631.842h.144c.478 0 .867-.137 1.165-.412.311-.287.503-.67.574-1.148h2.062c-.083 1.052-.472 1.859-1.165 2.421-.682.55-1.584.825-2.708.825zm9.327 0c-.849 0-1.608-.197-2.277-.592a4.357 4.357 0 0 1-1.56-1.667c-.371-.706-.556-1.507-.556-2.403 0-.897.185-1.698.556-2.403a4.233 4.233 0 0 1 1.56-1.65c.669-.406 1.428-.61 2.277-.61.849 0 1.608.204 2.277.61.67.395 1.19.945 1.56 1.65.383.705.574 1.506.574 2.403 0 .896-.191 1.697-.574 2.403a4.183 4.183 0 0 1-1.56 1.667c-.669.395-1.428.592-2.277.592zm.072-1.686c.454 0 .849-.119 1.183-.358.347-.239.61-.58.789-1.022.192-.455.287-.987.287-1.596 0-.61-.095-1.136-.287-1.578-.179-.455-.442-.801-.789-1.04a1.981 1.981 0 0 0-1.183-.359h-.144c-.442 0-.837.12-1.183.359-.335.239-.598.585-.789 1.04-.191.442-.287.968-.287 1.578 0 .609.096 1.141.287 1.596.191.442.454.783.789 1.022.346.239.741.358 1.183.358h.144zm5.958-7.459h2.062v1.291a3.141 3.141 0 0 1 1.13-1.076c.478-.263 1.028-.395 1.649-.395.694 0 1.274.138 1.74.413.478.275.837.663 1.076 1.165.239.491.358 1.064.358 1.722v5.846h-2.062v-5.541c0-.407-.06-.753-.179-1.04a1.32 1.32 0 0 0-.538-.646c-.227-.155-.52-.233-.879-.233h-.143c-.383 0-.741.108-1.076.323a2.26 2.26 0 0 0-.789.878 2.702 2.702 0 0 0-.287 1.256v5.003h-2.062v-8.966zm13.128 8.966c-.693 0-1.231-.186-1.614-.556-.37-.383-.556-.921-.556-1.614v-5.093h-1.9v-1.703h1.9v-2.905h2.062v2.905h2.063v1.703h-2.063v4.609c0 .346.06.58.18.699.119.12.352.179.699.179h1.453v1.776h-2.224zm3.648-8.966h2.063v8.966h-2.063v-8.966zm-.089-3.587h2.241v2.224h-2.241v-2.224zm4.319 3.587h2.062v1.291a3.141 3.141 0 0 1 1.13-1.076c.478-.263 1.028-.395 1.649-.395.694 0 1.274.138 1.74.413.478.275.837.663 1.076 1.165.239.491.358 1.064.358 1.722v5.846h-2.062v-5.541c0-.407-.06-.753-.179-1.04a1.32 1.32 0 0 0-.538-.646c-.227-.155-.52-.233-.879-.233h-.143c-.383 0-.741.108-1.076.323a2.26 2.26 0 0 0-.789.878 2.702 2.702 0 0 0-.287 1.256v5.003h-2.062v-8.966zm13.037 9.145c-.67 0-1.232-.138-1.686-.412a2.67 2.67 0 0 1-1.022-1.184c-.227-.502-.341-1.082-.341-1.739v-5.81h2.062v5.505c0 .633.132 1.118.395 1.452.263.335.645.502 1.148.502h.143c.359 0 .687-.107.986-.322a2.33 2.33 0 0 0 .753-.897 2.95 2.95 0 0 0 .287-1.309v-4.931h2.062v8.966h-2.062v-1.471c-.239.49-.597.891-1.076 1.202-.478.299-1.028.448-1.649.448zm10.692 0a4.28 4.28 0 0 1-2.116-.538c-.646-.371-1.166-.909-1.56-1.614-.383-.705-.574-1.542-.574-2.51 0-.945.179-1.764.538-2.457a3.915 3.915 0 0 1 1.506-1.632 4.182 4.182 0 0 1 2.17-.574c.837 0 1.554.186 2.152.556a3.469 3.469 0 0 1 1.362 1.507c.311.645.467 1.386.467 2.223 0 .251-.012.556-.036.915h-6.151c.036.502.162.938.377 1.309.227.358.508.639.843.842.334.192.675.287 1.022.287h.143c.442 0 .819-.113 1.13-.34a1.49 1.49 0 0 0 .592-.915h2.044c-.191.897-.634 1.614-1.327 2.152-.693.526-1.554.789-2.582.789zm1.918-5.72c-.035-.622-.233-1.094-.591-1.417-.359-.335-.801-.502-1.327-.502h-.144c-.514 0-.962.167-1.345.502-.382.323-.615.795-.699 1.417h4.106z"/><rect width="360.427" height="43.189" x="84.018" y="270.276" fill="#181C1F" rx="5.349"/><rect width="360.427" height="43.189" x="84.018" y="270.276" stroke="#7A808B" stroke-width="1.195" rx="5.349"/><g clip-path="url(#l)"><path fill="#A4A7B0" fill-rule="evenodd" d="M97.695 285.794c-.88 0-1.594.714-1.594 1.594v8.966c0 .88.713 1.594 1.594 1.594h11.954c.88 0 1.594-.714 1.594-1.594v-8.966c0-.88-.714-1.594-1.594-1.594H97.695zm-.357 1.417a.398.398 0 0 1 .357-.221h11.954c.156 0 .292.09.357.221l-4.535 5.183a2.392 2.392 0 0 1-3.599 0l-4.534-5.183zm-.042 1.768v5.434l2.536-2.536-2.536-2.898zm0 7.125v.25c0 .22.178.399.398.399h11.955c.22 0 .398-.179.398-.399v-.25l-3.324-3.325-.352.402a3.586 3.586 0 0 1-5.398 0l-.352-.402-3.325 3.325zm12.751-1.691v-5.434l-2.535 2.898 2.535 2.536z" clip-rule="evenodd"/></g><path fill="#A4A7B0" d="M120.944 286.501h7.531v1.24h-6.156v3.213h5.26v1.255h-5.26v3.512h6.306v1.24h-7.681v-10.46zm9.465 2.988h1.3v1.091a2.667 2.667 0 0 1 2.302-1.24c.557 0 1.046.119 1.464.358.428.24.752.598.971 1.076.269-.488.623-.846 1.061-1.076a3.065 3.065 0 0 1 1.465-.358c.548 0 1.016.109 1.404.329.399.209.703.513.912.911.219.399.329.867.329 1.405v4.976h-1.3v-4.677c0-.598-.13-1.056-.389-1.375-.249-.319-.643-.478-1.181-.478h-.104a1.68 1.68 0 0 0-.986.313c-.299.21-.538.504-.718.882a2.874 2.874 0 0 0-.269 1.27v4.065h-1.3v-4.677c0-.598-.129-1.056-.388-1.375-.249-.319-.643-.478-1.181-.478h-.119c-.349 0-.678.104-.986.313-.299.21-.538.504-.718.882a2.874 2.874 0 0 0-.269 1.27v4.065h-1.3v-7.472zm16.28 7.621c-.637 0-1.205-.154-1.703-.463-.498-.319-.892-.767-1.181-1.345-.279-.588-.418-1.28-.418-2.077 0-.797.139-1.484.418-2.062.289-.588.683-1.036 1.181-1.345a3.089 3.089 0 0 1 1.703-.478c.558 0 1.041.109 1.45.329.408.219.732.523.971.911v-1.091h1.3v7.472h-1.3v-1.091a2.518 2.518 0 0 1-.971.911c-.409.22-.892.329-1.45.329zm.239-1.091a1.95 1.95 0 0 0 1.106-.328c.329-.229.588-.553.777-.972.199-.428.299-.926.299-1.494s-.1-1.061-.299-1.479c-.189-.429-.448-.752-.777-.972a1.89 1.89 0 0 0-1.106-.343h-.119c-.419 0-.792.114-1.121.343-.319.22-.568.543-.747.972-.17.418-.254.911-.254 1.479 0 .568.084 1.066.254 1.494.179.419.428.743.747.972.329.219.702.328 1.121.328h.119zm5.75-6.53h1.3v7.472h-1.3v-7.472zm-.075-2.884h1.45v1.539h-1.45v-1.539zm3.65-.104h1.3v10.46h-1.3v-10.46zm10.041 0h1.748l4.154 10.46h-1.434l-3.781-9.594h.314l-3.78 9.594h-1.405l4.184-10.46zm-1.958 6.47h5.619v1.255h-5.619v-1.255zm11.844 4.139c-.628 0-1.186-.154-1.674-.463-.488-.319-.871-.767-1.15-1.345-.279-.588-.419-1.28-.419-2.077 0-.797.145-1.484.434-2.062.298-.588.702-1.036 1.21-1.345a3.164 3.164 0 0 1 1.718-.478c.499 0 .967.114 1.405.344.438.229.757.528.956.896v-4.079h1.3v10.46h-1.3v-1.091c-.199.359-.533.657-1.001.897a3.322 3.322 0 0 1-1.479.343zm.299-1.091c.408 0 .777-.109 1.106-.328.328-.229.587-.553.777-.972.199-.428.298-.926.298-1.494s-.099-1.061-.298-1.479c-.19-.429-.449-.752-.777-.972a1.891 1.891 0 0 0-1.106-.343h-.12c-.418 0-.787.114-1.106.343-.318.22-.567.543-.747.972-.179.418-.269.911-.269 1.479 0 .867.195 1.549.583 2.047.389.498.902.747 1.539.747h.12zm8.559 1.091c-.628 0-1.186-.154-1.674-.463-.488-.319-.872-.767-1.151-1.345-.278-.588-.418-1.28-.418-2.077 0-.797.145-1.484.433-2.062.299-.588.703-1.036 1.211-1.345a3.164 3.164 0 0 1 1.718-.478c.498 0 .967.114 1.405.344.438.229.757.528.956.896v-4.079h1.3v10.46h-1.3v-1.091c-.199.359-.533.657-1.001.897a3.322 3.322 0 0 1-1.479.343zm.299-1.091c.408 0 .777-.109 1.105-.328.329-.229.588-.553.777-.972.2-.428.299-.926.299-1.494s-.099-1.061-.299-1.479c-.189-.429-.448-.752-.777-.972a1.886 1.886 0 0 0-1.105-.343h-.12c-.418 0-.787.114-1.106.343-.319.22-.568.543-.747.972-.179.418-.269.911-.269 1.479 0 .867.194 1.549.583 2.047.388.498.901.747 1.539.747h.12zm5.749-6.53h1.226v1.659c.159-.558.438-.986.836-1.285a2.23 2.23 0 0 1 1.375-.448h.673v1.24h-.598c-.687 0-1.23.229-1.629.687-.388.458-.583 1.086-.583 1.883v3.736h-1.3v-7.472zm8.316 7.621c-.637 0-1.22-.144-1.748-.433-.528-.299-.951-.742-1.27-1.33-.309-.588-.463-1.3-.463-2.137 0-.827.159-1.529.478-2.107.329-.588.752-1.026 1.27-1.315a3.4 3.4 0 0 1 1.703-.448c.628 0 1.176.139 1.644.418.478.279.842.673 1.091 1.181.259.498.389 1.066.389 1.703v.762h-5.275c.03.578.149 1.061.358 1.45.209.388.473.682.792.881.329.19.668.284 1.016.284h.105c.428 0 .792-.104 1.091-.313.309-.21.508-.523.598-.942h1.3c-.14.737-.494 1.315-1.061 1.734-.558.408-1.231.612-2.018.612zm1.793-4.737c-.029-.627-.209-1.105-.537-1.434-.319-.339-.728-.508-1.226-.508h-.134c-.469 0-.892.154-1.27.463-.369.309-.613.802-.733 1.479h3.9zm5.636 4.737c-.946 0-1.688-.224-2.226-.672-.528-.458-.797-1.051-.807-1.778h1.3c.04.448.214.787.523 1.016.319.229.722.343 1.21.343h.12c.438 0 .792-.099 1.061-.298.279-.2.418-.459.418-.777a.818.818 0 0 0-.254-.628c-.169-.169-.453-.294-.852-.374l-1.09-.224c-.648-.129-1.166-.363-1.554-.702-.389-.339-.583-.807-.583-1.405 0-.468.124-.871.373-1.21a2.43 2.43 0 0 1 1.016-.792 3.572 3.572 0 0 1 1.39-.269c.937 0 1.654.229 2.152.687.508.458.767 1.046.777 1.764h-1.3a1.625 1.625 0 0 0-.463-.972c-.259-.259-.623-.388-1.091-.388h-.12c-.438 0-.787.104-1.046.313-.259.2-.388.444-.388.733 0 .279.085.498.254.657.179.16.473.279.881.359l1.166.254c.628.119 1.121.349 1.479.687.369.339.553.817.553 1.435 0 .448-.124.842-.373 1.18-.239.339-.578.603-1.016.792-.429.18-.932.269-1.51.269zm7.253 0c-.946 0-1.689-.224-2.227-.672-.528-.458-.796-1.051-.806-1.778h1.3c.039.448.214.787.523 1.016.318.229.722.343 1.21.343h.12c.438 0 .792-.099 1.061-.298.278-.2.418-.459.418-.777a.822.822 0 0 0-.254-.628c-.169-.169-.453-.294-.852-.374l-1.091-.224c-.647-.129-1.165-.363-1.554-.702-.388-.339-.583-.807-.583-1.405 0-.468.125-.871.374-1.21a2.43 2.43 0 0 1 1.016-.792 3.569 3.569 0 0 1 1.39-.269c.936 0 1.654.229 2.152.687.508.458.767 1.046.777 1.764h-1.3a1.626 1.626 0 0 0-.464-.972c-.259-.259-.622-.388-1.09-.388h-.12c-.438 0-.787.104-1.046.313-.259.2-.389.444-.389.733 0 .279.085.498.254.657.18.16.474.279.882.359l1.166.254c.627.119 1.12.349 1.479.687.369.339.553.817.553 1.435 0 .448-.125.842-.374 1.18-.239.339-.577.603-1.016.792-.428.18-.931.269-1.509.269z"/><rect width="360.427" height="43.189" x="84.018" y="328.698" fill="#181C1F" rx="5.349"/><rect width="360.427" height="43.189" x="84.018" y="328.698" stroke="#7A808B" stroke-width="1.195" rx="5.349"/><path fill="#A4A7B0" d="M105.07 352.255a.674.674 0 0 0-.097.384l.159 1.589a.498.498 0 0 1-.496.547h-.892a.497.497 0 0 1-.495-.547l.159-1.589a.69.69 0 0 0-.097-.384.996.996 0 1 1 1.759 0z"/><path fill="#A4A7B0" fill-rule="evenodd" d="M100.604 347.304a3.586 3.586 0 1 1 7.173 0v.896h.398a2.59 2.59 0 0 1 2.59 2.591v4.981c0 .88-.713 1.594-1.594 1.594h-9.962c-.88 0-1.594-.714-1.594-1.594v-4.981a2.59 2.59 0 0 1 2.59-2.591h.399v-.896zm5.977 0v.896h-4.782v-.896a2.391 2.391 0 0 1 4.782 0zm-6.376 2.092c-.77 0-1.394.624-1.394 1.395v4.981c0 .22.178.398.398.398h9.962c.22 0 .399-.178.399-.398v-4.981c0-.771-.625-1.395-1.395-1.395h-7.97z" clip-rule="evenodd"/><path fill="#A4A7B0" d="M121.463 344.922h4.348c.638 0 1.205.124 1.704.374.508.239.906.597 1.195 1.075.299.479.448 1.046.448 1.704 0 .647-.149 1.21-.448 1.688a2.808 2.808 0 0 1-1.195 1.091c-.499.239-1.066.359-1.704.359h-2.974v4.169h-1.374v-10.46zm4.124 5.036c.697 0 1.235-.16 1.614-.478.388-.319.583-.787.583-1.405 0-.628-.195-1.101-.583-1.42-.379-.328-.917-.493-1.614-.493h-2.75v3.796h2.75zm7.903 5.574c-.637 0-1.205-.155-1.703-.464-.498-.319-.892-.767-1.181-1.345-.279-.587-.418-1.28-.418-2.077 0-.797.139-1.484.418-2.062.289-.588.683-1.036 1.181-1.345a3.097 3.097 0 0 1 1.703-.478c.558 0 1.041.11 1.45.329.408.219.732.523.971.911v-1.09h1.3v7.471h-1.3v-1.091a2.514 2.514 0 0 1-.971.912c-.409.219-.892.329-1.45.329zm.24-1.091c.408 0 .777-.11 1.105-.329.329-.229.588-.553.777-.971.2-.429.299-.927.299-1.495 0-.568-.099-1.061-.299-1.479-.189-.428-.448-.752-.777-.971a1.887 1.887 0 0 0-1.105-.344h-.12c-.418 0-.792.115-1.121.344-.319.219-.568.543-.747.971-.169.418-.254.911-.254 1.479 0 .568.085 1.066.254 1.495.179.418.428.742.747.971.329.219.703.329 1.121.329h.12zm8.215 1.091c-.947 0-1.689-.225-2.227-.673-.528-.458-.797-1.051-.807-1.778h1.3c.04.448.215.787.523 1.016.319.229.723.344 1.211.344h.119c.439 0 .792-.1 1.061-.299.279-.199.419-.458.419-.777a.825.825 0 0 0-.254-.628c-.17-.169-.454-.294-.852-.373l-1.091-.225c-.647-.129-1.165-.363-1.554-.702-.389-.339-.583-.807-.583-1.405 0-.468.125-.871.374-1.21a2.43 2.43 0 0 1 1.016-.792 3.569 3.569 0 0 1 1.39-.269c.936 0 1.653.229 2.151.687.509.459.768 1.047.777 1.764h-1.3a1.62 1.62 0 0 0-.463-.972c-.259-.259-.622-.388-1.091-.388h-.119c-.439 0-.787.105-1.046.314-.259.199-.389.443-.389.732 0 .279.085.498.254.657.18.16.474.279.882.359l1.166.254c.627.12 1.12.349 1.479.688.368.338.553.816.553 1.434 0 .448-.125.842-.374 1.181-.239.338-.578.602-1.016.792-.428.179-.931.269-1.509.269zm7.252 0c-.946 0-1.688-.225-2.226-.673-.528-.458-.797-1.051-.807-1.778h1.3c.04.448.214.787.523 1.016.319.229.722.344 1.21.344h.12c.438 0 .792-.1 1.061-.299.279-.199.418-.458.418-.777a.821.821 0 0 0-.254-.628c-.169-.169-.453-.294-.851-.373l-1.091-.225c-.648-.129-1.166-.363-1.554-.702-.389-.339-.583-.807-.583-1.405 0-.468.124-.871.373-1.21a2.426 2.426 0 0 1 1.017-.792 3.564 3.564 0 0 1 1.389-.269c.937 0 1.654.229 2.152.687.508.459.767 1.047.777 1.764h-1.3a1.625 1.625 0 0 0-.463-.972c-.259-.259-.623-.388-1.091-.388h-.12c-.438 0-.787.105-1.046.314-.259.199-.388.443-.388.732 0 .279.085.498.254.657.179.16.473.279.882.359l1.165.254c.628.12 1.121.349 1.48.688.368.338.552.816.552 1.434 0 .448-.124.842-.373 1.181-.239.338-.578.602-1.016.792-.429.179-.932.269-1.51.269zm3.834-7.621h1.36l1.883 6.53h-.239l1.778-6.53h1.42l1.838 6.53h-.224l1.808-6.53h1.344l-2.331 7.471h-1.494l-1.748-6.336h.194l-1.763 6.336h-1.495l-2.331-7.471zm15.385 7.621c-.667 0-1.27-.165-1.808-.494a3.564 3.564 0 0 1-1.285-1.374c-.309-.588-.463-1.261-.463-2.018 0-.757.154-1.429.463-2.017a3.567 3.567 0 0 1 1.285-1.375 3.397 3.397 0 0 1 1.808-.493 3.37 3.37 0 0 1 1.794.493c.547.329.976.787 1.285 1.375.308.588.463 1.26.463 2.017 0 .757-.155 1.43-.463 2.018a3.429 3.429 0 0 1-1.285 1.374 3.372 3.372 0 0 1-1.794.494zm.06-1.091c.419 0 .792-.11 1.121-.329.329-.229.588-.553.777-.971.189-.419.284-.917.284-1.495 0-.577-.095-1.076-.284-1.494-.189-.418-.448-.737-.777-.956a1.914 1.914 0 0 0-1.121-.344h-.134c-.419 0-.792.115-1.121.344-.329.219-.588.538-.777.956-.179.418-.269.917-.269 1.494 0 .578.09 1.076.269 1.495.189.418.448.742.777.971.329.219.702.329 1.121.329h.134zm5.296-6.53h1.226v1.658c.159-.558.438-.986.837-1.285a2.226 2.226 0 0 1 1.374-.448h.673v1.24h-.598c-.687 0-1.23.229-1.629.687-.388.459-.583 1.086-.583 1.883v3.736h-1.3v-7.471zm8.121 7.621c-.627 0-1.185-.155-1.673-.464-.488-.319-.872-.767-1.151-1.345-.279-.587-.418-1.28-.418-2.077 0-.797.144-1.484.433-2.062.299-.588.702-1.036 1.211-1.345a3.17 3.17 0 0 1 1.718-.478c.498 0 .966.115 1.405.344.438.229.757.528.956.896v-4.079h1.3v10.46h-1.3v-1.091c-.199.359-.533.658-1.001.897a3.327 3.327 0 0 1-1.48.344zm.299-1.091c.409 0 .777-.11 1.106-.329.329-.229.588-.553.777-.971.199-.429.299-.927.299-1.495 0-.568-.1-1.061-.299-1.479-.189-.428-.448-.752-.777-.971a1.89 1.89 0 0 0-1.106-.344h-.119c-.419 0-.787.115-1.106.344-.319.219-.568.543-.747.971-.179.418-.269.911-.269 1.479 0 .867.194 1.549.583 2.048.388.498.901.747 1.539.747h.119z"/><path fill="#A4A7B0" fill-rule="evenodd" d="M424.311 345.734c-4.164 0-6.321 3.176-6.833 4.041a1.006 1.006 0 0 0 0 1.035c.512.864 2.669 4.041 6.833 4.041 4.165 0 6.322-3.177 6.834-4.041a1.01 1.01 0 0 0 0-1.035c-.512-.865-2.669-4.041-6.834-4.041zm0 7.928c-3.375 0-5.214-2.49-5.756-3.37.349-.567 1.239-1.805 2.733-2.612a3.32 3.32 0 1 0 6.047 0c1.494.807 2.384 2.045 2.733 2.612-.542.88-2.381 3.37-5.757 3.37zm0-6.739a2.13 2.13 0 1 0 .001 4.261 2.13 2.13 0 0 0-.001-4.261z" clip-rule="evenodd"/><path fill="#A4A7B0" d="M84.69 386.061h7.502v1.599h-5.709v2.974h4.961v1.614h-4.96v4.273H84.69v-10.46zm11.606 10.61c-.707 0-1.34-.164-1.897-.493a3.641 3.641 0 0 1-1.3-1.39c-.31-.588-.464-1.255-.464-2.002 0-.747.155-1.415.464-2.003a3.527 3.527 0 0 1 1.3-1.374c.558-.339 1.19-.508 1.897-.508.708 0 1.34.169 1.898.508a3.39 3.39 0 0 1 1.3 1.374c.319.588.478 1.256.478 2.003 0 .747-.159 1.414-.478 2.002a3.496 3.496 0 0 1-1.3 1.39c-.558.329-1.19.493-1.898.493zm.06-1.405c.379 0 .708-.099.986-.299.29-.199.508-.483.658-.851.16-.379.239-.822.239-1.33 0-.508-.08-.947-.24-1.315-.148-.379-.368-.668-.657-.867a1.654 1.654 0 0 0-.986-.299h-.12c-.368 0-.697.1-.986.299-.278.199-.498.488-.657.867-.16.368-.24.807-.24 1.315 0 .508.08.951.24 1.33.16.368.379.652.657.851.29.2.618.299.987.299h.12zm4.965-6.216h1.689v1.554c.149-.518.413-.916.792-1.195.388-.289.847-.434 1.375-.434h.508v1.614h-.643c-.657 0-1.156.179-1.494.538-.339.349-.508.867-.508 1.554v3.84h-1.719v-7.471zm8.19 10.759c-.657 0-1.25-.105-1.778-.314-.518-.199-.926-.478-1.225-.837a2.097 2.097 0 0 1-.493-1.24h1.718c.06.309.249.548.568.717.319.18.732.269 1.24.269h.105c.578 0 1.041-.169 1.39-.508.358-.329.538-.822.538-1.479v-1.001a2.21 2.21 0 0 1-.882.822 2.805 2.805 0 0 1-1.27.283 3.216 3.216 0 0 1-1.644-.433c-.488-.289-.882-.717-1.18-1.285-.299-.578-.449-1.275-.449-2.092 0-.817.145-1.509.434-2.077.298-.578.697-1.011 1.195-1.3a3.216 3.216 0 0 1 1.644-.433c.468 0 .896.099 1.285.298.398.2.687.469.867.807v-.956h1.718v7.576c0 .578-.144 1.106-.433 1.584-.289.488-.723.877-1.3 1.166-.568.289-1.251.433-2.048.433zm.269-4.692c.319 0 .618-.095.897-.284.279-.199.498-.478.658-.837.159-.368.239-.797.239-1.285 0-.488-.08-.912-.239-1.27-.15-.369-.364-.648-.643-.837a1.452 1.452 0 0 0-.882-.299h-.119c-.339 0-.648.095-.927.284-.279.179-.498.448-.657.807-.16.359-.239.797-.239 1.315 0 .777.164 1.375.493 1.793.339.409.772.613 1.3.613h.119zm8.545 1.554c-.707 0-1.34-.164-1.898-.493a3.642 3.642 0 0 1-1.3-1.39c-.308-.588-.463-1.255-.463-2.002 0-.747.155-1.415.463-2.003a3.527 3.527 0 0 1 1.3-1.374c.558-.339 1.191-.508 1.898-.508.707 0 1.34.169 1.898.508a3.39 3.39 0 0 1 1.3 1.374c.319.588.478 1.256.478 2.003 0 .747-.159 1.414-.478 2.002a3.496 3.496 0 0 1-1.3 1.39c-.558.329-1.191.493-1.898.493zm.06-1.405c.379 0 .707-.099.986-.299.289-.199.508-.483.658-.851.159-.379.239-.822.239-1.33 0-.508-.08-.947-.239-1.315-.15-.379-.369-.668-.658-.867a1.652 1.652 0 0 0-.986-.299h-.12c-.368 0-.697.1-.986.299-.279.199-.498.488-.657.867-.16.368-.239.807-.239 1.315 0 .508.079.951.239 1.33.159.368.378.652.657.851.289.2.618.299.986.299h.12zm7.448 1.255c-.577 0-1.026-.154-1.345-.463-.308-.319-.463-.767-.463-1.345v-4.243h-1.584v-1.42h1.584v-2.421h1.719v2.421h1.718v1.42h-1.718v3.84c0 .289.05.483.149.583.1.099.294.149.583.149h1.21v1.479h-1.853zm5.399 1.405h1.614c.249 0 .423-.035.523-.104.109-.07.209-.22.299-.449l3.227-8.323h1.853l-3.646 9.19c-.179.448-.408.757-.687.926-.269.18-.658.269-1.166.269h-2.017v-1.509zm-.448-8.876h1.883l2.659 5.663-.941 1.973-3.601-7.636zm11.883 7.621c-.707 0-1.34-.164-1.898-.493a3.65 3.65 0 0 1-1.3-1.39c-.308-.588-.463-1.255-.463-2.002 0-.747.155-1.415.463-2.003a3.535 3.535 0 0 1 1.3-1.374c.558-.339 1.191-.508 1.898-.508.708 0 1.34.169 1.898.508a3.39 3.39 0 0 1 1.3 1.374c.319.588.478 1.256.478 2.003 0 .747-.159 1.414-.478 2.002a3.496 3.496 0 0 1-1.3 1.39c-.558.329-1.19.493-1.898.493zm.06-1.405c.379 0 .707-.099.986-.299.289-.199.508-.483.658-.851.159-.379.239-.822.239-1.33 0-.508-.08-.947-.239-1.315-.15-.379-.369-.668-.658-.867a1.652 1.652 0 0 0-.986-.299h-.12c-.368 0-.697.1-.986.299-.279.199-.498.488-.657.867-.16.368-.239.807-.239 1.315 0 .508.079.951.239 1.33.159.368.378.652.657.851.289.2.618.299.986.299h.12zm7.431 1.405c-.558 0-1.026-.115-1.405-.344a2.225 2.225 0 0 1-.852-.986c-.189-.418-.284-.902-.284-1.449v-4.842h1.719v4.587c0 .528.109.932.329 1.211.219.279.537.418.956.418h.119c.299 0 .573-.089.822-.269.259-.179.469-.428.628-.747.159-.329.239-.692.239-1.091v-4.109h1.718v7.471h-1.718v-1.225a2.464 2.464 0 0 1-.897 1.001 2.536 2.536 0 0 1-1.374.374zm5.787-7.621h1.688v1.554c.15-.518.414-.916.792-1.195.389-.289.847-.434 1.375-.434h.508v1.614h-.643c-.657 0-1.155.179-1.494.538-.339.349-.508.867-.508 1.554v3.84h-1.718v-7.471zm8.347 0h1.719v1.001c.179-.309.478-.578.896-.807a2.905 2.905 0 0 1 1.39-.343c.667 0 1.245.169 1.733.508.499.338.877.802 1.136 1.389.269.588.404 1.251.404 1.988 0 .737-.14 1.399-.419 1.987a3.26 3.26 0 0 1-1.165 1.39c-.499.339-1.081.508-1.749.508-.498 0-.951-.115-1.36-.344-.398-.229-.687-.498-.866-.807v3.99h-1.719v-10.46zm3.721 6.216c.349 0 .663-.099.942-.299.278-.199.498-.483.657-.851.159-.369.239-.812.239-1.33 0-.767-.174-1.37-.523-1.808-.339-.449-.777-.673-1.315-.673h-.119c-.329 0-.638.1-.927.299-.289.199-.523.488-.702.867-.17.368-.254.807-.254 1.315 0 .508.084.951.254 1.33.179.368.413.652.702.851.289.2.598.299.927.299h.119zm6.943 1.405c-.448 0-.862-.09-1.24-.269a2.293 2.293 0 0 1-.882-.777 2.074 2.074 0 0 1-.329-1.151c0-.528.125-.961.374-1.3a2.35 2.35 0 0 1 1.001-.777 4.208 4.208 0 0 1 1.36-.329l1.958-.164v-.209a1.55 1.55 0 0 0-.165-.732 1.106 1.106 0 0 0-.478-.479 1.372 1.372 0 0 0-.717-.179h-.12c-.368 0-.677.095-.926.284a1.004 1.004 0 0 0-.419.717h-1.718c.06-.707.373-1.285.941-1.733.568-.448 1.295-.672 2.182-.672.638 0 1.19.114 1.659.343.468.229.822.553 1.061.972.249.408.373.886.373 1.434v3.228c0 .747.025 1.295.075 1.643h-1.614a7.444 7.444 0 0 1-.075-1.031c-.199.349-.503.633-.911.852a2.897 2.897 0 0 1-1.39.329zm.419-1.405c.298 0 .587-.069.866-.209.279-.149.508-.349.688-.598.179-.259.269-.538.269-.836v-.449l-1.734.165a1.754 1.754 0 0 0-.896.313.83.83 0 0 0-.359.718c0 .259.1.473.299.642.199.17.448.254.747.254h.12zm7.863 1.405c-.997 0-1.774-.229-2.331-.687-.558-.469-.837-1.091-.837-1.868h1.748c.02.378.159.672.418.881.259.209.593.314 1.002.314h.119c.349 0 .633-.075.852-.224.219-.159.329-.364.329-.613a.679.679 0 0 0-.21-.523c-.139-.139-.363-.244-.672-.314l-1.031-.224c-.737-.169-1.3-.428-1.689-.777-.378-.358-.567-.837-.567-1.434 0-.459.124-.862.373-1.211a2.415 2.415 0 0 1 1.031-.807c.448-.189.957-.283 1.524-.283.957 0 1.699.229 2.227.687.528.448.792 1.056.792 1.823h-1.719c-.039-.349-.164-.628-.373-.837-.209-.209-.508-.314-.897-.314h-.119c-.329 0-.603.075-.822.224a.715.715 0 0 0-.314.613c0 .219.08.399.239.538.17.13.429.229.777.299l1.076.254c.678.149 1.191.403 1.539.762.359.359.538.842.538 1.45 0 .428-.119.816-.358 1.165-.24.349-.588.623-1.046.822-.449.189-.982.284-1.599.284zm7.07 0c-.996 0-1.773-.229-2.331-.687-.558-.469-.837-1.091-.837-1.868h1.749c.019.378.159.672.418.881.259.209.593.314 1.001.314h.12c.348 0 .632-.075.851-.224.22-.159.329-.364.329-.613a.682.682 0 0 0-.209-.523c-.139-.139-.364-.244-.672-.314l-1.032-.224c-.737-.169-1.3-.428-1.688-.777-.379-.358-.568-.837-.568-1.434 0-.459.125-.862.374-1.211a2.409 2.409 0 0 1 1.031-.807c.448-.189.956-.283 1.524-.283.956 0 1.698.229 2.226.687.528.448.792 1.056.792 1.823h-1.718c-.04-.349-.164-.628-.374-.837-.209-.209-.508-.314-.896-.314h-.12c-.328 0-.602.075-.822.224a.714.714 0 0 0-.313.613.68.68 0 0 0 .239.538c.169.13.428.229.777.299l1.076.254c.677.149 1.19.403 1.539.762.358.359.538.842.538 1.45 0 .428-.12.816-.359 1.165-.239.349-.588.623-1.046.822-.448.189-.981.284-1.599.284zm3.503-7.621h1.748l1.748 6.411h-.358l1.569-6.411h1.823l1.688 6.5-.403-.075 1.689-6.425h1.703l-2.212 7.471h-1.912l-1.539-5.797h.164l-1.494 5.797h-1.928l-2.286-7.471zm15.322 7.621c-.707 0-1.34-.164-1.898-.493a3.642 3.642 0 0 1-1.3-1.39c-.309-.588-.463-1.255-.463-2.002 0-.747.154-1.415.463-2.003a3.527 3.527 0 0 1 1.3-1.374c.558-.339 1.191-.508 1.898-.508.707 0 1.34.169 1.898.508a3.39 3.39 0 0 1 1.3 1.374c.319.588.478 1.256.478 2.003 0 .747-.159 1.414-.478 2.002a3.496 3.496 0 0 1-1.3 1.39c-.558.329-1.191.493-1.898.493zm.06-1.405c.378 0 .707-.099.986-.299.289-.199.508-.483.657-.851.16-.379.24-.822.24-1.33 0-.508-.08-.947-.24-1.315-.149-.379-.368-.668-.657-.867a1.655 1.655 0 0 0-.986-.299h-.12c-.368 0-.697.1-.986.299-.279.199-.498.488-.658.867-.159.368-.239.807-.239 1.315 0 .508.08.951.239 1.33.16.368.379.652.658.851.289.2.618.299.986.299h.12zm4.965-6.216h1.688v1.554c.15-.518.414-.916.792-1.195.389-.289.847-.434 1.375-.434h.508v1.614h-.642c-.658 0-1.156.179-1.495.538-.338.349-.508.867-.508 1.554v3.84h-1.718v-7.471zm8.085 7.621c-.667 0-1.245-.169-1.733-.508a3.343 3.343 0 0 1-1.136-1.39c-.269-.588-.403-1.25-.403-1.987 0-.737.134-1.4.403-1.988a3.362 3.362 0 0 1 1.181-1.389c.508-.339 1.096-.508 1.763-.508.498 0 .946.114 1.345.343.408.229.697.498.867.807v-3.99h1.718v10.46h-1.718v-1.001c-.17.309-.469.578-.897.807a2.847 2.847 0 0 1-1.39.344zm.419-1.405c.329 0 .637-.099.926-.299.289-.199.518-.483.688-.851.169-.379.254-.822.254-1.33 0-.508-.085-.947-.254-1.315-.17-.379-.399-.668-.688-.867a1.602 1.602 0 0 0-.926-.299h-.12c-.358 0-.677.1-.956.299-.269.199-.488.483-.658.852-.159.368-.239.807-.239 1.315 0 .777.175 1.389.523 1.838.349.438.792.657 1.33.657h.12zm6.674-3.347c0-.309.055-.543.164-.702.12-.17.314-.309.583-.419l.792-.328a7.03 7.03 0 0 0 .822-.404 1.51 1.51 0 0 0 .493-.478c.139-.209.209-.473.209-.792 0-.428-.134-.777-.403-1.046s-.653-.404-1.151-.404c-.468 0-.847.135-1.136.404-.279.269-.448.632-.508 1.091h-1.733c.02-.598.184-1.116.493-1.554a3.172 3.172 0 0 1 1.24-1.016 3.932 3.932 0 0 1 1.674-.359c.608 0 1.156.119 1.644.359.498.229.891.557 1.18.986.289.418.434.911.434 1.479 0 .707-.19 1.295-.568 1.763-.379.459-.887.822-1.524 1.091l-.509.224c-.149.06-.259.115-.328.165a.33.33 0 0 0-.135.194c-.02.08-.03.189-.03.329v1.121h-1.703v-1.704zm-.09 2.75h1.868v1.852h-1.868v-1.852z"/><rect width="361.622" height="43.901" x="83.42" y="410.558" fill="#2B99E2" rx="3.985"/><path fill="#fff" d="M231.821 431.934c0-3.395 2.088-5.675 5.388-5.675 2.55 0 4.383 1.53 4.734 3.89h-1.833c-.351-1.419-1.451-2.28-2.981-2.28-2.12 0-3.427 1.674-3.427 4.065 0 2.375 1.307 4.064 3.427 4.064 1.546 0 2.614-.861 2.965-2.279h1.833c-.351 2.359-2.152 3.889-4.718 3.889-3.3 0-5.388-2.247-5.388-5.674zm15.367 5.674c-2.487 0-4.161-1.674-4.161-4.176 0-2.487 1.674-4.176 4.161-4.176 2.486 0 4.16 1.689 4.16 4.176 0 2.502-1.674 4.176-4.16 4.176zm0-1.466c1.45 0 2.406-1.132 2.406-2.71s-.956-2.71-2.406-2.71c-1.451 0-2.391 1.132-2.391 2.71s.94 2.71 2.391 2.71zm9.848-6.886c1.753 0 3.283.94 3.283 3.762v4.494h-1.737v-4.399c0-1.546-.654-2.375-1.945-2.375-1.371 0-2.184 1.004-2.184 2.662v4.112h-1.721v-8.16h1.498l.191 1.067c.511-.637 1.292-1.163 2.615-1.163zm5.375 6.041v-4.431h-1.419v-1.514h1.419v-2.28h1.737v2.28h1.96v1.514h-1.96v4.256c0 .637.223.876.845.876h1.307v1.514h-1.658c-1.562 0-2.231-.733-2.231-2.215zm5.673-9.213c.59 0 1.052.446 1.052 1.036 0 .606-.462 1.036-1.052 1.036-.589 0-1.052-.43-1.052-1.036 0-.59.463-1.036 1.052-1.036zm-.86 3.268h1.721v8.16h-1.721v-8.16zm7.712-.096c1.753 0 3.284.94 3.284 3.762v4.494h-1.738v-4.399c0-1.546-.653-2.375-1.944-2.375-1.371 0-2.184 1.004-2.184 2.662v4.112h-1.722v-8.16h1.499l.191 1.067c.51-.637 1.291-1.163 2.614-1.163zm10.444.096h1.721v8.16h-1.514l-.191-1.036c-.51.622-1.26 1.132-2.519 1.132-1.737 0-3.219-.94-3.219-3.762v-4.494h1.721v4.319c0 1.594.638 2.439 1.897 2.439 1.307 0 2.104-1.02 2.104-2.71v-4.048zm3.115 4.096c0-2.534 1.61-4.192 3.969-4.192s3.984 1.498 4.032 3.889c0 .207-.016.43-.048.654h-6.152v.095c.08 1.403.924 2.311 2.279 2.311 1.052 0 1.817-.526 2.056-1.434h1.722c-.287 1.61-1.642 2.837-3.65 2.837-2.582 0-4.208-1.658-4.208-4.16zm1.865-.909h4.383c-.143-1.211-1.02-1.896-2.216-1.896-1.099 0-2.04.733-2.167 1.896z"/><mask id="m" fill="#fff"><path d="M58.515 479.365h411.432v48.886H58.515v-48.886z"/></mask><path fill="#374151" d="M58.515 480.361h411.432v-1.993H58.515v1.993z" mask="url(#m)"/><path fill="#A4A7B0" d="M168.38 497.545h3.417c.949 0 1.781.19 2.497.572a4.027 4.027 0 0 1 1.673 1.673c.4.725.6 1.604.6 2.636s-.195 1.916-.586 2.65a3.964 3.964 0 0 1-1.659 1.66c-.707.381-1.534.572-2.483.572h-3.459v-9.763zm3.278 8.27c.669 0 1.246-.116 1.729-.348a2.49 2.49 0 0 0 1.116-1.116c.26-.502.391-1.144.391-1.925 0-1.162-.284-2.017-.851-2.566-.567-.549-1.362-.823-2.385-.823h-1.604v6.778h1.604zm9.271 1.632c-.66 0-1.251-.153-1.771-.46a3.4 3.4 0 0 1-1.214-1.297c-.288-.549-.432-1.172-.432-1.869 0-.697.144-1.32.432-1.869a3.292 3.292 0 0 1 1.214-1.283c.52-.316 1.111-.474 1.771-.474.66 0 1.251.158 1.771.474.521.307.925.734 1.214 1.283.297.549.446 1.172.446 1.869 0 .697-.149 1.32-.446 1.869a3.27 3.27 0 0 1-1.214 1.297c-.52.307-1.111.46-1.771.46zm.056-1.311c.353 0 .66-.093.92-.279.27-.186.475-.451.614-.795.149-.353.223-.767.223-1.241 0-.474-.074-.883-.223-1.227-.139-.354-.344-.623-.614-.809a1.54 1.54 0 0 0-.92-.279h-.112a1.58 1.58 0 0 0-.92.279c-.261.186-.465.455-.614.809-.149.344-.223.753-.223 1.227 0 .474.074.888.223 1.241.149.344.353.609.614.795.269.186.576.279.92.279h.112zm4.634-5.802h1.604v1.004c.223-.353.516-.632.878-.836.372-.205.8-.307 1.284-.307.539 0 .99.107 1.352.32.372.214.651.517.837.907.186.381.279.828.279 1.339v4.547h-1.604v-4.31c0-.316-.046-.586-.139-.809a1.026 1.026 0 0 0-.419-.502c-.176-.121-.404-.181-.683-.181h-.112c-.297 0-.576.083-.836.251a1.763 1.763 0 0 0-.614.683 2.094 2.094 0 0 0-.223.976v3.892h-1.604v-6.974zm7.533.126h.488c.298 0 .516-.075.656-.223.139-.159.209-.377.209-.656v-.167h-.879v-1.869h1.869v2.106c0 .344-.074.651-.223.92-.149.27-.362.484-.641.642-.27.158-.586.237-.949.237h-.53v-.99zm6.212 6.848c-.539 0-.957-.145-1.255-.433-.288-.297-.432-.716-.432-1.255v-3.961h-1.479v-1.325h1.479v-2.259h1.604v2.259h1.604v1.325h-1.604v3.584c0 .27.046.451.139.544.093.093.274.14.544.14h1.13v1.381h-1.73zm5.882-9.763h1.604v3.793c.223-.353.516-.632.879-.836.372-.205.8-.307 1.283-.307.539 0 .99.107 1.353.32.372.214.651.517.837.907.186.381.279.828.279 1.339v4.547h-1.604v-4.31a2.1 2.1 0 0 0-.14-.809 1.024 1.024 0 0 0-.418-.502c-.177-.121-.405-.181-.684-.181h-.111c-.298 0-.577.083-.837.251a1.77 1.77 0 0 0-.614.683 2.107 2.107 0 0 0-.223.976v3.892h-1.604v-9.763zm9.722 9.902c-.419 0-.804-.084-1.158-.251a2.152 2.152 0 0 1-.823-.725 1.937 1.937 0 0 1-.306-1.074c0-.493.116-.897.348-1.213.242-.326.553-.568.935-.726a3.939 3.939 0 0 1 1.269-.307l1.827-.153v-.195c0-.261-.051-.488-.154-.684a1.033 1.033 0 0 0-.446-.446 1.282 1.282 0 0 0-.669-.167h-.112c-.344 0-.632.088-.865.265a.937.937 0 0 0-.39.669h-1.604c.056-.66.349-1.199.879-1.618.53-.418 1.208-.627 2.036-.627.595 0 1.111.107 1.548.32.437.214.767.517.99.907.233.381.349.828.349 1.339v3.012c0 .698.023 1.209.07 1.535h-1.507a7.003 7.003 0 0 1-.069-.963c-.186.326-.47.591-.851.795a2.695 2.695 0 0 1-1.297.307zm.39-1.311c.279 0 .549-.065.809-.195.261-.14.474-.326.642-.558.167-.242.251-.502.251-.781v-.418l-1.618.153a1.641 1.641 0 0 0-.837.293.772.772 0 0 0-.335.669c0 .242.093.442.279.6.186.158.419.237.698.237h.111zm3.981-5.802h1.688l2.05 6.039h-.265l2.036-6.039h1.646l-2.483 6.974h-2.19l-2.482-6.974zm10.799 7.113a3.332 3.332 0 0 1-1.646-.418 3.226 3.226 0 0 1-1.213-1.256c-.298-.548-.446-1.199-.446-1.952 0-.735.139-1.372.418-1.911a3.043 3.043 0 0 1 1.171-1.269 3.246 3.246 0 0 1 1.688-.446c.651 0 1.209.144 1.674.432.465.279.818.67 1.06 1.172.241.502.362 1.078.362 1.729 0 .195-.009.432-.028.711h-4.783c.027.391.125.73.292 1.018.177.279.396.498.656.656.26.149.525.223.795.223h.112c.344 0 .636-.088.878-.265.242-.177.395-.414.46-.711h1.59c-.148.697-.492 1.255-1.032 1.673-.539.41-1.208.614-2.008.614zm1.492-4.449c-.028-.483-.181-.851-.46-1.102a1.457 1.457 0 0 0-1.032-.39h-.112c-.399 0-.748.13-1.046.39-.297.251-.478.619-.544 1.102h3.194zm7.814 4.449a2.68 2.68 0 0 1-1.158-.251 2.142 2.142 0 0 1-.822-.725 1.93 1.93 0 0 1-.307-1.074c0-.493.116-.897.348-1.213.242-.326.554-.568.935-.726a3.939 3.939 0 0 1 1.269-.307l1.827-.153v-.195c0-.261-.051-.488-.153-.684a1.035 1.035 0 0 0-.447-.446 1.282 1.282 0 0 0-.669-.167h-.112c-.344 0-.632.088-.864.265a.935.935 0 0 0-.391.669h-1.604c.056-.66.349-1.199.879-1.618.53-.418 1.209-.627 2.036-.627.595 0 1.111.107 1.548.32.437.214.767.517.99.907.233.381.349.828.349 1.339v3.012c0 .698.023 1.209.07 1.535h-1.506a6.813 6.813 0 0 1-.07-.963c-.186.326-.47.591-.851.795a2.695 2.695 0 0 1-1.297.307zm.391-1.311c.278 0 .548-.065.808-.195.261-.14.475-.326.642-.558.167-.242.251-.502.251-.781v-.418l-1.618.153a1.641 1.641 0 0 0-.837.293.772.772 0 0 0-.334.669c0 .242.093.442.279.6.186.158.418.237.697.237h.112zm4.884-5.802h1.604v1.004c.223-.353.516-.632.878-.836.372-.205.8-.307 1.283-.307.54 0 .991.107 1.353.32.372.214.651.517.837.907.186.381.279.828.279 1.339v4.547h-1.604v-4.31c0-.316-.046-.586-.139-.809a1.026 1.026 0 0 0-.419-.502c-.176-.121-.404-.181-.683-.181h-.112c-.297 0-.576.083-.837.251a1.76 1.76 0 0 0-.613.683 2.094 2.094 0 0 0-.223.976v3.892h-1.604v-6.974zm12.765 7.113c-.418 0-.804-.084-1.157-.251a2.152 2.152 0 0 1-.823-.725 1.93 1.93 0 0 1-.307-1.074c0-.493.116-.897.349-1.213.242-.326.553-.568.934-.726a3.952 3.952 0 0 1 1.269-.307l1.828-.153v-.195c0-.261-.052-.488-.154-.684a1.033 1.033 0 0 0-.446-.446 1.283 1.283 0 0 0-.67-.167h-.111c-.344 0-.632.088-.865.265a.934.934 0 0 0-.39.669h-1.604c.055-.66.348-1.199.878-1.618.53-.418 1.209-.627 2.037-.627.595 0 1.111.107 1.548.32.437.214.767.517.99.907.232.381.349.828.349 1.339v3.012c0 .698.023 1.209.069 1.535h-1.506a7.132 7.132 0 0 1-.07-.963c-.186.326-.469.591-.85.795a2.7 2.7 0 0 1-1.298.307zm.391-1.311c.279 0 .549-.065.809-.195.26-.14.474-.326.641-.558.168-.242.252-.502.252-.781v-.418l-1.618.153a1.635 1.635 0 0 0-.837.293.772.772 0 0 0-.335.669c0 .242.093.442.279.6.186.158.418.237.697.237h.112zm7.841 1.311c-.66 0-1.246-.153-1.757-.46a3.137 3.137 0 0 1-1.172-1.283c-.279-.549-.418-1.176-.418-1.883 0-.707.139-1.334.418-1.883.279-.549.67-.976 1.172-1.283.511-.307 1.097-.46 1.757-.46.576 0 1.079.097 1.506.293.437.195.786.483 1.046.864.261.372.414.828.46 1.367h-1.603c-.056-.372-.205-.665-.447-.879-.232-.223-.534-.334-.906-.334h-.112c-.381 0-.697.107-.948.321a1.798 1.798 0 0 0-.558.836c-.121.344-.181.73-.181 1.158 0 .66.139 1.213.418 1.66.288.437.711.655 1.269.655h.112c.372 0 .674-.107.906-.321.242-.223.391-.52.447-.892h1.603c-.065.818-.367 1.446-.906 1.883-.53.427-1.232.641-2.106.641zm7.198 0c-.66 0-1.246-.153-1.757-.46a3.128 3.128 0 0 1-1.171-1.283c-.279-.549-.419-1.176-.419-1.883 0-.707.14-1.334.419-1.883a3.122 3.122 0 0 1 1.171-1.283c.511-.307 1.097-.46 1.757-.46.577 0 1.079.097 1.507.293a2.45 2.45 0 0 1 1.046.864c.26.372.413.828.46 1.367h-1.604c-.056-.372-.205-.665-.446-.879-.233-.223-.535-.334-.907-.334h-.111c-.382 0-.698.107-.949.321a1.798 1.798 0 0 0-.558.836c-.121.344-.181.73-.181 1.158 0 .66.14 1.213.418 1.66.289.437.712.655 1.27.655h.111c.372 0 .674-.107.907-.321.241-.223.39-.52.446-.892h1.604c-.065.818-.367 1.446-.907 1.883-.53.427-1.232.641-2.106.641zm7.255 0c-.661 0-1.251-.153-1.772-.46a3.406 3.406 0 0 1-1.213-1.297c-.288-.549-.432-1.172-.432-1.869 0-.697.144-1.32.432-1.869a3.297 3.297 0 0 1 1.213-1.283c.521-.316 1.111-.474 1.772-.474.66 0 1.25.158 1.771.474a3.16 3.16 0 0 1 1.213 1.283c.298.549.447 1.172.447 1.869 0 .697-.149 1.32-.447 1.869a3.26 3.26 0 0 1-1.213 1.297c-.521.307-1.111.46-1.771.46zm.055-1.311c.354 0 .661-.093.921-.279.27-.186.474-.451.614-.795.148-.353.223-.767.223-1.241 0-.474-.075-.883-.223-1.227-.14-.354-.344-.623-.614-.809a1.541 1.541 0 0 0-.921-.279h-.111c-.344 0-.651.093-.921.279-.26.186-.465.455-.613.809-.149.344-.223.753-.223 1.227 0 .474.074.888.223 1.241.148.344.353.609.613.795.27.186.577.279.921.279h.111zm6.936 1.311c-.521 0-.958-.107-1.311-.321a2.066 2.066 0 0 1-.795-.92c-.177-.391-.265-.842-.265-1.353v-4.519h1.604v4.282c0 .493.102.869.306 1.13.205.26.503.39.893.39h.112c.279 0 .534-.084.767-.251.241-.167.437-.4.585-.697.149-.307.224-.647.224-1.018v-3.836h1.604v6.974h-1.604v-1.144a2.304 2.304 0 0 1-.837.934c-.372.233-.8.349-1.283.349zm5.401-7.113h1.604v1.004c.223-.353.516-.632.878-.836.372-.205.8-.307 1.283-.307.54 0 .991.107 1.353.32.372.214.651.517.837.907.186.381.279.828.279 1.339v4.547h-1.604v-4.31c0-.316-.046-.586-.139-.809a1.026 1.026 0 0 0-.419-.502c-.176-.121-.404-.181-.683-.181h-.112c-.297 0-.576.083-.836.251a1.763 1.763 0 0 0-.614.683 2.094 2.094 0 0 0-.223.976v3.892h-1.604v-6.974zm10.211 6.974c-.54 0-.958-.145-1.256-.433-.288-.297-.432-.716-.432-1.255v-3.961h-1.478v-1.325h1.478v-2.259h1.604v2.259h1.604v1.325h-1.604v3.584c0 .27.046.451.139.544.093.093.275.14.544.14h1.13v1.381h-1.729zm4.078-4.296c0-.288.051-.507.153-.656.112-.158.293-.288.544-.39l.739-.307c.326-.139.581-.265.767-.376.186-.112.34-.261.46-.447.131-.195.196-.441.196-.739 0-.4-.126-.725-.377-.976s-.609-.377-1.074-.377c-.437 0-.79.126-1.06.377-.26.251-.418.59-.474 1.018h-1.618c.019-.558.172-1.041.461-1.451a2.96 2.96 0 0 1 1.157-.948 3.686 3.686 0 0 1 1.562-.335c.567 0 1.079.112 1.534.335.465.214.832.521 1.102.921.27.39.405.85.405 1.38 0 .66-.177 1.209-.53 1.646-.354.428-.828.767-1.423 1.018l-.474.209c-.14.056-.242.107-.307.154a.312.312 0 0 0-.126.181 1.367 1.367 0 0 0-.027.307v1.046h-1.59v-1.59zm-.084 2.566h1.743v1.73h-1.743v-1.73z"/><path fill="#DEDFE3" d="M318.928 507.447c-.837 0-1.544-.135-2.12-.404a3.012 3.012 0 0 1-1.311-1.158c-.298-.502-.46-1.102-.488-1.799h1.673c.019.576.233 1.032.642 1.367.418.334.986.502 1.702.502h.139c.558 0 .99-.126 1.297-.377.316-.251.474-.562.474-.934 0-.335-.097-.6-.293-.795-.195-.205-.525-.354-.99-.447l-1.66-.334c-.836-.177-1.464-.498-1.882-.963-.409-.464-.614-1.073-.614-1.827 0-.511.144-.985.432-1.422.289-.437.707-.786 1.256-1.046.548-.27 1.19-.405 1.924-.405.744 0 1.39.135 1.939.405.548.26.967.627 1.255 1.102.298.474.451 1.022.46 1.645h-1.673c-.037-.52-.233-.925-.586-1.213-.353-.298-.809-.446-1.367-.446h-.139a2.4 2.4 0 0 0-.963.181c-.279.112-.492.27-.641.474a1.114 1.114 0 0 0-.223.67c0 .344.102.613.306.809.205.195.521.334.949.418l1.506.293c.865.176 1.525.493 1.981.948.464.456.697 1.074.697 1.855 0 .567-.149 1.069-.446 1.506-.289.437-.712.781-1.27 1.032-.557.242-1.213.363-1.966.363zm5.13-7.113h1.604v6.974h-1.604v-6.974zm-.069-2.789h1.743v1.729h-1.743v-1.729zm6.106 12.831a4.477 4.477 0 0 1-1.659-.293c-.484-.186-.865-.446-1.144-.781a1.961 1.961 0 0 1-.46-1.158h1.604c.056.289.232.512.53.67.297.167.683.251 1.157.251h.098c.539 0 .972-.158 1.297-.474.335-.307.502-.767.502-1.381v-.934a2.047 2.047 0 0 1-.823.767 2.62 2.62 0 0 1-1.185.265 3 3 0 0 1-1.534-.405c-.456-.269-.823-.669-1.102-1.199-.279-.54-.419-1.19-.419-1.953 0-.762.135-1.408.405-1.938.279-.54.651-.944 1.116-1.214a3.008 3.008 0 0 1 1.534-.404c.437 0 .837.093 1.199.279.372.186.642.437.809.753v-.893h1.604v7.071c0 .54-.135 1.032-.404 1.479-.27.455-.675.818-1.214 1.087-.53.27-1.167.405-1.911.405zm.251-4.379c.298 0 .577-.089.837-.265.261-.186.465-.447.614-.781.149-.344.223-.744.223-1.2 0-.455-.074-.851-.223-1.185-.139-.344-.339-.605-.6-.781a1.352 1.352 0 0 0-.823-.279h-.111c-.316 0-.605.088-.865.265-.26.167-.465.418-.614.753-.148.335-.223.744-.223 1.227 0 .725.154 1.283.461 1.674.316.381.72.572 1.213.572h.111zm4.963-5.663h1.604v1.004c.223-.353.516-.632.879-.836a2.613 2.613 0 0 1 1.283-.307c.539 0 .99.107 1.353.32.371.214.65.517.836.907.186.381.279.828.279 1.339v4.547h-1.604v-4.31c0-.316-.046-.586-.139-.809a1.024 1.024 0 0 0-.418-.502c-.177-.121-.405-.181-.684-.181h-.111c-.298 0-.577.083-.837.251a1.763 1.763 0 0 0-.614.683 2.094 2.094 0 0 0-.223.976v3.892h-1.604v-6.974zm13.184 7.113c-.52 0-.957-.107-1.311-.321a2.079 2.079 0 0 1-.795-.92c-.176-.391-.265-.842-.265-1.353v-4.519h1.604v4.282c0 .493.102.869.307 1.13.205.26.502.39.893.39h.111c.279 0 .535-.084.767-.251.242-.167.437-.4.586-.697.149-.307.223-.647.223-1.018v-3.836h1.604v6.974h-1.604v-1.144a2.304 2.304 0 0 1-.837.934 2.364 2.364 0 0 1-1.283.349zm5.401-7.113h1.604v.935c.168-.289.447-.54.837-.754.4-.213.832-.32 1.297-.32.623 0 1.162.158 1.618.474a2.98 2.98 0 0 1 1.06 1.297c.251.549.376 1.167.376 1.855s-.13 1.306-.39 1.855a3.045 3.045 0 0 1-1.088 1.297c-.465.316-1.009.474-1.632.474-.465 0-.888-.107-1.269-.321-.372-.214-.641-.465-.809-.753v3.724h-1.604v-9.763zm3.473 5.802c.326 0 .618-.093.879-.279.26-.186.465-.451.613-.795.149-.344.224-.758.224-1.241 0-.716-.163-1.279-.489-1.688-.316-.418-.725-.627-1.227-.627h-.111c-.307 0-.596.093-.865.279-.27.186-.488.455-.656.809-.158.344-.237.753-.237 1.227 0 .474.079.888.237 1.241.168.344.386.609.656.795.269.186.558.279.865.279h.111z"/><defs><linearGradient id="a" x1="293.223" x2="293.223" y1="557.727" y2="1025.85" gradientUnits="userSpaceOnUse"><stop stop-color="#BBDDE5" stop-opacity="0"/><stop offset="1" stop-color="#BBDDE5" stop-opacity=".5"/></linearGradient><linearGradient id="c" x1="619.025" x2="619.025" y1="116.369" y2="176.394" gradientUnits="userSpaceOnUse"><stop stop-color="#401DA7"/><stop offset="1" stop-color="#190B41"/></linearGradient><linearGradient id="f" x1="616.682" x2="603.752" y1="424.714" y2="462.914" gradientUnits="userSpaceOnUse"><stop stop-color="#114A8B"/><stop offset="1" stop-color="#0669BC"/></linearGradient><linearGradient id="g" x1="620.723" x2="617.732" y1="442.516" y2="443.528" gradientUnits="userSpaceOnUse"><stop stop-opacity=".3"/><stop offset=".071" stop-opacity=".2"/><stop offset=".321" stop-opacity=".1"/><stop offset=".623" stop-opacity=".05"/><stop offset="1" stop-opacity="0"/></linearGradient><linearGradient id="h" x1="619.077" x2="633.271" y1="423.6" y2="461.415" gradientUnits="userSpaceOnUse"><stop stop-color="#3CCBF4"/><stop offset="1" stop-color="#2892DF"/></linearGradient><linearGradient id="i" x1="260.728" x2="242.417" y1="119.883" y2="173.98" gradientUnits="userSpaceOnUse"><stop stop-color="#114A8B"/><stop offset="1" stop-color="#0669BC"/></linearGradient><linearGradient id="j" x1="266.45" x2="262.214" y1="145.093" y2="146.526" gradientUnits="userSpaceOnUse"><stop stop-opacity=".3"/><stop offset=".071" stop-opacity=".2"/><stop offset=".321" stop-opacity=".1"/><stop offset=".623" stop-opacity=".05"/><stop offset="1" stop-opacity="0"/></linearGradient><linearGradient id="k" x1="264.119" x2="284.219" y1="118.305" y2="171.857" gradientUnits="userSpaceOnUse"><stop stop-color="#3CCBF4"/><stop offset="1" stop-color="#2892DF"/></linearGradient><clipPath id="b"><path fill="#fff" d="M588.938 116.293h60.256v60.175h-60.256z"/></clipPath><clipPath id="d"><path fill="#fff" d="M588.938 263.994h60.124v60.124h-60.124z"/></clipPath><clipPath id="e"><path fill="#fff" d="M588.947 411.392h60.159v60.416h-60.159z"/></clipPath><clipPath id="l"><path fill="#fff" d="M95.702 283.902h15.939v15.939H95.702z"/></clipPath></defs></svg>