<svg xmlns="http://www.w3.org/2000/svg" width="24" height="24" fill="none" id="svg893616010_733"><g clip-path="url(#svg893616010_733_a)"><path fill-rule="evenodd" clip-rule="evenodd" d="M2.382 3.898a6.056 6.056 0 0 1 8.612 0l.002.002 1.02 1.032 1.01-1.02a6.03 6.03 0 0 1 8.595 0 6.152 6.152 0 0 1 0 8.655c-1.5 1.51-2.997 3.022-4.494 4.533a4780.09 4780.09 0 0 1-4.493 4.534.9.9 0 0 1-1.28-.001L2.38 12.555v-.001a6.152 6.152 0 0 1 0-8.654l.003-.002Zm1.276 1.27a4.352 4.352 0 0 0 .002 6.122l8.336 8.431 3.853-3.888a7073.51 7073.51 0 0 1 4.493-4.533 4.352 4.352 0 0 0 0-6.122 4.23 4.23 0 0 0-6.037 0l-1.648 1.666a.9.9 0 0 1-1.28 0L9.72 5.17a4.257 4.257 0 0 0-6.061-.001Z" fill="#F4E28D"></path></g><defs><clipPath id="svg893616010_733_a"><path fill="#fff" d="M0 0h24v24H0z"></path></clipPath></defs></svg>