<svg xmlns="http://www.w3.org/2000/svg" width="401" height="400" fill="none" id="svg-1549718402_1925"><g clip-path="url(#svg-1549718402_1925_a)"><rect x=".616" y=".504" width="400.703" height="400.702" rx="80.544" fill="#fff"></rect><path d="M154.347 69.047h82.787l-85.941 254.632a13.196 13.196 0 0 1-12.505 8.979H74.26a13.182 13.182 0 0 1-13.035-11.226 13.177 13.177 0 0 1 .546-6.165L141.84 78.025a13.198 13.198 0 0 1 12.508-8.979Z" fill="url(#svg-1549718402_1925_b)"></path><path d="M274.651 239.838h-131.28a6.078 6.078 0 0 0-5.933 7.417 6.08 6.08 0 0 0 1.784 3.104l84.357 78.736a13.26 13.26 0 0 0 9.049 3.564h74.335l-32.312-92.821Z" fill="#0078D4"></path><path d="M154.354 69.047a13.091 13.091 0 0 0-12.537 9.154l-79.94 236.85a13.16 13.16 0 0 0 6.348 16.139 13.15 13.15 0 0 0 6.077 1.468h66.091a14.121 14.121 0 0 0 10.842-9.22l15.941-46.983 56.944 53.113a13.47 13.47 0 0 0 8.477 3.09h74.059l-32.481-92.821-94.688.023 57.952-170.813h-83.085Z" fill="url(#svg-1549718402_1925_c)"></path><path d="M260.088 78.012a13.177 13.177 0 0 0-12.489-8.966h-92.264a13.183 13.183 0 0 1 12.489 8.966l80.071 237.25a13.184 13.184 0 0 1-12.489 17.398h92.268a13.172 13.172 0 0 0 10.706-5.496 13.186 13.186 0 0 0 1.78-11.902l-80.072-237.25Z" fill="url(#svg-1549718402_1925_d)"></path></g><defs><linearGradient id="svg-1549718402_1925_b" x1="184.52" y1="88.581" x2="98.545" y2="342.575" gradientUnits="userSpaceOnUse"><stop stop-color="#114A8B"></stop><stop offset="1" stop-color="#0669BC"></stop></linearGradient><linearGradient id="svg-1549718402_1925_c" x1="211.384" y1="206.949" x2="191.496" y2="213.674" gradientUnits="userSpaceOnUse"><stop stop-opacity=".3"></stop><stop offset=".071" stop-opacity=".2"></stop><stop offset=".321" stop-opacity=".1"></stop><stop offset=".623" stop-opacity=".05"></stop><stop offset="1" stop-opacity="0"></stop></linearGradient><linearGradient id="svg-1549718402_1925_d" x1="200.442" y1="81.172" x2="294.817" y2="332.606" gradientUnits="userSpaceOnUse"><stop stop-color="#3CCBF4"></stop><stop offset="1" stop-color="#2892DF"></stop></linearGradient><clipPath id="svg-1549718402_1925_a"><path fill="#fff" transform="translate(.108)" d="M0 0h400v400H0z"></path></clipPath></defs></svg>