<svg xmlns="http://www.w3.org/2000/svg" width="25" height="25" fill="none" id="svg566285694_1670"><path d="M22.952 6.626a12.248 12.248 0 0 0-4.477-4.476C16.591 1.05 14.533.5 12.301.5s-4.29.55-6.174 1.65A12.246 12.246 0 0 0 1.65 6.626C.55 8.511 0 10.57 0 12.8c0 2.68.782 5.091 2.347 7.232 1.564 2.14 3.585 3.622 6.062 4.444.288.054.502.016.64-.112a.626.626 0 0 0 .209-.48l-.008-.865a131.45 131.45 0 0 1-.009-1.425l-.368.064a4.69 4.69 0 0 1-.889.056 6.77 6.77 0 0 1-1.113-.112 2.487 2.487 0 0 1-1.073-.48 2.036 2.036 0 0 1-.705-.985l-.16-.369a4.001 4.001 0 0 0-.504-.817c-.23-.299-.462-.501-.697-.608l-.112-.08a1.176 1.176 0 0 1-.208-.193.88.88 0 0 1-.144-.224c-.032-.075-.006-.136.08-.185.085-.048.24-.071.464-.071l.32.048c.214.042.478.17.793.384.315.214.574.491.777.833.246.438.542.771.889 1 .347.23.697.345 1.049.345s.656-.027.913-.08a3.14 3.14 0 0 0 .72-.24c.097-.716.358-1.266.785-1.65a10.97 10.97 0 0 1-1.641-.288 6.538 6.538 0 0 1-1.506-.625 4.312 4.312 0 0 1-1.29-1.073c-.34-.427-.621-.988-.84-1.682-.219-.694-.328-1.495-.328-2.402 0-1.293.422-2.392 1.265-3.3-.395-.972-.358-2.06.112-3.267.31-.096.769-.024 1.378.216.608.24 1.054.446 1.337.617.283.17.51.315.68.432a11.373 11.373 0 0 1 3.076-.416c1.057 0 2.082.139 3.075.416l.609-.384a8.62 8.62 0 0 1 1.473-.705c.566-.213.999-.272 1.298-.176.48 1.207.523 2.296.128 3.267.843.908 1.265 2.008 1.265 3.3 0 .907-.11 1.71-.328 2.41-.219.7-.502 1.26-.848 1.682-.348.422-.78.777-1.298 1.065a6.55 6.55 0 0 1-1.506.625c-.486.128-1.033.224-1.641.288.555.48.832 1.239.832 2.274v3.38a.64.64 0 0 0 .2.48c.134.128.345.165.633.112 2.478-.822 4.498-2.304 6.063-4.445 1.564-2.14 2.346-4.55 2.346-7.231 0-2.231-.55-4.289-1.65-6.174Z" fill="#262930"></path></svg>