<svg xmlns="http://www.w3.org/2000/svg" width="46" height="46" fill="none" id="svg-1037604492_2179"><g clip-path="url(#svg-1037604492_2179_a)"><rect x=".2" y=".014" width="45" height="45" rx="9.045" fill="#fff"></rect><path fill-rule="evenodd" clip-rule="evenodd" d="M39.558 21.168c.012-.136.017-.273.017-.41 0-4.968-7.555-8.995-16.875-8.995S5.825 15.79 5.825 20.758c0 .137.006.274.018.41a4.887 4.887 0 0 0 0 .82 4.887 4.887 0 0 0 0 .82 4.889 4.889 0 0 0 0 .821 4.889 4.889 0 0 0 0 .82 4.892 4.892 0 0 0 0 .82 4.892 4.892 0 0 0 0 .821 4.89 4.89 0 0 0-.018.41c0 4.968 7.556 8.995 16.875 8.995 9.32 0 16.875-4.027 16.875-8.995 0-.137-.005-.274-.017-.41a4.906 4.906 0 0 0 0-.82 4.904 4.904 0 0 0 0-.82 4.904 4.904 0 0 0 0-.821 4.906 4.906 0 0 0 0-.82 4.906 4.906 0 0 0 0-.82 4.908 4.908 0 0 0 0-.821Z" fill="#111827"></path><path d="M39.235 20.766c0 2.3-1.752 4.46-4.762 6.066-2.995 1.599-7.157 2.598-11.772 2.598-4.616 0-8.777-1-11.773-2.598-3.01-1.605-4.762-3.766-4.762-6.066 0-2.299 1.752-4.46 4.762-6.066 2.996-1.598 7.157-2.597 11.773-2.597 4.615 0 8.776 1 11.772 2.597 3.01 1.606 4.762 3.767 4.762 6.066Z" fill="#fff" stroke="#111827" stroke-width=".667"></path><path fill-rule="evenodd" clip-rule="evenodd" d="M35.267 16.548c.008-.101.013-.203.013-.306 0-3.705-5.632-6.709-12.58-6.709-6.947 0-12.58 3.004-12.58 6.71 0 .102.005.204.014.305a3.661 3.661 0 0 0 0 .612 3.662 3.662 0 0 0 0 .612 3.661 3.661 0 0 0 0 .612 3.661 3.661 0 0 0 0 .612 3.661 3.661 0 0 0 0 .612 3.661 3.661 0 0 0 0 .612 3.663 3.663 0 0 0-.013.306c0 3.705 5.632 6.708 12.58 6.708 6.947 0 12.579-3.003 12.579-6.708 0-.103-.005-.205-.013-.306a3.704 3.704 0 0 0 0-.612 3.709 3.709 0 0 0 0-.612 3.705 3.705 0 0 0 0-.612 3.705 3.705 0 0 0 0-.612 3.704 3.704 0 0 0 0-.612 3.705 3.705 0 0 0 0-.612Z" fill="#111827"></path><path d="M34.939 16.243c0 1.666-1.272 3.253-3.504 4.443-2.218 1.183-5.306 1.925-8.735 1.925-3.43 0-6.517-.742-8.735-1.925-2.233-1.19-3.504-2.777-3.504-4.443 0-1.666 1.271-3.253 3.504-4.444 2.218-1.183 5.306-1.925 8.735-1.925 3.43 0 6.517.742 8.735 1.925 2.232 1.191 3.504 2.778 3.504 4.444Z" fill="#fff" stroke="#111827" stroke-width=".667"></path></g><defs><clipPath id="svg-1037604492_2179_a"><path fill="#fff" transform="translate(.2 .014)" d="M0 0h45v45H0z"></path></clipPath></defs></svg>