<svg xmlns="http://www.w3.org/2000/svg" width="218" height="70" fill="none" id="svg1550780107_3774"><g clip-path="url(#svg1550780107_3774_a)" fill-rule="evenodd" clip-rule="evenodd" fill="#181C1F"><path d="M89.709 25.915c2.135 0 3.976.805 5.486 2.459 1.477 1.62 2.245 3.574 2.245 5.865 0 2.295-.761 4.257-2.245 5.878-1.512 1.65-3.353 2.454-5.486 2.454-2.129 0-3.967-.807-5.474-2.454-1.485-1.62-2.245-3.583-2.245-5.878 0-2.291.765-4.246 2.245-5.865 1.505-1.65 3.344-2.46 5.474-2.46Zm19.46 6.298c.273.21.535.498.714.693.984 1.08 1.479 2.387 1.479 3.91 0 1.543-.535 2.853-1.529 3.943-.86.939-1.92 1.461-3.117 1.636l-.023.004h-5.268V26.13h4.853c.99 0 1.864.364 2.567 1.132a3.847 3.847 0 0 1 1.041 2.675c0 .862-.244 1.627-.717 2.277Zm10.243 1.998c-.959-.344-1.861-.866-2.577-1.651-.684-.747-1.031-1.658-1.031-2.714 0-1.065.379-1.971 1.062-2.727.72-.794 1.613-1.175 2.634-1.175 1.033 0 1.924.405 2.659 1.198.44.475.721 1.093.903 1.732l.098.332-2.22.947-.122-.356c-.087-.26-.28-.803-.458-1.002-.239-.267-.516-.429-.86-.429-.336 0-.609.16-.844.417-.269.293-.381.651-.381 1.063 0 .427.123.787.393 1.093.364.381.83.676 1.285.911a7.256 7.256 0 0 1 2.957 1.938c.921 1.002 1.412 2.208 1.412 3.63 0 1.418-.482 2.629-1.397 3.628-.942 1.026-2.096 1.525-3.425 1.525-1.346 0-2.498-.523-3.448-1.568-.774-.85-1.2-1.908-1.358-3.088l-.042-.303 2.394-.944.045.478c.072.766.263 1.676.78 2.239.455.494.984.754 1.629.754.659 0 1.203-.273 1.667-.78.491-.536.714-1.184.714-1.94 0-.745-.208-1.397-.696-1.924a5.584 5.584 0 0 0-1.773-1.284Zm8.922 8.188h2.475V26.13h-2.475V42.4Zm10.393-16.27c2.146 0 4.221.597 5.765 2.3 1.462 1.612 2.211 3.56 2.211 5.832 0 2.297-.766 4.267-2.248 5.894-1.532 1.68-3.612 2.244-5.728 2.244h-3.342V26.13h3.342Zm12.06 16.27h2.473V26.13h-2.473V42.4Zm12.253-11.527a2206.69 2206.69 0 0 1-3.872 11.527h-2.597l5.462-16.27h2.03l5.385 16.27h-2.585c-1.706-5.149-2.424-7.294-3.823-11.527Zm19.49 6.862V26.128H185V42.4h-2.491l-7.36-11.292V42.4h-2.473V26.13h2.286l7.568 11.605Zm-92.821-9.368c-1.446 0-2.663.589-3.682 1.709-1.052 1.151-1.557 2.537-1.557 4.164 0 1.629.501 3.025 1.556 4.177 1.021 1.117 2.237 1.7 3.683 1.7 1.45 0 2.67-.58 3.693-1.7 1.056-1.152 1.556-2.548 1.556-4.177 0-1.627-.505-3.013-1.556-4.164-1.022-1.123-2.242-1.709-3.693-1.709Zm14.187.195v2.66h2.501c.243-.031.495-.113.672-.31l.005-.004c.246-.262.33-.604.33-.971 0-.387-.104-.715-.354-.987-.217-.239-.471-.388-.783-.388h-2.371Zm0 5.103v6.292h2.242c.756 0 1.382-.318 1.913-.898.566-.621.821-1.369.821-2.242 0-.877-.255-1.627-.821-2.251-.531-.58-1.157-.9-1.913-.9h-2.242Zm33.959-5.059v11.329h.861c1.443 0 2.852-.367 3.908-1.483 1.059-1.161 1.568-2.555 1.568-4.19 0-1.637-.517-3.028-1.561-4.183-1.063-1.114-2.478-1.473-3.915-1.473h-.861ZM53.886 13.803c11.399.358 20.53 9.711 20.53 21.197 0 11.486-9.131 20.84-20.53 21.197v-7.64c7.181-.354 12.895-6.288 12.895-13.557s-5.714-13.203-12.895-13.556v-7.641Zm-1.315 42.396C41.153 55.862 32 46.5 32 35c0-11.5 9.153-20.862 20.571-21.199v7.64c-7.2.333-12.936 6.276-12.936 13.559 0 7.283 5.736 13.226 12.936 13.559v7.64Z"></path><path d="m42.939 28.555 4.896 3.44a6.137 6.137 0 0 0-.78 3.005c0 1.078.277 2.092.763 2.974l-4.898 3.44A12.08 12.08 0 0 1 41.09 35c0-2.368.677-4.578 1.849-6.445Zm20.556 12.86-4.897-3.441A6.142 6.142 0 0 0 59.36 35a6.137 6.137 0 0 0-.78-3.005l4.896-3.44A12.08 12.08 0 0 1 65.327 35c0 2.356-.67 4.554-1.832 6.415Zm-9.64-18.529a12.094 12.094 0 0 1 8.875 4.61l-4.897 3.44a6.14 6.14 0 0 0-3.979-2.062v-5.988Zm-1.294 0v5.988a6.138 6.138 0 0 0-3.978 2.063l-4.897-3.442a12.094 12.094 0 0 1 8.875-4.609Zm0 24.228a12.095 12.095 0 0 1-8.896-4.637l4.895-3.44a6.137 6.137 0 0 0 4.001 2.088v5.989Zm1.293 0v-5.989a6.137 6.137 0 0 0 4.001-2.089l4.896 3.44a12.095 12.095 0 0 1-8.897 4.638Z"></path></g><defs><clipPath id="svg1550780107_3774_a"><path fill="#fff" transform="translate(32 13.801)" d="M0 0h153v42.398H0z"></path></clipPath></defs></svg>