<svg xmlns="http://www.w3.org/2000/svg" width="528" height="588" fill="none"><path fill="url(#a)" d="M29.906 557.727H556.54v468.119H29.906z" transform="rotate(-90 29.906 557.727)"/><g stroke="#EAEBEE" stroke-width="1.297" opacity=".4"><path d="M18.691 1.48h40.472v58.516H.65V19.523C.649 9.56 8.727 1.481 18.69 1.481zM0 30.738h59.812M29.906.832v59.812M59.163 1.481h58.515v58.515H59.163zm-.648 29.257h59.812M88.42.832v59.812m29.259-59.163h58.515v58.515h-58.515zm-.649 29.257h59.812M146.937.832v59.812"/><path d="M176.194 1.481h58.515v58.515h-58.515zm-.649 29.257h59.812M205.451.832v59.812"/><path d="M234.708 1.481h58.515v58.515h-58.515zm-.648 29.257h59.812M263.966.832v59.812m29.257-59.163h58.515v58.515h-58.515zm-.649 29.257h59.812M322.48.832v59.812m29.258-59.163h58.515v58.515h-58.515zm-.648 29.257h59.812M380.995.832v59.812m29.258-59.163h58.515v58.515h-58.515zm-.649 29.257h59.813M439.511.832v59.812"/><path d="M468.768 1.48h40.472c9.965 0 18.043 8.079 18.043 18.043v40.473h-58.515V1.48zm-.649 29.258h59.812M498.025.832v59.812M.649 59.996h58.515v58.515H.649zM0 89.253h59.812M29.906 59.347v59.812"/><path d="M59.163 59.996h58.515v58.515H59.163zm-.648 29.257h59.812M88.42 59.347v59.812m29.259-59.163h58.515v58.515h-58.515zm-.649 29.257h59.812m-29.905-29.906v59.812"/><path d="M176.194 59.996h58.515v58.515h-58.515zm-.649 29.257h59.812m-29.906-29.906v59.812"/><path d="M234.708 59.996h58.515v58.515h-58.515zm-.648 29.257h59.812m-29.906-29.906v59.812m29.257-59.163h58.515v58.515h-58.515zm-.649 29.257h59.812M322.48 59.347v59.812m29.258-59.163h58.515v58.515h-58.515zm-.648 29.257h59.812m-29.907-29.906v59.812m29.258-59.163h58.515v58.515h-58.515zm-.649 29.257h59.813m-29.906-29.906v59.812m29.257-59.163h58.515v58.515h-58.515zm-.649 29.257h59.812m-29.906-29.906v59.812M.649 118.511h58.515v58.515H.649zM0 147.768h59.812m-29.906-29.906v59.812"/><path d="M59.163 118.511h58.515v58.515H59.163zm-.648 29.257h59.812M88.42 117.862v59.812m29.259-59.163h58.515v58.515h-58.515zm-.649 29.257h59.812m-29.905-29.906v59.812"/><path d="M176.194 118.511h58.515v58.515h-58.515zm-.649 29.257h59.812m-29.906-29.906v59.812"/><path d="M234.708 118.511h58.515v58.515h-58.515zm-.648 29.257h59.812m-29.906-29.906v59.812m29.257-59.163h58.515v58.515h-58.515zm-.649 29.257h59.812m-29.906-29.906v59.812m29.258-59.163h58.515v58.515h-58.515zm-.648 29.257h59.812m-29.907-29.906v59.812m29.258-59.163h58.515v58.515h-58.515zm-.649 29.257h59.813m-29.906-29.906v59.812m29.257-59.163h58.515v58.515h-58.515zm-.649 29.257h59.812m-29.906-29.906v59.812M.649 177.026h58.515v58.515H.649zM0 206.283h59.812m-29.906-29.906v59.812"/><path d="M59.163 177.026h58.515v58.515H59.163zm-.648 29.257h59.812M88.42 176.377v59.812m29.259-59.163h58.515v58.515h-58.515zm-.649 29.257h59.812m-29.905-29.906v59.812"/><path d="M176.194 177.026h58.515v58.515h-58.515zm-.649 29.257h59.812m-29.906-29.906v59.812"/><path d="M234.708 177.026h58.515v58.515h-58.515zm-.648 29.257h59.812m-29.906-29.906v59.812m29.257-59.163h58.515v58.515h-58.515zm-.649 29.257h59.812m-29.906-29.906v59.812m29.258-59.163h58.515v58.515h-58.515zm-.648 29.257h59.812m-29.907-29.906v59.812m29.258-59.163h58.515v58.515h-58.515zm-.649 29.257h59.813m-29.906-29.906v59.812m29.257-59.163h58.515v58.515h-58.515zm-.649 29.257h59.812m-29.906-29.906v59.812M.649 235.54h58.515v58.515H.649zM0 264.798h59.812m-29.906-29.906v59.812"/><path d="M59.163 235.54h58.515v58.515H59.163zm-.648 29.258h59.812M88.42 234.892v59.812m29.259-59.164h58.515v58.515h-58.515zm-.649 29.258h59.812m-29.905-29.906v59.812"/><path d="M176.194 235.54h58.515v58.515h-58.515zm-.649 29.258h59.812m-29.906-29.906v59.812"/><path d="M234.708 235.54h58.515v58.515h-58.515zm-.648 29.258h59.812m-29.906-29.906v59.812m29.257-59.164h58.515v58.515h-58.515zm-.649 29.258h59.812m-29.906-29.906v59.812m29.258-59.164h58.515v58.515h-58.515zm-.648 29.258h59.812m-29.907-29.906v59.812m29.258-59.164h58.515v58.515h-58.515zm-.649 29.258h59.813m-29.906-29.906v59.812m29.257-59.164h58.515v58.515h-58.515zm-.649 29.258h59.812m-29.906-29.906v59.812M.649 294.055h58.515v58.515H.649zM0 323.313h59.812m-29.906-29.906v59.812"/><path d="M59.163 294.055h58.515v58.515H59.163zm-.648 29.258h59.812M88.42 293.407v59.812m29.259-59.164h58.515v58.515h-58.515zm-.649 29.258h59.812m-29.905-29.906v59.812"/><path d="M176.194 294.055h58.515v58.515h-58.515zm-.649 29.258h59.812m-29.906-29.906v59.812m29.258-59.164h58.515v58.515h-58.515zm-.648 29.258h59.812m-29.906-29.906v59.812m29.257-59.164h58.515v58.515h-58.515zm-.649 29.258h59.812m-29.906-29.906v59.812"/><path d="M351.738 294.055h58.515v58.515h-58.515zm-.648 29.258h59.812m-29.907-29.906v59.812m29.259-59.164h58.515v58.515h-58.515zm-.649 29.258h59.813m-29.906-29.906v59.812m29.257-59.164h58.515v58.515h-58.515zm-.649 29.258h59.812m-29.906-29.906v59.812M.649 352.571h58.515v58.515H.649zM0 381.828h59.812m-29.906-29.906v59.812"/><path d="M59.163 352.571h58.515v58.515H59.163zm-.648 29.257h59.812M88.42 351.922v59.812m29.259-59.163h58.515v58.515h-58.515zm-.649 29.257h59.812m-29.905-29.906v59.812"/><path d="M176.194 352.571h58.515v58.515h-58.515zm-.649 29.257h59.812m-29.906-29.906v59.812m29.258-59.163h58.515v58.515h-58.515zm-.648 29.257h59.812m-29.906-29.906v59.812m29.257-59.163h58.515v58.515h-58.515zm-.649 29.257h59.812m-29.906-29.906v59.812"/><path d="M351.738 352.571h58.515v58.515h-58.515zm-.648 29.257h59.812m-29.907-29.906v59.812m29.259-59.163h58.515v58.515h-58.515zm-.649 29.257h59.813m-29.906-29.906v59.812m29.257-59.163h58.515v58.515h-58.515zm-.649 29.257h59.812m-29.906-29.906v59.812M.649 411.086h58.515v58.515H.649zM0 440.343h59.812m-29.906-29.906v59.813"/><path d="M59.163 411.086h58.515v58.515H59.163zm-.648 29.257h59.812M88.42 410.437v59.813m29.259-59.164h58.515v58.515h-58.515zm-.649 29.257h59.812m-29.905-29.906v59.813"/><path d="M176.194 411.086h58.515v58.515h-58.515zm-.649 29.257h59.812m-29.906-29.906v59.813"/><path d="M234.708 411.086h58.515v58.515h-58.515zm-.648 29.257h59.812m-29.906-29.906v59.813m29.257-59.164h58.515v58.515h-58.515zm-.649 29.257h59.812m-29.906-29.906v59.813m29.258-59.164h58.515v58.515h-58.515zm-.648 29.257h59.812m-29.907-29.906v59.813m29.258-59.164h58.515v58.515h-58.515zm-.649 29.257h59.813m-29.906-29.906v59.813m29.257-59.164h58.515v58.515h-58.515zm-.649 29.257h59.812m-29.906-29.906v59.813M.649 469.601h58.515v58.515H.649zM0 498.858h59.812m-29.906-29.906v59.812"/><path d="M59.163 469.601h58.515v58.515H59.163zm-.648 29.257h59.812M88.42 468.952v59.812m29.259-59.163h58.515v58.515h-58.515zm-.649 29.257h59.812m-29.905-29.906v59.812"/><path d="M176.194 469.601h58.515v58.515h-58.515zm-.649 29.257h59.812m-29.906-29.906v59.812"/><path d="M234.708 469.601h58.515v58.515h-58.515zm-.648 29.257h59.812m-29.906-29.906v59.812m29.257-59.163h58.515v58.515h-58.515zm-.649 29.257h59.812m-29.906-29.906v59.812m29.258-59.163h58.515v58.515h-58.515zm-.648 29.257h59.812m-29.907-29.906v59.812m29.258-59.163h58.515v58.515h-58.515zm-.649 29.257h59.813m-29.906-29.906v59.812m29.257-59.163h58.515v58.515h-58.515zm-.649 29.257h59.812m-29.906-29.906v59.812M.649 528.116h58.514v58.515H18.691c-9.964 0-18.042-8.078-18.042-18.043v-40.472zM0 557.373h59.812m-29.906-29.906v59.812"/><path d="M59.163 528.116h58.515v58.515H59.163zm-.648 29.257h59.812M88.42 527.467v59.812m29.259-59.163h58.515v58.515h-58.515zm-.649 29.257h59.812m-29.905-29.906v59.812"/><path d="M176.194 528.116h58.515v58.515h-58.515zm-.649 29.257h59.812m-29.906-29.906v59.812"/><path d="M234.708 528.116h58.515v58.515h-58.515zm-.648 29.257h59.812m-29.906-29.906v59.812m29.257-59.163h58.515v58.515h-58.515zm-.649 29.257h59.812m-29.906-29.906v59.812m29.258-59.163h58.515v58.515h-58.515zm-.648 29.257h59.812m-29.907-29.906v59.812m29.258-59.163h58.515v58.515h-58.515zm-.649 29.257h59.813m-29.906-29.906v59.812m29.257-59.163h58.515v40.472c0 9.965-8.078 18.043-18.043 18.043h-40.472v-58.515zm-.649 29.257h59.812m-29.906-29.906v59.812"/></g><defs><linearGradient id="a" x1="293.223" x2="293.223" y1="557.727" y2="1025.85" gradientUnits="userSpaceOnUse"><stop stop-color="#BBDDE5" stop-opacity="0"/><stop offset="1" stop-color="#BBDDE5" stop-opacity=".5"/></linearGradient></defs></svg>