<svg xmlns="http://www.w3.org/2000/svg" width="16" height="17" fill="none"><path fill="#F4E28D" d="M7.4 14.843a.6.6 0 0 0 1.2 0V9.29l1.976 1.976a.6.6 0 1 0 .848-.848l-2.999-3a.598.598 0 0 0-.85 0l-3 3a.6.6 0 1 0 .85.848L7.4 9.291v5.552z"/><path fill="#F4E28D" d="M15 1.343a.5.5 0 0 1 .5.5v11a.5.5 0 0 1-.5.5h-2.5a.5.5 0 0 1 0-1h2v-10h-3.623c-.96 0-1.84.543-2.27 1.403-.07.141-.107.297-.107.455v1.392a.5.5 0 1 1-1 0V4.2c0-.158-.037-.314-.108-.455a2.538 2.538 0 0 0-2.27-1.403H1.5v10h2a.5.5 0 1 1 0 1H1a.5.5 0 0 1-.5-.5v-11a.5.5 0 0 1 .5-.5h4.122c1.153 0 2.22.56 2.878 1.48a3.538 3.538 0 0 1 2.877-1.48H15z"/></svg>