<svg xmlns="http://www.w3.org/2000/svg" width="16" height="16" fill="none"><path fill="#3F89A1" d="M7.4 14.5a.6.6 0 1 0 1.2 0V8.949l1.976 1.975a.6.6 0 0 0 .848-.848l-2.999-3a.615.615 0 0 0-.195-.13.598.598 0 0 0-.655.13l-3 3a.6.6 0 0 0 .85.848L7.4 8.95v5.55z"/><path fill="#3F89A1" d="M15 1a.5.5 0 0 1 .5.5v11a.5.5 0 0 1-.5.5h-2.5a.5.5 0 0 1 0-1h2V2h-3.623c-.96 0-1.84.543-2.27 1.403-.07.141-.107.297-.107.456V5.25a.5.5 0 0 1-1 0V3.859c0-.159-.037-.315-.108-.456A2.538 2.538 0 0 0 5.122 2H1.5v10h2a.5.5 0 0 1 0 1H1a.5.5 0 0 1-.5-.5v-11A.5.5 0 0 1 1 1h4.122C6.275 1 7.342 1.56 8 2.48A3.538 3.538 0 0 1 10.877 1H15z"/></svg>