<svg xmlns="http://www.w3.org/2000/svg" width="17" height="16" fill="none"><path fill="#3F89A1" d="M15.301 4.084A8.165 8.165 0 0 0 12.317 1.1 8.021 8.021 0 0 0 8.2 0C6.713 0 5.34.367 4.084 1.1A8.164 8.164 0 0 0 1.1 4.084 8.022 8.022 0 0 0 0 8.2c0 1.787.521 3.394 1.564 4.821 1.043 1.428 2.39 2.415 4.042 2.963.192.036.334.01.427-.074a.417.417 0 0 0 .139-.32l-.006-.577c-.003-.363-.005-.68-.005-.95l-.246.042a3.13 3.13 0 0 1-.592.038 4.529 4.529 0 0 1-.742-.075 1.658 1.658 0 0 1-.716-.32 1.355 1.355 0 0 1-.47-.657l-.106-.246a2.668 2.668 0 0 0-.337-.544c-.153-.2-.308-.335-.464-.406l-.075-.053a.788.788 0 0 1-.139-.129.586.586 0 0 1-.096-.149c-.021-.05-.003-.09.054-.123.057-.032.16-.048.31-.048l.213.032c.142.029.318.114.528.256.21.143.383.328.518.555.164.292.361.515.593.668.231.153.464.23.7.23.234 0 .437-.018.608-.054.17-.035.33-.089.48-.16.064-.477.239-.844.523-1.1a7.305 7.305 0 0 1-1.094-.192 4.358 4.358 0 0 1-1.004-.417 2.874 2.874 0 0 1-.86-.715c-.227-.285-.414-.659-.56-1.121-.146-.463-.219-.997-.219-1.602 0-.861.282-1.595.844-2.2-.264-.647-.239-1.373.075-2.178.206-.064.512-.016.918.144.406.16.703.298.891.411.19.114.34.21.454.289A7.582 7.582 0 0 1 8.2 3.96c.705 0 1.389.093 2.05.278l.406-.256c.278-.171.606-.328.983-.47.377-.143.666-.182.865-.118.32.805.349 1.53.085 2.178.562.606.844 1.339.844 2.2 0 .605-.073 1.14-.22 1.607-.145.466-.333.84-.565 1.121-.231.282-.52.518-.865.71-.345.192-.68.331-1.004.417-.324.085-.688.15-1.094.192.37.32.555.826.555 1.516v2.253c0 .128.044.235.134.32.089.086.23.11.421.075 1.652-.548 3-1.536 4.042-2.963 1.043-1.427 1.564-3.034 1.564-4.821 0-1.487-.367-2.86-1.1-4.116z"/></svg>