<svg xmlns="http://www.w3.org/2000/svg" width="679" height="408" fill="none"><g stroke="#2D323A" opacity=".2"><path d="M1.317 15.37c0-7.68 6.227-13.908 13.908-13.908h31.2V46.57H1.316v-31.2zm-.5 8.646h46.107M23.87.962V47.07"/><path d="M46.424 1.462h45.108V46.57H46.424zm-.5 22.554h46.108M68.978.962V47.07M91.532 1.462h45.108V46.57H91.532zm-.5 22.554h46.107M114.085.962V47.07"/><path d="M136.639 1.462h45.108V46.57h-45.108zm-.5 22.554h46.108M159.193.962V47.07m22.554-45.608h45.108V46.57h-45.108zm-.5 22.554h46.108M204.301.962V47.07"/><path d="M226.855 1.462h45.108V46.57h-45.108zm-.5 22.554h46.107M249.409.962V47.07"/><path d="M271.962 1.462h45.108V46.57h-45.108zm-.5 22.554h46.108M294.516.962V47.07M317.07 1.462h45.108V46.57H317.07zm-.5 22.554h46.107M339.624.962V47.07"/><path d="M362.177 1.462h45.108V46.57h-45.108zm-.5 22.554h46.108M384.731.962V47.07m22.554-45.608h45.108V46.57h-45.108zm-.5 22.554h46.107M429.839.962V47.07m22.554-45.608h45.108V46.57h-45.108zm-.5 22.554H498M474.946.962V47.07"/><path d="M497.5 1.462h45.108V46.57H497.5zm-.5 22.554h46.108M520.054.962V47.07m22.554-45.608h45.108V46.57h-45.108zm-.5 22.554h46.107M565.161.962V47.07"/><path d="M587.715 1.462h45.108V46.57h-45.108zm-.5 22.554h46.108M610.269.962V47.07m22.554-45.608h31.199c7.681 0 13.908 6.227 13.908 13.909V46.57h-45.107V1.462zm-.5 22.554h46.107M655.376.962V47.07m-654.059-.5h45.108v45.108H1.317zm-.5 22.554h46.107M23.87 46.07v46.107"/><path d="M46.424 46.57h45.108v45.108H46.424zm-.5 22.554h46.108M68.978 46.07v46.107M91.532 46.57h45.108v45.108H91.532zm-.5 22.554h46.107M114.085 46.07v46.107"/><path d="M136.639 46.57h45.108v45.108h-45.108zm-.5 22.554h46.108M159.193 46.07v46.107m22.554-45.607h45.108v45.108h-45.108zm-.5 22.554h46.108M204.301 46.07v46.107"/><path d="M226.855 46.57h45.108v45.108h-45.108zm-.5 22.554h46.107M249.409 46.07v46.107"/><path d="M271.962 46.57h45.108v45.108h-45.108zm-.5 22.554h46.108M294.516 46.07v46.107M317.07 46.57h45.108v45.108H317.07zm-.5 22.554h46.107M339.624 46.07v46.107"/><path d="M362.177 46.57h45.108v45.108h-45.108zm-.5 22.554h46.108M384.731 46.07v46.107m22.554-45.607h45.108v45.108h-45.108zm-.5 22.554h46.107M429.839 46.07v46.107m22.554-45.607h45.108v45.108h-45.108zm-.5 22.554H498M474.946 46.07v46.107"/><path d="M497.5 46.57h45.108v45.108H497.5zm-.5 22.554h46.108M520.054 46.07v46.107m22.554-45.607h45.108v45.108h-45.108zm-.5 22.554h46.107M565.161 46.07v46.107"/><path d="M587.715 46.57h45.108v45.108h-45.108zm-.5 22.554h46.108M610.269 46.07v46.107m22.554-45.607h45.108v45.108h-45.108zm-.5 22.554h46.107M655.376 46.07v46.107m-654.059-.5h45.108v45.108H1.317zm-.5 22.554h46.107M23.87 91.177v46.108"/><path d="M46.424 91.677h45.108v45.108H46.424zm-.5 22.554h46.108M68.978 91.177v46.108m22.554-45.608h45.108v45.108H91.532zm-.5 22.554h46.107m-23.054-23.054v46.108"/><path d="M136.639 91.677h45.108v45.108h-45.108zm-.5 22.554h46.108m-23.054-23.054v46.108m22.554-45.608h45.108v45.108h-45.108zm-.5 22.554h46.108m-23.054-23.054v46.108"/><path d="M226.855 91.677h45.108v45.108h-45.108zm-.5 22.554h46.107m-23.053-23.054v46.108"/><path d="M271.962 91.677h45.108v45.108h-45.108zm-.5 22.554h46.108m-23.054-23.054v46.108m22.554-45.608h45.108v45.108H317.07zm-.5 22.554h46.107m-23.053-23.054v46.108"/><path d="M362.177 91.677h45.108v45.108h-45.108zm-.5 22.554h46.108m-23.054-23.054v46.108m22.554-45.608h45.108v45.108h-45.108zm-.5 22.554h46.107m-23.053-23.054v46.108"/><path d="M452.393 91.677h45.108v45.108h-45.108zm-.5 22.554H498m-23.054-23.054v46.108"/><path d="M497.5 91.677h45.108v45.108H497.5zm-.5 22.554h46.108m-23.054-23.054v46.108m22.554-45.608h45.108v45.108h-45.108zm-.5 22.554h46.107m-23.054-23.054v46.108"/><path d="M587.715 91.677h45.108v45.108h-45.108zm-.5 22.554h46.108m-23.054-23.054v46.108m22.554-45.608h45.108v45.108h-45.108zm-.5 22.554h46.107m-23.054-23.054v46.108m-654.059-.5h45.108v45.108H1.317zm-.5 22.554h46.107M23.87 136.285v46.107"/><path d="M46.424 136.785h45.108v45.108H46.424zm-.5 22.554h46.108m-23.054-23.054v46.107m22.554-45.607h45.108v45.108H91.532zm-.5 22.554h46.107m-23.054-23.054v46.107"/><path d="M136.639 136.785h45.108v45.108h-45.108zm-.5 22.554h46.108m-23.054-23.054v46.107m22.554-45.607h45.108v45.108h-45.108zm-.5 22.554h46.108m-23.054-23.054v46.107"/><path d="M226.855 136.785h45.108v45.108h-45.108zm-.5 22.554h46.107m-23.053-23.054v46.107"/><path d="M271.962 136.785h45.108v45.108h-45.108zm-.5 22.554h46.108m-23.054-23.054v46.107m22.554-45.607h45.108v45.108H317.07zm-.5 22.554h46.107m-23.053-23.054v46.107"/><path d="M362.177 136.785h45.108v45.108h-45.108zm-.5 22.554h46.108m-23.054-23.054v46.107m22.554-45.607h45.108v45.108h-45.108zm-.5 22.554h46.107m-23.053-23.054v46.107"/><path d="M452.393 136.785h45.108v45.108h-45.108zm-.5 22.554H498m-23.054-23.054v46.107"/><path d="M497.5 136.785h45.108v45.108H497.5zm-.5 22.554h46.108m-23.054-23.054v46.107m22.554-45.607h45.108v45.108h-45.108zm-.5 22.554h46.107m-23.054-23.054v46.107"/><path d="M587.715 136.785h45.108v45.108h-45.108zm-.5 22.554h46.108m-23.054-23.054v46.107m22.554-45.607h45.108v45.108h-45.108zm-.5 22.554h46.107m-23.054-23.054v46.107m-654.059-.5h45.108V227H1.317zm-.5 22.554h46.107M23.87 181.392V227.5"/><path d="M46.424 181.892h45.108V227H46.424zm-.5 22.554h46.108m-23.054-23.054V227.5m22.554-45.608h45.108V227H91.532zm-.5 22.554h46.107m-23.054-23.054V227.5"/><path d="M136.639 181.892h45.108V227h-45.108zm-.5 22.554h46.108m-23.054-23.054V227.5m22.554-45.608h45.108V227h-45.108zm-.5 22.554h46.108m-23.054-23.054V227.5"/><path d="M226.855 181.892h45.108V227h-45.108zm-.5 22.554h46.107m-23.053-23.054V227.5"/><path d="M271.962 181.892h45.108V227h-45.108zm-.5 22.554h46.108m-23.054-23.054V227.5m22.554-45.608h45.108V227H317.07zm-.5 22.554h46.107m-23.053-23.054V227.5"/><path d="M362.177 181.892h45.108V227h-45.108zm-.5 22.554h46.108m-23.054-23.054V227.5m22.554-45.608h45.108V227h-45.108zm-.5 22.554h46.107m-23.053-23.054V227.5"/><path d="M452.393 181.892h45.108V227h-45.108zm-.5 22.554H498m-23.054-23.054V227.5"/><path d="M497.5 181.892h45.108V227H497.5zm-.5 22.554h46.108m-23.054-23.054V227.5m22.554-45.608h45.108V227h-45.108zm-.5 22.554h46.107m-23.054-23.054V227.5"/><path d="M587.715 181.892h45.108V227h-45.108zm-.5 22.554h46.108m-23.054-23.054V227.5m22.554-45.608h45.108V227h-45.108zm-.5 22.554h46.107m-23.054-23.054V227.5M1.317 227h45.108v45.108H1.317zm-.5 22.554h46.107M23.87 226.5v46.108"/><path d="M46.424 227h45.108v45.108H46.424zm-.5 22.554h46.108M68.978 226.5v46.108M91.532 227h45.108v45.108H91.532zm-.5 22.554h46.107M114.085 226.5v46.108"/><path d="M136.639 227h45.108v45.108h-45.108zm-.5 22.554h46.108M159.193 226.5v46.108M181.747 227h45.108v45.108h-45.108zm-.5 22.554h46.108M204.301 226.5v46.108"/><path d="M226.855 227h45.108v45.108h-45.108zm-.5 22.554h46.107M249.409 226.5v46.108"/><path d="M271.962 227h45.108v45.108h-45.108zm-.5 22.554h46.108M294.516 226.5v46.108M317.07 227h45.108v45.108H317.07zm-.5 22.554h46.107M339.624 226.5v46.108"/><path d="M362.177 227h45.108v45.108h-45.108zm-.5 22.554h46.108M384.731 226.5v46.108M407.285 227h45.108v45.108h-45.108zm-.5 22.554h46.107M429.839 226.5v46.108"/><path d="M452.393 227h45.108v45.108h-45.108zm-.5 22.554H498M474.946 226.5v46.108"/><path d="M497.5 227h45.108v45.108H497.5zm-.5 22.554h46.108M520.054 226.5v46.108M542.608 227h45.108v45.108h-45.108zm-.5 22.554h46.107M565.161 226.5v46.108"/><path d="M587.715 227h45.108v45.108h-45.108zm-.5 22.554h46.108M610.269 226.5v46.108M632.823 227h45.108v45.108h-45.108zm-.5 22.554h46.107M655.376 226.5v46.108m-654.059-.5h45.108v45.108H1.317zm-.5 22.553h46.107M23.87 271.607v46.108"/><path d="M46.424 272.108h45.108v45.108H46.424zm-.5 22.553h46.108m-23.054-23.054v46.108m22.554-45.607h45.108v45.108H91.532zm-.5 22.553h46.107m-23.054-23.054v46.108"/><path d="M136.639 272.108h45.108v45.108h-45.108zm-.5 22.553h46.108m-23.054-23.054v46.108m22.554-45.607h45.108v45.108h-45.108zm-.5 22.553h46.108m-23.054-23.054v46.108"/><path d="M226.855 272.108h45.108v45.108h-45.108zm-.5 22.553h46.107m-23.053-23.054v46.108"/><path d="M271.962 272.108h45.108v45.108h-45.108zm-.5 22.553h46.108m-23.054-23.054v46.108m22.554-45.607h45.108v45.108H317.07zm-.5 22.553h46.107m-23.053-23.054v46.108"/><path d="M362.177 272.108h45.108v45.108h-45.108zm-.5 22.553h46.108m-23.054-23.054v46.108m22.554-45.607h45.108v45.108h-45.108zm-.5 22.553h46.107m-23.053-23.054v46.108"/><path d="M452.393 272.108h45.108v45.108h-45.108zm-.5 22.553H498m-23.054-23.053v46.107"/><path d="M497.5 272.108h45.108v45.108H497.5zm-.5 22.553h46.108m-23.054-23.053v46.107m22.554-45.607h45.108v45.108h-45.108zm-.5 22.553h46.107m-23.054-23.053v46.107"/><path d="M587.715 272.108h45.108v45.108h-45.108zm-.5 22.553h46.108m-23.054-23.053v46.107m22.554-45.607h45.108v45.108h-45.108zm-.5 22.553h46.107m-23.054-23.053v46.107m-654.059-.5h45.108v45.108H1.317zm-.5 22.554h46.107M23.87 316.715v46.108"/><path d="M46.424 317.215h45.108v45.108H46.424zm-.5 22.554h46.108m-23.054-23.054v46.108m22.554-45.608h45.108v45.108H91.532zm-.5 22.554h46.107m-23.054-23.054v46.108"/><path d="M136.639 317.215h45.108v45.108h-45.108zm-.5 22.554h46.108m-23.054-23.054v46.108m22.554-45.608h45.108v45.108h-45.108zm-.5 22.554h46.108m-23.054-23.054v46.108"/><path d="M226.855 317.215h45.108v45.108h-45.108zm-.5 22.554h46.107m-23.053-23.054v46.108"/><path d="M271.962 317.215h45.108v45.108h-45.108zm-.5 22.554h46.108m-23.054-23.054v46.108m22.554-45.608h45.108v45.108H317.07zm-.5 22.554h46.107m-23.053-23.054v46.108"/><path d="M362.177 317.215h45.108v45.108h-45.108zm-.5 22.554h46.108m-23.054-23.054v46.108m22.554-45.608h45.108v45.108h-45.108zm-.5 22.554h46.107m-23.053-23.054v46.108"/><path d="M452.393 317.215h45.108v45.108h-45.108zm-.5 22.554H498m-23.054-23.054v46.108"/><path d="M497.5 317.215h45.108v45.108H497.5zm-.5 22.554h46.108m-23.054-23.054v46.108m22.554-45.608h45.108v45.108h-45.108zm-.5 22.554h46.107m-23.054-23.054v46.108"/><path d="M587.715 317.215h45.108v45.108h-45.108zm-.5 22.554h46.108m-23.054-23.054v46.108m22.554-45.608h45.108v45.108h-45.108zm-.5 22.554h46.107m-23.054-23.054v46.108m-654.059-.5h45.107v45.107H15.225c-7.681 0-13.908-6.227-13.908-13.908v-31.199zm-.5 22.554h46.107M23.87 361.823v46.107m22.554-45.607h45.108v45.108H46.424zm-.5 22.554h46.108m-23.054-23.054v46.107m22.554-45.607h45.108v45.108H91.532zm-.5 22.554h46.107m-23.054-23.054v46.107"/><path d="M136.639 362.323h45.108v45.108h-45.108zm-.5 22.554h46.108m-23.054-23.054v46.107m22.554-45.607h45.108v45.108h-45.108zm-.5 22.554h46.108m-23.054-23.054v46.107"/><path d="M226.855 362.323h45.108v45.108h-45.108zm-.5 22.554h46.107m-23.053-23.054v46.107"/><path d="M271.962 362.323h45.108v45.108h-45.108zm-.5 22.554h46.108m-23.054-23.054v46.107m22.554-45.607h45.108v45.108H317.07zm-.5 22.554h46.107m-23.053-23.054v46.107"/><path d="M362.177 362.323h45.108v45.108h-45.108zm-.5 22.554h46.108m-23.054-23.054v46.107m22.554-45.607h45.108v45.108h-45.108zm-.5 22.554h46.107m-23.053-23.054v46.107"/><path d="M452.393 362.323h45.108v45.108h-45.108zm-.5 22.554H498m-23.054-23.054v46.107"/><path d="M497.5 362.323h45.108v45.108H497.5zm-.5 22.554h46.108m-23.054-23.054v46.107m22.554-45.607h45.108v45.108h-45.108zm-.5 22.554h46.107m-23.054-23.054v46.107"/><path d="M587.715 362.323h45.108v45.108h-45.108zm-.5 22.554h46.108m-23.054-23.054v46.107"/><path d="M632.823 362.323h45.107v31.199c0 7.681-6.227 13.908-13.908 13.908h-31.199v-45.107zm-.5 22.554h46.107m-23.054-23.054v46.107"/></g><path fill="url(#a)" d="M0 0h360.861v631.506H0z" transform="matrix(0 -1 -1 0 655.376 384.877)"/><defs><linearGradient id="a" x1="180.43" x2="180.43" y1="0" y2="631.506" gradientUnits="userSpaceOnUse"><stop stop-color="#fff" stop-opacity="0"/><stop offset="1" stop-color="#fff" stop-opacity=".4"/></linearGradient></defs></svg>