<svg xmlns="http://www.w3.org/2000/svg" width="218" height="70" fill="none"><g fill="#181C1F" clip-path="url(#a)"><path d="M74.38 46.954h13.462v1.927H74.38v-1.927zm0-3.697h13.462v1.934H74.38v-1.934zm3.84-3.689h5.775v1.934H78.22v-1.934zm0-3.69h5.775v1.934H78.22v-1.934zm0-3.69h5.775v1.934H78.22v-1.934zm0-3.696h5.775v1.934H78.22v-1.934zm9.622-3.69H74.38v1.934h13.462v-1.934zm0-3.69H74.38v1.934h13.462v-1.934zm1.921 24.079h20.704a6.87 6.87 0 0 0 .769-1.934H89.763v1.934zm19.093-9.313H93.61v1.934h16.857a7.735 7.735 0 0 0-1.611-1.934zm-15.246-3.69v1.934h15.246a7.2 7.2 0 0 0 1.611-1.934H93.61zm16.858-7.386H89.763v1.934h21.473a8.409 8.409 0 0 0-.768-1.934zm-6.365-3.69h-14.34v1.934h19.285a7.28 7.28 0 0 0-4.945-1.934zm-4.725 7.38H93.61v1.934h5.768v-1.934zm5.774 1.934h6.036a7.25 7.25 0 0 0 .26-1.934h-6.296v1.934zM93.61 39.568h5.768v1.934H93.61v-1.934zm11.542 0v1.934h6.296a7.25 7.25 0 0 0-.26-1.934h-6.036zm-15.389 9.299 14.34.02c1.92 0 3.656-.74 4.952-1.933H89.763v1.913zm23.084-1.913h9.616v1.927h-9.616v-1.927zm0-3.697h9.616v1.934h-9.616v-1.934zm3.841-3.689h5.774v1.934h-5.774v-1.934zm0-3.69h5.774v1.934h-5.774v-1.934zm8.449-11.076h-12.29v1.934h12.955l-.665-1.934zm-1.275-3.69h-11.015v1.934h11.68l-.665-1.934zm10.136 25.842h9.622v1.927h-9.622v-1.927zm0-3.697h9.622v1.934h-9.622v-1.934zm0-3.689h5.775v1.934h-5.775v-1.934zm0-3.69h5.775v1.934h-5.775v-1.934zm0-1.756h5.775v-1.934h-11.001l-.542 1.564-.542-1.564h-11v1.934h5.774v-1.776l.611 1.776h10.315l.61-1.776v1.776zm5.775-5.63h-9.725l-.666 1.934h10.391v-1.934zm-7.167-7.38-.665 1.934h11.679v-1.934h-11.014zm-4.376 27.755.665-1.913h-1.33l.665 1.913zm-1.275-3.676h2.551l.686-1.934h-3.916l.679 1.934zm-1.297-3.689h5.144l.679-1.934h-6.502l.679 1.934zm-1.289-3.69h7.729l.659-1.934h-9.053l.665 1.934zm-7.681-7.386h10.39l-.665-1.934h-9.725v1.934zm13.977-3.69h12.955v-1.934h-12.297l-.658 1.934z"/></g><defs><clipPath id="a"><path fill="#fff" d="M74.38 21.112h69.24v27.776H74.38z"/></clipPath></defs></svg>