<svg xmlns="http://www.w3.org/2000/svg" width="218" height="70" fill="none"><path fill="#181C1F" d="m132.95 31.744 2.978 3.282 2.867-3.283h6.122l-5.983 6.729 6.065 6.782h-6.369l-2.95-3.307-2.923 3.307h-6.15l6.012-6.755-6.012-6.756h6.343z"/><path fill="#181C1F" d="M126.607 31.744v4.565h-6.809v4.189h6.809v4.757h-11.813V23.97h11.813v4.744h-6.809v3.029h6.809zm-16.796-7.773v8.71h-.055c-1.104-1.267-2.482-1.708-4.081-1.708-3.276 0-5.743 2.227-6.61 5.172-.989-3.245-3.537-5.234-7.314-5.234-3.069 0-5.492 1.377-6.755 3.621v-2.788h-6.343v-3.029h6.921v-4.744H73.001v21.284h5.652v-8.947h5.635a8.48 8.48 0 0 0-.257 2.105c0 4.439 3.391 7.555 7.72 7.555 3.64 0 6.038-1.71 7.306-4.825h-4.844c-.655.938-1.152 1.215-2.462 1.215-1.52 0-2.83-1.325-2.83-2.896h9.865c.428 3.525 3.175 6.566 6.944 6.566 1.626 0 3.115-.8 4.025-2.15h.055v1.379h4.983V23.972h-4.982zm-20.732 12.4c.315-1.352 1.364-2.235 2.672-2.235 1.441 0 2.436.856 2.698 2.235h-5.37zm17.707 5.643c-1.837 0-2.979-1.712-2.979-3.498 0-1.91.993-3.747 2.979-3.747 2.059 0 2.879 1.837 2.879 3.747 0 1.81-.869 3.498-2.879 3.498z"/></svg>