<svg xmlns="http://www.w3.org/2000/svg" width="218" height="70" fill="none"><g clip-path="url(#a)"><mask id="b" width="86" height="44" x="66" y="13" maskUnits="userSpaceOnUse" style="mask-type:luminance"><path fill="#fff" d="M151.3 13H66.7v43.933h84.6V13z"/></mask><g mask="url(#b)"><mask id="c" width="29" height="44" x="66" y="13" maskUnits="userSpaceOnUse" style="mask-type:luminance"><path fill="#fff" d="M94.46 13H66.889v43.789h27.57V13z"/></mask><g fill="#181C1F" mask="url(#c)"><path d="M93.686 22.79c-.36-.101-.736-.202-1.129-.298.124.47.193.953.205 1.44v.344l-1.643 4.455c.834 7.714.426 8.766.293 9.111-.212.55-.779 1.439-1.729 2.734l.934 8.684 3.395-2.45a1.074 1.074 0 0 0 .448-.878V23.825a1.088 1.088 0 0 0-.217-.647 1.076 1.076 0 0 0-.557-.388z"/><path d="M94.46 45.935a1.086 1.086 0 0 1-.448.877l-3.395 2.45-.934-8.684c.953-1.29 1.517-2.184 1.73-2.733.132-.346.54-1.398-.294-9.111l1.643-4.455v-.346a6.236 6.236 0 0 0-.205-1.438c.393.096.77.196 1.129.297a1.089 1.089 0 0 1 .774 1.038v22.105zm-16.572-22.69a9.862 9.862 0 0 1 5.572 0l.212-.35.238-1.623a78.263 78.263 0 0 0-3.21-.096c-1.088 0-2.176.031-3.247.089l.238 1.63.197.35z"/><path d="M80.693 21.178c.998 0 2.398.058 3.21.096l-.239 1.624-.211.35a9.861 9.861 0 0 0-5.572 0l-.212-.348-.238-1.63a59.22 59.22 0 0 1 3.262-.091zM70.23 28.734l-1.64-4.454v-.348c.012-.485.08-.968.202-1.438-.39.096-.769.196-1.126.297a1.087 1.087 0 0 0-.774 1.038v22.105a1.086 1.086 0 0 0 .448.877l3.41 2.467.935-8.674c-.952-1.305-1.53-2.206-1.745-2.76-.138-.348-.545-1.4.288-9.111z"/><path d="m70.75 49.28-3.414-2.465a1.078 1.078 0 0 1-.447-.878V23.83a1.086 1.086 0 0 1 .773-1.038c.358-.1.736-.201 1.127-.297-.123.47-.19.953-.203 1.438v.348l1.643 4.453c-.833 7.71-.426 8.763-.293 9.11.214.555.786 1.456 1.745 2.76l-.93 8.675z"/><path d="M90.097 37.332c.267-.688.115-3.942-.41-8.706v-.072l1.667-4.53v-.09c0-1.976-2.54-7.263-4.047-10.07l-.39-.72a.24.24 0 0 0-.252-.123.237.237 0 0 0-.194.202L85.02 23.384l-.931 1.542-.238-.079a10.648 10.648 0 0 0-3.193-.585 10.274 10.274 0 0 0-3.18.585l-.239.08-.917-1.543-1.447-10.18a.24.24 0 0 0-.195-.205.237.237 0 0 0-.253.126l-.388.719c-1.502 2.813-4.047 8.1-4.047 10.07v.091l1.666 4.53v.072c-.524 4.764-.676 8.017-.41 8.706.239.616 1.191 1.937 1.982 2.99L72.083 50.96l1.14.823.856.616 5.623 4.074a1.66 1.66 0 0 0 1.94 0l6.948-5.007.693-.501-1.145-10.667c.788-1.048 1.724-2.352 1.96-2.966zm-2.802-17.743.181-1.27a.194.194 0 0 1 .16-.162.192.192 0 0 1 .202.104c.921 1.934 1.81 4.054 1.905 5.023a.2.2 0 0 1-.012.084l-.445 1.199a.192.192 0 0 1-.16.125.19.19 0 0 1-.181-.09c-1.107-1.755-1.54-4.253-1.645-4.965a.213.213 0 0 1-.005-.05v.002zm-4.419 12.49c.51-.509 1.429-1.216 2.583-1.216 1.538 0 .653 1.184.353 1.54a.241.241 0 0 1-.181.083h-2.588a.236.236 0 0 1-.217-.148.24.24 0 0 1 .05-.26zm1.324 2.2a.592.592 0 0 0 .476.37.595.595 0 0 0 .667-.465.364.364 0 0 1-.25-.624l-.017-.014h1.04v.053a1.364 1.364 0 0 1-.83 1.299 1.345 1.345 0 0 1-1.785-.786 1.365 1.365 0 0 1-.082-.537v-.03h1.026a.602.602 0 0 0-.25.735h.005zm-8.302-3.416c1.16 0 2.073.707 2.583 1.215a.24.24 0 0 1-.171.408h-2.577a.237.237 0 0 1-.18-.084c-.313-.355-1.198-1.54.34-1.54h.005zm.476 3.006a.368.368 0 0 1-.355.305.592.592 0 0 0 .935.37.608.608 0 0 0-.042-.991h.998a.031.031 0 0 1 .028.029 1.365 1.365 0 0 1-.808 1.313 1.343 1.343 0 0 1-1.798-.753 1.367 1.367 0 0 1-.091-.536v-.053h1.04l-.017.015a.362.362 0 0 1 .11.301zm-3.933-9.262a.193.193 0 0 1-.343-.036l-.443-1.199a.17.17 0 0 1-.012-.084c.09-.959.978-3.088 1.905-5.023a.19.19 0 0 1 .36.058l.18 1.27a.212.212 0 0 1 0 .056c-.11.705-.543 3.203-1.647 4.958zm3.364 21.483c-.757-2.088-.767-5.01-.767-5.135v-.2l-.124-.155a51.422 51.422 0 0 1-1.112-1.439.24.24 0 0 1 .122-.376l2.04-.6a.239.239 0 0 0 .112-.072l1.948-2.237a.236.236 0 0 1 .37.015.24.24 0 0 1 .046.132l.34 6.411a.24.24 0 0 1-.042.146c-.136.202-.524.81-.524 1.185 0 .48.703 1.107 1.395 1.609a.664.664 0 0 1 .027-.06c.238-.437.56-.516.714-.18.053.248.071.502.055.755h.012v.59a.241.241 0 0 1-.024.105c-.126.257-.738 1.355-2.04 1.355-.57.017-1.936-.165-2.548-1.849zm5.804 2.434a.096.096 0 0 1 .062.17 1.633 1.633 0 0 1-1.995 0 .096.096 0 0 1-.03-.106.096.096 0 0 1 .09-.064h1.873zm1.74.703c-.26.487-.646.894-1.117 1.177a3.025 3.025 0 0 1-3.119 0 3.053 3.053 0 0 1-1.118-1.177.241.241 0 0 1 .1-.33.236.236 0 0 1 .124-.025h.143c.15 0 .3-.016.447-.05a.237.237 0 0 1 .25.093 1.984 1.984 0 0 0 1.617.844 1.967 1.967 0 0 0 1.617-.844.24.24 0 0 1 .25-.093c.156.037.316.056.476.055h.112a.238.238 0 0 1 .248.229.241.241 0 0 1-.027.12h-.002zm4.227-10.056a95.452 95.452 0 0 1-1.112 1.438l-.124.156v.2c0 .124 0 3.047-.766 5.135-.61 1.678-1.979 1.865-2.538 1.865-1.303 0-1.905-1.098-2.038-1.354a.241.241 0 0 1-.027-.106v-.59h.012a2.76 2.76 0 0 1 .055-.755c.145-.335.462-.256.714.18 0 .02.017.04.026.06.693-.501 1.396-1.13 1.396-1.609 0-.374-.39-.983-.527-1.184a.24.24 0 0 1-.04-.147l.338-6.411a.241.241 0 0 1 .16-.215.235.235 0 0 1 .257.069l1.947 2.237c.03.034.07.06.115.072l2.038.6a.242.242 0 0 1 .144.15.238.238 0 0 1-.03.209z"/></g><path fill="#181C1F" d="M142.901 36.491h-.328v5.668h-4.069V28.048l4.069-6.361v13.166c.811-.993 3.539-4.762 3.539-4.762h5.025l-4.764 5.041 4.928 7.036h-5.14l-3.26-5.677zm-11.34-.925 1.668-5.436h4.031l-4.725 11.99c-1.408 3.605-3.424 6.043-6.432 6.043-1.158 0-2.132-.298-2.643-.587l1.62-2.507c.241.03.492.039.743.039 1.389 0 2.43-1.35 3.105-2.95l-4.957-12.028h4.562l1.784 5.369c.347 1.021.598 2.968.598 2.968s.318-1.88.646-2.901zm-12.296-.28c0-1.57-.694-2.313-2.015-2.313-.646 0-1.321.183-1.784.463v8.723h-4.07V30.246l3.983-.328-.096 1.947h.135a5.055 5.055 0 0 1 4.05-2.034c2.083 0 3.886 1.292 3.886 4.347v7.98h-4.089v-6.872zm-19.518 6.256.367-2.776a9.172 9.172 0 0 0 3.915.925c.877 0 1.456-.299 1.456-.829 0-1.523-5.487-1.156-5.487-5.137 0-2.545 2.334-3.884 5.255-3.884 1.457 0 2.961.395 3.935.742l-.395 2.728c-1.023-.396-2.411-.762-3.568-.762-.714 0-1.293.25-1.293.714 0 1.503 5.603 1.204 5.603 5.089 0 2.583-2.295 4.067-5.439 4.067-1.736 0-3.144-.299-4.349-.877z"/></g></g><defs><clipPath id="a"><path fill="#fff" d="M66.7 13h84.601v44H66.7z"/></clipPath></defs></svg>