<svg xmlns="http://www.w3.org/2000/svg" width="218" height="70" fill="none"><g fill="#181C1F" clip-path="url(#a)"><path d="M108.447 42.003c-.103-.028-1.683-.435-3.361-.435-3.178 0-5.092 1.716-5.092 4.272 0 2.262 1.601 3.39 3.522 3.997.213.07.527.168.736.237.855.27 1.537.67 1.537 1.361 0 .775-.788 1.276-2.503 1.276-1.507 0-2.952-.431-3.257-.508v3.144c.17.036 1.887.373 3.722.373 2.638 0 5.656-1.152 5.656-4.584 0-1.665-1.019-3.198-3.257-3.91l-.951-.302c-.568-.18-1.581-.47-1.581-1.301 0-.657.751-1.12 2.133-1.12 1.193 0 2.644.4 2.696.417v-2.917zm29.137 6.641c0 1.988-1.522 3.597-3.566 3.597-2.045 0-3.564-1.609-3.564-3.597 0-1.984 1.519-3.593 3.564-3.593 2.044 0 3.566 1.61 3.566 3.593zm-3.566-7.072c-4.202 0-7.216 3.17-7.216 7.072 0 3.91 3.014 7.077 7.216 7.077s7.221-3.168 7.221-7.077c0-3.902-3.019-7.072-7.221-7.072zM95.371 55.477h-3.448V41.814h3.448m-8.188.248c-.324-.096-1.521-.49-3.144-.49-4.195 0-7.276 2.992-7.276 7.072 0 4.403 3.4 7.077 7.276 7.077 1.54 0 2.716-.365 3.144-.487v-3.668c-.148.083-1.275.726-2.896.726-2.297 0-3.779-1.617-3.779-3.648 0-2.092 1.546-3.644 3.779-3.644 1.649 0 2.758.657 2.896.73m35.989-3.668c-.324-.096-1.522-.49-3.144-.49-4.196 0-7.276 2.992-7.276 7.072 0 4.403 3.4 7.077 7.276 7.077 1.54 0 2.715-.365 3.144-.487v-3.668c-.148.083-1.275.726-2.897.726-2.297 0-3.778-1.617-3.778-3.648 0-2.092 1.545-3.644 3.778-3.644 1.649 0 2.758.657 2.897.73m-31.26-29.748a1.71 1.71 0 0 0-1.712-1.705 1.71 1.71 0 0 0-1.711 1.705v18.144a1.711 1.711 0 0 0 3.423 0V15.982zm-9.402 6.44a1.711 1.711 0 0 0-3.424 0v8.296a1.711 1.711 0 0 0 3.424 0v-8.295zm-9.403 4.709a1.71 1.71 0 0 0-1.711-1.706 1.71 1.71 0 0 0-1.712 1.706v3.587a1.712 1.712 0 0 0 3.424 0"/><path d="M88.489 15.982a1.71 1.71 0 0 1 1.712-1.705 1.71 1.71 0 0 1 1.711 1.705v18.144a1.711 1.711 0 0 1-3.423 0V15.982zm9.402 6.44a1.711 1.711 0 0 1 3.424 0v8.296a1.712 1.712 0 0 1-3.424 0v-8.295zm9.403 4.709a1.71 1.71 0 0 1 1.711-1.706 1.71 1.71 0 0 1 1.712 1.706v3.587a1.712 1.712 0 0 1-3.423 0m18.793-14.736c0-.941.77-1.705 1.712-1.705a1.71 1.71 0 0 1 1.712 1.705v18.144a1.711 1.711 0 0 1-3.424 0V15.982zm9.403 6.44a1.711 1.711 0 0 1 3.423 0v8.296a1.71 1.71 0 0 1-3.423 0v-8.295zm9.402 4.709a1.71 1.71 0 0 1 1.712-1.706 1.71 1.71 0 0 1 1.712 1.706v3.587a1.712 1.712 0 0 1-3.424 0"/><path d="M129.511 15.982a1.71 1.71 0 0 0-1.712-1.705c-.942 0-1.712.764-1.712 1.705v18.144a1.712 1.712 0 0 0 3.424 0V15.982zm-9.403 6.44a1.711 1.711 0 0 0-3.423 0v8.296a1.712 1.712 0 0 0 3.423 0v-8.295zm-9.402 4.709a1.71 1.71 0 0 0-1.712-1.706 1.71 1.71 0 0 0-1.711 1.706v3.587a1.712 1.712 0 0 0 3.423 0"/></g><defs><clipPath id="a"><path fill="#fff" d="M69.684 14.25h78.632v41.5H69.684z"/></clipPath></defs></svg>