<svg xmlns="http://www.w3.org/2000/svg" width="17" height="16" fill="none"><path fill="#F4E28D" d="M15.26 4.327a7.965 7.965 0 0 0-2.911-2.911A7.825 7.825 0 0 0 8.333.343c-1.451 0-2.79.357-4.015 1.073a7.964 7.964 0 0 0-2.912 2.911A7.825 7.825 0 0 0 .333 8.342c0 1.744.51 3.311 1.527 4.704 1.017 1.392 2.331 2.355 3.942 2.89.188.035.326.01.417-.073a.407.407 0 0 0 .135-.312l-.005-.563a92.929 92.929 0 0 1-.005-.926l-.24.04a3.06 3.06 0 0 1-.578.037 4.412 4.412 0 0 1-.724-.072 1.619 1.619 0 0 1-.698-.313 1.322 1.322 0 0 1-.458-.64l-.104-.24a2.602 2.602 0 0 0-.328-.531c-.15-.195-.3-.327-.454-.396l-.072-.052a.763.763 0 0 1-.136-.125.573.573 0 0 1-.094-.146c-.02-.049-.003-.089.053-.12.055-.031.156-.047.302-.047l.208.031c.139.028.31.111.515.25.205.14.374.32.506.542.16.285.352.502.578.651.225.15.453.224.682.224.23 0 .427-.018.594-.052.166-.035.323-.087.468-.156.063-.466.233-.823.51-1.073a7.12 7.12 0 0 1-1.067-.188 4.25 4.25 0 0 1-.979-.406 2.805 2.805 0 0 1-.839-.698c-.222-.278-.404-.643-.546-1.094-.143-.451-.214-.972-.214-1.562 0-.84.275-1.556.823-2.146-.257-.632-.233-1.34.073-2.125.201-.063.5-.016.896.14.396.157.686.29.87.402.184.11.331.205.442.28a7.396 7.396 0 0 1 2-.27c.688 0 1.355.09 2 .27l.396-.25c.271-.166.59-.319.959-.457.367-.14.649-.178.843-.115.313.785.34 1.493.084 2.125.548.59.823 1.306.823 2.146a5.26 5.26 0 0 1-.214 1.567c-.142.455-.326.82-.552 1.094a2.91 2.91 0 0 1-.844.693 4.26 4.26 0 0 1-.979.406 7.118 7.118 0 0 1-1.067.188c.36.312.541.805.541 1.479v2.198c0 .124.043.229.13.312.087.083.224.108.412.073 1.611-.535 2.925-1.498 3.942-2.89 1.018-1.393 1.527-2.96 1.527-4.704a7.83 7.83 0 0 0-1.074-4.015z"/></svg>