<svg xmlns="http://www.w3.org/2000/svg" width="2880" height="100" fill="none"><g clip-path="url(#a)"><path fill="#fff" d="M0 0h2880v100H0z"/><g filter="url(#b)"><path fill="url(#c)" d="M648.633-145.72C1046.52-293.395 1301.24-252.676 1497.99 86.881 1694.75 426.44 1456.9 998.98 1130.8 1187.94c-194.109 112.47-340.523-800.007-575.779-993.677-100.284-82.556 39.61 528.802-72.724 461.129-184.019-139.938-276.753-225.468-282.133-363.991C194.19 137.583 434.26-66.156 648.633-145.72Z"/></g><g filter="url(#d)" opacity=".8"><path fill="#FDA599" d="M379.193 223.481C633.578 76.079 881.462-3.947 1058.34 301.299c176.87 305.247 114.03 672.191-140.351 819.591-151.421 87.74-88.354-197.716-288.889-378.16-85.483-76.919-292.527 123.819-364.118.268C181.172 598.36 29.197 532.777 17.696 412.113 4.925 278.126 245.346 301.038 379.193 223.481Z"/></g><g filter="url(#e)"><path fill="url(#f)" d="M537.146-395.199c283.031-164 821.114 109.906 999.474 417.716s-126.42 504.506-409.45 668.507c-168.47 97.62-138.324 57.374-214.162 59.93-123.606 4.167-188.852-89.404-261.044-213.993-84.514-145.853-151.781-105.625-158.822-229.943-7.817-138.045-104.915-615.926 44.004-702.217Z"/></g><g filter="url(#g)"><path fill="#fff" d="M902.432-396.835c144.788-39.04 276.818 203.188 221.418 585.276-59.52 303.093 102.92 374.091-41.87 413.131-45.36 12.229-153.039 55.709-205.844 27.526-115.754-61.783-178.643-265.002-232.181-463.56-42.831-158.849-57.441-388.039-27.392-499.133 24.646-91.119 220.626-45.649 285.869-63.24Z"/></g><g filter="url(#h)"><path fill="url(#i)" d="M1112.25 599.425c-323.877-440.812-363.595-770.902-12.44-1134.956 351.15-364.054 1144.9-271.998 1494.53 65.239 208.11 200.738-870.88 705.243-1027.61 1065.362-66.8 153.509 641.32-236.306 597.22-73.133-108.27 277.596-181.44 422.802-351.2 478.513-188.51 61.86-526-163.524-700.5-401.025Z"/></g><g filter="url(#j)" opacity=".8"><path fill="#FDA599" d="M1665.19 802.626c-272.73-263.07-459.67-541.937-144-869.205 315.67-327.268 792.66-379.31 1065.4-116.239 162.35 156.59-213.75 179.496-366.37 491.903-65.06 133.17 257.01 318.688 129.24 451.152-149.58 155.073-177.05 366.633-322.51 423.603-161.53 63.27-218.25-242.797-361.76-381.214Z"/></g><g filter="url(#k)"><path fill="url(#l)" d="M842.548 825.915C539.099 533.22 688.044-230.601 1006.36-560.617c318.32-330.016 669.99-21.943 973.44 270.751 180.63 174.224 120.08 151.114 150.09 244.194 48.93 151.709-43.93 265.696-172.78 399.272-150.83 156.375-77.16 225.496-228.73 278.235-168.31 58.562-726.17 348.083-885.832 194.08Z"/></g><g filter="url(#m)"><path fill="#fff" d="M711.194 373.799c-99.643-165.613 153.803-415 646.936-481.617 396.69-33.539 427.17-259.985 526.81-94.371 31.22 51.881 123.23 169.936 106.99 245.354-35.58 165.326-265.16 315.212-492.28 451.858-181.7 109.319-460.56 208.569-608.874 210.661-121.648 1.716-134.682-257.258-179.582-331.885Z"/></g></g><defs><filter id="b" width="1466.7" height="1521.6" x="151.42" y="-275.46" color-interpolation-filters="sRGB" filterUnits="userSpaceOnUse"><feFlood flood-opacity="0" result="BackgroundImageFix"/><feBlend in="SourceGraphic" in2="BackgroundImageFix" result="shape"/><feGaussianBlur result="effect1_foregroundBlur_239_725" stdDeviation="24.317"/></filter><filter id="d" width="1433.38" height="1336.4" x="-128.696" y="-53.257" color-interpolation-filters="sRGB" filterUnits="userSpaceOnUse"><feFlood flood-opacity="0" result="BackgroundImageFix"/><feBlend in="SourceGraphic" in2="BackgroundImageFix" result="shape"/><feGaussianBlur result="effect1_foregroundBlur_239_725" stdDeviation="72.951"/></filter><filter id="e" width="1368.36" height="1434.83" x="338.122" y="-561.057" color-interpolation-filters="sRGB" filterUnits="userSpaceOnUse"><feFlood flood-opacity="0" result="BackgroundImageFix"/><feBlend in="SourceGraphic" in2="BackgroundImageFix" result="shape"/><feGaussianBlur result="effect1_foregroundBlur_239_725" stdDeviation="58.361"/></filter><filter id="g" width="835.067" height="1331.18" x="454.803" y="-546.851" color-interpolation-filters="sRGB" filterUnits="userSpaceOnUse"><feFlood flood-opacity="0" result="BackgroundImageFix"/><feBlend in="SourceGraphic" in2="BackgroundImageFix" result="shape"/><feGaussianBlur result="effect1_foregroundBlur_239_725" stdDeviation="72.951"/></filter><filter id="h" width="1893.73" height="1905.35" x="789.833" y="-831.85" color-interpolation-filters="sRGB" filterUnits="userSpaceOnUse"><feFlood flood-opacity="0" result="BackgroundImageFix"/><feBlend in="SourceGraphic" in2="BackgroundImageFix" result="shape"/><feGaussianBlur result="effect1_foregroundBlur_239_725" stdDeviation="31.342"/></filter><filter id="j" width="1646.45" height="1919" x="1168.05" y="-538.608" color-interpolation-filters="sRGB" filterUnits="userSpaceOnUse"><feFlood flood-opacity="0" result="BackgroundImageFix"/><feBlend in="SourceGraphic" in2="BackgroundImageFix" result="shape"/><feGaussianBlur result="effect1_foregroundBlur_239_725" stdDeviation="94.025"/></filter><filter id="k" width="1766.98" height="1874.45" x="526.623" y="-853.492" color-interpolation-filters="sRGB" filterUnits="userSpaceOnUse"><feFlood flood-opacity="0" result="BackgroundImageFix"/><feBlend in="SourceGraphic" in2="BackgroundImageFix" result="shape"/><feGaussianBlur result="effect1_foregroundBlur_239_725" stdDeviation="75.22"/></filter><filter id="m" width="1680.16" height="1343.94" x="501.724" y="-450.195" color-interpolation-filters="sRGB" filterUnits="userSpaceOnUse"><feFlood flood-opacity="0" result="BackgroundImageFix"/><feBlend in="SourceGraphic" in2="BackgroundImageFix" result="shape"/><feGaussianBlur result="effect1_foregroundBlur_239_725" stdDeviation="94.025"/></filter><linearGradient id="c" x1="441.879" x2="1530.46" y1="773.692" y2="142.917" gradientUnits="userSpaceOnUse"><stop offset=".045" stop-color="#F4E28D"/><stop offset=".645" stop-color="#F4E28D"/><stop offset="1" stop-color="#5B6D72"/></linearGradient><linearGradient id="f" x1="602.557" x2="960.722" y1="563.957" y2="343.291" gradientUnits="userSpaceOnUse"><stop stop-color="#D2F6FF"/><stop offset=".24" stop-color="#BBDDE5"/><stop offset=".734" stop-color="#BBDDE5"/><stop offset="1" stop-color="#BBDDE5"/></linearGradient><linearGradient id="i" x1="2324.87" x2="1157.75" y1="530.143" y2="-595.609" gradientUnits="userSpaceOnUse"><stop offset=".045" stop-color="#F4E28D"/><stop offset=".645" stop-color="#F4E28D"/><stop offset="1" stop-color="#5B6D72"/></linearGradient><linearGradient id="l" x1="2008.06" x2="1607.79" y1="405.272" y2="39.526" gradientUnits="userSpaceOnUse"><stop stop-color="#D2F6FF"/><stop offset=".24" stop-color="#BBDDE5"/><stop offset=".734" stop-color="#BBDDE5"/><stop offset="1" stop-color="#BBDDE5"/></linearGradient><clipPath id="a"><path fill="#fff" d="M0 0h2880v100H0z"/></clipPath></defs></svg>