<svg xmlns="http://www.w3.org/2000/svg" width="1440" height="251" fill="none"><g clip-path="url(#a)" opacity=".5"><g filter="url(#b)"><path fill="url(#c)" d="M1277.49-85.465c0 80.909-223.49 146.499-499.185 146.499-275.69 0-499.181-65.59-499.181-146.5 0-48.16-15.243-93.724 185.333-116.577 85.5-9.742 209.053 51.718 320.641 51.718 130.633 0 239.902-65.628 325.992-51.718 95.6 15.445 166.4 74.006 166.4 116.578z"/></g><g filter="url(#d)"><path fill="#ADCFD8" d="M1132.06-105.549c0 78.553-216.986 142.232-484.646 142.232-267.661 0-484.643-63.68-484.643-142.232 0-46.758-14.799-90.995 179.935-113.182 83.01-9.458 206.326 34.747 314.664 34.747 126.828 0 229.553-48.252 313.139-34.747 92.811 14.995 161.551 71.851 161.551 113.182z"/></g><g filter="url(#e)" opacity=".7"><path fill="#ADCFD8" d="M1132.06-105.549c0 78.552-216.986 142.232-484.647 142.232-267.66 0-484.642-63.68-484.642-142.232 0-46.758-14.799-90.995 179.935-113.183 83.01-9.458 206.999 46.178 315.336 46.178 126.829 0 228.881-59.682 312.466-46.178 92.812 14.996 161.552 71.852 161.552 113.183z"/></g><g filter="url(#f)"><path fill="url(#g)" d="M1132.06-105.549c0 78.553-216.986 142.232-484.647 142.232-267.66 0-484.642-63.68-484.642-142.232 0-46.758-14.799-90.995 179.935-113.182 83.01-9.458 202.964 50.211 311.302 50.211 126.828 0 232.915-63.716 316.5-50.211 92.812 14.995 161.552 71.851 161.552 113.182z"/></g><g filter="url(#h)"><path fill="#181C1F" d="M959.344-56.182c0 56.413-155.827 102.145-348.049 102.145-192.222 0-348.049-45.732-348.049-102.145s155.827-102.145 348.049-102.145c105.606 0 245.474 2.889 309.304 24.683 52.353 17.876 38.745 52.042 38.745 77.462z"/></g></g><defs><filter id="b" width="1265.07" height="531.457" x="145.636" y="-337.201" color-interpolation-filters="sRGB" filterUnits="userSpaceOnUse"><feFlood flood-opacity="0" result="BackgroundImageFix"/><feBlend in="SourceGraphic" in2="BackgroundImageFix" result="shape"/><feGaussianBlur result="effect1_foregroundBlur_270_17918" stdDeviation="66.611"/></filter><filter id="d" width="1009.91" height="298.17" x="142.328" y="-241.301" color-interpolation-filters="sRGB" filterUnits="userSpaceOnUse"><feFlood flood-opacity="0" result="BackgroundImageFix"/><feBlend in="SourceGraphic" in2="BackgroundImageFix" result="shape"/><feGaussianBlur result="effect1_foregroundBlur_270_17918" stdDeviation="10.093"/></filter><filter id="e" width="1131.02" height="418.885" x="81.772" y="-301.462" color-interpolation-filters="sRGB" filterUnits="userSpaceOnUse"><feFlood flood-opacity="0" result="BackgroundImageFix"/><feBlend in="SourceGraphic" in2="BackgroundImageFix" result="shape"/><feGaussianBlur result="effect1_foregroundBlur_270_17918" stdDeviation="40.37"/></filter><filter id="f" width="1235.99" height="523.739" x="29.291" y="-353.833" color-interpolation-filters="sRGB" filterUnits="userSpaceOnUse"><feFlood flood-opacity="0" result="BackgroundImageFix"/><feBlend in="SourceGraphic" in2="BackgroundImageFix" result="shape"/><feGaussianBlur result="effect1_foregroundBlur_270_17918" stdDeviation="66.611"/></filter><filter id="h" width="899.543" height="406.142" x="162.32" y="-259.253" color-interpolation-filters="sRGB" filterUnits="userSpaceOnUse"><feFlood flood-opacity="0" result="BackgroundImageFix"/><feBlend in="SourceGraphic" in2="BackgroundImageFix" result="shape"/><feGaussianBlur result="effect1_foregroundBlur_270_17918" stdDeviation="50.463"/></filter><linearGradient id="c" x1="778.173" x2="779.07" y1="-206.01" y2="-101.926" gradientUnits="userSpaceOnUse"><stop stop-color="#F4E28D"/><stop offset=".24" stop-color="#F4E28D"/><stop offset=".734" stop-color="#F4E28D"/><stop offset="1" stop-color="#F4E28D"/></linearGradient><linearGradient id="g" x1="647.284" x2="648.156" y1="-222.583" y2="-121.53" gradientUnits="userSpaceOnUse"><stop stop-color="#D2F6FF"/><stop offset=".24" stop-color="#ADCFD8"/><stop offset=".734" stop-color="#4B8396"/><stop offset="1" stop-color="#1C6983"/></linearGradient><clipPath id="a"><path fill="#fff" d="M0 0h1440v251H0z"/></clipPath></defs></svg>