<svg xmlns="http://www.w3.org/2000/svg" width="17" height="17" fill="none"><g fill="#F4E28D" clip-path="url(#a)"><path d="M13.763 1.351a.6.6 0 0 1 .6.6v1.15h1.15a.6.6 0 1 1 0 1.2h-1.15v1.15a.6.6 0 1 1-1.2 0v-1.15h-1.15a.6.6 0 1 1 0-1.2h1.15v-1.15a.6.6 0 0 1 .6-.6z"/><path fill-rule="evenodd" d="M8.333 1.851a.6.6 0 0 1 .566.401l.705 2.006c.36 1.024.51 1.435.74 1.779a3.4 3.4 0 0 0 .784.826c.33.249.733.42 1.736.833l1.698.7a.6.6 0 0 1 0 1.11l-1.697.7c-1.004.414-1.406.585-1.737.834a3.383 3.383 0 0 0-.784.826c-.23.344-.38.755-.74 1.779L8.9 15.65a.6.6 0 0 1-1.133 0l-.705-2.005c-.36-1.024-.509-1.435-.739-1.779a3.399 3.399 0 0 0-.784-.826c-.33-.249-.733-.42-1.737-.834l-1.697-.7a.6.6 0 0 1 0-1.11l1.697-.7c1.004-.414 1.406-.584 1.737-.833a3.4 3.4 0 0 0 .784-.826c.23-.344.38-.755.74-1.779l.704-2.006a.6.6 0 0 1 .566-.4zm0 2.41-.167.476c-.322.917-.52 1.482-.846 1.968a4.6 4.6 0 0 1-1.06 1.118c-.468.351-1.022.58-1.92.95l-.433.178.432.179c.9.37 1.453.599 1.92.95a4.6 4.6 0 0 1 1.06 1.118c.326.486.525 1.05.847 1.968l.167.476.168-.476c.322-.918.52-1.482.846-1.968a4.6 4.6 0 0 1 1.06-1.118c.468-.351 1.021-.58 1.92-.95l.433-.179-.432-.178c-.9-.37-1.453-.599-1.92-.95a4.6 4.6 0 0 1-1.061-1.118c-.325-.486-.524-1.05-.846-1.968l-.168-.476z" clip-rule="evenodd"/><path d="M3.083 11.851a.6.6 0 0 1 .6.6v1.15h1.15a.6.6 0 1 1 0 1.2h-1.15v1.15a.6.6 0 1 1-1.2 0v-1.15h-1.15a.6.6 0 1 1 0-1.2h1.15v-1.15a.6.6 0 0 1 .6-.6z"/></g><defs><clipPath id="a"><path fill="#fff" d="M.333.951h16v16h-16z"/></clipPath></defs></svg>