<svg xmlns="http://www.w3.org/2000/svg" width="119" height="120" fill="none"><path stroke="#EAEBEE" stroke-width="1.297" d="M19.365 1.48h40.472v58.516H1.322V19.523C1.322 9.56 9.4 1.481 19.365 1.481zM.674 30.738h59.812M30.58.832v59.812M59.837 1.48h40.472c9.965 0 18.043 8.079 18.043 18.043v40.473H59.837V1.48zm-.649 29.258h59.813M89.095.832v59.812m-87.773-.648h58.515v58.515H19.365c-9.965 0-18.043-8.078-18.043-18.043V59.996zM.674 89.253h59.812M30.58 59.347v59.812m29.257-59.163h58.515v40.472c0 9.965-8.078 18.043-18.043 18.043H59.837V59.996zm-.649 29.257h59.813M89.095 59.347v59.812" opacity=".4"/></svg>