<svg xmlns="http://www.w3.org/2000/svg" width="218" height="70" fill="none"><path fill="#181C1F" fill-rule="evenodd" d="M79.906 33.731c0 2.919-3.55 3.425-6.004 3.425v-.008c-9.54 0-16.659-5.93-16.659-7.738a1.26 1.26 0 0 1 .043-.38c.212-.675 1.862-5.327 1.862-5.327.592-1.65 1.359-2.452 2.536-2.452.602 0 1.144.266 1.694.536.57.279 1.148.563 1.814.563.71 0 1.14-.401 1.552-.784.376-.351.737-.687 1.282-.687 1.226 0 5.37 1.606 7.273 2.579 2.451 1.226 2.748 1.86 3.085 3.256l1.461 6.346c.048.22.068.446.061.671zm.716 3.172c0-.212 0-.381-.34-1.987h.005c3.889 1.69 6.046 4.523 6.046 7.017 0 3.172-2.24 7.188-11.12 7.188C63.629 49.121 49 41.511 49 35.337c0-3.77 4.27-4.358 7.569-4.522a3.617 3.617 0 0 0-.297 1.437c0 3.552 8.034 8.926 17.205 8.92 4.058 0 7.145-1.524 7.145-4.27zm85.944 5.544c-2.558 0-3.96-1.134-3.96-3.466v-4.805H160.4v-2.785h2.214v-2.808l3.334-.722v3.53H169v2.785h-3.052v4.145c0 .99.39 1.32 1.444 1.32a4.866 4.866 0 0 0 1.506-.228v2.705c-.762.199-1.545.31-2.332.33zm-12.539-4.476c-1.092 0-1.816.352-1.816 1.073 0 .68.641 1.093 1.712 1.093a4.218 4.218 0 0 0 2.085-.516v-1.403a8.455 8.455 0 0 0-1.981-.247zm2.217 3.672c-.887.598-1.836.845-3.013.845l-.004.006c-2.434 0-3.96-1.463-3.96-3.381 0-2.105 1.691-3.281 4.497-3.281.835-.004 1.667.1 2.476.31v-.536c0-1.094-.71-1.63-2.083-1.63-.948 0-2.022.33-3.301.867l-1.196-2.455c1.776-.805 3.428-1.197 5.099-1.197 2.991 0 4.783 1.46 4.783 4.119v6.994h-3.298v-.661zm-17.599.667h-3.548l.014-14.445h3.548v5.548h5.94v-5.548h3.544v14.439h-3.557V36.65h-5.941v5.659zm-14.186-8.238c-1.63 0-2.868 1.197-2.868 2.766v.008c0 1.567 1.26 2.763 2.868 2.763a3.205 3.205 0 0 0 2.306-.875V34.92a3.376 3.376 0 0 0-2.306-.848zm5.652 8.24h-3.301l.008-.812c-.85.62-1.876.952-2.928.947a5.539 5.539 0 0 1-5.57-5.61c0-3.135 2.497-5.589 5.672-5.589a5.55 5.55 0 0 1 2.785.722v-4.105l3.334-.722v15.169zm-16.159-6.659c-.351-1.051-1.237-1.732-2.289-1.732-1.106 0-1.932.648-2.261 1.732h4.55zm-1.973 6.863c-3.34 0-5.939-2.475-5.939-5.653l.004-.006a5.61 5.61 0 0 1 1.654-4.023 5.604 5.604 0 0 1 4.034-1.627c3.177 0 5.507 2.495 5.507 5.96v.83h-7.776a2.822 2.822 0 0 0 2.683 1.732c.906 0 1.669-.289 2.185-.826l2.208 1.961c-1.383 1.156-2.724 1.652-4.56 1.652zm-9.855-9.99c0-.888-.659-1.629-1.836-1.629h-3.509v3.26h3.509c1.177 0 1.836-.742 1.836-1.63zm-5.349 9.778h-3.548v-14.44h7.39c3.058 0 5.1 2.001 5.1 4.6a4.373 4.373 0 0 1-2.723 4.064l3.178 5.776H102.2l-2.724-5.26h-2.7v5.26z" clip-rule="evenodd"/></svg>