<svg xmlns="http://www.w3.org/2000/svg" width="1000" height="997" fill="none"><rect width="199.832" height="199.832" x="637.455" y="398.427" stroke="#EAEBEE" stroke-opacity=".4" stroke-width="1.984" rx="99.916"/><path stroke="#EAEBEE" stroke-opacity=".4" stroke-width="1.984" d="M636.463 498.343h201.816M737.37 397.434V599.25"/><rect width="199.832" height="199.832" x="799.176" y="578.376" stroke="#EAEBEE" stroke-opacity=".4" stroke-width="1.984" rx="99.916"/><path stroke="#EAEBEE" stroke-opacity=".4" stroke-width="1.984" d="M798.184 678.293H1000M899.092 577.385V779.2"/><rect width="199.832" height="199.832" x="401.135" y="160.624" stroke="#EAEBEE" stroke-opacity=".4" stroke-width="1.984" rx="99.916"/><path stroke="#EAEBEE" stroke-opacity=".4" stroke-width="1.984" d="M400.144 260.541h201.815M501.052 159.633v201.815"/><rect width="199.832" height="199.832" x="585.385" y="1.785" stroke="#EAEBEE" stroke-opacity=".4" stroke-width="1.984" rx="99.916"/><path stroke="#EAEBEE" stroke-opacity=".4" stroke-width="1.984" d="M584.393 101.701h201.816M685.301.793V202.61"/><rect width="199.832" height="199.832" x="216.705" y="795.492" stroke="#EAEBEE" stroke-opacity=".4" stroke-width="1.984" rx="99.916"/><path stroke="#EAEBEE" stroke-opacity=".4" stroke-width="1.984" d="M215.712 895.408h201.816M316.621 794.5v201.816"/><rect width="199.832" height="199.832" x="401.135" y="636.23" stroke="#EAEBEE" stroke-opacity=".4" stroke-width="1.984" rx="99.916"/><path stroke="#EAEBEE" stroke-opacity=".4" stroke-width="1.984" d="M400.144 736.146h201.815M501.052 635.239v201.816"/><rect width="199.832" height="199.832" x="162.424" y="398.427" stroke="#EAEBEE" stroke-opacity=".4" stroke-width="1.984" rx="99.916"/><path stroke="#EAEBEE" stroke-opacity=".4" stroke-width="1.984" d="M161.432 498.343h201.816M262.34 397.434V599.25"/><rect width="199.832" height="199.832" x=".992" y="218.189" stroke="#EAEBEE" stroke-opacity=".4" stroke-width="1.984" rx="99.916"/><path stroke="#EAEBEE" stroke-opacity=".4" stroke-width="1.984" d="M0 318.106h201.816M100.907 217.198v201.815"/><rect width="199.832" height="199.832" x="799.176" y="218.189" stroke="#EAEBEE" stroke-opacity=".4" stroke-width="1.984" rx="99.916"/><path stroke="#EAEBEE" stroke-opacity=".4" stroke-width="1.984" d="M798.184 318.106H1000M899.092 217.198v201.815"/><rect width="199.832" height="199.832" x="216.705" y="1.785" stroke="#EAEBEE" stroke-opacity=".4" stroke-width="1.984" rx="99.916"/><path stroke="#EAEBEE" stroke-opacity=".4" stroke-width="1.984" d="M215.712 101.701h201.816M316.62.793V202.61"/><rect width="199.832" height="199.832" x="585.385" y="795.492" stroke="#EAEBEE" stroke-opacity=".4" stroke-width="1.984" rx="99.916"/><path stroke="#EAEBEE" stroke-opacity=".4" stroke-width="1.984" d="M584.393 895.408h201.816M685.301 794.5v201.816"/><rect width="199.832" height="199.832" x=".992" y="778.209" stroke="#EAEBEE" stroke-opacity=".4" stroke-width="1.984" rx="99.916" transform="rotate(-90 .992 778.209)"/><path stroke="#EAEBEE" stroke-opacity=".4" stroke-width="1.984" d="M100.907 779.201V577.385M0 678.292h201.816"/></svg>