<svg xmlns="http://www.w3.org/2000/svg" width="498" height="408" fill="none"><g stroke="#2D323A" opacity=".2"><path d="M.5 15.37C.5 7.69 6.727 1.463 14.41 1.463h31.199V46.57H.5v-31.2zM0 24.016h46.108M23.054.962V47.07"/><path d="M45.608 1.462h45.108V46.57H45.608zm-.5 22.554h46.107M68.162.962V47.07"/><path d="M90.715 1.462h45.108V46.57H90.715zm-.5 22.554h46.108M113.269.962V47.07m22.554-45.608h45.108V46.57h-45.108zm-.5 22.554h46.107M158.377.962V47.07m22.554-45.608h45.108V46.57h-45.108zm-.5 22.554h46.107M203.485.962V47.07"/><path d="M226.038 1.462h45.108V46.57h-45.108zm-.5 22.554h46.108M248.592.962V47.07m22.554-45.608h45.108V46.57h-45.108zm-.5 22.554h46.107M293.7.962V47.07"/><path d="M316.253 1.462h45.108V46.57h-45.108zm-.5 22.554h46.108M338.807.962V47.07m22.554-45.608h45.108V46.57h-45.108zm-.5 22.554h46.107M383.915.962V47.07"/><path d="M406.468 1.462h45.108V46.57h-45.108zm-.5 22.554h46.108M429.022.962V47.07m22.554-45.608h31.199c7.681 0 13.909 6.227 13.909 13.909V46.57h-45.108V1.462zm-.5 22.554h46.107M474.13.962V47.07M.5 46.57h45.108v45.108H.5zM0 69.124h46.108M23.054 46.07v46.107M45.608 46.57h45.108v45.108H45.608zm-.5 22.554h46.107M68.162 46.07v46.107"/><path d="M90.715 46.57h45.108v45.108H90.715zm-.5 22.554h46.108M113.269 46.07v46.107m22.554-45.607h45.108v45.108h-45.108zm-.5 22.554h46.107M158.377 46.07v46.107m22.554-45.607h45.108v45.108h-45.108zm-.5 22.554h46.107M203.485 46.07v46.107"/><path d="M226.038 46.57h45.108v45.108h-45.108zm-.5 22.554h46.108M248.592 46.07v46.107m22.554-45.607h45.108v45.108h-45.108zm-.5 22.554h46.107M293.7 46.07v46.107"/><path d="M316.253 46.57h45.108v45.108h-45.108zm-.5 22.554h46.108M338.807 46.07v46.107m22.554-45.607h45.108v45.108h-45.108zm-.5 22.554h46.107M383.915 46.07v46.107"/><path d="M406.468 46.57h45.108v45.108h-45.108zm-.5 22.554h46.108M429.022 46.07v46.107m22.554-45.607h45.108v45.108h-45.108zm-.5 22.554h46.108M474.13 46.07v46.107M.5 91.677h45.108v45.108H.5zM0 114.231h46.108M23.054 91.177v46.108m22.554-45.608h45.108v45.108H45.608zm-.5 22.554h46.107M68.162 91.177v46.108"/><path d="M90.715 91.677h45.108v45.108H90.715zm-.5 22.554h46.108m-23.054-23.054v46.108m22.554-45.608h45.108v45.108h-45.108zm-.5 22.554h46.107m-23.053-23.054v46.108m22.554-45.608h45.108v45.108h-45.108zm-.5 22.554h46.107m-23.053-23.054v46.108"/><path d="M226.038 91.677h45.108v45.108h-45.108zm-.5 22.554h46.108m-23.054-23.054v46.108m22.554-45.608h45.108v45.108h-45.108zm-.5 22.554h46.107M293.7 91.177v46.108"/><path d="M316.253 91.677h45.108v45.108h-45.108zm-.5 22.554h46.108m-23.054-23.054v46.108m22.554-45.608h45.108v45.108h-45.108zm-.5 22.554h46.107m-23.053-23.054v46.108"/><path d="M406.468 91.677h45.108v45.108h-45.108zm-.5 22.554h46.108m-23.054-23.054v46.108m22.554-45.608h45.108v45.108h-45.108zm-.5 22.554h46.108M474.13 91.177v46.108m-473.63-.5h45.108v45.108H.5zM0 159.339h46.108m-23.054-23.054v46.107m22.554-45.607h45.108v45.108H45.608zm-.5 22.554h46.107m-23.053-23.054v46.107"/><path d="M90.715 136.785h45.108v45.108H90.715zm-.5 22.554h46.108m-23.054-23.054v46.107m22.554-45.607h45.108v45.108h-45.108zm-.5 22.554h46.107m-23.053-23.054v46.107m22.554-45.607h45.108v45.108h-45.108zm-.5 22.554h46.107m-23.053-23.054v46.107"/><path d="M226.038 136.785h45.108v45.108h-45.108zm-.5 22.554h46.108m-23.054-23.054v46.107m22.554-45.607h45.108v45.108h-45.108zm-.5 22.554h46.107M293.7 136.285v46.107"/><path d="M316.253 136.785h45.108v45.108h-45.108zm-.5 22.554h46.108m-23.054-23.054v46.107m22.554-45.607h45.108v45.108h-45.108zm-.5 22.554h46.107m-23.053-23.054v46.107"/><path d="M406.468 136.785h45.108v45.108h-45.108zm-.5 22.554h46.108m-23.054-23.054v46.107m22.554-45.607h45.108v45.108h-45.108zm-.5 22.554h46.108m-23.054-23.054v46.107m-473.63-.5h45.108V227H.5zM0 204.446h46.108m-23.054-23.054V227.5m22.554-45.608h45.108V227H45.608zm-.5 22.554h46.107m-23.053-23.054V227.5"/><path d="M90.715 181.892h45.108V227H90.715zm-.5 22.554h46.108m-23.054-23.054V227.5m22.554-45.608h45.108V227h-45.108zm-.5 22.554h46.107m-23.053-23.054V227.5m22.554-45.608h45.108V227h-45.108zm-.5 22.554h46.107m-23.053-23.054V227.5"/><path d="M226.038 181.892h45.108V227h-45.108zm-.5 22.554h46.108m-23.054-23.054V227.5m22.554-45.608h45.108V227h-45.108zm-.5 22.554h46.107M293.7 181.392V227.5"/><path d="M316.253 181.892h45.108V227h-45.108zm-.5 22.554h46.108m-23.054-23.054V227.5m22.554-45.608h45.108V227h-45.108zm-.5 22.554h46.107m-23.053-23.054V227.5"/><path d="M406.468 181.892h45.108V227h-45.108zm-.5 22.554h46.108m-23.054-23.054V227.5m22.554-45.608h45.108V227h-45.108zm-.5 22.554h46.108m-23.054-23.054V227.5M.5 227h45.108v45.108H.5zM0 249.554h46.108M23.054 226.5v46.108M45.608 227h45.108v45.108H45.608zm-.5 22.554h46.107M68.162 226.5v46.108"/><path d="M90.715 227h45.108v45.108H90.715zm-.5 22.554h46.108M113.269 226.5v46.108M135.823 227h45.108v45.108h-45.108zm-.5 22.554h46.107M158.377 226.5v46.108M180.931 227h45.108v45.108h-45.108zm-.5 22.554h46.107M203.485 226.5v46.108"/><path d="M226.038 227h45.108v45.108h-45.108zm-.5 22.554h46.108M248.592 226.5v46.108M271.146 227h45.108v45.108h-45.108zm-.5 22.554h46.107M293.7 226.5v46.108"/><path d="M316.253 227h45.108v45.108h-45.108zm-.5 22.554h46.108M338.807 226.5v46.108M361.361 227h45.108v45.108h-45.108zm-.5 22.554h46.107M383.915 226.5v46.108"/><path d="M406.468 227h45.108v45.108h-45.108zm-.5 22.554h46.108M429.022 226.5v46.108M451.576 227h45.108v45.108h-45.108zm-.5 22.554h46.108M474.13 226.5v46.108m-473.63-.5h45.108v45.108H.5zM0 294.661h46.108m-23.054-23.054v46.108m22.554-45.607h45.108v45.108H45.608zm-.5 22.553h46.107m-23.053-23.054v46.108"/><path d="M90.715 272.108h45.108v45.108H90.715zm-.5 22.553h46.108m-23.054-23.054v46.108m22.554-45.607h45.108v45.108h-45.108zm-.5 22.553h46.107m-23.053-23.054v46.108m22.554-45.607h45.108v45.108h-45.108zm-.5 22.553h46.107m-23.053-23.054v46.108"/><path d="M226.038 272.108h45.108v45.108h-45.108zm-.5 22.553h46.108m-23.054-23.054v46.108m22.554-45.607h45.108v45.108h-45.108zm-.5 22.553h46.107M293.7 271.607v46.108"/><path d="M316.253 272.108h45.108v45.108h-45.108zm-.5 22.553h46.108m-23.054-23.054v46.108m22.554-45.607h45.108v45.108h-45.108zm-.5 22.553h46.107m-23.053-23.054v46.108"/><path d="M406.468 272.108h45.108v45.108h-45.108zm-.5 22.553h46.108m-23.054-23.054v46.108m22.554-45.607h45.108v45.108h-45.108zm-.5 22.553h46.108m-23.054-23.053v46.107m-473.63-.5h45.108v45.108H.5zM0 339.769h46.108m-23.054-23.054v46.108m22.554-45.608h45.108v45.108H45.608zm-.5 22.554h46.107m-23.053-23.054v46.108"/><path d="M90.715 317.215h45.108v45.108H90.715zm-.5 22.554h46.108m-23.054-23.054v46.108m22.554-45.608h45.108v45.108h-45.108zm-.5 22.554h46.107m-23.053-23.054v46.108m22.554-45.608h45.108v45.108h-45.108zm-.5 22.554h46.107m-23.053-23.054v46.108"/><path d="M226.038 317.215h45.108v45.108h-45.108zm-.5 22.554h46.108m-23.054-23.054v46.108m22.554-45.608h45.108v45.108h-45.108zm-.5 22.554h46.107M293.7 316.715v46.108"/><path d="M316.253 317.215h45.108v45.108h-45.108zm-.5 22.554h46.108m-23.054-23.054v46.108m22.554-45.608h45.108v45.108h-45.108zm-.5 22.554h46.107m-23.053-23.054v46.108"/><path d="M406.468 317.215h45.108v45.108h-45.108zm-.5 22.554h46.108m-23.054-23.054v46.108m22.554-45.608h45.108v45.108h-45.108zm-.5 22.554h46.108m-23.054-23.054v46.108m-473.63-.5h45.108v45.107h-31.2C6.729 407.43.5 401.203.5 393.522v-31.199zM0 384.877h46.108m-23.054-23.054v46.107m22.554-45.607h45.108v45.108H45.608zm-.5 22.554h46.107m-23.053-23.054v46.107"/><path d="M90.715 362.323h45.108v45.108H90.715zm-.5 22.554h46.108m-23.054-23.054v46.107m22.554-45.607h45.108v45.108h-45.108zm-.5 22.554h46.107m-23.053-23.054v46.107m22.554-45.607h45.108v45.108h-45.108zm-.5 22.554h46.107m-23.053-23.054v46.107"/><path d="M226.038 362.323h45.108v45.108h-45.108zm-.5 22.554h46.108m-23.054-23.054v46.107m22.554-45.607h45.108v45.108h-45.108zm-.5 22.554h46.107M293.7 361.823v46.107"/><path d="M316.253 362.323h45.108v45.108h-45.108zm-.5 22.554h46.108m-23.054-23.054v46.107m22.554-45.607h45.108v45.108h-45.108zm-.5 22.554h46.107m-23.053-23.054v46.107"/><path d="M406.468 362.323h45.108v45.108h-45.108zm-.5 22.554h46.108m-23.054-23.054v46.107"/><path d="M451.576 362.323h45.108v31.199c0 7.681-6.228 13.908-13.909 13.908h-31.199v-45.107zm-.5 22.554h46.107m-23.053-23.054v46.107"/></g><path fill="url(#a)" d="M0 0h360.861v451.076H0z" transform="matrix(0 -1 -1 0 474.13 384.877)"/><defs><linearGradient id="a" x1="180.43" x2="180.43" y1="0" y2="451.076" gradientUnits="userSpaceOnUse"><stop stop-color="#F25B3A" stop-opacity=".3"/><stop offset="1" stop-color="#F25B3A" stop-opacity="0"/></linearGradient></defs></svg>