<svg xmlns="http://www.w3.org/2000/svg" width="1024" height="435" fill="none"><g clip-path="url(#a)"><path fill="#fff" d="M0 .534h1024v434.274H0z"/><g filter="url(#b)"><path fill="url(#c)" d="M45.699 1108.47c-258.545-351.474-290.376-614.756-10.442-905.306 279.935-290.55 913.12-217.48 1192.153 51.363 166.1 160.027-694.344 562.938-819.192 850.263-53.219 122.48 511.446-188.784 476.346-58.61-86.24 221.48-144.536 337.34-279.926 381.85-150.339 49.43-419.64-130.2-558.939-319.56z"/></g><g filter="url(#d)" opacity=".8"><path fill="#FDA599" d="M353.914 715.029C136.244 505.312-12.994 282.955 238.654 21.764c251.649-261.191 632.107-302.919 849.776-93.201C1218 53.395 918.013 71.837 796.41 321.1c-51.836 106.254 205.15 254.089 103.298 359.808-119.241 123.763-141.057 292.528-257.064 338.042-128.815 50.53-174.2-193.576-288.73-303.921z"/></g><g filter="url(#e)"><path fill="url(#f)" d="M-168.035 1059.55C-410.217 826.215-291.755 216.878-37.993-46.507S496.42-64.313 738.601 169.021c144.157 138.89 95.849 120.482 119.834 194.715 39.094 120.991-34.926 211.955-137.638 318.562-120.243 124.802-61.448 179.904-182.329 222.04-134.227 46.789-579.077 277.982-706.503 155.212z"/></g><g filter="url(#g)"><path fill="#fff" d="M-13.495 629.247C-201.721 447.898-26.7 363.502 170.078 159.262c196.778-204.24 401.007-296.019 589.233-114.67 58.965 56.811 212.836 186.718 240.709 267.435 61.09 176.943-68.789 331.382-203.923 471.64-108.108 112.208-313.202 210.63-451.264 208.39-113.237-1.838-273.512-281.093-358.328-362.81z"/></g></g><defs><filter id="b" width="1510.38" height="1519.83" x="-211.762" y="-33.493" color-interpolation-filters="sRGB" filterUnits="userSpaceOnUse"><feFlood flood-opacity="0" result="BackgroundImageFix"/><feBlend in="SourceGraphic" in2="BackgroundImageFix" result="shape"/><feGaussianBlur result="effect1_foregroundBlur_334_3824" stdDeviation="25"/></filter><filter id="d" width="1313.13" height="1530.79" x="-42.872" y="-355.04" color-interpolation-filters="sRGB" filterUnits="userSpaceOnUse"><feFlood flood-opacity="0" result="BackgroundImageFix"/><feBlend in="SourceGraphic" in2="BackgroundImageFix" result="shape"/><feGaussianBlur result="effect1_foregroundBlur_334_3824" stdDeviation="75"/></filter><filter id="e" width="1409.31" height="1495.32" x="-420.258" y="-280.257" color-interpolation-filters="sRGB" filterUnits="userSpaceOnUse"><feFlood flood-opacity="0" result="BackgroundImageFix"/><feBlend in="SourceGraphic" in2="BackgroundImageFix" result="shape"/><feGaussianBlur result="effect1_foregroundBlur_334_3824" stdDeviation="60"/></filter><filter id="g" width="1409.59" height="1344.77" x="-244.045" y="-202.675" color-interpolation-filters="sRGB" filterUnits="userSpaceOnUse"><feFlood flood-opacity="0" result="BackgroundImageFix"/><feBlend in="SourceGraphic" in2="BackgroundImageFix" result="shape"/><feGaussianBlur result="effect1_foregroundBlur_334_3824" stdDeviation="75"/></filter><linearGradient id="c" x1="1012.93" x2="81.453" y1="1052.66" y2="155.216" gradientUnits="userSpaceOnUse"><stop offset=".045" stop-color="#F4E28D"/><stop offset=".645" stop-color="#F4E28D"/><stop offset="1" stop-color="#5B6D72"/></linearGradient><linearGradient id="f" x1="761.459" x2="442.011" y1="723.492" y2="431.932" gradientUnits="userSpaceOnUse"><stop stop-color="#D2F6FF"/><stop offset=".24" stop-color="#BBDDE5"/><stop offset=".734" stop-color="#BBDDE5"/><stop offset="1" stop-color="#BBDDE5"/></linearGradient><clipPath id="a"><path fill="#fff" d="M0 .534h1024v434.274H0z"/></clipPath></defs></svg>