<svg xmlns="http://www.w3.org/2000/svg" width="17" height="16" fill="none"><g clip-path="url(#a)"><path fill="#3F89A1" fill-rule="evenodd" d="M5.779 3.125a2.225 2.225 0 1 1 4.45 0V3.5h.07c.437 0 .795 0 1.088.02.302.02.578.065.843.174a2.55 2.55 0 0 1 1.38 1.38c.11.265.153.54.174.843.01.152.015.32.018.508h.377a2.225 2.225 0 0 1 0 4.45h-.375v.53c0 .525 0 .955-.029 1.305-.03.362-.093.69-.25.998a2.55 2.55 0 0 1-1.114 1.114c-.307.157-.635.22-.997.25-.35.028-.78.028-1.305.028h-.48a.6.6 0 0 1-.6-.6v-1.137a.863.863 0 0 0-1.725 0V14.5a.6.6 0 0 1-.6.6h-.805c-.525 0-.955 0-1.305-.028-.362-.03-.69-.093-.998-.25a2.55 2.55 0 0 1-1.114-1.114c-.157-.307-.22-.636-.25-.998-.028-.35-.028-.78-.028-1.305v-.155c0-.87.705-1.575 1.575-1.575a1.025 1.025 0 0 0 0-2.05c-.852 0-1.608-.695-1.561-1.605.017-.344.059-.653.18-.946a2.55 2.55 0 0 1 1.38-1.38c.264-.11.54-.153.843-.174.293-.02.65-.02 1.087-.02h.07v-.375zM8.004 2.1c-.566 0-1.025.459-1.025 1.025V4.1a.6.6 0 0 1-.6.6h-.65c-.463 0-.78 0-1.026.017-.242.017-.372.047-.466.086-.33.137-.593.4-.73.73-.044.106-.076.254-.09.548-.01.165.136.344.362.344a2.225 2.225 0 1 1 0 4.45.375.375 0 0 0-.375.375v.13c0 .556 0 .937.024 1.232.024.288.067.441.123.551.13.254.336.46.59.59.11.056.263.099.551.123.295.024.676.024 1.232.024h.18v-.537a2.063 2.063 0 0 1 4.125 0v.537c.478 0 .818-.002 1.087-.024.288-.024.44-.067.55-.123.255-.13.461-.336.59-.59.057-.11.1-.263.123-.551.024-.295.025-.676.025-1.232v-1.105a.6.6 0 0 1 .6-.6h.975a1.025 1.025 0 0 0 0-2.05h-.975a.6.6 0 0 1-.6-.6c0-.462 0-.78-.017-1.026-.017-.241-.047-.372-.086-.465a1.35 1.35 0 0 0-.73-.731c-.094-.039-.225-.07-.466-.086a16.75 16.75 0 0 0-1.026-.017h-.65a.6.6 0 0 1-.6-.6v-.975c0-.566-.459-1.025-1.025-1.025z" clip-rule="evenodd"/></g><defs><clipPath id="a"><path fill="#fff" d="M.804 0h16v16h-16z"/></clipPath></defs></svg>