<svg xmlns="http://www.w3.org/2000/svg" width="218" height="70" fill="none"><path fill="#181C1F" d="M72.4 20.709c-2.11 0-4.354 1.622-6.166 5.435l-2.325-5.598h-.136c-.378.893-1.568 1.38-2.704 1.38H48.766v.243c.973.405 1.838 1.839 2.65 3.759l7.625 18.388h.244l4.948-11.98 4.949 11.98h.243l4.219-10.52c1.622-4.137 2.704-6.408 2.704-8.463 0-2.704-1.515-4.624-3.948-4.624zM60.96 37.96l-4.948-12.006c-.812-1.947-.054-3.353 1.974-3.353 1.784 0 2.677 1.19 3.569 3.326l2.19 5.273-2.785 6.76zm11.844-4.489-1.73 4.38-4.57-10.978c1.108-1.622 2.569-2.244 4.245-2.244 2.001 0 3.19 1.379 3.19 3.84 0 1.352-.35 3.028-1.135 5.002zm64.008-.864c0-2.434-2.488-4.219-5.679-4.219-4.813 0-8.085 4.165-8.085 8.518 0 4.76 3.623 7.599 7.22 7.599 2.893 0 5.679-1.758 6.544-4.813l-.216-.19c-.974 1.46-2.678 2.245-4.381 2.245-2.245 0-4.056-1.271-4.895-3.57 4.624-.703 9.492-1.947 9.492-5.57zm-9.681 4.894c-.189-.703-.27-1.487-.27-2.271 0-3.867 1.622-6.03 3.65-6.03 1.569 0 2.055 1.325 2.055 2.758 0 2.947-2.677 4.948-5.435 5.543zm39.048-9.545c-2.056 0-4.03 1.92-5.219 4.543l-2.028-4.273h-.244c-.378 1.46-2.19 2.272-4.191 2.245v.243c1.244.297 1.784 1.487 2.569 3.056l5.273 10.843-.352.65c-1.136 2.217-1.893 3.028-2.704 3.028-1.46 0-1.568-2.11-3.326-2.11-1.028 0-1.893.704-1.893 1.948 0 1.406 1.541 2.271 3.164 2.271 2.353 0 3.813-1.839 5.381-4.813l4.083-7.599c1.623-3.056 2.542-4.38 2.542-6.68-.081-1.81-1.135-3.352-3.055-3.352zm-.271 9.653-1.298 2.515-3.353-7.058c.649-1.135 1.785-2.055 3.461-2.055 1.569 0 2.407.974 2.407 2.596-.027 1.11-.406 2.461-1.217 4.002zM92.95 40.963v-9.167c0-2.055-1.27-3.408-3.19-3.408-2.299 0-5.165 2.083-6.733 3.597V19.6h-.217c-.919 1.46-3.299 2.353-5.597 2.271v.244c1.298.351 1.704 1.27 1.704 3.056v15.792c0 1.325-.595 2.406-1.677 2.839v.243h7.49v-.216c-1.108-.622-1.73-1.514-1.73-2.785v-8.302c1.757-1.27 3.082-1.893 4.083-1.893 1.109 0 1.73.811 1.73 2.434v7.734c0 1.27-.567 2.136-1.73 2.785v.243H94.6v-.216c-1.054-.46-1.65-1.514-1.65-2.866zm55.679-12.575c-2.136 0-4.191 1.569-5.327 2.786V19.6h-.189c-1.082 1.46-3.543 2.353-5.733 2.271v.244c1.217.351 1.784 1.298 1.784 3.056v19.172h.271l1.974-2.19c.865 1.379 2.488 2.19 4.462 2.19 4.948 0 8.328-4.219 8.328-8.816 0-4.191-2.65-7.139-5.57-7.139zm-2.893 15.17c-1.461 0-2.434-1.19-2.434-2.812v-8.734c.973-.865 2.082-1.65 3.299-1.623 2.082.027 3.272 2.38 3.299 5.977.054 4.056-1.623 7.193-4.164 7.193zm-25.014-15.17c-1.622 0-3.434 1.758-4.245 3.408v-3.597h-.244c-1 1.46-3.38 2.326-5.624 2.272v.243c1.217.352 1.812 1.325 1.812 3.056v7.084c0 1.352-.595 2.434-1.785 2.975v.243h7.68v-.243c-1.217-.54-1.758-1.596-1.758-2.975v-8.301c.433-.568.946-1.163 1.541-1.163 1.109 0 1.542 1.325 2.921 1.325.946 0 1.947-.784 1.947-2.082a2.239 2.239 0 0 0-2.245-2.245zm-11.465 4.219c0-2.434-2.488-4.219-5.679-4.219-4.813 0-8.085 4.165-8.085 8.518 0 4.76 3.623 7.599 7.22 7.599 2.893 0 5.679-1.758 6.544-4.813l-.216-.19c-.974 1.46-2.677 2.245-4.381 2.245-2.245 0-4.056-1.271-4.895-3.57 4.597-.703 9.492-1.947 9.492-5.57zM99.549 37.5c-.19-.703-.27-1.487-.27-2.271 0-3.867 1.622-6.03 3.65-6.03 1.569 0 2.082 1.325 2.082 2.758 0 2.947-2.704 4.948-5.462 5.543z"/></svg>