<svg xmlns="http://www.w3.org/2000/svg" width="16" height="17" fill="none"><path fill="#F4E28D" fill-rule="evenodd" d="M4.6 2.543a1.4 1.4 0 0 0-1.4 1.4v9.26H2v-9.26a2.6 2.6 0 0 1 2.6-2.6h6.523a2.6 2.6 0 0 1 2.6 2.593l.015 6.53a1.6 1.6 0 0 1-1.6 1.603H8.073v-1.2h4.065a.4.4 0 0 0 .4-.4v-.001l-.015-6.529a1.4 1.4 0 0 0-1.4-1.396H4.6z" clip-rule="evenodd"/><path fill="#F4E28D" d="M7.91 12.062h.6v-1.2h-.6v1.2zm5.209 3.354a.6.6 0 0 0 0-1.2v1.2zm-8.842-3.354h3.632v-1.2H4.277v1.2zm8.842 2.154H4.277v1.2h8.842v-1.2zm-8.842 0A1.077 1.077 0 0 1 3.2 13.139H2a2.277 2.277 0 0 0 2.277 2.277v-1.2zm0-3.354A2.277 2.277 0 0 0 2 13.139h1.2c0-.595.482-1.077 1.077-1.077v-1.2z"/><path fill="#F4E28D" fill-rule="evenodd" d="M5.359 5.448a.6.6 0 0 1 .6-.6H9.78a.6.6 0 1 1 0 1.2H5.959a.6.6 0 0 1-.6-.6zm7.826 5.192a.6.6 0 0 1 .22.82c-.317.552-.445 1.037-.424 1.488.02.449.192.924.577 1.452a.6.6 0 0 1-.97.707c-.49-.672-.772-1.368-.806-2.104-.034-.734.182-1.445.584-2.143a.6.6 0 0 1 .82-.22z" clip-rule="evenodd"/></svg>