<svg xmlns="http://www.w3.org/2000/svg" width="218" height="70" fill="none"><path fill="#181C1F" d="M93.3 24.752h7.274c1.766 0 3.354.345 4.734 1.035 1.38.677 2.443 1.643 3.202 2.912.759 1.243 1.145 2.692 1.145 4.334 0 1.643-.386 3.092-1.145 4.348-.759 1.242-1.822 2.208-3.202 2.912-1.38.676-2.954 1.021-4.734 1.021H93.3V24.752zm7.136 13.954c1.214 0 2.291-.235 3.202-.69.938-.47 1.642-1.132 2.139-1.988.511-.87.759-1.863.759-3.009 0-1.145-.248-2.125-.759-2.98a4.822 4.822 0 0 0-2.139-1.988c-.925-.47-1.988-.704-3.202-.704h-4.044v11.345h4.044v.014zm24.139-3.644c0 .207-.014.497-.041.87h-9.965c.179.924.621 1.67 1.352 2.222.746.538 1.656.8 2.761.8 1.394 0 2.539-.455 3.45-1.366l1.587 1.822c-.566.676-1.297 1.187-2.167 1.532-.869.345-1.849.524-2.939.524-1.394 0-2.623-.276-3.686-.828-1.062-.552-1.89-1.311-2.47-2.291-.566-.994-.856-2.112-.856-3.354s.276-2.332.828-3.312a6.015 6.015 0 0 1 2.347-2.32c.993-.551 2.125-.827 3.381-.827 1.256 0 2.333.276 3.299.828a5.6 5.6 0 0 1 2.277 2.291c.566.994.842 2.126.842 3.41zm-6.418-4.154c-.952 0-1.753.29-2.429.855-.649.552-1.049 1.298-1.187 2.223h7.205c-.125-.911-.511-1.657-1.16-2.223-.648-.565-1.463-.855-2.429-.855zm21.2 4.154c0 .207-.014.497-.042.87h-9.951c.18.924.621 1.67 1.353 2.222.745.538 1.67.8 2.76.8 1.394 0 2.54-.455 3.451-1.366l1.587 1.822c-.566.676-1.298 1.187-2.167 1.532-.87.345-1.849.524-2.94.524-1.394 0-2.622-.276-3.685-.828-1.063-.552-1.891-1.311-2.47-2.291-.566-.994-.856-2.112-.856-3.354s.276-2.332.828-3.312a6.02 6.02 0 0 1 2.346-2.32c.994-.551 2.126-.827 3.368-.827s2.332.276 3.299.828a5.606 5.606 0 0 1 2.277 2.291c.566.994.842 2.126.842 3.41zm-6.418-4.154c-.952 0-1.753.29-2.429.855-.649.552-1.049 1.298-1.187 2.223h7.204c-.124-.911-.51-1.657-1.159-2.223-.662-.565-1.463-.855-2.429-.855zm16.3-2.36c1.228 0 2.332.262 3.298.8a5.805 5.805 0 0 1 2.305 2.277c.552.98.828 2.098.828 3.382 0 1.283-.276 2.415-.828 3.409a5.805 5.805 0 0 1-2.305 2.277c-.966.538-2.07.8-3.298.8-1.712 0-3.064-.565-4.058-1.697v6.128h-2.967V28.686h2.829v1.656a4.732 4.732 0 0 1 1.808-1.353 5.845 5.845 0 0 1 2.388-.441zm-.331 10.392c1.09 0 1.987-.358 2.677-1.09.718-.718 1.077-1.684 1.077-2.857 0-1.173-.359-2.14-1.077-2.857-.704-.718-1.587-1.09-2.677-1.09-.718 0-1.353.165-1.919.497a3.477 3.477 0 0 0-1.352 1.366c-.332.593-.497 1.297-.497 2.084 0 .787.165 1.477.497 2.084a3.55 3.55 0 0 0 1.352 1.394 3.7 3.7 0 0 0 1.919.47zm9.868-14.188h3.091v13.954h8.695V41.3h-11.786V24.752z"/><path fill="#181C1F" fill-rule="evenodd" d="m81.352 22.059-15.07-8.718a2.487 2.487 0 0 0-2.516 0l-15.07 8.747a2.522 2.522 0 0 0-1.259 2.168V41.72a2.52 2.52 0 0 0 1.258 2.19l15.07 8.725c.037.022.08.044.117.065l7.423 4.3-.022-3.78.015-2.096.007.037v-.709c0-.42.217-.795.542-1.026l.484-.275.232-.13h-.015l8.804-5.096a2.531 2.531 0 0 0 1.258-2.19V24.249a2.53 2.53 0 0 0-1.258-2.19zM63.29 39.819a2.618 2.618 0 0 1-.73 2.537 2.583 2.583 0 0 1-3.614 0 2.603 2.603 0 0 1 0-3.78 2.583 2.583 0 0 1 3.614 0c.043.043.087.086.13.136l6.1-3.512 1.258.708-6.758 3.91zm10.582-4.424a2.583 2.583 0 0 1-3.614 0 2.612 2.612 0 0 1-.68-2.71l-.021.014-6.881-3.983c-.037.036-.066.072-.102.101a2.583 2.583 0 0 1-3.614 0 2.603 2.603 0 0 1 0-3.78 2.583 2.583 0 0 1 3.614 0c.723.694.962 1.684.716 2.58l6.932 4.034.036-.037a2.583 2.583 0 0 1 3.614 0 2.615 2.615 0 0 1 0 3.78z" clip-rule="evenodd"/></svg>