<svg xmlns="http://www.w3.org/2000/svg" width="218" height="70" fill="none"><g fill="#181C1F" clip-path="url(#a)"><path d="M195.524 29.535a1.423 1.423 0 0 1-1.424-1.416 1.43 1.43 0 0 1 1.424-1.423 1.43 1.43 0 0 1 1.423 1.423c0 .782-.642 1.416-1.423 1.416zm0-3.186c-.974 0-1.771.797-1.771 1.77 0 .974.797 1.77 1.771 1.77.973 0 1.769-.796 1.769-1.77 0-.973-.796-1.77-1.769-1.77z"/><path d="m195.641 28.045-.376.008-.007-.457h.376c.14-.008.251.08.251.22.007.14-.103.23-.244.23zm.613-.236c-.008-.31-.222-.53-.568-.53l-.789.014.022 1.667h.361l-.007-.598h.258l.339.59.406-.007-.384-.634c.177-.044.362-.207.362-.502zM58.728 39.927h-4.425V29.724h4.304c1.16 0 1.886.75 1.886 1.765 0 1.016-.726 1.74-1.886 1.74h-4.92v2.95h5.04c1.355 0 2.08.87 2.08 1.886 0 1.16-.774 1.862-2.08 1.862zm2.49-5.343c1.523-.315 2.78-1.669 2.78-3.699 0-2.152-1.571-4.11-4.642-4.11H50.87v16.126h8.752c3.07 0 4.69-1.935 4.69-4.353 0-2.03-1.378-3.698-3.095-3.964zm13.144-.436H70.65v3.023h2.624l3.167 5.73h3.94l-3.626-6.142c1.741-.41 3.53-1.934 3.53-4.786m0 0c0-2.998-2.055-5.198-5.416-5.198h-7.543V42.9h3.433V29.797h3.603c1.378 0 2.417.822 2.417 2.176s-1.04 2.175-2.417 2.175m32.022 2.999 2.514-6.939 2.515 6.939h-5.029zm.363-10.372-6.238 16.126h3.916l1.016-2.732h6.915l.991 2.732h3.917l-6.214-16.126h-4.303zm19.842 13.103h-2.926V29.797h2.926c3.312 0 5.052 2.2 5.052 5.053 0 2.732-1.861 5.028-5.052 5.028zm0-13.103h-6.359v16.126h6.359c5.052 0 8.558-3.192 8.558-8.051 0-4.86-3.506-8.075-8.558-8.075zm60.568-.003-4.229 6.836-4.228-6.836h-3.796V42.9h3.434V32.36l3.697 5.62a1.07 1.07 0 0 0 1.787 0l3.697-5.62V42.9h3.434V26.772h-3.796zM91.171 40.047a5.168 5.168 0 1 1 0-10.336 5.168 5.168 0 0 1 0 10.337zm0-13.67a8.502 8.502 0 1 0 0 17.003 8.502 8.502 0 0 0 0-17.003zm59.427 11.003a5.168 5.168 0 0 1-9.691-2.501 5.168 5.168 0 0 1 9.667-2.54l2.412-2.41a8.501 8.501 0 0 0-15.412 4.95 8.502 8.502 0 0 0 15.437 4.914l-2.413-2.413zm13.378 2.667a5.169 5.169 0 1 1 0-10.337 5.169 5.169 0 0 1 0 10.337zm0-13.67a8.501 8.501 0 1 0 0 17.003 8.502 8.502 0 0 0 0-17.003z"/><path fill-rule="evenodd" d="M44.657 34.998c0 6.613-5.36 11.973-11.974 11.973-6.613 0-11.974-5.36-11.974-11.973s5.36-11.974 11.974-11.974c6.613 0 11.974 5.361 11.974 11.974zm-5.303 3.634c1.256-.762 2.51-.945 3.88-.4.295.119.586.25.864.384a12.04 12.04 0 0 1-.701 1.73 6.109 6.109 0 0 0-.945-.393 2.318 2.318 0 0 0-1.412.01c-.409.137-.777.37-1.14.6l-.113.07-.002.001c-.754.474-1.608 1.011-2.695 1.011-1.613 0-2.745-.962-3.106-2.64-.28-1.302-1.302-6.21-1.302-6.21a478.734 478.734 0 0 1-1.3 6.21c-.361 1.678-1.493 2.64-3.105 2.64-1.087 0-1.942-.537-2.696-1.011a94.749 94.749 0 0 1-.114-.072c-.363-.23-.732-.462-1.14-.6a2.318 2.318 0 0 0-1.412-.01 6.123 6.123 0 0 0-.946.393 12.082 12.082 0 0 1-.7-1.729c.277-.133.568-.265.864-.383 1.369-.546 2.623-.363 3.88.399l.595.365.009.006c.582.365 1.132.71 1.66.71.507 0 1.005-.136 1.216-1.116.33-1.529 1.132-5.286 1.482-7.146.206-1.094.319-1.683.436-2.084.205-.7.58-1.082 1.111-1.146 0 0 .093-.013.161-.013.069 0 .153.012.153.012.536.06.913.444 1.12 1.147.117.4.23.99.436 2.084.35 1.86 1.152 5.617 1.481 7.146.211.98.71 1.116 1.217 1.116.528 0 1.077-.345 1.66-.71l.008-.006c.138-.086.596-.365.596-.365z" clip-rule="evenodd"/></g><defs><clipPath id="a"><path fill="#fff" d="M20.5 22.831h177v24.337h-177z"/></clipPath></defs></svg>