<svg xmlns="http://www.w3.org/2000/svg" width="16" height="19" fill="none"><path stroke="#F4E28D" stroke-width=".843" d="M15.579 9.754a7.579 7.579 0 1 1-15.158 0 7.579 7.579 0 0 1 15.158 0z"/><path stroke="#F4E28D" stroke-width=".843" d="M12.348 9.678a4.271 4.271 0 1 1-8.542 0 4.271 4.271 0 0 1 8.542 0zm.037 1.307c.513.256 1.892.615 3.308 0m-15.231 0c.513.256 1.893.615 3.308 0m8.615-1.692c.513.256 1.892.615 3.308 0m-15.231 0c.513.256 1.893.615 3.308 0M8.753 5.54c.256-.513.615-1.893 0-3.308m0 15.23c.256-.513.615-1.892 0-3.307M7.06 5.54c.257-.514.616-1.893 0-3.309m.001 15.231c.257-.513.401-2.139-.214-3.554"/><path stroke="#F4E28D" stroke-width=".843" d="M7 1.985c-.693-1-2.76-1.686-4.154.23C1 4.756 8.46 7.063 3.769 9.294m8.539 1.614c-1.154-.77-3.247.954-.847 3.539 3 3.23-2.846 5.538-2.615 3.076"/></svg>