<svg xmlns="http://www.w3.org/2000/svg" width="17" height="16" fill="none"><g clip-path="url(#a)"><path fill="#F2F7F7" fill-rule="evenodd" d="M5.779 3.125a2.225 2.225 0 1 1 4.45 0V3.5h.07c.437 0 .795 0 1.088.02a2.6 2.6 0 0 1 .843.174 2.55 2.55 0 0 1 1.38 1.38c.11.265.153.54.174.843.01.151.015.32.018.508h.377a2.225 2.225 0 0 1 0 4.45h-.375v.53c0 .525 0 .955-.029 1.305-.03.362-.093.69-.25.998a2.55 2.55 0 0 1-1.114 1.114c-.307.157-.635.22-.997.25-.35.028-.78.028-1.305.028h-.48a.6.6 0 0 1-.6-.6v-1.138a.863.863 0 0 0-1.725 0V14.5a.6.6 0 0 1-.6.6h-.805c-.525 0-.955 0-1.305-.029-.362-.03-.69-.092-.998-.249a2.55 2.55 0 0 1-1.114-1.114c-.157-.308-.22-.636-.25-.998-.028-.35-.028-.78-.028-1.305v-.155c0-.87.705-1.575 1.575-1.575a1.025 1.025 0 0 0 0-2.05c-.852 0-1.608-.695-1.561-1.606.017-.344.059-.652.18-.945a2.55 2.55 0 0 1 1.38-1.38c.264-.11.54-.154.843-.174.293-.02.65-.02 1.087-.02h.07v-.375zM8.004 2.1c-.566 0-1.025.459-1.025 1.025V4.1a.6.6 0 0 1-.6.6h-.65c-.463 0-.78 0-1.026.017-.242.017-.372.047-.466.086-.33.137-.593.4-.73.73-.044.105-.076.253-.09.548-.01.165.136.344.362.344a2.225 2.225 0 0 1 0 4.45.375.375 0 0 0-.375.375v.13c0 .556 0 .937.024 1.232.024.288.067.44.123.55.13.255.336.461.59.59.11.057.263.1.551.123.295.024.676.025 1.232.025h.18v-.538a2.062 2.062 0 1 1 4.125 0v.538c.478 0 .818-.003 1.087-.025.288-.023.44-.066.55-.122.255-.13.461-.336.59-.59.057-.11.1-.263.123-.551.024-.295.025-.676.025-1.232v-1.105a.6.6 0 0 1 .6-.6h.975a1.025 1.025 0 0 0 0-2.05h-.975a.6.6 0 0 1-.6-.6c0-.463 0-.78-.017-1.026-.017-.242-.047-.372-.086-.466a1.35 1.35 0 0 0-.73-.73c-.094-.04-.225-.07-.466-.086a16.758 16.758 0 0 0-1.026-.017h-.65a.6.6 0 0 1-.6-.6v-.975c0-.566-.459-1.025-1.025-1.025z" clip-rule="evenodd"/></g><defs><clipPath id="a"><path fill="#fff" d="M.804 0h16v16h-16z"/></clipPath></defs></svg>